
<svg viewBox="0 0 79.224001 67.91" version="1.1" id="svg12" width="79.223999" height="67.910004" xmlns="http://www.w3.org/2000/svg">
  <defs id="defs16">
    <clipPath clipPathUnits="userSpaceOnUse" id="clipPath54">
      <path id="path56" style="fill:#ff0000;fill-opacity:1;fill-rule:nonzero;stroke:none" d="m 0,0 v 67.910156 h 81.384766 c -0.01499,-0.139315 -0.0118,-0.318175 -0.0293,-0.421875 -0.02361,-0.139937 -0.07979,-0.600376 -0.132813,-1.101562 -0.107195,-0.457882 -0.281717,-0.911594 -0.246094,-1.376953 0.03344,-0.436826 0.129574,-0.94484 0.298829,-1.435547 -0.246044,-0.647688 -0.569533,-1.665276 0.376953,-0.910157 -0.02777,-0.07016 -0.0528,-0.137455 0.002,-0.15625 0.06445,-0.02213 0.13016,-0.04093 0.195312,-0.06055 0.140583,-0.189547 0.299317,-0.359825 0.478516,-0.501954 0.0053,-0.0869 0.01216,-0.173358 0.02344,-0.259765 0.02198,-0.168331 0.07776,-0.338557 0.173829,-0.478516 0.215245,-0.313565 0.469683,-0.602162 0.748047,-0.861328 0.07901,-0.07356 0.19617,-0.09055 0.300781,-0.117187 0.509858,-0.12986 0.454132,-0.107988 0.876953,-0.08594 0.01526,0.0024 0.009,0.0016 0.02344,0.0039 0.04873,-0.08253 0.07237,-0.124917 0.13086,-0.224609 0.170628,-0.290848 0.394421,-0.552675 0.638672,-0.785156 0.159867,-0.152164 0.335032,-0.412719 0.539062,-0.429688 0.02915,-0.0024 0.0595,-7.4e-4 0.08984,0.0078 1.077688,0.303713 1.291232,0.580087 1.730469,1.125 0.01639,0.03775 0.03343,0.07596 0.05078,0.113281 0.01485,0.03193 0.03002,0.06377 0.04492,0.0957 V 0 Z"></path>
    </clipPath>
  </defs>
  
  <path d="m 29.007,57.712 10.457,-17.56 c 0.273,1.079 0.822,3.227 0.905,3.557 -0.537,0.925 -8.624,14.915 -8.624,14.915 0,0 11.931,-9.859 12.479,-10.31 0.201,0.239 8.841,10.721 8.841,10.721 0,0 -4.063,-13.569 -4.338,-14.494 0.208,-0.33 1.564,-2.496 2.422,-3.873 L 54.848,57.745 47.457,67.91 H 79.224 L 64.041,0 42.911,0.013 0,67.91 h 33.862 z m 10.832,-18.187 6.665,-11.19 h 1.973 l 2.424,11.19 z" fill="#e3d4ad" id="path2" clip-path="url(#clipPath54)"></path>
  <path d="M 46.073,2.672 H 61.807 L 75.742,65.233 H 53.104 L 58.162,58.389 50.901,25.915 44.899,25.91 25.532,57.771 29.145,65.205 H 6.715 l -2.201,1.364 h 27.049 l -4.28,-8.825 18.368,-30.633 h 4.001 l 6.936,30.939 -6.231,8.523 H 77.498 L 62.978,1.3 45.165,1.286 Z" id="path4"></path>
  <path d="M 22.67,53.812 25.015,52.331 20.844,42.405 34.131,34.081 29.565,25.892 42.417,19.69 38.268,12.382 48.163,7.985 44.549,2.672 43.71,1.445 2.445,66.546 Z" id="path6"></path>
  <path d="m 41.848,43.913 -5.067,8.757 c 0,0 6.681,-5.521 7.629,-6.302 l 5.374,6.514 -2.558,-8.545 2.147,-3.427 h -8.29 c 0,0.001 0.623,2.456 0.765,3.003 z" fill="#a71930" id="path8"></path>
  <path fill="#a71930" d="m 25.532,57.771 19.367,-31.861 6.002,0.005 7.261,32.474 -5.058,6.844 H 75.742 L 61.807,2.672 H 46.073 l 3.878,5.954 -9.775,4.397 4.209,7.29 -12.843,6.148 4.298,7.968 -13.292,8.378 4.094,10.043 -19.927,12.355 h 22.43 z" id="path10"></path>
</svg>
