
<svg viewBox="0 0 253.99024 248.40429" version="1.1" id="svg10" width="253.99023" height="248.4043" xmlns="http://www.w3.org/2000/svg">
  <defs id="defs14">
    <clipPath clipPathUnits="userSpaceOnUse" id="clipPath352">
      <path id="path354" style="fill:#ff0000;fill-opacity:1;fill-rule:nonzero;stroke:none" d="M 0,-0.00195313 V 248.40234 H 253.99023 V -0.00195313 Z M 215.83789,204.70117 c 0.51029,-0.0115 0.98749,0.31321 1.20899,0.92383 0.1069,-0.02 0.21305,-0.043 0.31835,-0.0762 0.24367,-0.0613 0.48874,-0.1151 0.73047,-0.1836 1.0126,-0.28712 0.35108,-0.19694 1.68946,-0.43554 0.0804,-0.0143 0.16449,-0.004 0.24609,0 0.0908,0.005 0.18087,0.0138 0.27148,0.0215 0.18726,-0.0457 0.37561,-0.0895 0.57032,-0.0762 h 0.31445 0.38477 c 0.29023,0 0.57891,1e-5 0.86914,0 0.34351,0 0.68775,1e-5 1.03125,0 0.47358,-10e-6 0.94635,-2e-4 1.41992,0 0.38872,7e-5 0.77729,-0.002 1.16601,-0.002 0.31463,9.5e-4 0.63076,0.005 0.94532,-0.004 0.0599,-0.007 0.167,-0.0609 0.16992,-0.004 0.0372,0.68356 0.0186,1.36979 0.002,2.05469 9.4e-4,0.0156 0.003,0.0312 0.004,0.0469 0.0782,0.0314 0.15652,0.0615 0.23437,0.0937 0.12318,0.051 0.24344,0.1138 0.36914,0.1582 0.20424,0.0721 0.46015,0.0464 0.6211,0.19141 0.40445,0.3643 1.08644,0.95561 0.99414,1.62304 -0.0205,0.14822 -0.0546,0.29432 -0.0918,0.43946 0.0313,0.041 1.7e-4,0.11888 -0.0957,0.38672 0.0479,0.10097 0.0975,0.20264 0.15429,0.31445 0.0201,0.0394 -0.0365,0.0849 -0.0703,0.11328 -0.25174,0.21184 -0.48979,0.45086 -0.78125,0.60351 -0.16237,0.0851 -0.36019,0.0598 -0.54101,0.0898 -0.15267,-0.002 -0.30632,-0.004 -0.45899,-0.006 -0.0657,0.0367 -0.13589,0.0592 -0.21484,0.0605 -0.11587,0.059 -0.23175,0.11701 -0.34961,0.17187 -0.19525,0.0909 -0.38677,0.19831 -0.59375,0.25781 -0.27958,0.0804 -0.56823,0.12661 -0.85742,0.15821 -0.55733,0.061 -1.12715,-0.11524 -1.68164,-0.004 -0.70452,-0.004 -1.49589,-0.007 -2.19532,-0.008 -0.19578,-2e-4 -0.66148,0.005 -0.83789,0.0117 -0.11135,0.005 -0.22264,0.0184 -0.33398,0.0234 -0.17817,0.008 -0.35492,0.009 -0.5332,0.0137 -0.47606,-0.0231 -0.52986,-0.0142 -1.07227,-0.10352 -0.1137,-0.0188 -0.22373,-0.0539 -0.33594,-0.0801 -0.54043,-0.12625 -1.08409,-0.21933 -1.59961,-0.4375 -0.13222,-0.21934 -0.32268,-0.42066 -0.48437,-0.63086 -0.54965,-0.0792 -0.64154,-0.0855 -1.13477,-0.12695 -0.33185,-0.0775 -0.86537,-0.16719 -1.20508,-0.42773 -0.57563,-0.10598 -0.95725,-0.27636 -0.31445,-0.52149 0.0269,0.2278 0.149,0.39458 0.31445,0.52149 0.21856,0.0402 0.4558,0.0722 0.67969,0.0937 -0.0228,-0.008 -0.0457,-0.0157 -0.0684,-0.0234 -0.009,-9.2e-4 -0.0183,-8.9e-4 -0.0273,-0.002 -0.0778,-0.009 -0.1575,-0.0318 -0.2207,-0.0781 -0.0259,-0.0189 -0.0328,-0.0256 -0.0566,-0.043 -0.005,-0.002 -0.009,-0.005 -0.0137,-0.008 -0.0724,-0.0392 -0.13782,-0.0867 -0.19726,-0.14453 -0.19982,-0.14485 -0.32271,-0.23628 -0.39063,-0.32422 -0.006,0.002 -0.0133,0.004 -0.0195,0.006 -0.001,-0.0111 8.5e-4,-0.0237 0,-0.0352 -8e-4,-0.001 -0.001,-0.003 -0.002,-0.004 -0.003,-0.003 -0.007,-0.006 -0.01,-0.01 -0.0413,-0.007 -0.0742,-0.0104 -0.11719,-0.0176 -0.17467,-0.0294 -0.34329,-0.082 -0.51562,-0.12305 -0.006,-0.11879 -0.0164,-0.23795 -0.0293,-0.35742 -0.0232,-0.0122 -0.0471,-0.0229 -0.0703,-0.0351 -0.31729,-0.0709 -0.63997,-0.18832 -0.55469,-0.35743 l 0.4961,-0.56445 c -0.0686,-0.51931 -0.1088,-1.03593 0.0137,-1.53711 0.049,-0.20038 1.04319,-0.1462 1.30078,-0.125 0.0189,-0.0557 0.0398,-0.10975 0.0606,-0.16211 -0.27062,-0.10622 -0.69766,-0.15443 -0.79688,-0.1582 -0.0757,-0.003 -0.15126,0.0174 -0.22656,0.0254 -0.0399,0.0121 -0.15914,0.0466 -0.11914,0.0352 0.0798,-0.0227 0.15678,-0.0546 0.23828,-0.0703 0.1505,-0.0289 0.30482,-0.0447 0.45703,-0.0625 0.0275,-0.003 0.0543,3e-5 0.082,0 0.19433,-7.4e-4 0.31533,-0.001 0.46875,-0.002 0.35417,-0.71585 0.88879,-1.057 1.39258,-1.06836 z m -2.07031,4.58985 c -1.8e-4,-0.003 1.5e-4,-0.005 0,-0.008 -0.002,-3.4e-4 -0.004,-0.002 -0.006,-0.002 0.002,0.003 0.004,0.007 0.006,0.01 z m 13.53125,1.74414 c 0.0405,-0.0206 0.0806,-0.0417 0.12109,-0.0625 -0.0247,-3.3e-4 -0.0495,3.5e-4 -0.0742,0 -0.16366,-0.002 -0.21215,-7e-4 -0.30664,-0.002 0.0999,0.046 0.18487,0.0657 0.25977,0.0645 z m 0.12109,-0.0625 c 0.0312,4.1e-4 0.0626,0.002 0.0937,0.002 0.0332,-0.0186 0.0669,-0.0441 0.0996,-0.0684 -0.0209,-3.1e-4 -0.0359,-0.001 -0.0547,-0.002 0,0 -0.002,0 -0.002,0 -0.0454,0.0232 -0.0913,0.0451 -0.13672,0.0684 z m 1.79102,-1.11328 c -8.4e-4,-0.002 -0.001,-0.004 -0.002,-0.006 -0.004,0.0156 -0.008,0.0312 -0.0117,0.0469 0.006,-0.0182 0.008,-0.0244 0.0137,-0.041 z m -0.002,-0.006 c 0.0307,-0.12742 0.0651,-0.25379 0.0977,-0.38086 -0.0447,-0.0585 -0.21148,-0.0705 -0.47852,-0.53516 0.084,0.24268 0.20382,0.5427 0.38086,0.91602 z m -8.87109,-4.9043 c -0.006,1.3e-4 -0.0135,0.002 -0.0195,0.002 0.0847,0.007 0.16899,0.0153 0.25391,0.0195 0.0438,0.002 -0.0876,-0.0145 -0.13086,-0.0215 -0.0395,-4e-4 -0.071,-6.9e-4 -0.10352,0 z m -0.0605,0.006 c -0.0149,0.002 -0.0279,0.003 -0.0449,0.006 -0.0348,0.007 -0.13596,0.0373 -0.10156,0.0293 0.0486,-0.0112 0.0977,-0.0232 0.14648,-0.0351 z m -5.71679,1.21094 c -0.0161,0.009 -0.0314,0.018 -0.0469,0.0273 0.02,-0.001 0.0306,-0.002 0.0527,-0.004 -9.5e-4,-0.008 -0.003,-0.0159 -0.006,-0.0234 z m -0.69922,3.13086 c -0.0247,0.008 -0.0441,0.0152 -0.0664,0.0234 0.0302,0.033 0.0637,0.0623 0.10547,0.082 0.0369,0.0174 0.1006,0.0452 0.14649,0.0664 -0.0255,-0.0489 -0.0459,-0.10084 -0.0645,-0.1543 -0.0398,-0.006 -0.0799,-0.0112 -0.12109,-0.0176 z m 0.7207,0.12695 c 0.069,0.11775 0.13799,0.23576 0.20703,0.35351 0.25502,0.0895 0.48262,0.14426 0.57617,0.0996 -0.041,-0.0185 -0.0825,-0.0352 -0.12304,-0.0547 -0.0831,-0.0399 -0.14575,-0.11373 -0.21875,-0.16993 -0.0406,-0.044 -0.0691,-0.10486 -0.12305,-0.13086 -0.1,-0.0482 -0.2107,-0.0691 -0.31836,-0.0976 z m 0.30078,0.51172 c 0.004,0.007 0.009,0.0142 0.0137,0.0215 0.41922,0.0347 0.73219,0.0386 0.55274,0.006 -0.18593,-0.034 -0.37686,-0.024 -0.56641,-0.0273 z m 0.0371,0.0644 c 0.0161,0.0274 0.0327,0.0546 0.0488,0.082 0.0756,0.0123 0.29356,0.0742 0.22656,0.0371 -0.0864,-0.0479 -0.17998,-0.0854 -0.27539,-0.11914 z m 0.38477,0.14844 c -0.0577,-0.002 -0.11536,-0.002 -0.16992,0.006 -0.12278,0.0177 0.23104,0.0669 0.37695,0.002 -0.068,-10e-6 -0.13788,-0.005 -0.20703,-0.008 z m 11.91211,0.51953 c -0.0358,0.0168 -0.0716,0.0338 -0.10742,0.0508 0.0738,0.0404 0.1455,0.0557 0.1289,0.006 -0.006,-0.0193 -0.0147,-0.0375 -0.0215,-0.0566 z m 0.19726,0.23242 c -2e-4,0.0156 0.0602,0.003 0.0449,0.002 -0.0151,-7e-4 -0.0298,-0.001 -0.0449,-0.002 z"></path>
    </clipPath>
    <clipPath clipPathUnits="userSpaceOnUse" id="clipPath362">
      <path id="path364" style="fill:#ff0000;fill-opacity:1;fill-rule:nonzero;stroke:none" d="M 4.5195312,19.277344 V 243.96484 H 225.35156 v -32.33203 c -0.51029,0.0214 -1.02925,-0.11524 -1.53515,-0.0137 -0.70452,-0.004 -1.49589,-0.007 -2.19532,-0.008 -0.19578,-2e-4 -0.66148,0.005 -0.83789,0.0117 -0.11135,0.005 -0.22264,0.0184 -0.33398,0.0234 -0.17817,0.008 -0.35492,0.009 -0.5332,0.0137 -0.47606,-0.0231 -0.52986,-0.0142 -1.07227,-0.10352 -0.1137,-0.0188 -0.22373,-0.0539 -0.33594,-0.0801 -0.54043,-0.12625 -1.08409,-0.21933 -1.59961,-0.4375 -0.13222,-0.21934 -0.32268,-0.42066 -0.48437,-0.63086 -0.54965,-0.0792 -0.64154,-0.0855 -1.13477,-0.12695 -0.33185,-0.0775 -0.86537,-0.16719 -1.20508,-0.42773 -0.57563,-0.10598 -0.95725,-0.27636 -0.31445,-0.52149 0.0269,0.2278 0.149,0.39458 0.31445,0.52149 0.21856,0.0402 0.4558,0.0722 0.67969,0.0937 -0.0228,-0.008 -0.0457,-0.0157 -0.0684,-0.0234 -0.009,-9.2e-4 -0.0183,-8.9e-4 -0.0273,-0.002 -0.0778,-0.009 -0.1575,-0.0318 -0.2207,-0.0781 -0.0259,-0.0189 -0.0328,-0.0256 -0.0566,-0.043 -0.005,-0.002 -0.009,-0.005 -0.0137,-0.008 -0.0724,-0.0392 -0.13782,-0.0867 -0.19726,-0.14453 -0.19982,-0.14485 -0.32271,-0.23628 -0.39063,-0.32422 -0.006,0.002 -0.0133,0.004 -0.0195,0.006 -0.001,-0.0111 8.5e-4,-0.0237 0,-0.0352 -8e-4,-0.001 -0.001,-0.003 -0.002,-0.004 -0.003,-0.003 -0.007,-0.006 -0.01,-0.01 -0.0413,-0.007 -0.0742,-0.0104 -0.11719,-0.0176 -0.17467,-0.0294 -0.34329,-0.082 -0.51562,-0.12305 -0.006,-0.11879 -0.0164,-0.23795 -0.0293,-0.35742 -0.0232,-0.0122 -0.0471,-0.0229 -0.0703,-0.0351 -0.31729,-0.0709 -0.63997,-0.18832 -0.55469,-0.35743 l 0.4961,-0.56445 c -0.0686,-0.51931 -0.1088,-1.03593 0.0137,-1.53711 0.049,-0.20038 1.04319,-0.1462 1.30078,-0.125 0.0189,-0.0557 0.0398,-0.10975 0.0606,-0.16211 -0.27062,-0.10622 -0.69766,-0.15443 -0.79688,-0.1582 -0.0757,-0.003 -0.15126,0.0174 -0.22656,0.0254 -0.0399,0.0121 -0.15914,0.0466 -0.11914,0.0352 0.0798,-0.0227 0.15678,-0.0546 0.23828,-0.0703 0.1505,-0.0289 0.30482,-0.0447 0.45703,-0.0625 0.0275,-0.003 0.0543,3e-5 0.082,0 0.19433,-7.4e-4 0.31533,-10e-4 0.46875,-0.002 0.35417,-0.71585 0.88879,-1.057 1.39258,-1.06836 0.51029,-0.0115 0.98749,0.31321 1.20899,0.92383 0.1069,-0.02 0.21305,-0.043 0.31835,-0.0762 0.24367,-0.0613 0.48874,-0.1151 0.73047,-0.1836 1.0126,-0.28712 0.35108,-0.19694 1.68946,-0.43554 0.0804,-0.0143 0.16449,-0.004 0.24609,0 0.0908,0.005 0.18087,0.0138 0.27148,0.0215 0.18726,-0.0457 0.37561,-0.0895 0.57032,-0.0762 h 0.31445 0.38477 c 0.29023,0 0.57891,1e-5 0.86914,0 0.34351,0 0.68775,1e-5 1.03125,0 0.47358,-1e-5 0.94635,-2e-4 1.41992,0 0.15301,3e-5 0.306,3.4e-4 0.45898,0 V 19.277344 Z M 213.76758,209.29102 c -1.8e-4,-0.003 1.5e-4,-0.005 0,-0.008 -0.002,-3.4e-4 -0.004,-0.002 -0.006,-0.002 0.002,0.003 0.004,0.007 0.006,0.01 z m 6.57031,-4.3418 c -0.006,1.3e-4 -0.0135,0.002 -0.0195,0.002 0.0847,0.007 0.16899,0.0153 0.25391,0.0195 0.0438,0.002 -0.0876,-0.0145 -0.13086,-0.0215 -0.0395,-4e-4 -0.071,-6.9e-4 -0.10352,0 z m -0.0605,0.006 c -0.0149,0.002 -0.0279,0.003 -0.0449,0.006 -0.0348,0.007 -0.13596,0.0373 -0.10156,0.0293 0.0486,-0.0112 0.0977,-0.0232 0.14648,-0.0351 z m -5.71679,1.21094 c -0.0161,0.009 -0.0314,0.018 -0.0469,0.0273 0.02,-10e-4 0.0306,-0.002 0.0527,-0.004 -9.5e-4,-0.008 -0.003,-0.0159 -0.006,-0.0234 z m -0.69922,3.13086 c -0.0247,0.008 -0.0441,0.0152 -0.0664,0.0234 0.0302,0.033 0.0637,0.0623 0.10547,0.082 0.0369,0.0174 0.1006,0.0452 0.14649,0.0664 -0.0255,-0.0489 -0.0459,-0.10084 -0.0645,-0.1543 -0.0398,-0.006 -0.0799,-0.0112 -0.12109,-0.0176 z m 0.7207,0.12695 c 0.069,0.11775 0.13799,0.23576 0.20703,0.35351 0.25502,0.0895 0.48262,0.14426 0.57617,0.0996 -0.041,-0.0185 -0.0825,-0.0352 -0.12304,-0.0547 -0.0831,-0.0399 -0.14575,-0.11373 -0.21875,-0.16993 -0.0406,-0.044 -0.0691,-0.10486 -0.12305,-0.13086 -0.1,-0.0482 -0.2107,-0.0691 -0.31836,-0.0976 z m 0.30078,0.51172 c 0.004,0.007 0.009,0.0142 0.0137,0.0215 0.41922,0.0347 0.73219,0.0386 0.55274,0.006 -0.18593,-0.034 -0.37686,-0.024 -0.56641,-0.0273 z m 0.0371,0.0644 c 0.0161,0.0274 0.0327,0.0546 0.0488,0.082 0.0756,0.0123 0.29356,0.0742 0.22656,0.0371 -0.0864,-0.0479 -0.17998,-0.0854 -0.27539,-0.11914 z m 0.38477,0.14844 c -0.0577,-0.002 -0.11536,-0.002 -0.16992,0.006 -0.12278,0.0177 0.23104,0.0669 0.37695,0.002 -0.068,-1e-5 -0.13788,-0.005 -0.20703,-0.008 z"></path>
    </clipPath>
  </defs>
  
  <title id="title2">Boston Red Sox primary dark logo</title>
  <path d="m 228.772,147.07 c -9.004,-6.408 -19.88,-7.828 -30.4,-9.203 -20.068,-2.624 -35.905,-4.703 -38.216,-37.557 -3.357,-47.78 -4.504,-58.755 -16.563,-67.537 -0.404,-3.35 -2.812,-22.436 -2.812,-22.436 C 139.97,3.862 134.063,-0.716 127.6,0.09 L 90.916,4.694 c -3.136,0.386 -5.913,1.965 -7.85,4.475 -1.296,1.66 -2.096,3.602 -2.364,5.658 -5.135,-0.33 -10.053,2.76 -11.854,7.815 0,0 -6.327,17.78 -7.526,21.166 -7.328,3.25 -13.206,13.61 -19.704,34.477 l -3.71,12.042 C 30.706,114.037 25.02,132.78 14.274,144.333 4.947,154.376 0,165.134 0,174.96 c 0,2.986 0.45,5.86 1.363,8.62 2.75,8.237 11.008,18.983 34.837,23.3 13.07,2.26 28.224,11.656 42.88,20.767 10.075,6.26 20.88,12.882 30.575,16.937 6.226,2.648 16.972,7.215 46.89,-0.284 1.545,-0.34 4.794,-1.67 5.9,-6.85 0.245,-1.102 0.36,-2.328 0.36,-3.715 0,-10.053 -7.045,-27.594 -26.068,-43.907 13.6,1.375 28.798,4.6 40.017,8.555 18.636,6.554 53.58,10.985 73.62,-3.556 1.618,-1.046 3.47,-3.465 3.617,-7.85 0,-9.235 -7.668,-27.434 -25.218,-39.908" fill="#ffffff" id="path4" clip-path="url(#clipPath352)" transform="translate(0,0.00195313)"></path>
  <path d="m 226.148,150.72995 c -24.095,-17.097 -66.61,4.885 -70.467,-50.11 -3.516,-50.006997 -4.77,-57.685997 -16.295,-65.309997 l -3.05,-24.423 c -0.512,-3.9999999 -4.17,-6.8399999 -8.174,-6.3279999 l -36.689,4.577 c -3.515,0.455 -6.146,3.3399999 -6.362,6.7599999 1.296,0.454 3.613,1.283 6.425,2.282 l -0.29,-2.328 c -0.074,-0.614 0.37,-1.182 1,-1.26 0.635,-0.08 1.215,0.35 1.29,0.987 l 0.425,3.465 c 1.596,0.556 3.283,1.17 4.993,1.772 l -0.676,-5.476 c -0.102,-0.83 0.49,-1.568 1.29,-1.66 0.817,-0.112 1.544,0.478 1.652,1.297 l 0.852,6.94 c 1.47,0.523 2.908,1.023 4.31,1.523 l -1.08,-8.646 c -0.12,-1 0.58,-1.908 1.58,-2.022 0.983,-0.136 1.89,0.58 2.023,1.58 l 1.295,10.44 c 1.425,0.52 2.76,0.988 3.937,1.42 l -1.523,-12.315 c -0.142,-1.01 0.568,-1.897 1.556,-2.022 0.993,-0.136 1.89,0.57 2.022,1.568 l 1.744,14.12 c 0.528,0.182 0.818,0.273 0.818,0.273 1.352,0.478 2.55,1.195 3.584,2.058 l -2.14,-17.29 c -0.092,-0.796 0.49,-1.546 1.3,-1.647 0.8,-0.08 1.552,0.478 1.637,1.307 l 2.85,22.935 c 0.4,1.227 0.637,2.5 0.637,3.773 0,1.317 -0.238,2.646 -0.7,3.964 0,0 -6.4,18.04 -7.553,21.277 1.425,2.794 2.06,5.748 2.06,8.77 0,9.042 -5.327,18.778 -10.207,27.694997 -2.08,3.783 -4.044,7.362 -5.515,10.724 -7.526,18.37 -11.178,29.742 -11.178,37.5 0,4.135 1.023,7.203 3.027,9.792 0.07,-4.873 0.983,-8.644 1.517,-10.473 4.845,1.533 19.165,6.032 26.35,7.6 0,0 -0.608,14.734 1.193,25.32 0.84,0.672 1.54,1.252 2.073,1.717 0.943,0.658 1.84,1.295 2.738,1.954 16.21,0.93 35.427,4.987 47.82,9.338 19.266,6.77 51.887,9.94 69.632,-3.033 5.015,-3.076 -1.34,-25.91 -21.732,-40.382 M 132.272,38.036953 c -0.64,0.067 -1.214,-0.364 -1.29,-1 l -3.19,-25.696 c -0.076,-0.637 0.39,-1.206 1.01,-1.285 0.642,-0.08 1.216,0.375 1.278,1 l 3.18,25.684 c 0.08,0.635 -0.352,1.215 -0.988,1.295 M 243.114,186.53495 c -6.175,4.135 -14.462,6.17 -23.283,6.794 -1.896,0.056 -3.174,-0.626 -3.6,-2.125 l -6.357,-17.347 c -0.62,-1.454 -0.715,-2.795 1.24,-3.76 0,0 13.114,-5.715 14.568,-6.487 1.45,-0.817 3.285,-2.214 5.045,-0.43 8.73,9.224 12.405,19.334 12.405,23.253 0,0.033 -0.01,0.068 -0.016,0.102" fill="#bd3039" id="path6"></path>
  <path d="m 125.513,186.876 c -1.767,-1.397 -12.15,-10.36 -26.838,-20.29 -14.678,-9.917 -11.287,-24.787 1.89,-56.97 6.448,-14.576 21.198,-32.718 12.89,-45.01 l 8.23,-23.197 c 1.374,-3.806 -0.637,-7.975 -4.442,-9.327 L 82.423,19.7 c -3.81,-1.353 -7.997,0.647 -9.342,4.452 L 64.846,47.34 c -6.43,1.384 -12.23,10.77 -18.938,32.273 -9.172,29.41 -15.018,53.46 -28.326,67.775 -18.96,20.39 -21.056,47.712 19.426,55.073 23.26,4.022 50.757,28.107 74.04,37.843 5.583,2.34 14.717,7.1 44.47,-0.376 6.395,-1.204 3.942,-29.48 -30.003,-53.05 m -90.847,8.542 c -12.655,-2.898 -20.556,-8.124 -22.93,-15.292 -2.42,-7.282 0.783,-16.904 8.593,-26.162 8.854,3.43 16.335,7.554 21.873,11.258 -3.964,8.315 -6.662,18.698 -7.537,30.195 M 115.353,37.272 c 0.596,0.228 0.914,0.864 0.692,1.466 l -8.696,24.39 c -0.21,0.58 -0.88,0.91 -1.483,0.682 -0.6,-0.205 -0.903,-0.875 -0.692,-1.466 l 8.696,-24.38 c 0.232,-0.59 0.88,-0.908 1.482,-0.693 m -6.935,-2.487 c 0.76,0.284 1.17,1.113 0.89,1.886 l -8.485,23.766 c -0.266,0.772 -1.107,1.18 -1.902,0.885 -0.75,-0.272 -1.16,-1.113 -0.892,-1.886 l 8.492,-23.754 c 0.27,-0.76 1.124,-1.17 1.897,-0.897 m -6.953,-2.477 c 0.954,0.328 1.432,1.362 1.102,2.316 l -8.27,23.14 c -0.335,0.932 -1.37,1.42 -2.306,1.09 -0.938,-0.34 -1.432,-1.373 -1.097,-2.316 l 8.265,-23.13 c 0.335,-0.94 1.368,-1.44 2.306,-1.1 M 71.184,51.425 C 70.58,51.198 70.269,50.54 70.478,49.949 l 8.708,-24.367 c 0.22,-0.59 0.88,-0.91 1.488,-0.705 0.58,0.216 0.892,0.875 0.688,1.466 l -8.713,24.38 c -0.217,0.6 -0.87,0.907 -1.467,0.702 m 6.952,2.476 c -0.772,-0.26 -1.18,-1.113 -0.903,-1.897 l 8.48,-23.743 c 0.29,-0.772 1.125,-1.192 1.88,-0.897 0.784,0.26 1.17,1.113 0.904,1.897 L 80.02,53.007 c -0.277,0.773 -1.13,1.18 -1.885,0.897 m 6.93,2.477 c -0.942,-0.34 -1.43,-1.362 -1.096,-2.305 l 8.264,-23.13 c 0.34,-0.954 1.374,-1.442 2.317,-1.113 0.943,0.33 1.432,1.385 1.085,2.317 l -8.258,23.14 c -0.33,0.943 -1.357,1.432 -2.312,1.09 m 66.798,177.8 c -10.985,2.623 -18.7,3.43 -24.276,3.305 -2,0.25 -3.624,-0.682 -3.947,-3.01 l -2.05,-18.12 c 0.05,-1.864 0.624,-3.42 2.92,-3.476 5.378,0.033 11.853,-0.49 13.853,-1.16 2.982,-0.977 3.754,-0.66 4.1,-0.102 7.272,9.77 9.492,18.153 9.492,22.05 0,0.216 -0.07,0.318 -0.092,0.51" fill="#bd3039" id="path8" clip-path="url(#clipPath362)" transform="translate(0,0.00195313)"></path>
</svg>
