<svg id="Ebene_1" xmlns="http://www.w3.org/2000/svg" viewBox="0 0 960.19 960.2"><title>BVB_Standard_Logo</title><ellipse class="cls-1" style="fill:#ffe500" cx="480.09" cy="480.1" rx="480.09" ry="480.1"></ellipse><circle class="cls-2" style="fill:#1d1d1b" cx="480.09" cy="480.1" r="457.02"></circle><circle class="cls-1" style="fill:#ffe500" cx="480.09" cy="480.1" r="431.64"></circle><path class="cls-3" style="fill:#1d1d1b;fill-rule:evenodd" d="M573.36,870.39c-31.88,0-55.08-24.12-55.08-51.68,0-4-.29-5.81-.1-8.7h30.07c8.71,0,7.31,11.8,7.31,11.8,0,9.08,9.82,13.2,17.22,13.4,9,.25,16.34-8,16.34-17.12l-.13-17.6c-5.75,3.12-17.16,3.06-17.16,3.06C544.59,802.8,518,779.3,518,750.24V737.29c0-29.06,24.79-51.94,53.85-51.94H573c29.06,0,51.63,23.54,51.63,52.61v79.39C624.66,847.26,603.48,870.08,573.36,870.39Z" transform="translate(-22.64 -22.51)"></path><path class="cls-4" style="fill:#ffe500;fill-rule:evenodd" d="M572.17,722.9h.51a16.45,16.45,0,0,1,16.45,16.44v10.43a16.44,16.44,0,0,1-16.45,16.44h-.51a16.44,16.44,0,0,1-16.45-16.44V739.34A16.45,16.45,0,0,1,572.17,722.9Z" transform="translate(-22.64 -22.51)"></path><path class="cls-3" style="fill:#1d1d1b;fill-rule:evenodd" d="M244,614.91V530.7h49.08c40.61,0,55.11,73.76,2.32,84.2Zm0-148.32V386.21h55.46c36,0,43.35,69.32,2.16,80.37Zm-66.15-147v358.4l112.91.12c91.08,0,137.34-110.52,74-178.65a.81.81,0,0,1-.19-.53c0-.33.45-.68.45-.68,52.63-59.45,30.59-163.88-67.3-178.64Z" transform="translate(-22.64 -22.51)"></path><path class="cls-3" style="fill:#1d1d1b;fill-rule:evenodd" d="M710.41,614.91V530.7h48.75c40.61,0,55.11,73.76,2.32,84.2Zm0-148.32V386.21h55.13c36,0,43.35,69.32,2.16,80.37Zm-66.48-147v358.4l112.91.12c91.09,0,137.34-110.52,74-178.65a.81.81,0,0,1-.19-.53c0-.33.45-.68.45-.68,52.63-59.45,30.59-163.88-67.3-178.64Z" transform="translate(-22.64 -22.51)"></path><path class="cls-3" style="fill:#1d1d1b;fill-rule:evenodd" d="M432,685.6h1.19a52.62,52.62,0,0,1,52.62,52.63V817.7a52.62,52.62,0,0,1-52.62,52.63H432a52.63,52.63,0,0,1-52.63-52.63V738.23A52.63,52.63,0,0,1,432,685.6Z" transform="translate(-22.64 -22.51)"></path><path class="cls-1" style="fill:#ffe500" d="M409.68,700.84h.53a16.44,16.44,0,0,1,16.44,16.44v78.9a16.45,16.45,0,0,1-16.45,16.45h-.53a16.45,16.45,0,0,1-16.45-16.45V717.29A16.45,16.45,0,0,1,409.68,700.84Z"></path><polygon class="cls-3" style="fill:#1d1d1b;fill-rule:evenodd" points="337.02 118.02 454.45 481.36 505.26 481.36 621.29 118.02 550.23 118.02 479.73 360.53 409.71 118.02 337.02 118.02"></polygon></svg>