<svg xmlns="http://www.w3.org/2000/svg" viewBox="0 0 182.03 189.83"><g id="레이어_2"><g id="레이어_1-2"><g id="レイヤー_2"><path d="M154.53,34.73c5.2-6.8,7.5-12.2,7.9-15.2,2.6-3.1,3.8-6,3.6-8.6a7,7,0,0,0-.6-2.3c1.2-4.5.9-7.1-.9-8.2-2-1.1-3.9.1-6.4,1.5l-.2.1-20.2,12.8-6.1,3.9A88.89,88.89,0,0,0,92,9.53a90.19,90.19,0,0,0-76.3,138.3c-9.8,15.9-12.8,20.6-13.6,21.7,0,.1-.1.2-.2.3-1.1,1.5-2.8,3.9-1.4,5.8.8,1.1,2.4,1.5,4.7,1.3a22.29,22.29,0,0,0,4.3-1,5.93,5.93,0,0,0,2.3.5h.1c2.8,0,5.6-2,7.1-3.4h.3c3.4,0,7.5-2,12.5-6.1a90.2,90.2,0,0,0,122.7-132.2Z" style="fill:#fff"></path><path d="M93.93,49.93a7.17,7.17,0,0,1-.1-1.3v-.2h-1.7a51.21,51.21,0,0,0-51.3,51.3,53.33,53.33,0,0,0,.9,9.8l.1.6.3-.5c2.2-3.5,2.9-4,6.8-4.8,1.7-.3,3.1-.6,4.6-.8,4.6-.7,10.1-2.2,19.5-8.4l.2-.1-2.1-3.6-.3-.2a22.49,22.49,0,0,1-7.6-8.8l-.1-.3c-.7-.6-5.2-3.4-9.7-6.2-1.7-1.1-2.6-2.7-2.1-3.8.5-1.3,2-1.8,4-1.3.9.2,3.3.9,3.3.9l.7.2a36,36,0,0,0,7.3,1.6h0a6.71,6.71,0,0,0,3.4-.4c4.1-.9,6.8-.3,9.6,2.3l.5.5a10,10,0,0,0,6.5,3.4h.1l.1-.1A45.63,45.63,0,0,0,93.93,49.93Z" style="fill:#fff"></path><path d="M128.43,63.43a37.28,37.28,0,0,0-3.6-3.2l-.3-.2-.1.4a182.15,182.15,0,0,1-10.6,28.1v.1a56.44,56.44,0,0,1-4.7,15.3.53.53,0,0,0,.1.7s1.4,1.4,1.9,2S113,109,113,109l.1.1,16.3-1.3c.6,0,1.1-.1,1.6-.1,2.6-.2,4.1-.4,4.7,1.4a6.53,6.53,0,0,1-1.2,4.8l-.1.1.1.1a4.16,4.16,0,0,1,.3,3.4,2.76,2.76,0,0,1-1.2,1.6l-.1.1v.2a5,5,0,0,1-2.6,6l-.2.1.1.2a5.08,5.08,0,0,1-.2,3.8c-.7,1.3-1.8,1.8-3.7,2.3h-.2v.2a6.18,6.18,0,0,1-1.4,3.8c-1,1-2.6,1.3-4.7.9h-.2l-.1.2a4.42,4.42,0,0,1-2.1,2.8q-2,.9-4.8-.9l-.1-.1-.1.1c-.8.5-3.1,1.5-4.7.7-.6-.3-1-1.4-1.2-3.1-.2-2.2-.5-5.8-.7-8.5v-.2h-.2a3,3,0,0,1-1.8-1.3c-1.6-2.2-2.6-3.4-5.5-4.3-.1,0-.4-.1-.5-.6v-.1h-.1A46,46,0,0,1,94,119l-.1-.1-.1.1c-.9.5-4.5,2.5-13.8,3.9h-.1a4.82,4.82,0,0,0-1,.8,76.6,76.6,0,0,1-22.3,11.9c-.1,0-.1,0-.2.1h0a.35.35,0,0,0-.1.2l-.2.3h.1l.1.1a51.35,51.35,0,0,0,87.5-36.5A53.14,53.14,0,0,0,128.43,63.43Z" style="fill:#fff"></path><path d="M126.13,155.63l4.5,4.5-2.5,1.6Zm33.3-39.6c-4-1.2-9-2.1-9.7.4s3.9,4.4,8,5.6,9,2.1,9.7-.4S163.43,117.23,159.43,116Zm-44.3,51.5a1.93,1.93,0,0,0-1.8-.6l-1.4.4,2.2,6.9,1.4-.4c1.3-.4,1.7-1.9,1.1-4A7.63,7.63,0,0,0,115.13,167.53Zm62.1-67.8a85.05,85.05,0,0,1-142.9,62.4l-.2-.2.2-.2c8.1-7.7,16-18.2,20.1-23.8l.2-.2.2.2a53.46,53.46,0,0,0,75.2-76,61,61,0,0,0-4.6-4.1l-.1-.1.1-.3.1-.1a108.17,108.17,0,0,0,24-19.9l.3-.4.2.2A85.89,85.89,0,0,1,177.23,99.73Zm-4.5-4.8-2.7,2-17.3.2v-1.8l3.6-2.6-6.4.1.1,12.6,6.4-.1-3.6-2.5V101l17.3-.2,2.8,1.9Zm-27.8-25,14.5-9.6,3.4.1-6.6-10-5.3,3.5,4.4.2,2,3-6.6,4.4-1.3-2,1.3-3.4-7.3,4.8,3.6.1,1.3,2-5.4,3.6-2-3,1.6-4.1-5.3,3.5,6.6,10Zm4.2,18.3,6.1-1.9L151,85l-.6-1.7,16.5-5.3,3.2,1-2.4-7.4-2,2.7-16.5,5.3-.6-1.7,2.6-3.5-6.1,1.9Zm-83.3,71.4,3.1-5.6-.1-.1a7.44,7.44,0,0,0-3.4-3.4c-3.6-2-9.2,1-12.4,6.7a16.41,16.41,0,0,0-2.2,8.3c.1,2.7,1.2,4.7,3,5.7a7.34,7.34,0,0,0,4,1.1h.8l3.2-5.7-4.7,2.2a1.81,1.81,0,0,1-2,0c-1.8-1-1.3-4.2,1.7-9.5,1.9-3.5,4.8-7.9,7.2-6.5a1.91,1.91,0,0,1,1.1,1.7Zm22.3-1.7-7.6-1.6,1.4,3.1-1.3,6.3-4.5-.9,1.3-6.3,2.5-2.3-7.6-1.6,1.4,3.1-3.6,17-2.5,2.3,7.6,1.6-1.4-3.1,1.7-8,4.5.9-1.7,8-2.5,2.3,7.6,1.6-1.4-3.1,3.6-17Zm12.3,22.1-2.1-2.6-.9-17.3,1.8-2.8-7.8.3,2.1,2.6.9,17.4-1.8,2.8Zm19.9-11.2c-.7-2.3-2.8-4.2-4.9-4.3a5.88,5.88,0,0,0,1-5.3,6.23,6.23,0,0,0-3.2-4.1,6,6,0,0,0-4.4-.1l-6.4,2,2.7,2,5.3,16.6-1.1,3.2,6.9-2.2C118,176.13,122,174.23,120.33,168.83Zm21.4-5-3.2-1.3-14.7-14.2-.1-.1-2.1,1.3,6.3,19.7-.2,3.4,5.4-3.4-3-1.3-1.1-3.4,3.7-2.3,2.5,2.5L135,168Zm22-26.6-5.4-3.4,1.7,4.1-1.8,2.9-14.7-9.1-1.3-3.1-4.1,6.6,3.4-.2,14.8,9.2,1.3,3.1Zm4.3-21.1a17.47,17.47,0,0,0-7.4-4.3,17,17,0,0,0-8.6-.4c-2.7.7-4.5,2.2-5.1,4.2s.1,4.3,2.1,6.3a17.47,17.47,0,0,0,7.4,4.3,18.42,18.42,0,0,0,5.1.7,12.2,12.2,0,0,0,3.4-.4c2.7-.7,4.5-2.2,5.1-4.2S170,118.13,168,116.13Zm-55.3,44.4c-.7-2.1-1.8-3.2-3-2.8l-.8.3,2.1,6.8.8-.3C113,164.13,113.43,162.63,112.73,160.53Zm-72.3-74.8a55.23,55.23,0,0,0-.3,26.8v.1l-.1.1c-3.3,5.4-11.8,19.4-19.8,32.2l-.2.3-.2-.3a85.07,85.07,0,0,1,108.7-122l.4.2-.4.2c-18.7,11.9-29,18.5-30.7,19.6a14.14,14.14,0,0,0-3.7,3.2l-.1.1h-.1a53.7,53.7,0,0,0-40,15.6A57.4,57.4,0,0,0,40.43,85.73Zm54.3-49a4.37,4.37,0,0,1-.7,2.5,1.57,1.57,0,0,1-1.3.7h0a2,2,0,0,1-1.4-.6l-2.2-3.6L87,41l3.9.9a11,11,0,0,0,1.8.2h.1a5.13,5.13,0,0,0,4.3-2.2,8.77,8.77,0,0,0,1.3-4.8,6.94,6.94,0,0,0-2.1-5.4L93,26.33a4.22,4.22,0,0,1-1.4-3,2.86,2.86,0,0,1,.5-1.7,1.51,1.51,0,0,1,1.3-.7,1.61,1.61,0,0,1,1.1.5l2.1,3.2,2.1-5-3.8-.9a10.4,10.4,0,0,0-1.5-.2h-.1a4.61,4.61,0,0,0-3.9,2,8.39,8.39,0,0,0-1.3,4.3,7.94,7.94,0,0,0,2.5,5.9l3.3,3.4A4.45,4.45,0,0,1,94.73,36.73Zm-28.9-13.6,2.6,2.2,4.3,16.8-1.2,3.1,11.6-3L81.53,36l-1.6,4.1-3.5.9-2-7.6,2.3-.6,2.8,2.3-2.2-8.5L76,30l-2.3.6-1.6-6.3,3.5-.9,3.4,2.8L77.43,20Zm-22.2,11.6,3.1,1.3,9,14.8-.3,3.5,5.4-3.3-3.1-1.3-6.6-10.8,17.5,10.8L56.63,30l.2-3.4-5.4,3.3,3.1,1.3,4.9,8L47.93,32Zm-12.9,12.5,3.3.5,12.6,11.9.7,3.3,5.3-5.7-3.3-.5-12.6-11.9-.7-3.3Zm5.3,69.5-.8-6.3-2.5,2.3-13.4,1.9,10.5-5.9-11.8-3,13.4-1.8,3,1.6-1-7.7-2.5,2.3-17.2,2.3-3-1.6.7,5.4,9.9,2.5-8.9,5,.8,6,2.5-2.3,17.2-2.3ZM37,80l-3.1,1.4-20.6.8-.5,2.4,18.6,9,2.3,2.5,1.3-6.3-3,1.3-3.2-1.5.9-4.2,3.6-.1,2.2,2.4Zm4.5-8.4-3.3.4-6.4-3.5.5-.9,10.6,1.7,2.6-4.7-3.4.4-8.8-1.1a6.23,6.23,0,0,0-3.3-5.2c-1.3-.7-5.8-2.7-8.7,2.6l-3.4,6.2,3.3-.4,15.2,8.3,1.5,3Zm-13.7-9.2c-1.9-1-3.5-.9-4.2.3l-.6,1.1,6.2,3.4.6-1.1a2.14,2.14,0,0,0-.1-1.9A4.72,4.72,0,0,0,27.83,62.43Zm-1.7,26,.6-2.9-6.3.2Z" style="fill:#eeeeef"></path><path d="M92.63,66.83c.2-.9.5-1.8.7-2.8l-1.1.9-5.5-.2.6,1.9Z" style="fill:#b71649"></path><path d="M88,69.13l.8,1.9,2.5-.1c.2-.6.5-1.3.7-2Z" style="fill:#b71649"></path><path d="M85.63,60.13l.5,2,5.4.6h0l2.2-1.4c.1-.8.2-1.6.3-2.5l-3,1.9Z" style="fill:#b71649"></path><path d="M84.93,55.63l.3,2,5.4,1.1h0l3.6-1.9v-2.2l-3.9,2Z" style="fill:#b71649"></path><polygon points="132.03 95.23 132.03 95.13 130.03 94.73 130.73 100.23 127.83 104.93 129.83 105.33 132.73 100.63 132.03 95.23" style="fill:#b71649"></polygon><polygon points="124.53 98.53 124.73 93.03 122.83 92.23 122.73 97.73 119.03 101.93 120.93 102.73 124.53 98.53" style="fill:#b71649"></polygon><polygon points="125.33 104.23 128.53 99.73 128.63 99.73 128.33 94.23 126.43 93.63 126.63 99.13 123.43 103.63 125.33 104.23" style="fill:#b71649"></polygon><path d="M54,103.93l-.6-4.5,2.9-4.7-2-.4L51.43,99h0l.7,5.3c.5-.1.9-.1,1.3-.2A.73.73,0,0,1,54,103.93Z" style="fill:#b71649"></path><path d="M116.83,95l1.1-5.4-1.8-1L115,94l-3.2,2.7a5.64,5.64,0,0,1-.4,1.2l1.1.7,4.3-3.6Z" style="fill:#b71649"></path><path d="M57.53,100.43l3.3-4.5-2-.6-3.3,4.5.2,3.7a18,18,0,0,0,1.9-.5Z" style="fill:#b71649"></path><path d="M63.23,96.93l-3.6,4.2-.1,1.5c.6-.2,1.3-.5,2-.7l3.6-4.2Z" style="fill:#b71649"></path><polygon points="120.63 96.93 121.33 91.43 119.43 90.53 118.83 96.03 114.93 99.93 116.73 100.83 120.63 96.93" style="fill:#b71649"></polygon><polygon points="99.23 144.03 98.93 141.93 93.63 140.93 93.53 140.93 88.63 143.43 88.93 145.43 93.83 142.93 99.23 144.03" style="fill:#b71649"></polygon><polygon points="94.23 145.13 94.13 145.03 89.13 147.23 89.03 147.23 89.13 149.23 94.23 147.13 99.53 148.63 99.43 146.63 94.23 145.13" style="fill:#b71649"></polygon><polygon points="98.53 139.43 98.13 137.43 92.73 136.83 92.63 136.73 87.93 139.73 88.43 141.73 93.13 138.73 98.53 139.43" style="fill:#b71649"></polygon><polygon points="137.53 96.03 139.13 101.33 137.03 106.43 139.03 106.53 141.13 101.43 141.13 101.43 139.53 96.13 137.53 96.03" style="fill:#b71649"></polygon><polygon points="133.73 95.53 134.83 100.93 132.43 105.83 134.43 106.13 136.93 101.23 136.93 101.23 135.73 95.83 133.73 95.53" style="fill:#b71649"></polygon><polygon points="97.53 134.93 96.93 132.93 91.43 132.73 91.43 132.73 86.93 136.03 87.63 138.03 92.03 134.73 97.53 134.93" style="fill:#b71649"></polygon><polygon points="96.13 130.43 95.33 128.53 89.83 128.83 85.73 132.53 86.43 134.33 90.63 130.73 96.13 130.43" style="fill:#b71649"></polygon><path d="M90,54.53h0l4.2-1.7a13.55,13.55,0,0,0-.2-2l-4.1,1.7L84.63,51l.1,2Z" style="fill:#b71649"></path><path d="M80.23,122.63l1.1,1.5,1.4-2A10.08,10.08,0,0,1,80.23,122.63Z" style="fill:#b71649"></path><polygon points="50.43 104.03 49.33 98.63 51.83 93.73 49.73 93.43 47.33 98.33 48.43 103.73 50.43 104.03" style="fill:#b71649"></polygon><polygon points="46.63 103.53 45.13 98.23 47.23 93.13 45.13 93.03 43.03 98.13 43.03 98.13 44.63 103.43 46.63 103.53" style="fill:#b71649"></polygon><polygon points="94.33 126.13 93.43 124.33 87.93 125.03 84.13 129.03 85.03 130.83 88.83 126.93 94.33 126.13" style="fill:#b71649"></polygon><path d="M92.23,122l-1.1-1.7-2.4.5a18.6,18.6,0,0,1-3.2.8l-3.3,4.1,1.1,1.7,3.5-4.3Z" style="fill:#b71649"></path><path d="M151.93,30.53a.86.86,0,0,0-.3-.6c-.6-.4-2.1.2-5.8,2.5l-.1.1a7.76,7.76,0,0,1-.7.4l.2-.2.8-.8c3.3-3.4,5.3-5.6,5.2-6.6,0-.2-.1-.3-.3-.4-.8-.4-4.7.9-8.1,3.2a1.55,1.55,0,0,1-.6.3l.4-.4c.4-.3,8.9-7.6,8.8-8.8,0-.1-.1-.2-.2-.3-.8-.4-4.5,1.4-5.2,1.8-1.7.8-3.7,1.9-5.7,3.1a1.19,1.19,0,0,1-.6.2,1.73,1.73,0,0,1,.3-.4c7.4-5.5,11.1-8.9,11-10.3a.55.55,0,0,0-.3-.5c-.9-.5-13.4,6.9-15.9,8.4-15,9.5-33.4,21.2-35.7,22.8-3.6,2.5-3.8,3-3.6,5.8a47.09,47.09,0,0,1-7.6,31.1,1.24,1.24,0,0,0-.2.3h0c-1,1.3-1.8,2-2.2,1.9a7.35,7.35,0,0,1,.7-1.8l.2-.3h-.3a11.79,11.79,0,0,1-7-4.1l-.2-.2a7.68,7.68,0,0,0-4.6-2.2H74l.1.3v.1c0,.6-.5,1-1.2,1a1.41,1.41,0,0,1-1.2-.6c-.1-.1,0-.2,0-.3l.3-.5-.7.1c-.9.2-1.6.3-2.1.4l-.4.1.2.3a8.62,8.62,0,0,1,1.2,2.7v.1h.9a2.13,2.13,0,0,1-.9.6,10,10,0,0,0-5,3.9l-.1.1.1.1a23.55,23.55,0,0,0,7.1,7.9l3.1,5.2c.5.6,1,1.1,1.3,1.5s.6.6.6.7-.1.1-.2.1a6.08,6.08,0,0,1-2.5-1.8l-.1-.1-.2.1c-9.8,6.5-15.5,8.1-20.3,8.8a43,43,0,0,0-4.5.8c-3.4.7-4.1,1.1-6.2,4.7-.8,1.5-14.9,24.5-25.4,41.4-4.4,7.5-4.2,8-4.1,8.2a.78.78,0,0,0,.4.4c1.3.2,4.9-3.7,10.6-11.5a.75.75,0,0,1,.3-.3,1.1,1.1,0,0,1-.3.6c-2.7,4.5-5.8,10.1-5.5,11.1,0,.1.1.2.3.2,1,.2,6.3-5.1,9.2-8.7a.75.75,0,0,1,.3-.3,1.55,1.55,0,0,1-.3.6c-1.8,2.8-4.5,7.2-4.2,8.1.1.1.2.2.3.2.9.1,4.8-2.6,7.4-5.5l.3-.3c0,.1-.1.3-.2.3l-.1.1c-.9,1.4-2.9,4.7-2.8,6,0,.2.1.3.3.4H30c1.2,0,4.7-2.5,6.2-4a211.75,211.75,0,0,0,18.2-22.5c.3-.4.6-.8.7-.9h0l.1-.2.2-.1a72.32,72.32,0,0,0,23.5-12.7l.2-.1h.1a48.21,48.21,0,0,0,13.2-3.6l.3-.1-.2-.2a12.9,12.9,0,0,1-1.3-1.7,1.08,1.08,0,0,1-.2-.7,29.78,29.78,0,0,1,3.3,2.3h0a20.56,20.56,0,0,0,4.1,2.3l.2.1.1-.2a5.58,5.58,0,0,1,.5-.8l.2-.2-.2-.1c-.2-.1-.3-.2-.5-.3-.5-.3-1.2-.7-1.3-1a.78.78,0,0,1,.2-1c1.6-1.5,4.9.2,6.2,1.1,1,.8,1.5,1.5,1.4,2.2a.37.37,0,0,1-.1.3l-.1.2.2.1a9.42,9.42,0,0,0,4.4.4.37.37,0,0,0,.3-.1l.4-.1-.2-.3c-.1-.1-.2-.2-.2-.3-1.6-2.2-2.6-3.4-5.5-4.3-.1,0-.5-.2-.6-1a4,4,0,0,1,.9-2.2l.2-.2-.2-.1c-.2-.1-.3-.2-.5-.3-.5-.3-1.2-.7-1.3-1a.78.78,0,0,1,.2-1c1.6-1.5,4.9.2,6.2,1.1,1,.8,1.5,1.5,1.4,2.2a.37.37,0,0,1-.1.3l-.2.5.2.1a11.15,11.15,0,0,0,4.4.4c.2,0,.3-.1.4-.1h.1c.1,0,.2.2.4.6a2,2,0,0,1,.4,1.5,1.79,1.79,0,0,1-.7,1.3l-.2.1.1.2a2.23,2.23,0,0,1,.2,2.1c-.5.8-1.5.8-2.4.7h-.1l-.1.1a1.41,1.41,0,0,1-1.2.6,2.92,2.92,0,0,1-.9-.2l-.7-.4.3.7a2.09,2.09,0,0,1,.3,1.4,1.79,1.79,0,0,1-.7,1.3l-.2.1.1.2a2.23,2.23,0,0,1,.2,2.1c-.4.6-1.1.8-2.2.7h-.3v.3c.2,2.8.5,6.6.8,9,.1,1.1.2,1.7.7,2,1.3.7,3.4-.8,4-1.2.6.5,2.7,2.1,4.2,1.5,1.3-.5,1.4-2.7,1.5-3.6,1,.4,4,1.4,5.3,0,1.1-1.2.8-3.2.6-4,.9,0,3.6-.2,4.4-1.9a3.85,3.85,0,0,0-.7-4.1,5.4,5.4,0,0,0,3.5-2.6,3.34,3.34,0,0,0-.7-3.7,3,3,0,0,0,2.1-1.5,3.15,3.15,0,0,0-.7-3.3c.5-.6,2-2.6,1.5-4-.3-1-1.5-.9-3.4-.8-.4,0-.9.1-1.4.1l-15.8,1.3.1.3c.3.9.1,1.1.1,1.1-.2.1-1-.6-1.7-1.6l-.4-.6c-.6-.8-1.3-1.7-1.6-2.1-.7-.8-2-2-2.1-2.1l-.1-.1c-.6-.7-.7-.9-.2-2.1,3.3-6.7,4.5-15,4.6-15v-.2c8.6-18.4,11.1-29.9,11.4-31.2l.1-.3.2-.1a114.51,114.51,0,0,0,21.7-17.3h0C147.43,37.53,152.13,32.23,151.93,30.53Z" style="fill:#fff"></path><path d="M110,121.73h-.2c-3.3.5-6.4-1.5-7.3-2.1h0c-.1-.1-.6-.4-.4-.6s.5-.1.7,0c0,0,.4.2,1.1.5l.2.1.1-.2c.1-.1.1-.5-1-1.4-1.3-1-3.6-2.5-4.6-1.5a.37.37,0,0,0-.1.3c.1.3.6.6,1.4,1a.37.37,0,0,0,.3.1c.2.1.3.2.3.4s0,.4-.2.5c-1.1,1-1.2,1.6-1.2,1.8a.45.45,0,0,0,.3.4c3.1,1.1,4.3,2.5,5.9,4.7.2.3.7.9,1.1.9h.1c.4,0,.6-.5.6-.5a.71.71,0,0,1,.6-.3c1.3.2,1.6.1,1.7,0l.1-.1v-.1a5.22,5.22,0,0,0-.6-1.7c-.2-.4-.2-.5-.1-.6s.2-.1.6-.2.6-.2.6-.8a2.18,2.18,0,0,0-.1-.6Z" style="fill:#f4d365"></path><path d="M115.53,115.43l-.1-.2h-.2c-3.3.5-6.4-1.5-7.3-2.1h-.1c-.3-.2-.5-.4-.4-.6s.5-.1.7.1c.1,0,.5.3,1,.5l.2.1.1-.2c.1-.1.1-.5-1-1.4-1.3-1-3.6-2.5-4.6-1.5a.37.37,0,0,0-.1.3c.1.3.6.6,1.4,1a.37.37,0,0,0,.3.1c.2.1.3.2.3.4s0,.4-.2.5c-1.1,1-1.2,1.6-1.2,1.8s.2.3.3.4c3.1,1.1,4.3,2.5,5.9,4.7.2.3.7.9,1.1.9h.1c.4,0,.6-.5.6-.5a.71.71,0,0,1,.6-.3c1.3.2,1.6.1,1.7,0l.1-.1v-.1a5.22,5.22,0,0,0-.6-1.7c-.2-.4-.2-.5-.1-.6s.2-.1.6-.2.6-.2.6-.8C115.63,115.73,115.53,115.43,115.53,115.43Z" style="fill:#f4d365"></path><path d="M68.73,77.43a5,5,0,0,0-.9-2.1l-.1-.1h-.1a6.88,6.88,0,0,1-1.3-.2,53.17,53.17,0,0,1-8.1-2.1l-.4-.1a23.18,23.18,0,0,0-3-.8,1.78,1.78,0,0,0-2.3,1.1,2.09,2.09,0,0,0,.3,1.7l.3.4.1-.5c.2-.9.8-1.2,1.9-1,.9.2,2.7.8,6.4,1.9,1.8.6,4.2,1.3,7.1,2.3l.4.1Z" style="fill:#f4d365"></path><path d="M62.43,76.53c-1.6-.5-2.9-.9-4-1.3l-1-.3.7.7a.71.71,0,0,1,.1,1.1,1.53,1.53,0,0,1-.7.5h-.1v.2h0l-.1.2.1.1.1.1h0c4.3,2.5,6.5,3.9,6.6,4l.3.3.2-.2a8.41,8.41,0,0,1,3.2-2.9l.5-.4-.4-.1C65.73,77.63,63.93,77,62.43,76.53Z" style="fill:#f4d365"></path><path d="M58.53,76.93a1,1,0,0,0-.2-1.4l-.4-.4c-1.6-.5-2.5-.8-3-.9-1.1-.2-1.4.3-1.4.5a.78.78,0,0,0,.2.8l.1.1h.1l3.4,1.9a1,1,0,0,0,.4-.1h0A1.21,1.21,0,0,0,58.53,76.93Z" style="fill:#b71649"></path><path d="M151.63,34.93c7.3-9,8.6-14.7,8.7-16.3,2.5-2.9,3.7-5.4,3.6-7.6a4.25,4.25,0,0,0-.7-2.1c.9-2.9,1.4-6,.3-6.6-.9-.5-2.2.3-4.4,1.6l-20.2,12.8c-2.3,1.5-4.7,3-7.1,4.5a86.76,86.76,0,0,0-39.7-9.5,88,88,0,0,0-73.7,136.1c-6.9,11.2-13,21-14.3,23-.4.6-2.2,2.8-1.6,3.6.4.6,1.9.5,2.7.4a19.19,19.19,0,0,0,4.8-1.3,3.23,3.23,0,0,0,2.1.8c2.6.1,5.5-2.4,6.4-3.4.4,0,.7.1,1.1.1,3.5,0,7.9-2.8,12.5-6.8a88,88,0,1,0,119.5-129.3ZM7.23,99.73a84.89,84.89,0,0,1,121.5-76.6c-14.5,9.2-28.7,18.2-30.7,19.6a14.14,14.14,0,0,0-3.7,3.3,53.78,53.78,0,0,0-54.4,66.6c-3.5,5.7-11.9,19.5-19.8,32.2A84.55,84.55,0,0,1,7.23,99.73ZM55,73.53c-1.8-.3-2.1.9-2.2,1.2h0a1.45,1.45,0,0,1-.3-1.5,1.58,1.58,0,0,1,2.1-.9c.3.1,1.8.4,3,.8a71.27,71.27,0,0,0,8.6,2.3,7.84,7.84,0,0,0,1.4.2,6,6,0,0,1,.9,2.2C59.83,74.93,56.33,73.73,55,73.53Zm12.8,5-.2.1a9.35,9.35,0,0,0-3.2,3h-.1c-.1-.1-3.6-2.4-10.5-6.2h0c-.3-.2-.3-1.1,1-.9S59.33,75.83,67.83,78.53Zm-1.1-4.7a40.7,40.7,0,0,1-8-1.8c-.1,0-2.4-.7-3.3-.9-2-.5-3.7,0-4.3,1.4-.5,1.2.3,2.9,2.2,4.1,4.1,2.6,8.9,5.6,9.6,6.2a24.12,24.12,0,0,0,7.9,9.1l2,3.4c-8.6,5.7-14.1,7.6-19.4,8.4-1.4.2-2.9.4-4.6.8-3.9.8-4.7,1.3-6.9,4.9a52.26,52.26,0,0,1-.9-9.7,50.35,50.35,0,0,1,15-36.1,50.87,50.87,0,0,1,36.1-14.9h1.5c0,.4.1.9.1,1.3,1.8,15.4-5.5,27.3-7,29.6-3.8-.2-5.9-2.8-6.9-3.7-3.1-2.8-6.1-3.2-9.8-2.3A8,8,0,0,1,66.73,73.83Zm-37,87.6c-.1-.9,1.1-3.3,2.7-5.8.1-.2.5-.6.3-.8s-.5.2-.7.4c-2.8,3.2-7,6-7.3,5.3s1.7-4.2,4.2-7.9c.2-.2.5-.8.2-.9s-.5.2-.7.4c-3.6,4.3-8.8,9.3-9.1,8.5s2.3-5.6,5.5-10.9c.1-.2.4-.8.2-1s-.5.2-.7.4c-9.6,13.1-10.5,11.5-10.7,11.2s1.8-4.2,4-8c10.7-17.3,24.6-40,25.4-41.4,2.1-3.6,2.7-3.9,6.1-4.6,1.6-.3,3.1-.5,4.5-.8,5.4-.8,11.2-2.7,20.4-8.8.9.9,2.5,2.4,3,1.7.3-.4-.8-1-1.9-2.4L72,90.83a23.24,23.24,0,0,1-7.1-7.9,10.66,10.66,0,0,1,4.9-3.8h0a2,2,0,0,0,.9-.5,2.19,2.19,0,0,0,.3-.5V78h-.1a.76.76,0,0,0-.4.1h-.3a9.27,9.27,0,0,0-1.3-2.7c.5-.1,1.2-.2,2.1-.4h.2v.1c-.4.6.6,1.3,1.4,1.3a1.35,1.35,0,0,0,1.4-1.3v-.2a7.3,7.3,0,0,1,4.5,2.1,12.14,12.14,0,0,0,7.3,4.4c-.5.9-.9,1.9-.7,2,.7.4,2-1.2,2.6-1.9h0v-.1a1.24,1.24,0,0,1,.2-.3h0a47,47,0,0,0,7.6-31.2c-.2-2.7,0-3.1,3.5-5.6,2.2-1.5,19.6-12.6,35.7-22.8,4.6-2.7,15-8.8,15.6-8.4.3.1,1.8,1.1-10.7,10.4-.2.2-.5.5-.4.7s.7,0,.9-.2c2.1-1.2,4.1-2.3,5.7-3.1,2.4-1.2,4.6-2,5-1.8.7.3-4.5,5.2-8.6,8.7-.2.2-.5.5-.4.7s.7,0,.9-.2c3.6-2.4,7.3-3.5,7.9-3.2,1,.6-2.6,4.1-5.7,7.3-.2.2-.5.5-.3.6s.9-.3,1.2-.5c2.5-1.5,5-2.9,5.5-2.5,1.4.9-3.7,6.7-5.6,8.8A112,112,0,0,1,124,56.13l-.3.2-.1.4c0,.1-2.4,11.9-11.4,31.1l-.1.1V88a61.82,61.82,0,0,1-4.5,15c-.7,1.4-.4,1.6.3,2.4,0,0,1.4,1.3,2.1,2.1.4.4,1.4,1.9,2,2.7,0,0,1.4,1.9,2,1.6.3-.1.2-.7,0-1.3l15.6-1.2c2.6-.1,4.2-.5,4.5.5.5,1.5-1.7,3.9-1.7,3.9a2.82,2.82,0,0,1,.9,3.2,3,3,0,0,1-2.3,1.4,3.33,3.33,0,0,1,.9,3.8,5.06,5.06,0,0,1-3.7,2.5,3.75,3.75,0,0,1,.9,4.2c-.9,2-4.5,1.8-4.5,1.8s.8,2.7-.5,4.1c-1.4,1.6-5.3-.2-5.3-.2s.1,3.2-1.3,3.8c-1.6.6-4.1-1.6-4.1-1.6s-2.5,2.1-3.9,1.3c-.4-.2-.5-.7-.6-1.8-.2-2.3-.5-6.1-.8-9a2.43,2.43,0,0,0,2.4-.8,2.38,2.38,0,0,0-.2-2.3,1.68,1.68,0,0,0,.8-1.4,2.39,2.39,0,0,0-.3-1.5,1.49,1.49,0,0,0,.9.2h.1a1.67,1.67,0,0,0,1.3-.7,2.62,2.62,0,0,0,2.6-.8,2.38,2.38,0,0,0-.2-2.3,1.68,1.68,0,0,0,.8-1.4,3.06,3.06,0,0,0-.4-1.7c-.2-.4-.5-.7-.6-.7a4.33,4.33,0,0,1-.5.1,9,9,0,0,1-4.3-.4c0-.1.1-.3.1-.4q.15-1.2-1.5-2.4c-1.1-.8-4.7-2.8-6.5-1.1a1.16,1.16,0,0,0-.3,1.3c.2.6,1.3,1,2,1.4a4.17,4.17,0,0,0-1,2.3c0,1.1.7,1.2.7,1.2,2.9.9,3.9,2.2,5.4,4.2l.3.3a.37.37,0,0,0-.3.1,9,9,0,0,1-4.3-.4c0-.1.1-.3.1-.4q.15-1.2-1.5-2.4c-1.1-.8-4.7-2.8-6.5-1.1a1.16,1.16,0,0,0-.3,1.3c.2.6,1.3,1,2,1.4a5.55,5.55,0,0,1-.6.8,19.31,19.31,0,0,1-4.1-2.3,23.46,23.46,0,0,0-3.6-2.5c-.2-.1-.3.5.1,1.1a19.23,19.23,0,0,0,1.3,1.7c-1.6.8-5.6,2.5-13.1,3.6h-.2l-.2.1A72,72,0,0,1,55,134l-.3.1-.2.3c1.2-2-8.5,12.5-18.9,23.3C34,159.73,29.83,162.43,29.73,161.43Zm71.2-43a.63.63,0,0,0-.5-.6c-.7-.3-1.9-.8-1.6-1.1.7-.8,2.7.4,4.2,1.5,1,.7.9,1.1.9,1.1l-1-.5c-.4-.2-.9-.3-1,.1s.1.7.5.9c.2.1,3.7,2.8,7.5,2.2a1.21,1.21,0,0,1,.1.5.56.56,0,0,1-.4.6c-.3,0-.7.1-.8.3a1.18,1.18,0,0,0,.1.8c.3.6.7,1.4.6,1.6,0,0,0,.3-1.5,0a.87.87,0,0,0-.9.4.78.78,0,0,1-.4.4c-.2,0-.5-.2-.9-.8-1.6-2.2-2.9-3.7-6-4.8-.1,0-.1-.1-.2-.2s0-.6,1.1-1.6A1.88,1.88,0,0,0,100.93,118.43Zm5.3-6.5a.63.63,0,0,0-.5-.6c-.7-.3-1.9-.8-1.6-1.1.7-.8,2.7.4,4.2,1.5,1,.7.9,1.1.9,1.1l-1-.5c-.4-.2-.9-.3-1,.1s.1.7.5.9c.2.1,3.7,2.8,7.5,2.2a1.21,1.21,0,0,1,.1.5.56.56,0,0,1-.4.6c-.3,0-.7.1-.8.3a1.18,1.18,0,0,0,.1.8c.3.6.7,1.4.6,1.6,0,0,0,.3-1.5,0a.87.87,0,0,0-.9.4.78.78,0,0,1-.4.4c-.2,0-.5-.2-.9-.8-1.6-2.2-2.9-3.7-6-4.8-.1,0-.1-.1-.2-.2s0-.6,1.1-1.6A1.88,1.88,0,0,0,106.23,111.93Zm-1.8,14.6a2.89,2.89,0,0,0,2,1.4c.2,2.8.5,6.3.7,8.5.2,1.7.6,2.9,1.3,3.3,1.6.9,4,0,4.9-.7,2,1.2,3.6,1.5,5,.9a4.77,4.77,0,0,0,2.3-3c2.1.4,3.8.1,4.9-.9a6.21,6.21,0,0,0,1.5-3.9c2-.5,3.2-1.1,3.9-2.5a5.62,5.62,0,0,0,.2-4,5.38,5.38,0,0,0,2.6-2.8,6,6,0,0,0,.1-3.5,3.71,3.71,0,0,0,1.3-1.7,4.92,4.92,0,0,0-.3-3.7,7,7,0,0,0,1.2-5c-.8-2.3-3-1.6-6.6-1.4l-16.1,1.3a30.53,30.53,0,0,0-1.9-2.4c-.5-.6-1.9-2-1.9-2s-.1-.2,0-.4a61.82,61.82,0,0,0,4.7-15.4,175.92,175.92,0,0,0,10.6-28.1c1.2,1,2.4,2.1,3.5,3.2a51.09,51.09,0,0,1-72.1,72.4c.2-.2.2-.3.2-.3,12.9-4.1,22-11.8,23.5-12.7,8.2-1.3,12.4-3,13.9-3.9a33.3,33.3,0,0,0,4.6,2.4,1,1,0,0,0,.7.8C101.93,123.23,102.83,124.43,104.43,126.53Zm-12.3,58.1A84.57,84.57,0,0,1,34.53,162c8.3-7.9,16.6-19,20.1-23.8a53.71,53.71,0,0,0,75.5-76.4,44.48,44.48,0,0,0-4.7-4.1v-.1a112,112,0,0,0,24.1-19.9l.2-.2A84.6,84.6,0,0,1,177,99.93C177,146.53,138.93,184.63,92.13,184.63Z" style="fill:#231815"></path><polygon points="32.73 112.83 19.33 114.63 29.93 108.63 18.13 105.73 31.53 103.93 34.53 105.53 33.53 97.83 31.03 100.13 13.83 102.33 10.83 100.83 11.53 106.23 21.53 108.73 12.53 113.83 13.33 119.73 15.83 117.43 33.03 115.23 36.03 116.73 35.13 110.53 32.73 112.83" style="fill:#231815"></polygon><path d="M13.33,82.23l-.5,2.4,18.6,9,2.3,2.5,1.3-6.3-3,1.3-3.2-1.5.9-4.2,3.6-.1,2.2,2.4,1.6-7.8L34,81.33Zm7.1,3.5,6.3-.1-.6,2.9Z" style="fill:#231815"></path><path d="M33.13,63.83a6.23,6.23,0,0,0-3.3-5.2c-1.3-.7-5.8-2.7-8.7,2.6l-3.4,6.2L21,67l15.2,8.3,1.5,3,3.7-6.8-3.3.4-6.4-3.5.5-.9,10.6,1.7,2.6-4.7-3.4.4ZM29.83,66l-.6,1.1L23,63.73l.6-1.1c.7-1.2,2.3-1.3,4.2-.3a5.5,5.5,0,0,1,1.9,1.8A1.87,1.87,0,0,1,29.83,66Z" style="fill:#231815"></path><polygon points="49.33 56.73 36.73 44.83 36.03 41.53 30.73 47.23 34.03 47.63 46.73 59.53 47.33 62.83 52.63 57.23 49.33 56.73" style="fill:#231815"></polygon><polygon points="55.73 50.93 55.43 54.33 60.83 51.03 57.73 49.73 51.13 38.93 68.73 49.73 56.73 30.03 56.93 26.63 51.53 29.93 54.63 31.23 59.53 39.23 48.03 32.03 43.63 34.73 46.73 36.13 55.73 50.93" style="fill:#231815"></polygon><polygon points="72.83 42.13 71.53 45.33 83.23 42.33 81.63 36.13 80.03 40.23 76.53 41.13 74.53 33.43 76.83 32.83 79.63 35.23 77.43 26.73 76.13 30.13 73.83 30.73 72.23 24.43 75.73 23.53 79.13 26.33 77.53 20.13 65.83 23.13 68.43 25.33 72.83 42.13" style="fill:#231815"></polygon><path d="M92.73,42.23A5.13,5.13,0,0,0,97,40a8.77,8.77,0,0,0,1.3-4.8,6.94,6.94,0,0,0-2.1-5.4l-3.3-3.4a4.22,4.22,0,0,1-1.4-3,2.86,2.86,0,0,1,.5-1.7,1.51,1.51,0,0,1,1.3-.7,1.61,1.61,0,0,1,1.1.5l2.1,3.2,2.1-5-3.8-.9a10.4,10.4,0,0,0-1.5-.2h-.1a4.61,4.61,0,0,0-3.9,2,8.39,8.39,0,0,0-1.3,4.3,7.94,7.94,0,0,0,2.5,5.9l3.3,3.4a2.85,2.85,0,0,1,.8,2.4,4.37,4.37,0,0,1-.7,2.5,1.57,1.57,0,0,1-1.3.7h0a2,2,0,0,1-1.4-.6L89,35.63l-2.1,5.3,3.9.9a4.33,4.33,0,0,0,1.9.4Z" style="fill:#231815"></path><path d="M68.83,153.93a7.44,7.44,0,0,0-3.4-3.4c-3.6-2-9.2,1-12.4,6.7a16.41,16.41,0,0,0-2.2,8.3c.1,2.7,1.2,4.7,3,5.7a7.34,7.34,0,0,0,4,1.1h.8l3.2-5.7-4.7,2.2a1.81,1.81,0,0,1-2,0c-1.8-1-1.3-4.2,1.7-9.5,1.9-3.5,4.8-7.9,7.2-6.5a1.91,1.91,0,0,1,1.1,1.7l.6,5.1,3.1-5.6Z" style="fill:#231815"></path><polygon points="81.93 159.43 80.53 165.73 76.13 164.73 77.43 158.53 79.93 156.23 72.23 154.63 73.63 157.73 70.03 174.63 67.53 176.93 75.13 178.53 73.83 175.43 75.53 167.53 80.03 168.43 78.33 176.43 75.83 178.73 83.43 180.33 82.13 177.23 85.63 160.23 88.13 157.93 80.53 156.33 81.93 159.43" style="fill:#231815"></polygon><polygon points="97.33 160.03 99.13 157.23 91.43 157.63 93.53 160.33 94.43 177.63 92.63 180.43 100.43 180.03 98.33 177.43 97.33 160.03" style="fill:#231815"></polygon><path d="M115.43,164.43a5.88,5.88,0,0,0,1-5.3,6.23,6.23,0,0,0-3.2-4.1,6,6,0,0,0-4.4-.1l-6.4,2,2.7,2,5.3,16.7-1.1,3.2,6.9-2.2c1.8-.6,5.7-2.4,4.1-7.8A6.09,6.09,0,0,0,115.43,164.43Zm-6.5-6.5.8-.3c1.2-.4,2.3.7,3,2.8s.3,3.6-.9,4l-.8.3Zm5.1,16.5-2.2-6.9,1.4-.4a1.85,1.85,0,0,1,1.8.6,5.66,5.66,0,0,1,1.4,2.4c.6,2,.2,3.6-1.1,4Z" style="fill:#231815"></path><path d="M123.83,148.23l-.1-.1-2.1,1.3,6.3,19.7-.2,3.4,5.4-3.4-3-1.3-1.1-3.4,3.7-2.3,2.5,2.5-.2,3.3,6.8-4.2-3.2-1.3Zm6.8,11.9-2.5,1.6-2-6.1Z" style="fill:#231815"></path><polygon points="159.93 137.93 158.23 140.83 143.53 131.73 142.23 128.63 138.13 135.23 141.43 135.03 156.23 144.13 157.53 147.23 163.73 137.23 158.33 133.83 159.93 137.93" style="fill:#231815"></polygon><path d="M160.63,111.83a17,17,0,0,0-8.6-.4c-2.7.7-4.5,2.2-5.1,4.2s.1,4.3,2.1,6.3a17.47,17.47,0,0,0,7.4,4.3,18.42,18.42,0,0,0,5.1.7,12.2,12.2,0,0,0,3.4-.4c2.7-.7,4.5-2.2,5.1-4.2s-.1-4.3-2.1-6.3A15.34,15.34,0,0,0,160.63,111.83Zm-11,4.7c.7-2.5,5.7-1.6,9.7-.4s8.7,3.1,8,5.6-5.7,1.6-9.7.4S148.93,119,149.63,116.53Z" style="fill:#231815"></path><polygon points="152.73 97.13 152.73 95.23 156.23 92.63 149.83 92.73 149.93 105.33 156.33 105.33 152.73 102.73 152.73 100.93 170.03 100.73 172.83 102.73 172.73 94.93 170.03 96.93 152.73 97.13" style="fill:#231815"></polygon><polygon points="148.73 77.73 151.33 74.23 145.23 76.23 149.13 88.23 155.23 86.23 151.03 84.93 150.43 83.13 166.93 77.93 170.13 78.93 167.73 71.53 165.73 74.23 149.33 79.53 148.73 77.73" style="fill:#231815"></polygon><polygon points="144.93 69.93 159.43 60.33 162.83 60.43 156.23 50.43 150.83 53.93 155.23 54.13 157.23 57.13 150.63 61.53 149.33 59.53 150.63 56.13 143.33 60.93 146.93 61.03 148.33 63.03 142.93 66.63 140.93 63.63 142.43 59.43 137.13 63.03 143.73 73.03 144.93 69.93" style="fill:#231815"></polygon></g></g></g></svg>