
<svg viewBox="0 0 151.515 232.73249" version="1.1" id="svg8" width="151.515" height="232.7325" xmlns="http://www.w3.org/2000/svg">
  <defs id="defs12"></defs>
  
  <title id="title2">Cleveland Guardians cap on light logo</title>
  <path fill="#002b5c" d="m 98.993522,147.07875 v 31.11579 c -8.065909,2.79205 -16.224886,5.1808 -24.849204,7.16625 -8.034887,-2.45079 -15.790569,-5.08772 -23.267046,-8.00386 -0.03102,-40.5467 0.434318,-81.124431 1.178864,-121.671135 7.662613,-3.195341 16.069772,-6.421705 23.298068,-8.810455 7.786704,2.419773 15.046022,5.025682 22.491477,7.84875 0.310227,7.352387 0.155114,18.272387 -0.03102,36.637841 7.414429,1.396023 23.236019,0.186136 40.887949,-2.202614 0.80659,-6.018409 1.79932,-12.036818 2.79205,-18.024204 C 145.09329,49.48125 148.50579,28.230682 151.515,8.407159 135.87954,5.9873863 118.84807,4.5913636 110.44091,5.8012499 l -3.22637,8.6553411 C 97.008067,9.3688636 86.584431,4.5293181 75.354204,0 49.512272,10.020341 25.841932,20.847273 1.7993182,33.287386 c 4.6223863,22.646591 6.4217045,40.484659 6.4217045,70.359544 0,43.49386 -3.0092046,76.78125 -8.2210227,98.62125 24.445909,11.63352 48.11625,21.65386 73.772045,30.46432 24.259772,-8.40716 48.519545,-17.65193 76.160795,-30.86762 -2.38875,-15.41829 -7.41443,-41.69454 -11.23023,-58.13659 -12.87443,0.34125 -26.09011,1.55114 -39.709088,3.35046" id="path4" style="fill:#ffffff;stroke-width:0.999999"></path>
  <path fill="#e31937" d="m 105.7875,153.09716 v 29.96795 C 95.549999,186.78784 85.064317,190.0142 73.709999,192.40295 63.59659,189.30068 53.607272,185.9192 44.02125,181.97932 43.92818,138.42341 44.424545,94.712386 45.262159,51.156477 c 9.523977,-4.157046 20.878295,-8.469205 29.843863,-11.509432 10.299545,3.07125 19.575341,6.514773 29.130338,10.2375 0.65148,7.197273 0.55841,17.465795 0.31023,35.272841 7.01114,0.186136 16.84534,-0.620455 28.04455,-2.016478 3.81579,-23.639318 7.63159,-47.092499 11.01306,-68.963522 -10.82693,-1.396022 -21.25056,-2.202613 -28.47886,-2.016477 l -4.34318,11.757614 C 99.272726,17.993182 87.701249,12.533182 75.230113,7.3523863 52.180227,16.38 30.929659,25.997045 9.2757954,37.010113 c 4.0019316,20.661136 5.6151136,38.685341 5.6151136,66.543747 0,40.48466 -2.605909,72.56216 -7.2282954,94.80546 C 29.502613,208.56579 50.753181,217.40727 73.616931,225.41113 97.070113,217.19011 120.12,208.37966 141.96,197.95602 c -1.20989,-9.21375 -5.21182,-31.05375 -8.81046,-47.30966 -8.90352,0.43432 -17.93113,1.24091 -27.36204,2.4508" id="path6" style="stroke-width:0.999999;fill:#ce0e2d;fill-opacity:1"></path>
</svg>
