
<svg viewBox="0 0 151.86599 183.00101" version="1.1" id="svg12" width="151.866" height="183.00101" xmlns="http://www.w3.org/2000/svg">
  <defs id="defs16"></defs>
  
  <title id="title2">Colorado Rockies Cap Logo on Dark</title>
  <path d="m 36.454,11.658 c 0,0 -30.257,11.86 -30.286,50.415 -0.039,39.5 29.17,46.961 29.17,46.961 0,0 -15.036,-18.881 -14.993,-49.188 0.057,-32.631 16.109,-48.188 16.109,-48.188" fill="#33006f" id="path4" style="fill:#c4ced4;fill-opacity:1"></path>
  <path d="m 139.336,170.171 c -6.26,-6.149 -17.677,-38.474 -27.113,-40.598 3.458,-1.74 25.223,-6.812 25.323,-30.346 -0.1,-25.441 -23.662,-33.683 -47.225,-33.683 -5.012,0 -14.141,0.371 -23.42,0.92 -11.778,0.738 -17.819,1.287 -26.792,2.025 v 8.655 c 12.658,0 15.31,2.941 15.31,16.75 v 16.462 C 37.977,106.674 26.531,87.268 26.531,59.994 c 0,-28.878 13.567,-49.185 33.383,-49.185 7.457,0 14.013,2.984 19.232,8.384 5.222,5.401 8.944,13.229 10.587,22.728 h 7.001 L 95.401,2.98 H 89.88 C 89.285,4.844 88.543,5.593 87.192,5.593 83.471,5.593 74.68,0 58.728,0 41.443,0 26.682,6.338 16.401,17.517 5.967,28.878 0,44.345 0,62.974 c 0,12.854 3.725,27.388 12.227,38.937 8.491,11.553 22.211,19.937 42.177,19.937 0.342,0 0.67,-0.028 1.016,-0.035 v 36.328 c 0,13.435 -2.945,16.198 -15.31,16.198 v 8.655 h 55.809 v -8.655 c -11.493,0 -15.76,-1.658 -15.76,-15.278 v -24.668 h 7.803 c 0,0 28.767,48.608 29.551,48.608 2.036,-0.007 34.353,-0.021 34.353,-0.021 v -8.609 c 0,-0.001 -6.491,1.065 -12.53,-4.2 M 6.167,62.072 C 6.196,23.516 36.452,11.657 36.452,11.657 c 0,0 -16.051,15.556 -16.105,48.19 -0.047,30.303 14.989,49.189 14.989,49.189 0,0 -29.205,-7.464 -29.169,-46.964 M 74.163,174.309 H 61.448 V 75.65 l 12.715,-0.881 z m 55.876,-74.583 c 0.064,19.381 -23.644,24.261 -23.644,24.261 0,0 8.758,-5.276 8.762,-24.044 0.01,-18.95 -8.377,-24.308 -8.377,-24.308 0,0 23.196,2.093 23.259,24.091 m -49.88,25.644 v -6.078 c 0.556,-0.021 1.127,-0.054 1.672,-0.054 1.796,0 3.429,0 4.769,0.374 1.49,0.185 2.987,0.556 4.324,1.116 l 0.453,-1.305 c 4.317,-12.665 7.896,-26.453 9.086,-37.076 h -7.004 c -3.561,9.546 -8.01,16.694 -13.3,21.467 V 74.381 h 7.215 c 14.28,0 21.798,9.571 21.798,24.111 0,18.964 -7.653,27.245 -29.013,26.878 m 38.042,48.993 c 0,0 -16.384,-29.294 -23.912,-39.789 0,0 5.528,-0.873 8.224,-1.65 2.459,-0.699 4.249,-1.408 4.249,-1.408 6.424,3.233 15.599,17.574 20.504,29.298 5.283,10.58 9.065,13.592 9.065,13.592 z" fill="#c4ced4" id="path6" style="fill:#333366;fill-opacity:1"></path>
  <path fill="#33006f" d="M 61.449,174.311 H 74.163 V 74.767 l -12.714,0.881 z m 53.71,-74.37 c -0.007,18.768 -8.762,24.047 -8.762,24.047 0,0 23.705,-4.884 23.644,-24.265 -0.068,-21.998 -23.263,-24.09 -23.263,-24.09 0,0 8.391,5.362 8.381,24.308 m 12.107,60.873 c -4.905,-11.728 -14.081,-26.065 -20.504,-29.298 0,0 -1.789,0.706 -4.249,1.408 -2.695,0.777 -8.224,1.65 -8.224,1.65 7.529,10.494 23.912,39.789 23.912,39.789 l 18.13,0.043 c 0,0 -3.782,-3.012 -9.065,-13.592" id="path8" style="fill:#c4ced4;fill-opacity:1"></path>
</svg>
