
<svg viewBox="0 0 168.58104 245.67353" version="1.1" id="svg341" width="168.58104" height="245.67352" xmlns="http://www.w3.org/2000/svg">
  <defs id="defs345">
    <clipPath clipPathUnits="userSpaceOnUse" id="clipPath1722">
      <path id="path1724" style="fill:#ff0000;fill-opacity:1;fill-rule:nonzero;stroke:none" d="M 0.00195313,0 V 245.67383 H 191.45312 v -19.5918 c -0.57987,0.11932 -1.15853,0.2453 -1.74218,0.34375 -0.10975,0.0181 -0.22279,-0.0148 -0.33399,-0.01 -0.64884,0.0277 -1.29746,0.0602 -1.94531,0.10546 -0.9641,0.0674 -1.92494,0.15993 -2.88867,0.23243 -1.16067,0.0873 -2.55279,0.94388 -3.48438,0.24609 -0.68876,-0.5159 -1.29101,-1.12035 -1.85156,-1.76953 -0.32988,0.0972 -0.65648,0.2065 -0.98828,0.29687 -0.88393,0.24075 -1.76934,0.47927 -2.6582,0.70118 -0.7027,0.17544 -1.40865,0.33312 -2.11524,0.49218 -0.57384,0.12917 -1.1606,0.20415 -1.72461,0.3711 -0.34329,0.10162 -0.65623,0.28649 -0.98437,0.42968 -0.54373,0.20141 -1.08302,0.42123 -1.63281,0.60547 -0.65782,0.22044 -2.30472,0.60933 -2.82032,0.70703 -0.025,0.005 -0.0301,-0.0435 -0.0351,-0.0684 -0.0772,-0.36529 -0.15495,-0.73045 -0.23243,-1.0957 -0.0262,0.47935 -0.0629,0.95867 -0.0762,1.4375 -1.94576,0.10136 -2.96908,0.22392 -3.47851,-0.19922 -0.45453,-0.0136 -0.90861,-0.0404 -1.36328,-0.043 -1.56002,-0.009 -3.12027,0.0127 -4.67969,0.0566 -5.90033,0.16597 -3.91905,-0.0691 -8.41797,0.83593 -7.52397,0.0382 -10.10081,2.06337 -6.68164,-11.15039 0.18478,-0.71413 0.8839,-0.99261 1.69922,-1.16015 0.99907,-0.95949 2.36298,-1.81897 4.14648,-2.47266 0.0808,-0.26707 0.16773,-0.53307 0.27149,-0.79688 -1.74835,-2.9609 0.26754,-5.15195 1.76172,-7.07226 0.48725,-1.36452 1.43398,-2.38575 3.13671,-2.44141 0.0448,-0.10074 0.0854,-0.18393 0.13086,-0.28711 0.15712,-0.3567 0.73228,-0.12173 1.1543,-0.0937 0.27855,-0.25864 0.53236,-0.54971 0.8418,-0.76953 2.37337,-1.686 1.92637,-1.42256 3.92187,-2.08594 0.34726,-0.0592 0.69433,-0.12452 1.04102,-0.1875 2.17966,-0.99348 4.57141,-1.50923 6.82812,-2.27343 0.8194,-0.10462 1.63333,-0.25216 2.45703,-0.31446 0.44772,-0.0338 0.89876,0.0164 1.34766,0.0254 1.42222,0.0276 2.8453,0.06 4.26758,0.084 0.28964,-0.22562 0.57322,-0.45934 0.87305,-0.67188 0.30537,-0.21649 0.74764,0.0428 1.12109,0.0684 0.63948,0.0438 1.42022,0.11157 2.05664,0.31055 2.48234,-0.75548 5.05933,-1.12265 7.62305,-1.50195 0.413,0.47689 0.88221,0.92299 1.36328,1.36328 0.26806,0.0676 0.59167,0.36268 0.85742,0.47461 0.0507,0.0213 0.13621,0.065 0.18945,0.0879 0.44135,0.008 0.8829,0.005 1.32422,0.0156 0.21565,0.01 1.04762,0.0467 1.7207,0.0781 V 0 Z M 152.33398,204.66406 c -0.0229,0.0513 -0.0437,0.0958 -0.0664,0.14649 0.12633,-0.0547 0.25532,-0.10288 0.38867,-0.14063 -0.10903,-0.004 -0.21883,-0.009 -0.32227,-0.006 z m -0.0664,0.14649 c -0.0782,0.0339 -0.15939,0.0627 -0.23047,0.10937 -0.91803,0.60309 -1.77074,1.29931 -2.65625,1.94922 -0.0576,0.0757 -0.12402,0.15977 -0.18359,0.23633 -0.47581,1.33247 -0.51354,2.98932 -0.36719,4.41601 0.10411,-0.16219 0.2154,-0.30566 0.32226,-0.46289 0.6939,-1.29324 1.73914,-3.1725 3.11524,-6.24804 z m 29.68945,-6.66993 c -0.33901,0.004 -0.72016,0.28951 -1.10547,0.71876 0.0736,-5.6e-4 0.14714,-10e-4 0.22071,-0.002 0.0841,-0.0167 0.16785,-0.0365 0.25195,-0.0527 0.34003,-0.0657 0.6852,-0.0906 1.03125,-0.11524 0.0232,-0.0359 0.0407,-0.0759 0.0644,-0.11133 0.0225,-0.0336 0.0787,-0.0758 0.11524,-0.11328 -0.1722,-0.22563 -0.36675,-0.32649 -0.57813,-0.32422 z m -27.45312,6.92969 c -0.007,0.002 -0.0302,0.001 -0.0215,0.004 0.0264,0.008 0.0685,0.0175 0.0957,0.0254 -0.0243,-0.01 -0.0488,-0.0192 -0.0742,-0.0293 z"></path>
    </clipPath>
  </defs>
  
  <title id="title335">Detroit Tigers light logo</title>
  <g fill="#FFF" id="g339" style="fill:#0c2c56;fill-opacity:1" transform="translate(-0.00195313)">
    <path d="M 157.836,164.452 V 66.587 c 0.583,-8.34 2.687,-11.033 8.74,-16.695 C 153.056,44.809 137.533,29.007 129.196,12.29 87.402,33.767 40.86,33.767 5.675,2.748 2.167,-0.328 -1.8,-1.902 0.884,3.95 10.836,25.54 31.48,38.97 54.67,44.933 41.323,56.497 33.457,63.333 31.7,77.983 20.296,78.823 8.05,87.186 4.182,94.93 c -4.42,8.84 2.124,9.02 6.554,5.973 5.662,-3.866 13.73,-5.36 20.585,-5.07 v 11.084 c -11.424,0.85 -22.668,9.21 -26.537,16.956 -4.42,8.84 2.126,9.033 6.555,5.963 5.66,-3.86 13.128,-5.963 19.983,-5.66 v 33.41 c 0,13.14 -6.55,19.704 -10.422,23.293 -3.9,3.566 -1.744,7.302 3.87,5.058 11.803,-4.7 24.072,-15.913 26.855,-32.953 4.493,0.592 9.903,0.662 13.712,0.032 v 4.57 c 0,13.138 -6.554,19.703 -10.444,23.292 -0.06,0.047 -0.1,0.097 -0.147,0.177 -12.54,1.092 -23.784,5.32 -32.722,12.267 C 1.638,209.21 -1.51,239.044 1.638,245.67 c 0.198,0.42 11.484,-36.89 44.956,-40.858 19.384,-2.284 43.196,3.534 63.503,21.114 12.525,-20.885 33.723,-32.82 58.486,-37.04 -8.358,-9.53 -10.466,-13.7 -10.746,-24.434 z m -26.87,-109.8 v 29.324 c -13.378,4.028 -32.698,3.9 -44.747,-0.43 v -3.82 c 0,-10.36 0.884,-23.53 9.42,-31.82 8.16,-0.9 16.078,-2.583 23.393,-5.17 l 11.934,11.917 z M 86.22,93.7 c 12.047,4.3 31.368,4.46 44.747,0.42 v 28.503 c -13.38,-4.038 -32.7,-3.898 -44.748,0.43 V 93.7 Z M 85.418,48.55 c -6.273,5.484 -11.665,10.584 -15.27,16.486 -4.77,-1.552 -9.16,-2.505 -13.43,-2.746 2.773,-5.532 6.713,-10.712 11.466,-14.7 5.72,0.73 11.503,1.042 17.234,0.96 z m -33.2,95.98 V 79.727 c 0,-2.853 0.45,-5.873 1.27,-8.928 4.723,-0.532 9.42,-0.042 13.45,1.374 -0.96,3.047 -1.543,6.302 -1.52,9.98 l -0.082,61.997 c -3.347,0.722 -8.51,0.82 -13.12,0.38 z m 51.303,46.785 C 90.56,184.928 77.803,181.6 65.88,180.9 76.582,173.713 86.22,161.024 86.22,144.177 v -10.973 c 12.05,-4.34 31.37,-4.49 44.75,-0.442 v 42.425 c -8.348,2.405 -18.49,8.378 -27.447,16.126 z" id="path337" style="fill:#0c2c56;fill-opacity:1" clip-path="url(#clipPath1722)"></path>
  </g>
</svg>
