<svg id="svg" version="1.1" xmlns="http://www.w3.org/2000/svg" xmlns:xlink="http://www.w3.org/1999/xlink" width="400" height="400" viewBox="0, 0, 400,400"><g id="svgg"><path id="path0" d="M198.589 24.947 C 198.155 25.248,196.450 26.228,194.800 27.124 L 191.800 28.754 191.600 129.077 C 191.451 203.704,191.284 229.378,190.945 229.315 C 190.695 229.268,188.265 227.932,185.545 226.346 C 182.825 224.759,180.150 223.225,179.600 222.936 L 178.600 222.411 178.400 129.633 L 178.200 36.856 174.400 38.989 C 172.310 40.162,169.790 41.570,168.800 42.117 C 167.810 42.664,165.650 43.912,164.000 44.889 L 161.000 46.666 160.981 133.433 C 160.971 181.155,161.026 222.900,161.104 226.200 L 161.246 232.200 169.323 236.867 C 173.765 239.433,178.300 242.022,179.400 242.618 C 180.500 243.215,181.684 243.950,182.031 244.252 C 182.379 244.553,182.796 244.800,182.957 244.800 C 183.119 244.800,186.435 246.649,190.326 248.909 C 194.217 251.168,198.033 253.347,198.807 253.749 L 200.214 254.482 204.807 251.794 C 207.333 250.316,209.760 248.945,210.200 248.747 C 210.640 248.550,211.540 248.033,212.200 247.598 C 212.860 247.164,213.670 246.688,214.000 246.539 C 214.330 246.391,217.777 244.409,221.660 242.135 C 225.543 239.861,228.859 238.000,229.029 238.000 C 229.198 238.000,229.621 237.752,229.969 237.449 C 230.316 237.146,231.813 236.249,233.296 235.457 C 234.778 234.664,236.714 233.560,237.596 233.002 L 239.202 231.989 239.101 139.304 L 239.000 46.618 230.600 41.714 C 225.980 39.016,222.046 36.807,221.857 36.805 C 221.668 36.802,221.577 78.162,221.654 129.384 C 221.745 190.189,221.657 222.101,221.396 222.357 C 220.871 222.874,209.914 229.245,209.400 229.332 C 209.135 229.377,208.933 195.669,208.800 129.203 L 208.600 29.006 204.602 26.703 C 200.336 24.245,199.819 24.094,198.589 24.947 M108.800 76.750 L 100.200 81.824 100.176 134.412 C 100.163 163.335,100.219 189.292,100.299 192.093 L 100.446 197.186 103.120 198.693 C 104.591 199.522,106.156 200.417,106.598 200.683 C 107.039 200.948,107.760 201.333,108.200 201.539 C 108.640 201.744,110.860 203.012,113.133 204.356 C 118.327 207.428,116.271 207.932,129.200 200.414 C 133.270 198.047,137.500 195.621,138.600 195.023 C 139.700 194.425,142.171 193.013,144.091 191.886 L 147.582 189.835 147.691 173.818 C 147.751 165.008,147.800 142.322,147.800 123.404 L 147.800 89.009 145.000 87.363 C 133.846 80.807,117.720 71.577,117.523 71.638 C 117.455 71.658,113.530 73.959,108.800 76.750 M276.000 75.295 C 272.590 77.284,265.885 81.178,261.100 83.947 L 252.400 88.982 252.400 139.423 L 252.400 189.865 253.500 190.432 C 254.850 191.128,270.766 200.250,271.600 200.805 C 271.930 201.025,272.470 201.328,272.800 201.479 C 273.130 201.629,275.358 202.888,277.752 204.276 C 282.798 207.203,282.197 207.063,284.437 205.828 C 285.407 205.293,286.904 204.471,287.763 204.001 C 292.384 201.476,299.695 197.018,299.840 196.638 C 299.931 196.397,299.960 178.341,299.903 156.513 L 299.800 116.827 294.400 119.942 C 291.430 121.655,286.075 124.744,282.500 126.807 L 276.000 130.557 276.000 140.479 C 276.000 145.935,276.104 150.400,276.230 150.400 C 276.357 150.400,277.721 149.664,279.261 148.764 C 280.802 147.865,282.140 147.206,282.235 147.301 C 282.330 147.396,282.361 156.384,282.304 167.275 L 282.200 187.075 278.200 184.695 C 276.000 183.385,273.356 181.870,272.325 181.328 C 271.294 180.786,270.258 180.111,270.023 179.828 C 269.725 179.469,269.627 167.190,269.698 139.211 L 269.800 99.110 275.922 95.555 C 279.289 93.600,282.124 92.000,282.222 92.000 C 282.320 92.000,282.400 96.410,282.400 101.800 C 282.400 107.190,282.506 111.600,282.635 111.600 C 282.764 111.600,286.724 109.398,291.435 106.706 L 300.000 101.813 300.000 91.750 L 300.000 81.687 291.182 76.643 C 286.332 73.870,282.327 71.617,282.282 71.639 C 282.237 71.660,279.410 73.305,276.000 75.295 M121.740 94.136 C 123.753 95.310,126.533 96.885,127.917 97.636 C 131.140 99.383,130.836 94.755,130.710 140.172 L 130.600 179.744 124.600 183.264 C 121.300 185.200,118.375 186.787,118.100 186.792 C 117.703 186.798,117.600 177.058,117.600 139.400 C 117.600 113.330,117.708 92.000,117.840 92.000 C 117.971 92.000,119.726 92.961,121.740 94.136 " stroke="none" fill="#58b8bb" fill-rule="evenodd"></path><path id="path1" d="M78.299 94.449 L 69.998 99.284 70.099 199.909 L 70.200 300.533 76.600 304.297 C 80.120 306.367,84.170 308.704,85.600 309.490 C 87.932 310.772,106.519 321.475,108.000 322.388 C 108.330 322.592,109.268 323.121,110.083 323.564 C 110.899 324.007,116.479 327.227,122.483 330.719 C 133.119 336.905,153.293 348.583,155.900 350.062 C 156.615 350.468,157.875 351.179,158.700 351.643 C 162.592 353.829,181.171 364.613,182.491 365.452 C 183.312 365.973,184.067 366.400,184.169 366.400 C 184.272 366.400,187.882 368.461,192.193 370.981 L 200.030 375.561 201.936 374.438 C 203.832 373.320,205.874 372.160,209.500 370.143 C 211.550 369.002,227.411 359.805,228.400 359.183 C 228.730 358.976,229.990 358.263,231.200 357.600 C 232.410 356.937,233.670 356.218,234.000 356.003 C 234.740 355.522,250.322 346.499,252.800 345.117 C 256.267 343.183,257.763 342.320,267.145 336.841 C 272.345 333.804,277.410 330.868,278.400 330.316 C 282.074 328.269,283.616 327.384,293.200 321.824 C 301.966 316.739,324.291 303.856,328.700 301.337 L 330.400 300.366 330.400 200.045 C 330.400 105.000,330.363 99.692,329.700 99.114 C 328.891 98.410,321.334 94.002,315.500 90.833 L 313.200 89.583 313.200 189.729 C 313.200 284.609,313.163 289.908,312.500 290.483 C 312.115 290.817,309.280 292.538,306.200 294.307 C 303.120 296.077,299.970 297.897,299.200 298.352 C 298.430 298.807,297.080 299.570,296.200 300.048 C 295.320 300.525,290.280 303.435,285.000 306.513 C 279.720 309.591,274.770 312.455,274.000 312.876 C 273.230 313.297,272.330 313.807,272.000 314.009 C 271.670 314.211,266.540 317.176,260.600 320.598 C 254.660 324.020,249.530 326.996,249.200 327.212 C 248.870 327.428,248.330 327.727,248.000 327.875 C 247.403 328.144,226.745 340.081,225.600 340.819 C 225.270 341.031,224.730 341.329,224.400 341.481 C 224.070 341.632,218.623 344.781,212.295 348.478 C 205.968 352.175,200.518 355.200,200.184 355.200 C 199.850 355.200,196.951 353.670,193.742 351.800 C 190.533 349.930,187.850 348.400,187.780 348.400 C 187.710 348.400,182.409 345.340,176.000 341.600 C 169.591 337.860,164.292 334.800,164.224 334.800 C 164.157 334.800,160.974 332.980,157.151 330.755 C 146.675 324.658,140.003 320.800,138.000 319.680 C 137.010 319.127,131.932 316.190,126.716 313.153 C 121.499 310.117,116.549 307.263,115.716 306.812 C 114.882 306.361,113.930 305.821,113.600 305.612 C 112.924 305.184,96.620 295.750,94.300 294.444 C 93.475 293.980,92.125 293.222,91.300 292.760 C 90.475 292.299,89.215 291.564,88.500 291.128 L 87.200 290.335 87.200 189.967 C 87.200 134.765,87.065 89.603,86.900 89.606 C 86.735 89.610,82.865 91.789,78.299 94.449 M141.995 272.514 C 139.022 274.321,136.142 276.118,135.595 276.507 L 134.600 277.214 134.481 287.698 C 134.335 300.503,133.350 299.201,143.176 299.196 L 150.600 299.192 158.347 294.596 C 162.609 292.068,166.289 290.000,166.527 290.000 C 166.765 290.000,169.055 292.070,171.617 294.600 L 176.274 299.200 183.633 299.200 L 190.992 299.200 183.696 291.896 C 179.683 287.879,176.400 284.406,176.400 284.179 C 176.400 283.953,178.502 282.514,181.071 280.983 C 183.640 279.453,186.328 277.840,187.044 277.400 C 193.428 273.476,196.032 272.000,196.569 272.000 C 197.131 272.000,197.200 273.426,197.200 284.971 C 197.200 296.378,197.278 298.021,197.846 298.589 C 198.974 299.717,220.555 299.319,222.200 298.140 C 222.860 297.666,225.830 295.702,228.800 293.775 C 241.380 285.612,243.515 284.220,245.713 282.749 C 246.984 281.897,248.100 281.200,248.193 281.200 C 248.285 281.200,249.160 280.660,250.138 280.000 C 251.116 279.340,252.025 278.800,252.158 278.800 C 252.291 278.800,252.400 283.560,252.400 289.378 L 252.400 299.956 256.500 297.535 C 266.866 291.416,266.000 292.934,266.000 280.885 C 266.000 268.541,266.626 269.600,259.325 269.600 L 253.478 269.600 249.639 272.058 C 244.688 275.228,238.426 279.285,231.515 283.800 C 228.484 285.780,224.338 288.470,222.302 289.779 C 220.266 291.087,216.999 293.211,215.041 294.499 C 210.045 297.786,210.400 298.631,210.400 283.462 C 210.400 272.815,210.300 270.415,209.838 270.031 C 209.431 269.694,206.091 269.597,197.738 269.683 L 186.200 269.800 175.800 276.094 C 170.080 279.556,165.130 282.564,164.800 282.778 C 163.948 283.332,151.473 290.817,149.571 291.915 C 147.502 293.111,147.620 293.761,147.501 280.514 L 147.400 269.229 141.995 272.514 " stroke="none" fill="#fafafa" fill-rule="evenodd"></path><path id="path2" d="M198.000 0.516 C 197.450 0.770,196.910 1.094,196.800 1.235 C 196.690 1.376,196.196 1.618,195.702 1.772 C 195.209 1.926,194.576 2.266,194.296 2.526 C 194.017 2.787,193.084 3.360,192.223 3.800 C 191.363 4.240,190.459 4.780,190.216 5.000 C 189.972 5.220,188.699 5.940,187.386 6.600 C 186.074 7.260,184.910 7.912,184.800 8.049 C 184.690 8.185,183.610 8.809,182.400 9.434 C 181.190 10.059,179.962 10.802,179.671 11.085 C 179.381 11.368,178.886 11.600,178.571 11.600 C 178.257 11.600,178.000 11.766,178.000 11.969 C 178.000 12.172,177.370 12.546,176.600 12.800 C 175.830 13.054,175.200 13.428,175.200 13.631 C 175.200 13.834,174.943 14.000,174.629 14.000 C 174.314 14.000,173.818 14.225,173.525 14.500 C 173.233 14.775,171.960 15.540,170.698 16.200 C 169.436 16.860,168.402 17.515,168.401 17.657 C 168.401 17.798,167.950 18.026,167.400 18.164 C 166.850 18.302,166.400 18.592,166.400 18.808 C 166.400 19.023,166.175 19.202,165.900 19.203 C 165.625 19.205,163.600 20.284,161.400 21.600 C 159.200 22.916,157.175 23.995,156.900 23.997 C 156.625 23.998,156.400 24.168,156.400 24.373 C 156.400 24.578,155.995 24.872,155.500 25.027 C 155.005 25.181,154.510 25.436,154.400 25.592 C 154.162 25.931,152.238 26.987,150.700 27.623 C 150.095 27.873,149.600 28.241,149.600 28.439 C 149.600 28.638,149.343 28.800,149.029 28.800 C 148.714 28.800,148.211 29.046,147.910 29.347 C 147.609 29.648,146.967 30.020,146.484 30.173 C 146.000 30.327,145.376 30.666,145.096 30.926 C 144.817 31.187,143.884 31.760,143.023 32.200 C 142.163 32.640,141.259 33.180,141.016 33.400 C 140.772 33.620,139.499 34.340,138.186 35.000 C 136.874 35.660,135.710 36.312,135.600 36.449 C 135.490 36.585,134.410 37.209,133.200 37.834 C 131.990 38.459,130.762 39.202,130.471 39.485 C 130.181 39.768,129.686 40.000,129.371 40.000 C 129.057 40.000,128.800 40.168,128.800 40.374 C 128.800 40.580,128.170 40.976,127.400 41.254 C 126.630 41.533,126.000 41.905,126.000 42.080 C 126.000 42.256,125.758 42.400,125.461 42.400 C 125.165 42.400,124.507 42.760,124.000 43.200 C 123.493 43.640,122.835 44.000,122.539 44.000 C 122.242 44.000,122.000 44.160,122.000 44.357 C 122.000 44.553,121.563 44.823,121.028 44.957 C 120.493 45.091,119.818 45.428,119.528 45.705 C 119.238 45.983,118.550 46.433,118.000 46.706 C 115.930 47.733,112.592 49.704,112.396 50.014 C 112.284 50.191,111.699 50.460,111.096 50.612 C 110.493 50.763,110.000 51.036,110.000 51.217 C 110.000 51.399,109.370 51.776,108.600 52.054 C 107.830 52.333,107.200 52.705,107.200 52.880 C 107.200 53.056,106.924 53.200,106.587 53.200 C 106.251 53.200,105.876 53.459,105.754 53.776 C 105.633 54.092,105.008 54.466,104.367 54.607 C 103.725 54.748,103.200 54.996,103.200 55.157 C 103.200 55.319,102.570 55.698,101.800 56.000 C 101.030 56.302,100.400 56.696,100.400 56.875 C 100.400 57.054,100.143 57.200,99.829 57.200 C 99.514 57.200,99.001 57.457,98.687 57.770 C 98.373 58.084,97.505 58.634,96.758 58.992 C 94.251 60.196,93.600 60.588,93.600 60.895 C 93.600 61.063,93.354 61.200,93.054 61.200 C 92.754 61.200,92.079 61.535,91.554 61.945 C 91.029 62.355,90.158 62.828,89.619 62.998 C 89.079 63.167,88.410 63.507,88.133 63.753 C 86.883 64.860,86.478 65.121,85.569 65.406 C 85.036 65.573,84.171 66.045,83.646 66.455 C 83.121 66.865,82.446 67.200,82.146 67.200 C 81.846 67.200,81.600 67.380,81.600 67.600 C 81.600 67.820,81.324 68.000,80.987 68.000 C 80.651 68.000,80.278 68.254,80.159 68.564 C 80.039 68.874,79.471 69.246,78.895 69.390 C 78.320 69.535,77.360 70.001,76.763 70.427 C 76.165 70.852,75.479 71.200,75.238 71.200 C 74.997 71.200,74.800 71.341,74.800 71.512 C 74.800 71.684,74.305 72.043,73.700 72.309 C 73.095 72.575,71.880 73.240,71.000 73.787 C 70.120 74.334,69.085 74.896,68.700 75.037 C 68.315 75.178,68.000 75.438,68.000 75.615 C 68.000 75.792,67.448 76.058,66.773 76.206 C 66.098 76.354,65.453 76.717,65.340 77.013 C 65.226 77.309,64.608 77.666,63.967 77.807 C 63.325 77.948,62.800 78.229,62.800 78.432 C 62.800 78.634,62.524 78.800,62.187 78.800 C 61.851 78.800,61.478 79.054,61.359 79.364 C 61.239 79.674,60.674 80.045,60.103 80.189 C 59.531 80.332,58.620 80.798,58.078 81.225 C 57.536 81.651,56.846 82.000,56.546 82.000 C 56.246 82.000,56.000 82.137,56.000 82.305 C 56.000 82.609,55.369 82.991,52.899 84.183 L 51.599 84.811 51.699 199.866 L 51.800 314.920 54.000 316.106 C 55.210 316.758,56.290 317.406,56.400 317.546 C 56.510 317.686,57.674 318.340,58.986 319.000 C 60.299 319.660,61.572 320.380,61.816 320.600 C 62.059 320.820,62.963 321.360,63.823 321.800 C 64.684 322.240,65.628 322.825,65.922 323.099 C 66.216 323.374,66.893 323.709,67.428 323.843 C 67.963 323.977,68.400 324.247,68.400 324.443 C 68.400 324.640,68.657 324.800,68.971 324.800 C 69.286 324.800,69.799 325.057,70.113 325.370 C 70.427 325.684,71.295 326.234,72.042 326.592 C 74.549 327.796,75.200 328.188,75.200 328.495 C 75.200 328.663,75.446 328.800,75.746 328.800 C 76.046 328.800,76.721 329.135,77.246 329.545 C 77.771 329.955,78.642 330.428,79.181 330.598 C 79.721 330.767,80.390 331.107,80.667 331.353 C 82.004 332.537,82.406 332.786,83.366 333.027 C 83.935 333.170,84.400 333.436,84.400 333.617 C 84.400 333.799,85.030 334.176,85.800 334.454 C 86.570 334.733,87.200 335.075,87.200 335.215 C 87.200 335.355,88.235 335.988,89.500 336.623 C 90.765 337.257,92.038 338.006,92.329 338.288 C 92.619 338.570,93.114 338.800,93.429 338.800 C 93.743 338.800,94.000 338.959,94.000 339.153 C 94.000 339.348,94.315 339.613,94.700 339.742 C 95.085 339.872,96.300 340.520,97.400 341.183 C 98.500 341.845,99.715 342.501,100.100 342.640 C 100.485 342.779,100.800 343.052,100.800 343.247 C 100.800 343.441,101.046 343.600,101.346 343.600 C 101.646 343.600,102.321 343.935,102.846 344.345 C 103.371 344.755,104.250 345.229,104.800 345.399 C 105.350 345.569,105.890 345.843,106.000 346.008 C 106.198 346.305,109.661 348.335,111.600 349.291 C 112.150 349.562,112.690 349.877,112.800 349.992 C 113.050 350.252,114.623 351.158,116.200 351.950 C 116.860 352.281,117.638 352.788,117.929 353.076 C 118.219 353.364,118.714 353.600,119.029 353.600 C 119.343 353.600,119.600 353.736,119.600 353.902 C 119.600 354.069,120.185 354.459,120.900 354.770 C 121.615 355.081,122.290 355.444,122.400 355.576 C 122.510 355.708,123.050 356.036,123.600 356.305 C 124.759 356.872,126.112 357.702,126.400 358.023 C 126.510 358.145,127.185 358.482,127.900 358.771 C 128.615 359.060,129.200 359.436,129.200 359.605 C 129.200 359.775,129.693 360.037,130.296 360.188 C 130.899 360.340,131.484 360.609,131.596 360.786 C 131.794 361.099,135.174 363.092,137.200 364.091 C 137.750 364.362,138.290 364.678,138.400 364.792 C 138.510 364.907,139.140 365.271,139.800 365.600 C 140.460 365.929,141.090 366.293,141.200 366.408 C 141.310 366.522,141.850 366.836,142.400 367.105 C 143.588 367.686,144.921 368.508,145.200 368.832 C 145.310 368.960,145.985 369.319,146.700 369.630 C 147.415 369.941,148.000 370.317,148.000 370.466 C 148.000 370.615,148.540 370.855,149.200 371.000 C 149.860 371.145,150.400 371.416,150.400 371.601 C 150.400 371.787,151.390 372.440,152.600 373.053 C 153.810 373.666,154.800 374.295,154.800 374.452 C 154.800 374.608,155.340 374.855,156.000 375.000 C 156.660 375.145,157.200 375.407,157.200 375.583 C 157.200 375.759,157.785 376.140,158.500 376.429 C 159.215 376.718,159.890 377.055,160.000 377.177 C 160.288 377.498,161.641 378.328,162.800 378.895 C 163.350 379.164,163.890 379.478,164.000 379.592 C 164.110 379.707,164.740 380.071,165.400 380.400 C 166.060 380.729,166.690 381.089,166.800 381.199 C 167.030 381.430,168.508 382.264,171.500 383.853 C 172.655 384.466,173.600 385.095,173.600 385.252 C 173.600 385.408,174.140 385.655,174.800 385.800 C 175.460 385.945,176.000 386.207,176.000 386.383 C 176.000 386.559,176.585 386.940,177.300 387.229 C 178.015 387.518,178.690 387.855,178.800 387.977 C 179.088 388.298,180.441 389.128,181.600 389.695 C 182.150 389.964,182.690 390.278,182.800 390.392 C 182.910 390.507,183.540 390.871,184.200 391.200 C 184.860 391.529,185.490 391.889,185.600 391.999 C 185.919 392.319,187.313 393.163,188.400 393.695 C 188.950 393.964,189.490 394.292,189.600 394.424 C 189.710 394.556,190.385 394.919,191.100 395.230 C 191.815 395.541,192.400 395.917,192.400 396.066 C 192.400 396.215,192.925 396.452,193.567 396.593 C 194.208 396.734,194.824 397.085,194.934 397.373 C 195.045 397.661,195.622 398.019,196.216 398.168 C 196.810 398.317,197.557 398.700,197.876 399.019 C 198.807 399.950,200.247 400.124,201.471 399.453 C 202.092 399.113,203.320 398.469,204.200 398.022 C 205.933 397.143,207.283 396.331,207.600 395.977 C 207.710 395.855,208.385 395.518,209.100 395.229 C 209.815 394.940,210.400 394.564,210.400 394.395 C 210.400 394.225,210.872 393.968,211.448 393.824 C 212.025 393.679,212.739 393.344,213.034 393.080 C 214.300 391.950,214.714 391.682,215.631 391.394 C 216.164 391.227,217.029 390.755,217.554 390.345 C 218.079 389.935,218.754 389.600,219.054 389.600 C 219.354 389.600,219.600 389.420,219.600 389.200 C 219.600 388.980,219.876 388.800,220.213 388.800 C 220.549 388.800,220.922 388.546,221.041 388.236 C 221.161 387.926,221.729 387.554,222.305 387.410 C 222.880 387.265,223.840 386.799,224.437 386.373 C 225.035 385.948,225.721 385.600,225.962 385.600 C 226.203 385.600,226.400 385.440,226.400 385.243 C 226.400 385.047,226.837 384.777,227.372 384.643 C 227.907 384.509,228.582 384.172,228.872 383.895 C 229.162 383.617,229.850 383.169,230.400 382.898 C 231.690 382.263,232.945 381.472,233.204 381.132 C 233.316 380.984,233.916 380.736,234.536 380.580 C 235.157 380.424,235.753 380.066,235.861 379.785 C 235.969 379.503,236.517 379.157,237.077 379.016 C 237.638 378.876,238.339 378.544,238.634 378.280 C 239.900 377.150,240.314 376.882,241.231 376.594 C 241.764 376.427,242.629 375.955,243.154 375.545 C 243.679 375.135,244.354 374.800,244.654 374.800 C 244.954 374.800,245.200 374.664,245.200 374.498 C 245.200 374.331,245.785 373.941,246.500 373.630 C 247.215 373.319,247.890 372.956,248.000 372.824 C 248.110 372.692,248.650 372.364,249.200 372.095 C 250.428 371.494,251.732 370.684,252.000 370.354 C 252.110 370.219,252.604 369.982,253.098 369.828 C 253.591 369.674,254.225 369.334,254.505 369.074 C 254.785 368.813,255.866 368.154,256.907 367.608 C 257.948 367.063,258.800 366.497,258.800 366.352 C 258.800 366.206,259.281 365.966,259.868 365.819 C 260.456 365.671,261.380 365.202,261.922 364.775 C 262.464 364.349,263.154 364.000,263.454 364.000 C 263.754 364.000,264.000 363.858,264.000 363.684 C 264.000 363.510,264.945 362.866,266.100 362.253 C 269.245 360.583,270.578 359.825,270.800 359.577 C 270.910 359.455,271.585 359.118,272.300 358.829 C 273.015 358.540,273.600 358.184,273.600 358.039 C 273.600 357.894,274.095 357.562,274.700 357.302 C 275.826 356.818,277.243 355.975,277.600 355.577 C 277.710 355.455,278.385 355.118,279.100 354.829 C 279.815 354.540,280.400 354.145,280.400 353.951 C 280.400 353.758,280.598 353.600,280.840 353.600 C 281.081 353.600,282.961 352.610,285.017 351.400 C 287.073 350.190,288.946 349.200,289.178 349.200 C 289.410 349.200,289.600 349.032,289.600 348.826 C 289.600 348.620,290.230 348.224,291.000 347.946 C 291.770 347.667,292.400 347.295,292.400 347.120 C 292.400 346.944,292.657 346.800,292.971 346.800 C 293.286 346.800,293.781 346.565,294.071 346.277 C 294.362 345.990,295.635 345.232,296.900 344.594 C 298.165 343.955,299.200 343.290,299.200 343.116 C 299.200 342.942,299.457 342.800,299.771 342.800 C 300.086 342.800,300.581 342.570,300.871 342.288 C 301.162 342.006,302.435 341.257,303.700 340.623 C 304.965 339.988,306.000 339.319,306.000 339.135 C 306.000 338.951,306.198 338.800,306.440 338.800 C 306.810 338.800,313.281 335.229,315.200 333.966 C 315.530 333.749,316.295 333.358,316.900 333.098 C 317.505 332.838,318.000 332.484,318.000 332.312 C 318.000 332.141,318.257 332.000,318.571 332.000 C 318.886 332.000,319.381 331.770,319.671 331.488 C 319.962 331.206,321.235 330.457,322.500 329.823 C 323.765 329.188,324.800 328.519,324.800 328.335 C 324.800 328.151,325.057 328.000,325.371 328.000 C 325.686 328.000,326.185 327.775,326.482 327.500 C 326.778 327.225,327.897 326.556,328.968 326.014 C 330.039 325.472,331.120 324.842,331.371 324.614 C 331.622 324.386,332.900 323.660,334.210 323.000 C 335.521 322.340,336.833 321.575,337.125 321.300 C 337.418 321.025,337.914 320.800,338.229 320.800 C 338.543 320.800,338.800 320.634,338.800 320.431 C 338.800 320.228,339.430 319.854,340.200 319.600 C 340.970 319.346,341.600 318.975,341.600 318.777 C 341.600 318.578,342.050 318.302,342.600 318.164 C 343.150 318.026,343.600 317.772,343.600 317.600 C 343.600 317.428,344.050 317.174,344.600 317.036 C 345.150 316.898,345.600 316.622,345.600 316.423 C 345.600 316.225,346.230 315.854,347.000 315.600 L 348.400 315.138 348.400 199.960 L 348.400 84.783 347.400 84.327 C 346.850 84.077,346.400 83.740,346.400 83.579 C 346.400 83.418,345.907 83.163,345.304 83.012 C 344.701 82.860,344.116 82.591,344.004 82.414 C 343.806 82.101,340.426 80.108,338.400 79.109 C 337.850 78.838,337.310 78.523,337.200 78.408 C 336.957 78.156,335.490 77.304,333.600 76.318 C 331.945 75.456,330.678 74.687,330.400 74.377 C 330.290 74.255,329.615 73.918,328.900 73.629 C 328.185 73.340,327.600 72.964,327.600 72.795 C 327.600 72.625,327.107 72.363,326.504 72.212 C 325.901 72.060,325.316 71.791,325.204 71.614 C 325.006 71.301,321.626 69.308,319.600 68.309 C 319.050 68.038,318.510 67.709,318.400 67.579 C 318.290 67.448,317.930 67.221,317.600 67.073 C 317.270 66.925,316.100 66.266,315.000 65.609 C 313.900 64.951,312.685 64.299,312.300 64.160 C 311.915 64.021,311.600 63.781,311.600 63.628 C 311.600 63.475,310.970 63.102,310.200 62.800 C 309.430 62.498,308.800 62.119,308.800 61.957 C 308.800 61.796,308.260 61.545,307.600 61.400 C 306.940 61.255,306.400 60.984,306.400 60.799 C 306.400 60.613,305.410 59.960,304.200 59.347 C 302.990 58.734,302.000 58.105,302.000 57.948 C 302.000 57.792,301.460 57.545,300.800 57.400 C 300.140 57.255,299.600 56.993,299.600 56.817 C 299.600 56.641,299.015 56.260,298.300 55.971 C 297.585 55.682,296.910 55.345,296.800 55.223 C 296.512 54.902,295.159 54.072,294.000 53.505 C 293.450 53.236,292.910 52.922,292.800 52.808 C 292.690 52.693,292.060 52.329,291.400 52.000 C 290.740 51.671,290.110 51.307,290.000 51.192 C 289.890 51.078,289.350 50.764,288.800 50.495 C 287.612 49.914,286.279 49.092,286.000 48.768 C 285.890 48.640,285.215 48.281,284.500 47.970 C 283.785 47.659,283.200 47.283,283.200 47.134 C 283.200 46.985,282.675 46.748,282.033 46.607 C 281.392 46.466,280.774 46.109,280.660 45.813 C 280.547 45.517,279.902 45.154,279.227 45.006 C 278.552 44.858,278.000 44.571,278.000 44.368 C 278.000 44.166,277.724 44.000,277.387 44.000 C 277.051 44.000,276.676 43.741,276.554 43.424 C 276.433 43.108,275.808 42.734,275.167 42.593 C 274.525 42.452,274.000 42.193,274.000 42.017 C 274.000 41.841,273.415 41.460,272.700 41.171 C 271.985 40.882,271.310 40.545,271.200 40.423 C 270.912 40.102,269.559 39.272,268.400 38.705 C 267.850 38.436,267.310 38.108,267.200 37.976 C 267.090 37.844,266.415 37.481,265.700 37.170 C 264.985 36.859,264.400 36.469,264.400 36.302 C 264.400 36.136,264.154 36.000,263.854 36.000 C 263.554 36.000,262.879 35.665,262.354 35.255 C 261.829 34.845,260.958 34.372,260.419 34.202 C 259.879 34.033,259.210 33.693,258.933 33.447 C 257.599 32.266,257.196 32.014,256.263 31.780 C 255.710 31.641,255.167 31.291,255.056 31.002 C 254.945 30.712,254.302 30.354,253.627 30.206 C 252.952 30.058,252.400 29.812,252.400 29.660 C 252.400 29.508,251.548 28.937,250.507 28.392 C 249.466 27.846,248.373 27.175,248.079 26.901 C 247.785 26.626,247.107 26.291,246.572 26.157 C 246.037 26.023,245.600 25.782,245.600 25.622 C 245.600 25.462,244.565 24.812,243.300 24.177 C 242.035 23.543,240.762 22.794,240.471 22.512 C 240.181 22.230,239.686 22.000,239.371 22.000 C 239.057 22.000,238.800 21.859,238.800 21.688 C 238.800 21.516,238.305 21.161,237.700 20.898 C 236.314 20.296,232.267 17.993,232.000 17.654 C 231.890 17.514,230.726 16.860,229.414 16.200 C 228.101 15.540,226.822 14.814,226.571 14.586 C 226.320 14.358,225.239 13.728,224.168 13.186 C 223.097 12.644,221.978 11.975,221.682 11.700 C 221.385 11.425,220.886 11.200,220.571 11.200 C 220.257 11.200,220.000 11.023,220.000 10.808 C 220.000 10.592,219.550 10.302,219.000 10.164 C 218.450 10.026,218.000 9.767,218.000 9.588 C 218.000 9.409,217.370 9.054,216.600 8.800 C 215.830 8.546,215.200 8.175,215.200 7.977 C 215.200 7.778,214.750 7.502,214.200 7.364 C 213.650 7.226,213.200 6.989,213.200 6.837 C 213.200 6.685,212.570 6.333,211.800 6.054 C 211.030 5.776,210.400 5.380,210.400 5.174 C 210.400 4.968,210.143 4.800,209.829 4.800 C 209.514 4.800,209.018 4.575,208.725 4.300 C 208.433 4.025,207.115 3.260,205.797 2.600 C 204.478 1.940,203.310 1.292,203.200 1.160 C 202.261 0.032,199.727 -0.282,198.000 0.516 M205.183 26.769 L 209.000 29.032 209.070 128.953 C 209.109 183.909,209.205 228.939,209.284 229.018 C 209.363 229.097,212.122 227.591,215.414 225.671 L 221.400 222.181 221.600 129.284 L 221.800 36.387 230.400 41.344 L 239.000 46.302 239.000 139.398 L 239.000 232.494 230.000 237.676 C 205.045 252.045,200.565 254.553,199.935 254.505 C 199.293 254.457,196.233 252.724,170.900 238.059 L 160.800 232.213 160.800 139.345 L 160.800 46.476 162.500 45.493 C 163.435 44.952,165.253 43.929,166.541 43.220 C 167.828 42.511,170.978 40.710,173.541 39.218 L 178.200 36.505 178.400 129.295 L 178.600 222.085 184.722 225.619 C 188.585 227.849,190.910 228.977,191.023 228.677 C 191.122 228.414,191.248 183.380,191.302 128.600 L 191.400 29.000 195.593 26.503 C 200.411 23.633,199.867 23.618,205.183 26.769 M121.165 73.354 C 122.834 74.319,129.555 78.207,136.100 81.994 L 148.000 88.880 148.000 139.403 L 148.000 189.926 141.900 193.426 C 138.545 195.351,131.809 199.238,126.932 202.063 C 122.054 204.888,117.914 207.194,117.732 207.187 C 117.549 207.179,113.530 204.952,108.800 202.236 L 100.200 197.299 100.099 139.493 L 99.997 81.687 106.499 77.887 C 119.149 70.494,117.238 71.085,121.165 73.354 M291.563 76.600 L 299.980 81.400 299.890 91.737 L 299.800 102.073 291.265 107.037 C 286.571 109.766,282.656 112.000,282.565 112.000 C 282.474 112.000,282.400 107.571,282.400 102.157 C 282.400 93.446,282.329 92.342,281.782 92.552 C 281.442 92.682,278.652 94.245,275.582 96.024 L 270.000 99.260 270.000 139.403 L 270.000 179.546 271.162 180.373 C 271.801 180.828,272.416 181.200,272.529 181.200 C 272.642 181.200,274.592 182.296,276.861 183.636 C 279.130 184.976,281.305 186.242,281.694 186.450 C 282.364 186.809,282.400 185.837,282.400 167.214 C 282.400 154.639,282.259 147.600,282.007 147.600 C 281.791 147.600,280.431 148.324,278.984 149.210 C 277.538 150.095,276.185 150.714,275.977 150.586 C 275.533 150.311,275.465 131.213,275.906 130.574 C 276.068 130.340,279.140 128.473,282.733 126.425 C 286.326 124.378,291.541 121.375,294.323 119.751 C 297.105 118.128,299.521 116.800,299.692 116.800 C 299.864 116.800,299.958 134.911,299.902 157.048 L 299.800 197.295 293.000 201.289 C 289.260 203.486,285.354 205.729,284.321 206.273 L 282.441 207.262 272.321 201.466 C 266.754 198.278,260.040 194.412,257.400 192.874 L 252.600 190.078 252.356 170.339 C 251.787 124.455,251.935 89.381,252.700 88.710 C 253.381 88.113,260.932 83.662,265.837 80.965 C 267.177 80.229,271.317 77.825,275.037 75.625 C 278.757 73.425,282.103 71.664,282.473 71.712 C 282.843 71.760,286.934 73.960,291.563 76.600 M87.611 189.700 L 87.622 290.200 92.491 293.000 C 95.168 294.540,98.448 296.400,99.780 297.134 C 101.111 297.868,106.700 301.098,112.200 304.312 C 117.700 307.525,122.830 310.483,123.600 310.883 C 124.370 311.284,125.270 311.785,125.600 311.996 C 127.373 313.133,147.644 324.800,147.846 324.800 C 147.977 324.800,148.884 325.340,149.862 326.000 C 150.840 326.660,151.719 327.200,151.815 327.200 C 151.911 327.200,155.637 329.331,160.095 331.935 C 164.553 334.539,169.055 337.149,170.100 337.735 C 171.145 338.321,172.792 339.246,173.760 339.791 C 174.729 340.336,180.084 343.443,185.660 346.696 C 191.237 349.949,196.808 353.135,198.041 353.777 L 200.281 354.943 205.841 351.706 C 208.898 349.926,212.030 348.099,212.800 347.646 C 213.570 347.194,214.830 346.493,215.600 346.089 C 216.370 345.686,221.950 342.466,228.000 338.935 C 234.050 335.404,240.080 331.921,241.400 331.196 C 242.720 330.471,247.434 327.745,251.876 325.139 C 256.317 322.533,260.083 320.400,260.244 320.400 C 260.405 320.400,260.821 320.144,261.169 319.832 C 261.516 319.519,262.700 318.794,263.800 318.220 C 264.900 317.647,266.070 317.003,266.400 316.791 C 266.730 316.578,271.230 313.970,276.400 310.996 C 281.570 308.021,286.070 305.412,286.400 305.198 C 286.730 304.984,287.720 304.421,288.600 303.948 C 289.480 303.475,294.880 300.357,300.600 297.021 C 306.320 293.684,311.315 290.835,311.700 290.689 C 312.364 290.439,312.400 285.267,312.400 189.813 C 312.400 94.254,312.435 89.201,313.100 89.210 C 313.701 89.219,323.878 94.937,329.100 98.200 L 330.800 99.263 330.796 199.931 L 330.792 300.600 322.544 305.400 C 318.008 308.040,314.099 310.274,313.858 310.364 C 313.616 310.453,307.774 313.828,300.875 317.864 C 293.976 321.899,288.262 325.200,288.176 325.200 C 288.031 325.200,267.330 337.155,266.000 338.007 C 265.670 338.219,264.680 338.780,263.800 339.254 C 262.119 340.160,241.435 352.136,240.400 352.802 C 240.070 353.015,239.170 353.518,238.400 353.920 C 237.630 354.322,232.175 357.474,226.277 360.925 C 220.380 364.376,215.491 367.200,215.414 367.200 C 215.337 367.200,211.892 369.172,207.757 371.583 L 200.239 375.966 197.220 374.330 C 195.559 373.430,189.970 370.223,184.800 367.202 C 179.630 364.181,174.680 361.323,173.800 360.851 C 172.920 360.378,171.930 359.815,171.600 359.600 C 171.270 359.385,165.960 356.306,159.800 352.759 C 153.640 349.211,144.010 343.650,138.400 340.401 C 128.385 334.601,126.814 333.700,123.200 331.682 C 122.210 331.130,117.080 328.150,111.800 325.060 C 106.520 321.971,101.570 319.116,100.800 318.716 C 100.030 318.316,99.130 317.813,98.800 317.599 C 97.667 316.864,79.400 306.309,76.800 304.887 C 75.370 304.104,73.120 302.816,71.800 302.023 L 69.400 300.581 69.299 199.914 L 69.198 99.248 72.899 97.071 C 81.315 92.121,86.575 89.200,87.072 89.200 C 87.508 89.200,87.602 106.711,87.611 189.700 M117.867 92.667 C 117.252 93.281,117.567 186.400,118.183 186.400 C 118.504 186.400,121.339 184.885,124.483 183.034 L 130.200 179.668 130.295 139.734 C 130.347 117.770,130.257 99.607,130.095 99.371 C 129.933 99.135,127.820 97.806,125.400 96.417 C 117.380 91.813,118.275 92.258,117.867 92.667 M148.157 269.433 C 148.291 269.781,148.400 275.016,148.400 281.066 C 148.400 287.116,148.544 292.007,148.719 291.933 C 148.895 291.860,157.507 286.715,167.857 280.500 L 186.675 269.200 198.323 269.200 C 209.431 269.200,209.991 269.236,210.386 269.974 C 210.647 270.461,210.800 275.510,210.800 283.616 C 210.800 294.243,210.894 296.450,211.339 296.279 C 211.635 296.165,214.560 294.324,217.839 292.187 C 221.117 290.050,226.190 286.749,229.112 284.851 C 232.033 282.953,236.803 279.851,239.712 277.957 C 242.620 276.063,246.847 273.318,249.105 271.857 L 253.211 269.200 259.196 269.200 C 267.112 269.200,266.487 268.139,266.325 281.308 C 266.227 289.257,266.079 291.625,265.644 292.147 C 265.163 292.726,256.945 297.918,255.810 298.360 C 255.585 298.448,254.971 298.853,254.446 299.260 C 252.027 301.137,252.000 301.034,252.000 289.800 C 252.000 283.873,251.846 279.600,251.633 279.600 C 251.431 279.600,249.316 280.888,246.933 282.463 C 239.164 287.598,223.993 297.467,221.953 298.715 C 219.686 300.101,198.394 300.098,197.423 298.711 C 196.891 297.952,196.800 295.968,196.800 285.111 C 196.800 278.120,196.694 272.400,196.565 272.400 C 196.246 272.400,179.483 282.313,177.627 283.600 C 176.782 284.186,176.934 284.373,184.005 291.499 C 187.989 295.514,191.136 298.979,191.000 299.199 C 190.849 299.444,187.848 299.600,183.313 299.600 L 175.874 299.600 171.217 295.000 C 165.869 289.718,166.530 290.010,163.868 291.756 C 162.731 292.502,159.336 294.572,156.325 296.356 L 150.850 299.600 143.053 299.600 C 132.983 299.600,134.000 300.904,134.000 287.994 C 134.000 275.615,133.285 277.100,141.600 272.216 C 147.986 268.464,147.814 268.537,148.157 269.433 " stroke="none" fill="#040404" fill-rule="evenodd"></path><path id="path3" d="M86.216 89.574 C 86.061 89.825,86.206 89.896,86.579 89.753 C 87.139 89.538,87.200 99.343,87.200 189.934 C 87.200 245.164,87.335 290.436,87.500 290.538 C 87.665 290.640,87.710 245.441,87.600 190.095 C 87.402 90.530,87.363 87.718,86.216 89.574 M312.899 189.700 L 312.998 290.200 313.100 189.886 L 313.202 89.573 314.101 90.008 C 314.964 90.427,314.969 90.420,314.224 89.822 C 313.796 89.480,313.301 89.200,313.124 89.200 C 312.946 89.200,312.845 134.425,312.899 189.700 M329.702 99.033 C 330.367 99.823,330.398 105.062,330.302 200.295 C 330.246 255.531,330.335 300.640,330.500 300.538 C 330.665 300.436,330.800 255.211,330.800 200.038 L 330.800 99.724 329.900 98.962 C 329.001 98.200,329.000 98.201,329.702 99.033 M69.867 99.067 C 69.149 99.784,69.580 300.286,70.300 300.851 C 70.921 301.338,70.943 301.327,70.498 300.757 C 70.099 300.245,70.018 279.666,70.098 199.457 C 70.154 144.096,70.185 98.800,70.167 98.800 C 70.148 98.800,70.013 98.920,69.867 99.067 M147.680 280.676 C 147.636 287.098,147.735 292.436,147.900 292.539 C 148.065 292.641,148.153 288.737,148.096 283.862 C 147.928 269.441,147.766 268.207,147.680 280.676 M186.537 269.506 C 186.283 269.668,191.295 269.747,197.675 269.683 C 206.701 269.591,209.423 269.680,209.938 270.083 C 210.530 270.545,210.542 270.526,210.051 269.900 C 209.472 269.161,187.656 268.796,186.537 269.506 M256.300 269.497 C 257.895 269.573,260.505 269.573,262.100 269.497 C 263.695 269.421,262.390 269.359,259.200 269.359 C 256.010 269.359,254.705 269.421,256.300 269.497 M210.579 283.600 C 210.579 290.750,210.633 293.675,210.699 290.100 C 210.766 286.525,210.766 280.675,210.699 277.100 C 210.633 273.525,210.579 276.450,210.579 283.600 M266.171 280.400 C 266.171 285.350,266.228 287.375,266.299 284.900 C 266.369 282.425,266.369 278.375,266.299 275.900 C 266.228 273.425,266.171 275.450,266.171 280.400 M134.243 277.833 C 134.109 278.181,134.000 282.915,134.000 288.353 C 134.000 298.143,134.132 299.200,135.356 299.200 C 135.575 299.200,135.440 298.971,135.057 298.691 C 134.421 298.226,134.371 297.280,134.481 287.691 C 134.546 281.920,134.574 277.199,134.543 277.200 C 134.511 277.200,134.376 277.485,134.243 277.833 M176.432 284.004 C 176.414 284.336,179.685 287.846,183.700 291.804 L 191.000 299.000 183.944 291.800 C 180.064 287.840,176.793 284.330,176.676 284.000 C 176.488 283.470,176.459 283.470,176.432 284.004 M171.000 294.400 C 173.412 296.820,175.476 298.800,175.586 298.800 C 175.696 298.800,173.812 296.820,171.400 294.400 C 168.988 291.980,166.924 290.000,166.814 290.000 C 166.704 290.000,168.588 291.980,171.000 294.400 M264.834 292.153 L 263.869 293.400 265.013 292.312 C 265.643 291.714,266.077 291.153,265.979 291.065 C 265.880 290.977,265.365 291.467,264.834 292.153 M139.280 299.498 C 141.194 299.571,144.434 299.571,146.480 299.498 C 148.526 299.426,146.960 299.366,143.000 299.365 C 139.040 299.365,137.366 299.424,139.280 299.498 M180.080 299.498 C 181.994 299.571,185.234 299.571,187.280 299.498 C 189.326 299.426,187.760 299.366,183.800 299.365 C 179.840 299.365,178.166 299.424,180.080 299.498 M204.076 299.499 C 206.868 299.567,211.548 299.568,214.476 299.499 C 217.404 299.431,215.120 299.375,209.400 299.374 C 203.680 299.374,201.284 299.430,204.076 299.499 " stroke="none" fill="#848484" fill-rule="evenodd"></path><path id="path4" d="M208.299 28.840 C 208.694 29.347,208.820 49.490,208.900 125.440 L 209.002 221.400 209.101 125.349 C 209.195 34.280,209.164 29.269,208.500 28.749 C 207.880 28.263,207.857 28.273,208.299 28.840 M191.299 128.667 C 191.245 183.484,191.084 228.664,190.941 229.067 C 190.751 229.605,190.805 229.688,191.142 229.379 C 191.486 229.064,191.576 203.886,191.500 128.979 L 191.398 29.000 191.299 128.667 M252.191 122.200 C 252.191 140.460,252.240 147.988,252.300 138.930 C 252.360 129.871,252.360 114.931,252.300 105.730 C 252.240 96.528,252.191 103.940,252.191 122.200 M312.597 189.800 C 312.597 245.240,312.643 267.861,312.700 240.068 C 312.757 212.275,312.757 166.915,312.700 139.268 C 312.643 111.621,312.597 134.360,312.597 189.800 M69.467 99.067 C 68.749 99.784,69.180 300.286,69.900 300.851 C 70.521 301.338,70.543 301.327,70.098 300.757 C 69.699 300.245,69.618 279.666,69.698 199.457 C 69.754 144.096,69.785 98.800,69.767 98.800 C 69.748 98.800,69.613 98.920,69.467 99.067 M130.306 139.122 L 130.411 179.388 129.506 180.143 L 128.600 180.898 129.600 180.300 L 130.600 179.702 130.702 139.819 C 130.758 117.883,130.668 99.693,130.502 99.396 C 130.336 99.099,130.248 116.976,130.306 139.122 M269.867 99.067 C 269.720 99.213,269.600 117.365,269.600 139.405 C 269.600 182.335,269.534 180.800,271.376 180.800 C 271.548 180.800,271.305 180.485,270.836 180.100 L 269.983 179.400 270.092 139.100 C 270.151 116.935,270.185 98.800,270.167 98.800 C 270.148 98.800,270.013 98.920,269.867 99.067 M275.693 140.476 C 275.600 150.310,275.762 151.604,276.935 150.421 C 277.289 150.064,277.235 150.015,276.707 150.216 C 276.063 150.461,276.006 149.777,275.900 140.540 L 275.785 130.600 275.693 140.476 M147.600 174.056 C 147.600 188.484,147.545 189.756,146.900 190.278 C 146.268 190.789,146.288 190.802,147.100 190.408 L 148.000 189.972 148.000 174.186 C 148.000 165.504,147.910 158.400,147.800 158.400 C 147.690 158.400,147.600 165.445,147.600 174.056 M100.070 192.276 C 100.031 194.958,100.135 197.237,100.300 197.340 C 100.465 197.442,100.552 195.968,100.493 194.063 C 100.304 187.954,100.142 187.268,100.070 192.276 M137.111 195.760 C 135.016 197.005,134.684 197.463,136.600 196.465 C 138.605 195.420,139.519 194.803,139.000 194.844 C 138.780 194.861,137.930 195.274,137.111 195.760 M221.694 209.620 C 221.642 216.341,221.465 222.012,221.300 222.223 C 221.135 222.433,221.228 222.415,221.506 222.183 C 221.898 221.855,221.987 219.022,221.900 209.580 L 221.788 197.400 221.694 209.620 M128.700 200.629 C 127.205 201.440,127.296 201.778,128.800 201.000 C 129.460 200.659,130.000 200.294,130.000 200.190 C 130.000 199.932,129.957 199.947,128.700 200.629 M112.400 204.179 C 112.400 204.289,112.940 204.659,113.600 205.000 C 114.260 205.341,114.800 205.531,114.800 205.421 C 114.800 205.311,114.260 204.941,113.600 204.600 C 112.940 204.259,112.400 204.069,112.400 204.179 M118.406 206.423 C 117.640 206.850,117.280 207.199,117.606 207.197 C 117.933 207.196,118.740 206.837,119.400 206.400 C 120.931 205.386,120.238 205.402,118.406 206.423 M283.776 206.187 C 283.349 206.510,283.180 206.775,283.400 206.775 C 283.620 206.775,284.149 206.510,284.576 206.187 C 285.004 205.864,285.173 205.600,284.953 205.600 C 284.733 205.600,284.204 205.864,283.776 206.187 M160.960 226.600 C 160.961 229.900,161.022 231.197,161.098 229.482 C 161.173 227.767,161.172 225.067,161.097 223.482 C 161.021 221.897,160.959 223.300,160.960 226.600 M217.100 224.629 C 215.605 225.440,215.696 225.778,217.200 225.000 C 217.860 224.659,218.400 224.294,218.400 224.190 C 218.400 223.932,218.357 223.947,217.100 224.629 M231.497 236.366 C 229.898 237.391,229.603 237.806,231.000 237.066 C 232.676 236.177,233.471 235.608,233.000 235.635 C 232.780 235.648,232.104 235.977,231.497 236.366 M225.500 239.829 C 224.005 240.640,224.096 240.978,225.600 240.200 C 226.260 239.859,226.800 239.494,226.800 239.390 C 226.800 239.132,226.757 239.147,225.500 239.829 M176.000 240.979 C 176.000 241.089,176.540 241.459,177.200 241.800 C 177.860 242.141,178.400 242.331,178.400 242.221 C 178.400 242.111,177.860 241.741,177.200 241.400 C 176.540 241.059,176.000 240.869,176.000 240.979 M178.800 242.592 C 178.800 242.697,179.520 243.151,180.400 243.600 C 182.383 244.612,182.500 244.374,180.577 243.240 C 179.112 242.375,178.800 242.261,178.800 242.592 M185.200 246.179 C 185.200 246.289,185.740 246.659,186.400 247.000 C 187.060 247.341,187.600 247.531,187.600 247.421 C 187.600 247.311,187.060 246.941,186.400 246.600 C 185.740 246.259,185.200 246.069,185.200 246.179 M207.896 249.958 C 205.593 251.309,204.880 251.966,206.748 251.016 C 208.819 249.962,210.646 248.801,210.200 248.822 C 209.980 248.832,208.943 249.343,207.896 249.958 M194.800 251.779 C 194.800 251.889,195.340 252.259,196.000 252.600 C 196.660 252.941,197.200 253.131,197.200 253.021 C 197.200 252.911,196.660 252.541,196.000 252.200 C 195.340 251.859,194.800 251.669,194.800 251.779 M201.900 253.429 C 200.405 254.240,200.496 254.578,202.000 253.800 C 202.660 253.459,203.200 253.094,203.200 252.990 C 203.200 252.732,203.157 252.747,201.900 253.429 M198.176 253.813 C 198.604 254.136,199.133 254.400,199.353 254.400 C 199.573 254.400,199.404 254.136,198.976 253.813 C 198.549 253.490,198.020 253.225,197.800 253.225 C 197.580 253.225,197.749 253.490,198.176 253.813 M148.084 280.676 C 148.038 286.878,148.135 292.037,148.300 292.139 C 148.465 292.241,148.554 288.967,148.498 284.862 C 148.304 270.786,148.169 269.412,148.084 280.676 M195.816 272.374 C 195.662 272.624,195.805 272.696,196.174 272.555 C 196.718 272.346,196.802 273.789,196.903 285.059 L 197.017 297.800 197.008 285.033 C 197.000 272.719,196.815 270.757,195.816 272.374 M251.903 286.099 C 252.095 299.013,252.234 300.220,252.317 289.700 C 252.363 283.925,252.265 279.200,252.100 279.199 C 251.935 279.199,251.846 282.304,251.903 286.099 M178.800 286.525 C 178.800 286.594,179.385 287.179,180.100 287.825 L 181.400 289.000 180.225 287.700 C 179.130 286.488,178.800 286.216,178.800 286.525 M171.000 294.800 C 173.695 297.440,176.147 299.599,176.450 299.599 C 176.752 299.598,176.460 299.257,175.800 298.841 C 175.140 298.426,172.803 296.266,170.608 294.043 C 168.412 291.819,166.499 290.000,166.358 290.000 C 166.216 290.000,168.305 292.160,171.000 294.800 M182.800 290.525 C 182.800 290.594,183.385 291.179,184.100 291.825 L 185.400 293.000 184.225 291.700 C 183.130 290.488,182.800 290.216,182.800 290.525 M186.800 294.525 C 186.800 294.594,187.385 295.179,188.100 295.825 L 189.400 297.000 188.225 295.700 C 187.130 294.488,186.800 294.216,186.800 294.525 M151.000 299.014 C 150.340 299.317,150.081 299.572,150.424 299.582 C 150.766 299.592,151.396 299.336,151.824 299.013 C 152.772 298.296,152.569 298.296,151.000 299.014 " stroke="none" fill="#6b6b6b" fill-rule="evenodd"></path></g></svg>