<svg width="151" height="150" xmlns="http://www.w3.org/2000/svg">

 <g>
  <title>Layer 1</title>
  <g id="svg_22">
   <path fill="#262223" d="m75.5,150c41.42,0 75,-33.58 75,-75s-33.58,-75 -75,-75s-75,33.58 -75,75c0.01,41.42 33.58,75 75,75z" id="svg_1"></path>
   <path fill="#fff" d="m45.95,121.75c0,0.97 -0.44,4.44 0.95,4.44c1.55,0 3.33,-6.14 3.33,-8.04c0,-1.05 -0.05,-1.47 -0.78,-1.82c-0.97,-0.47 -1.84,0.36 -2.82,0.36c-0.69,0 -1.39,-0.49 -1.66,-0.67c-0.27,-0.19 -5.08,-3.6 -5.47,-3.9c-0.51,-0.39 -0.74,-1.34 -0.69,-2.08c0.03,-0.38 0.52,-2.25 -1.47,-2.25c-0.31,0 -2.94,0.34 -5.34,1.15c-2.28,0.77 -4.43,1.61 -4.21,2.64c0.35,1.66 2.31,0.62 6.32,0.62c0.82,0 1.71,0.1 2.29,0.5c0.59,0.4 1.72,1.25 1.89,1.38c0.17,0.13 0.09,0.42 -0.04,0.57c-0.13,0.14 -7.93,8.28 -7.93,8.28c-0.53,0.5 -0.98,0.86 -2.02,0.86s-1.53,-0.3 -2.16,-0.3c-0.61,0 -1.54,0.38 -1.54,1.08c0,0.63 0.83,1.12 1.14,1.39c0.31,0.27 5.63,4.44 5.98,4.71c0.46,0.35 1.12,0.64 1.47,0.64c0.46,0 1.48,-0.15 1.48,-1.22c0,-1.26 -0.68,-1.84 -0.68,-2.78c0,-0.78 1.02,-1.8 1.43,-2.21c0.51,-0.53 7.25,-7.38 7.25,-7.38c0.22,-0.24 0.34,-0.16 0.57,-0.03c0.23,0.14 1.78,1.38 2.17,1.67c0.66,0.47 0.54,1.42 0.54,2.39zm14.45,1.77c0,-1.72 -1.74,-2.58 -3.39,-2.58c-1.03,0 -2.45,0.56 -2.45,1.9c0,1.64 2.23,2.58 3.72,2.58c0.75,0 2.12,-0.45 2.12,-1.9zm-3.87,3.32c-1,-0.6 -3.53,-1.37 -4.45,-1.37c-0.77,0 -1.51,0.49 -1.51,1.21s0.43,0.88 0.83,1.17c0.4,0.29 0.41,0.58 0.22,0.85c-0.2,0.27 -3.17,3.94 -3.81,4.68c-0.65,0.74 -0.95,0.7 -1.67,0.7s-2.2,0.07 -2.2,1.28c0,1.12 2.37,2.06 3.85,2.74c1.42,0.65 3.31,1.25 3.85,1.21c0.59,-0.05 1.42,-0.29 1.42,-1.19c0,-0.9 -0.49,-1.3 -1.01,-1.84s-0.5,-0.83 -0.13,-1.3c0.38,-0.47 3.65,-4.5 4.73,-5.87c1.08,-1.37 0.69,-1.78 -0.12,-2.27zm19.58,-0.71c-1.37,0 -2.12,0.87 -2.95,0.87c-1.22,0 -1.01,-0.94 -3.92,-0.94c-6.96,0 -7.79,6.61 -7.79,7.9c0,4.94 4.37,5.35 5.49,5.35c0.79,0 1.15,-0.22 1.65,-0.32c0.5,-0.11 0.76,0.29 0.54,0.72c-1.31,2.62 -3.1,3.71 -4.68,3.71c-1.15,0 -2.08,-0.86 -1.83,-1.12s1.43,-0.02 1.43,-1.3c0,-1.37 -1.47,-2.05 -2.52,-2.05c-1.04,0 -2.31,0.65 -2.31,2.38c0,1.42 1.42,3.96 5.78,3.96c8.26,0 10.69,-9.15 12.96,-15.88c0.59,-1.74 -0.32,-3.28 -1.85,-3.28zm-5.58,9.44c-0.43,0.79 -1.01,1.69 -2.52,1.69s-2.12,-1.08 -2.12,-2.27s1.33,-5.26 2.45,-6.16c1.12,-0.9 1.98,-0.76 1.98,-0.76c0.94,0 2.05,0.68 2.05,1.91c-0.01,1.23 -1.41,4.8 -1.84,5.59zm13.93,0.92c0.56,0 5.76,-0.32 7.52,-1.39c1.45,-0.87 1.69,-1.78 1.69,-2.78c0,-3.07 -3.02,-4.05 -5.37,-4.05c-4.89,0 -8.91,3.91 -8.91,8.59c0,4.33 3.72,5.86 6.26,5.86c4.48,0 6.73,-3.19 7.35,-4.32c0.62,-1.13 -0.31,-1.36 -0.71,-1.03c-0.41,0.32 -3.05,2.81 -5.32,2.81c-2.51,0 -2.92,-2.34 -2.92,-2.94c0.01,-0.39 0.1,-0.75 0.41,-0.75zm2.84,-6.49c0.97,0 2.48,0.96 2.48,2.44c0,0.27 -0.11,0.59 -0.33,0.77c-0.79,0.65 -3.58,1.16 -4.2,1.16c-0.35,0 -0.76,-0.13 -0.76,-0.65c0.01,-1.09 1.12,-3.72 2.81,-3.72zm18.77,-8.56c-2.41,0 -3.77,3.56 -3.92,3.87c-0.14,0.31 -0.36,0.53 -0.54,0.2c-0.31,-0.56 -0.94,-1.33 -2.23,-1.33c-2.3,0 -3.67,2.27 -3.67,3.53c0,1.26 1.1,1.94 1.98,1.94c0.88,0 1.31,-0.77 1.44,-1.03c0.13,-0.25 0.29,-0.27 0.33,0.14c0.04,0.47 0.62,4.74 0.73,5.66c0.11,0.92 -0.03,1.38 -0.38,1.84c-0.35,0.46 -1.09,0.95 -1,1.65c0.23,1.76 3,0.33 4.64,-0.35c1.65,-0.68 3.62,-1.4 3.62,-2.59s-1.54,-1.08 -1.92,-1.08c-0.38,0 -0.76,-0.19 -0.86,-0.7c-0.11,-0.51 -0.7,-4.7 -0.7,-6.4c0,-1.63 0.63,-1.76 0.94,-1.38c0.33,0.42 0.84,0.89 1.52,0.89c1.46,0 2.3,-0.96 2.3,-2.27c-0.01,-1.31 -0.58,-2.59 -2.28,-2.59zm15.63,-4.54c-2.63,0 -5.54,2.97 -7.45,2.97c-0.65,0 -1.35,-0.3 -1.35,-1.32c0,-1.97 2.08,-3.46 2.4,-3.46c0.15,0 0.29,0.04 0.26,0.22c-0.03,0.22 -0.1,0.44 -0.1,0.63c0,0.35 0.3,1.17 1.4,1.17c1.78,0 2.38,-2.09 2.38,-2.81c0,-1.31 -1.09,-1.75 -1.76,-1.75c-1.45,0 -4.23,1.73 -5.74,3.83c-1.64,2.29 -1.79,3.27 -1.79,5.02c0,1.67 1.48,2.86 2.94,2.86c2.88,0 5.43,-2.83 7.14,-2.76c1,0.04 1.04,0.87 1.04,1.2c0,2.43 -2.78,3.46 -3.08,3.56c-0.3,0.1 -0.68,0.14 -0.81,0.04c-0.11,-0.08 0.03,-0.26 0.03,-0.56c0,-0.3 -0.3,-1.26 -1.4,-1.26c-0.66,0 -2.24,0.94 -2.24,2.97c0,1.35 1.08,1.97 2.4,1.97c3.86,0 8.53,-4.91 8.53,-9.8c0.01,-0.88 -0.32,-2.72 -2.8,-2.72zm-100.52,-76.24c-0.58,-0.42 -0.8,-0.53 -1.11,-0.53c-0.31,0 -0.78,0.28 -1.13,0.28c-0.35,0 -0.73,-0.26 -0.81,-0.69c-0.06,-0.35 0.09,-0.68 0.31,-0.89c0.22,-0.22 2.79,-3.28 3,-3.51c0.2,-0.23 0.47,-0.4 0.74,-0.33c0.36,0.09 0.72,0.5 0.65,1.03c-0.08,0.6 -0.07,1.26 0.36,1.62c0.43,0.36 1.82,1.48 2.13,1.69c0.31,0.2 0.72,0.35 1.19,-0.12s2.7,-3.18 2.93,-3.47c0.23,-0.3 0.42,-0.73 0.12,-1.03c-0.32,-0.31 -2.34,-1.98 -2.51,-2.12c-0.17,-0.14 -0.43,-0.31 -0.67,-0.31c-0.24,0 -0.34,0.06 -0.55,0.15c-0.22,0.09 -0.43,0.21 -0.59,0.21c-0.16,0 -0.37,-0.06 -0.59,-0.28c-0.22,-0.22 -0.26,-0.65 0.01,-1.07c0.27,-0.42 2.57,-3.13 2.84,-3.38c0.27,-0.24 0.46,-0.39 0.73,-0.39c0.39,0 0.78,0.42 0.78,0.84s-0.09,0.58 -0.09,0.89c0,0.31 0.23,0.49 0.43,0.65c0.2,0.16 6.55,5.4 6.55,5.4c0.5,0.39 0.7,0.49 0.96,0.49s0.82,-0.28 1.17,-0.28s0.74,0.26 0.74,0.81s-0.74,1.35 -1.55,2.38c-0.81,1.03 -1.51,1.85 -2.02,1.85s-0.85,-0.38 -0.85,-0.88s0.08,-0.31 0.08,-0.55a1,1 0 0 0 -0.38,-0.78c-0.28,-0.24 -1.94,-1.57 -2.15,-1.73c-0.2,-0.16 -0.58,-0.41 -0.97,0.01s-2.73,3.27 -3.01,3.62c-0.28,0.35 -0.43,0.88 -0.04,1.21c0.39,0.34 1.8,1.55 2.09,1.75c0.3,0.2 0.54,0.24 0.72,0.24c0.49,0 0.57,-0.27 0.96,-0.27c0.32,0 0.84,0.26 0.84,0.84c0,0.36 -0.22,0.68 -0.51,1.07c-0.3,0.39 -1.98,2.44 -2.29,2.79c-0.31,0.35 -0.6,0.47 -0.82,0.47c-0.23,0 -0.86,-0.22 -0.86,-0.84c0,-0.59 0.12,-0.62 0.12,-0.9c0,-0.23 -0.2,-0.4 -0.43,-0.61c-0.26,-0.19 -6.23,-5.13 -6.52,-5.33zm89.16,-9.68c-0.25,0.33 -0.6,0.69 -0.6,0.96c0,0.58 0.5,0.97 0.54,1.37c0.07,0.61 -0.39,0.92 -0.87,0.92c-0.37,0 -0.99,-0.25 -1.57,-0.63c-0.41,-0.27 -2.35,-1.59 -2.72,-1.87c-0.37,-0.28 -0.81,-0.71 -0.85,-1.2c-0.02,-0.23 0.07,-0.75 0.75,-0.85c0.59,-0.09 0.92,0.04 1.39,-0.05c0.23,-0.04 0.64,-0.55 0.83,-0.79c0.19,-0.24 4.27,-5.93 4.48,-6.21c0.43,-0.57 0.48,-0.82 0.48,-1.13c0,-0.5 -0.46,-0.71 -0.52,-1.3c-0.05,-0.46 0.29,-0.96 0.79,-0.96c0.28,0 0.7,0.13 1.18,0.45c0.5,0.34 2.78,1.93 3.19,2.23c0.76,0.56 0.78,1.07 0.67,1.33c-0.16,0.42 -0.54,0.53 -1.07,0.5c-0.61,-0.03 -0.95,0.08 -1.33,0.59c-0.37,0.51 -4.07,5.74 -4.77,6.64zm-57.55,-16.04c-0.17,-0.7 -0.24,-1.01 -0.49,-1.2c-0.25,-0.19 -1.03,-0.2 -1.33,-0.44a0.84,0.84 0 0 1 -0.22,-1.04c0.16,-0.31 0.76,-0.52 1.05,-0.6c0.31,-0.07 2.56,-0.62 2.86,-0.67c0.3,-0.06 0.66,0.08 0.9,0.24c1.26,0.86 6.99,4.7 8.21,5.53c0.31,0.21 0.62,0.18 0.51,-0.33c-0.1,-0.44 -0.77,-3.47 -1.03,-4.56c-0.12,-0.55 -0.51,-0.88 -1.13,-1.09c-0.23,-0.08 -0.64,-0.37 -0.64,-0.8c0,-0.31 0.18,-0.7 0.75,-0.89c0.47,-0.16 3.44,-0.86 3.79,-0.92c0.48,-0.09 0.9,-0.13 1.27,0.14c0.31,0.23 0.45,0.75 0.09,1.15c-0.21,0.24 -0.65,0.6 -0.44,1.44c0.3,1.25 2.23,9.61 2.38,10.23c0.14,0.62 0.13,1.01 -0.1,1.3c-0.28,0.35 -0.8,0.55 -1.79,-0.11c-1.1,-0.73 -9.12,-6.15 -9.64,-6.51c-0.4,-0.28 -0.69,-0.13 -0.57,0.42c0.11,0.51 1.22,5.44 1.3,5.79c0.08,0.36 0.15,0.57 0.32,0.71c0.3,0.24 0.69,0.25 1.01,0.48c0.26,0.2 0.41,0.72 0.1,1.1c-0.23,0.28 -0.94,0.58 -1.41,0.72s-2.42,0.68 -2.88,0.77c-0.43,0.08 -1.21,0.1 -1.55,-0.12c-0.19,-0.12 -0.53,-0.54 -0.1,-1.1c0.27,-0.35 0.48,-0.56 0.62,-0.81c0.12,-0.23 -0.03,-0.97 -0.09,-1.22c-0.02,-0.12 -1.62,-7.09 -1.75,-7.61zm66.7,14.55c0.52,-0.5 0.87,-0.83 0.89,-1.1c0.03,-0.45 -0.26,-0.94 -0.21,-1.32c0.05,-0.35 0.41,-0.62 0.85,-0.61c0.36,0.01 0.79,0.4 1,0.62c0.23,0.25 1.11,1.17 1.29,1.38c0.2,0.23 0.33,0.69 0.3,0.98c-0.12,1.52 -0.93,8.57 -1.1,10.06c-0.04,0.37 0.2,0.56 0.54,0.27c0.34,-0.29 2.79,-2.48 3.62,-3.24c0.41,-0.38 0.73,-0.7 0.46,-1.3c-0.12,-0.26 -0.08,-0.84 0.3,-1.05c0.27,-0.16 0.71,-0.16 1.16,0.24c0.37,0.33 2.37,2.55 2.6,2.83c0.32,0.38 0.59,0.72 0.53,1.12c-0.05,0.38 -0.39,0.7 -0.92,0.62c-0.37,-0.06 -0.9,-0.35 -1.47,0.17c-0.95,0.86 -7.21,6.69 -7.71,7.13c-0.48,0.42 -0.9,0.62 -1.26,0.56c-0.45,-0.07 -1,-0.51 -0.92,-1.7c0.09,-1.32 1.08,-10.04 1.13,-10.66c0.04,-0.48 -0.23,-0.62 -0.65,-0.25c-0.38,0.35 -3.6,3.16 -3.86,3.41c-0.27,0.25 -0.42,0.41 -0.46,0.63c-0.07,0.38 0.2,0.88 0.1,1.26c-0.11,0.44 -0.53,0.66 -0.96,0.58c-0.36,-0.06 -0.84,-0.49 -1.2,-0.83c-0.36,-0.34 -1.64,-1.78 -1.95,-2.13c-0.28,-0.33 -0.73,-1 -0.71,-1.4c0.01,-0.23 0.22,-0.76 0.92,-0.66c0.44,0.06 0.65,0.26 0.94,0.22c0.23,-0.04 0.8,-0.49 0.99,-0.67c0.09,-0.09 5.37,-4.78 5.76,-5.16zm-26.47,-16.39c0.16,-0.46 0.35,-0.82 0.22,-1.16c-0.1,-0.3 -0.36,-0.51 -0.46,-0.85c-0.1,-0.37 0.1,-0.71 0.37,-0.84c0.31,-0.16 0.57,-0.11 1,0.03c0.43,0.14 3.52,1.53 3.76,1.66c0.27,0.14 0.51,0.34 0.51,0.63c0.01,0.38 -0.08,0.67 -0.62,0.79c-0.59,0.14 -0.76,0.15 -0.99,0.66c-0.23,0.51 -1.39,2.93 -1.5,3.28c-0.11,0.35 -0.1,0.68 0.48,1.01c0.58,0.33 4.14,1.87 4.48,2.01c0.35,0.14 0.85,0.19 1.04,-0.18c0.21,-0.4 1.35,-2.89 1.43,-3.1c0.08,-0.2 0.27,-0.5 0.27,-0.78c0,-0.24 -0.12,-0.45 -0.33,-0.6a0.856,0.856 0 0 1 -0.34,-0.68c0,-0.55 0.53,-0.85 1.09,-0.62c0.48,0.2 3.46,1.44 3.84,1.61c0.26,0.11 0.62,0.34 0.62,0.65c0,0.59 -0.35,0.74 -0.57,0.76c-0.22,0.01 -0.43,0.08 -0.67,0.23c-0.15,0.09 -0.41,0.48 -0.51,0.72c-0.1,0.24 -3.22,7.33 -3.43,7.76c-0.22,0.43 -0.49,1.01 -0.42,1.39c0.05,0.29 0.29,0.52 0.41,0.85c0.2,0.57 -0.31,0.92 -0.69,0.92c-0.49,0 -1.29,-0.29 -2.48,-0.82c-1.24,-0.55 -2.5,-1.01 -2.5,-1.74c0,-0.43 0.29,-0.68 0.64,-0.76c0.4,-0.09 0.59,-0.08 0.82,-0.14c0.23,-0.07 0.4,-0.17 0.55,-0.51c0.16,-0.34 1.03,-2.27 1.13,-2.51c0.1,-0.24 0.23,-0.71 -0.28,-0.97s-4.33,-1.91 -4.75,-2.08c-0.42,-0.18 -0.82,-0.13 -1.04,0.34c-0.22,0.47 -0.96,2.06 -1.07,2.4c-0.12,0.34 -0.13,0.58 -0.08,0.75c0.13,0.47 0.37,0.46 0.48,0.84a0.8,0.8 0 0 1 -0.58,0.99c-0.35,0.1 -0.85,-0.07 -1.3,-0.25c-0.46,-0.18 -2.76,-1.15 -3.18,-1.36c-0.45,-0.22 -0.58,-0.25 -0.68,-0.62c-0.06,-0.22 -0.1,-0.84 0.5,-1.01c0.57,-0.16 0.72,-0.06 0.97,-0.18c0.15,-0.07 0.38,-0.55 0.51,-0.82c0.13,-0.3 3.23,-7.38 3.35,-7.7zm-40.27,12.71c-0.31,-0.32 -0.49,-0.33 -1,-0.27c-0.3,0.04 -0.65,-0.11 -0.81,-0.22c-0.16,-0.11 -9.93,-6.61 -10.41,-6.86c-0.44,-0.22 -0.61,-0.2 -1.12,0.08c0,0 -1.3,0.89 -1.57,1.05c-0.27,0.16 -0.22,0.46 -0.19,0.76s2.48,12.36 2.49,12.63c0.02,0.3 -0.26,0.5 -0.37,0.85c-0.11,0.35 -0.08,0.71 0.18,0.99c0.18,0.2 0.67,0.26 0.96,0.09c0.33,-0.19 2.87,-1.94 3.19,-2.26c0.41,-0.41 0.46,-0.86 0.13,-1.17c-0.29,-0.26 -0.67,-0.17 -0.84,-0.23c-0.16,-0.05 -0.27,-0.24 -0.32,-0.43c-0.05,-0.19 -0.27,-1.3 -0.32,-1.7c-0.05,-0.4 0,-0.86 0.24,-1.08c0.24,-0.22 2.19,-1.54 2.49,-1.7c0.24,-0.13 0.58,-0.15 0.76,-0.03c0.19,0.14 1.59,0.97 1.78,1.13c0.19,0.16 0.32,0.19 0.32,0.46s-0.16,0.29 -0.27,0.5c-0.11,0.22 -0.1,0.59 0.13,0.82c0.23,0.23 0.75,0.25 1.15,0.05c0.46,-0.23 3.08,-2.26 3.36,-2.53c0.2,-0.18 0.37,-0.59 0.04,-0.93zm-8.9,-0.46c-0.18,0.14 -0.89,0.65 -1.18,0.83c-0.29,0.18 -0.51,0.04 -0.58,-0.24c-0.05,-0.19 -0.38,-1.62 -0.42,-1.87c-0.04,-0.25 -0.08,-0.36 0.07,-0.47c0.15,-0.11 0.28,-0.06 0.5,0.07c0.24,0.14 1.34,0.86 1.57,1.02c0.24,0.16 0.22,0.51 0.04,0.66zm34.76,-17.64c-3.29,0 -5.26,1.56 -5.26,3.36c0,0.42 -0.08,2.91 4.29,4.39c2.55,0.86 4.54,1.7 4.54,3.23c0,0.67 -0.32,1.65 -2.53,1.65c-2.32,0 -3.6,-1.53 -4.11,-2.1c-0.51,-0.57 -0.7,-0.73 -1.24,-0.73s-1.2,0.55 -1.66,1.01c-0.46,0.46 -1.72,1.8 -1.12,2.58c0.32,0.43 0.78,0.33 1.24,0.19c0.35,-0.11 1.08,-0.51 1.67,-0.51c1.25,0 3.67,1.92 7.13,1.92c3.1,0 5.18,-1.84 5.18,-3.91c0,-2.08 -1.47,-3.12 -2.97,-3.86c-2.04,-1.01 -6.37,-1.37 -6.37,-3.67c0,-1.15 1.29,-1.57 2.24,-1.57c1.22,0 2.05,0.49 3.13,1.28c1.08,0.78 2.03,1.47 2.92,1.47c0.89,0 2.45,-1.52 2.45,-2.74c0,-0.38 -0.26,-0.76 -0.84,-0.76c-0.38,0 -1.54,0.97 -2.21,0.97c-1.13,0 -2.85,-2.2 -6.48,-2.2z" id="svg_2"></path>
   <path d="m75.53,120.57c25.17,0 45.57,-20.4 45.57,-45.57s-20.4,-45.57 -45.57,-45.57s-45.57,20.4 -45.57,45.57s20.4,45.57 45.57,45.57z" fill="#ee4023" id="svg_3"></path>
   <path fill="#231f20" d="m72.38,44.93c-1.64,-0.15 -3.29,0.01 -4.86,0.46c1.55,-0.44 3.2,-0.53 4.86,-0.46z" id="svg_4"></path>
   <path fill="#262223" d="m45.86,55.16c-0.69,2.26 -2.34,4.17 -1.9,6.61c0.6,2.76 2.34,5.39 1.64,8.13c-0.03,0.1 -0.06,0.21 -0.08,0.33c0.85,-1.81 1.57,-3.62 1.49,-5.6c0.02,-1.32 -0.62,-2.66 -0.92,-4.15c-0.32,-0.67 -0.14,-1.16 -0.13,-1.82c0.18,-0.66 0.87,-2.3 1.51,-1.3c0.81,1.01 0.77,2.99 2.09,3.18c2.31,0.21 1.71,-3.28 1.74,-4.93c-0.13,-1.99 -1.75,-4 -0.72,-5.96c0.69,-1.48 2.51,-1.77 4,-1.75c1.16,0.02 2.64,0.54 3.11,1.87c0.47,1.17 -0.54,2.47 0.27,3.31c2.42,3.18 4.99,-1.73 7.49,-3.01c0.67,-0.32 1.16,-0.48 1.83,-0.8c1.67,-0.8 3.48,-0.27 5.3,-0.4c0.83,-0.15 1.67,-1.13 0.85,-1.64c-1.79,-1.52 -4.29,-0.41 -6.29,0.39c-0.83,0.15 -1.66,0.3 -2.48,0.12c-0.33,-0.17 -0.48,-0.67 -0.31,-0.83c0.74,-0.56 1.53,-0.97 2.35,-1.27l-0.42,0.15c-1.14,0.47 -2.28,0.97 -3.42,1.24c-1.3,0.3 -2.44,0.61 -3.74,0.75c-1.62,-0.03 -3.24,-0.06 -4.85,-0.57c-1.45,-0.51 -2.74,-0.86 -4.02,-1.69c-0.96,-0.5 -1.76,-1 -2.72,-1.83c-0.96,-0.66 -2.25,-1.01 -3.08,0.11c-0.5,0.64 -0.84,1.44 -1.01,2.25c-0.53,2.58 1.38,4.56 2.32,6.68c0.29,0.82 0.27,1.63 0.1,2.43z" id="svg_5"></path>
   <path fill="#262223" d="m106.31,63.93c1.4,-1.05 1.32,-1.39 1.5,-2.34c0.19,-0.95 -0.14,-1.46 -0.13,-1.62c-0.78,-1.47 -1.08,-2.94 -0.57,-4.55c0.85,-2.09 2.65,-3.2 3.65,-4.96c1,-1.6 -0.91,-3.26 -2.36,-3.77c-0.97,-0.34 -2.1,-0.36 -3.08,-0.21c-3.09,0.59 -5.56,2.98 -8.79,2.44c-2.1,-0.36 -4.03,-1.2 -6.29,-1.73c-2.74,-0.86 -5.19,0.39 -7.93,-0.3c-2.58,-0.69 -5,-1.38 -7.74,-2.08c-0.8,-0.17 -1.45,0.13 -2.09,0.12c0.78,0.04 1.55,0.1 2.32,0.18c2.81,0.21 4.92,2.4 7.54,3.44c0.66,0.18 1.32,0.19 1.98,0.2c1.81,0.36 2.94,1.7 4.59,2.39c0.99,0.35 2.3,1.03 3.31,0.06c0.34,-0.49 0.02,-1.16 0.03,-1.82c0,-0.16 0.17,-0.33 0.34,-0.32c1.32,0.02 2.63,0.87 3.96,0.56c0.66,-0.15 1.16,-0.31 1.83,-0.46c2.32,-0.12 4.64,-0.91 6.78,-0.05c1.48,0.69 -0.38,2.64 -1.06,3.78c-0.69,1.81 0.93,3.49 0.73,5.3c-0.17,0.49 -0.52,1.48 -1.18,1.14c-0.65,-0.34 -1.14,-1.01 -1.13,-1.67c-0.31,-1.16 -0.45,-2.32 -0.93,-3.32c-0.48,-0.67 -1.3,-1.34 -2.13,-1.03c-1.5,0.64 -2.69,2.43 -1.55,3.77c3.23,4.35 9.19,6.74 12.21,12.18c-1.01,0.81 -2.95,0.44 -4.11,0.59l-3.52,-1.28c-0.99,-0.18 -2.6,-1.04 -3.44,-0.06c-1.02,1.3 -1.37,2.61 -0.57,4.12c0.16,0.5 0.81,1.01 1.3,1.51c1.37,1.01 2.84,1 3.77,1.55c0.82,0.51 1.3,1.35 1.12,2.33c-0.36,1.48 -1.37,2.62 -2.71,3.42c-1.16,0.47 -2.49,0.78 -3.81,0.59c-3.96,-0.56 -6.73,-2.93 -10,-4.97c-1.47,-1.02 -3.46,-0.39 -4.97,0.74c-3.35,2.75 -4.25,6.7 -6.79,10.3c-0.68,0.81 -1.02,1.64 -2.02,1.95c0,0 -0.33,-0.17 -0.33,-0.34c0.4,-3.79 2.27,-7.07 4.48,-10.34c1.18,-1.47 2.37,-2.93 4.03,-3.57c2.99,-1.11 6.11,0.27 8.89,1.81c0.82,0.51 2.14,0.7 2.65,-0.12c0.35,-0.82 -0.63,-1.5 -1.3,-1.51c-1.97,-0.53 -4.29,-0.24 -5.75,-1.92c-0.16,-0.5 0.34,-0.82 0.67,-0.82c3.31,-0.44 5.75,2.08 8.54,3.29c0.82,0.35 2.3,0.7 2.49,-0.29c0.36,-1.81 -2.11,-2.35 -3.42,-2.87c-1.97,-0.86 -3.96,-0.73 -5.75,-1.92c-0.32,-0.34 -0.65,-0.67 -0.48,-1.17c0.17,-0.49 0.67,-0.65 1.17,-0.47c1.48,0.69 4.24,3.38 4.94,1.08c0.18,-0.99 -1.13,-1.51 -2.12,-1.85c-1.64,-0.52 -3.28,-1.38 -4.76,-1.9c-2.13,-0.86 -4.45,-0.9 -6.45,0.05c-2.17,1.12 -3.53,3.25 -4.23,5.55c-0.87,2.46 -1.57,4.93 -2.28,7.56c-0.54,2.31 -1.07,4.61 -2.6,6.57c-1.01,1.14 -1.69,2.28 -2.38,3.6c-1.88,3.27 -2.27,7.07 -0.84,10.56c0.32,0.5 0.98,0.68 1.48,0.52c0.33,-0.16 0.34,-0.49 0.51,-0.82c0.36,-1.98 -0.92,-3.98 0.43,-5.61c0.33,-0.16 0.83,0.01 0.99,0.35c0.46,2.16 -0.9,4.12 -0.61,6.44c0.75,4.15 4.85,6.53 8.82,6.1c4.47,-0.58 8.47,-2.17 12.93,-1.76c0.66,0.18 1.32,0.35 1.81,0.53c0.98,0.51 1.46,1.35 1.94,2.35c-0.64,-2.67 -2.72,-5.73 -2.72,-5.73l0.61,-1.38s2.16,0.23 2.81,0.08c1.09,-0.26 1.48,-0.4 2.24,-1.69c0.5,-0.96 2.49,-1.06 2.77,-2.36c0.24,-1.16 -0.16,-1.35 -0.16,-2.34c0,-1.82 2.63,-1.36 -0.5,-5.91c-0.21,-0.3 -0.29,-1.02 -0.12,-1.34c1.34,-2.57 3.05,-4.16 4.71,-6.72c0.83,-1.28 1.23,-1.67 1.77,-3.15c0.4,-1.11 0.69,-1.71 1.06,-2.82c0.43,-1.3 0.81,-2.59 0.81,-4.94c-0.03,-2.55 -4.81,-6.9 -4.81,-6.9z" id="svg_6"></path>
   <path fill="#231f20" d="m66.8,45.61c0.14,-0.05 0.29,-0.1 0.44,-0.14c-0.15,0.04 -0.29,0.09 -0.44,0.14z" id="svg_7"></path>
   <path fill="#fd0" d="m67.28,49.28c-0.67,0.32 -1.17,0.48 -1.83,0.8c-2.5,1.28 -5.07,6.19 -7.49,3.01c-0.81,-0.84 0.2,-2.14 -0.27,-3.31c-0.47,-1.33 -1.95,-1.85 -3.11,-1.87c-1.49,-0.03 -3.31,0.27 -4,1.75c-1.03,1.97 0.59,3.98 0.72,5.96c-0.03,1.65 0.57,5.14 -1.74,4.93c-1.32,-0.19 -1.28,-2.17 -2.09,-3.18c-0.64,-1 -1.33,0.64 -1.51,1.3c-0.01,0.66 -0.19,1.15 0.13,1.82c0.31,1.49 0.94,2.83 0.92,4.15c0.11,2.98 -1.58,5.59 -2.79,8.38c-1.2,2.29 -3.21,4.08 -3.91,6.38c-0.69,1.81 1.26,3.33 0.73,5.3c-0.18,0.99 -0.53,1.81 -0.54,2.8c-0.01,0.33 0.15,0.83 0.48,1.16c3.26,2.7 4.85,6.2 6.77,9.87c0.64,1.17 1.96,1.69 3.1,2.2c5.92,1.76 12.02,2.52 17.59,5.76c3.76,2.22 6.18,5.89 9.94,8.27c3.11,1.71 6.73,2.43 10.06,1.33c2.5,-0.95 4.99,-1.57 7.48,-2.35c1.83,-0.63 2.69,-2.76 1.9,-4.6c-0.48,-1 -0.96,-1.84 -1.94,-2.35c-0.49,-0.17 -1.15,-0.35 -1.81,-0.53c-4.46,-0.41 -8.45,1.17 -12.93,1.76c-3.97,0.43 -8.07,-1.96 -8.82,-6.1c-0.29,-2.32 1.07,-4.28 0.61,-6.44c-0.16,-0.33 -0.65,-0.51 -0.99,-0.35c-1.35,1.63 -0.06,3.63 -0.43,5.61c-0.17,0.33 -0.18,0.66 -0.51,0.82c-0.5,0.16 -1.16,-0.02 -1.48,-0.52c-1.43,-3.5 -1.03,-7.29 0.84,-10.56c0.69,-1.31 1.37,-2.46 2.38,-3.6c1.52,-1.96 2.06,-4.26 2.6,-6.57c0.71,-2.63 1.41,-5.1 2.28,-7.56c0.7,-2.3 2.06,-4.43 4.23,-5.55c2,-0.96 4.31,-0.92 6.45,-0.05c1.48,0.52 3.12,1.38 4.76,1.9c0.99,0.35 2.3,0.87 2.12,1.85c-0.7,2.3 -3.46,-0.39 -4.94,-1.08c-0.49,-0.17 -0.99,-0.02 -1.17,0.47c-0.17,0.49 0.15,0.83 0.48,1.17c1.8,1.19 3.78,1.06 5.75,1.92c1.31,0.52 3.78,1.06 3.42,2.87c-0.18,0.99 -1.66,0.63 -2.49,0.29c-2.79,-1.21 -5.22,-3.73 -8.54,-3.29c-0.33,-0.01 -0.83,0.32 -0.67,0.82c1.46,1.68 3.78,1.39 5.75,1.92c0.66,0.01 1.64,0.69 1.3,1.51c-0.51,0.82 -1.83,0.63 -2.65,0.12c-2.78,-1.54 -5.9,-2.91 -8.89,-1.81c-1.66,0.63 -2.85,2.1 -4.03,3.57c-2.21,3.27 -4.08,6.54 -4.48,10.34c0,0.17 0.33,0.34 0.33,0.34c1,-0.31 1.34,-1.13 2.02,-1.95c2.54,-3.59 3.44,-7.54 6.79,-10.3c1.51,-1.13 3.5,-1.76 4.97,-0.74c3.27,2.04 6.04,4.4 10,4.97c1.32,0.19 2.65,-0.12 3.81,-0.59c1.34,-0.8 2.35,-1.94 2.71,-3.42c0.18,-0.99 -0.3,-1.82 -1.12,-2.33c-0.93,-0.56 -2.41,-0.54 -3.77,-1.55c-0.49,-0.5 -1.14,-1.01 -1.3,-1.51c-0.8,-1.5 -0.44,-2.81 0.57,-4.12c0.84,-0.98 2.45,-0.12 3.44,0.06l3.52,1.28c1.16,-0.15 3.42,-0.11 4.43,-0.92c-3.14,-5.85 -9.29,-7.5 -12.52,-11.85c-1.13,-1.34 0.06,-3.14 1.55,-3.77c0.83,-0.32 1.65,0.36 2.13,1.03c0.48,1 0.62,2.16 0.93,3.32c-0.01,0.66 0.47,1.33 1.13,1.67c0.66,0.34 1,-0.64 1.18,-1.14c0.2,-1.81 -1.43,-3.5 -0.73,-5.3c0.68,-1.15 2.53,-3.1 1.06,-3.78c-2.13,-0.86 -4.46,-0.08 -6.78,0.05c-0.66,0.15 -1.16,0.31 -1.83,0.46c-1.33,0.31 -2.64,-0.54 -3.96,-0.56c-0.16,0 -0.33,0.16 -0.34,0.32c-0.01,0.66 0.31,1.33 -0.03,1.82c-1.01,0.97 -2.32,0.29 -3.31,-0.06c-1.64,-0.69 -2.77,-2.03 -4.59,-2.39c-0.66,-0.01 -1.32,-0.02 -1.98,-0.2c-2.63,-1.04 -4.74,-3.22 -7.54,-3.44c-3.63,-0.39 -7.43,-0.46 -10.45,1.8c-0.17,0.16 -0.01,0.66 0.31,0.83c0.82,0.18 1.65,0.03 2.48,-0.12c2,-0.79 4.5,-1.91 6.29,-0.39c0.82,0.51 -0.03,1.49 -0.85,1.64c-1.81,0.13 -3.62,-0.4 -5.29,0.4z" id="svg_8"></path>
   <path fill="#fff" d="m86.39,81.77c-0.58,0.58 -1.75,0.44 -1.75,1.54c0,0.53 0.81,0.64 0.81,1.02c0,0.72 -1.42,3.74 -1.93,4.48c-0.82,1.2 -0.41,1.44 0.56,0.61c3.11,-2.67 3.17,-5.73 5.15,-5.73c1.32,0 1.57,1.04 2.24,1.04c0.68,0 0.8,-0.29 1.46,-0.29c1.73,0 1.42,1.73 2.59,1.73c0.46,0 0.59,-0.27 1.45,-0.27s1.32,1.22 1.81,1.22s1.05,0 1.05,0.6c0,0.72 -0.67,1.77 -1.08,2.64c-0.38,0.8 -1.22,1.88 -1.25,2.4c2.01,-0.92 2.94,-3.69 4.22,-4.47c0.35,-0.21 0.56,-0.72 0.41,-1.05c-0.51,-0.8 -0.32,-1.01 -0.29,-1.45c0.01,-0.16 -0.11,-0.35 -0.27,-0.35c-0.49,-0.01 -0.7,0.33 -1.28,0.17c-0.73,-0.2 -0.76,-0.72 -1.26,-0.92c-0.47,-0.18 -1.14,0.06 -1.42,-0.03c-0.55,-0.17 -0.72,-0.76 -1.01,-0.84c-0.29,-0.09 -0.64,0.04 -1.02,0.04c-0.91,0 -0.82,-1.02 -1.45,-1.02c-0.47,0 -0.43,0.31 -1.07,0.31c-1.18,0 -0.84,-1.29 -1.89,-1.29c-0.7,0 -1.05,0.29 -1.5,0.29c-0.93,0 -0.85,-1.48 -1.95,-1.48c-0.74,0.01 -0.77,0.53 -1.33,1.1z" id="svg_9"></path>
   <path fill="#fd0" d="m106.34,77.6c-0.54,1.16 -2.25,4.72 0.02,4.95c0.97,0.1 2.35,-2.63 2.74,-3.47c0.52,-1.13 1.04,-2.57 1.3,-3.53c0.11,-0.4 0.07,-0.95 -0.95,-0.95c-1.04,0 -2.54,1.76 -3.11,3z" id="svg_10"></path>
   <path fill="#fff" d="m108.98,63.4c0.51,1.2 1.55,2.79 1.59,3.09c0,0 0.02,-1.17 -0.09,-2.05c-0.15,-1.23 -0.26,-1.62 -0.56,-2.59c-0.15,-0.49 -0.61,-1.44 -1.4,-1.06c-0.56,0.27 -0.06,1.38 0.46,2.61zm2.13,-0.26c0.6,2.11 0.61,4.29 0.61,4.29c2.18,-4.57 0.11,-8.96 -0.94,-8.65c-1.44,0.44 -0.03,3.07 0.33,4.36z" id="svg_11"></path>
   <path d="m91.11,100.19c-2.92,0 -5.96,1.59 -7.02,2.05s-4.08,1.04 -4.56,1.08c-1.38,0.11 -2.97,0.05 -2.97,0.65c0,0.48 2.36,0.59 3.54,0.59c2.35,0 5.72,-2.21 9.48,-2.21c1.3,0 3.46,0.43 4.29,0.76c0.84,0.33 0.97,-2.21 0.97,-2.21s-1.22,-0.71 -3.73,-0.71z" fill="#ec1c24" id="svg_12"></path>
   <path fill="#fd0" d="m101.41,99.88c0.61,-0.31 2.21,-0.72 2.21,-2.29c0,-0.88 -0.22,-0.8 -0.22,-1.79s0.95,-1.6 1.13,-2.43c0.02,-1.32 -1.11,-2.5 -1.76,-3.67c-2.02,1.95 -4.68,2.89 -6.37,5.01c-1.01,1.14 -1.84,2.79 -1.32,4.43c0.49,1.55 -0.09,2.79 0.84,2.98c1.94,0.4 3.09,0.12 3.89,-0.45c1.43,-0.91 0.86,-1.41 1.6,-1.79z" id="svg_13"></path>
   <path fill="#262223" d="m59.82,72.48c-1.27,1.64 -2.49,3.2 -3.97,4.79c-0.99,1.12 -1.5,2.4 -2.5,3.68c-1.99,2.88 -0.75,5.98 0.33,8.76c0.15,0.65 0.12,2.27 -1.01,2.09c-0.81,-0.18 -1.28,-0.99 -1.76,-1.65c-1.41,-2.94 -2.32,-6.04 -1.94,-9.27c0.91,-5.98 5.52,-9.79 9,-14.43c1.66,-2.08 0.08,-4.54 0.44,-6.8c0.01,-0.48 0.5,-1.12 1.15,-0.79c2.4,1.66 2.67,4.75 2.63,7.34c0.13,2.27 -0.88,4.36 -2.37,6.28zm7.5,-2.95a8.237,8.237 0 0 1 2.64,-2.38c0.7,-0.4 3.6,-2.21 5.04,-1.21s-1.42,2.09 -1.97,2.37c-0.55,0.27 -1,0.66 -1.82,1.13c-0.66,0.47 -1.98,1.91 -1.01,2.25c0.65,0.17 1.8,-1.1 2.93,-0.92c0.48,0.17 0.96,0.67 0.79,1.31c-0.17,0.32 -0.5,0.64 -0.83,0.96c0,0 -1.62,2.05 -2.63,3.13c-0.69,0.73 -1.2,1.23 -2.41,2.42c-1.11,1.1 -2.74,3.71 -3.09,5.17c-0.19,1.62 0.76,3.09 0.24,4.7c-0.51,1.45 -1.02,2.9 -1.37,4.35c-0.2,2.1 0.74,3.9 1.52,5.7c0.31,0.82 0.62,1.79 -0.05,2.59c-0.33,0.32 -0.81,0.31 -1.14,0.14c-2.87,-2.81 -4.75,-6.24 -5.33,-10.14c-0.88,-5.04 3.01,-10.25 4.93,-13.04c1.93,-2.79 2.72,-7.32 3.56,-8.53z" id="svg_14"></path>
   <path fill="#fff" d="m64.02,68.04c0.16,-1.31 1.92,-1.29 2.86,-1.09c1.21,0.24 4.39,0.8 5.85,1.81c-0.74,0.03 -1.33,0.1 -2.09,0.15c-2.27,0.15 -6.78,0.44 -6.62,-0.87zm3.83,4.85c-2.27,-0.04 -5.49,-0.23 -5.67,0.9c-0.18,1.12 1.04,0.84 1.3,0.87c0.44,0.04 5.26,-0.12 9.28,-1.11c-1.69,-0.42 -3.2,-0.63 -4.91,-0.66zm0.65,3.67c-1.52,-0.03 -3.82,0.68 -3.6,2.1c0.31,2.04 8.42,-1.7 9.33,-2.11c-0.01,0 -4.03,0.04 -5.73,0.01z" id="svg_15"></path>
   <path fill="#262223" d="m72.3,53.57c-1.67,0.8 -3.27,1.56 -4.11,3.17c-0.34,0.8 0.13,1.62 0.94,1.96c0.48,0.17 0.97,0.02 1.46,-0.3c2.29,-1.26 5.25,-3.96 7.81,-1.48c1.62,-0.3 3.73,-0.42 4.67,1.38c0.78,1.47 0.59,3.41 -0.89,4.36c-1.64,1.11 -3.41,0.59 -5.05,1.37c-0.65,0.15 -1.3,0.14 -1.94,-0.2c-2.09,-1.01 -3.67,-3.14 -6.26,-3.51c-1.78,-0.19 -3.58,0.75 -5.18,-0.41c-1.92,-1.49 -0.74,-4.06 0.9,-5.33c0.98,-0.63 2.11,-0.29 2.93,-0.92c1.16,-1.11 2.31,-2.07 3.77,-2.53c1.3,-0.3 3.89,-0.09 3.54,1.68c-0.16,0.97 -1.61,0.29 -2.59,0.76z" id="svg_16"></path>
   <path fill="#262223" d="m92.43,60.73c1.14,0.79 3.38,1.19 2.87,2.97c-0.68,1.77 -2.79,2.06 -4.4,1.22c-0.96,-0.5 -2.09,-1.17 -3.06,-0.86c-0.98,0.31 -1.64,1.11 -2.62,1.25c-0.81,-0.01 -1.93,-0.84 -1.59,-1.81c0.67,-1.12 1.5,-2.24 1.52,-3.54c0.01,-0.81 -0.13,-1.62 -0.61,-2.28c-1.58,-2.3 -4.51,-1.54 -6.09,-3.67c-1.27,-1.48 0.38,-3.23 2.01,-3.85c2.28,-0.77 3.87,1.2 5.3,2.69c1.28,0.99 2.73,1.18 4.35,1.37c0.81,0.01 0.63,1.15 0.3,1.3c-1.96,1.1 -4.05,-0.23 -5.98,-0.92c-0.16,0 -0.65,-0.17 -0.65,0.15c0.16,0.33 0.64,0.66 0.96,0.83c1.62,0.35 3.39,0.71 3.85,2.5c0.14,1.46 -0.54,3.07 0.9,3.91c0.32,0.17 0.81,0.01 0.98,-0.31c0.01,-0.32 0.17,-0.64 0.02,-0.97c-0.47,-0.98 -1.42,-1.97 -1.08,-3.1c0.17,-0.32 0.82,-0.47 1.14,-0.3c0.8,0.5 0.79,1.31 0.77,2.12c0.16,0.47 0.63,0.97 1.11,1.3z" id="svg_17"></path>
   <path fill="#fff" d="m79.6,62.77c1.34,-0.56 1.98,-1.91 1.68,-3.21c-0.3,-1.3 -1.59,-1.81 -2.88,-2.16c-1.46,-0.19 -2.92,0.44 -3.59,1.56c-0.5,0.96 -0.36,2.1 0.6,2.77c1.27,0.83 2.72,1.67 4.19,1.04z" id="svg_18"></path>
   <path fill="#262223" d="m79.47,60.99c-1.13,0.14 -1.6,-1.16 -1.42,-2.13c0.16,-0.16 0.17,-0.48 0.5,-0.64c0.65,-0.15 1.14,-0.14 1.61,0.52c0.46,0.81 0.44,2.11 -0.69,2.25z" id="svg_19"></path>
   <path fill="#fff" d="m95.16,99.83c-0.58,1.38 -1.66,2.4 -1.53,4.03c0.16,0.33 0.64,0.66 0.97,0.34c0.99,-0.79 1.33,-2.08 1.68,-3.21c0.34,-1.13 0.69,-2.58 -0.1,-3.57c-0.67,0.64 -0.69,1.61 -1.02,2.41zm-12.31,-0.26c-0.1,-0.98 -0.23,-2.23 -1.03,-2.89c-0.49,0.76 -0.14,4.94 -1.05,7.99c-0.05,0.16 0.3,0.46 0.59,0.54c0.8,0.22 1.25,-0.41 1.43,-1.21c0.03,-1.46 0.22,-2.78 0.06,-4.43z" id="svg_20"></path>
   <path d="m104.56,74.5c0.25,0.45 0.74,0.85 1.2,0.69c0.92,-0.66 1.44,-1.68 2.36,-2.34c0.92,-0.49 2.68,-1.13 2.85,-2.14c0.48,-1.51 -0.96,-3.13 -2.67,-2.2c-1.3,0.71 -3.01,0.92 -4.35,0.52c-1.17,-0.28 -3.46,-2.12 -4.89,-0.42c-0.77,1 -0.26,1.95 0.48,2.81c1.34,1.37 4.05,1.35 5.02,3.08z" fill="#f9a51a" id="svg_21"></path>
  </g>
 </g>
</svg>