


<svg version="1.1" id="svg2" xml:space="preserve" width="71.858665" height="75.353027" viewBox="0 0 71.858665 75.353026" xmlns="http://www.w3.org/2000/svg"><defs id="defs6"><clipPath clipPathUnits="userSpaceOnUse" id="clipPath16"><path d="M 0,841.89 H 595.276 V 0 H 0 Z" id="path14"></path></clipPath><clipPath clipPathUnits="userSpaceOnUse" id="clipPath184"><path d="m 336.386,103.122 c 1.41,-1.77 2.127,-3.829 2.199,-6.018 v 0 c 0.026,-0.8 -0.099,-1.569 -0.215,-2.419 v 0 l 0.022,0.068 c 0,0 2.632,0.375 3.687,0.755 v 0 c 2.037,0.729 3.845,1.669 5.694,2.786 v 0 c 0.131,0.08 0.308,0.498 0.587,0.188 v 0 c -3.13,-2.502 -6.995,-4.337 -11.035,-4.638 v 0 c -1.473,1.066 -2.162,2.6 -2.41,2.647 v 0 c -0.165,0.028 -1.774,0.063 -2.747,-0.092 v 0 c 0,0 -0.469,0 -1.409,0.015 v 0 c -0.941,0.016 -1.222,0.046 -1.287,-0.03 v 0 c -0.061,-0.08 0.534,-0.988 0.753,-2.18 v 0 c 0.22,-1.192 0.283,-2.492 0.345,-2.585 v 0 c 0.064,-0.096 0.363,-0.017 0.55,0.059 v 0 c 0.186,0.079 1.857,1.026 1.857,1.026 v 0 c 0.055,-0.054 0.143,0.009 0.226,0.073 v 0 c 0.091,0.068 0.178,0.138 0.217,0.056 v 0 c 1.238,-2.648 1.913,-5.35 2.825,-8.127 v 0 c 0.094,-0.279 0.44,-1.856 0.752,-2.545 v 0 c 1.234,-0.184 2.493,-0.282 3.776,-0.282 v 0 c 6.193,0 11.861,2.247 16.237,5.965 v 0 c -0.996,3.036 -3.313,7.089 -4.45,9.984 v 0 c -0.664,1.69 -1.448,3.481 -3.117,4.326 v 0 c -2.054,1.04 -4.316,1.039 -6.579,1.039 v 0 c -0.848,-0.001 -1.694,-0.001 -2.529,0.054 v 0 z" id="path182"></path></clipPath><clipPath clipPathUnits="userSpaceOnUse" id="clipPath208"><path d="M 0,841.89 H 595.276 V 0 H 0 Z" id="path206"></path></clipPath><clipPath clipPathUnits="userSpaceOnUse" id="clipPath286"><path id="path288" style="fill:#ff0000;fill-opacity:1;fill-rule:nonzero;stroke:none;stroke-width:1.33333" d="m -47.457997,13.218768 v -26.690919 c 0.04418,0.0061 0.08872,0.0094 0.133301,0.01025 0.02168,4.25e-4 0.04415,9.75e-4 0.06592,0 0.205191,-0.009 0.230488,-0.315351 0.238769,-0.508301 0.01987,-0.06922 0.03998,-0.169189 0.05127,-0.227051 0.01231,-0.06311 0.02371,-0.125695 0.03516,-0.188965 4.38e-4,-0.0024 10e-4,-0.0049 0.0015,-0.0074 0.0058,-0.01614 0.0082,-0.03476 0.0088,-0.05566 0.0013,-0.0087 0.003,-0.01767 0.0044,-0.02637 -0.0014,-3.98e-4 -0.003,-0.001 -0.0044,-0.0015 0,0 0,-0.0015 0,-0.0015 -0.01239,-0.148763 -0.122018,-0.205806 -0.275391,-0.222655 -0.0092,-0.03394 -0.02597,-0.09424 -0.03369,-0.124512 0.116844,0.03426 0.227655,0.0636 0.317871,0.07325 0.0013,1.41e-4 0.002,0.0024 0.0029,0.0044 -4.3e-5,0.0088 1.7e-5,0.01756 0,0.02637 -1.79e-4,0.09222 0.0093,-0.0065 0,-0.02637 2.45e-4,-0.04993 0.0011,-0.09953 0.0029,-0.149414 0.0029,-0.08001 0.009,-0.16028 0.01318,-0.240235 l 0.01025,-0.209473 c 0.0048,-0.02695 0.01194,-0.05332 0.01465,-0.08057 0.0043,-0.04348 0.0063,-0.08673 0.0088,-0.130371 0.0023,-0.0045 0.0035,-0.0071 0.0059,-0.01172 0.01176,-0.02342 0.0028,-0.105158 0,-0.0791 -0.0032,0.02993 -0.0042,0.06076 -0.0059,0.09082 -0.20478,0.409003 -0.209825,0.467258 -0.395508,0.484864 -4.9e-5,-0.08974 0.0013,-0.179808 0.0015,-0.269532 1.47e-4,-0.06748 0.0031,-0.134738 0,-0.202148 -5.98e-4,-0.0132 -0.0022,-0.02636 -0.0029,-0.03955 0.14413,-0.01609 0.288203,-0.03464 0.421875,-0.07764 0.03108,-0.01 -0.0049,-0.06574 -0.0088,-0.09815 -0.0064,-0.0529 -0.01421,-0.105469 -0.02197,-0.158202 0,0 0,-0.0015 0,-0.0015 0.0013,-0.0086 -8.42e-4,-0.01754 -0.0044,-0.02637 -0.01645,-0.109879 -0.03372,-0.219501 -0.04834,-0.32959 -0.01289,-0.07768 -0.02567,-0.155396 -0.03955,-0.23291 -0.03209,-0.179181 -0.0059,0.01184 -0.04102,-0.208008 -0.0059,-0.03692 -0.01044,-0.07414 -0.01465,-0.111328 0.01797,-0.04747 0.01762,-0.07528 -0.01025,-0.08789 -0.0047,-0.0391 -0.01011,-0.0785 -0.01758,-0.117188 -0.0013,-0.01027 -0.0019,-0.02048 -0.0029,-0.03076 -0.0017,-0.08343 -0.0025,-0.167082 -0.0029,-0.250488 -0.0033,-0.664485 -0.0038,-0.672924 -0.0044,-0.88623 -2e-6,-0.02579 2e-6,-0.01274 0,-0.03515 -3.5e-5,-0.548242 7.1e-5,-0.166031 0,-0.859864 -1.8e-5,-0.176391 1.4e-5,-0.352415 0,-0.528808 -2e-6,-0.02948 0.02924,-0.0856 0,-0.08935 -2e-5,-0.02245 3.9e-5,-0.04493 0,-0.06738 -8.8e-5,-0.0077 0.0077,-0.02237 0,-0.02198 -0.134845,0.0071 -0.269312,0.01294 -0.404297,0.01915 V -43.29637 H 6.4365354 V 13.218768 H -34.653797 c -0.02883,-0.01693 -0.04711,-0.02299 -0.03076,-0.0029 8.82e-4,0.0011 0.002,0.0019 0.0029,0.0029 h -0.08936 c -0.01327,-0.01573 -0.02494,-0.03017 -0.04102,-0.04687 -0.0133,-0.01982 -0.02573,-0.04071 -0.03955,-0.06006 -0.02001,-3.8e-4 -0.04005,-0.0011 -0.06006,-0.0015 -0.108073,-0.101261 -0.220396,-0.196023 -0.348633,-0.268066 -0.09641,-0.05416 -0.21715,-0.05108 -0.335449,-0.03369 -0.04662,-0.02319 -0.09437,-0.04415 -0.143555,-0.06152 -0.06499,-0.02296 -0.161971,-0.01071 -0.251953,0.0059 -0.0015,2.7e-5 -0.0029,-2.7e-5 -0.0044,0 -0.05202,9.32e-4 -0.103241,0.0016 -0.155274,0.0015 -0.03353,-1.62e-4 -0.06755,-5e-6 -0.101074,0 -0.03607,-1.6e-5 -0.07233,-2e-6 -0.108398,0 -0.07329,-0.0024 -0.133935,0.0058 -0.194825,0.01904 -0.01131,-0.02608 -0.135526,0.01822 -0.244628,0.06299 -0.01904,0.005 -0.03469,0.0096 -0.05566,0.01465 -0.06596,0.03318 -0.06269,0.0323 -0.07031,0.03662 -0.01076,0.0022 -0.0215,0.005 -0.03223,0.0073 -0.0017,1.61e-4 -0.0027,-1.6e-4 -0.0044,0 -0.03317,0.0032 -0.06405,0.0061 -0.08643,0.0073 -0.01241,6.83e-4 0.02573,-0.003 0.03808,-0.0044 -0.09496,-10e-4 -0.190675,-0.0018 -0.285645,-0.0015 -0.0466,3.4e-4 -0.09256,4.5e-5 -0.139161,0 -0.03518,1.1e-5 -0.07029,3e-6 -0.105468,0 -0.04753,-5e-6 -0.09602,0 -0.143555,0 h -0.137695 -0.01465 -0.07764 c -0.02341,0 -0.09352,-0.003 -0.07031,0 0.275808,0.03625 0.0532,-0.0282 0.335449,0.07764 0.234712,0.08797 0.352139,0.169246 0.386783,0.244627 z m 10.658204,-0.382324 c 0.09521,-0.02501 0.172022,-0.0472 0.244628,-0.06299 0.0023,0.0053 9.75e-4,0.01301 -0.0073,0.0249 -0.0311,0.04429 -0.06533,0.08671 -0.101075,0.127442 -0.0025,-0.0026 -0.0048,-0.0048 -0.0074,-0.0073 -0.01554,-0.01601 -0.04384,-0.02333 -0.07764,-0.02783 0.0059,-0.01408 0.01145,-0.02852 0.01758,-0.04248 0.02696,-0.0052 0.0538,-0.01004 0.08057,-0.01611 0.02579,-0.0058 -0.05137,0.0057 -0.07764,0.0088 -9.75e-4,0.0024 -0.002,0.0049 -0.0029,0.0073 -0.06115,0.01182 -0.12206,0.02438 -0.183105,0.03662 0.0302,-0.01327 0.06213,-0.02695 0.114258,-0.04834 z m -10.226075,-29.752442 c 0.0035,0.02931 0.0069,0.05855 0.01025,0.08789 -0.0064,0.01679 -0.01731,0.04078 -0.02783,0.06298 5.11e-4,-0.05181 -8.34e-4,-0.10344 -0.0015,-0.155274 0.0071,0.0014 0.01388,0.002 0.01904,0.0044 z m 12.001465,30.024903 c -0.02733,-3.88e-4 -0.0547,-0.0011 -0.08203,-0.0015 -0.0042,-0.0051 -0.0075,-0.01105 -0.01172,-0.01611 0.03126,0.0051 0.06273,0.01174 0.09375,0.01758 z m -0.237305,-0.0044 c -0.0444,-9.71e-4 -0.08891,-0.0014 -0.133301,-0.0029 -0.0086,-2.88e-4 0.01664,-0.0034 0.0249,-0.0059 0.02203,-0.0065 0.04444,-0.01091 0.06738,-0.01318 0.0069,0.0047 0.02185,0.01262 0.04102,0.02197 z m -1.567383,-0.01025 c 0.01601,-0.04369 0.03271,-0.08734 0.04981,-0.130371 0.01717,0.01011 0.03445,0.02009 0.05127,0.03076 -0.03284,0.03409 -0.06642,0.06694 -0.101075,0.09961 z m 1.709473,-0.02344 c -0.0095,-0.0043 -0.01839,-0.01011 -0.02783,-0.01465 -0.0035,-0.0039 -0.0068,-0.0079 -0.01025,-0.01172 -0.0128,-0.01423 -0.03874,-0.02359 -0.06885,-0.0293 -0.103149,-0.05575 -0.203269,-0.117002 -0.306152,-0.172851 0.08036,0.01892 0.158056,0.04937 0.205078,0.06299 0.0085,0.0043 0.017,0.0079 0.0249,0.01318 0.03664,0.02443 0.07455,0.048 0.108398,0.07617 0.02726,0.02269 0.106999,0.09085 0.07471,0.07617 z M -47.034657,-14.04051 c -0.01142,-0.04737 -0.02244,-0.09468 -0.03369,-0.142089 0,0 0.0015,0 0.0015,0 0.04516,0.01793 0.04361,0.189324 0.03223,0.142089 z m 0.01904,-0.01319 c 4.1e-4,-0.009 9.51e-4,-0.02487 0.0015,-0.03223 6.39e-4,-0.0091 -1.8e-5,0.01866 0,0.02783 -4.22e-4,0.0015 -10e-4,0.0029 -0.0015,0.0044 z"></path></clipPath></defs><g id="g8" transform="matrix(1.3333333,0,0,-1.3333333,-418.43626,182.01822)"><g id="g10"><g id="g12" clip-path="url(#clipPath16)"><g id="g18" transform="translate(361.2852,123.2949)"><path d="M 0,0 C 0.733,0.512 1.633,1.216 2.104,1.907 2.633,2.991 2.829,4.614 2.074,5.621 1.3,6.65 0.16,7.097 -1.13,7.326 -3.436,7.734 -5.476,6.724 -7.658,6.535 c -0.006,0 -0.012,-0.002 -0.018,-0.004 -3.799,2.133 -8.17,3.365 -12.837,3.365 -4.506,0 -8.744,-1.138 -12.451,-3.139 0.3,1.319 0.712,2.466 0.314,3.653 -0.336,0.994 -1.189,1.841 -2.21,2.035 -1.67,0.321 -3.751,-0.533 -4.023,-1.898 -0.53,-2.664 -0.812,-6.176 -1.062,-9.247 0,0 -0.002,-0.023 -0.005,-0.061 -4.214,-4.658 -6.804,-10.811 -6.804,-17.586 0,-14.497 11.75,-26.245 26.241,-26.245 14.496,0 26.245,11.748 26.245,26.245 C 5.732,-10.164 3.581,-4.487 0,0" style="fill:#ffffff;fill-opacity:1;fill-rule:nonzero;stroke:none" id="path20"></path></g><g id="g22" transform="translate(361.2852,123.2949)"><path d="M 0,0 C 0.733,0.512 1.633,1.216 2.104,1.907 2.633,2.991 2.829,4.614 2.074,5.621 1.3,6.65 0.16,7.097 -1.13,7.326 -3.436,7.734 -5.476,6.724 -7.658,6.535 c -0.006,0 -0.012,-0.002 -0.018,-0.004 -3.799,2.133 -8.17,3.365 -12.837,3.365 -4.506,0 -8.744,-1.138 -12.451,-3.139 0.3,1.319 0.712,2.466 0.314,3.653 -0.336,0.994 -1.189,1.841 -2.21,2.035 -1.67,0.321 -3.751,-0.533 -4.023,-1.898 -0.53,-2.664 -0.812,-6.176 -1.062,-9.247 0,0 -0.002,-0.023 -0.005,-0.061 -4.214,-4.658 -6.804,-10.811 -6.804,-17.586 0,-14.497 11.75,-26.245 26.241,-26.245 14.496,0 26.245,11.748 26.245,26.245 C 5.732,-10.164 3.581,-4.487 0,0 Z" style="fill:none;stroke:#ffffff;stroke-width:1.408;stroke-linecap:round;stroke-linejoin:round;stroke-miterlimit:10;stroke-dasharray:none;stroke-opacity:1" id="path24" clip-path="url(#clipPath286)"></path></g><g id="g26" transform="translate(340.7734,80.7031)"><path d="M 0,0 C 14.496,0 26.244,11.748 26.244,26.245 26.244,40.738 14.496,52.487 0,52.487 -14.493,52.487 -26.242,40.738 -26.242,26.245 -26.242,11.748 -14.493,0 0,0" style="fill:#ed1c24;fill-opacity:1;fill-rule:nonzero;stroke:none" id="path28"></path></g><g id="g30" transform="translate(340.7734,81.8789)"><path d="M 0,0 C 13.844,0 25.068,11.222 25.068,25.068 25.068,38.914 13.844,50.136 0,50.136 -13.844,50.136 -25.068,38.914 -25.068,25.068 -25.068,11.222 -13.844,0 0,0" style="fill:#33b540;fill-opacity:1;fill-rule:nonzero;stroke:none" id="path32"></path></g><g id="g34" transform="translate(363.3594,128.916)"><path d="M 0,0 C -0.774,1.03 -1.914,1.475 -3.204,1.705 -5.51,2.113 -7.55,1.103 -9.732,0.914 c -1.445,-0.251 -2.322,-0.565 -3.636,-0.565 -0.935,0.733 -4.14,2.57 -5.644,2.884 -1.505,0.314 -3.135,0.751 -7.336,0.25 -4.2,-0.501 -8.902,-3.258 -8.902,-3.258 l 0.174,0.734 c 0.298,1.395 0.767,2.588 0.351,3.83 -0.336,0.994 -1.188,1.841 -2.21,2.035 -1.669,0.321 -3.751,-0.533 -4.022,-1.898 -0.53,-2.664 -0.814,-6.176 -1.063,-9.247 0,0 -0.47,-5.581 -0.564,-6.802 -0.05,-0.639 -0.644,-6.38 -0.644,-6.38 0,0 -1.669,-0.92 -2.162,-1.864 -0.58,-1.113 -0.814,-2.227 -0.422,-4.78 0.184,-1.209 -0.342,-0.759 -0.22,-1.883 0.093,-0.862 -0.199,-0.403 -0.376,-1.631 -0.125,-0.86 -0.109,-0.901 0.015,-1.707 0,0 -0.267,-0.627 0.11,-1.067 0.377,-0.437 0.438,-0.31 0.752,-0.625 0.312,-0.314 0.231,-0.74 0.231,-0.74 0.137,-0.452 0.765,-0.5 0.991,-1.002 0.702,-1.547 1.436,-3.378 2.908,-4.12 1.978,-0.997 4.479,0.175 6.486,0.262 0.089,0.005 0.763,-1.28 1.502,-1.51 0.875,-0.272 1.907,1.118 2.895,1.522 0.378,0.154 0.329,-0.452 0.413,-0.701 0.246,-0.744 0.483,-1.457 0.659,-2.244 0.528,-2.377 1.432,-4.409 1.839,-6.776 l 0.012,-0.168 c 1.619,-0.328 3.295,-0.5 5.008,-0.5 6.674,0 12.736,2.607 17.229,6.857 -2.217,3.779 -3.646,8.006 -5.999,11.881 -0.664,1.092 -1.604,1.753 -2.637,2.381 3.096,1.089 6.501,2.066 8.344,5.224 1.421,2.43 1.373,5.192 0.555,7.689 2.1,1.26 1.124,4.096 -0.375,5.393 0.658,0.587 1.522,0.807 2.257,1.256 0,0 2.366,1.364 3.243,2.642 C 0.559,-2.63 0.755,-1.007 0,0" style="fill:#0b335e;fill-opacity:1;fill-rule:nonzero;stroke:none" id="path36"></path></g><g id="g38" transform="translate(349.4424,102.1523)"><path d="m 0,0 c -2.82,1.433 -6.041,0.895 -9.107,1.096 l -3.95,-0.126 c 1.411,-1.771 2.128,-3.828 2.2,-6.019 0.024,-0.8 -0.1,-1.568 -0.214,-2.42 l 0.02,0.07 c 0,0 2.633,0.375 3.689,0.754 2.036,0.729 3.843,1.669 5.691,2.787 0.133,0.08 0.311,0.498 0.588,0.186 -3.13,-2.501 -6.993,-4.336 -11.033,-4.637 -1.474,1.066 -2.163,2.601 -2.411,2.648 -0.164,0.027 -1.774,0.062 -2.747,-0.093 0,0 -0.469,0 -1.409,0.016 -0.941,0.015 -1.222,0.047 -1.287,-0.031 -0.061,-0.08 0.533,-0.989 0.753,-2.179 0.219,-1.192 0.282,-2.492 0.344,-2.585 0.064,-0.098 0.363,-0.018 0.551,0.059 0.186,0.078 1.856,1.026 1.856,1.026 0.117,-0.115 0.368,0.287 0.444,0.129 1.238,-2.649 1.913,-5.352 2.826,-8.127 0.092,-0.279 0.439,-1.855 0.751,-2.545 1.232,-0.185 2.493,-0.281 3.776,-0.281 6.192,0 11.862,2.246 16.236,5.965 -0.996,3.035 -3.312,7.087 -4.45,9.984 C 2.454,-2.636 1.668,-0.843 0,0" style="fill:#ffffff;fill-opacity:1;fill-rule:nonzero;stroke:none" id="path40"></path></g><g id="g42" transform="translate(342.541,119.2891)"><path d="m 0,0 c -0.575,-0.713 -2.05,-2.334 -2.963,-3.4 -2.158,-2.235 -4.446,-2.675 -6.966,-3.378 -0.868,-0.243 -0.992,-1.57 -1.556,-2.368 -0.667,1.338 -1.746,2.611 -3.263,2.687 -0.673,0.036 -1.339,-0.172 -1.859,-0.698 -0.355,-0.353 -0.143,-1.253 0.2,-1.047 0.69,0.413 1.261,0.754 2.022,0.401 1.326,-0.621 2.287,-2.13 1.731,-3.584 -0.181,-0.468 -0.758,-0.469 -1.206,-0.363 -1.541,0.373 -1.59,2.744 -0.533,3.379 0.082,0.05 0.079,0.273 -0.102,0.353 -0.576,0.245 -1.139,0.142 -1.475,-0.395 -0.48,-0.768 -0.525,-1.709 -0.374,-2.459 0.3,-1.489 2.071,-2.518 3.582,-2.082 0.705,0.203 1.244,0.992 1.153,1.804 0.45,-0.545 0.511,-1.28 0.204,-1.86 -0.251,-0.472 -0.848,-0.545 -1.288,-0.842 -0.692,-0.461 -1.185,-1.147 -1.173,-2.064 2.098,-0.033 3.668,0.13 5.518,0.029 0.339,-0.017 0.329,0.618 0.524,0.645 6.573,0.894 13.34,-1.812 19.358,2.161 2.02,1.336 3.3,3.501 3.542,5.932 0.177,1.808 -0.312,3.471 -1.162,4.995 C 11.988,1.292 9.727,4.324 7.574,7.529 6.321,7.031 5.327,6.057 4.373,5.091 3.06,3.766 1.272,1.921 0,0" style="fill:#f9b289;fill-opacity:1;fill-rule:nonzero;stroke:none" id="path44"></path></g><g id="g46" transform="translate(335.1982,82.4609)"><path d="M 0,0 C 0.069,-0.012 0.159,-0.03 0.245,-0.041" style="fill:#231f20;fill-opacity:1;fill-rule:nonzero;stroke:none" id="path48"></path></g><g id="g50" transform="translate(336.834,100.8701)"><path d="M 0,0 C -0.446,0.778 -1.013,1.954 -1.55,1.988 -3.809,2.125 -6.122,1.97 -8.405,1.965 c -0.222,0 -0.164,-0.315 -0.104,-0.454 0.787,-1.798 1.197,-3.334 1.25,-5.276 0.007,-0.246 0.397,-0.175 0.474,-0.171 2.595,0.134 5.056,-0.325 7.651,0.422 C 0.837,-2.309 0.628,-1.094 0,0" style="fill:#ed1c24;fill-opacity:1;fill-rule:nonzero;stroke:none" id="path52"></path></g><g id="g54" transform="translate(327.418,92.6133)"><path d="M 0,0 C 0.744,0.064 1.726,0.484 2.097,0.743 2.403,0.958 1.571,3.402 1.069,3.607 0.577,3.808 -2.769,3.526 -4.084,3.83 -4.763,3.989 -4.573,4.293 -4.993,4.171 -5.801,3.935 -6.573,3.721 -7.396,3.612 c 0.172,-1.633 1.368,-2.839 2.506,-3.726 1.01,-0.787 4.017,0.011 4.921,0.11 z" style="fill:#ed1c24;fill-opacity:1;fill-rule:nonzero;stroke:none" id="path56"></path></g><g id="g58" transform="translate(321.2666,116.6611)"><path d="m 0,0 c -0.181,-1.687 -0.305,-3.101 -0.398,-5.015 0.894,0.361 2.297,0.207 2.309,0.254 C 3.615,2.573 5.205,8.395 6.634,15.304 6.861,16.398 6.45,17.477 5.499,18.011 4.293,18.687 1.968,18.105 1.678,16.383 0.714,10.683 0.604,5.646 0,0" style="fill:#ffffff;fill-opacity:1;fill-rule:nonzero;stroke:none" id="path60"></path></g><g id="g62" transform="translate(327.0303,105.248)"><path d="M 0,0 C -0.353,0.793 -0.809,1.518 -1.24,2.263 -2.103,1.69 -2.65,0.102 -2.506,-0.311 c 0.122,-0.349 0.527,-1.023 1.031,-1.279 0.613,-0.308 1.204,-0.273 1.902,-0.285 0.073,0 0.316,0.046 0.308,0.122 C 0.669,-1.109 0.259,-0.587 0,0" style="fill:#33b540;fill-opacity:1;fill-rule:nonzero;stroke:none" id="path64"></path></g><g id="g66" transform="translate(319.7744,96.8691)"><path d="M 0,0 C 0.775,-0.11 2.188,0.007 1.935,0.969 1.582,2.311 -0.258,2.508 -0.833,1.217 -0.891,1.082 -1.05,0.908 -0.991,0.741 -0.827,0.273 -0.469,0.067 0,0" style="fill:#ffffff;fill-opacity:1;fill-rule:nonzero;stroke:none" id="path68"></path></g><g id="g70" transform="translate(329.3018,108.2607)"><path d="M 0,0 C 0.487,0.338 0.285,0.964 0.083,1.361 -0.139,1.789 -0.249,2.687 -0.857,2.446 -1.41,2.228 -1.477,1.285 -1.323,0.642 -1.2,0.137 -0.615,-0.422 0,0" style="fill:#f9b289;fill-opacity:1;fill-rule:nonzero;stroke:none" id="path72"></path></g><g id="g74" transform="translate(354.9473,125.9629)"><path d="m 0,0 c 0.166,0.449 0.356,0.942 0.35,1.421 0,0.088 -0.063,0.251 -0.156,0.175 -0.74,-0.62 -1.42,-1.652 -2.517,-1.366 0.382,0.431 0.423,0.972 0.452,1.552 -0.908,-0.518 -1.504,-0.736 -2.396,-0.926 0.582,-1.12 1.63,-2.742 2.555,-3.617 0.368,-0.346 1.515,0.648 2.023,1.36 -0.316,0 -1.193,-0.094 -1.166,0.016 0.086,0.35 0.65,0.834 0.855,1.385" style="fill:#33b540;fill-opacity:1;fill-rule:nonzero;stroke:none" id="path76"></path></g><g id="g78" transform="translate(335.8525,96.6348)"><path d="m 0,0 c 0,0 0.659,0 0.908,0.029 0.251,0.031 0.926,0.159 0.926,0.159 0,0 0.015,-0.755 -0.08,-1.288 -0.093,-0.531 -0.28,-1.002 -0.28,-1.002 0,0 -0.815,0.69 -1.066,1.065 C 0.157,-0.659 0,0 0,0" style="fill:#ffffff;fill-opacity:1;fill-rule:nonzero;stroke:none" id="path80"></path></g><g id="g82" transform="translate(341.5889,111.46)"><path d="M 0,0 C 1.421,0 2.571,1.15 2.571,2.57 2.571,3.99 1.421,5.143 0,5.143 -1.421,5.143 -2.571,3.99 -2.571,2.57 -2.571,1.15 -1.421,0 0,0" style="fill:#ffffff;fill-opacity:1;fill-rule:nonzero;stroke:none" id="path84"></path></g><g id="g86" transform="translate(341.5889,111.46)"><path d="M 0,0 C 1.421,0 2.571,1.15 2.571,2.57 2.571,3.99 1.421,5.143 0,5.143 -1.421,5.143 -2.571,3.99 -2.571,2.57 -2.571,1.15 -1.421,0 0,0 Z" style="fill:none;stroke:#0b335e;stroke-width:0.251;stroke-linecap:butt;stroke-linejoin:miter;stroke-miterlimit:4;stroke-dasharray:none;stroke-opacity:1" id="path88"></path></g><g id="g90" transform="translate(342.4355,112.3457)"><path d="M 0,0 C 0.931,0 1.686,0.754 1.686,1.685 1.686,2.615 0.931,3.371 0,3.371 -0.93,3.371 -1.683,2.615 -1.683,1.685 -1.683,0.754 -0.93,0 0,0" style="fill:#0b335e;fill-opacity:1;fill-rule:nonzero;stroke:none" id="path92"></path></g><g id="g94" transform="translate(351.0957,114.5342)"><path d="M 0,0 C 1.279,0 2.314,1.036 2.314,2.314 2.314,3.591 1.279,4.629 0,4.629 -1.277,4.629 -2.313,3.591 -2.313,2.314 -2.313,1.036 -1.277,0 0,0" style="fill:#ffffff;fill-opacity:1;fill-rule:nonzero;stroke:none" id="path96"></path></g><g id="g98" transform="translate(351.0957,114.5342)"><path d="M 0,0 C 1.279,0 2.314,1.036 2.314,2.314 2.314,3.591 1.279,4.629 0,4.629 -1.277,4.629 -2.313,3.591 -2.313,2.314 -2.313,1.036 -1.277,0 0,0 Z" style="fill:none;stroke:#0b335e;stroke-width:0.251;stroke-linecap:butt;stroke-linejoin:miter;stroke-miterlimit:4;stroke-dasharray:none;stroke-opacity:1" id="path100"></path></g><g id="g102" transform="translate(351.9248,115.2754)"><path d="M 0,0 C 0.794,0 1.437,0.646 1.437,1.441 1.437,2.236 0.794,2.882 0,2.882 -0.797,2.882 -1.441,2.236 -1.441,1.441 -1.441,0.646 -0.797,0 0,0" style="fill:#0b335e;fill-opacity:1;fill-rule:nonzero;stroke:none" id="path104"></path></g><g id="g106" transform="translate(344.6934,117.7607)"><path d="m 0,0 c 0,0 0.251,0.719 0.188,1.379 -0.063,0.659 -0.534,1.284 -0.534,1.284 0,0 0.283,-0.373 0.313,-1.002 0.033,-0.628 -0.061,-0.5 -0.061,-0.5 0,0 -0.94,1.223 -1.474,1.472 -0.532,0.252 -0.847,-1.189 -0.847,-1.189 0,0 0.595,-0.095 1.097,-0.472 C -0.816,0.596 -0.377,0.156 -0.284,0.063 -0.189,-0.032 0,0 0,0" style="fill:#0b335e;fill-opacity:1;fill-rule:nonzero;stroke:none" id="path108"></path></g><g id="g110" transform="translate(348.7988,121.5527)"><path d="m 0,0 c 0,0 0.126,-1.033 0,-1.754 -0.125,-0.722 -0.439,-1.348 -0.439,-1.348 0,0 0.031,-0.126 0.252,0 0.218,0.126 0.876,0.971 1.597,1.471 0.723,0.502 1.506,1.163 1.506,1.163 0,0 -0.062,0.281 -0.377,0.687 -0.313,0.409 -0.502,0.473 -0.502,0.473 0,0 -0.722,-0.66 -0.973,-1.003 C 0.815,-0.656 0.588,-1.006 0.503,-1.191 0.312,-1.597 0.346,-1.631 0.312,-1.313 0.294,-1.118 0.219,-0.375 0,0" style="fill:#0b335e;fill-opacity:1;fill-rule:nonzero;stroke:none" id="path112"></path></g><g id="g114" transform="translate(343.2441,113.5898)"><path d="M 0,0 C 0.154,0 0.278,0.124 0.278,0.279 0.278,0.432 0.154,0.558 0,0.558 -0.153,0.558 -0.277,0.432 -0.277,0.279 -0.277,0.124 -0.153,0 0,0" style="fill:#ffffff;fill-opacity:1;fill-rule:nonzero;stroke:none" id="path116"></path></g><g id="g118" transform="translate(348.2432,115.4248)"><path d="m 0,0 c 0,0 0.312,-0.877 1.254,-0.529 0.249,-0.065 0.048,-1.22 -0.189,-1.392 0,0 -0.294,-0.392 0.03,0.276 0.34,0.692 0.268,0.737 0.237,0.922" style="fill:none;stroke:#0b335e;stroke-width:0.188;stroke-linecap:round;stroke-linejoin:round;stroke-miterlimit:4;stroke-dasharray:none;stroke-opacity:1" id="path120"></path></g><g id="g122" transform="translate(348.9863,112.3682)"><path d="M 0,0 C 0,0 0.158,-0.439 0.031,-0.595 -0.011,-0.647 -0.16,-0.662 -0.355,-0.652" style="fill:none;stroke:#0b335e;stroke-width:0.188;stroke-linecap:round;stroke-linejoin:round;stroke-miterlimit:4;stroke-dasharray:none;stroke-opacity:1" id="path124"></path></g><g id="g126" transform="translate(348.6309,111.7168)"><path d="M 0,0 C -0.372,0.019 -0.911,0.119 -1.182,0.183 -1.587,0.275 -2.903,0.526 -2.903,0.526 L -4.816,-4.74 Z" style="fill:#ffffff;fill-opacity:1;fill-rule:nonzero;stroke:none" id="path128"></path></g><g id="g130" transform="translate(348.6309,111.7168)"><path d="M 0,0 C -0.372,0.019 -0.911,0.119 -1.182,0.183 -1.587,0.275 -2.903,0.526 -2.903,0.526 L -4.816,-4.74 Z" style="fill:none;stroke:#0b335e;stroke-width:0.188;stroke-linecap:round;stroke-linejoin:round;stroke-miterlimit:4;stroke-dasharray:none;stroke-opacity:1" id="path132"></path></g><g id="g134" transform="translate(345.1221,110.668)"><path d="m 0,0 c 0,0 0.41,-0.264 0.794,-0.368 0.345,-0.094 1.128,-0.186 1.128,-0.186 l -3.324,-3.27 z" style="fill:#ed1c24;fill-opacity:1;fill-rule:nonzero;stroke:none" id="path136"></path></g><g id="g138" transform="translate(345.1221,110.668)"><path d="m 0,0 c 0,0 0.41,-0.264 0.794,-0.368 0.345,-0.094 1.128,-0.186 1.128,-0.186 l -3.324,-3.27 z" style="fill:none;stroke:#ed1c24;stroke-width:0.125;stroke-linecap:butt;stroke-linejoin:round;stroke-miterlimit:4;stroke-dasharray:none;stroke-opacity:1" id="path140"></path></g><g id="g142" transform="translate(326.5479,123.2402)"><path d="m 0,0 c -0.956,-4.009 -1.761,-7.172 -2.638,-11.366 -0.052,-0.243 0.784,-0.43 0.985,-0.32 0.535,0.297 0.538,1.086 1.151,1.338 0.522,0.213 1.157,0.16 1.585,0.459 3.676,2.56 7.061,4.88 10.604,6.951 -2.82,-2.259 -6.239,-4.613 -9.31,-6.773 2.758,-1.444 8.063,0.087 10.2,2.342 4.22,4.46 6.053,8.832 11.901,12.462 0.079,0.053 -0.04,0.219 -0.102,0.2 C 23.862,5.138 23.215,4.607 22.887,4.819 20.378,6.444 18.061,7.944 15.16,8.299 12.589,8.614 10.146,8.221 7.665,7.517 5.641,6.94 3.876,6.138 2.004,5.105 1.562,4.862 1.312,5.053 1.037,4.068 0.667,2.742 0.326,1.372 0,0" style="fill:#ed1c24;fill-opacity:1;fill-rule:nonzero;stroke:none" id="path144"></path></g><g id="g146" transform="translate(325.0684,110.834)"><path d="M 0,0 C 0.377,-0.989 0.206,-1.708 0.078,-2.524 0.676,-1.741 1.255,0.107 0,0" style="fill:#f9b289;fill-opacity:1;fill-rule:nonzero;stroke:none" id="path148"></path></g><g id="g150" transform="translate(352.7187,116.2705)"><path d="M 0,0 C 0.14,0 0.252,0.113 0.252,0.251 0.252,0.391 0.14,0.503 0,0.503 -0.137,0.503 -0.25,0.391 -0.25,0.251 -0.25,0.113 -0.137,0 0,0" style="fill:#ffffff;fill-opacity:1;fill-rule:nonzero;stroke:none" id="path152"></path></g><g id="g154" transform="translate(318.1543,98.7588)"><path d="M 0,0 C 0.134,-0.073 0.349,-0.08 0.471,0.001 1.244,0.509 2.322,0.849 3,0.257 4.361,-0.935 4.637,-1.54 6.026,-1.678 c 1.523,-0.146 2.528,-0.04 3.74,0.009 0.468,0.02 1.302,-0.143 1.292,0.148 C 10.989,0.288 10.44,2.577 9.687,3.86 9.538,4.118 8.638,3.926 7.71,4.072 6.805,4.217 6.521,5.27 5.782,5.717 4.412,6.541 4.147,6.465 3.587,6.477 2.589,6.495 1.922,6.392 1.123,5.8 0.349,5.227 0.146,4.42 0.529,4.594 0.852,4.738 1.461,4.959 2.354,4.709 1.727,4.644 1.131,4.627 0.667,4.338 0.004,3.926 -0.263,3.58 -0.477,2.689 -0.54,2.426 -0.337,2.404 -0.315,2.424 0.505,3.095 1.398,3.673 2.572,3.343 1.398,3.437 0.363,2.829 -0.22,2.146 c 0,0 -0.248,-0.476 -0.171,-0.824 0.08,-0.345 0.096,-0.28 0.143,-0.298 0.049,-0.015 0.517,0.393 0.91,0.646 0.393,0.247 1.097,0.67 1.881,0.639 0.203,-0.06 -0.236,0 -0.989,-0.344 C 0.802,1.62 0.166,0.998 -0.059,0.806 -0.279,0.617 -0.357,0.523 -0.295,0.288 -0.232,0.054 -0.044,0.006 0.065,-0.01" style="fill:#f9b289;fill-opacity:1;fill-rule:nonzero;stroke:none" id="path156"></path></g><g id="g158" transform="translate(324.0332,106.0859)"><path d="M 0,0 C 0.033,0.373 0.049,0.404 -0.124,0.577 -0.297,0.75 -0.923,0.969 -1.426,1.078 -1.885,1.182 -2.475,1.208 -2.835,1.189 -3.101,1.177 -3.871,1.001 -3.871,1.001 c 0,0 0.425,0.298 1.036,0.282 0.534,-0.015 0.957,0.08 1.692,-0.109 0.677,-0.173 1.098,-0.455 1.303,-0.408 0.205,0.048 0.234,0.586 0.234,0.586 0.062,0.654 -0.345,0.838 -0.977,1.013 0,0 -0.56,0.161 -1.077,0.172 -0.799,0.018 -2.053,-0.347 -2.053,-0.347 0,0 0.8,0.537 2.131,0.487 1.458,-0.051 1.876,-0.499 1.876,-0.499 0.413,-0.188 0.371,0.394 0.317,0.914 -0.059,0.605 -1.19,0.701 -1.953,0.722 0,0 -0.474,0.026 -0.82,-0.021 -0.326,-0.048 -1.472,-0.33 -1.284,-0.314 0.516,0.422 1.334,0.468 2.116,0.5 C -0.121,4.029 0.581,3.598 0.581,3.598 0.86,3.526 0.973,3.767 0.856,4.178 0.688,4.771 0.136,5.002 -0.39,5.121 -0.948,5.251 -1.518,5.239 -2.139,5.11 -3.481,4.833 -4.642,4.18 -5.192,3.019 -5.762,1.823 -5.955,0.297 -5.499,-0.974 c 0,0 0.769,0.719 1.628,0.864 0.863,0.139 1.428,0.233 2.195,0.061 0.77,-0.173 0.926,-0.39 1.193,-0.469 C -0.258,-0.584 0,0 0,0" style="fill:#f9b289;fill-opacity:1;fill-rule:nonzero;stroke:none" id="path160"></path></g><g id="g162" transform="translate(329.3018,92.6035)"><path d="m 0,0 c -0.211,0.002 -0.243,-0.194 -0.377,-0.264 0.168,-0.168 0.31,-0.374 0.512,-0.482 0.106,-0.054 0.311,-0.133 0.35,0.062 0.061,0.295 0.048,0.608 -0.148,0.806 C 0.29,0.169 0.083,-0.001 0,0" style="fill:#ffffff;fill-opacity:1;fill-rule:nonzero;stroke:none" id="path164"></path></g><g id="g166" transform="translate(343.1689,128.9414)"><path d="m 0,0 c -1.065,0.389 -2.229,0.331 -3.29,-0.091 -0.282,-0.112 -0.885,-0.426 -1.324,-0.8 -0.236,-0.198 -0.439,-0.411 -0.623,-0.652 -0.426,-0.548 -0.803,-1.067 -0.807,-1.816 -0.004,-0.362 0.124,-0.815 0.457,-1.033 0.539,-0.352 0.797,-0.403 1.265,-0.454 0.431,-0.049 0.827,-0.049 1.247,0.029 0.265,0.046 0.758,0.129 1.473,0.495 0.334,0.169 0.626,0.384 0.912,0.639 0.701,0.626 1.166,1.419 1.408,2.305 0.468,0.247 0.929,0.495 1.397,0.748 C 2.179,-1.246 1.955,-1.879 1.731,-2.474 1.603,-2.821 1.428,-3.126 1.229,-3.432 0.822,-4.061 0.328,-4.603 -0.281,-5.05 -0.646,-5.317 -1.297,-5.656 -1.635,-5.793 -1.974,-5.923 -2.311,-6.02 -2.666,-6.09 c -0.925,-0.188 -1.831,-0.146 -2.74,0.111 -0.853,0.241 -1.586,0.707 -2.432,0.918 0.123,0.401 0.221,0.796 0.317,1.214 0.095,0.412 0.12,0.808 0.244,1.213 0.173,0.565 0.43,1.061 0.756,1.545 0.679,1.004 1.617,1.736 2.723,2.184 1.671,0.673 3.661,0.643 5.193,-0.346 z" style="fill:#ffffff;fill-opacity:1;fill-rule:nonzero;stroke:none" id="path168"></path></g><g id="g170" transform="translate(337.6611,122.6035)"><path d="m 0,0 c -0.921,0.263 -1.65,0.729 -2.42,0.916 l -0.381,0.094 0.113,0.376 c 0.12,0.388 0.214,0.775 0.313,1.19 0.087,0.372 0.11,0.778 0.248,1.235 0.187,0.608 0.464,1.14 0.806,1.647 0.718,1.066 1.721,1.844 2.891,2.319 0.784,0.316 1.632,0.485 2.48,0.485 1.065,0 2.133,-0.267 3.055,-0.86 L 7.637,7.06 5.684,6.01 5.535,5.931 5.379,5.991 C 4.938,6.148 4.478,6.228 4.014,6.228 3.457,6.228 2.892,6.116 2.354,5.901 2.118,5.811 1.522,5.497 1.135,5.165 0.918,4.981 0.735,4.79 0.563,4.566 0.139,4.016 -0.161,3.586 -0.165,2.967 -0.169,2.686 -0.042,2.352 0.124,2.259 0.643,1.931 0.765,1.92 1.226,1.86 1.404,1.842 1.574,1.832 1.739,1.832 c 0.209,0 0.412,0.016 0.63,0.055 0.261,0.047 0.69,0.117 1.368,0.461 0.299,0.149 0.562,0.344 0.833,0.584 0.644,0.576 1.07,1.303 1.297,2.125 L 5.909,5.212 6.051,5.287 C 6.517,5.538 6.979,5.786 7.446,6.036 L 7.937,6.3 7.992,5.744 C 8.003,5.662 8.006,5.576 8.006,5.491 8.004,4.854 7.786,4.264 7.59,3.733 7.446,3.35 7.258,3.02 7.05,2.699 6.62,2.041 6.095,1.464 5.449,0.986 5.035,0.687 4.39,0.351 4.009,0.2 3.647,0.059 3.287,-0.042 2.917,-0.118 2.507,-0.201 2.102,-0.242 1.697,-0.242 1.129,-0.242 0.562,-0.16 0,0" style="fill:#0b335e;fill-opacity:1;fill-rule:nonzero;stroke:none" id="path172"></path></g><g id="g174" transform="translate(343.1689,128.9414)"><path d="m 0,0 c -1.065,0.389 -2.229,0.331 -3.29,-0.091 -0.282,-0.112 -0.885,-0.426 -1.324,-0.8 -0.236,-0.198 -0.439,-0.411 -0.623,-0.652 -0.426,-0.548 -0.803,-1.067 -0.807,-1.816 -0.004,-0.362 0.124,-0.815 0.457,-1.033 0.539,-0.352 0.797,-0.403 1.265,-0.454 0.431,-0.049 0.827,-0.049 1.247,0.029 0.265,0.046 0.758,0.129 1.473,0.495 0.334,0.169 0.626,0.384 0.912,0.639 0.701,0.626 1.166,1.419 1.408,2.305 0.468,0.247 0.929,0.495 1.397,0.748 C 2.179,-1.246 1.955,-1.879 1.731,-2.474 1.603,-2.821 1.428,-3.126 1.229,-3.432 0.822,-4.061 0.328,-4.603 -0.281,-5.05 -0.646,-5.317 -1.297,-5.656 -1.635,-5.793 -1.974,-5.923 -2.311,-6.02 -2.666,-6.09 c -0.925,-0.188 -1.831,-0.146 -2.74,0.111 -0.853,0.241 -1.586,0.707 -2.432,0.918 0.123,0.401 0.221,0.796 0.317,1.214 0.095,0.412 0.12,0.808 0.244,1.213 0.173,0.565 0.43,1.061 0.756,1.545 0.679,1.004 1.617,1.736 2.723,2.184 1.671,0.673 3.661,0.643 5.193,-0.346 z" style="fill:#ffffff;fill-opacity:1;fill-rule:nonzero;stroke:none" id="path176"></path></g></g></g><g id="g178"><g id="g180" clip-path="url(#clipPath184)"><g id="g186" transform="translate(339.2588,94.6602)"><path d="m 0,0 c -0.001,0.002 0.178,0.804 0.178,2.047 0,0.853 -0.085,1.908 -0.369,3.045 -0.274,1.095 -0.688,1.982 -1.031,2.6 -0.345,0.614 -0.617,0.95 -0.617,0.95 v 0.001 l 0.204,0.164 C -1.629,8.798 -0.499,7.4 0.064,5.154 0.354,3.995 0.44,2.917 0.44,2.047 0.44,0.778 0.258,-0.05 0.257,-0.058 Z" style="fill:#ed1c24;fill-opacity:1;fill-rule:nonzero;stroke:none" id="path188"></path></g><g id="g190" transform="translate(338.9814,94.5742)"><path d="m 0,0 c -0.001,0.002 0.202,0.81 0.202,2.107 0,0.842 -0.086,1.886 -0.367,3.039 -0.252,1.037 -0.679,1.936 -1.043,2.574 -0.363,0.637 -0.659,1.008 -0.66,1.009 h 0.001 l 0.204,0.165 C -1.656,8.885 -0.433,7.347 0.09,5.207 0.377,4.029 0.464,2.966 0.464,2.107 0.464,0.781 0.256,-0.055 0.255,-0.062 Z" style="fill:#0b335e;fill-opacity:1;fill-rule:nonzero;stroke:none" id="path192"></path></g><g id="g194" transform="translate(331.3252,91.5889)"><path d="m 0,0 c 0.007,0.133 0.008,0.267 0.008,0.396 0,1.28 -0.251,2.417 -0.503,3.235 -0.25,0.816 -0.499,1.305 -0.499,1.305 v 0.001 l 0.234,0.119 c 0.003,-0.01 1.029,-2.03 1.03,-4.66 0,-0.132 -0.003,-0.267 -0.008,-0.404 z" style="fill:#ed1c24;fill-opacity:1;fill-rule:nonzero;stroke:none" id="path196"></path></g><g id="g198" transform="translate(331.0771,91.5889)"><path d="m 0,0 c 0.003,0.115 0.007,0.231 0.007,0.344 0,1.286 -0.259,2.44 -0.517,3.269 -0.26,0.832 -0.514,1.332 -0.514,1.336 l 0.233,0.115 C -0.788,5.056 0.268,2.988 0.268,0.344 0.268,0.229 0.266,0.11 0.263,-0.008 Z" style="fill:#0b335e;fill-opacity:1;fill-rule:nonzero;stroke:none" id="path200"></path></g></g></g><g id="g202"><g id="g204" clip-path="url(#clipPath208)"><g id="g210" transform="translate(352.0137,91.7334)"><path d="m 0,0 c -0.306,-0.198 -0.937,-0.379 -0.937,-0.379 0,0 0.352,0.12 0.631,0.379 C -0.021,0.266 0.119,0.477 0.25,0.377 0.366,0.288 0.233,0.148 0,0 m -1.115,0.721 c -0.005,0.2 -0.118,0.164 -0.118,0.164 0.136,0.417 0.327,0.607 0.402,0.582 0.093,-0.03 0.075,-0.177 -0.064,-0.446 -0.116,-0.221 -0.22,-0.3 -0.22,-0.3 M -6.132,-2.36 c -0.248,-0.115 -0.574,-0.267 -0.947,-0.449 0.168,0.146 0.348,0.334 0.541,0.567 0.545,0.657 0.945,1.652 0.945,1.652 0,0 -0.163,-0.46 0.05,-0.806 0.341,-0.551 1.06,-0.218 1.06,-0.218 0,0 -0.88,-0.389 -1.649,-0.746 m -2.979,-1.553 c 0.155,0.152 0.321,0.363 0.502,0.651 0,0 0.139,-0.126 0.414,-0.12 h 0.014 c -0.297,-0.162 -0.609,-0.337 -0.93,-0.531 m -2.832,-1.825 c 0.5,0.515 1.029,1.164 1.417,1.796 0,0 0.127,-0.278 0.45,-0.317 0.155,-0.017 0.302,-0.013 0.45,0.029 -0.022,-0.016 -0.044,-0.03 -0.066,-0.042 -0.684,-0.44 -1.434,-0.895 -2.251,-1.466 m 2.899,4.009 c 0.122,0.296 0.253,0.563 0.392,0.511 0.107,-0.044 0.035,-0.275 -0.111,-0.626 -0.141,-0.335 -0.266,-0.566 -0.363,-0.531 -0.119,0.044 -0.006,0.435 0.082,0.646 m 2.383,2.249 c 0,-0.116 0.024,-0.225 0.068,-0.322 0.072,-0.162 0.184,-0.216 0.184,-0.216 0,0 -0.054,-0.251 -0.311,-0.72 -0.237,-0.427 -0.371,-0.63 -0.452,-0.603 -0.085,0.031 0.261,1.103 0.511,1.861 m 7.926,0.507 c -0.176,0.212 -0.427,0.298 -0.63,0.29 0,0 0.156,0.326 0.06,0.689 C 0.621,2.279 0.468,2.57 0.173,2.666 -0.259,2.808 -0.537,2.688 -0.741,2.585 L -0.72,2.693 -2.424,2.246 -2.83,1.014 c 0,0 -0.163,-0.261 -0.402,-0.528 -0.229,-0.251 -0.406,-0.453 -0.456,-0.407 -0.048,0.048 0.263,0.567 0.598,0.81 l -0.864,0.989 c 0,0 -0.515,-0.371 -0.997,-0.614 0,0 0,0.14 -0.246,0.264 C -5.482,1.67 -5.881,1.674 -6.295,1.271 -6.517,1.053 -6.621,0.837 -6.649,0.637 l -1.574,-0.615 -0.04,-0.117 c 0,0 -0.311,0.062 -0.679,-0.077 -0.343,-0.129 -0.78,-0.386 -1.191,-0.992 -0.36,-0.528 -0.447,-0.938 -0.447,-0.938 0,0 -0.721,-0.969 -1.037,-1.333 -0.316,-0.365 -0.949,-1.154 -1.261,-1.079 -0.31,0.077 -0.421,0.951 -0.301,1.618 0.143,0.805 0.427,1.636 1.015,2.224 0.473,0.471 0.849,0.616 0.974,0.569 0.207,-0.075 0.02,-0.43 -0.15,-0.743 -0.202,-0.375 -0.543,-0.925 -0.84,-1.37 l 1.767,0.86 c 0,0 0.514,0.625 0.564,1.311 0.048,0.682 -0.703,1.271 -1.566,1.088 -0.883,-0.189 -2.291,-0.92 -3.417,-3.218 -0.987,-2.012 -0.551,-3.533 0.027,-4.13 0.457,-0.468 1.108,-0.523 1.677,-0.32 -0.281,-0.254 -0.565,-0.552 -0.876,-0.855 0,0 1.391,0.657 2.98,0.809 1.465,0.137 2.102,-0.287 2.102,-0.287 0,0 0.784,1.629 2.084,2.641 1.493,1.164 2.995,1.696 2.995,1.696 l -0.191,-1.086 1.885,0.942 0.209,1.005 c 0,0 0.902,0.318 1.338,0.483 0.602,0.228 1.217,0.475 1.426,0.617 0.228,0.151 0.5,0.421 0.613,0.785 0.098,0.321 0.029,0.656 -0.172,0.902" style="fill:#0b335e;fill-opacity:1;fill-rule:nonzero;stroke:none" id="path212"></path></g><g id="g214" transform="translate(352.4434,91.7529)"><path d="m 0,0 c -0.127,-0.136 -0.289,-0.233 -0.458,-0.298 -0.104,-0.039 -0.819,-0.28 -1.423,-0.478 -0.386,-0.127 -0.69,-0.229 -0.69,-0.229 0,0 0.087,0.353 0.13,0.492 0.044,0.138 0.135,0.387 0.135,0.387 0.102,-0.205 0.813,-0.35 1.481,0.363 0.1,0.11 0.246,0.294 0.386,0.385 C -0.027,0.878 0.367,0.396 0,0 M -1.786,0.577 C -1.78,0.615 -1.799,0.651 -1.824,0.675 -1.829,0.682 -1.833,0.684 -1.838,0.686 -1.855,0.7 -1.876,0.71 -1.899,0.712 c -0.009,0 -0.058,-0.002 -0.058,-0.014 0,0.015 0.005,0.032 0.009,0.047 0.006,0.029 0.019,0.059 0.026,0.087 0.047,0.152 0.118,0.297 0.201,0.434 0.159,0.252 0.273,0.355 0.387,0.426 0.129,0.08 0.266,0.086 0.313,-0.093 C -0.987,1.471 -0.997,1.268 -1.076,1.063 -1.154,0.865 -1.203,0.763 -1.363,0.549 -1.502,0.36 -1.643,0.276 -1.738,0.257 c -0.088,-0.017 -0.19,0.041 -0.217,0.13 -0.039,0.125 0.057,0.258 0.169,0.19 m -7.18,-2.456 c -0.07,-0.172 -0.402,-0.922 -0.717,-0.857 -0.232,0.049 -0.171,0.653 -0.017,1.019 0.077,0.182 0.357,0.881 0.733,0.8 0.18,-0.039 0.213,-0.45 0.001,-0.962 m 8.684,2.798 c 0,0 0.075,0.178 0.119,0.278 0.039,0.092 0.091,0.227 0.105,0.335 0.007,0.059 0.047,0.322 -0.08,0.54 C -0.246,2.261 -0.453,2.438 -0.753,2.425 -0.932,2.416 -1.161,2.348 -1.368,2.203 -1.48,2.121 -1.611,1.995 -1.66,1.946 -1.676,1.933 -1.68,1.929 -1.68,1.929 L -1.592,2.218 -2.609,1.91 c 0,0 -0.344,-0.989 -0.392,-1.107 -0.013,-0.029 -0.484,-0.63 -0.923,-0.997 -0.348,-0.292 -0.722,-0.319 -0.568,0.123 0.188,0.554 0.541,0.922 0.541,0.922 l -0.514,0.511 c 0,0 -0.328,-0.241 -0.704,-0.422 C -5.539,0.763 -5.643,0.734 -5.689,0.724 -5.724,0.714 -5.738,0.75 -5.721,0.809 -5.7,0.869 -5.652,1.085 -5.756,1.181 -5.89,1.309 -6.072,1.333 -6.345,1.161 -6.615,0.99 -6.797,0.734 -6.829,0.541 -6.858,0.35 -6.79,0.21 -6.674,0.132 c 0.131,-0.089 0.201,-0.069 0.201,-0.069 0,0 0.011,-0.01 0.006,-0.024 -0.055,-0.156 -0.311,-0.702 -0.477,-0.97 -0.092,-0.147 -0.484,-0.712 -0.641,-0.819 -0.235,-0.15 -0.38,-0.087 -0.326,0.241 0.034,0.231 0.104,0.487 0.209,0.842 0.124,0.429 0.254,0.813 0.254,0.813 L -8.48,-0.286 -8.558,-0.549 c 0,0 -0.013,0.004 -0.116,0.076 -0.128,0.094 -0.404,0.111 -0.794,-0.084 -0.334,-0.17 -0.505,-0.335 -0.704,-0.584 -0.1,-0.129 -0.257,-0.354 -0.408,-0.645 -0.128,-0.247 -0.187,-0.505 -0.187,-0.505 0,0 -0.591,-0.881 -1.124,-1.501 -0.564,-0.655 -0.793,-0.897 -1.126,-1.036 -0.421,-0.175 -0.687,0.016 -0.823,0.443 -0.226,0.723 -0.034,1.987 0.361,2.821 0.666,1.398 1.751,1.934 2.11,1.669 0.403,-0.301 -0.323,-1.366 -0.647,-1.807 l 0.929,0.507 c 0,0 0.367,0.443 0.458,0.827 0.112,0.479 -0.135,1.005 -0.709,1.062 -0.948,0.098 -2.488,-0.663 -3.527,-2.899 -0.962,-2.069 -0.533,-3.538 0.174,-4.004 0.513,-0.34 1.384,-0.448 3.021,1.79 0.453,0.621 0.798,1.171 0.798,1.171 0,0 0.013,-0.106 0.049,-0.255 0.029,-0.12 0.226,-0.518 0.634,-0.413 0.168,0.044 0.457,0.261 0.665,0.506 0.295,0.344 0.507,0.735 0.507,0.735 0,0 0.039,0.018 0.033,-0.029 -0.02,-0.116 0.067,-0.275 0.155,-0.317 0.103,-0.053 0.251,-0.073 0.523,0.042 0.914,0.39 1.483,1.462 1.749,1.917 0.301,0.512 0.585,1.173 0.585,1.173 0,0 0.019,0.009 0.211,0.081 0.195,0.073 0.552,0.241 0.552,0.241 0,0 -0.51,-0.677 -0.613,-1.093 -0.188,-0.736 0.305,-1.006 0.881,-0.781 0.671,0.261 1.631,1.223 1.631,1.223 0,0 -0.332,-1.168 -0.368,-1.179 -0.317,-0.113 -3.343,-1.425 -4.313,-1.965 -0.57,-0.315 -1.472,-0.777 -2.556,-1.499 -1.296,-0.87 -2.526,-1.856 -2.526,-1.856 0,0 0.468,0.216 1.405,0.384 0.347,0.064 0.981,0.1 1.414,0.07 0.412,-0.03 0.698,-0.123 0.698,-0.123 0,0 0.758,1.241 2.032,2.242 1.242,0.98 2.988,1.79 3.701,2.122 l -0.193,-1.019 1.152,0.577 0.179,0.91 c 0,0 2.026,0.751 2.529,0.96 1.352,0.559 0.903,1.99 -0.126,1.513" style="fill:#ed1c24;fill-opacity:1;fill-rule:nonzero;stroke:none" id="path216"></path></g><g id="g218" transform="translate(340.4033,102.2813)"><path d="m 0,0 c 0.005,0.001 0.01,0 0.014,0.001 0.004,0 0.004,0.001 0.007,0.001 0.008,0.002 0.016,0.005 0.025,0.006 0.17,0.024 0.317,-0.15 0.323,-0.156 0.02,-0.024 0.05,-0.039 0.078,-0.037 0,0 0.003,0.002 0.005,0.002 0.009,0 0.02,0.003 0.027,0.01 -0.002,-0.018 0,-0.04 0.01,-0.058 C 0.354,-0.159 0.189,-0.077 0,0 m 0.991,-6.53 c 0.016,0.025 0.007,0.037 -0.018,0.083 -0.017,0.026 -0.036,0.068 -0.042,0.089 0.054,-0.021 0.24,-0.089 0.242,-0.089 0.008,-0.005 0.03,-0.012 0.046,0 0.017,0.012 0.023,0.032 0.022,0.061 0.01,-0.005 0.024,-0.009 0.035,-0.005 0.01,0 0.025,0.003 0.034,0.01 0.083,0.048 0.238,0.181 0.216,0.362 -0.012,0.107 -0.065,0.19 -0.172,0.256 0.047,0.015 0.077,0.046 0.093,0.076 0.04,0.057 0.038,0.121 -0.004,0.186 -0.012,0.022 -0.029,0.043 -0.05,0.065 0.004,0.005 0.009,0.005 0.014,0.01 0.029,0.025 0.049,0.058 0.053,0.094 0.009,0.07 -0.033,0.123 -0.094,0.18 0.024,0.02 0.039,0.048 0.044,0.078 0.016,0.091 -0.045,0.139 -0.086,0.173 -0.014,0.01 -0.028,0.021 -0.038,0.031 -0.017,0.02 -0.029,0.044 -0.041,0.06 0.012,0.009 0.021,0.019 0.028,0.033 0.01,-0.011 0.025,-0.018 0.039,-0.019 C 1.366,-4.8 1.43,-4.821 1.456,-4.843 1.487,-4.87 1.524,-4.894 1.57,-4.887 c 0.022,0.003 0.052,0.016 0.082,0.052 0.07,0.088 0.008,0.182 -0.013,0.214 -0.03,0.045 -0.04,0.1 -0.04,0.1 C 1.6,-4.514 1.596,-4.479 1.588,-4.472 1.58,-4.457 1.543,-4.463 1.515,-4.468 1.482,-4.476 1.452,-4.47 1.431,-4.453 1.379,-4.412 1.304,-4.408 1.252,-4.443 1.251,-4.426 1.24,-4.412 1.227,-4.4 1.206,-4.384 1.176,-4.382 1.151,-4.395 l 0.003,10e-4 c 0,0 -0.047,-0.018 -0.156,0.008 0.021,0.002 0.039,0.01 0.06,0.021 0.043,0.023 0.076,0.07 0.086,0.125 0.002,0.012 0.002,0.026 0.002,0.041 0.122,-0.085 0.25,-0.155 0.362,-0.195 0.061,-0.023 0.242,-0.078 0.396,-0.061 0.042,0.005 0.082,0.018 0.118,0.035 0.046,0.025 0.079,0.063 0.094,0.109 0.066,0.182 -0.181,0.427 -0.565,0.547 -0.204,0.069 -0.456,0.119 -0.697,0.16 0.161,0.047 0.266,0.124 0.327,0.175 0.066,0.057 0.112,0.105 0.107,0.127 -0.005,0.023 -0.027,0.024 -0.075,0.045 -0.046,0.022 -0.098,0.063 -0.142,0.104 -0.119,0.108 -0.119,0.16 -0.143,0.166 C 0.904,-2.986 0.862,-3.043 0.856,-3.051 0.846,-3.064 0.831,-3.079 0.819,-3.094 0.726,-3.06 0.676,-3.022 0.647,-2.995 c 0.218,0.033 0.28,0.16 0.287,0.272 0.005,0.099 -0.042,0.212 -0.132,0.303 -0.047,0.048 -0.12,0.107 -0.23,0.15 0.042,0.049 0.06,0.12 0.068,0.177 0.003,0.033 0.007,0.042 0.009,0.042 0.002,0.003 0.011,0.008 0.021,0.014 0.016,0.01 0.036,0.02 0.059,0.037 0.084,0.062 0.08,0.172 0.079,0.186 -0.002,0.037 -0.035,0.068 -0.074,0.074 -0.058,0.008 -0.1,0.03 -0.159,0.064 -0.025,0.012 -0.053,0.029 -0.086,0.043 -0.005,0.004 -0.01,0.008 -0.017,0.01 0.007,0.006 0.009,0.018 0.012,0.026 0.015,-0.012 0.036,-0.022 0.055,-0.024 0.068,-0.004 0.154,-0.028 0.196,-0.054 0.041,-0.028 0.09,-0.054 0.141,-0.045 0.022,0.004 0.052,0.016 0.074,0.053 0.057,0.096 -0.039,0.193 -0.074,0.231 -0.053,0.055 -0.082,0.119 -0.082,0.119 -0.005,0.009 -0.009,0.031 -0.018,0.039 -0.021,0.017 -0.053,0.016 -0.08,0.01 C 0.655,-1.277 0.613,-1.271 0.575,-1.248 0.508,-1.205 0.417,-1.205 0.372,-1.243 0.357,-1.256 0.348,-1.27 0.347,-1.287 c -0.02,0.035 -0.021,0.061 -0.021,0.061 0,0 -0.016,0.06 -0.028,0.067 -0.017,0.007 -0.033,0.001 -0.118,-0.002 -0.032,-10e-4 -0.1,-10e-4 -0.234,0.036 -0.045,0.014 -0.09,0.025 -0.132,0.036 -0.055,0.031 -0.097,0.06 -0.124,0.08 0.044,0.006 0.136,0.004 0.313,-0.035 0.284,-0.06 0.825,-0.197 1.164,-0.424 0.101,-0.066 0.176,-0.127 0.229,-0.178 -0.02,10e-4 -0.039,0 -0.055,-0.001 C 1.307,-1.649 1.245,-1.676 1.227,-1.696 1.21,-1.714 1.178,-1.746 1.184,-1.769 c 0.003,-0.022 0.045,-0.026 0.155,-0.1 0.065,-0.044 0.107,-0.084 0.139,-0.134 0.066,-0.108 0.089,-0.187 0.089,-0.187 0.01,-0.03 0.035,-0.056 0.068,-0.06 0.055,-0.008 0.167,0.012 0.226,0.125 0.074,0.144 0.035,0.317 -0.132,0.545 -0.164,0.226 -0.562,0.644 -1.315,0.92 -0.116,0.044 -0.234,0.081 -0.351,0.113 -0.035,0.046 -0.073,0.088 -0.109,0.129 0.14,-0.043 0.3,-0.092 0.452,-0.146 0.465,-0.168 0.724,-0.367 0.726,-0.37 0.019,-0.013 0.043,-0.022 0.065,-0.02 0.005,0 0.011,0.004 0.016,0.004 0.083,0.031 0.126,0.051 0.21,0.079 C 1.398,-0.837 1.332,-0.779 1.278,-0.725 1.149,-0.594 0.996,-0.451 0.959,-0.192 0.937,-0.041 0.864,0.103 0.755,0.214 0.64,0.331 0.49,0.405 0.342,0.417 0.008,0.445 -0.084,0.118 -0.086,0.103 -0.093,0.078 -0.084,0.049 -0.061,0.027 L -0.058,0.026 C -0.137,0.058 -0.22,0.089 -0.309,0.12 -0.462,0.171 -0.604,0.217 -0.729,0.251 -0.872,0.365 -0.991,0.437 -1.091,0.468 -1.189,0.498 -1.278,0.512 -1.352,0.501 -1.401,0.495 -1.446,0.479 -1.48,0.449 -1.546,0.395 -1.566,0.307 -1.541,0.196 c 0.03,-0.122 0.117,-0.219 0.262,-0.289 0.1,-0.052 0.227,-0.088 0.401,-0.12 0,0 0.007,0 0.014,-0.003 0.103,-0.06 0.202,-0.131 0.302,-0.202 -0.1,0.006 -0.204,0.01 -0.295,0 -0.138,-0.019 -0.245,-0.068 -0.259,-0.179 -0.016,-0.104 0.072,-0.225 0.265,-0.369 0.049,-0.036 0.099,-0.071 0.152,-0.104 -0.003,-0.002 -0.007,-0.004 -0.009,-0.006 -0.042,-0.024 -0.066,-0.073 -0.066,-0.133 -0.003,-0.12 0.112,-0.249 0.353,-0.391 0.069,-0.041 0.148,-0.082 0.233,-0.123 -0.053,0.009 -0.102,0.013 -0.145,0.008 -0.022,-0.004 -0.045,-0.009 -0.064,-0.019 -0.042,-0.02 -0.073,-0.055 -0.083,-0.101 -0.036,-0.147 0.13,-0.313 0.357,-0.481 C -0.185,-2.374 -0.22,-2.45 -0.222,-2.533 -0.227,-2.713 -0.071,-2.874 0.173,-2.951 0.141,-2.959 0.111,-2.974 0.083,-2.995 0.012,-3.048 -0.024,-3.127 -0.02,-3.213 -0.013,-3.312 0.043,-3.41 0.136,-3.486 0.12,-3.491 0.092,-3.494 0.082,-3.505 0.063,-3.525 0.072,-3.559 0.078,-3.585 0.114,-3.716 0.134,-3.784 0.165,-3.917 0.173,-3.952 0.183,-3.975 0.218,-3.973 0.241,-3.97 0.29,-3.966 0.318,-3.962 0.312,-3.967 0.306,-3.972 0.298,-3.975 0.26,-4.001 0.233,-4.036 0.225,-4.079 0.202,-4.174 0.252,-4.251 0.359,-4.334 0.329,-4.354 0.307,-4.385 0.292,-4.42 0.265,-4.491 0.304,-4.576 0.367,-4.65 0.363,-4.653 0.362,-4.655 0.359,-4.659 0.336,-4.677 0.338,-4.705 0.343,-4.731 0.387,-4.969 0.404,-5.087 0.439,-5.324 0.443,-5.356 0.46,-5.381 0.496,-5.376 H 0.497 C 0.477,-5.401 0.46,-5.431 0.45,-5.461 0.426,-5.566 0.51,-5.663 0.613,-5.736 0.563,-5.776 0.53,-5.826 0.517,-5.885 0.499,-5.955 0.522,-6.022 0.584,-6.091 0.564,-6.112 0.55,-6.141 0.543,-6.169 0.53,-6.228 0.563,-6.293 0.614,-6.404 c 0.012,-0.024 0.041,-0.087 0.064,-0.133 0.1,-0.006 0.15,-0.01 0.253,-0.013 0.026,-0.002 0.052,0.002 0.06,0.02" style="fill:#0b335e;fill-opacity:1;fill-rule:nonzero;stroke:none" id="path220"></path></g><g id="g222" transform="translate(340.4033,102.2813)"><path d="m 0,0 c 0.005,0.001 0.01,0 0.014,0.001 0.004,0 0.004,0.001 0.007,0.001 0.008,0.002 0.016,0.005 0.025,0.006 0.17,0.024 0.317,-0.15 0.323,-0.156 0.02,-0.024 0.05,-0.039 0.078,-0.037 0,0 0.003,0.002 0.005,0.002 0.009,0 0.02,0.003 0.027,0.01 -0.002,-0.018 0,-0.04 0.01,-0.058 C 0.354,-0.159 0.189,-0.077 0,0 Z m 0.991,-6.53 c 0.016,0.025 0.007,0.037 -0.018,0.083 -0.017,0.026 -0.036,0.068 -0.042,0.089 0.054,-0.021 0.24,-0.089 0.242,-0.089 0.008,-0.005 0.03,-0.012 0.046,0 0.017,0.012 0.023,0.032 0.022,0.061 0.01,-0.005 0.024,-0.009 0.035,-0.005 0.01,0 0.025,0.003 0.034,0.01 0.083,0.048 0.238,0.181 0.216,0.362 -0.012,0.107 -0.065,0.19 -0.172,0.256 0.047,0.015 0.077,0.046 0.093,0.076 0.04,0.057 0.038,0.121 -0.004,0.186 -0.012,0.022 -0.029,0.043 -0.05,0.065 0.004,0.005 0.009,0.005 0.014,0.01 0.029,0.025 0.049,0.058 0.053,0.094 0.009,0.07 -0.033,0.123 -0.094,0.18 0.024,0.02 0.039,0.048 0.044,0.078 0.016,0.091 -0.045,0.139 -0.086,0.173 -0.014,0.01 -0.028,0.021 -0.038,0.031 -0.017,0.02 -0.029,0.044 -0.041,0.06 0.012,0.009 0.021,0.019 0.028,0.033 0.01,-0.011 0.025,-0.018 0.039,-0.019 C 1.366,-4.8 1.43,-4.821 1.456,-4.843 1.487,-4.87 1.524,-4.894 1.57,-4.887 c 0.022,0.003 0.052,0.016 0.082,0.052 0.07,0.088 0.008,0.182 -0.013,0.214 -0.03,0.045 -0.04,0.1 -0.04,0.1 C 1.6,-4.514 1.596,-4.479 1.588,-4.472 1.58,-4.457 1.543,-4.463 1.515,-4.468 1.482,-4.476 1.452,-4.47 1.431,-4.453 1.379,-4.412 1.304,-4.408 1.252,-4.443 1.251,-4.426 1.24,-4.412 1.227,-4.4 1.206,-4.384 1.176,-4.382 1.151,-4.395 l 0.003,10e-4 c 0,0 -0.047,-0.018 -0.156,0.008 0.021,0.002 0.039,0.01 0.06,0.021 0.043,0.023 0.076,0.07 0.086,0.125 0.002,0.012 0.002,0.026 0.002,0.041 0.122,-0.085 0.25,-0.155 0.362,-0.195 0.061,-0.023 0.242,-0.078 0.396,-0.061 0.042,0.005 0.082,0.018 0.118,0.035 0.046,0.025 0.079,0.063 0.094,0.109 0.066,0.182 -0.181,0.427 -0.565,0.547 -0.204,0.069 -0.456,0.119 -0.697,0.16 0.161,0.047 0.266,0.124 0.327,0.175 0.066,0.057 0.112,0.105 0.107,0.127 -0.005,0.023 -0.027,0.024 -0.075,0.045 -0.046,0.022 -0.098,0.063 -0.142,0.104 -0.119,0.108 -0.119,0.16 -0.143,0.166 C 0.904,-2.986 0.862,-3.043 0.856,-3.051 0.846,-3.064 0.831,-3.079 0.819,-3.094 0.726,-3.06 0.676,-3.022 0.647,-2.995 c 0.218,0.033 0.28,0.16 0.287,0.272 0.005,0.099 -0.042,0.212 -0.132,0.303 -0.047,0.048 -0.12,0.107 -0.23,0.15 0.042,0.049 0.06,0.12 0.068,0.177 0.003,0.033 0.007,0.042 0.009,0.042 0.002,0.003 0.011,0.008 0.021,0.014 0.016,0.01 0.036,0.02 0.059,0.037 0.084,0.062 0.08,0.172 0.079,0.186 -0.002,0.037 -0.035,0.068 -0.074,0.074 -0.058,0.008 -0.1,0.03 -0.159,0.064 -0.025,0.012 -0.053,0.029 -0.086,0.043 -0.005,0.004 -0.01,0.008 -0.017,0.01 0.007,0.006 0.009,0.018 0.012,0.026 0.015,-0.012 0.036,-0.022 0.055,-0.024 0.068,-0.004 0.154,-0.028 0.196,-0.054 0.041,-0.028 0.09,-0.054 0.141,-0.045 0.022,0.004 0.052,0.016 0.074,0.053 0.057,0.096 -0.039,0.193 -0.074,0.231 -0.053,0.055 -0.082,0.119 -0.082,0.119 -0.005,0.009 -0.009,0.031 -0.018,0.039 -0.021,0.017 -0.053,0.016 -0.08,0.01 C 0.655,-1.277 0.613,-1.271 0.575,-1.248 0.508,-1.205 0.417,-1.205 0.372,-1.243 0.357,-1.256 0.348,-1.27 0.347,-1.287 c -0.02,0.035 -0.021,0.061 -0.021,0.061 0,0 -0.016,0.06 -0.028,0.067 -0.017,0.007 -0.033,0.001 -0.118,-0.002 -0.032,-10e-4 -0.1,-10e-4 -0.234,0.036 -0.045,0.014 -0.09,0.025 -0.132,0.036 -0.055,0.031 -0.097,0.06 -0.124,0.08 0.044,0.006 0.136,0.004 0.313,-0.035 0.284,-0.06 0.825,-0.197 1.164,-0.424 0.101,-0.066 0.176,-0.127 0.229,-0.178 -0.02,10e-4 -0.039,0 -0.055,-0.001 C 1.307,-1.649 1.245,-1.676 1.227,-1.696 1.21,-1.714 1.178,-1.746 1.184,-1.769 c 0.003,-0.022 0.045,-0.026 0.155,-0.1 0.065,-0.044 0.107,-0.084 0.139,-0.134 0.066,-0.108 0.089,-0.187 0.089,-0.187 0.01,-0.03 0.035,-0.056 0.068,-0.06 0.055,-0.008 0.167,0.012 0.226,0.125 0.074,0.144 0.035,0.317 -0.132,0.545 -0.164,0.226 -0.562,0.644 -1.315,0.92 -0.116,0.044 -0.234,0.081 -0.351,0.113 -0.035,0.046 -0.073,0.088 -0.109,0.129 0.14,-0.043 0.3,-0.092 0.452,-0.146 0.465,-0.168 0.724,-0.367 0.726,-0.37 0.019,-0.013 0.043,-0.022 0.065,-0.02 0.005,0 0.011,0.004 0.016,0.004 0.083,0.031 0.126,0.051 0.21,0.079 C 1.398,-0.837 1.332,-0.779 1.278,-0.725 1.149,-0.594 0.996,-0.451 0.959,-0.192 0.937,-0.041 0.864,0.103 0.755,0.214 0.64,0.331 0.49,0.405 0.342,0.417 0.008,0.445 -0.084,0.118 -0.086,0.103 -0.093,0.078 -0.084,0.049 -0.061,0.027 L -0.058,0.026 C -0.137,0.058 -0.22,0.089 -0.309,0.12 -0.462,0.171 -0.604,0.217 -0.729,0.251 -0.872,0.365 -0.991,0.437 -1.091,0.468 -1.189,0.498 -1.278,0.512 -1.352,0.501 -1.401,0.495 -1.446,0.479 -1.48,0.449 -1.546,0.395 -1.566,0.307 -1.541,0.196 c 0.03,-0.122 0.117,-0.219 0.262,-0.289 0.1,-0.052 0.227,-0.088 0.401,-0.12 0,0 0.007,0 0.014,-0.003 0.103,-0.06 0.202,-0.131 0.302,-0.202 -0.1,0.006 -0.204,0.01 -0.295,0 -0.138,-0.019 -0.245,-0.068 -0.259,-0.179 -0.016,-0.104 0.072,-0.225 0.265,-0.369 0.049,-0.036 0.099,-0.071 0.152,-0.104 -0.003,-0.002 -0.007,-0.004 -0.009,-0.006 -0.042,-0.024 -0.066,-0.073 -0.066,-0.133 -0.003,-0.12 0.112,-0.249 0.353,-0.391 0.069,-0.041 0.148,-0.082 0.233,-0.123 -0.053,0.009 -0.102,0.013 -0.145,0.008 -0.022,-0.004 -0.045,-0.009 -0.064,-0.019 -0.042,-0.02 -0.073,-0.055 -0.083,-0.101 -0.036,-0.147 0.13,-0.313 0.357,-0.481 C -0.185,-2.374 -0.22,-2.45 -0.222,-2.533 -0.227,-2.713 -0.071,-2.874 0.173,-2.951 0.141,-2.959 0.111,-2.974 0.083,-2.995 0.012,-3.048 -0.024,-3.127 -0.02,-3.213 -0.013,-3.312 0.043,-3.41 0.136,-3.486 0.12,-3.491 0.092,-3.494 0.082,-3.505 0.063,-3.525 0.072,-3.559 0.078,-3.585 0.114,-3.716 0.134,-3.784 0.165,-3.917 0.173,-3.952 0.183,-3.975 0.218,-3.973 0.241,-3.97 0.29,-3.966 0.318,-3.962 0.312,-3.967 0.306,-3.972 0.298,-3.975 0.26,-4.001 0.233,-4.036 0.225,-4.079 0.202,-4.174 0.252,-4.251 0.359,-4.334 0.329,-4.354 0.307,-4.385 0.292,-4.42 0.265,-4.491 0.304,-4.576 0.367,-4.65 0.363,-4.653 0.362,-4.655 0.359,-4.659 0.336,-4.677 0.338,-4.705 0.343,-4.731 0.387,-4.969 0.404,-5.087 0.439,-5.324 0.443,-5.356 0.46,-5.381 0.496,-5.376 H 0.497 C 0.477,-5.401 0.46,-5.431 0.45,-5.461 0.426,-5.566 0.51,-5.663 0.613,-5.736 0.563,-5.776 0.53,-5.826 0.517,-5.885 0.499,-5.955 0.522,-6.022 0.584,-6.091 0.564,-6.112 0.55,-6.141 0.543,-6.169 0.53,-6.228 0.563,-6.293 0.614,-6.404 c 0.012,-0.024 0.041,-0.087 0.064,-0.133 0.1,-0.006 0.15,-0.01 0.253,-0.013 0.026,-0.002 0.052,0.002 0.06,0.02 z" style="fill:none;stroke:#0b335e;stroke-width:0.131;stroke-linecap:round;stroke-linejoin:round;stroke-miterlimit:4;stroke-dasharray:none;stroke-opacity:1" id="path224"></path></g><g id="g226" transform="translate(340.8271,100.9609)"><path d="M 0,0 C 0.046,-0.091 0.066,-0.136 0.111,-0.227 0.192,-0.232 0.29,-0.26 0.349,-0.296 0.406,-0.333 0.439,-0.34 0.46,-0.304 0.48,-0.271 0.461,-0.227 0.398,-0.162 0.334,-0.096 0.301,-0.018 0.301,-0.018 0.24,-0.033 0.173,-0.023 0.114,0.014 0.058,0.047 -0.016,0.03 0,0" style="fill:#e51636;fill-opacity:1;fill-rule:nonzero;stroke:none" id="path228"></path></g><g id="g230" transform="translate(341.6865,97.7598)"><path d="m 0,0 c 0.019,-0.08 0.026,-0.118 0.044,-0.197 0.065,-0.007 0.142,-0.032 0.18,-0.065 0.039,-0.033 0.067,-0.038 0.089,-0.009 0.025,0.031 0.018,0.067 -0.019,0.126 -0.04,0.058 -0.053,0.124 -0.053,0.124 -0.052,-0.012 -0.104,0 -0.143,0.03 C 0.057,0.043 -0.008,0.025 0,0" style="fill:#e51636;fill-opacity:1;fill-rule:nonzero;stroke:none" id="path232"></path></g><g id="g234" transform="translate(341.5479,96.1328)"><path d="m 0,0 -0.254,0.051 c -0.048,0.025 -0.079,0.056 -0.071,0.1 0.014,0.074 0.149,0.083 0.2,0.07 C -0.077,0.207 0.084,0.181 0.096,0.096 0.102,0.035 0.05,-0.013 0.007,-0.04 0.005,-0.025 0.004,-0.018 0,0 M -0.629,2.787 C -0.737,2.782 -0.871,2.823 -0.854,2.899 -0.838,2.976 -0.648,2.896 -0.648,2.896 -0.677,2.969 -0.685,3.017 -0.687,3.045 -0.623,2.987 -0.528,2.933 -0.4,2.889 -0.483,2.828 -0.568,2.792 -0.629,2.787 m -0.405,0.747 c 0.01,0.119 0.183,0.101 0.305,0.071 C -0.651,3.587 -0.57,3.53 -0.565,3.472 -0.646,3.492 -0.743,3.482 -0.792,3.406 -0.799,3.396 -0.804,3.385 -0.808,3.37 -0.92,3.386 -1.044,3.438 -1.034,3.534 M 0.319,2.112 C 0.469,2.064 0.64,1.969 0.643,1.923 0.648,1.879 0.541,1.867 0.351,1.958 0.221,2.018 0.101,2.101 -0.003,2.19 0.124,2.165 0.238,2.138 0.319,2.112 m -0.617,-2.279 c 0.014,0.034 0.062,0.044 0.116,0.027 0.053,-0.016 0.213,-0.075 0.213,-0.075 -0.007,0.043 -0.008,0.066 -0.014,0.11 0.048,-0.025 0.074,-0.04 0.124,-0.064 0,0 0.186,0.103 0.168,0.276 C 0.294,0.232 0.212,0.31 0.055,0.378 -0.027,0.415 -0.139,0.434 -0.244,0.43 c -0.04,0.031 -0.074,0.073 -0.061,0.101 0.029,0.067 0.11,0.056 0.17,0.028 C -0.044,0.516 0.177,0.389 0.243,0.493 0.287,0.562 0.228,0.627 0.096,0.756 0.17,0.746 0.234,0.765 0.241,0.815 0.251,0.887 0.139,0.962 0.032,1.051 0.113,1.029 0.182,1.021 0.192,1.079 0.204,1.148 0.129,1.176 0.084,1.225 0.039,1.273 0.017,1.335 0.017,1.335 c 0,0 -0.066,-0.064 -0.199,-0.052 -0.025,0.003 -0.07,0.013 -0.125,0.026 -0.132,0.086 -0.157,0.155 -0.14,0.185 0.024,0.053 0.193,0.014 0.29,-0.046 0.121,-0.074 0.153,-0.077 0.187,-0.07 0.032,0.009 0.088,0.058 0.038,0.149 -0.047,0.092 -0.032,0.161 -0.032,0.161 0,0 -0.082,-0.043 -0.285,0.022 -0.063,0.02 -0.121,0.036 -0.172,0.049 -0.107,0.062 -0.14,0.114 -0.125,0.138 0.018,0.032 0.102,0.031 0.209,-0.022 0.109,-0.054 0.244,-0.068 0.263,0.041 0.013,0.08 -0.1,0.204 -0.231,0.319 0.032,-0.004 0.062,-0.007 0.091,-0.01 C -0.047,2.062 0.202,1.894 0.393,1.828 0.621,1.748 0.862,1.74 0.903,1.858 0.944,1.973 0.759,2.192 0.38,2.314 0.129,2.396 -0.204,2.454 -0.488,2.501 -0.517,2.525 -0.54,2.552 -0.562,2.576 c 0.034,0 0.072,0.003 0.107,0.01 0.34,0.044 0.493,0.237 0.493,0.237 -0.131,0.06 -0.268,0.231 -0.268,0.231 -0.024,-0.033 -0.048,-0.06 -0.077,-0.086 -0.227,0.08 -0.295,0.164 -0.3,0.254 0.173,0 0.311,0.049 0.32,0.21 0.009,0.151 -0.145,0.367 -0.473,0.425 -0.102,0.02 -0.192,0.02 -0.263,0.005 -0.145,0.096 -0.177,0.159 -0.173,0.191 0.007,0.04 0.05,0.061 0.14,0.026 0.143,-0.053 0.278,-0.155 0.345,-0.177 0.068,-0.018 0.117,0.054 0.131,0.167 0.012,0.105 0.042,0.084 0.116,0.14 0.057,0.043 0.052,0.126 0.052,0.126 -0.106,0.013 -0.166,0.065 -0.271,0.115 -0.058,0.029 -0.108,0.011 -0.132,-0.045 -0.501,0.19 -0.612,0.298 -0.6,0.353 0.015,0.056 0.241,-0.015 0.384,-0.099 0.162,-0.096 0.22,-0.128 0.26,-0.116 0.037,0.009 0.081,0.069 -0.028,0.193 -0.09,0.101 -0.095,0.192 -0.095,0.192 0,0 -0.054,-0.048 -0.314,0.023 C -1.254,4.964 -1.301,4.978 -1.35,4.99 -1.464,5.056 -1.561,5.123 -1.562,5.161 -1.566,5.215 -1.454,5.243 -1.137,5.177 -0.819,5.107 -0.284,4.969 0.062,4.738 0.348,4.551 0.466,4.378 0.447,4.354 0.428,4.326 0.406,4.38 0.303,4.416 0.197,4.451 0.138,4.396 0.138,4.396 c 0,0 0.181,-0.091 0.258,-0.215 0.078,-0.121 0.1,-0.209 0.1,-0.209 0,0 0.102,-0.012 0.152,0.089 C 0.697,4.16 0.69,4.301 0.523,4.53 0.355,4.76 -0.036,5.158 -0.747,5.424 -0.872,5.47 -0.998,5.51 -1.114,5.543 -1.213,5.655 -1.309,5.764 -1.403,5.861 -1.177,5.803 -0.935,5.726 -0.722,5.651 -0.236,5.477 0.031,5.269 0.031,5.269 0.075,5.286 0.101,5.297 0.146,5.313 0.009,5.457 -0.215,5.627 -0.262,5.96 c -0.041,0.273 -0.262,0.509 -0.534,0.532 -0.282,0.024 -0.361,-0.27 -0.361,-0.27 0.229,0.06 0.439,-0.186 0.439,-0.186 0,0 0.051,0.185 0.173,0.113 0.06,-0.034 0.079,-0.113 0.03,-0.145 C -0.559,5.976 -0.6,5.969 -0.586,5.937 -0.577,5.924 -0.494,5.856 -0.418,5.774 -0.33,5.686 -0.279,5.602 -0.279,5.602 c 0,0 -0.484,0.355 -1.185,0.596 C -1.646,6.261 -1.79,6.305 -1.897,6.335 -2.032,6.441 -2.149,6.516 -2.245,6.546 -2.504,6.631 -2.657,6.548 -2.609,6.346 -2.561,6.143 -2.297,6.057 -2.022,6.008 -2.016,6.007 -2.004,6.004 -1.991,6.004 -1.775,5.871 -1.598,5.736 -1.46,5.624 -1.861,5.696 -2.165,5.676 -2.186,5.529 -2.207,5.381 -1.845,5.15 -1.646,5.043 -1.761,5.046 -1.842,5.018 -1.844,4.928 -1.849,4.739 -1.345,4.475 -0.838,4.305 -0.848,4.239 -0.855,4.188 -0.894,4.201 -0.942,4.219 -1.507,4.488 -1.554,4.29 -1.583,4.16 -1.337,3.966 -1.138,3.829 -1.24,3.78 -1.289,3.695 -1.293,3.61 -1.298,3.428 -1.078,3.279 -0.816,3.236 -0.807,3.197 -0.79,3.159 -0.76,3.119 -0.915,3.182 -1.101,3.098 -1.089,2.943 -1.081,2.817 -0.957,2.666 -0.757,2.604 -0.743,2.586 -0.725,2.561 -0.704,2.535 -0.821,2.553 -0.923,2.57 -0.995,2.587 -0.958,2.452 -0.94,2.385 -0.907,2.253 -0.796,2.267 -0.648,2.267 -0.491,2.255 -0.403,2.192 -0.37,2.15 -0.386,2.126 -0.407,2.088 -0.46,2.111 -0.553,2.137 -0.646,2.157 -0.829,2.15 -0.85,2.059 -0.866,1.977 -0.791,1.897 -0.599,1.786 -0.732,1.791 -0.769,1.743 -0.786,1.706 -0.812,1.638 -0.692,1.498 -0.509,1.36 -0.587,1.385 -0.665,1.409 -0.729,1.437 -0.712,1.343 -0.704,1.296 -0.689,1.201 -0.49,1.172 -0.258,1.123 -0.129,1.092 -0.096,1.058 -0.103,1.021 -0.159,1.021 -0.334,1.02 -0.553,1.103 -0.668,1.085 -0.653,0.989 -0.646,0.943 -0.634,0.849 -0.412,0.908 -0.211,0.856 -0.085,0.811 -0.072,0.792 -0.069,0.772 -0.077,0.756 -0.093,0.718 -0.134,0.725 -0.243,0.759 -0.409,0.81 -0.597,0.785 -0.623,0.678 -0.645,0.594 -0.514,0.483 -0.375,0.41 -0.466,0.387 -0.537,0.338 -0.556,0.258 c -0.017,-0.073 0.044,-0.147 0.115,-0.2 -0.047,-0.014 -0.08,-0.045 -0.087,-0.079 -0.012,-0.056 0.07,-0.186 0.116,-0.298 0.065,-0.003 0.099,-0.005 0.162,-0.007 -0.034,0.057 -0.061,0.126 -0.048,0.159" style="fill:#ed1c24;fill-opacity:1;fill-rule:nonzero;stroke:none" id="path236"></path></g></g></g></g></svg>
