
<svg viewBox="0 0 147.7 229.4" xml:space="preserve" version="1.1" id="svg16" width="147.7" height="229.39999" xmlns="http://www.w3.org/2000/svg"><defs id="defs20"></defs>
    <path fill="#ffffff" d="m 147.7,11.3 c 0,-6.2 -5,-11.2 -11.2,-11.2 -6.2,0 -11.2,5 -11.2,11.2 0,4 2.2,7.6 5.4,9.5 v 3.3 c 0,8.3 -6.7,15 -15,15 -8.2,0 -14.9,-6.7 -14.9,-15 v -3.3 c 3.2,-2 5.4,-5.5 5.4,-9.5 0,-6.2 -5,-11.2 -11.2,-11.2 -6.2,0 -11.2,5 -11.2,11.2 0,4 2.1,7.5 5.2,9.4 v 3.4 c 0,8.3 -6.7,15 -15,15 -8.2,0 -14.9,-6.8 -14.9,-15.1 v -3.2 c 3.3,-2 5.5,-5.5 5.5,-9.6 C 64.6,5 59.6,0 53.4,0 47.2,0 42.2,5 42.2,11.2 c 0,3.9 2.1,7.4 5.1,9.4 h -0.1 v 3.5 c 0,8.3 -6.7,15 -15,15 -8.2,0 -15,-6.8 -15,-15.1 v -3.4 c 3.1,-2 5.2,-5.5 5.2,-9.4 C 22.4,5 17.4,0 11.2,0 5,0 0,5 0,11.2 c 0,3.9 2,7.3 5,9.3 v 43.1 h 0.1 v 125.6 l 68.7,40.2 68.7,-40.2 V 63.8 h 0.1 v -43 c 3,-2 5.1,-5.5 5.1,-9.5 z" id="path2"></path>
    <path fill="#004687" d="m 8.4,63.8 v 123.5 l 65.3,38.2 65.2,-38.2 V 63.8 Z" id="path4"></path>
    <path fill="#c09a5b" d="m 136.5,19 c 4.3,0 7.7,-3.5 7.7,-7.7 0,-4.2 -3.5,-7.7 -7.7,-7.7 -4.3,0 -7.7,3.5 -7.7,7.7 0,4.2 3.4,7.7 7.7,7.7 z m -0.8,5.1 h -1.6 c 0,10.2 -8.3,18.5 -18.5,18.5 -10.2,0 -18.4,-8.3 -18.4,-18.5 H 92.3 C 92.3,34.3 84,42.6 73.8,42.6 63.6,42.6 55.4,34.3 55.4,24.1 H 50.5 C 50.5,34.3 42.2,42.6 32,42.6 21.8,42.6 13.6,34.3 13.6,24.1 L 8.3,24 V 60.3 H 138.9 V 24.1 H 134 M 11.1,19 c 4.3,0 7.7,-3.5 7.7,-7.7 0,-4.2 -3.5,-7.7 -7.7,-7.7 -4.3,0 -7.7,3.5 -7.7,7.7 0,4.2 3.4,7.7 7.7,7.7 z m 42.1,0 c 4.3,0 7.7,-3.5 7.7,-7.7 0,-4.2 -3.5,-7.7 -7.7,-7.7 -4.3,0 -7.7,3.5 -7.7,7.7 0,4.2 3.4,7.7 7.7,7.7 z m 41.7,0 c 4.3,0 7.7,-3.5 7.7,-7.7 0,-4.2 -3.5,-7.7 -7.7,-7.7 -4.3,0 -7.8,3.5 -7.8,7.7 0,4.2 3.5,7.7 7.8,7.7 z" id="path6"></path>
    <g id="g10">
        <path fill="#ffffff" d="m 127.7,163.6 c 0,-0.1 -0.1,-0.1 -0.1,-0.2 -4.5,-7.6 -12.4,1.3 -5.5,4.6 0,0 0.1,0 0.1,0.1 0.5,0.3 0.8,0.6 0.8,1.3 0,0.5 -0.1,1 -0.4,1.9 -3.5,8.9 -16.4,12.9 -26,4.8 -6.4,-5.4 -11.2,-16.1 -10.9,-34.4 0.2,-12.4 3.2,-30.5 18.8,-30 6.1,0.2 10.1,2.8 12.8,6.2 4.1,5.2 5.1,12.1 5.3,15 h 3.8 V 105.1 H 122 c -0.8,3.2 -1.3,6.1 -7.2,4.5 -5.8,-1.6 -8.4,-1.4 -10.4,-1.5 -18,-0.8 -30.3,19.5 -28.4,36.2 0,0.3 0,0.6 0.1,1 -2.8,-2 -6.5,-12.3 -13.2,-19.9 -3,-3.4 -6.6,-6.2 -11.1,-7.5 -1.2,-0.4 -2.5,-0.6 -3.9,-0.7 0,0 11.2,-16.9 16.9,-23.9 4.4,-5.5 7.7,-5.5 10.4,-5.5 h 1.7 V 84.1 H 52.3 v 3.7 c 0.9,0 1.8,0 2.6,0.1 2.1,0.2 3.7,0.7 3.6,2.7 -0.1,0.7 -0.3,1.5 -0.8,2.5 -2.1,4.1 -11.6,17.8 -16,24 -0.2,0.3 -0.5,0.7 -0.7,0.9 l -1.9,1.1 v -22 c 0,-6.5 4.1,-9 8,-9.3 V 84.1 H 19.4 v 3.7 h 1.4 c 0.4,0 0.8,0 1.2,0.1 2.5,0.2 5,1.4 6.5,3.8 0.8,1.4 1.4,3.1 1.4,5.4 v 49.2 c 0,7.1 -4.8,9.3 -9,9.3 h -1.4 v 3.7 h 30.2 v -3.7 h -1.4 c -1.7,0 -3.5,-0.4 -5,-1.3 -2.3,-1.3 -4,-3.8 -4,-8 l -0.1,-12.8 0.1,-7.2 c 2.6,-2.5 9.3,-7 17.6,2.5 0.2,0.3 0.4,0.5 0.7,0.8 7.9,9.7 14.6,33.6 28.7,46.5 5.6,5.1 12.3,8.5 20.8,8.5 19,-0.3 22.7,-17.4 20.6,-21 z" id="path8"></path>
    </g>
    <g id="g14">
        
    </g>
</svg>
