
<svg id="master-artboard" viewBox="0 0 820.2762451171875 950.6220703125" version="1.1" xmlns="http://www.w3.org/2000/svg" x="0px" y="0px" style="enable-background:new 0 0 1400 980" width="820.2762451171875px" height="950.6220703125px"><defs><style id="ee-google-fonts">@import url(https://fonts.googleapis.com/css?family=Anton:400|Roboto+Slab:100,300,400,700);</style><path id="text-path-0" d="M 778.8464965820312 213.4612274169922 A 100 18 0 0 1 988.3533935546875 213.4612274169922 A 100 18 0 0 1 778.8464965820312 213.4612274169922 Z" style="fill:none;stroke:red;stroke-width:2"></path><path id="text-path-1" d="M 664.5464477539062 37.96122741699219 A 100 19 0 0 1 876.5812377929688 37.96122741699219 A 100 19 0 0 1 664.5464477539062 37.96122741699219" style="fill:none;stroke:red;stroke-width:2"></path><path id="text-path-2" d="M 765.3650512695312 211.70851135253906 A 100 17 0 0 1 991.5017700195312 211.70851135253906 A 100 17 0 0 1 765.3650512695312 211.70851135253906" style="fill:none;stroke:red;stroke-width:2"></path><path id="path-1" d="M 765.3650512695312 211.70851135253906 A 100 17 0 0 1 991.5017700195312 211.70851135253906 A 100 17 0 0 1 765.3650512695312 211.70851135253906" style="fill:none;stroke:red;stroke-width:2"></path><clipPath clipPathUnits="userSpaceOnUse" id="clipPath25"><path d="M 0,595.276 H 841.89 V 0 H 0 Z" id="path23"></path></clipPath><clipPath clipPathUnits="userSpaceOnUse" id="clipPath743"><path d="m 0,545.461 h 841.89 v 49.814 H 0 Z" id="path741"></path></clipPath><clipPath clipPathUnits="userSpaceOnUse" id="clipPath777"><path d="M 0,595.276 H 841.89 V 0 H 0 Z" id="path775"></path></clipPath></defs><rect id="ee-background" x="0" y="0" width="820.2762451171875" height="950.6220703125" style="fill:rgb(8, 5, 64);fill-opacity:0;pointer-events:none"></rect>


<path style="fill:rgb(63, 61, 61);fill-opacity:1;stroke:rgb(0, 0, 0);stroke-opacity:1;stroke-width:0" transform="matrix(1, 0, 0, 1, 1.9585257768630981, 1.9585258960723877)"></path><path style="fill:rgb(63, 61, 61);fill-opacity:1;stroke:rgb(0, 0, 0);stroke-opacity:1;stroke-width:0" transform="matrix(1, 0, 0, 1, 1.9585257768630981, 1.9585258960723877)"></path><path style="fill:rgb(63, 61, 61);fill-opacity:1;stroke:rgb(0, 0, 0);stroke-opacity:1;stroke-width:0" transform="matrix(1, 0, 0, 1, 1.9585257768630981, 1.9585258960723877)"></path><path style="fill:rgb(63, 61, 61);fill-opacity:1;stroke:rgb(0, 0, 0);stroke-opacity:1;stroke-width:0" transform="matrix(1, 0, 0, 1, 1.9585257768630981, 1.9585258960723877)"></path><path style="fill:rgb(63, 61, 61);fill-opacity:1;stroke:rgb(0, 0, 0);stroke-opacity:1;stroke-width:0" transform="matrix(1, 0, 0, 1, 1.9585257768630981, 1.9585258960723877)"></path><path style="fill:rgb(63, 61, 61);fill-opacity:1;stroke:rgb(0, 0, 0);stroke-opacity:1;stroke-width:0" transform="matrix(1, 0, 0, 1, 1.9585257768630981, 1.9585258960723877)"></path><g transform="matrix(2.1155242919921875, 0, 0, 2.1155242919921875, -446.6217964887619, -476.8907775878906)"><g id="g15" transform="matrix(1.3333333,0,0,-1.3333333,0,793.70133)"><g id="g19"><g id="g21" clip-path="url(#clipPath25)"><g id="g27" transform="translate(571.5488,311.1457)"><path d="m 0,0 v -3.657 h 1.852 c 1.462,0 2.087,0.684 2.087,1.746 v 0.212 C 3.939,-0.696 3.314,0 1.981,0 Z m -0.826,0.743 h 2.879 c 1.804,0 2.724,-1.038 2.724,-2.43 V -1.935 C 4.777,-3.314 3.786,-4.4 2.053,-4.4 H 0 v -3.361 h -0.826 z" style="fill:#000100;fill-opacity:1;fill-rule:nonzero;stroke:none" id="path29"></path></g><g id="g31" transform="translate(578.543,306.7458)"><path d="M 0,0 H 3.079 L 2.253,2.3 C 2.041,2.878 1.888,3.303 1.546,4.412 1.228,3.303 1.062,2.878 0.85,2.3 Z M 5.167,-3.361 H 4.282 l -0.943,2.642 h -3.598 l -0.968,-2.642 h -0.848 l 3.161,8.504 h 0.932 z" style="fill:#000100;fill-opacity:1;fill-rule:nonzero;stroke:none" id="path33"></path></g><g id="g35" transform="translate(584.9482,311.8889)"><path d="m 0,0 h 0.979 l 3.905,-6.653 c 0.141,-0.236 0.235,-0.436 0.4,-0.79 V 0 H 6.075 V -8.504 H 5.096 L 1.18,-1.829 C 1.038,-1.581 0.944,-1.416 0.791,-1.062 V -8.504 H 0 Z" style="fill:#000100;fill-opacity:1;fill-rule:nonzero;stroke:none" id="path37"></path></g><g id="g39" transform="translate(598.501,311.8889)"><path d="M 0,0 V -0.731 H -2.725 V -8.504 H -3.55 v 7.773 H -6.263 V 0 Z" style="fill:#000100;fill-opacity:1;fill-rule:nonzero;stroke:none" id="path41"></path></g><g id="g43" transform="translate(605.1064,307.1233)"><path d="m 0,0 v 1.026 c 0,2.029 -0.967,3.126 -2.477,3.126 -1.509,0 -2.476,-1.097 -2.476,-3.126 V 0 c 0,-2.028 0.967,-3.125 2.476,-3.125 C -0.967,-3.125 0,-2.028 0,0 M 0.838,1.097 V -0.07 c 0,-2.324 -1.215,-3.799 -3.315,-3.799 -2.099,0 -3.314,1.475 -3.314,3.799 v 1.167 c 0,2.324 1.203,3.798 3.314,3.798 2.1,0 3.315,-1.474 3.315,-3.798" style="fill:#000100;fill-opacity:1;fill-rule:nonzero;stroke:none" id="path45"></path></g><g id="g47" transform="translate(607.6895,311.8889)"><path d="m 0,0 h 0.979 l 3.905,-6.653 c 0.141,-0.236 0.235,-0.436 0.4,-0.79 V 0 H 6.075 V -8.504 H 5.096 L 1.18,-1.829 C 1.038,-1.581 0.944,-1.416 0.791,-1.062 V -8.504 H 0 Z" style="fill:#000100;fill-opacity:1;fill-rule:nonzero;stroke:none" id="path49"></path></g><g id="g51" transform="translate(620.8408,311.8889)"><path d="m 0,0 v -0.731 h -4.293 v -3.043 h 4.046 V -4.506 H -4.293 V -7.773 H 0.083 V -8.504 H -5.119 V 0 Z" style="fill:#000100;fill-opacity:1;fill-rule:nonzero;stroke:none" id="path53"></path></g><path d="m 625.831,305.166 h 1.191 v -1.18 h -1.191 z m 0,5.213 h 1.191 v -1.18 h -1.191 z" style="fill:#000100;fill-opacity:1;fill-rule:nonzero;stroke:none" id="path55"></path><g id="g57" transform="translate(634.1592,303.3845)"><path d="M 0,0 H -0.932 L 2.523,7.75 H -2.253 V 8.504 H 3.444 V 7.867 Z" style="fill:#000100;fill-opacity:1;fill-rule:nonzero;stroke:none" id="path59"></path></g><g id="g61" transform="translate(639.9268,306.1325)"><path d="m 0,0 c 0,-1.274 0.802,-2.135 1.958,-2.135 1.156,0 1.993,0.732 1.993,2.006 V 0.047 C 3.951,1.321 3.008,2.029 1.97,2.029 0.979,2.029 0,1.239 0,0.153 Z M 4.022,4.636 C 3.491,4.942 2.866,5.143 2.218,5.143 c -1.593,0 -2.171,-1.333 -2.3,-3.586 0.259,0.507 0.955,1.192 2.146,1.192 1.451,0 2.702,-0.968 2.702,-2.631 v -0.283 c 0,-1.675 -1.203,-2.713 -2.785,-2.713 -1.603,0 -2.877,1.086 -2.877,3.456 v 0.283 c 0,3.657 1.191,5.025 3.125,5.025 0.767,0 1.545,-0.224 2.182,-0.578 z" style="fill:#000100;fill-opacity:1;fill-rule:nonzero;stroke:none" id="path63"></path></g><g id="g65" transform="translate(649.4102,307.8078)"><path d="m 0,0 c 0.932,1.097 1.085,1.533 1.085,1.981 v 0.095 c 0,0.849 -0.59,1.38 -1.615,1.38 -0.743,0 -1.416,-0.295 -1.971,-1.286 l -0.66,0.413 c 0.401,0.731 1.191,1.627 2.606,1.627 1.51,0 2.478,-0.849 2.478,-2.123 V 1.97 c 0,-0.921 -0.685,-1.687 -1.416,-2.536 l -2.642,-3.102 h 4.364 v -0.755 h -5.402 v 0.707 z" style="fill:#000100;fill-opacity:1;fill-rule:nonzero;stroke:none" id="path67"></path></g><g id="g69" transform="translate(656.0742,303.3845)"><path d="M 0,0 V 7.466 L -2.052,6.216 -2.43,6.876 0.201,8.504 H 0.826 L 0.826,0 Z" style="fill:#000100;fill-opacity:1;fill-rule:nonzero;stroke:none" id="path71"></path></g><g id="g73" transform="translate(666.207,311.1692)"><path d="m 0,0 -0.425,-0.649 c -0.766,0.543 -1.404,0.72 -2.264,0.72 -1.57,0 -2.43,-1.215 -2.43,-2.996 V -4.01 c 0,-2.088 0.943,-3.114 2.512,-3.114 1.061,0 1.781,0.389 2.336,0.873 L 0.212,-6.9 c -0.625,-0.566 -1.486,-1.015 -2.831,-1.015 -2.205,0 -3.338,1.439 -3.338,3.905 v 1.05 c 0,2.406 1.203,3.809 3.268,3.809 C -1.558,0.849 -0.708,0.542 0,0" style="fill:#000100;fill-opacity:1;fill-rule:nonzero;stroke:none" id="path75"></path></g><g id="g77" transform="translate(571.5488,255.3186)"><path d="m 0,0 v -3.656 h 1.852 c 1.462,0 2.087,0.684 2.087,1.745 v 0.213 C 3.939,-0.695 3.314,0 1.981,0 Z m -0.826,0.743 h 2.879 c 1.804,0 2.724,-1.038 2.724,-2.43 v -0.248 c 0,-1.379 -0.991,-2.464 -2.724,-2.464 H 0 v -3.362 h -0.826 z" style="fill:#000100;fill-opacity:1;fill-rule:nonzero;stroke:none" id="path79"></path></g><g id="g81" transform="translate(578.543,250.9192)"><path d="M 0,0 H 3.079 L 2.253,2.3 C 2.041,2.878 1.888,3.303 1.546,4.411 1.228,3.303 1.062,2.878 0.85,2.3 Z M 5.167,-3.361 H 4.282 L 3.339,-0.72 h -3.598 l -0.968,-2.641 h -0.848 l 3.161,8.504 h 0.932 z" style="fill:#000100;fill-opacity:1;fill-rule:nonzero;stroke:none" id="path83"></path></g><g id="g85" transform="translate(584.9482,256.0617)"><path d="m 0,0 h 0.979 l 3.905,-6.652 c 0.141,-0.236 0.235,-0.437 0.4,-0.79 V 0 H 6.075 V -8.504 H 5.096 L 1.18,-1.828 C 1.038,-1.58 0.944,-1.415 0.791,-1.062 V -8.504 H 0 Z" style="fill:#000100;fill-opacity:1;fill-rule:nonzero;stroke:none" id="path87"></path></g><g id="g89" transform="translate(598.501,256.0617)"><path d="M 0,0 V -0.731 H -2.725 V -8.504 H -3.55 v 7.773 H -6.263 V 0 Z" style="fill:#000100;fill-opacity:1;fill-rule:nonzero;stroke:none" id="path91"></path></g><g id="g93" transform="translate(605.1064,251.2971)"><path d="m 0,0 v 1.026 c 0,2.029 -0.967,3.125 -2.477,3.125 -1.509,0 -2.476,-1.096 -2.476,-3.125 V 0 c 0,-2.029 0.967,-3.126 2.476,-3.126 C -0.967,-3.126 0,-2.029 0,0 m 0.838,1.097 v -1.168 c 0,-2.324 -1.215,-3.798 -3.315,-3.798 -2.099,0 -3.314,1.474 -3.314,3.798 v 1.168 c 0,2.323 1.203,3.798 3.314,3.798 2.1,0 3.315,-1.475 3.315,-3.798" style="fill:#000100;fill-opacity:1;fill-rule:nonzero;stroke:none" id="path95"></path></g><g id="g97" transform="translate(607.6895,256.0617)"><path d="m 0,0 h 0.979 l 3.905,-6.652 c 0.141,-0.236 0.235,-0.437 0.4,-0.79 V 0 H 6.075 V -8.504 H 5.096 L 1.18,-1.828 C 1.038,-1.58 0.944,-1.415 0.791,-1.062 V -8.504 H 0 Z" style="fill:#000100;fill-opacity:1;fill-rule:nonzero;stroke:none" id="path99"></path></g><g id="g101" transform="translate(620.8408,256.0617)"><path d="m 0,0 v -0.731 h -4.293 v -3.043 h 4.046 V -4.506 H -4.293 V -7.772 H 0.083 V -8.504 H -5.119 V 0 Z" style="fill:#000100;fill-opacity:1;fill-rule:nonzero;stroke:none" id="path103"></path></g><path d="m 625.831,249.339 h 1.191 v -1.18 h -1.191 z m 0,5.213 h 1.191 v -1.18 h -1.191 z" style="fill:#000100;fill-opacity:1;fill-rule:nonzero;stroke:none" id="path105"></path><g id="g107" transform="translate(636.7187,252.8772)"><path d="M 0,0 V -2.678 H 1.25 V -3.433 H 0 v -1.886 h -0.826 v 1.886 h -4.258 v 0.755 l 4.128,5.863 h 0.944 l -4.117,-5.863 h 3.303 V 0 Z" style="fill:#000100;fill-opacity:1;fill-rule:nonzero;stroke:none" id="path109"></path></g><g id="g111" transform="translate(639.9268,250.3059)"><path d="m 0,0 c 0,-1.273 0.802,-2.135 1.958,-2.135 1.156,0 1.993,0.732 1.993,2.005 V 0.047 C 3.951,1.321 3.008,2.029 1.97,2.029 0.979,2.029 0,1.238 0,0.153 Z M 4.022,4.636 C 3.491,4.942 2.866,5.143 2.218,5.143 c -1.593,0 -2.171,-1.333 -2.3,-3.586 0.259,0.507 0.955,1.191 2.146,1.191 1.451,0 2.702,-0.967 2.702,-2.63 v -0.283 c 0,-1.675 -1.203,-2.713 -2.785,-2.713 -1.603,0 -2.877,1.085 -2.877,3.456 v 0.283 c 0,3.657 1.191,5.025 3.125,5.025 0.767,0 1.545,-0.225 2.182,-0.578 z" style="fill:#000100;fill-opacity:1;fill-rule:nonzero;stroke:none" id="path113"></path></g><g id="g115" transform="translate(647.0039,250.3059)"><path d="m 0,0 c 0,-1.273 0.802,-2.135 1.958,-2.135 1.156,0 1.993,0.732 1.993,2.005 V 0.047 C 3.951,1.321 3.008,2.029 1.97,2.029 0.979,2.029 0,1.238 0,0.153 Z M 4.022,4.636 C 3.491,4.942 2.866,5.143 2.218,5.143 c -1.593,0 -2.171,-1.333 -2.3,-3.586 0.259,0.507 0.955,1.191 2.146,1.191 1.451,0 2.702,-0.967 2.702,-2.63 v -0.283 c 0,-1.675 -1.203,-2.713 -2.785,-2.713 -1.603,0 -2.877,1.085 -2.877,3.456 v 0.283 c 0,3.657 1.191,5.025 3.125,5.025 0.767,0 1.545,-0.225 2.182,-0.578 z" style="fill:#000100;fill-opacity:1;fill-rule:nonzero;stroke:none" id="path117"></path></g><g id="g119" transform="translate(659.1299,255.342)"><path d="m 0,0 -0.425,-0.648 c -0.766,0.543 -1.404,0.719 -2.264,0.719 -1.57,0 -2.43,-1.215 -2.43,-2.996 V -4.01 c 0,-2.088 0.943,-3.114 2.512,-3.114 1.061,0 1.781,0.39 2.336,0.873 l 0.483,-0.648 c -0.625,-0.567 -1.486,-1.015 -2.831,-1.015 -2.205,0 -3.338,1.439 -3.338,3.904 v 1.05 c 0,2.406 1.203,3.81 3.268,3.81 C -1.558,0.85 -0.708,0.543 0,0" style="fill:#000100;fill-opacity:1;fill-rule:nonzero;stroke:none" id="path121"></path></g><g id="g123" transform="translate(571.5488,199.4914)"><path d="m 0,0 v -3.656 h 1.852 c 1.462,0 2.087,0.684 2.087,1.746 v 0.212 C 3.939,-0.695 3.314,0 1.981,0 Z m -0.826,0.743 h 2.879 c 1.804,0 2.724,-1.038 2.724,-2.43 v -0.247 c 0,-1.38 -0.991,-2.465 -2.724,-2.465 H 0 v -3.362 h -0.826 z" style="fill:#000100;fill-opacity:1;fill-rule:nonzero;stroke:none" id="path125"></path></g><g id="g127" transform="translate(578.543,195.092)"><path d="M 0,0 H 3.079 L 2.253,2.3 C 2.041,2.878 1.888,3.303 1.546,4.411 1.228,3.303 1.062,2.878 0.85,2.3 Z M 5.167,-3.361 H 4.282 L 3.339,-0.72 h -3.598 l -0.968,-2.641 h -0.848 l 3.161,8.504 h 0.932 z" style="fill:#000100;fill-opacity:1;fill-rule:nonzero;stroke:none" id="path129"></path></g><g id="g131" transform="translate(584.9482,200.2346)"><path d="m 0,0 h 0.979 l 3.905,-6.652 c 0.141,-0.236 0.235,-0.437 0.4,-0.79 V 0 H 6.075 V -8.504 H 5.096 L 1.18,-1.828 C 1.038,-1.58 0.944,-1.415 0.791,-1.062 V -8.504 H 0 Z" style="fill:#000100;fill-opacity:1;fill-rule:nonzero;stroke:none" id="path133"></path></g><g id="g135" transform="translate(598.501,200.2346)"><path d="M 0,0 V -0.731 H -2.725 V -8.504 H -3.55 v 7.773 H -6.263 V 0 Z" style="fill:#000100;fill-opacity:1;fill-rule:nonzero;stroke:none" id="path137"></path></g><g id="g139" transform="translate(605.1064,195.4699)"><path d="m 0,0 v 1.026 c 0,2.029 -0.967,3.125 -2.477,3.125 -1.509,0 -2.476,-1.096 -2.476,-3.125 V 0 c 0,-2.029 0.967,-3.126 2.476,-3.126 C -0.967,-3.126 0,-2.029 0,0 m 0.838,1.097 v -1.168 c 0,-2.324 -1.215,-3.798 -3.315,-3.798 -2.099,0 -3.314,1.474 -3.314,3.798 v 1.168 c 0,2.323 1.203,3.798 3.314,3.798 2.1,0 3.315,-1.475 3.315,-3.798" style="fill:#000100;fill-opacity:1;fill-rule:nonzero;stroke:none" id="path141"></path></g><g id="g143" transform="translate(607.6895,200.2346)"><path d="m 0,0 h 0.979 l 3.905,-6.652 c 0.141,-0.236 0.235,-0.437 0.4,-0.79 V 0 H 6.075 V -8.504 H 5.096 L 1.18,-1.828 C 1.038,-1.58 0.944,-1.415 0.791,-1.062 V -8.504 H 0 Z" style="fill:#000100;fill-opacity:1;fill-rule:nonzero;stroke:none" id="path145"></path></g><g id="g147" transform="translate(620.8408,200.2346)"><path d="m 0,0 v -0.731 h -4.293 v -3.043 h 4.046 V -4.506 H -4.293 V -7.772 H 0.083 V -8.504 H -5.119 V 0 Z" style="fill:#000100;fill-opacity:1;fill-rule:nonzero;stroke:none" id="path149"></path></g><path d="m 625.831,193.512 h 1.191 v -1.18 h -1.191 z m 0,5.213 h 1.191 v -1.18 h -1.191 z" style="fill:#000100;fill-opacity:1;fill-rule:nonzero;stroke:none" id="path151"></path><g id="g153" transform="translate(635.2559,196.1535)"><path d="m 0,0 c 0.932,1.098 1.085,1.533 1.085,1.981 v 0.095 c 0,0.85 -0.59,1.38 -1.615,1.38 -0.743,0 -1.416,-0.295 -1.971,-1.285 l -0.66,0.412 c 0.401,0.731 1.191,1.628 2.606,1.628 1.51,0 2.478,-0.849 2.478,-2.123 V 1.97 c 0,-0.92 -0.685,-1.687 -1.416,-2.535 l -2.642,-3.103 h 4.364 v -0.755 h -5.402 v 0.708 z" style="fill:#000100;fill-opacity:1;fill-rule:nonzero;stroke:none" id="path155"></path></g><g id="g157" transform="translate(643.6543,197.4514)"><path d="m 0,0 c 0,1.273 -0.803,2.17 -1.958,2.17 -1.156,0 -1.993,-0.767 -1.993,-2.04 v -0.177 c 0,-1.274 0.943,-2.006 1.981,-2.006 0.991,0 1.97,0.815 1.97,1.9 z m -4.046,-4.576 c 0.53,-0.307 1.156,-0.52 1.828,-0.52 1.746,0 2.23,1.345 2.3,3.551 -0.235,-0.496 -0.955,-1.226 -2.146,-1.226 -1.452,0 -2.702,0.99 -2.702,2.653 v 0.283 c 0,1.675 1.203,2.748 2.785,2.748 1.58,0 2.877,-1.097 2.877,-3.468 v -0.353 c 0,-3.751 -1.026,-4.943 -3.137,-4.943 -0.767,0 -1.51,0.213 -2.147,0.579 z" style="fill:#000100;fill-opacity:1;fill-rule:nonzero;stroke:none" id="path159"></path></g><g id="g161" transform="translate(650.9316,194.2903)"><path d="m 0,0 c 0,1.356 -0.695,1.958 -1.923,1.958 -0.719,0 -1.297,-0.307 -1.675,-0.673 h -0.778 l 0.272,4.659 H 0.271 V 5.189 H -3.373 L -3.503,2.1 c 0.377,0.353 1.073,0.601 1.781,0.601 1.675,0 2.536,-1.156 2.536,-2.666 v -0.177 c 0,-1.214 -0.755,-2.547 -2.878,-2.547 -1.156,0 -2.005,0.366 -2.76,0.943 l 0.425,0.673 c 0.813,-0.625 1.545,-0.862 2.335,-0.862 1.522,0 2.064,1.003 2.064,1.782 z" style="fill:#000100;fill-opacity:1;fill-rule:nonzero;stroke:none" id="path163"></path></g><g id="g165" transform="translate(659.1299,199.5158)"><path d="m 0,0 -0.425,-0.649 c -0.766,0.543 -1.404,0.719 -2.264,0.719 -1.57,0 -2.43,-1.215 -2.43,-2.996 v -1.085 c 0,-2.088 0.943,-3.114 2.512,-3.114 1.061,0 1.781,0.39 2.336,0.873 L 0.212,-6.9 c -0.625,-0.567 -1.486,-1.015 -2.831,-1.015 -2.205,0 -3.338,1.439 -3.338,3.904 v 1.05 c 0,2.406 1.203,3.81 3.268,3.81 C -1.558,0.849 -0.708,0.542 0,0" style="fill:#000100;fill-opacity:1;fill-rule:nonzero;stroke:none" id="path167"></path></g><g id="g169" transform="translate(430.9675,349.1015)"><path d="m 0,0 h -29.015 l -56.3,54.979 -15.032,-16.271 -27.626,28.297 -28.379,-27.36 -14.279,15.334 L -226.031,0 h -29.915 c -4.19,0 -7.587,-3.403 -7.587,-7.601 v -23.311 c 0,-1.474 0.017,-6.539 0.017,-8.001 v -86.143 c 0,-2.281 1.023,-4.442 2.785,-5.885 1.367,-1.12 3.067,-1.717 4.802,-1.717 0.503,0 1.008,0.05 1.508,0.152 8.676,1.763 17.562,3.369 26.503,4.792 4.97,-24.657 14.544,-47.073 28.513,-66.731 0.002,-0.002 0.004,-0.005 0.006,-0.007 0.552,-0.778 1.021,-1.428 1.473,-2.045 0.524,-0.717 1.048,-1.423 1.553,-2.09 0.812,-1.074 1.711,-2.229 2.749,-3.532 l 0.156,-0.197 c 0.138,-0.173 0.275,-0.346 0.414,-0.518 0.882,-1.096 1.778,-2.183 2.665,-3.233 0.173,-0.205 0.35,-0.411 0.526,-0.617 l 0.198,-0.231 c 0.838,-0.979 1.62,-1.875 2.394,-2.742 0.303,-0.34 0.61,-0.68 0.917,-1.02 0.703,-0.775 1.44,-1.572 2.194,-2.373 0.392,-0.417 0.786,-0.835 1.183,-1.25 0.808,-0.841 1.609,-1.659 2.383,-2.434 0.505,-0.505 1.017,-1.007 1.53,-1.508 0.424,-0.413 0.848,-0.821 1.273,-1.227 0.941,-0.901 1.93,-1.825 2.936,-2.743 l 0.201,-0.184 c 0.209,-0.191 0.418,-0.381 0.628,-0.57 2.065,-1.861 4.221,-3.707 6.405,-5.487 l 0.14,-0.114 0.072,-0.058 c 1.474,-1.197 2.984,-2.382 4.484,-3.519 0.009,-0.006 0.017,-0.013 0.026,-0.02 8.346,-6.323 17.385,-11.961 26.866,-16.757 2.725,-1.378 5.334,-2.048 7.975,-2.048 2.642,0 5.243,0.668 7.952,2.043 9.62,4.883 18.722,10.553 27.053,16.853 0.849,0.641 1.715,1.309 2.576,1.986 l 0.052,0.042 0.035,0.027 c 0.818,0.644 1.649,1.312 2.466,1.98 l 0.109,0.089 c 0.814,0.667 1.636,1.354 2.437,2.036 l 0.057,0.049 c 7.472,6.368 14.441,13.455 20.71,21.062 l 0.055,0.067 c 0.003,0.002 0.016,0.018 0.018,0.021 0.662,0.805 1.329,1.63 1.981,2.453 l 0.085,0.107 0.043,0.055 c 0.638,0.806 1.276,1.629 1.897,2.444 l 0.058,0.075 0.077,0.102 c 0.632,0.831 1.262,1.676 1.874,2.512 l 0.034,0.047 0.057,0.077 c 0.658,0.902 1.302,1.8 1.915,2.673 0.002,0.003 0.004,0.006 0.007,0.009 2.558,3.644 5.005,7.418 7.274,11.22 10.047,16.835 17.143,35.385 21.139,55.237 8.966,-1.426 17.875,-3.036 26.572,-4.803 0.5,-0.102 1.006,-0.152 1.507,-0.152 1.736,0 3.436,0.597 4.803,1.717 1.763,1.444 2.785,3.604 2.785,5.885 v 86.143 c 0,1.419 0.017,6.527 0.017,8.001 V -7.601 C 7.587,-3.403 4.19,0 0,0" style="fill:#002749;fill-opacity:1;fill-rule:nonzero;stroke:none" id="path171"></path></g><g id="g173" transform="translate(438.555,318.1893)"><path d="m 0,0 c 0,-1.474 -0.017,-6.582 -0.017,-8.001 v -86.143 c 0,-2.281 -1.023,-4.441 -2.785,-5.885 -1.367,-1.12 -3.068,-1.716 -4.803,-1.716 -0.502,0 -1.007,0.05 -1.508,0.151 -8.697,1.767 -17.605,3.377 -26.572,4.803 -3.995,-19.852 -11.091,-38.401 -21.139,-55.237 -2.269,-3.802 -4.716,-7.576 -7.274,-11.219 -0.002,-0.003 -0.004,-0.007 -0.006,-0.01 -0.614,-0.873 -1.257,-1.771 -1.916,-2.673 l -0.056,-0.077 -0.035,-0.047 c -0.612,-0.836 -1.242,-1.681 -1.874,-2.512 l -0.077,-0.102 -0.057,-0.075 c -0.621,-0.815 -1.26,-1.637 -1.898,-2.444 l -0.043,-0.054 -0.085,-0.108 c -0.652,-0.823 -1.318,-1.648 -1.98,-2.452 -0.003,-0.003 -0.016,-0.019 -0.018,-0.022 l -0.055,-0.067 c -6.27,-7.607 -13.238,-14.694 -20.71,-21.062 l -0.058,-0.049 c -0.8,-0.682 -1.622,-1.368 -2.437,-2.036 l -0.109,-0.089 c -0.816,-0.668 -1.647,-1.335 -2.465,-1.979 l -0.035,-0.028 -0.053,-0.042 c -0.86,-0.676 -1.727,-1.345 -2.575,-1.986 -8.331,-6.3 -17.433,-11.97 -27.053,-16.853 -2.709,-1.375 -5.311,-2.043 -7.953,-2.043 -2.641,0 -5.249,0.67 -7.975,2.049 -9.48,4.795 -18.519,10.433 -26.865,16.757 -0.009,0.006 -0.018,0.013 -0.026,0.019 -1.5,1.137 -3.01,2.322 -4.484,3.52 l -0.072,0.057 -0.141,0.114 c -2.184,1.78 -4.34,3.626 -6.405,5.487 -0.21,0.189 -0.419,0.38 -0.627,0.57 l -0.202,0.184 c -1.006,0.918 -1.994,1.842 -2.935,2.743 -0.425,0.406 -0.849,0.814 -1.273,1.228 -0.513,0.501 -1.026,1.002 -1.53,1.507 -0.774,0.775 -1.575,1.593 -2.383,2.434 -0.398,0.415 -0.792,0.833 -1.184,1.25 -0.754,0.801 -1.491,1.599 -2.193,2.373 -0.308,0.34 -0.615,0.68 -0.918,1.02 -0.773,0.867 -1.556,1.763 -2.394,2.743 l -0.198,0.23 c -0.176,0.206 -0.352,0.412 -0.525,0.617 -0.887,1.05 -1.784,2.138 -2.666,3.234 -0.138,0.172 -0.276,0.345 -0.413,0.518 l -0.157,0.196 c -1.037,1.303 -1.936,2.458 -2.749,3.532 -0.504,0.667 -1.029,1.374 -1.552,2.09 -0.453,0.617 -0.921,1.267 -1.474,2.045 -0.002,0.003 -0.003,0.005 -0.005,0.007 -13.97,19.658 -23.544,42.074 -28.513,66.731 -8.941,-1.423 -17.827,-3.029 -26.503,-4.792 -0.501,-0.102 -1.006,-0.152 -1.508,-0.152 -1.735,0 -3.436,0.597 -4.802,1.717 -1.763,1.444 -2.785,3.604 -2.785,5.885 v 86.143 c 0,1.462 -0.017,6.527 -0.017,8.001 v 23.311 c 0,4.198 3.396,7.601 7.587,7.601 h 29.915 l 55.4,54.979 14.279,-15.334 28.379,27.36 27.625,-28.297 15.032,16.271 56.3,-54.979 H -7.587 C -3.397,30.912 0,27.509 0,23.311 Z m -7.587,35.98 h -26.958 l -54.827,53.54 c -0.946,0.923 -2.213,1.439 -3.531,1.439 -0.043,0 -0.086,-0.001 -0.13,-0.002 -1.364,-0.035 -2.655,-0.621 -3.582,-1.624 l -11.421,-12.362 -23.908,24.49 c -0.991,1.014 -2.303,1.524 -3.617,1.524 -1.262,0 -2.526,-0.471 -3.507,-1.416 l -24.677,-23.792 -10.774,11.571 c -0.934,1.002 -2.232,1.583 -3.599,1.61 -0.034,0 -0.067,0.001 -0.1,0.001 -1.332,0 -2.612,-0.527 -3.56,-1.468 L -235.7,35.98 h -27.833 c -6.973,0 -12.646,-5.684 -12.646,-12.669 V 0 c 0,-0.741 0.005,-2.386 0.009,-4.028 0.004,-1.624 0.008,-3.246 0.008,-3.973 v -86.143 c 0,-3.817 1.692,-7.393 4.642,-9.808 2.252,-1.845 5.095,-2.861 8.004,-2.861 0.843,0 1.688,0.085 2.514,0.253 7.054,1.433 14.288,2.769 21.563,3.983 5.349,-23.48 14.866,-44.954 28.326,-63.895 0.005,-0.007 0.011,-0.014 0.016,-0.021 0.559,-0.788 1.039,-1.453 1.507,-2.092 0.537,-0.735 1.077,-1.461 1.598,-2.15 0.838,-1.108 1.762,-2.296 2.826,-3.632 l 0.154,-0.193 c 0.143,-0.18 0.287,-0.362 0.433,-0.542 0.91,-1.132 1.833,-2.251 2.742,-3.327 0.174,-0.207 0.355,-0.418 0.536,-0.628 l 0.21,-0.246 c 0.859,-1.004 1.664,-1.927 2.461,-2.82 0.311,-0.348 0.626,-0.698 0.943,-1.047 0.725,-0.8 1.485,-1.622 2.259,-2.445 0.402,-0.427 0.808,-0.858 1.217,-1.284 0.829,-0.864 1.654,-1.706 2.454,-2.507 0.518,-0.519 1.046,-1.035 1.574,-1.551 0.438,-0.428 0.875,-0.848 1.313,-1.267 0.965,-0.923 1.982,-1.873 3.021,-2.822 l 0.2,-0.182 c 0.226,-0.207 0.44,-0.402 0.655,-0.596 2.124,-1.914 4.344,-3.815 6.594,-5.648 l 0.151,-0.123 0.08,-0.064 c 1.507,-1.224 3.061,-2.444 4.605,-3.614 l 0.027,-0.02 c 8.587,-6.507 17.885,-12.307 27.636,-17.239 3.449,-1.745 6.804,-2.593 10.255,-2.593 3.456,0 6.805,0.848 10.239,2.591 9.885,5.017 19.244,10.847 27.814,17.328 0.87,0.658 1.762,1.346 2.651,2.045 l 0.066,0.052 0.027,0.021 c 0.846,0.667 1.7,1.353 2.537,2.037 l 0.11,0.091 c 0.839,0.686 1.684,1.392 2.512,2.098 l 0.051,0.043 c 7.706,6.568 14.884,13.867 21.341,21.702 l 0.06,0.073 v 0.001 c 0.004,0.006 0.01,0.012 0.015,0.018 v 0 c 0.686,0.834 1.373,1.683 2.04,2.525 l 0.091,0.115 0.035,0.044 c 0.666,0.843 1.323,1.69 1.959,2.524 l 0.061,0.08 0.072,0.095 c 0.65,0.856 1.299,1.725 1.933,2.591 l 0.032,0.044 0.051,0.069 c 0.688,0.943 1.348,1.864 1.972,2.752 0.006,0.008 0.011,0.015 0.016,0.023 2.63,3.745 5.146,7.626 7.478,11.534 9.52,15.951 16.484,33.445 20.732,52.063 7.299,-1.217 14.556,-2.556 21.633,-3.994 0.825,-0.168 1.671,-0.253 2.513,-0.253 2.909,0 5.752,1.016 8.004,2.861 2.95,2.416 4.642,5.991 4.642,9.808 v 86.143 c 0,0.7 0.004,2.302 0.008,3.92 0.005,1.659 0.009,3.335 0.009,4.081 v 23.311 c 0,6.985 -5.673,12.669 -12.645,12.669" style="fill:#c9a970;fill-opacity:1;fill-rule:nonzero;stroke:none" id="path175"></path></g><g id="g177" transform="translate(302.7355,172.4326)"><path d="m 0,0 c 0,0 3.993,-2.542 0.799,-8.788 l -4.278,-7.329 c 0,0 -2.68,-5.373 -0.653,-9.733 0,0 0.943,-1.596 1.521,-1.886 0,0 0.872,-0.144 0.148,1.45 0,0 -2.395,4.796 1.817,10.891 0,0 4.272,6.102 4.207,7.843 0,0 0.212,1.672 0.065,2.615 0,0 3.85,-1.16 3.2,-7.409 0,0 -0.149,-3.337 -4.135,-8.497 0,0 -1.48,-2.437 0,-4.352 0,0 0.935,-1.018 0.725,0.36 0,0 0.287,2.979 2.754,6.245 0,0 3.121,4.142 2.467,8.136 0,0 4.276,-4.501 2.101,-12.926 0,0 -2.323,-9.297 -12.762,-7.699 0,0 -10.37,1.455 -8.558,15.248 0,0 0.954,5.101 6.267,8.803 0,0 3.955,3.826 4.315,7.028" style="fill:#ffffff;fill-opacity:1;fill-rule:nonzero;stroke:none" id="path179"></path></g><g id="g181" transform="translate(290.7786,157.9843)"><path d="m 0,0 c 0,0 -3.265,-7.987 3.619,-14.888 0,0 -7.245,0.434 -7.532,9.218 0,0 0.287,4.218 3.913,5.67" style="fill:#ffffff;fill-opacity:1;fill-rule:nonzero;stroke:none" id="path183"></path></g><g id="g185" transform="translate(315.2148,157.9843)"><path d="m 0,0 c 0,0 3.258,-7.987 -3.627,-14.888 0,0 7.247,0.434 7.539,9.218 0,0 -0.292,4.218 -3.912,5.67" style="fill:#ffffff;fill-opacity:1;fill-rule:nonzero;stroke:none" id="path187"></path></g><g id="g189" transform="translate(296.4998,185.6505)"><path d="m 0,0 c 0,0 0.657,0.801 2.389,0.801 0,0 1.455,0.067 1.236,-1.169 l -1.014,-7.55 c 0,0 -4.417,0.656 -6.957,5.156 0,0 0.069,0.733 1.086,0.659 0,0 2.539,1.809 -0.433,3.48 0,0 -1.523,1.017 -3.482,-1.232 l -8.333,-10.166 3.119,-0.073 4.852,5.808 c 0,0 1.018,0.508 1.018,-0.434 l -11.452,-13.876 3.334,0.075 9.784,11.185 c 0,0 0.726,0.513 0.576,-0.29 l -13.335,-16.261 3.404,-0.077 12.252,14.379 c 0,0 1.015,0.508 0.872,-0.436 l -14.86,-17.792 3.335,-0.145 14.348,16.997 c 0,0 1.017,0.354 0.725,-0.585 l -16.958,-20.407 3.335,-0.142 16.749,19.965 c 0,0 1.008,0.725 1.88,0 l 16.684,-19.965 3.254,0.07 -16.965,20.697 c 0,0 -0.143,0.652 0.724,0.367 l 14.575,-17.147 3.191,0.15 -14.932,18.153 c 0,0 -0.072,0.799 0.726,0.583 l 12.612,-14.597 3.117,-0.068 -13.412,16.261 c 0,0 -0.289,1.163 1.016,0.579 l 9.713,-11.474 3.188,0.221 -11.379,13.58 c 0,0 -0.14,0.872 0.799,0.58 l 5.002,-5.733 h 2.973 L 19.442,0.801 c 0,0 -2.398,2.176 -4.28,-0.512 0,0 -0.656,-1.379 1.089,-2.177 0,0 1.234,-0.07 0.723,-1.235 0,0 -1.304,-2.541 -5.293,-4.503 0,0 -1.238,-0.65 -1.672,0.873 L 7.91,1.159 c 0,0 0.214,0.654 0.721,0.873 L 9.72,2.757 6.457,2.906 4.935,1.961 c 0,0 -0.723,-0.584 -1.162,0.796 0,0 -2.464,0.802 -3.478,-0.576 C 0.295,2.181 -0.217,0.868 0,0" style="fill:#ffffff;fill-opacity:1;fill-rule:nonzero;stroke:none" id="path191"></path></g><g id="g193" transform="translate(311.8042,128.3949)"><path d="M 0,0 -3.502,-4.04 H 1.51 v -2.145 h -8.43 v 1.962 l 4.73,5.47 c 0.613,0.715 0.846,1.247 0.846,1.978 0,1.131 -0.548,1.812 -1.544,1.812 -0.995,0 -1.56,-0.664 -1.56,-1.812 V 2.743 h -2.655 v 0.482 c 0,2.178 1.493,3.974 4.215,3.974 2.722,0 4.199,-1.796 4.199,-3.974 C 1.311,1.879 0.996,1.147 0,0" style="fill:#ffffff;fill-opacity:1;fill-rule:nonzero;stroke:none" id="path195"></path></g><g id="g197" transform="translate(318.0439,122.2094)"><path d="m 0,0 v 10.608 l -2.821,-1.28 v 2.361 l 3.203,1.463 H 2.655 V 0 Z" style="fill:#ffffff;fill-opacity:1;fill-rule:nonzero;stroke:none" id="path199"></path></g><g id="g201" transform="translate(292.3932,128.3954)"><path d="M 0,0 -3.502,-4.04 H 1.51 v -2.145 h -8.43 v 1.962 l 4.73,5.47 c 0.613,0.714 0.846,1.247 0.846,1.978 0,1.131 -0.548,1.812 -1.544,1.812 -0.995,0 -1.56,-0.664 -1.56,-1.812 V 2.743 h -2.655 v 0.482 c 0,2.178 1.493,3.974 4.215,3.974 2.722,0 4.199,-1.796 4.199,-3.974 C 1.311,1.879 0.996,1.147 0,0" style="fill:#ffffff;fill-opacity:1;fill-rule:nonzero;stroke:none" id="path203"></path></g><g id="g205" transform="translate(297.6535,124.7874)"><path d="m 0,0 c 0.315,-0.449 0.73,-0.648 1.311,-0.648 0.565,0 0.98,0.199 1.312,0.648 0.431,0.632 0.563,1.779 0.563,4.007 0,2.211 -0.132,3.358 -0.563,3.99 C 2.291,8.446 1.876,8.645 1.311,8.645 0.73,8.645 0.315,8.446 0,7.997 -0.431,7.365 -0.564,6.218 -0.564,4.007 -0.564,1.779 -0.431,0.632 0,0 M 4.465,-1.563 C 3.751,-2.394 2.689,-2.81 1.311,-2.81 c -1.377,0 -2.439,0.416 -3.153,1.247 -0.946,1.081 -1.377,2.727 -1.377,5.57 0,2.826 0.431,4.472 1.377,5.553 0.714,0.831 1.776,1.247 3.153,1.247 1.378,0 2.44,-0.416 3.154,-1.247 0.929,-1.081 1.377,-2.727 1.377,-5.553 0,-2.843 -0.448,-4.489 -1.377,-5.57" style="fill:#ffffff;fill-opacity:1;fill-rule:nonzero;stroke:none" id="path207"></path></g><g id="g209" transform="translate(381.4806,358.2056)"><path d="m 0,0 -4.338,2.198 -0.145,0.073 -0.114,0.115 -8.672,8.711 -0.096,0.097 -0.067,0.119 -1.5,2.649 -10.337,8.038 -0.107,0.084 -0.081,0.108 -4.19,5.578 -5.32,4.984 -1.217,-1.14 -1.325,-2.002 -0.127,-0.192 -0.197,-0.118 -2.157,-1.293 -2.539,-4.009 -0.13,-0.205 -0.209,-0.124 -4.882,-2.894 -2.367,-2.217 -0.51,-0.479 -0.628,0.31 -2.746,1.357 -0.151,0.075 -0.119,0.119 -4.903,4.937 -2.9,2.593 -4.944,2.897 -0.179,0.105 -0.123,0.167 -6.546,8.876 -4.748,4.449 -7.772,-9.479 -0.061,-0.074 -0.074,-0.062 -7.707,-6.432 -0.148,-0.124 -0.183,-0.06 -2.386,-0.787 -4.833,-5.302 -3.379,-5.288 -0.774,-1.21 -0.878,1.136 -5.006,6.476 -4.982,2.918 -0.158,0.093 -0.116,0.142 -5.396,6.639 -11.887,-14.156 -0.303,-0.361 h -0.471 -3.828 l -8.262,-9.308 -0.05,-0.057 -0.059,-0.048 -10.199,-8.512 -7.73,-9.633 9.921,4.794 10.501,7.25 7.219,8.604 0.134,0.16 0.187,0.094 4.149,2.082 9.999,9.369 0.692,0.647 0.69,-0.647 4.619,-4.327 3.846,-1.747 0.37,-0.168 0.151,-0.379 1.713,-4.288 0.345,-0.864 -0.83,-0.418 -5.944,-2.996 -3.022,-6.192 -0.049,-0.099 -0.068,-0.086 -4.284,-5.404 6.61,1.896 4.608,6.849 0.143,0.213 0.228,0.119 10.047,5.24 4.138,6.216 0.081,0.122 0.113,0.094 5.139,4.289 0.028,0.024 0.031,0.022 5.91,4.227 8.386,9.124 0.598,0.652 0.725,-0.507 3.961,-2.769 0.138,-0.096 0.099,-0.136 4.631,-6.324 6.172,-4.939 0.129,-0.104 0.09,-0.139 2.169,-3.371 7.848,-5.108 0.111,-0.072 0.089,-0.098 4.976,-5.525 3.378,-1.609 0.21,-0.1 0.146,-0.183 4.752,-5.948 6.173,-2.349 -2.616,4.177 -0.021,0.034 -0.019,0.036 -3.362,6.443 -1.769,1.891 -3.018,2.166 -0.198,0.142 -0.112,0.216 -1.1,2.132 -0.351,0.681 0.559,0.524 3.28,3.074 0.112,0.104 0.136,0.067 2.76,1.346 1.169,2.312 0.081,0.159 0.13,0.123 1.741,1.631 0.642,0.601 0.684,-0.553 2.931,-2.37 0.14,-0.113 0.093,-0.154 2.125,-3.548 5.64,-3.607 4.008,-2.563 0.205,-0.131 0.123,-0.21 2.061,-3.517 8.722,-6.923 0.113,-0.09 0.084,-0.118 2.289,-3.24 7.109,-2.837 0.012,-0.005 0.011,-0.004 6.95,-2.98 -2.888,3.778 z" style="fill:#c9a970;fill-opacity:1;fill-rule:nonzero;stroke:none" id="path211"></path></g><path d="M 430.968,341.5 H 175.022 v -23.311 h 255.946 z" style="fill:#c9a970;fill-opacity:1;fill-rule:nonzero;stroke:none" id="path213"></path><g id="g215" transform="translate(197.3689,335.5417)"><path d="M 0,0 C 2.813,0 4.423,-1.545 4.505,-4.09 H 1.57 C 1.529,-3.009 1.037,-2.367 0,-2.367 c -1.079,0 -1.639,-0.574 -1.639,-3.323 0,-2.667 0.492,-3.351 1.707,-3.351 1.024,0 1.611,0.697 1.652,1.805 H 0.041 v 1.956 h 4.451 v -5.923 H 2.389 l -0.259,1.191 c -0.369,-0.849 -1.338,-1.382 -2.54,-1.382 -2.84,0 -4.191,2.174 -4.191,5.704 C -4.601,-2.202 -3.318,0 0,0" style="fill:#002749;fill-opacity:1;fill-rule:nonzero;stroke:none" id="path217"></path></g><path d="m 211.969,324.339 h -2.963 v 11.012 h 2.963 z" style="fill:#002749;fill-opacity:1;fill-rule:nonzero;stroke:none" id="path219"></path><g id="g221" transform="translate(223.8632,324.3386)"><path d="M 0,0 -1.871,4.98 V 0 H -4.71 v 11.012 h 2.744 l 3.045,-8.084 3.045,8.084 h 2.73 V 0 H 4.014 V 4.98 L 2.144,0 Z" style="fill:#002749;fill-opacity:1;fill-rule:nonzero;stroke:none" id="path223"></path></g><g id="g225" transform="translate(238.9282,334.215)"><path d="m 0,0 c 0.778,0.889 1.925,1.327 3.399,1.327 2.813,0 4.424,-1.546 4.506,-4.09 H 4.97 C 4.929,-1.682 4.437,-1.04 3.399,-1.04 2.867,-1.04 2.498,-1.217 2.212,-1.628 1.87,-2.12 1.761,-2.873 1.761,-4.363 c 0,-1.519 0.109,-2.257 0.451,-2.764 0.286,-0.41 0.655,-0.588 1.187,-0.588 1.038,0 1.543,0.657 1.571,1.723 h 2.935 c -0.082,-2.543 -1.693,-4.075 -4.506,-4.075 -1.474,0 -2.621,0.437 -3.399,1.326 -0.902,1.026 -1.202,2.49 -1.202,4.378 0,1.86 0.3,3.337 1.202,4.363" style="fill:#002749;fill-opacity:1;fill-rule:nonzero;stroke:none" id="path227"></path></g><g id="g229" transform="translate(259.1255,328.7985)"><path d="M 0,0 H -2.362 V -4.46 H -5.325 V 6.552 h 2.963 V 2.367 H 0 V 6.552 H 2.963 V -4.46 H 0 Z" style="fill:#002749;fill-opacity:1;fill-rule:nonzero;stroke:none" id="path231"></path></g><g id="g233" transform="translate(269.2879,335.3507)"><path d="M 0,0 H 7.155 V -2.353 H 2.963 V -4.186 H 6.595 V -6.552 H 2.963 v -2.121 h 4.274 v -2.339 H 0 Z" style="fill:#002749;fill-opacity:1;fill-rule:nonzero;stroke:none" id="path235"></path></g><g id="g237" transform="translate(289.1028,332.5874)"><path d="M 0,0 C -0.287,0.41 -0.669,0.588 -1.201,0.588 -1.734,0.588 -2.103,0.41 -2.389,0 -2.731,-0.492 -2.84,-1.259 -2.84,-2.736 c 0,-1.504 0.109,-2.257 0.451,-2.763 0.286,-0.41 0.655,-0.588 1.188,-0.588 0.532,0 0.914,0.178 1.201,0.588 0.328,0.506 0.437,1.259 0.437,2.763 C 0.437,-1.259 0.328,-0.492 0,0 M 2.212,-7.113 C 1.434,-8.002 0.273,-8.44 -1.201,-8.44 c -1.475,0 -2.622,0.438 -3.4,1.327 -0.901,1.026 -1.202,2.49 -1.202,4.377 0,1.861 0.301,3.338 1.202,4.364 0.778,0.889 1.925,1.326 3.4,1.326 1.474,0 2.635,-0.437 3.413,-1.326 0.887,-1.026 1.187,-2.503 1.187,-4.364 0,-1.887 -0.3,-3.351 -1.187,-4.377" style="fill:#002749;fill-opacity:1;fill-rule:nonzero;stroke:none" id="path239"></path></g><g id="g241" transform="translate(302.3649,330.3574)"><path d="M 0,0 V -6.019 H -2.854 V 4.993 H 0 L 2.731,-1.039 V 4.993 H 5.584 V -6.019 H 2.731 Z" style="fill:#002749;fill-opacity:1;fill-rule:nonzero;stroke:none" id="path243"></path></g><g id="g245" transform="translate(327.2109,324.1476)"><path d="m 0,0 c -2.676,0 -4.137,1.395 -4.137,3.338 v 0.218 h 2.95 V 3.31 c 0,-0.643 0.395,-1.081 1.187,-1.081 0.792,0 1.188,0.438 1.188,1.081 0,0.643 -0.369,1.026 -1.42,1.231 l -0.833,0.178 c -1.884,0.369 -3.167,1.382 -3.167,3.392 0,1.888 1.474,3.283 3.973,3.283 2.58,0 3.973,-1.45 3.973,-3.146 V 8.057 H 0.765 v 0.191 c 0,0.561 -0.369,0.903 -1.024,0.903 -0.669,0 -1.024,-0.342 -1.024,-0.903 0,-0.615 0.409,-0.957 1.461,-1.176 L 1.011,6.921 C 3.004,6.511 4.137,5.403 4.137,3.447 4.137,1.463 2.758,0 0,0" style="fill:#002749;fill-opacity:1;fill-rule:nonzero;stroke:none" id="path247"></path></g><g id="g249" transform="translate(342.4794,332.1499)"><path d="M 0,0 -0.983,-3.83 H 0.97 Z M 1.488,3.201 4.956,-7.811 H 1.98 l -0.451,1.764 h -3.072 l -0.45,-1.764 h -2.963 l 3.468,11.012 z" style="fill:#002749;fill-opacity:1;fill-rule:nonzero;stroke:none" id="path251"></path></g><g id="g253" transform="translate(356.9156,330.3574)"><path d="M 0,0 V -6.019 H -2.854 V 4.993 H 0 L 2.731,-1.039 V 4.993 H 5.584 V -6.019 H 2.731 Z" style="fill:#002749;fill-opacity:1;fill-rule:nonzero;stroke:none" id="path255"></path></g><g id="g257" transform="translate(374.1091,335.5417)"><path d="M 0,0 C 2.813,0 4.424,-1.545 4.505,-4.09 H 1.57 C 1.529,-3.009 1.038,-2.367 0,-2.367 c -1.079,0 -1.639,-0.574 -1.639,-3.323 0,-2.667 0.492,-3.351 1.707,-3.351 1.024,0 1.611,0.697 1.652,1.805 H 0.041 v 1.956 h 4.451 v -5.923 H 2.389 l -0.259,1.191 c -0.369,-0.849 -1.338,-1.382 -2.54,-1.382 -2.84,0 -4.191,2.174 -4.191,5.704 C -4.601,-2.202 -3.318,0 0,0" style="fill:#002749;fill-opacity:1;fill-rule:nonzero;stroke:none" id="path259"></path></g><g id="g261" transform="translate(390.4565,324.3386)"><path d="M 0,0 -1.871,4.98 V 0 h -2.84 v 11.012 h 2.745 L 1.079,2.928 4.123,11.012 H 6.854 V 0 H 4.014 V 4.98 L 2.144,0 Z" style="fill:#002749;fill-opacity:1;fill-rule:nonzero;stroke:none" id="path263"></path></g><g id="g265" transform="translate(404.4563,328.4561)"><path d="m 0,0 v 6.895 h 2.949 v -7.073 c 0,-1.244 0.519,-1.778 1.434,-1.778 0.914,0 1.433,0.534 1.433,1.778 V 6.895 H 8.765 V 0 C 8.765,-2.667 7.373,-4.308 4.383,-4.308 1.393,-4.308 0,-2.667 0,0" style="fill:#002749;fill-opacity:1;fill-rule:nonzero;stroke:none" id="path267"></path></g><g id="g269" transform="translate(222.2874,223.4986)"><path d="M 0,0 H 11.628 V -4.053 H 4.473 v -3.542 h 6.942 v -3.734 H 4.473 V -19.18 H 0 Z" style="fill:#c9a970;fill-opacity:1;fill-rule:nonzero;stroke:none" id="path271"></path></g><g id="g273" transform="translate(239.6668,209.0334)"><path d="m 0,0 c 0,-0.832 0.66,-1.28 1.491,-1.28 0.83,0 1.49,0.448 1.49,1.28 v 9.75 c 0,0.832 -0.66,1.281 -1.49,1.281 C 0.66,11.031 0,10.582 0,9.75 Z m -4.43,10.455 c 0,3.264 2.662,4.437 5.921,4.437 3.258,0 5.92,-1.173 5.92,-4.437 V -0.704 c 0,-3.265 -2.662,-4.438 -5.92,-4.438 -3.259,0 -5.921,1.173 -5.921,4.438 z" style="fill:#c9a970;fill-opacity:1;fill-rule:nonzero;stroke:none" id="path275"></path></g><g id="g277" transform="translate(252.9995,209.0334)"><path d="m 0,0 c 0,-0.832 0.66,-1.28 1.491,-1.28 0.83,0 1.491,0.448 1.491,1.28 v 9.75 c 0,0.832 -0.661,1.281 -1.491,1.281 C 0.66,11.031 0,10.582 0,9.75 Z m -4.43,10.455 c 0,3.264 2.662,4.437 5.921,4.437 3.258,0 5.92,-1.173 5.92,-4.437 V -0.704 c 0,-3.265 -2.662,-4.438 -5.92,-4.438 -3.259,0 -5.921,1.173 -5.921,4.438 z" style="fill:#c9a970;fill-opacity:1;fill-rule:nonzero;stroke:none" id="path279"></path></g><g id="g281" transform="translate(272.8916,223.4986)"><path d="M 0,0 V -3.947 H -3.471 V -19.18 h -4.686 v 15.233 h -3.471 V 0 Z" style="fill:#c9a970;fill-opacity:1;fill-rule:nonzero;stroke:none" id="path283"></path></g><g id="g285" transform="translate(278.6855,208.9908)"><path d="M 0,0 1.299,-0.256 C 2.385,-0.491 3.003,-0.384 3.003,0.661 V 2.56 c 0,0.918 -0.81,1.067 -1.491,1.067 H 0 Z M 1.512,10.668 H 0 V 7.254 H 1.512 C 2.428,7.276 2.79,7.702 2.79,8.748 v 0.426 c 0,0.918 -0.256,1.494 -1.278,1.494 M 0,-3.819 v -0.853 h -4.472 v 19.18 h 7.368 c 2.79,0 4.195,-0.512 4.259,-3.414 V 8.47 C 7.155,7.083 5.899,5.739 4.281,5.675 5.942,5.569 7.368,4.139 7.368,2.646 v -3.905 c 0,-2.645 -1.043,-3.883 -4.259,-3.2 z" style="fill:#c9a970;fill-opacity:1;fill-rule:nonzero;stroke:none" id="path287"></path></g><g id="g289" transform="translate(292.636,211.3803)"><path d="M 0,0 H 2.236 L 1.128,8.769 Z m -0.895,-7.062 h -4.472 l 2.662,19.18 H 4.961 L 7.624,-7.062 H 3.152 L 2.726,-3.84 H -0.49 Z" style="fill:#c9a970;fill-opacity:1;fill-rule:nonzero;stroke:none" id="path291"></path></g><g id="g293" transform="translate(313.0601,208.3723)"><path d="m 0,0 v -4.054 h -11.628 v 19.18 h 4.686 V 0 Z" style="fill:#c9a970;fill-opacity:1;fill-rule:nonzero;stroke:none" id="path295"></path></g><g id="g297" transform="translate(325.9029,208.3723)"><path d="m 0,0 v -4.054 h -11.627 v 19.18 h 4.685 L -6.942,0 Z" style="fill:#c9a970;fill-opacity:1;fill-rule:nonzero;stroke:none" id="path299"></path></g><g id="g301" transform="translate(343.1121,211.2094)"><path d="m 0,0 v -2.88 c 0,-3.265 -2.662,-4.438 -5.92,-4.438 -3.259,0 -6.027,1.173 -6.027,4.438 V 8.279 c 0,3.264 2.662,4.437 5.92,4.437 3.258,0 5.92,-1.173 5.92,-4.437 V 6.081 h -4.472 v 1.493 c 0,0.832 -0.617,1.281 -1.448,1.281 -0.83,0 -1.448,-0.449 -1.448,-1.281 v -9.75 c 0,-0.832 0.618,-1.28 1.448,-1.28 0.831,0 1.448,0.448 1.448,1.28 l 0,2.176 z" style="fill:#c9a970;fill-opacity:1;fill-rule:nonzero;stroke:none" id="path303"></path></g><g id="g305" transform="translate(356.2746,208.3723)"><path d="m 0,0 v -4.054 h -11.628 v 19.18 h 4.685 L -6.943,0 Z" style="fill:#c9a970;fill-opacity:1;fill-rule:nonzero;stroke:none" id="path307"></path></g><g id="g309" transform="translate(369.3303,223.4986)"><path d="m 0,0 v -15.169 c 0,-3.265 -2.662,-4.438 -5.921,-4.438 -3.258,0 -5.919,1.173 -5.919,4.438 V 0 h 4.493 v -14.465 c 0,-0.832 0.596,-1.28 1.426,-1.28 0.831,0 1.427,0.448 1.427,1.28 V 0 Z" style="fill:#c9a970;fill-opacity:1;fill-rule:nonzero;stroke:none" id="path311"></path></g><g id="g313" transform="translate(375.2944,208.9908)"><path d="M 0,0 1.299,-0.256 C 2.386,-0.491 3.003,-0.384 3.003,0.661 V 2.56 c 0,0.918 -0.81,1.067 -1.491,1.067 H 0 Z M 1.512,10.668 H 0 V 7.254 H 1.512 C 2.428,7.276 2.79,7.702 2.79,8.748 v 0.426 c 0,0.918 -0.255,1.494 -1.278,1.494 M 0,-3.819 v -0.853 h -4.472 v 19.18 h 7.368 c 2.79,0 4.196,-0.512 4.26,-3.414 V 8.47 C 7.156,7.083 5.899,5.739 4.281,5.675 5.942,5.569 7.368,4.139 7.368,2.646 v -3.905 c 0,-2.645 -1.043,-3.883 -4.258,-3.2 z" style="fill:#c9a970;fill-opacity:1;fill-rule:nonzero;stroke:none" id="path315"></path></g><g id="g317" transform="translate(175.039,309.8759)"><path d="M 0,0 H 36.026 C 36.016,-3.728 36.011,-5.591 36.001,-9.319 36.131,-32.241 21.128,-42.874 0,-45.026 v 14.614 c 10.584,0.751 22.332,3.938 22.353,16.497 C 14.901,-14.131 7.451,-14.363 0,-14.612 Z" style="fill:#ffffff;fill-opacity:1;fill-rule:nonzero;stroke:none" id="path319"></path></g><g id="g321" transform="translate(216.846,309.8759)"><path d="M 0,0 H 15.124 C 15.081,-13.457 15.038,-26.915 14.996,-40.372 9.955,-40.663 4.914,-40.989 -0.123,-41.349 -0.082,-27.566 -0.041,-13.783 0,0" style="fill:#ffffff;fill-opacity:1;fill-rule:nonzero;stroke:none" id="path323"></path></g><g id="g325" transform="translate(373.9543,266.8789)"><path d="m 0,0 c 19.04,-1.235 38.029,-2.889 56.996,-4.97 v -16.44 c -6.938,1.051 -13.889,2.016 -20.851,2.895 0.014,-6.919 0.027,-13.839 0.041,-20.759 -5.031,0.857 -10.078,1.649 -15.129,2.373 -0.019,6.721 -0.037,13.44 -0.056,20.161 -6.976,0.754 -13.962,1.422 -20.954,2.004 C 0.031,-9.824 0.015,-4.912 0,0" style="fill:#ffffff;fill-opacity:1;fill-rule:nonzero;stroke:none" id="path327"></path></g><g id="g329" transform="translate(346.4836,309.8759)"><path d="m 0,0 h 14.788 c 0.016,-5.507 0.025,-8.26 0.041,-13.768 2.798,-0.046 4.196,-0.071 6.993,-0.123 0.015,-4.739 0.03,-9.478 0.045,-14.217 -2.798,0.106 -4.196,0.155 -6.995,0.249 0.017,-5.411 0.025,-8.116 0.042,-13.527 -4.934,0.249 -9.872,0.464 -14.809,0.644 C 0.07,-27.161 0.035,-13.581 0,0" style="fill:#ffffff;fill-opacity:1;fill-rule:nonzero;stroke:none" id="path331"></path></g><g id="g333" transform="translate(302.7938,283.2296)"><path d="m 0,0 c 9.208,2.644 12.813,12.94 12.707,21.589 -0.001,2.023 -0.002,3.034 -0.004,5.057 h 14.652 c 0.004,-2.035 0.006,-3.053 0.01,-5.089 C 27.039,12.57 31.248,3.473 40.124,0.336 40.135,-4.431 40.147,-9.199 40.159,-13.966 32.12,-11.948 24.82,-7.025 20.132,-0.191 15.867,-7.527 7.952,-11.947 0,-14.062 0,-8.437 0,-5.625 0,0" style="fill:#ffffff;fill-opacity:1;fill-rule:nonzero;stroke:none" id="path335"></path></g><g id="g337" transform="translate(272.6953,290.2009)"><path d="M 0,0 C 3.849,0.049 5.773,0.069 9.623,0.102 9.632,6.627 9.641,13.151 9.65,19.675 H 24.437 C 24.43,3.613 24.424,-12.448 24.417,-28.51 19.473,-28.536 14.526,-28.603 9.583,-28.712 9.59,-23.27 9.598,-17.827 9.605,-12.385 5.753,-12.439 3.827,-12.473 -0.024,-12.553 -0.015,-7.531 -0.01,-5.021 0,0" style="fill:#ffffff;fill-opacity:1;fill-rule:nonzero;stroke:none" id="path339"></path></g><g id="g341" transform="translate(276.6159,261.3517)"><path d="m 0,0 c -7.658,0.808 -15.367,3.978 -20.05,10.296 -4.284,-6.734 -11.94,-10.343 -19.415,-12.168 0.017,5.56 0.026,8.34 0.044,13.9 8.19,1.751 12.491,8.038 12.29,16.4 0.001,0.544 0.002,0.817 0.004,1.361 -4.897,-0.102 -7.344,-0.159 -12.239,-0.284 0.017,5.495 0.026,8.242 0.043,13.736 4.867,0.035 7.301,0.051 12.168,0.079 0.006,2.082 0.009,3.123 0.015,5.204 h 14.519 c -0.005,-2.052 -0.007,-3.079 -0.012,-5.131 4.814,0.02 7.221,0.029 12.035,0.043 -0.009,-5.293 -0.014,-7.939 -0.023,-13.232 -4.898,-0.051 -7.348,-0.083 -12.245,-0.158 -0.002,-0.537 -0.002,-0.805 -0.004,-1.342 C -13.407,20.517 -7.984,14.322 0.023,13.384 0.014,8.03 0.009,5.353 0,0" style="fill:#ffffff;fill-opacity:1;fill-rule:nonzero;stroke:none" id="path343"></path></g><g id="g345" transform="translate(189.8585,241.5751)"><path d="m 0,0 c 8.98,1.716 17.973,3.29 27.001,4.73 0.006,2.281 0.01,3.421 0.016,5.702 C 18.001,9.508 9.003,8.475 0.011,7.332 0.007,4.399 0.004,2.933 0,0 m -14.82,18.964 c 18.897,2.133 37.817,3.83 56.791,5.099 C 41.937,13.335 41.903,2.608 41.869,-8.12 36.892,-8.663 31.918,-9.271 26.957,-9.941 c 0.003,0.871 0.004,1.307 0.006,2.179 -14.032,-2.627 -27.94,-5.672 -41.783,-9.167 z" style="fill:#ffffff;fill-opacity:1;fill-rule:nonzero;stroke:none" id="path347"></path></g><g id="g349" transform="translate(297.1025,237.351)"><path d="m 0,0 c -19.359,-0.275 -38.628,-1.311 -57.905,-3.115 0.024,7.781 0.049,15.562 0.073,23.343 5.233,0.362 10.472,0.676 15.711,0.94 -0.011,-3.948 -0.016,-5.922 -0.027,-9.87 14.045,0.806 28.085,1.288 42.153,1.447 C 0.003,7.647 0.002,5.098 0,0" style="fill:#ffffff;fill-opacity:1;fill-rule:nonzero;stroke:none" id="path351"></path></g><g id="g353" transform="translate(345.1608,247.5616)"><path d="M 0,0 C 1.887,-0.104 3.166,0.455 3.161,2.36 3.155,4.503 1.874,5.05 -0.013,5.145 -7.847,5.511 -15.679,5.795 -23.519,6 c -1.619,0.036 -2.9,-0.408 -2.898,-2.511 0.002,-1.869 1.285,-2.518 2.904,-2.558 C -15.669,0.709 -7.836,0.398 0,0 M -28.252,17.77 C -17.249,17.592 -6.257,17.275 4.739,16.818 12.398,16.14 17.924,8.739 17.977,1.382 18.03,-5.821 12.291,-12.545 4.818,-12.283 c -11.01,0.75 -22.012,1.27 -33.043,1.56 -7.731,-0.154 -13.09,7.546 -13.104,14.366 -0.015,6.799 5.268,14.591 13.077,14.127" style="fill:#ffffff;fill-opacity:1;fill-rule:nonzero;stroke:none" id="path355"></path></g><g id="g357" transform="translate(388.3354,287.7676)"><path d="M 0,0 C 9.402,-0.366 18.801,-0.777 28.198,-1.234 28.194,2.09 28.191,3.753 28.187,7.077 18.784,7.372 9.381,7.637 -0.023,7.872 -0.014,4.723 -0.009,3.149 0,0 m -14.518,22.108 h 57.133 v -39.454 c -18.986,1.711 -37.985,3.072 -57.02,4.088 -0.038,11.789 -0.075,23.578 -0.113,35.366" style="fill:#ffffff;fill-opacity:1;fill-rule:nonzero;stroke:none" id="path359"></path></g><g id="g361" transform="translate(237.7437,194.5283)"><path d="m 0,0 v -35.463 c 0.944,-1.329 1.907,-2.65 2.898,-3.96 7.149,-9.451 15.107,-17.935 23.846,-25.486 V 10e-4 C 17.829,0.001 8.915,0.001 0,0" style="fill:#b91d22;fill-opacity:1;fill-rule:nonzero;stroke:none" id="path363"></path></g><g id="g365" transform="translate(341.5018,194.6535)"><path d="m 0,0 v -64.93 c 10.033,8.664 18.966,18.507 26.744,29.584 V 0 C 17.829,0 8.915,0 0,0" style="fill:#b91d22;fill-opacity:1;fill-rule:nonzero;stroke:none" id="path367"></path></g><path d="m 559.575,276.769 h -38.218 v 38.217 h 38.218 z" style="fill:#b91d22;fill-opacity:1;fill-rule:nonzero;stroke:none" id="path369"></path><path d="m 559.575,331.035 h -38.218 v 38.218 h 38.218 z" style="fill:none;stroke:#808080;stroke-width:1;stroke-linecap:butt;stroke-linejoin:miter;stroke-miterlimit:10;stroke-dasharray:none;stroke-opacity:1" id="path371"></path><path d="m 559.575,219.728 h -38.218 v 38.218 h 38.218 z" style="fill:#c9a970;fill-opacity:1;fill-rule:nonzero;stroke:none" id="path373"></path><path d="m 559.575,162.023 h -38.218 v 38.218 h 38.218 z" style="fill:#002749;fill-opacity:1;fill-rule:nonzero;stroke:none" id="path375"></path><g id="g377" transform="translate(576.4678,298.4787)"><path d="m 0,0 -0.425,-0.649 c -0.766,0.543 -1.404,0.72 -2.264,0.72 -1.57,0 -2.43,-1.215 -2.43,-2.996 V -4.01 c 0,-2.088 0.943,-3.114 2.512,-3.114 1.061,0 1.781,0.39 2.336,0.873 l 0.483,-0.648 c -0.625,-0.567 -1.486,-1.015 -2.831,-1.015 -2.205,0 -3.338,1.438 -3.338,3.904 v 1.05 c 0,2.406 1.203,3.809 3.268,3.809 C -1.558,0.849 -0.708,0.542 0,0" style="fill:#000100;fill-opacity:1;fill-rule:nonzero;stroke:none" id="path379"></path></g><g id="g381" transform="translate(579.3926,296.9216)"><path d="m 0,0 c -0.201,0.401 -0.295,0.566 -0.425,1.074 v -7.301 h -0.814 v 8.504 h 1.014 l 2.878,-6.228 2.89,6.228 H 6.522 V -6.227 H 5.709 V 1.074 C 5.603,0.566 5.508,0.401 5.308,0 L 3.031,-4.812 H 2.253 Z" style="fill:#000100;fill-opacity:1;fill-rule:nonzero;stroke:none" id="path383"></path></g><g id="g385" transform="translate(590.8809,294.174)"><path d="M 0,0 V -3.479 H -0.825 V 0 L -3.75,5.024 h 0.932 L -0.4,0.755 1.958,5.024 h 0.92 z" style="fill:#000100;fill-opacity:1;fill-rule:nonzero;stroke:none" id="path387"></path></g><g id="g389" transform="translate(597.4746,295.5656)"><path d="M 0,0 3.763,-4.871 H 2.701 l -3.291,4.269 -1.085,-1.12 v -3.149 h -0.826 v 8.504 h 0.826 V -0.66 L 2.43,3.633 h 1.108 z" style="fill:#000100;fill-opacity:1;fill-rule:nonzero;stroke:none" id="path391"></path></g><path d="m 605.744,292.476 h 1.191 v -1.18 h -1.191 z m 0,5.213 h 1.191 v -1.18 h -1.191 z" style="fill:#000100;fill-opacity:1;fill-rule:nonzero;stroke:none" id="path393"></path><g id="g395" transform="translate(612.0791,298.007)"><path d="m 0,0 c 0.424,0.684 1.155,1.321 2.453,1.321 1.545,0 2.512,-0.849 2.512,-2.123 V -0.92 c 0,-0.672 -0.33,-1.521 -1.462,-1.911 1.168,-0.2 1.793,-0.99 1.793,-1.981 v -0.177 c 0,-1.215 -0.767,-2.453 -2.855,-2.453 -0.991,0 -1.922,0.306 -2.724,0.943 l 0.412,0.66 c 0.826,-0.6 1.534,-0.848 2.312,-0.848 1.487,0 2.04,0.896 2.04,1.686 v 0.153 c 0,1.286 -1.155,1.617 -1.969,1.617 H 1.557 v 0.707 h 0.99 c 1.061,0 1.581,0.884 1.581,1.616 v 0.094 c 0,0.849 -0.637,1.38 -1.663,1.38 -0.673,0 -1.333,-0.224 -1.817,-0.991 z" style="fill:#000100;fill-opacity:1;fill-rule:nonzero;stroke:none" id="path397"></path></g><g id="g399" transform="translate(623.7441,295.6242)"><path d="M 0,0 C 0,2.1 -0.696,2.96 -2.053,2.96 -3.361,2.96 -4.081,2.088 -4.081,0 v -1.345 c 0,-2.111 0.72,-2.971 2.028,-2.971 1.357,0 2.053,0.848 2.053,2.971 z m 0.85,-1.332 c 0,-2.406 -0.862,-3.728 -2.903,-3.728 -2.016,0 -2.878,1.345 -2.878,3.728 v 1.32 c 0,2.383 0.897,3.716 2.878,3.716 2.006,0 2.903,-1.333 2.903,-3.716 z" style="fill:#000100;fill-opacity:1;fill-rule:nonzero;stroke:none" id="path401"></path></g><g id="g403" transform="translate(629.7129,299.9533)"><path d="m 0,0 -3.563,-10.427 h -0.79 L -0.803,0 Z" style="fill:#000100;fill-opacity:1;fill-rule:nonzero;stroke:none" id="path405"></path></g><g id="g407" transform="translate(633.498,290.6945)"><path d="M 0,0 V 7.466 L -2.052,6.215 -2.43,6.876 0.201,8.504 H 0.826 V 0 Z" style="fill:#000100;fill-opacity:1;fill-rule:nonzero;stroke:none" id="path409"></path></g><g id="g411" transform="translate(642.4863,295.6242)"><path d="M 0,0 C 0,2.1 -0.696,2.96 -2.053,2.96 -3.361,2.96 -4.081,2.088 -4.081,0 v -1.345 c 0,-2.111 0.72,-2.971 2.028,-2.971 1.357,0 2.053,0.848 2.053,2.971 z m 0.85,-1.332 c 0,-2.406 -0.862,-3.728 -2.903,-3.728 -2.016,0 -2.878,1.345 -2.878,3.728 v 1.32 c 0,2.383 0.897,3.716 2.878,3.716 2.006,0 2.903,-1.333 2.903,-3.716 z" style="fill:#000100;fill-opacity:1;fill-rule:nonzero;stroke:none" id="path413"></path></g><g id="g415" transform="translate(649.5635,295.6242)"><path d="M 0,0 C 0,2.1 -0.696,2.96 -2.053,2.96 -3.361,2.96 -4.081,2.088 -4.081,0 v -1.345 c 0,-2.111 0.72,-2.971 2.028,-2.971 1.357,0 2.053,0.848 2.053,2.971 z m 0.85,-1.332 c 0,-2.406 -0.862,-3.728 -2.903,-3.728 -2.016,0 -2.878,1.345 -2.878,3.728 v 1.32 c 0,2.383 0.897,3.716 2.878,3.716 2.006,0 2.903,-1.333 2.903,-3.716 z" style="fill:#000100;fill-opacity:1;fill-rule:nonzero;stroke:none" id="path417"></path></g><g id="g419" transform="translate(655.5322,299.9533)"><path d="m 0,0 -3.563,-10.427 h -0.79 L -0.803,0 Z" style="fill:#000100;fill-opacity:1;fill-rule:nonzero;stroke:none" id="path421"></path></g><g id="g423" transform="translate(659.3174,290.6945)"><path d="M 0,0 V 7.466 L -2.052,6.215 -2.43,6.876 0.201,8.504 H 0.826 V 0 Z" style="fill:#000100;fill-opacity:1;fill-rule:nonzero;stroke:none" id="path425"></path></g><g id="g427" transform="translate(668.3057,295.6242)"><path d="M 0,0 C 0,2.1 -0.696,2.96 -2.053,2.96 -3.361,2.96 -4.081,2.088 -4.081,0 v -1.345 c 0,-2.111 0.72,-2.971 2.028,-2.971 1.357,0 2.053,0.848 2.053,2.971 z m 0.85,-1.332 c 0,-2.406 -0.862,-3.728 -2.903,-3.728 -2.016,0 -2.878,1.345 -2.878,3.728 v 1.32 c 0,2.383 0.897,3.716 2.878,3.716 2.006,0 2.903,-1.333 2.903,-3.716 z" style="fill:#000100;fill-opacity:1;fill-rule:nonzero;stroke:none" id="path429"></path></g><g id="g431" transform="translate(675.3828,295.6242)"><path d="M 0,0 C 0,2.1 -0.696,2.96 -2.053,2.96 -3.361,2.96 -4.081,2.088 -4.081,0 v -1.345 c 0,-2.111 0.72,-2.971 2.028,-2.971 1.357,0 2.053,0.848 2.053,2.971 z m 0.85,-1.332 c 0,-2.406 -0.862,-3.728 -2.903,-3.728 -2.016,0 -2.878,1.345 -2.878,3.728 v 1.32 c 0,2.383 0.897,3.716 2.878,3.716 2.006,0 2.903,-1.333 2.903,-3.716 z" style="fill:#000100;fill-opacity:1;fill-rule:nonzero;stroke:none" id="path433"></path></g><g id="g435" transform="translate(681.3516,299.9533)"><path d="m 0,0 -3.563,-10.427 h -0.79 L -0.803,0 Z" style="fill:#000100;fill-opacity:1;fill-rule:nonzero;stroke:none" id="path437"></path></g><g id="g439" transform="translate(687.0479,295.6242)"><path d="M 0,0 C 0,2.1 -0.696,2.96 -2.053,2.96 -3.361,2.96 -4.081,2.088 -4.081,0 v -1.345 c 0,-2.111 0.72,-2.971 2.028,-2.971 1.357,0 2.053,0.848 2.053,2.971 z m 0.85,-1.332 c 0,-2.406 -0.862,-3.728 -2.903,-3.728 -2.016,0 -2.878,1.345 -2.878,3.728 v 1.32 c 0,2.383 0.897,3.716 2.878,3.716 2.006,0 2.903,-1.333 2.903,-3.716 z" style="fill:#000100;fill-opacity:1;fill-rule:nonzero;stroke:none" id="path441"></path></g><g id="g443" transform="translate(576.4678,243.0969)"><path d="m 0,0 -0.425,-0.649 c -0.766,0.543 -1.404,0.719 -2.264,0.719 -1.57,0 -2.43,-1.215 -2.43,-2.996 v -1.085 c 0,-2.088 0.943,-3.114 2.512,-3.114 1.061,0 1.781,0.39 2.336,0.873 L 0.212,-6.9 c -0.625,-0.567 -1.486,-1.015 -2.831,-1.015 -2.205,0 -3.338,1.439 -3.338,3.904 v 1.05 c 0,2.406 1.203,3.81 3.268,3.81 C -1.558,0.849 -0.708,0.542 0,0" style="fill:#000100;fill-opacity:1;fill-rule:nonzero;stroke:none" id="path445"></path></g><g id="g447" transform="translate(579.3926,241.5393)"><path d="m 0,0 c -0.201,0.401 -0.295,0.566 -0.425,1.073 v -7.301 h -0.814 v 8.504 h 1.014 l 2.878,-6.227 2.89,6.227 H 6.522 V -6.228 H 5.709 V 1.073 C 5.603,0.566 5.508,0.401 5.308,0 L 3.031,-4.812 H 2.253 Z" style="fill:#000100;fill-opacity:1;fill-rule:nonzero;stroke:none" id="path449"></path></g><g id="g451" transform="translate(590.8809,238.7912)"><path d="M 0,0 V -3.479 H -0.825 V 0 L -3.75,5.024 h 0.932 L -0.4,0.755 1.958,5.024 h 0.92 z" style="fill:#000100;fill-opacity:1;fill-rule:nonzero;stroke:none" id="path453"></path></g><g id="g455" transform="translate(597.4746,240.1828)"><path d="M 0,0 3.763,-4.871 H 2.701 l -3.291,4.269 -1.085,-1.12 v -3.149 h -0.826 v 8.504 h 0.826 V -0.66 L 2.43,3.633 h 1.108 z" style="fill:#000100;fill-opacity:1;fill-rule:nonzero;stroke:none" id="path457"></path></g><path d="m 605.744,237.093 h 1.191 v -1.18 h -1.191 z m 0,5.213 h 1.191 v -1.18 h -1.191 z" style="fill:#000100;fill-opacity:1;fill-rule:nonzero;stroke:none" id="path459"></path><g id="g461" transform="translate(615.1689,239.7346)"><path d="m 0,0 c 0.932,1.098 1.085,1.533 1.085,1.981 v 0.095 c 0,0.85 -0.59,1.38 -1.615,1.38 -0.743,0 -1.416,-0.295 -1.971,-1.285 l -0.66,0.412 c 0.401,0.731 1.191,1.628 2.606,1.628 1.51,0 2.478,-0.849 2.478,-2.123 V 1.97 c 0,-0.92 -0.685,-1.687 -1.416,-2.535 l -2.642,-3.103 h 4.364 v -0.755 h -5.402 v 0.708 z" style="fill:#000100;fill-opacity:1;fill-rule:nonzero;stroke:none" id="path463"></path></g><g id="g465" transform="translate(623.7676,237.8713)"><path d="m 0,0 c 0,1.356 -0.695,1.958 -1.923,1.958 -0.719,0 -1.297,-0.307 -1.675,-0.673 h -0.778 l 0.272,4.659 H 0.271 V 5.189 H -3.373 L -3.503,2.1 c 0.377,0.353 1.073,0.601 1.781,0.601 1.675,0 2.536,-1.156 2.536,-2.666 v -0.177 c 0,-1.214 -0.755,-2.547 -2.878,-2.547 -1.156,0 -2.005,0.366 -2.76,0.943 l 0.425,0.673 c 0.813,-0.625 1.545,-0.862 2.335,-0.862 1.522,0 2.064,1.003 2.064,1.782 z" style="fill:#000100;fill-opacity:1;fill-rule:nonzero;stroke:none" id="path467"></path></g><g id="g469" transform="translate(629.7129,244.5705)"><path d="m 0,0 -3.563,-10.427 h -0.79 L -0.803,0 Z" style="fill:#000100;fill-opacity:1;fill-rule:nonzero;stroke:none" id="path471"></path></g><g id="g473" transform="translate(630.8213,242.6242)"><path d="m 0,0 c 0.424,0.685 1.155,1.321 2.453,1.321 1.545,0 2.512,-0.848 2.512,-2.123 V -0.92 c 0,-0.672 -0.33,-1.521 -1.462,-1.91 1.168,-0.201 1.793,-0.991 1.793,-1.982 v -0.177 c 0,-1.215 -0.767,-2.453 -2.855,-2.453 -0.991,0 -1.922,0.306 -2.724,0.943 l 0.412,0.661 c 0.826,-0.601 1.534,-0.849 2.312,-0.849 1.487,0 2.04,0.896 2.04,1.686 v 0.153 c 0,1.286 -1.155,1.617 -1.969,1.617 H 1.557 v 0.708 h 0.99 c 1.061,0 1.581,0.884 1.581,1.615 v 0.095 c 0,0.849 -0.637,1.379 -1.663,1.379 -0.673,0 -1.333,-0.223 -1.817,-0.99 z" style="fill:#000100;fill-opacity:1;fill-rule:nonzero;stroke:none" id="path475"></path></g><g id="g477" transform="translate(642.5098,237.8713)"><path d="m 0,0 c 0,1.356 -0.695,1.958 -1.923,1.958 -0.719,0 -1.297,-0.307 -1.675,-0.673 h -0.778 l 0.272,4.659 H 0.271 V 5.189 H -3.373 L -3.503,2.1 c 0.377,0.353 1.073,0.601 1.781,0.601 1.675,0 2.536,-1.156 2.536,-2.666 v -0.177 c 0,-1.214 -0.755,-2.547 -2.878,-2.547 -1.156,0 -2.005,0.366 -2.76,0.943 l 0.425,0.673 c 0.813,-0.625 1.545,-0.862 2.335,-0.862 1.522,0 2.064,1.003 2.064,1.782 z" style="fill:#000100;fill-opacity:1;fill-rule:nonzero;stroke:none" id="path479"></path></g><g id="g481" transform="translate(648.4551,244.5705)"><path d="m 0,0 -3.563,-10.427 h -0.79 L -0.803,0 Z" style="fill:#000100;fill-opacity:1;fill-rule:nonzero;stroke:none" id="path483"></path></g><g id="g485" transform="translate(650.2471,238.0598)"><path d="m 0,0 c 0,-1.273 0.802,-2.135 1.958,-2.135 1.156,0 1.993,0.732 1.993,2.005 V 0.047 C 3.951,1.321 3.008,2.029 1.97,2.029 0.979,2.029 0,1.238 0,0.153 Z M 4.022,4.636 C 3.491,4.942 2.866,5.143 2.218,5.143 c -1.593,0 -2.171,-1.333 -2.3,-3.586 0.259,0.507 0.955,1.191 2.146,1.191 1.451,0 2.702,-0.967 2.702,-2.63 v -0.283 c 0,-1.675 -1.203,-2.713 -2.785,-2.713 -1.603,0 -2.877,1.085 -2.877,3.456 v 0.283 c 0,3.657 1.191,5.025 3.125,5.025 0.767,0 1.545,-0.224 2.182,-0.578 z" style="fill:#000100;fill-opacity:1;fill-rule:nonzero;stroke:none" id="path487"></path></g><g id="g489" transform="translate(661.2285,240.2424)"><path d="M 0,0 C 0,2.1 -0.696,2.96 -2.053,2.96 -3.361,2.96 -4.081,2.087 -4.081,0 v -1.345 c 0,-2.111 0.72,-2.972 2.028,-2.972 1.357,0 2.053,0.849 2.053,2.972 z m 0.85,-1.333 c 0,-2.406 -0.862,-3.728 -2.903,-3.728 -2.016,0 -2.878,1.345 -2.878,3.728 v 1.321 c 0,2.382 0.897,3.715 2.878,3.715 2.006,0 2.903,-1.333 2.903,-3.715 z" style="fill:#000100;fill-opacity:1;fill-rule:nonzero;stroke:none" id="path491"></path></g><g id="g493" transform="translate(667.1973,244.5705)"><path d="m 0,0 -3.563,-10.427 h -0.79 L -0.803,0 Z" style="fill:#000100;fill-opacity:1;fill-rule:nonzero;stroke:none" id="path495"></path></g><g id="g497" transform="translate(672.8936,240.2424)"><path d="M 0,0 C 0,2.1 -0.696,2.96 -2.053,2.96 -3.361,2.96 -4.081,2.087 -4.081,0 v -1.345 c 0,-2.111 0.72,-2.972 2.028,-2.972 1.357,0 2.053,0.849 2.053,2.972 z m 0.85,-1.333 c 0,-2.406 -0.862,-3.728 -2.903,-3.728 -2.016,0 -2.878,1.345 -2.878,3.728 v 1.321 c 0,2.382 0.897,3.715 2.878,3.715 2.006,0 2.903,-1.333 2.903,-3.715 z" style="fill:#000100;fill-opacity:1;fill-rule:nonzero;stroke:none" id="path499"></path></g><g id="g501" transform="translate(576.4678,187.2004)"><path d="m 0,0 -0.425,-0.649 c -0.766,0.543 -1.404,0.719 -2.264,0.719 -1.57,0 -2.43,-1.215 -2.43,-2.996 v -1.085 c 0,-2.088 0.943,-3.114 2.512,-3.114 1.061,0 1.781,0.39 2.336,0.873 L 0.212,-6.9 c -0.625,-0.567 -1.486,-1.015 -2.831,-1.015 -2.205,0 -3.338,1.439 -3.338,3.904 v 1.05 c 0,2.406 1.203,3.81 3.268,3.81 C -1.558,0.849 -0.708,0.542 0,0" style="fill:#000100;fill-opacity:1;fill-rule:nonzero;stroke:none" id="path503"></path></g><g id="g505" transform="translate(579.3926,185.6428)"><path d="m 0,0 c -0.201,0.401 -0.295,0.566 -0.425,1.073 v -7.301 h -0.814 v 8.504 h 1.014 l 2.878,-6.227 2.89,6.227 H 6.522 V -6.228 H 5.709 V 1.073 C 5.603,0.566 5.508,0.401 5.308,0 L 3.031,-4.812 H 2.253 Z" style="fill:#000100;fill-opacity:1;fill-rule:nonzero;stroke:none" id="path507"></path></g><g id="g509" transform="translate(590.8809,182.8947)"><path d="M 0,0 V -3.479 H -0.825 V 0 L -3.75,5.024 h 0.932 L -0.4,0.755 1.958,5.024 h 0.92 z" style="fill:#000100;fill-opacity:1;fill-rule:nonzero;stroke:none" id="path511"></path></g><g id="g513" transform="translate(597.4746,184.2863)"><path d="M 0,0 3.763,-4.871 H 2.701 l -3.291,4.269 -1.085,-1.12 v -3.149 h -0.826 v 8.504 h 0.826 V -0.66 L 2.43,3.633 h 1.108 z" style="fill:#000100;fill-opacity:1;fill-rule:nonzero;stroke:none" id="path515"></path></g><path d="m 605.744,181.197 h 1.191 v -1.18 h -1.191 z m 0,5.212 h 1.191 v -1.18 h -1.191 z" style="fill:#000100;fill-opacity:1;fill-rule:nonzero;stroke:none" id="path517"></path><g id="g519" transform="translate(616.4902,185.136)"><path d="m 0,0 c 0,1.273 -0.803,2.17 -1.958,2.17 -1.156,0 -1.993,-0.767 -1.993,-2.04 v -0.177 c 0,-1.274 0.943,-2.006 1.981,-2.006 0.991,0 1.97,0.815 1.97,1.9 z m -4.046,-4.576 c 0.53,-0.307 1.156,-0.52 1.828,-0.52 1.746,0 2.23,1.345 2.3,3.551 -0.235,-0.496 -0.955,-1.227 -2.146,-1.227 -1.452,0 -2.702,0.991 -2.702,2.654 v 0.283 c 0,1.675 1.203,2.748 2.785,2.748 1.58,0 2.877,-1.097 2.877,-3.468 v -0.353 c 0,-3.751 -1.026,-4.943 -3.137,-4.943 -0.767,0 -1.51,0.213 -2.147,0.579 z" style="fill:#000100;fill-opacity:1;fill-rule:nonzero;stroke:none" id="path521"></path></g><g id="g523" transform="translate(623.7441,184.3459)"><path d="M 0,0 C 0,2.1 -0.696,2.96 -2.053,2.96 -3.361,2.96 -4.081,2.087 -4.081,0 v -1.345 c 0,-2.111 0.72,-2.972 2.028,-2.972 1.357,0 2.053,0.849 2.053,2.972 z m 0.85,-1.333 c 0,-2.406 -0.862,-3.728 -2.903,-3.728 -2.016,0 -2.878,1.345 -2.878,3.728 v 1.321 c 0,2.382 0.897,3.715 2.878,3.715 2.006,0 2.903,-1.333 2.903,-3.715 z" style="fill:#000100;fill-opacity:1;fill-rule:nonzero;stroke:none" id="path525"></path></g><g id="g527" transform="translate(629.7129,188.674)"><path d="m 0,0 -3.563,-10.427 h -0.79 L -0.803,0 Z" style="fill:#000100;fill-opacity:1;fill-rule:nonzero;stroke:none" id="path529"></path></g><g id="g531" transform="translate(630.8213,186.7278)"><path d="m 0,0 c 0.424,0.685 1.155,1.321 2.453,1.321 1.545,0 2.512,-0.848 2.512,-2.123 V -0.92 c 0,-0.672 -0.33,-1.521 -1.462,-1.91 1.168,-0.201 1.793,-0.991 1.793,-1.982 v -0.177 c 0,-1.215 -0.767,-2.453 -2.855,-2.453 -0.991,0 -1.922,0.306 -2.724,0.943 l 0.412,0.661 c 0.826,-0.601 1.534,-0.849 2.312,-0.849 1.487,0 2.04,0.896 2.04,1.686 v 0.153 c 0,1.286 -1.155,1.617 -1.969,1.617 H 1.557 v 0.708 h 0.99 c 1.061,0 1.581,0.884 1.581,1.615 v 0.095 c 0,0.849 -0.637,1.379 -1.663,1.379 -0.673,0 -1.333,-0.223 -1.817,-0.99 z" style="fill:#000100;fill-opacity:1;fill-rule:nonzero;stroke:none" id="path533"></path></g><g id="g535" transform="translate(642.5098,181.9748)"><path d="m 0,0 c 0,1.356 -0.695,1.958 -1.923,1.958 -0.719,0 -1.297,-0.307 -1.675,-0.673 h -0.778 l 0.272,4.659 H 0.271 V 5.189 H -3.373 L -3.503,2.1 c 0.377,0.353 1.073,0.601 1.781,0.601 1.675,0 2.536,-1.156 2.536,-2.666 v -0.177 c 0,-1.214 -0.755,-2.547 -2.878,-2.547 -1.156,0 -2.005,0.366 -2.76,0.943 l 0.425,0.673 c 0.813,-0.625 1.545,-0.862 2.335,-0.862 1.522,0 2.064,1.003 2.064,1.782 z" style="fill:#000100;fill-opacity:1;fill-rule:nonzero;stroke:none" id="path537"></path></g><g id="g539" transform="translate(648.4551,188.674)"><path d="m 0,0 -3.563,-10.427 h -0.79 L -0.803,0 Z" style="fill:#000100;fill-opacity:1;fill-rule:nonzero;stroke:none" id="path541"></path></g><g id="g543" transform="translate(654.1514,184.3459)"><path d="M 0,0 C 0,2.1 -0.696,2.96 -2.053,2.96 -3.361,2.96 -4.081,2.087 -4.081,0 v -1.345 c 0,-2.111 0.72,-2.972 2.028,-2.972 1.357,0 2.053,0.849 2.053,2.972 z m 0.85,-1.333 c 0,-2.406 -0.862,-3.728 -2.903,-3.728 -2.016,0 -2.878,1.345 -2.878,3.728 v 1.321 c 0,2.382 0.897,3.715 2.878,3.715 2.006,0 2.903,-1.333 2.903,-3.715 z" style="fill:#000100;fill-opacity:1;fill-rule:nonzero;stroke:none" id="path545"></path></g><g id="g547" transform="translate(660.1201,188.674)"><path d="m 0,0 -3.563,-10.427 h -0.79 L -0.803,0 Z" style="fill:#000100;fill-opacity:1;fill-rule:nonzero;stroke:none" id="path549"></path></g><g id="g551" transform="translate(662.1123,185.7492)"><path d="m 0,0 c 0,-0.92 0.649,-1.663 1.663,-1.663 1.015,0 1.663,0.743 1.663,1.663 v 0.142 c 0,0.873 -0.66,1.426 -1.663,1.426 C 0.649,1.568 0,1.015 0,0.142 Z m -0.235,-4.152 c 0,-0.872 0.719,-1.569 1.898,-1.569 1.191,0 1.9,0.697 1.9,1.569 v 0.141 c 0,1.003 -0.779,1.675 -1.9,1.675 -1.097,0 -1.898,-0.648 -1.898,-1.675 z m -0.838,0.177 c 0,0.932 0.637,1.71 1.557,1.994 -0.814,0.377 -1.286,1.085 -1.286,1.969 v 0.189 c 0,1.215 1.038,2.123 2.465,2.123 1.428,0 2.466,-0.908 2.466,-2.123 V -0.012 C 4.129,-0.896 3.657,-1.604 2.831,-1.981 3.751,-2.253 4.4,-3.043 4.4,-3.975 v -0.201 c 0,-1.356 -1.097,-2.288 -2.737,-2.288 -1.639,0 -2.736,0.932 -2.736,2.288 z" style="fill:#000100;fill-opacity:1;fill-rule:nonzero;stroke:none" id="path553"></path></g><g id="g555" transform="translate(672.8936,184.3459)"><path d="M 0,0 C 0,2.1 -0.696,2.96 -2.053,2.96 -3.361,2.96 -4.081,2.087 -4.081,0 v -1.345 c 0,-2.111 0.72,-2.972 2.028,-2.972 1.357,0 2.053,0.849 2.053,2.972 z m 0.85,-1.333 c 0,-2.406 -0.862,-3.728 -2.903,-3.728 -2.016,0 -2.878,1.345 -2.878,3.728 v 1.321 c 0,2.382 0.897,3.715 2.878,3.715 2.006,0 2.903,-1.333 2.903,-3.715 z" style="fill:#000100;fill-opacity:1;fill-rule:nonzero;stroke:none" id="path557"></path></g><g id="g559" transform="translate(571.5488,285.5139)"><path d="m 0,0 v -3.351 h 1.863 c 1.475,0 2.088,0.615 2.088,1.64 v 0.118 C 3.951,-0.602 3.314,0 1.993,0 Z M 2.441,-4.081 C 2.335,-4.093 2.229,-4.093 2.123,-4.093 H 0 v -3.669 h -0.826 v 8.505 h 2.937 c 1.699,0 2.678,-0.979 2.678,-2.312 v -0.177 c 0,-1.026 -0.59,-1.817 -1.533,-2.158 l 1.71,-3.858 H 4.081 Z" style="fill:#000100;fill-opacity:1;fill-rule:nonzero;stroke:none" id="path561"></path></g><g id="g563" transform="translate(583.9922,285.5373)"><path d="m 0,0 -0.425,-0.649 c -0.766,0.543 -1.427,0.719 -2.323,0.719 -1.64,0 -2.465,-1.215 -2.465,-2.996 v -1.085 c 0,-2.088 0.897,-3.113 2.63,-3.113 0.685,0 1.521,0.142 1.993,0.424 v 2.689 h -2.005 v 0.732 H 0.213 V -7.16 c -0.732,-0.53 -1.699,-0.755 -2.831,-0.755 -2.348,0 -3.433,1.439 -3.433,3.904 v 1.05 c 0,2.406 1.168,3.81 3.303,3.81 C -1.557,0.849 -0.708,0.542 0,0" style="fill:#000100;fill-opacity:1;fill-rule:nonzero;stroke:none" id="path565"></path></g><g id="g567" transform="translate(586.7051,278.4836)"><path d="m 0,0 h 2.193 c 1.333,0 1.958,0.52 1.958,1.521 v 0.26 c 0,1.038 -0.518,1.58 -2.216,1.58 L 0,3.361 Z M 0,7.054 V 4.058 h 1.923 c 1.179,0 1.851,0.353 1.851,1.415 v 0.213 c 0,1.001 -0.601,1.368 -1.934,1.368 z M -0.814,7.773 H 1.898 C 3.703,7.773 4.6,7.089 4.6,5.697 V 5.449 C 4.6,4.706 4.246,3.999 3.231,3.751 4.27,3.598 4.989,2.984 4.989,1.805 V 1.51 c 0,-1.392 -0.885,-2.241 -2.724,-2.241 h -3.079 z" style="fill:#000100;fill-opacity:1;fill-rule:nonzero;stroke:none" id="path569"></path></g><path d="m 596.318,279.533 h 1.191 v -1.18 h -1.191 z m 0,5.214 h 1.191 v -1.18 h -1.191 z" style="fill:#000100;fill-opacity:1;fill-rule:nonzero;stroke:none" id="path571"></path><g id="g573" transform="translate(605.3301,277.7522)"><path d="M 0,0 V 7.467 L -2.052,6.216 -2.43,6.877 0.201,8.505 H 0.826 V 0 Z" style="fill:#000100;fill-opacity:1;fill-rule:nonzero;stroke:none" id="path575"></path></g><g id="g577" transform="translate(610.6143,284.0862)"><path d="m 0,0 c 0,-0.92 0.649,-1.663 1.663,-1.663 1.015,0 1.663,0.743 1.663,1.663 v 0.142 c 0,0.873 -0.66,1.427 -1.663,1.427 C 0.649,1.569 0,1.015 0,0.142 Z m -0.235,-4.151 c 0,-0.873 0.719,-1.57 1.898,-1.57 1.191,0 1.9,0.697 1.9,1.57 v 0.141 c 0,1.002 -0.779,1.675 -1.9,1.675 -1.097,0 -1.898,-0.649 -1.898,-1.675 z m -0.838,0.176 c 0,0.932 0.637,1.71 1.557,1.994 -0.814,0.377 -1.286,1.085 -1.286,1.969 v 0.189 c 0,1.215 1.038,2.123 2.465,2.123 1.428,0 2.466,-0.908 2.466,-2.123 V -0.012 C 4.129,-0.896 3.657,-1.604 2.831,-1.981 3.751,-2.253 4.4,-3.043 4.4,-3.975 v -0.2 c 0,-1.356 -1.097,-2.289 -2.737,-2.289 -1.639,0 -2.736,0.933 -2.736,2.289 z" style="fill:#000100;fill-opacity:1;fill-rule:nonzero;stroke:none" id="path579"></path></g><g id="g581" transform="translate(621.3604,283.0715)"><path d="M 0,0 V -2.677 H 1.25 V -3.432 H 0 v -1.887 h -0.826 v 1.887 h -4.258 v 0.755 l 4.128,5.863 h 0.944 l -4.117,-5.863 h 3.303 V 0 Z" style="fill:#000100;fill-opacity:1;fill-rule:nonzero;stroke:none" id="path583"></path></g><g id="g585" transform="translate(627.3643,287.0119)"><path d="m 0,0 -3.563,-10.428 h -0.79 L -0.803,0 Z" style="fill:#000100;fill-opacity:1;fill-rule:nonzero;stroke:none" id="path587"></path></g><g id="g589" transform="translate(631.5625,282.176)"><path d="m 0,0 c 0.932,1.097 1.085,1.533 1.085,1.981 v 0.094 c 0,0.85 -0.59,1.38 -1.615,1.38 -0.743,0 -1.416,-0.295 -1.971,-1.285 l -0.66,0.413 c 0.401,0.73 1.191,1.627 2.606,1.627 1.51,0 2.478,-0.849 2.478,-2.123 V 1.97 c 0,-0.921 -0.685,-1.688 -1.416,-2.536 l -2.642,-3.103 h 4.364 v -0.755 h -5.402 v 0.708 z" style="fill:#000100;fill-opacity:1;fill-rule:nonzero;stroke:none" id="path591"></path></g><g id="g593" transform="translate(636.4336,284.0862)"><path d="m 0,0 c 0,-0.92 0.649,-1.663 1.663,-1.663 1.015,0 1.663,0.743 1.663,1.663 v 0.142 c 0,0.873 -0.66,1.427 -1.663,1.427 C 0.649,1.569 0,1.015 0,0.142 Z m -0.235,-4.151 c 0,-0.873 0.719,-1.57 1.898,-1.57 1.191,0 1.9,0.697 1.9,1.57 v 0.141 c 0,1.002 -0.779,1.675 -1.9,1.675 -1.097,0 -1.898,-0.649 -1.898,-1.675 z m -0.838,0.176 c 0,0.932 0.637,1.71 1.557,1.994 -0.814,0.377 -1.286,1.085 -1.286,1.969 v 0.189 c 0,1.215 1.038,2.123 2.465,2.123 1.428,0 2.466,-0.908 2.466,-2.123 V -0.012 C 4.129,-0.896 3.657,-1.604 2.831,-1.981 3.751,-2.253 4.4,-3.043 4.4,-3.975 v -0.2 c 0,-1.356 -1.097,-2.289 -2.737,-2.289 -1.639,0 -2.736,0.933 -2.736,2.289 z" style="fill:#000100;fill-opacity:1;fill-rule:nonzero;stroke:none" id="path595"></path></g><g id="g597" transform="translate(646.1064,287.0119)"><path d="m 0,0 -3.563,-10.428 h -0.79 L -0.803,0 Z" style="fill:#000100;fill-opacity:1;fill-rule:nonzero;stroke:none" id="path599"></path></g><g id="g601" transform="translate(647.2148,285.0656)"><path d="m 0,0 c 0.424,0.684 1.155,1.32 2.453,1.32 1.545,0 2.512,-0.848 2.512,-2.123 V -0.92 c 0,-0.673 -0.33,-1.522 -1.462,-1.911 1.167,-0.2 1.793,-0.991 1.793,-1.981 v -0.177 c 0,-1.215 -0.767,-2.454 -2.855,-2.454 -0.991,0 -1.922,0.306 -2.724,0.944 l 0.412,0.66 c 0.826,-0.601 1.534,-0.849 2.312,-0.849 1.487,0 2.04,0.896 2.04,1.687 v 0.153 c 0,1.285 -1.155,1.616 -1.969,1.616 H 1.557 v 0.708 h 0.99 c 1.061,0 1.581,0.884 1.581,1.616 v 0.094 c 0,0.849 -0.637,1.379 -1.663,1.379 -0.673,0 -1.333,-0.223 -1.817,-0.99 z" style="fill:#000100;fill-opacity:1;fill-rule:nonzero;stroke:none" id="path603"></path></g><g id="g605" transform="translate(658.8447,283.0715)"><path d="M 0,0 V -2.677 H 1.25 V -3.432 H 0 v -1.887 h -0.826 v 1.887 h -4.258 v 0.755 l 4.128,5.863 h 0.944 l -4.117,-5.863 h 3.303 V 0 Z" style="fill:#000100;fill-opacity:1;fill-rule:nonzero;stroke:none" id="path607"></path></g><g id="g609" transform="translate(571.5488,230.1311)"><path d="m 0,0 v -3.35 h 1.863 c 1.475,0 2.088,0.614 2.088,1.64 v 0.118 C 3.951,-0.602 3.314,0 1.993,0 Z M 2.441,-4.081 C 2.335,-4.093 2.229,-4.093 2.123,-4.093 H 0 v -3.668 h -0.826 v 8.504 h 2.937 c 1.699,0 2.678,-0.978 2.678,-2.311 v -0.177 c 0,-1.026 -0.59,-1.817 -1.533,-2.158 l 1.71,-3.858 H 4.081 Z" style="fill:#000100;fill-opacity:1;fill-rule:nonzero;stroke:none" id="path611"></path></g><g id="g613" transform="translate(583.9922,230.1555)"><path d="m 0,0 -0.425,-0.649 c -0.766,0.543 -1.427,0.719 -2.323,0.719 -1.64,0 -2.465,-1.215 -2.465,-2.996 v -1.085 c 0,-2.088 0.897,-3.114 2.63,-3.114 0.685,0 1.521,0.142 1.993,0.425 v 2.689 h -2.005 v 0.732 H 0.213 V -7.16 c -0.732,-0.53 -1.699,-0.755 -2.831,-0.755 -2.348,0 -3.433,1.439 -3.433,3.904 v 1.05 c 0,2.406 1.168,3.81 3.303,3.81 C -1.557,0.849 -0.708,0.542 0,0" style="fill:#000100;fill-opacity:1;fill-rule:nonzero;stroke:none" id="path615"></path></g><g id="g617" transform="translate(586.7051,223.1018)"><path d="m 0,0 h 2.193 c 1.333,0 1.958,0.519 1.958,1.521 v 0.26 c 0,1.037 -0.518,1.58 -2.216,1.58 L 0,3.361 Z M 0,7.054 V 4.058 h 1.923 c 1.179,0 1.851,0.353 1.851,1.415 v 0.212 c 0,1.002 -0.601,1.369 -1.934,1.369 z M -0.814,7.772 H 1.898 C 3.703,7.772 4.6,7.089 4.6,5.697 V 5.449 C 4.6,4.706 4.246,3.998 3.231,3.751 4.27,3.598 4.989,2.984 4.989,1.805 V 1.51 c 0,-1.392 -0.885,-2.241 -2.724,-2.241 h -3.079 z" style="fill:#000100;fill-opacity:1;fill-rule:nonzero;stroke:none" id="path619"></path></g><path d="m 596.318,224.152 h 1.191 v -1.18 h -1.191 z m 0,5.212 h 1.191 v -1.18 h -1.191 z" style="fill:#000100;fill-opacity:1;fill-rule:nonzero;stroke:none" id="path621"></path><g id="g623" transform="translate(605.7432,226.7932)"><path d="m 0,0 c 0.932,1.098 1.085,1.533 1.085,1.981 v 0.095 c 0,0.85 -0.59,1.38 -1.615,1.38 -0.743,0 -1.416,-0.295 -1.971,-1.285 l -0.66,0.412 c 0.401,0.731 1.191,1.628 2.606,1.628 1.51,0 2.478,-0.849 2.478,-2.123 V 1.97 c 0,-0.92 -0.685,-1.687 -1.416,-2.535 l -2.642,-3.103 h 4.364 v -0.755 h -5.402 v 0.708 z" style="fill:#000100;fill-opacity:1;fill-rule:nonzero;stroke:none" id="path625"></path></g><g id="g627" transform="translate(614.3184,227.301)"><path d="M 0,0 C 0,2.1 -0.696,2.96 -2.053,2.96 -3.361,2.96 -4.081,2.087 -4.081,0 v -1.345 c 0,-2.111 0.72,-2.972 2.028,-2.972 1.357,0 2.053,0.849 2.053,2.972 z m 0.85,-1.333 c 0,-2.406 -0.862,-3.728 -2.903,-3.728 -2.016,0 -2.878,1.345 -2.878,3.728 v 1.321 c 0,2.382 0.897,3.715 2.878,3.715 2.006,0 2.903,-1.333 2.903,-3.715 z" style="fill:#000100;fill-opacity:1;fill-rule:nonzero;stroke:none" id="path629"></path></g><g id="g631" transform="translate(619.4844,222.3703)"><path d="M 0,0 V 7.466 L -2.052,6.216 -2.43,6.877 0.201,8.504 H 0.826 L 0.826,0 Z" style="fill:#000100;fill-opacity:1;fill-rule:nonzero;stroke:none" id="path633"></path></g><g id="g635" transform="translate(627.3643,231.6291)"><path d="m 0,0 -3.563,-10.427 h -0.79 L -0.803,0 Z" style="fill:#000100;fill-opacity:1;fill-rule:nonzero;stroke:none" id="path637"></path></g><g id="g639" transform="translate(631.1494,222.3703)"><path d="M 0,0 V 7.466 L -2.052,6.216 -2.43,6.877 0.201,8.504 H 0.826 L 0.826,0 Z" style="fill:#000100;fill-opacity:1;fill-rule:nonzero;stroke:none" id="path641"></path></g><g id="g643" transform="translate(636.2334,225.1184)"><path d="m 0,0 c 0,-1.273 0.802,-2.135 1.958,-2.135 1.156,0 1.993,0.732 1.993,2.005 V 0.047 C 3.951,1.321 3.008,2.029 1.97,2.029 0.979,2.029 0,1.238 0,0.153 Z M 4.022,4.636 C 3.491,4.942 2.866,5.143 2.218,5.143 c -1.593,0 -2.171,-1.333 -2.3,-3.586 0.259,0.507 0.955,1.191 2.146,1.191 1.451,0 2.702,-0.967 2.702,-2.63 v -0.283 c 0,-1.675 -1.203,-2.713 -2.785,-2.713 -1.603,0 -2.877,1.085 -2.877,3.456 v 0.283 c 0,3.657 1.191,5.025 3.125,5.025 0.767,0 1.545,-0.224 2.182,-0.578 z" style="fill:#000100;fill-opacity:1;fill-rule:nonzero;stroke:none" id="path645"></path></g><g id="g647" transform="translate(647.0381,228.091)"><path d="m 0,0 c 0,1.273 -0.803,2.17 -1.958,2.17 -1.156,0 -1.993,-0.767 -1.993,-2.04 v -0.177 c 0,-1.274 0.943,-2.006 1.981,-2.006 0.991,0 1.97,0.815 1.97,1.9 z m -4.046,-4.576 c 0.531,-0.307 1.156,-0.52 1.828,-0.52 1.746,0 2.23,1.345 2.3,3.551 -0.235,-0.496 -0.955,-1.227 -2.146,-1.227 -1.451,0 -2.702,0.991 -2.702,2.654 v 0.283 c 0,1.675 1.203,2.748 2.785,2.748 1.58,0 2.877,-1.097 2.877,-3.468 v -0.353 c 0,-3.751 -1.026,-4.943 -3.137,-4.943 -0.767,0 -1.51,0.213 -2.147,0.579 z" style="fill:#000100;fill-opacity:1;fill-rule:nonzero;stroke:none" id="path649"></path></g><g id="g651" transform="translate(653.1836,231.6291)"><path d="m 0,0 -3.563,-10.427 h -0.79 L -0.803,0 Z" style="fill:#000100;fill-opacity:1;fill-rule:nonzero;stroke:none" id="path653"></path></g><g id="g655" transform="translate(656.9687,222.3703)"><path d="M 0,0 V 7.466 L -2.052,6.216 -2.43,6.877 0.201,8.504 H 0.826 L 0.826,0 Z" style="fill:#000100;fill-opacity:1;fill-rule:nonzero;stroke:none" id="path657"></path></g><g id="g659" transform="translate(664.0459,222.3703)"><path d="M 0,0 V 7.466 L -2.052,6.216 -2.43,6.877 0.201,8.504 H 0.826 L 0.826,0 Z" style="fill:#000100;fill-opacity:1;fill-rule:nonzero;stroke:none" id="path661"></path></g><g id="g663" transform="translate(671.123,222.3703)"><path d="M 0,0 V 7.466 L -2.052,6.216 -2.43,6.877 0.201,8.504 H 0.826 L 0.826,0 Z" style="fill:#000100;fill-opacity:1;fill-rule:nonzero;stroke:none" id="path665"></path></g><g id="g667" transform="translate(571.5488,174.2336)"><path d="m 0,0 v -3.35 h 1.863 c 1.475,0 2.088,0.614 2.088,1.64 v 0.118 C 3.951,-0.602 3.314,0 1.993,0 Z M 2.441,-4.081 C 2.335,-4.093 2.229,-4.093 2.123,-4.093 H 0 v -3.668 h -0.826 v 8.504 h 2.937 c 1.699,0 2.678,-0.978 2.678,-2.311 v -0.177 c 0,-1.026 -0.59,-1.817 -1.533,-2.158 l 1.71,-3.858 H 4.081 Z" style="fill:#000100;fill-opacity:1;fill-rule:nonzero;stroke:none" id="path669"></path></g><g id="g671" transform="translate(583.9922,174.258)"><path d="m 0,0 -0.425,-0.649 c -0.766,0.543 -1.427,0.719 -2.323,0.719 -1.64,0 -2.465,-1.215 -2.465,-2.996 v -1.085 c 0,-2.088 0.897,-3.114 2.63,-3.114 0.685,0 1.521,0.142 1.993,0.425 v 2.689 h -2.005 v 0.732 H 0.213 V -7.16 c -0.732,-0.53 -1.699,-0.755 -2.831,-0.755 -2.348,0 -3.433,1.439 -3.433,3.904 v 1.05 c 0,2.406 1.168,3.81 3.303,3.81 C -1.557,0.849 -0.708,0.542 0,0" style="fill:#000100;fill-opacity:1;fill-rule:nonzero;stroke:none" id="path673"></path></g><g id="g675" transform="translate(586.7061,167.2043)"><path d="m 0,0 h 2.193 c 1.333,0 1.958,0.519 1.958,1.521 v 0.26 c 0,1.037 -0.518,1.58 -2.216,1.58 L 0,3.361 Z M 0,7.054 V 4.058 h 1.923 c 1.179,0 1.851,0.353 1.851,1.415 v 0.212 c 0,1.002 -0.601,1.369 -1.934,1.369 z M -0.814,7.772 H 1.898 C 3.703,7.772 4.6,7.089 4.6,5.697 V 5.449 C 4.6,4.706 4.246,3.998 3.231,3.751 4.27,3.598 4.989,2.984 4.989,1.805 V 1.51 c 0,-1.392 -0.885,-2.241 -2.724,-2.241 h -3.079 z" style="fill:#000100;fill-opacity:1;fill-rule:nonzero;stroke:none" id="path677"></path></g><path d="m 596.319,168.254 h 1.191 v -1.18 h -1.191 z m 0,5.213 h 1.191 v -1.18 h -1.191 z" style="fill:#000100;fill-opacity:1;fill-rule:nonzero;stroke:none" id="path679"></path><g id="g681" transform="translate(607.2412,171.4035)"><path d="M 0,0 C 0,2.1 -0.696,2.96 -2.053,2.96 -3.361,2.96 -4.081,2.087 -4.081,0 v -1.345 c 0,-2.111 0.72,-2.972 2.028,-2.972 1.357,0 2.053,0.849 2.053,2.972 z m 0.85,-1.333 c 0,-2.406 -0.862,-3.728 -2.903,-3.728 -2.016,0 -2.878,1.345 -2.878,3.728 v 1.321 c 0,2.382 0.897,3.715 2.878,3.715 2.006,0 2.903,-1.333 2.903,-3.715 z" style="fill:#000100;fill-opacity:1;fill-rule:nonzero;stroke:none" id="path683"></path></g><g id="g685" transform="translate(613.21,175.7317)"><path d="m 0,0 -3.563,-10.427 h -0.79 L -0.803,0 Z" style="fill:#000100;fill-opacity:1;fill-rule:nonzero;stroke:none" id="path687"></path></g><g id="g689" transform="translate(614.3184,173.7854)"><path d="m 0,0 c 0.424,0.685 1.155,1.321 2.453,1.321 1.545,0 2.512,-0.848 2.512,-2.123 V -0.92 c 0,-0.672 -0.33,-1.521 -1.462,-1.91 1.167,-0.201 1.793,-0.991 1.793,-1.982 v -0.177 c 0,-1.215 -0.767,-2.453 -2.855,-2.453 -0.991,0 -1.922,0.306 -2.724,0.943 l 0.412,0.661 c 0.826,-0.601 1.534,-0.849 2.312,-0.849 1.487,0 2.04,0.896 2.04,1.686 v 0.153 c 0,1.286 -1.155,1.617 -1.969,1.617 H 1.557 v 0.708 h 0.99 c 1.061,0 1.581,0.884 1.581,1.615 v 0.095 c 0,0.849 -0.637,1.379 -1.663,1.379 -0.673,0 -1.333,-0.223 -1.817,-0.99 z" style="fill:#000100;fill-opacity:1;fill-rule:nonzero;stroke:none" id="path691"></path></g><g id="g693" transform="translate(622.2793,172.8069)"><path d="m 0,0 c 0,-0.92 0.649,-1.663 1.663,-1.663 1.015,0 1.663,0.743 1.663,1.663 v 0.142 c 0,0.873 -0.66,1.426 -1.663,1.426 C 0.649,1.568 0,1.015 0,0.142 Z m -0.235,-4.152 c 0,-0.872 0.719,-1.569 1.898,-1.569 1.191,0 1.9,0.697 1.9,1.569 v 0.141 c 0,1.003 -0.779,1.675 -1.9,1.675 -1.097,0 -1.898,-0.648 -1.898,-1.675 z m -0.838,0.177 c 0,0.932 0.637,1.71 1.557,1.994 -0.814,0.377 -1.286,1.085 -1.286,1.969 v 0.189 c 0,1.215 1.038,2.123 2.465,2.123 1.428,0 2.466,-0.908 2.466,-2.123 V -0.012 C 4.129,-0.896 3.657,-1.604 2.831,-1.981 3.751,-2.253 4.4,-3.043 4.4,-3.975 v -0.201 c 0,-1.356 -1.097,-2.288 -2.737,-2.288 -1.639,0 -2.736,0.932 -2.736,2.288 z" style="fill:#000100;fill-opacity:1;fill-rule:nonzero;stroke:none" id="path695"></path></g><g id="g697" transform="translate(631.9521,175.7317)"><path d="m 0,0 -3.563,-10.427 h -0.79 L -0.803,0 Z" style="fill:#000100;fill-opacity:1;fill-rule:nonzero;stroke:none" id="path699"></path></g><g id="g701" transform="translate(635.0547,166.4729)"><path d="M 0,0 H -0.932 L 2.523,7.749 H -2.253 V 8.504 H 3.444 V 7.867 Z" style="fill:#000100;fill-opacity:1;fill-rule:nonzero;stroke:none" id="path703"></path></g><g id="g705" transform="translate(640.1387,173.7854)"><path d="m 0,0 c 0.424,0.685 1.155,1.321 2.453,1.321 1.545,0 2.512,-0.848 2.512,-2.123 V -0.92 c 0,-0.672 -0.33,-1.521 -1.462,-1.91 1.167,-0.201 1.793,-0.991 1.793,-1.982 v -0.177 c 0,-1.215 -0.767,-2.453 -2.855,-2.453 -0.991,0 -1.922,0.306 -2.724,0.943 l 0.412,0.661 c 0.826,-0.601 1.534,-0.849 2.312,-0.849 1.487,0 2.04,0.896 2.04,1.686 v 0.153 c 0,1.286 -1.155,1.617 -1.969,1.617 H 1.557 v 0.708 h 0.99 c 1.061,0 1.581,0.884 1.581,1.615 v 0.095 c 0,0.849 -0.637,1.379 -1.663,1.379 -0.673,0 -1.333,-0.223 -1.817,-0.99 z" style="fill:#000100;fill-opacity:1;fill-rule:nonzero;stroke:none" id="path707"></path></g><g id="g709" transform="translate(581.1562,351.6941)"><path d="m 0,0 h -1.902 l -0.309,-2.197 h 1.902 z m 1.929,-2.197 v -0.817 h -1.58 l -0.416,-2.947 h -0.764 l 0.416,2.947 H -2.317 L -2.72,-5.961 h -0.777 l 0.416,2.947 h -1.461 v 0.817 h 1.567 L -2.666,0 h -1.46 v 0.817 h 1.58 l 0.402,2.881 H -1.38 L -1.782,0.817 H 0.107 L 0.509,3.698 H 1.286 L 0.871,0.817 H 2.345 V 0 H 0.764 L 0.455,-2.197 Z" style="fill:#000100;fill-opacity:1;fill-rule:nonzero;stroke:none" id="path711"></path></g><g id="g713" transform="translate(588.9561,352.1765)"><path d="M 0,0 H -1.232 V 0.777 H 0 V 1.688 C 0,3.255 0.656,3.765 1.862,3.765 2.251,3.765 2.8,3.698 3.081,3.59 L 2.947,2.84 C 2.612,2.934 2.291,2.974 1.93,2.974 1.206,2.974 0.911,2.626 0.911,1.648 V 0.777 H 2.907 V 0 H 0.911 V -6.444 H 0 Z" style="fill:#000100;fill-opacity:1;fill-rule:nonzero;stroke:none" id="path715"></path></g><g id="g717" transform="translate(593.9678,352.1765)"><path d="M 0,0 H -1.232 V 0.777 H 0 V 1.688 C 0,3.255 0.656,3.765 1.862,3.765 2.251,3.765 2.8,3.698 3.081,3.59 L 2.947,2.84 C 2.612,2.934 2.291,2.974 1.93,2.974 1.206,2.974 0.911,2.626 0.911,1.648 V 0.777 H 2.907 V 0 H 0.911 V -6.444 H 0 Z" style="fill:#000100;fill-opacity:1;fill-rule:nonzero;stroke:none" id="path719"></path></g><g id="g721" transform="translate(598.9795,352.1765)"><path d="M 0,0 H -1.232 V 0.777 H 0 V 1.688 C 0,3.255 0.656,3.765 1.862,3.765 2.251,3.765 2.8,3.698 3.081,3.59 L 2.947,2.84 C 2.612,2.934 2.291,2.974 1.93,2.974 1.206,2.974 0.911,2.626 0.911,1.648 V 0.777 H 2.907 V 0 H 0.911 V -6.444 H 0 Z" style="fill:#000100;fill-opacity:1;fill-rule:nonzero;stroke:none" id="path723"></path></g><g id="g725" transform="translate(603.9912,352.1765)"><path d="M 0,0 H -1.232 V 0.777 H 0 V 1.688 C 0,3.255 0.656,3.765 1.862,3.765 2.251,3.765 2.8,3.698 3.081,3.59 L 2.947,2.84 C 2.612,2.934 2.291,2.974 1.93,2.974 1.206,2.974 0.911,2.626 0.911,1.648 V 0.777 H 2.907 V 0 H 0.911 V -6.444 H 0 Z" style="fill:#000100;fill-opacity:1;fill-rule:nonzero;stroke:none" id="path727"></path></g><g id="g729" transform="translate(609.0039,352.1765)"><path d="M 0,0 H -1.232 V 0.777 H 0 V 1.688 C 0,3.255 0.656,3.765 1.862,3.765 2.251,3.765 2.8,3.698 3.081,3.59 L 2.947,2.84 C 2.612,2.934 2.291,2.974 1.93,2.974 1.206,2.974 0.911,2.626 0.911,1.648 V 0.777 H 2.907 V 0 H 0.911 V -6.444 H 0 Z" style="fill:#000100;fill-opacity:1;fill-rule:nonzero;stroke:none" id="path731"></path></g><g id="g733" transform="translate(614.0156,352.1765)"><path d="M 0,0 H -1.232 V 0.777 H 0 V 1.688 C 0,3.255 0.656,3.765 1.862,3.765 2.251,3.765 2.8,3.698 3.081,3.59 L 2.947,2.84 C 2.612,2.934 2.291,2.974 1.93,2.974 1.206,2.974 0.911,2.626 0.911,1.648 V 0.777 H 2.907 V 0 H 0.911 V -6.444 H 0 Z" style="fill:#000100;fill-opacity:1;fill-rule:nonzero;stroke:none" id="path735"></path></g></g></g><g id="g737"><g id="g739" clip-path="url(#clipPath743)"><path d="M 841.89,417.432 H 0.002 V 652.486 H 841.89 Z" style="fill:#b91d22;fill-opacity:1;fill-rule:nonzero;stroke:none" id="path745"></path><g id="g747" transform="translate(0,452.3725)"><path d="M 0,0 841.888,141.652 V -34.94 L 0,-34.94 Z" style="fill:#002749;fill-opacity:1;fill-rule:nonzero;stroke:none" id="path749"></path></g><g id="g751" transform="translate(841.8881,605.0068)"><path d="M 0,0 -589.023,-101.653 0,33.469 Z" style="fill:#c9a970;fill-opacity:1;fill-rule:nonzero;stroke:none" id="path753"></path></g><g id="g755" transform="translate(0,434.6317)"><path d="M 0,0 352.185,60.769 29.116,-17.2 H 0 Z" style="fill:#c9a978;fill-opacity:1;fill-rule:nonzero;stroke:none" id="path757"></path></g><g id="g759" transform="translate(60.2925,417.4325)"><path d="M 0,0 187.054,45.038 39.95,0 Z" style="fill:#c9a978;fill-opacity:1;fill-rule:nonzero;stroke:none" id="path761"></path></g><g id="g763" transform="translate(0,652.4858)"><path d="M 0,0 V -121.547 L 369.645,0 Z" style="fill:#002749;fill-opacity:1;fill-rule:nonzero;stroke:none" id="path765"></path></g><g id="g767" transform="translate(0,517.3798)"><path d="M 0,0 465.771,135.106 H 369.645 L 0,13.556 Z" style="fill:#81292d;fill-opacity:1;fill-rule:nonzero;stroke:none" id="path769"></path></g></g></g><g id="g771"><g id="g773" clip-path="url(#clipPath777)"><g id="g779" transform="translate(616.7646,572.8483)"><path d="M 0,0 H 3.324 V -3.248 H 4.16 V 0 H 7.561 V -9.992 H 4.16 v 3.514 H 3.324 V -9.992 H 0 Z m -4.712,-14.571 8.245,0.266 v 0.988 h -8.245 z m -1.463,8.473 c 0,-0.513 0.514,-0.912 1.027,-0.912 0.512,0 1.025,0.399 1.025,0.912 v 2.527 c 0,0.513 -0.513,0.912 -1.025,0.912 -0.513,0 -1.027,-0.399 -1.027,-0.912 z m -2.564,-4.369 h 16.3 v -7.181 H 3.533 v 0.494 l -12.272,-0.494 z m -0.798,6.991 c 0,2.184 2.146,3.476 4.35,3.476 2.205,0 4.351,-1.292 4.351,-3.476 v -2.717 c 0,-2.184 -2.146,-3.476 -4.351,-3.476 -2.204,0 -4.35,1.292 -4.35,3.476 z" style="fill:#ffffff;fill-opacity:1;fill-rule:nonzero;stroke:none" id="path781"></path></g><path d="m 630.18,569.049 h 7.826 v 0.76 h -7.826 z m -4.142,-6.459 h 16.148 v -4.578 h -11.988 v -0.684 h 12.273 V 555.2 h -16.433 v 4.711 h 11.987 v 0.665 h -11.987 z m 0,10.373 h 4.142 v -0.931 h 7.826 v 0.931 h 4.18 v -6.137 h -16.148 z m -0.665,-6.839 h 17.478 v -2.736 h -17.478 z" style="fill:#ffffff;fill-opacity:1;fill-rule:nonzero;stroke:none" id="path783"></path><g id="g785" transform="translate(654.1748,570.55)"><path d="M 0,0 H 2.831 V 2.298 H 7.01 V -7.979 H 2.831 v 4.73 l -2.831,0 z m -4.882,-12.443 7.694,0.266 v 1.026 H -4.882 Z M -9.1,-8.454 H 7.01 V -15.35 H 2.812 v 0.494 L -9.1,-15.35 Z M -9.897,2.014 h 9.422 l -0.57,-5.928 h -4.844 v -1.064 l 7.865,0.533 v -2.679 l -11.873,-0.76 v 6.364 h 5.091 l 0.095,0.931 h -5.186 z" style="fill:#ffffff;fill-opacity:1;fill-rule:nonzero;stroke:none" id="path787"></path></g><g id="g789" transform="translate(668.8252,562.8752)"><path d="M 0,0 H 16.109 V -4.769 H 4.369 V -5.338 H 16.395 V -7.675 H 0 v 4.901 h 11.74 v 0.513 l -11.74,0 z m 11.931,9.973 h 4.178 V 0.475 H 11.931 V 3.552 H 8.587 C 6.592,1.197 2.698,0.57 -0.893,0.513 V 3.078 C 1.634,3.134 3.4,3.4 4.56,4.027 H -0.607 V 6.421 H 6.25 C 6.308,6.668 6.326,6.934 6.326,7.219 H -0.798 V 9.688 H 9.993 V 7.694 C 9.993,7.371 9.974,7.067 9.936,6.782 h 1.995 z" style="fill:#ffffff;fill-opacity:1;fill-rule:nonzero;stroke:none" id="path791"></path></g><g id="g793" transform="translate(696.2607,567.3962)"><path d="m 0,0 h 3.001 v 5.452 h 4.18 v -17.648 h -4.18 v 8.758 l -3.001,0 z m -9.708,4.882 h 9.784 l -0.988,-9.46 h -4.711 v -3.287 l 8.168,0.627 v -3.419 l -12.253,-0.969 v 10.183 h 5.034 l 0.323,3.001 h -5.357 z" style="fill:#ffffff;fill-opacity:1;fill-rule:nonzero;stroke:none" id="path795"></path></g><path d="m 717.692,572.848 h 4.274 V 555.2 h -4.274 z m -12.803,-12.594 c 2.032,1.367 3.76,3.248 3.76,8.814 v 3.4 h 4.2 v -3.4 c 0,-5.566 1.728,-7.447 3.76,-8.814 v -4.484 c -2.431,1.216 -4.502,2.831 -5.87,5.395 -1.367,-2.564 -3.419,-4.179 -5.85,-5.395 z" style="fill:#ffffff;fill-opacity:1;fill-rule:nonzero;stroke:none" id="path797"></path><g id="g799" transform="translate(723.6973,565.8386)"><path d="m 0,0 c 3.99,0.304 6.137,3.153 6.137,5.281 v 1.634 h 4.274 V 5.281 C 10.411,3.153 12.558,0.304 16.547,0 V -3.4 C 12.539,-3.306 9.841,-1.596 8.265,0.551 6.687,-1.596 3.99,-3.306 0,-3.4 Z m -0.475,-6.839 h 17.478 v -3.515 H -0.475 Z" style="fill:#ffffff;fill-opacity:1;fill-rule:nonzero;stroke:none" id="path801"></path></g><path d="m 755.825,572.848 h 3.4 v -10.562 h -3.4 z m -5.585,-3.59 h 1.614 v 3.59 h 3.325 v -10.562 h -3.325 v 4.028 h -1.614 z m -3.287,-11.17 8.245,0.266 v 0.798 h -8.245 z m -4.027,3.723 h 16.3 V 555.2 h -4.028 v 0.494 L 742.926,555.2 Z m 8.454,1.368 -9.252,-0.57 v 6.649 h 7.542 v -2.507 h -4.027 v -1.349 l 5.737,0.323 z m -9.252,9.385 h 8.396 v -2.603 h -8.396 z" style="fill:#ffffff;fill-opacity:1;fill-rule:nonzero;stroke:none" id="path803"></path><path d="m 778.492,572.848 h 4.274 V 555.2 h -4.274 z m -12.614,-1.139 h 3.629 v 1.52 h 4.103 v -1.52 h 3.59 v -3.211 h -3.647 v -0.076 c 0,-2.413 1.615,-3.248 3.838,-3.4 v -3.287 c -2.565,0.057 -4.579,0.855 -5.852,2.565 -1.292,-1.71 -3.286,-2.508 -5.851,-2.565 v 3.287 c 2.223,0.152 3.837,0.987 3.837,3.4 v 0.076 h -3.647 z m -0.38,-13.089 4.104,0.246 v 3.135 h 3.913 v -2.907 l 4.503,0.286 v -3.42 l -12.52,-0.76 z" style="fill:#ffffff;fill-opacity:1;fill-rule:nonzero;stroke:none" id="path805"></path><g id="g807" transform="translate(788.6592,557.8786)"><path d="M 0,0 H 8.111 C 8.358,0 8.549,0.228 8.549,0.475 8.549,0.722 8.358,0.95 8.111,0.95 H 0 C -0.247,0.95 -0.437,0.722 -0.437,0.475 -0.437,0.228 -0.247,0 0,0 m 6.363,12.253 c 0.494,-0.855 2.204,-1.482 6.004,-1.424 V 8.15 C 8.055,8.15 5.471,8.872 4.104,10.297 2.735,8.872 0.151,8.15 -4.161,8.15 v 2.679 c 3.8,-0.058 5.49,0.588 5.984,1.424 H -3.971 V 14.97 H 12.177 V 12.253 Z M -1.064,3.628 H 9.251 c 1.748,0 3.211,-1.462 3.211,-3.21 0,-1.767 -1.463,-3.191 -3.211,-3.191 H -1.064 c -1.767,0 -3.192,1.424 -3.192,3.191 0,1.748 1.425,3.21 3.192,3.21 M -4.636,7.257 H 2.09 V 8.853 H 6.098 V 7.257 h 6.744 V 4.408 H -4.636 Z" style="fill:#ffffff;fill-opacity:1;fill-rule:nonzero;stroke:none" id="path809"></path></g></g></g></g></g></svg>