


<svg version="1.1" id="Layer_1" xmlns="http://www.w3.org/2000/svg" xmlns:xlink="http://www.w3.org/1999/xlink" x="0px" y="0px" width="259.150867667" height="385.875613306" viewBox="0 0 298.497 444.462" enable-background="new 0 0 298.497 444.462" xml:space="preserve">
<path fill="#120E07" d="M219.296,404.592c-1.949,0-3.943-0.229-5.904-0.68c-11.593-2.642-36.617-5.496-64.135-5.496
	c-27.526,0-52.545,2.854-64.138,5.503c-1.965,0.443-3.958,0.673-5.91,0.673c-11.864,0-18.91-8.145-19.205-8.504l-0.301-0.34
	c-0.262-0.311-0.476-0.654-0.625-1.036l-0.183-0.466l-1.026-2.678l-0.283-0.728l-0.241-0.638l-3.101-8.064l-0.915,0.777
	c-1.104,0.912-6.772,5.303-15.827,7.575c-1.84,0.459-3.665,0.692-5.408,0.692c-9.359,0-14.729-6.546-16.427-10.411l-9.89-26.199
	c-2.2-5.668,2.645-10.761,5.992-12.958c11.526-9.084,33.021-10.064,41.75-10.064c7.193,0,13.457,0.527,16.748,1.421
	c7.349,1.978,11.657,6.018,13.563,12.716l3.836,11.007c12.285-2.198,28.907-4.105,61.583-4.105c32.676,0,49.31,1.907,61.591,4.105
	l3.904-11.201c1.833-6.5,6.138-10.544,13.493-12.521c3.295-0.894,9.563-1.421,16.749-1.421c8.728,0,30.224,0.98,41.741,10.064
	c3.348,2.197,8.207,7.29,5.973,12.997l-9.786,25.985c-0.239,0.563-4.629,10.586-16.503,10.586c-1.748,0-3.562-0.233-5.406-0.692
	c-9.395-2.344-15.177-7.032-15.805-7.55l-0.948-0.81l-3.092,8.094l-0.227,0.576l-0.298,0.776l-1.017,2.646l-0.19,0.488
	c-0.152,0.382-0.366,0.726-0.625,1.036l-0.33,0.372C238.201,396.447,231.157,404.592,219.296,404.592L219.296,404.592z"></path>
<path fill="#120E07" d="M298.398,185.434c-0.179-3.205-2.471-5.903-5.601-6.607c-0.347-0.08-34.771-8.053-48.743-31.55
	c-12.37-20.803,13.524-41.908,14.639-42.795c1.832-1.475,2.839-3.758,2.674-6.108c-0.165-2.351-1.467-4.468-3.49-5.675
	c-3.146-1.863-6.237-3.595-9.271-5.212c2.084-4.19,2.576-8.858,1.294-13.621c-1.929-7.172-7.697-13.47-14.026-15.306
	c-1.577-0.463-3.131-0.693-4.623-0.693c-5.432,0-10.035,3.144-11.453,7.821c-0.761,2.538-0.431,5.15,0.806,7.243
	c-1.01,0.138-1.942,0.497-2.777,1.005c-2.858-1.008-5.483-1.87-7.847-2.596c0.459-1.944,0.764-3.932,0.771-6.002
	c0.019-9.762-5.478-18.893-14.005-23.258c-4.001-2.053-8.368-3.093-12.987-3.093c-0.344,0-0.684,0.006-1.017,0.018
	c0.052-0.697,0.084-1.401,0.071-2.093c-0.084-7.007-3.51-12.972-9.657-16.788c-12.408-7.716-17.64-16.47-17.691-16.554
	c-1.29-2.202-3.668-3.551-6.215-3.551c-2.546,0-4.919,1.35-6.21,3.551c-0.052,0.084-5.28,8.837-17.693,16.554
	c-6.143,3.816-9.573,9.781-9.658,16.788c-0.008,0.691,0.018,1.396,0.076,2.093c-0.335-0.011-0.675-0.018-1.015-0.018
	c-4.62,0-8.993,1.041-12.996,3.093c-8.519,4.365-14.014,13.496-13.996,23.258c0.003,2.07,0.306,4.058,0.767,6.002
	c-2.368,0.727-4.995,1.583-7.85,2.596c-0.838-0.508-1.769-0.868-2.774-1.005c1.238-2.093,1.568-4.7,0.806-7.237
	c-1.418-4.684-6.02-7.828-11.442-7.828c-1.499,0-3.063,0.23-4.636,0.693c-6.327,1.835-12.094,8.135-14.024,15.306
	c-1.287,4.765-0.794,9.44,1.29,13.621c-3.033,1.617-6.125,3.349-9.27,5.212c-2.027,1.208-3.336,3.325-3.495,5.687
	c-0.164,2.355,0.845,4.641,2.695,6.105c0.272,0.21,27.068,21.859,14.634,42.787c-13.974,23.498-48.408,31.471-48.753,31.55
	c-3.133,0.704-5.427,3.402-5.605,6.607c-0.086,1.582-1.936,39.303,15.016,90.128c15.605,46.755,50.832,113.812,130.069,167.656
	c1.224,0.829,2.645,1.243,4.073,1.243c1.422,0,2.844-0.414,4.058-1.243c79.248-53.845,114.476-120.901,130.075-167.656
	C300.337,224.737,298.482,187.016,298.398,185.434z"></path>
<linearGradient id="SVGID_1_" gradientUnits="userSpaceOnUse" x1="7.1826" y1="253.5801" x2="291.3154" y2="253.5801">
	<stop offset="0.2637" style="stop-color:#FFD200"></stop>
	<stop offset="1" style="stop-color:#F5821F"></stop>
</linearGradient>
<path fill="url(#SVGID_1_)" d="M195.411,74.916c0,0,27.226,5.209,58.802,23.951c0,0-32.12,25.519-16.335,52.071
	c15.791,26.559,53.356,34.893,53.356,34.893s8.241,149.394-141.95,251.458l-0.01,0.046c-0.005-0.014-0.018-0.017-0.026-0.023
	c-0.008,0.007-0.021,0.01-0.029,0.023v-0.046C-0.973,335.225,7.263,185.831,7.263,185.831s37.565-8.334,53.354-34.893
	c15.787-26.552-16.333-52.071-16.333-52.071c31.576-18.742,58.798-23.951,58.798-23.951s20.552-5.09,46.116-5.09
	C174.765,69.826,195.411,74.916,195.411,74.916z"></path>
<linearGradient id="SVGID_2_" gradientUnits="userSpaceOnUse" x1="55.0713" y1="76.3994" x2="76.9966" y2="76.3994">
	<stop offset="0.2637" style="stop-color:#FFD200"></stop>
	<stop offset="1" style="stop-color:#F5821F"></stop>
</linearGradient>
<path fill="url(#SVGID_2_)" d="M58.745,87.757c0,0,13.994-6.491,18.251-7.708c0,0-6.284-0.201-7.703-3.242
	c-1.418-3.043,0.206-5.877,2.026-7.098c1.828-1.217-0.404-6.084-6.691-4.263C58.343,67.276,50.232,78.832,58.745,87.757z"></path>
<path fill="#120E07" d="M230.549,152.771c-2.816-4.746-4.564-9.49-5.455-14.173c-22.482-9.106-49.844-15.152-75.845-15.152
	c-26,0-53.354,6.045-75.847,15.157c-0.892,4.678-2.642,9.422-5.456,14.168c-13.582,22.852-39.486,34.266-53.509,38.996
	c0.431,13.773,2.901,43.122,14.888,78.623c21.392,63.356,61.718,116.405,119.932,157.792
	c58.21-41.388,98.533-94.437,119.919-157.792c11.983-35.501,14.444-64.85,14.885-78.623
	C270.036,187.037,244.132,175.622,230.549,152.771z"></path>
<g>
	<g>
		<linearGradient id="SVGID_3_" gradientUnits="userSpaceOnUse" x1="95.1807" y1="143.6655" x2="225.9694" y2="349.6738">
			<stop offset="0.2747" style="stop-color:#EE3423"></stop>
			<stop offset="1" style="stop-color:#AD2213"></stop>
		</linearGradient>
		<path fill="url(#SVGID_3_)" d="M149.249,421.322c-55.479-40.343-94.042-91.705-114.646-152.72
			c-10.647-31.537-13.646-57.989-14.42-72.964c15.361-5.704,39.288-17.698,52.547-40.017c2.462-4.139,4.286-8.472,5.458-12.915
			c22.515-8.728,48.246-13.687,71.061-13.687c22.809,0,48.54,4.959,71.064,13.681c1.159,4.443,2.988,8.774,5.451,12.921
			c13.267,22.319,37.189,34.313,52.557,40.017c-0.78,14.987-3.79,41.457-14.428,72.964
			C243.297,329.614,204.738,380.974,149.249,421.322L149.249,421.322z"></path>
	</g>
	<defs>
		<filter id="Adobe_OpacityMaskFilter" filterUnits="userSpaceOnUse" x="20.183" y="129.019" width="258.138" height="292.304">
			
				<feColorMatrix type="matrix" values="-1 0 0 0 1  0 -1 0 0 1  0 0 -1 0 1  0 0 0 1 0" color-interpolation-filters="sRGB" result="source"></feColorMatrix>
		</filter>
	</defs>
	<mask maskUnits="userSpaceOnUse" x="20.183" y="129.019" width="258.138" height="292.304" id="SVGID_4_">
		<g filter="url(#Adobe_OpacityMaskFilter)">
			
				<image overflow="visible" width="1093" height="1235" transform="matrix(0.24 0 0 0.24 18.1826 127.0186)">
			</image>
		</g>
	</mask>
	<g opacity="0.6" mask="url(#SVGID_4_)">
		<path d="M149.249,421.322c-55.479-40.343-94.042-91.705-114.646-152.72c-10.647-31.537-13.646-57.989-14.42-72.964
			c15.361-5.704,39.288-17.698,52.547-40.017c2.462-4.139,4.286-8.472,5.458-12.915c22.515-8.728,48.246-13.687,71.061-13.687
			c22.809,0,48.54,4.959,71.064,13.681c1.159,4.443,2.988,8.774,5.451,12.921c13.267,22.319,37.189,34.313,52.557,40.017
			c-0.78,14.987-3.79,41.457-14.428,72.964C243.297,329.614,204.738,380.974,149.249,421.322L149.249,421.322z"></path>
	</g>
</g>
<path fill="#120E07" d="M278.32,195.638c-15.367-5.704-39.29-17.698-52.557-40.017c-0.492-0.822-0.932-1.659-1.376-2.498
	L41.592,287.146c9.92,24.091,22.8,46.551,38.594,67.285l197.063-145.663C277.796,203.76,278.126,199.35,278.32,195.638z"></path>
<path fill="#FFCF00" d="M275.355,296.87L275.355,296.87c0-0.007,0-0.014,0.01-0.014C275.355,296.856,275.355,296.863,275.355,296.87
	z"></path>
<linearGradient id="SVGID_5_" gradientUnits="userSpaceOnUse" x1="221.5039" y1="76.3994" x2="243.4258" y2="76.3994">
	<stop offset="0.2637" style="stop-color:#FFD200"></stop>
	<stop offset="1" style="stop-color:#F5821F"></stop>
</linearGradient>
<path fill="url(#SVGID_5_)" d="M239.749,87.757c0,0-13.991-6.491-18.245-7.708c0,0,6.283-0.201,7.701-3.242
	c1.421-3.043-0.197-5.877-2.023-7.098c-1.829-1.217,0.401-6.084,6.691-4.263C240.16,67.276,248.263,78.832,239.749,87.757z"></path>
<g>
	<linearGradient id="SVGID_6_" gradientUnits="userSpaceOnUse" x1="62.251" y1="110.9897" x2="236.249" y2="110.9897">
		<stop offset="0" style="stop-color:#790B00"></stop>
		<stop offset="0.2582" style="stop-color:#EE3423"></stop>
		<stop offset="0.7747" style="stop-color:#EE3423"></stop>
		<stop offset="1" style="stop-color:#790B00"></stop>
	</linearGradient>
	<path fill="url(#SVGID_6_)" d="M62.251,112.235c2.624,3.606,5.293,8.516,6.594,14.634c23.226-10.437,51.056-16.084,80.403-16.084
		c29.349,0,57.186,5.647,80.413,16.084c1.302-6.118,3.97-11.039,6.588-14.639c-24.752-10.782-54.719-17.12-87-17.12
		C116.975,95.11,87.008,101.449,62.251,112.235z"></path>
	<linearGradient id="SVGID_7_" gradientUnits="userSpaceOnUse" x1="69.4019" y1="123.0479" x2="229.0986" y2="123.0479">
		<stop offset="0" style="stop-color:#790B00"></stop>
		<stop offset="0.2582" style="stop-color:#EE3423"></stop>
		<stop offset="0.7747" style="stop-color:#EE3423"></stop>
		<stop offset="1" style="stop-color:#790B00"></stop>
	</linearGradient>
	<path fill="url(#SVGID_7_)" d="M149.257,115.794c29.25,0,56.915,5.75,79.699,16.379c0.045-0.678,0.062-1.376,0.143-2.04
		c-22.927-10.521-50.611-16.218-79.842-16.218c-29.242,0-56.929,5.697-79.855,16.218c0.08,0.664,0.101,1.363,0.144,2.046
		C92.318,121.544,119.997,115.794,149.257,115.794z"></path>
	<linearGradient id="SVGID_8_" gradientUnits="userSpaceOnUse" x1="58.8389" y1="99.8711" x2="239.6611" y2="99.8711">
		<stop offset="0" style="stop-color:#790B00"></stop>
		<stop offset="0.2582" style="stop-color:#EE3423"></stop>
		<stop offset="0.7747" style="stop-color:#EE3423"></stop>
		<stop offset="1" style="stop-color:#790B00"></stop>
	</linearGradient>
	<path fill="url(#SVGID_8_)" d="M149.257,91.97c33.027,0,63.7,6.544,89.032,17.682c0.482-0.554,0.936-1.067,1.372-1.525
		c-25.693-11.362-56.829-18.036-90.413-18.036c-33.583,0-64.711,6.674-90.41,18.036c0.438,0.458,0.894,0.971,1.369,1.525
		C85.548,98.519,116.221,91.97,149.257,91.97z"></path>
</g>
<path fill="#120E07" d="M149.286,161.885l-2.68-3.017c-8.694-9.783-24.901-10.066-26.717-10.066h-6.02l2.635-5.296
	c0.915-1.701,1.96-4.794,1.528-6.168c-0.058-0.187-0.105-0.25-0.311-0.352c-0.206-0.108-0.507-0.228-0.75-0.228
	c-1.015,0-2.928,2.146-4.618,4.042c-3.417,3.836-8.1,9.099-16.024,10.622c-1.661,0.32-3.302,0.479-4.89,0.479
	c-12.42,0-18.271-9.513-18.511-9.912l-2.136-3.563l3.839-1.593c14.04-5.853,45.569-15.757,74.652-15.781
	c29.093,0.024,60.617,9.929,74.654,15.781l3.842,1.593l-2.136,3.56c-0.24,0.403-6.09,9.916-18.501,9.916c-0.007,0-0.007,0-0.013,0
	c-1.58,0-3.234-0.159-4.889-0.479c-7.918-1.523-12.603-6.779-16.018-10.615c-1.684-1.902-3.606-4.048-4.623-4.048
	c-0.243,0-0.547,0.12-0.751,0.228c-0.204,0.102-0.246,0.165-0.301,0.352c-0.438,1.371,0.608,4.459,1.527,6.168l2.858,5.291
	l-6.247,0.005c-1.816,0-18.025,0.284-26.714,10.066L149.286,161.885L149.286,161.885z"></path>
<g>
	
		<image overflow="visible" width="692" height="208" transform="matrix(0.24 0 0 0.24 66.3154 120.5576)">
	</image>
	<g>
		<path fill="#120E07" d="M149.286,165.166l-2.68-3.022c-8.694-9.778-24.901-10.063-26.717-10.063h-6.02v-3.28
			c0.919-1.701,4.595-6.811,4.163-8.184c-0.058-0.186-0.105-0.244-0.311-0.353c-0.206-0.102-0.507-0.225-0.75-0.225
			c-1.015,0-2.928,2.146-4.618,4.038c-3.417,3.839-8.1,9.104-16.024,10.63c-1.661,0.312-3.302,0.471-4.89,0.471
			c-12.42,0-18.271-9.511-18.511-9.911l-2.136-3.561v-3.283c14.04-5.851,49.408-14.072,78.492-14.095
			c29.093,0.022,64.457,8.244,78.496,14.095v3.283l-2.136,3.556c-0.24,0.405-6.09,9.916-18.501,9.916c-0.007,0-0.007,0-0.013,0
			c-1.58,0-3.234-0.159-4.889-0.471c-7.918-1.526-12.603-6.786-16.018-10.628c-1.684-1.894-3.606-4.04-4.623-4.04
			c-0.243,0-0.547,0.123-0.751,0.225c-0.204,0.109-0.246,0.167-0.301,0.353c-0.438,1.37,3.457,6.47,4.386,8.179v3.278l-6.247,0.007
			c-1.816,0-18.025,0.285-26.714,10.063L149.286,165.166L149.286,165.166z"></path>
	</g>
</g>
<linearGradient id="SVGID_9_" gradientUnits="userSpaceOnUse" x1="76.0059" y1="140.5605" x2="222.5723" y2="140.5605">
	<stop offset="0" style="stop-color:#790B00"></stop>
	<stop offset="0.2582" style="stop-color:#EE3423"></stop>
	<stop offset="0.7747" style="stop-color:#EE3423"></stop>
	<stop offset="1" style="stop-color:#790B00"></stop>
</linearGradient>
<path fill="url(#SVGID_9_)" d="M149.286,124.642c-29.43,0.022-60.888,10.338-73.28,15.5c0,0,6.204,10.338,19.644,7.752
	c13.439-2.585,16.026-17.944,23.676-14.113c5.17,2.586,0.33,11.436,0.33,11.436s19.263-0.4,29.63,11.262
	c10.364-11.662,29.635-11.262,29.635-11.262s-4.843-8.849,0.324-11.436c7.659-3.832,10.249,11.528,23.684,14.113
	c13.435,2.586,19.644-7.752,19.644-7.752C210.18,134.98,178.714,124.665,149.286,124.642z"></path>
<g>
	
		<image overflow="visible" width="520" height="653" transform="matrix(0.24 0 0 0.24 86.8667 -3.772)">
	</image>
	<g>
		<g>
			<path fill="#120E07" d="M149.274,147.587l-0.72-0.126c-10.108-1.936-16.306-6.008-18.441-12.111
				c-1.86-5.317,0.136-10.98,2.925-14.231c0.596-0.694,1.14-1.366,1.612-2.005l-4.66-1.81c-5.108-1.998-14.327-8.528-12.572-19.007
				c1.086-6.526,6.049-10.266,13.621-10.266c0.52,0,1.021,0.013,1.5,0.041c-0.813-3.912-3.032-8.349-5.939-11.512
				c-1.803-1.97-4.686-4.318-8.096-4.318c-0.371,0-0.752,0.029-1.135,0.089c-7.717,1.185-6.727,10.194-6.678,10.579l0.804,6.675
				l-5.995-3.048c-8.985-4.573-14.145-12.305-14.157-21.206c-0.021-8.427,4.713-16.298,12.052-20.062
				c3.488-1.79,7.316-2.691,11.352-2.691c1.912,0,3.736,0.199,5.429,0.522c-0.587-1.929-0.927-4.006-0.903-6.134
				c0.068-5.75,2.896-10.641,7.962-13.799c13.292-8.253,18.847-17.705,18.907-17.795L149.249,0l3.118,5.374
				c0.052,0.097,5.61,9.542,18.898,17.793c5.066,3.159,7.896,8.051,7.961,13.8c0.025,2.128-0.311,4.205-0.9,6.134
				c1.696-0.324,3.516-0.522,5.426-0.522c4.04,0,7.863,0.901,11.354,2.691c7.335,3.764,12.071,11.635,12.059,20.062
				c-0.02,8.901-5.177,16.633-14.163,21.206l-5.921,3.009l0.731-6.62c0.097-0.961,0.815-9.44-6.675-10.595
				c-0.393-0.06-0.774-0.089-1.144-0.089c-3.402,0-6.286,2.357-8.096,4.327c-2.9,3.155-5.128,7.591-5.94,11.503
				c0.485-0.027,0.987-0.041,1.499-0.041c7.575,0,12.541,3.739,13.629,10.266c1.761,10.479-7.459,17.01-12.574,19.007l-4.668,1.81
				c0.485,0.646,1.017,1.311,1.619,2.009c2.79,3.247,4.781,8.911,2.926,14.228c-2.13,6.103-8.336,10.175-18.444,12.111
				L149.274,147.587L149.274,147.587z M162.896,110.291c-0.469,0-1.068,0.086-2.033,0.487c-0.479,0.206-0.511,0.348-0.54,0.476
				c-0.236,0.981,0.443,3.512,2.936,7.052l0.376-4.652c0.11-1.429-0.246-3.074-0.615-3.364
				C162.98,110.291,162.938,110.291,162.896,110.291L162.896,110.291z M135.702,110.273c-0.623,0.34-0.947,2.117-0.83,3.358
				l0.417,4.61c2.447-3.504,3.121-6.011,2.891-6.987c-0.029-0.128-0.064-0.271-0.552-0.481
				C136.586,110.341,135.973,110.273,135.702,110.273L135.702,110.273z"></path>
			<linearGradient id="SVGID_10_" gradientUnits="userSpaceOnUse" x1="94.9272" y1="75.5444" x2="203.5703" y2="75.5444">
				<stop offset="0.2637" style="stop-color:#FFD200"></stop>
				<stop offset="1" style="stop-color:#F5821F"></stop>
			</linearGradient>
			<path fill="url(#SVGID_10_)" d="M193.47,48.463c-11.285-5.785-22.972,1.047-24.412,1.944c5.16-2.797,11.634-17.151,0.307-24.194
				c-14.327-8.907-20.116-19.056-20.116-19.056s-5.783,10.148-20.12,19.056c-11.322,7.043-4.849,21.397,0.316,24.194
				c-1.446-0.897-13.132-7.729-24.414-1.944c-12.182,6.245-15.448,25.955,2.096,34.872c0,0-1.539-12.819,9.696-14.551
				c11.231-1.73,20.374,14.312,19.597,23.502c0,0-13.741-3.765-15.464,6.605c-1.735,10.368,10.34,15.069,10.34,15.069
				s-0.926-10.115,7.724-6.486c5.319,2.229,2.358,9.443-3.261,15.984c-3.711,4.329-7.078,16.546,13.47,20.473l0.021-0.131
				l0.021,0.131c20.549-3.927,17.185-16.144,13.472-20.473c-5.613-6.541-8.577-13.755-3.263-15.984
				c8.652-3.629,7.727,6.486,7.727,6.486s12.072-4.702,10.344-15.069c-1.729-10.37-15.475-6.605-15.475-6.605
				c-0.776-9.19,8.372-25.232,19.604-23.502c11.233,1.732,9.692,14.551,9.692,14.551C208.914,74.418,205.647,54.708,193.47,48.463z"></path>
			<linearGradient id="SVGID_11_" gradientUnits="userSpaceOnUse" x1="127.1069" y1="28.6875" x2="173.7746" y2="105.9196">
				<stop offset="0.2747" style="stop-color:#EE3423"></stop>
				<stop offset="1" style="stop-color:#AD2213"></stop>
			</linearGradient>
			<path fill="url(#SVGID_11_)" d="M149.249,140.283c-6.824-1.413-11.206-3.992-12.356-7.297c-1.051-2.998,0.583-6.011,1.589-7.185
				c3.082-3.582,8.033-10.45,6.683-16.192c-0.586-2.467-2.269-4.403-4.754-5.442c-1.714-0.722-3.251-1.072-4.708-1.072
				c-2.211,0-4.123,0.824-5.536,2.376c-0.757,0.822-1.289,1.767-1.662,2.732c-2.339-1.842-4.678-4.741-4.014-8.729
				c0.215-1.274,0.715-4.269,6.549-4.269c2.384,0,4.416,0.538,4.44,0.544l4.147,1.109l0.364-4.269
				c0.552-6.507-2.779-15.092-8.104-20.888c-3.995-4.341-8.619-6.635-13.381-6.635c-0.745,0-1.489,0.055-2.227,0.17
				c-7.776,1.196-11.141,6.583-12.313,11.698c-4.631-4.083-5.442-8.8-5.448-11.613c-0.011-5.756,3.188-11.122,8.155-13.661
				c2.468-1.271,5.184-1.907,8.077-1.907c5.969,0,11.049,2.674,12.467,3.498l3.763-6.102c-1.882-1.232-4.576-5.544-4.529-10.094
				c0.037-3.307,1.581-5.927,4.576-7.792c9.15-5.688,15.006-11.868,18.232-15.906c3.218,4.039,9.063,10.218,18.221,15.911
				c3.001,1.86,4.535,4.48,4.577,7.787c0.049,4.55-2.645,8.862-4.532,10.094l3.766,6.102c1.411-0.824,6.493-3.498,12.463-3.498
				c2.897,0,5.61,0.636,8.08,1.907c4.96,2.54,8.164,7.905,8.151,13.661c0,2.813-0.819,7.53-5.445,11.613
				c-1.172-5.115-4.538-10.501-12.32-11.698c-0.729-0.115-1.479-0.17-2.225-0.17c-4.755,0-9.385,2.293-13.379,6.635
				c-5.322,5.803-8.656,14.381-8.109,20.888l0.365,4.269l4.15-1.109c0.02-0.006,2.053-0.544,4.436-0.544
				c5.843,0,6.342,2.995,6.555,4.269c0.667,3.988-1.673,6.887-4.017,8.729c-0.373-0.965-0.907-1.91-1.658-2.732
				c-1.411-1.552-3.327-2.376-5.539-2.376c-1.453,0-2.994,0.35-4.703,1.065c-2.486,1.046-4.175,2.982-4.762,5.449
				c-1.346,5.743,3.603,12.61,6.691,16.189c0.997,1.177,2.635,4.19,1.592,7.188C160.452,136.291,156.076,138.87,149.249,140.283
				L149.249,140.283z"></path>
			<g>
				<path fill="#120E07" d="M149.257,102.303c-17.316,0-31.411-14.079-31.411-31.398c0-17.313,14.095-31.399,31.411-31.399
					c17.314,0,31.393,14.087,31.393,31.399C180.649,88.225,166.571,102.303,149.257,102.303L149.257,102.303z"></path>
				<linearGradient id="SVGID_12_" gradientUnits="userSpaceOnUse" x1="121.4355" y1="70.9063" x2="177.0693" y2="70.9063">
					<stop offset="0.2637" style="stop-color:#FFD200"></stop>
					<stop offset="1" style="stop-color:#F5821F"></stop>
				</linearGradient>
				<path fill="url(#SVGID_12_)" d="M177.069,70.905c0,15.367-12.457,27.813-27.821,27.813c-15.354,0-27.813-12.446-27.813-27.813
					c0-15.362,12.458-27.811,27.813-27.811C164.612,43.094,177.069,55.543,177.069,70.905z"></path>
				<path fill="#120E07" d="M173.991,70.905c0,13.671-11.082,24.747-24.743,24.747c-13.658,0-24.736-11.076-24.736-24.747
					c0-13.66,11.078-24.737,24.736-24.737C162.909,46.168,173.991,57.246,173.991,70.905z"></path>
				<path fill="#EF4134" d="M170.676,67.534c0,0-2.275,11.605-10.835,13.103c-4.619,0.801-7.132-1.29-7.059-3.044
					c0.594-0.313,1.141-0.683,1.636-1.133c1.577,0.778,4.795,1.743,8.239-0.283c4.548-2.684,8.307-11.787,3.211-19.184
					c-4.752-6.917-13.065-9.61-19.881-7.624c0,0,11.621,2.287,13.103,10.836c0.806,4.616-1.282,7.124-3.043,7.057
					c-0.311-0.599-0.684-1.145-1.127-1.64c0.777-1.575,1.732-4.797-0.284-8.234c-2.688-4.552-11.802-8.31-19.188-3.211
					c-6.918,4.752-9.613,13.063-7.63,19.882c0,0,2.289-11.619,10.837-13.106c4.626-0.805,7.133,1.287,7.063,3.043
					c-0.594,0.304-1.14,0.688-1.638,1.131c-1.576-0.789-4.794-1.742-8.239,0.286c-4.546,2.677-8.303,11.79-3.214,19.179
					c4.759,6.917,13.069,9.615,19.89,7.632c0,0-11.612-2.297-13.101-10.843c-0.806-4.618,1.272-7.124,3.035-7.054
					c0.313,0.589,0.685,1.136,1.135,1.63c-0.78,1.583-1.738,4.799,0.287,8.242c2.677,4.548,11.793,8.3,19.187,3.214
					C169.967,82.66,172.66,74.342,170.676,67.534z M143.201,70.786c0-3.338,2.707-6.041,6.047-6.041c3.34,0,6.05,2.703,6.05,6.041
					c0,3.344-2.71,6.057-6.05,6.057C145.908,76.842,143.201,74.129,143.201,70.786z"></path>
			</g>
		</g>
	</g>
</g>
<path fill="#120E07" d="M58.301,98.192c0,1.575-1.279,2.847-2.849,2.847c-1.578,0-2.852-1.272-2.852-2.847
	c0-1.573,1.274-2.849,2.852-2.849C57.022,95.343,58.301,96.619,58.301,98.192z"></path>
<path fill="#120E07" d="M76.794,89.492c0,1.576-1.278,2.852-2.845,2.852c-1.577,0-2.847-1.275-2.847-2.852
	c0-1.577,1.271-2.851,2.847-2.851C75.516,86.642,76.794,87.916,76.794,89.492z"></path>
<path fill="#120E07" d="M96.017,82.736c0,1.567-1.276,2.849-2.849,2.849c-1.571,0-2.845-1.282-2.845-2.849
	c0-1.58,1.274-2.851,2.845-2.851C94.741,79.885,96.017,81.156,96.017,82.736z"></path>
<path fill="#120E07" d="M118.736,77.799c0,1.573-1.28,2.849-2.854,2.849c-1.57,0-2.847-1.276-2.847-2.849
	c0-1.57,1.277-2.847,2.847-2.847C117.456,74.952,118.736,76.229,118.736,77.799z"></path>
<circle fill="#120E07" cx="243.049" cy="98.192" r="2.847"></circle>
<path fill="#120E07" d="M221.704,89.492c0,1.576,1.279,2.852,2.85,2.852c1.576,0,2.849-1.275,2.849-2.852
	c0-1.577-1.272-2.851-2.849-2.851C222.983,86.642,221.704,87.916,221.704,89.492z"></path>
<path fill="#120E07" d="M202.481,82.736c0,1.567,1.275,2.849,2.849,2.849s2.853-1.282,2.853-2.849c0-1.58-1.279-2.851-2.853-2.851
	S202.481,81.156,202.481,82.736z"></path>
<path fill="#120E07" d="M179.77,77.799c0,1.573,1.275,2.849,2.845,2.849c1.574,0,2.853-1.276,2.853-2.849
	c0-1.57-1.278-2.847-2.853-2.847C181.045,74.952,179.77,76.229,179.77,77.799z"></path>
<g>
	<path fill="#120E07" d="M272.15,200.552c0,0-1.188,18.98-30.479,18.98c-25.762,0-29.56,0-29.56,0l1.182,2.706c0,0,3.788,0,29.55,0
		c29.294,0,30.476-18.98,30.476-18.98L272.15,200.552z"></path>
</g>
<g>
	
		<image overflow="visible" width="1052" height="892" transform="matrix(0.24 0 0 0.24 28.7285 152.7197)">
	</image>
	<g>
		<g>
			<g>
				<g>
					<linearGradient id="SVGID_13_" gradientUnits="userSpaceOnUse" x1="109.0015" y1="183.0391" x2="126.725" y2="213.5077">
						<stop offset="0.2637" style="stop-color:#FFD200"></stop>
						<stop offset="1" style="stop-color:#F5821F"></stop>
					</linearGradient>
					<path fill="url(#SVGID_13_)" d="M52.997,219.524c-0.204,0.978,0.107,1.805,0.698,2.373c0.447,0.43,1.033,0.725,1.774,0.725
						c1.717,0,3.391-1.386,3.744-3.098c0.218-1.054-0.167-1.942-0.87-2.502c-0.434-0.345-0.948-0.591-1.607-0.591
						C55.017,216.431,53.347,217.821,52.997,219.524z M49.671,240.69c1.145-0.492,1.68-1.801,1.031-3.745
						c0-0.01,0-0.012-0.008-0.018c0,0-5.273-0.479-5.971-1.214c-0.613-0.628-2.97,1.481-0.403,3.948
						c0.398,0.379,0.896,0.764,1.551,1.149C45.871,240.811,48.188,241.327,49.671,240.69z M91.595,182.427
						c-2.723,0.639-1.601,5.411-5.604,11.609c-2.1,3.255-3.927,4.325-5.214,4.364c-1.165,0.032-1.887-0.775-1.936-1.614
						c-0.131-2.158-0.565-3.811-1.638-4.171c-0.032,0-0.076-0.031-0.1-0.018c-0.005,0-0.012,0.005-0.012,0.005
						c-0.383-0.092-0.819-0.073-1.363,0.178c-2.198,0.991-1.86,6.81-3.265,9.662c-1.386,2.826-4.318,3.917-8.232,4.32
						c-12.721,0.777-13.574,5.233-14.236,8.054c-0.719,3.017-3.648,3.208-4.742,2.472c-1.089-0.742-5.503-4.701-7.76-0.989
						c-2.255,3.707-0.923,6.931-2.728,9.649c-1.594,2.402-1.975,3.646-1.107,4.417c0.11,0.097,0.234,0.193,0.392,0.278
						c1.147,0.636,1.748,0.382,2.302,2.158c0.089,0.298,0.18,0.633,0.272,1.059c0.163,0.751,0.427,1.355,0.751,1.793
						c0.958,1.3,2.386,1.107,2.875-1.293c0.664-3.218,2.358-4.21,9.477-3.716c2.221,0.157,3.608,1.208,4.408,2.653
						c1.75,3.181,0.671,8.262-0.534,9.957c-1.751,2.491-11.109,1.987-14.734,1.492c-3.632-0.497-3.657,4.456-3.907,5.693
						c-0.215,1.034,1.288,4.817,3.854,6.617c0.494,0.341,1.017,0.643,1.586,0.798c3.529,0.987,2.893-1.979,5.094-4.2
						c2.026-2.056,15.15,0.191,17.185,0.559l5.408-25.932c0.955-4.634,2.394-8.951,4.21-12.981c-3.868,3.44-9.146,3.183-9.146,3.183
						c-0.018,0.385-0.044,0.773-0.12,1.165c-0.809,3.938-4.674,7.127-8.632,7.127c-1.158,0-2.174-0.301-3.042-0.788
						c-1.013-0.573-1.81-1.408-2.281-2.459c-0.338-0.657-0.52-1.387-0.489-2.137c-0.027-0.558-0.005-1.146,0.12-1.743
						c0.805-3.933,4.659-7.119,8.621-7.119c0.294,0,0.563,0.054,0.835,0.083c3.699,1.167,12.063,1.392,17.958-4.474
						c4.869-7.842,11.308-14.323,18.507-19.521c0.125-2.63-0.385-4.545-1.22-5.515C92.903,182.511,92.27,182.271,91.595,182.427z
						 M185.836,161.802l0.239-1.264c0.039-0.766-0.097-1.398-0.337-1.923c-0.728-1.577-2.317-2.124-2.317-2.124
						s-3.089,1.337-3.713,4.067l-0.34,1.523c-11.373,0.287-22.541-0.506-23.6-0.6l-2.184,10.608h19.399
						c18.821,0,29.756-5.884,34.489-9.265l1.022-4.961c-5.931,2.093-13.26,3.214-20.511,3.781
						C187.273,161.7,186.555,161.762,185.836,161.802z"></path>
					<g>
						<g>
							<path fill="#120E07" d="M55.469,222.622c-0.741,0-1.327-0.295-1.774-0.725c-0.006,0.018-0.015,0.039-0.018,0.05
								c0,0,2.044,2.642,3.757,2.642c1.721,0,3.399-1.384,3.748-3.096c0.254-1.209-0.264-2.156-1.216-3.025l-1.544-1.463
								c-0.02,0-0.049,0.013-0.078,0.018c0.703,0.56,1.088,1.449,0.87,2.502C58.86,221.236,57.186,222.622,55.469,222.622z"></path>
							<path fill="#120E07" d="M42.227,236.327c0.657-3.213,2.354-4.205,9.465-3.711c0.968,0.066,1.766,0.319,2.443,0.68
								c-0.8-1.445-2.187-2.496-4.408-2.653c-7.119-0.494-8.813,0.499-9.477,3.716c-0.489,2.4-1.917,2.593-2.875,1.293
								C38.661,238.232,41.584,239.438,42.227,236.327z"></path>
							<path fill="#120E07" d="M51.356,225.982c-0.096-0.17-0.229-0.313-0.311-0.487c-0.336-0.659-0.518-1.387-0.487-2.138
								c-0.026-0.56-0.008-1.145,0.111-1.74c0.813-3.935,4.673-7.122,8.631-7.122c0.296,0,0.558,0.05,0.835,0.086
								c3.692,1.166,12.067,1.391,17.956-4.476c4.874-7.845,11.308-14.328,18.509-19.523c0.139-2.83-0.466-4.835-1.421-5.72
								c0,0-0.942-1.056-1.771-1.763c0.835,0.969,1.345,2.884,1.22,5.515c-7.199,5.197-13.638,11.678-18.507,19.521
								c-5.895,5.866-14.26,5.641-17.958,4.474c-0.272-0.029-0.541-0.083-0.835-0.083c-3.962,0-7.816,3.186-8.621,7.119
								c-0.125,0.597-0.147,1.185-0.12,1.743c-0.031,0.75,0.15,1.479,0.489,2.137C49.546,224.574,50.343,225.409,51.356,225.982z"></path>
							<path fill="#120E07" d="M68.086,228.277l-5.408,25.932c-2.035-0.368-15.159-2.614-17.185-0.559
								c-2.201,2.221-1.565,5.188-5.094,4.2c-0.57-0.155-1.093-0.457-1.586-0.798c0.915,1.247,2.114,2.368,3.556,2.771
								c3.534,0.986,2.899-1.978,5.089-4.202c2.033-2.059,15.157,0.189,17.191,0.553l5.406-25.932
								c0.955-4.633,2.391-8.948,4.21-12.978l-1.97-1.97C70.48,219.326,69.041,223.643,68.086,228.277z"></path>
							<path fill="#120E07" d="M49.671,240.69c-1.482,0.636-3.8,0.12-3.8,0.12c-0.654-0.385-1.153-0.771-1.551-1.149
								c0.041,0.055,0.043,0.089,0.083,0.146c0.422,0.578,2.425,2.373,3.437,2.975c0,0,2.317,0.52,3.804-0.12
								c1.147-0.494,1.685-1.811,1.024-3.765c0,0-1.017-1.859-1.805-1.952c-0.052-0.007-0.108,0.006-0.16,0
								C51.351,238.889,50.815,240.199,49.671,240.69z"></path>
							<path fill="#120E07" d="M174.959,174.062c18.812,0,29.753-5.885,34.486-9.263l1.02-4.964l-1.969-1.97l-1.022,4.961
								c-4.733,3.381-15.668,9.265-34.489,9.265h-19.399l1.967,1.971H174.959z"></path>
							<path fill="#120E07" d="M78.842,196.786c0.048,0.838,0.771,1.646,1.936,1.614c-0.129-1.637-0.445-2.954-1.118-3.556
								c0,0-1.816-2.143-2.456-2.229C78.277,192.975,78.71,194.628,78.842,196.786z"></path>
							<path fill="#120E07" d="M185.836,161.802c0.719-0.041,1.438-0.102,2.149-0.157c-0.256-1.822-1.609-2.711-2.247-3.03
								c0.24,0.524,0.376,1.157,0.337,1.923L185.836,161.802z"></path>
							<path fill="#120E07" d="M86.009,280.846c-3.234,15.117-2.761,27.296,5.826,34.758c-6.661-7.553-6.821-18.928-3.857-32.79
								l9.909-48.204c4.764-23.185,28.438-37.117,54.249-37.117h26.242c16.238,0,30.702-3.268,35.973-11.913l3.583-17.458
								l-1.971-1.975l-3.581,17.46c-5.267,8.653-19.74,11.912-35.981,11.912h-26.241c-25.809,0-49.475,13.938-54.237,37.12
								L86.009,280.846z"></path>
							<path fill="#120E07" d="M98.843,307.021c3.84,4.535,10.58,7.193,20.966,8.628l3.273-15.73l-1.973-1.968l-3.268,15.729
								C109.05,312.464,102.864,310.382,98.843,307.021z"></path>
							<path fill="#120E07" d="M159.88,221.417h47.102l5.076-24.695c0,0-1.969-1.852-1.969-1.975l-5.075,24.699h-47.103
								c-20.801,0-30.98,2.973-35.611,25.513l-6.583,32.063c-2.328,10.563-2.967,16.234,1.584,19.265
								c-2.26-3.328-1.521-8.656,0.38-17.3l6.589-32.057C128.901,224.391,139.079,221.417,159.88,221.417z"></path>
							<path fill="#120E07" d="M34.051,230.642c-0.157-0.085-0.282-0.181-0.392-0.278c0.239,0.508,1.921,2.004,2.361,2.251
								c0.138,0.076,0.24,0.134,0.332,0.185C35.799,231.024,35.199,231.278,34.051,230.642z"></path>
							<path fill="#120E07" d="M155.299,315.147l1.975,1.978h8.589c9.867,0,17.529,4.348,23.227,9.689
								c-5.85-6.196-14.137-11.667-25.198-11.667H155.299z"></path>
							<polygon fill="#120E07" points="167.089,269.268 194.793,269.268 195.198,267.297 165.117,267.297 							"></polygon>
							<path fill="#120E07" d="M226.049,265.627l1.968,1.975c7.66-0.43,14.465-3.922,20.376-9.083l-1.975-1.971
								C240.513,261.707,233.708,265.208,226.049,265.627z"></path>
							<path fill="#120E07" d="M224.274,251.955c-5.163,9.801-9.129,20.759-11.547,31.85l-12.506,60.49l1.966,1.976l12.512-60.498
								c2.408-11.084,6.384-22.045,11.544-31.846L224.274,251.955z"></path>
							<path fill="#120E07" d="M251.578,251.412h-17.919l1.972,1.97h17.922c2.955-3.305,5.643-6.975,8.058-10.766l-1.969-1.97
								C257.227,244.439,254.533,248.104,251.578,251.412z"></path>
							<path fill="#120E07" d="M271.613,213.139c-1.544,7.45-4.328,15.859-6.97,18.863c-1.91,2.356-8.515,5.118-14.322,5.118
								c-1.252,0-2.278,0.196-3.137,0.526l0,0c3.496-5.32,4.724-9.827,5.131-12.531c-0.757,0.218-1.531,0.435-2.347,0.633
								c-1.92,9.53-10.734,18.473-16.17,22.693c-0.039,0.031-0.084,0.07-0.123,0.097l-0.017,2.875
								c4.234-3.101,7.481-6.199,10.029-9.158h0.645c1.155-1.622,4.464-3.163,7.957-3.163c5.808,0,12.411-2.765,14.321-5.118
								c2.642-3.007,5.429-11.415,6.974-18.863C273.585,215.11,271.613,213.294,271.613,213.139z"></path>
							<path fill="#120E07" d="M151.781,291.228l-9.479,46.146c-1.921,8.851,2.23,14.804,6.18,18.307
								c-3.193-3.609-5.806-8.971-4.207-16.345l9.481-46.131h29.952l3.153-15.348l-1.972-1.972l-3.15,15.342H151.781z"></path>
							<path fill="#120E07" d="M225.068,243.377h-63.344l-6.753,32.508h2.38l6.348-30.537h67.205c1.38,0,2.338,0.18,2.907,0.733
								C233.226,243.684,230.134,243.377,225.068,243.377z"></path>
							<path fill="#120E07" d="M117.818,325.454l-1.97-1.975l-3.179,15.384c-16.424-1.029-28.542-5.963-36.647-13.483
								c8.058,8.621,20.801,14.338,38.614,15.451L117.818,325.454z"></path>
							<polygon fill="#120E07" points="110.358,359.595 112.329,361.563 156.364,361.563 154.396,359.595 							"></polygon>
							<path fill="#120E07" d="M181.53,331.748c3.282,3.625,4.766,7.115,4.766,7.115h-35.882l1.972,1.968h35.881
								C188.267,340.831,186.218,335.963,181.53,331.748z"></path>
						</g>
						<linearGradient id="SVGID_14_" gradientUnits="userSpaceOnUse" x1="105.7173" y1="187.1958" x2="205.3337" y2="334.2484">
							<stop offset="0.1648" style="stop-color:#FFFFFF"></stop>
							<stop offset="0.456" style="stop-color:#FFFFFF"></stop>
							<stop offset="1" style="stop-color:#94CEF1"></stop>
						</linearGradient>
						<path fill="url(#SVGID_14_)" d="M228.412,227.95h-93.589c0.881,0.63,1.62,1.29,2.287,1.97
							c0.275,0.287,0.538,0.578,0.777,0.874c4.743,5.733,2.97,13.114,1.467,20.43l-18.59,89.394l-0.041-0.046
							c-2.417,11.732-10.366,19.022-10.366,19.022h44.038c0,0-2.902-1.243-5.913-3.914c-3.95-3.503-8.101-9.456-6.18-18.307
							l9.479-46.146h29.959l3.15-15.342h-29.919l6.753-32.508h63.344c5.065,0,8.157,0.306,8.743,2.705
							c0.155,0.638,0.169,1.397-0.052,2.372c0.013-0.005,0.026-0.011,0.039-0.013c5.436-4.22,14.25-13.163,16.17-22.693
							C244.414,227.105,237.435,227.95,228.412,227.95z M115.848,323.479c-11.319-0.799-19.028-3.544-24.014-7.876
							c-8.587-7.462-9.06-19.641-5.826-34.758l9.913-48.208c4.762-23.182,28.428-37.12,54.237-37.12h26.241
							c16.241,0,30.715-3.258,35.981-11.912l3.581-17.46c0,0-12.91,14.029-42.981,14.029h-29.784
							c-24.549,0-60.498,16.233-67.376,49.693l-10.766,51.611c-3.948,17.339-0.542,33.221,10.968,43.9
							c8.106,7.521,20.223,12.454,36.647,13.483L115.848,323.479z M122.3,244.959c4.631-22.54,14.811-25.513,35.611-25.513h47.103
							l5.075-24.699c0,0-6.811,9.357-32.644,9.357h-23.331c-22.649,0-45.331,5.997-51.269,34.873l-8.07,38.675
							c-3.328,14.613-2.643,23.762,4.067,29.368c4.021,3.36,10.207,5.442,18.998,6.659l3.268-15.729
							c-1.551-0.443-2.802-0.991-3.807-1.664c-4.552-3.03-3.912-8.702-1.584-19.265L122.3,244.959z M163.968,323.745h-10.451
							l-3.103,15.118h35.882c0,0-1.483-3.49-4.766-7.115C177.97,327.827,172.285,323.745,163.968,323.745z M165.117,267.297h30.081
							l-0.405,1.97l-6.276,30.535h-30.064l-3.153,15.345h8.592c11.062,0,19.349,5.471,25.198,11.667
							c7.66,8.112,11.133,17.48,11.133,17.48l12.506-60.49c2.418-11.091,6.384-22.049,11.547-31.85h-56.001L165.117,267.297z"></path>
					</g>
				</g>
				<g>
					<path fill="#120E07" d="M274.775,200.666c0,0-3.813,18.867-33.104,18.867c-25.762,0-29.56,0-29.56,0l1.913,1.91
						c0,0,3.788,0,29.553,0c29.294,0,33.107-18.87,33.107-18.87L274.775,200.666z"></path>
					<linearGradient id="SVGID_15_" gradientUnits="userSpaceOnUse" x1="228.3203" y1="196.2354" x2="268.9844" y2="233.5111">
						<stop offset="0.2637" style="stop-color:#FFD200"></stop>
						<stop offset="1" style="stop-color:#F5821F"></stop>
					</linearGradient>
					<path fill="url(#SVGID_15_)" d="M266.647,200.666c-3.604,12.978-10.628,15.958-26.63,9.488
						c-12.997-5.254-24.84-6.049-24.84-6.049l-3.065,15.427c0,0,3.798,0,29.56,0c29.29,0,33.104-18.867,33.104-18.867H266.647z"></path>
				</g>
			</g>
			<linearGradient id="SVGID_16_" gradientUnits="userSpaceOnUse" x1="216.1982" y1="209.4692" x2="256.8552" y2="246.7384">
				<stop offset="0.2637" style="stop-color:#FFD200"></stop>
				<stop offset="1" style="stop-color:#F5821F"></stop>
			</linearGradient>
			<path fill="url(#SVGID_16_)" d="M226.049,265.627c7.659-0.419,14.464-3.92,20.369-9.08h-15.977
				C228.778,259.335,227.247,262.259,226.049,265.627z M252.315,225.115c-0.407,2.705-1.635,7.211-5.131,12.531
				c0.864-0.33,1.885-0.526,3.137-0.526c5.808,0,12.412-2.762,14.322-5.118c2.642-3.004,5.426-11.413,6.97-18.863
				C267.485,217.266,262.584,222.119,252.315,225.115z M243.688,242.254c-2.548,2.958-5.795,6.057-10.029,9.158h17.919
				c2.955-3.308,5.648-6.973,8.063-10.765c-2.78,0.976-5.662,1.607-8.543,1.607H243.688z"></path>
		</g>
	</g>
</g>
<g>
	
		<image overflow="visible" width="1208" height="312" transform="matrix(0.24 0 0 0.24 4.3516 331.3691)">
	</image>
	<g>
		<g>
			<path fill="#120E07" d="M284.627,344.528c-10.603-8.475-31.249-9.388-39.641-9.388c-6.487,0-12.709,0.453-15.816,1.288
				c-5.802,1.561-9.408,4.483-11.036,10.243l-4.917,14.114c-11.813-2.276-28.274-4.61-63.96-4.61v0.017l-0.008-0.017
				c-35.688,0-52.15,2.334-63.958,4.61l-4.914-14.114c-1.633-5.76-5.239-8.683-11.041-10.243c-3.104-0.835-9.331-1.288-15.817-1.288
				c-8.388,0-29.042,0.913-39.645,9.388c0,0-6.535,4.166-4.729,8.779l9.81,26.018c0.141,0.337,3.702,8.265,13.14,8.265
				c1.452,0,2.98-0.19,4.536-0.582c8.857-2.218,14.151-6.637,14.373-6.824l2.507-2.13l-2.446-2.198
				c-1.845-1.648-4.039-3.26-6.187-4.704c2.828,0.091,5.552,0.758,8.09,2.04l2.101,1.059l2.132,5.564l-0.015-0.013l3.516,9.142
				l0.225,0.599l0.287,0.741l0.003,0.004l1.019,2.638l0.181,0.473l0.33,0.379c0.251,0.295,6.354,7.229,16.463,7.229
				c1.679,0,3.404-0.201,5.105-0.583c11.8-2.697,37.147-5.588,64.942-5.588c27.787,0,53.141,2.891,64.931,5.588
				c1.706,0.382,3.425,0.583,5.108,0.583c10.11,0,16.209-6.935,16.465-7.229l0.327-0.379l0.181-0.473l1.02-2.638l0.007-0.004
				l0.278-0.741l0.236-0.599l3.513-9.142l-0.013,0.013l2.127-5.564l2.104-1.059c2.541-1.282,5.261-1.949,8.084-2.04
				c-2.137,1.444-4.338,3.056-6.177,4.704l-2.454,2.198l2.516,2.13c0.213,0.188,5.506,4.606,14.363,6.824
				c1.558,0.392,3.085,0.582,4.539,0.582c9.446,0,13-7.928,13.146-8.265l9.806-26.018
				C291.166,348.694,284.627,344.528,284.627,344.528z"></path>
			<g>
				<linearGradient id="SVGID_17_" gradientUnits="userSpaceOnUse" x1="12.3291" y1="367.1035" x2="49.1431" y2="367.1035">
					<stop offset="0" style="stop-color:#F36D20"></stop>
					<stop offset="0.2308" style="stop-color:#FFD200"></stop>
					<stop offset="0.4945" style="stop-color:#FAA21A"></stop>
					<stop offset="0.7967" style="stop-color:#FFD200"></stop>
					<stop offset="1" style="stop-color:#F15D21"></stop>
				</linearGradient>
				<path fill="url(#SVGID_17_)" d="M34.605,368.364c5.854-6.61,2.08-18.88,2.08-18.88s-1.508,3.208-11.703,5.856
					c-10.197,2.635-12.653-1.703-12.653-1.703l1.552,4.111c5.508,1.671,9.522,0.958,11.816,0.366
					c4.173-1.085,7.082-2.295,9.113-3.429c0.45,3.827,0.286,8.796-2.351,11.777l-2.438,2.749l3.262,1.692
					c0.076,0.036,6.066,3.179,11.036,6.87c-2.074,1.207-5.178,2.687-9.089,3.664c-1.097,0.278-2.156,0.414-3.137,0.414
					c-4.636,0-8.496-2.434-10.901-4.7l0.389,1.029c0,0,3.773,8.683,14.347,6.041c8.315-2.082,13.214-6.231,13.214-6.231
					C43.672,373.081,34.605,368.364,34.605,368.364z"></path>
				<path fill="#120E07" d="M35.231,381.439c3.911-0.978,7.015-2.457,9.089-3.664c-4.969-3.691-10.96-6.834-11.036-6.87
					l-3.262-1.692l2.438-2.749c2.637-2.981,2.8-7.95,2.351-11.777c-2.032,1.134-4.94,2.344-9.113,3.429
					c-2.293,0.592-6.308,1.305-11.816-0.366l7.312,19.404c2.405,2.267,6.266,4.7,10.901,4.7
					C33.075,381.854,34.134,381.718,35.231,381.439z"></path>
			</g>
			<g>
				<linearGradient id="SVGID_18_" gradientUnits="userSpaceOnUse" x1="222.1709" y1="345.1758" x2="285.4453" y2="345.1758">
					<stop offset="0" style="stop-color:#F36D20"></stop>
					<stop offset="0.2308" style="stop-color:#FFD200"></stop>
					<stop offset="0.4945" style="stop-color:#FAA21A"></stop>
					<stop offset="0.7967" style="stop-color:#FFD200"></stop>
					<stop offset="1" style="stop-color:#F15D21"></stop>
				</linearGradient>
				<path fill="url(#SVGID_18_)" d="M259.276,341.741c-4.409-0.563-9.217-0.864-14.296-0.864c-6.851,0-12.27,0.583-14.419,1.117
					c-5.008,1.246-7.128,3.991-8.006,5.882c-0.136-0.389-0.271-0.768-0.382-1.237c0,0-0.385-5.399,7.691-7.426
					c7.2-1.813,39.712-3.036,52.972,7.559c0.887,0.716,1.913,1.651,2.608,2.943c-0.358,0.828-0.887,1.647-1.683,2.35
					c-0.007,0.02-0.11,0.13-0.305,0.278C279.955,345.273,266.767,343.036,259.276,341.741z"></path>
				<linearGradient id="SVGID_19_" gradientUnits="userSpaceOnUse" x1="244.2422" y1="368.0469" x2="259.7617" y2="368.0469">
					<stop offset="0" style="stop-color:#F36D20"></stop>
					<stop offset="0.2308" style="stop-color:#FFD200"></stop>
					<stop offset="0.4945" style="stop-color:#FAA21A"></stop>
					<stop offset="0.7967" style="stop-color:#FFD200"></stop>
					<stop offset="1" style="stop-color:#F15D21"></stop>
				</linearGradient>
				<path fill="url(#SVGID_19_)" d="M259.049,365.742c0.208,0.547,0.447,1.091,0.713,1.615c-0.583,0.337-1.263,0.734-1.962,1.155
					c-4.267-0.618-8.896-0.242-13.558,2.117l1.191-3.337l0.129-0.356C250.723,365.477,255.501,365.153,259.049,365.742z"></path>
				<path fill="#120E07" d="M230.562,341.994c2.149-0.534,7.568-1.117,14.419-1.117c5.079,0,9.887,0.301,14.296,0.864
					c7.49,1.295,20.679,3.532,24.182,10.602c-0.492,0.376-1.642,0.972-4.004,0.972c-1.513,0-3.267-0.253-5.213-0.758
					c-8.199-2.123-9.928-4.486-9.954-4.513c-1.534-1.305-3.257-3.801-3.257-3.801s-1.359,1.913-1.962,4.396
					c-0.142,0.47-2.861,9.582-0.02,17.103c-3.548-0.589-8.326-0.266-13.486,1.194l1.603-4.503c0,0,1.563-9.481-8.044-10.032
					c-8.013-0.46-13.069,1.541-15.672-2.554c-0.343-0.534-0.631-1.218-0.894-1.972C223.434,345.985,225.554,343.24,230.562,341.994z
					"></path>
			</g>
			<linearGradient id="SVGID_20_" gradientUnits="userSpaceOnUse" x1="249.3535" y1="367.1035" x2="286.1738" y2="367.1035">
				<stop offset="0" style="stop-color:#F36D20"></stop>
				<stop offset="0.2308" style="stop-color:#FFD200"></stop>
				<stop offset="0.4945" style="stop-color:#FAA21A"></stop>
				<stop offset="0.7967" style="stop-color:#FFD200"></stop>
				<stop offset="1" style="stop-color:#F15D21"></stop>
			</linearGradient>
			<path fill="url(#SVGID_20_)" d="M263.886,368.364c-5.847-6.61-2.072-18.88-2.072-18.88s1.512,3.208,11.706,5.856
				c10.197,2.635,12.654-1.703,12.654-1.703l-1.554,4.111c-5.503,1.671-9.523,0.958-11.815,0.366
				c-4.173-1.085-7.087-2.295-9.11-3.429c-0.453,3.827-0.294,8.796,2.348,11.777l2.435,2.749l-3.261,1.692
				c-0.074,0.036-6.066,3.179-11.042,6.87c2.085,1.207,5.187,2.687,9.094,3.664c1.098,0.278,2.152,0.414,3.14,0.414
				c4.636,0,8.495-2.434,10.903-4.7l-0.392,1.029c0,0-3.774,8.683-14.348,6.041c-8.319-2.082-13.218-6.231-13.218-6.231
				C254.828,373.081,263.886,368.364,263.886,368.364z"></path>
			<path fill="#120E07" d="M263.268,381.439c-3.907-0.978-7.009-2.457-9.094-3.664c4.976-3.691,10.968-6.834,11.042-6.87
				l3.261-1.692l-2.435-2.749c-2.642-2.981-2.801-7.95-2.348-11.777c2.023,1.134,4.938,2.344,9.11,3.429
				c2.292,0.592,6.313,1.305,11.815-0.366l-7.31,19.404c-2.408,2.267-6.268,4.7-10.903,4.7
				C265.42,381.854,264.365,381.718,263.268,381.439z"></path>
			<path fill="#120E07" d="M232.066,370.142c-3.24,0-7.073-0.505-13.172-1.748l-1.392-0.292
				c-12.784-2.625-27.284-5.594-68.254-5.594c-40.977,0-55.464,2.969-68.251,5.594l-1.389,0.292
				c-6.107,1.243-9.93,1.748-13.171,1.748c-1.996,0-7.233-0.541-10.706-2.172l7.875,20.543c3.07,2.412,8.837,6.083,15.595,6.17
				c1.198,0.01,2.436-0.146,3.663-0.427c12.122-2.774,38.062-5.753,66.383-5.753c28.326,0,54.262,2.979,66.393,5.753
				c1.224,0.281,2.457,0.437,3.657,0.427c6.763-0.087,12.538-3.771,15.613-6.183l7.873-20.53
				C239.302,369.601,234.07,370.142,232.066,370.142z"></path>
			<g>
				<path fill="#FFFFFF" d="M90.033,385.907c-0.625,0.368-2.01,0.848-3.14,1.035c-1.771,0.272-3.192-0.022-4.386-0.86
					c-1.554-1.049-2.629-3.173-3.009-5.77c-0.827-5.483,2.022-8.265,5.317-8.779c1.17-0.178,2.078-0.087,2.601,0.065l-0.113,2.608
					c-0.466-0.142-1.062-0.188-1.829-0.058c-2.047,0.304-3.456,1.923-2.813,5.853c0.599,3.623,2.263,4.7,3.665,4.48
					c0.28-0.045,0.485-0.101,0.586-0.162l-0.592-3.635l-1.384,0.21l-0.393-2.396l4.165-0.647L90.033,385.907z"></path>
				<path fill="#FFFFFF" d="M94.668,385.738l-0.727-5.801l-4.613-8.941l3.252-0.385l1.521,3.496c0.403,0.936,0.837,2.02,1.212,3.12
					l0.048-0.01c0.047-1.126,0.159-2.253,0.305-3.366l0.482-3.651l3.15-0.383l-2.339,9.653l0.745,5.908L94.668,385.738z"></path>
				<path fill="#FFFFFF" d="M108.849,377.552l-3.579,0.33l0.396,4.095l4.039-0.362l0.245,2.561l-7.083,0.647l-1.463-15.186
					l6.811-0.618l0.243,2.566l-3.757,0.34l0.33,3.5l3.576-0.33L108.849,377.552z"></path>
				<path fill="#FFFFFF" d="M121.301,375.492c0.396,5.743-1.547,8.2-4.527,8.388c-3.559,0.24-5.212-3.334-5.495-7.513
					c-0.275-4.16,1.178-7.86,4.642-8.081C119.722,368.05,121.068,372.022,121.301,375.492z M114.453,376.208
					c0.241,3.454,1.026,5.173,2.261,5.099c1.28-0.087,1.619-2.373,1.415-5.465c-0.188-2.67-0.767-5.06-2.143-4.969
					C114.775,370.941,114.225,372.938,114.453,376.208z"></path>
				<path fill="#FFFFFF" d="M124.382,383.259l-0.614-15.244l2.8-0.104l2.666,5.882c0.513,1.152,1.363,3.072,1.848,4.384h0.055
					c-0.164-1.603-0.469-4.241-0.586-7.045l-0.138-3.37l2.686-0.094l0.607,15.234l-2.795,0.107l-2.637-5.701
					c-0.559-1.266-1.358-3.159-1.764-4.532h-0.052c0.134,1.548,0.35,3.892,0.473,6.974l0.131,3.412L124.382,383.259z"></path>
				<path fill="#FFFFFF" d="M145.739,382.301c-0.672,0.278-2.115,0.569-3.265,0.582c-1.792,0.026-3.153-0.449-4.215-1.456
					c-1.381-1.25-2.13-3.496-2.122-6.132c-0.013-5.545,3.216-7.898,6.565-7.95c1.185-0.007,2.075,0.207,2.575,0.431l-0.508,2.557
					c-0.443-0.197-1.034-0.326-1.798-0.307c-2.079,0.019-3.713,1.421-3.658,5.412c0.052,3.658,1.538,4.96,2.964,4.94
					c0.281,0,0.498-0.022,0.608-0.071l-0.063-3.697l-1.387,0.02l-0.039-2.422l4.223-0.055L145.739,382.301z"></path>
				<path fill="#FFFFFF" d="M148.57,382.689l0.123-15.248l2.809,0.014l2.372,6.001c0.46,1.179,1.215,3.134,1.642,4.475h0.052
					c-0.084-1.612-0.259-4.267-0.246-7.07l0.032-3.363l2.681,0.009l-0.129,15.264l-2.797-0.028l-2.355-5.808
					c-0.494-1.295-1.209-3.218-1.554-4.61h-0.041c0.062,1.548,0.154,3.895,0.125,6.979l-0.029,3.415L148.57,382.689z"></path>
				<path fill="#FFFFFF" d="M163.849,379.416l-0.816,3.467l-2.948-0.087l3.881-15.16l3.668,0.11l2.573,15.351l-2.965-0.091
					l-0.561-3.502L163.849,379.416z M166.468,377.183l-0.408-3.205c-0.143-0.936-0.295-2.457-0.404-3.479l-0.078-0.007
					c-0.188,1.02-0.476,2.59-0.667,3.47l-0.68,3.157L166.468,377.183z"></path>
				<path fill="#FFFFFF" d="M182.404,378.409c0.026-1.45,0.026-3.399,0.168-5.05h-0.077c-0.369,1.615-0.91,3.457-1.289,4.613
					l-1.677,5.364l-2.172-0.117l-0.968-5.436c-0.227-1.229-0.531-3.156-0.664-4.819l-0.074-0.007
					c-0.143,1.651-0.356,3.567-0.541,5.066l-0.586,5.273l-2.628-0.149l2.081-15.15l3.215,0.179l0.919,5.591
					c0.321,1.945,0.603,3.651,0.787,5.39l0.045,0.003c0.34-1.689,0.794-3.373,1.331-5.27l1.573-5.439l3.218,0.182l0.007,15.28
					l-2.72-0.155L182.404,378.409z"></path>
				<path fill="#FFFFFF" d="M193.806,369.339l6.805,0.687l-0.271,2.557l-3.762-0.375l-0.421,3.9l3.541,0.356l-0.259,2.457
					l-3.535-0.356l-0.653,6.261l-3.043-0.291L193.806,369.339z"></path>
				<path fill="#FFFFFF" d="M201.469,385.681c-0.923-0.107-1.648-0.965-1.493-2.163c0.137-1.116,1.102-1.852,2.027-1.741
					c0.965,0.109,1.664,0.941,1.515,2.155c-0.143,1.191-0.961,1.871-2.026,1.749H201.469z"></path>
				<path fill="#FFFFFF" d="M213.404,386.846c-0.47,0.146-1.347,0.182-2.402,0.032c-3.985-0.557-5.396-4.008-4.759-8.28
					c0.849-5.688,4.448-7.453,7.465-7.032c1.056,0.156,1.771,0.46,2.043,0.693l-0.877,2.401c-0.32-0.207-0.699-0.395-1.373-0.491
					c-1.699-0.24-3.47,0.983-4.021,4.72c-0.54,3.612,0.654,5.219,2.503,5.471c0.515,0.078,1.113,0.049,1.492-0.02L213.404,386.846z"></path>
				<path fill="#FFFFFF" d="M217.088,387.895c-0.923-0.155-1.603-1.049-1.382-2.24c0.194-1.11,1.197-1.787,2.12-1.632
					c0.968,0.169,1.612,1.033,1.392,2.234c-0.213,1.185-1.055,1.815-2.116,1.641L217.088,387.895z"></path>
			</g>
			<linearGradient id="SVGID_21_" gradientUnits="userSpaceOnUse" x1="54.0381" y1="364.5957" x2="244.4814" y2="364.5957">
				<stop offset="0" style="stop-color:#F36D20"></stop>
				<stop offset="0.2308" style="stop-color:#FFD200"></stop>
				<stop offset="0.4945" style="stop-color:#FAA21A"></stop>
				<stop offset="0.7967" style="stop-color:#FFD200"></stop>
				<stop offset="1" style="stop-color:#F15D21"></stop>
			</linearGradient>
			<path fill="url(#SVGID_21_)" d="M79.609,368.394l1.389-0.292c12.787-2.625,27.274-5.594,68.251-5.594
				c40.97,0,55.47,2.969,68.254,5.594l1.392,0.292c6.099,1.243,9.932,1.748,13.172,1.748c2.004,0,7.235-0.541,10.719-2.172
				l1.696-4.426c-8.455,3.658-11.919,4.104-24.849,1.463c-12.917-2.642-27.504-5.956-70.376-5.956v0.01l-0.008-0.01
				c-42.88,0-57.456,3.314-70.375,5.956c-12.91,2.642-16.384,2.195-24.836-1.463l1.694,4.426c3.472,1.631,8.71,2.172,10.706,2.172
				C69.679,370.142,73.502,369.637,79.609,368.394z"></path>
			<linearGradient id="SVGID_22_" gradientUnits="userSpaceOnUse" x1="63.6074" y1="393.3164" x2="234.9121" y2="393.3164">
				<stop offset="0" style="stop-color:#F36D20"></stop>
				<stop offset="0.2308" style="stop-color:#FFD200"></stop>
				<stop offset="0.4945" style="stop-color:#FAA21A"></stop>
				<stop offset="0.7967" style="stop-color:#FFD200"></stop>
				<stop offset="1" style="stop-color:#F15D21"></stop>
			</linearGradient>
			<path fill="url(#SVGID_22_)" d="M215.642,394.256c-12.131-2.774-38.067-5.753-66.393-5.753c-28.321,0-54.261,2.979-66.383,5.753
				c-1.227,0.281-2.465,0.437-3.663,0.427c-6.758-0.087-12.525-3.758-15.595-6.17l1.308,3.387c0,0,7.214,8.354,18.762,5.72
				c11.565-2.642,37.036-5.658,65.58-5.658c28.551,0,54.015,3.017,65.575,5.658c11.547,2.635,18.772-5.72,18.772-5.72l1.308-3.399
				c-3.075,2.412-8.851,6.096-15.613,6.183C218.099,394.692,216.865,394.537,215.642,394.256z"></path>
			<g>
				<path fill="#120E07" d="M60.623,358.277c-3.451-0.204-3.295,2.344-2.965,3.719c9.395,4.248,24.611-1.101,24.611-1.101
					l-2.548-6.904C76.99,359.614,64.772,358.514,60.623,358.277z"></path>
				<linearGradient id="SVGID_23_" gradientUnits="userSpaceOnUse" x1="54.2163" y1="355.6914" x2="79.7207" y2="355.6914">
					<stop offset="0" style="stop-color:#F36D20"></stop>
					<stop offset="0.2308" style="stop-color:#FFD200"></stop>
					<stop offset="0.4945" style="stop-color:#FAA21A"></stop>
					<stop offset="0.7967" style="stop-color:#FFD200"></stop>
					<stop offset="1" style="stop-color:#F15D21"></stop>
				</linearGradient>
				<path fill="url(#SVGID_23_)" d="M60.623,358.277c4.15,0.236,16.368,1.337,19.098-4.286l-1.696-4.604c0,0,0,6.574-12.706,5.478
					c-12.713-1.091-11.028,4.93-11.028,4.93c0.992,0.926,2.128,1.645,3.367,2.201C57.327,360.621,57.171,358.073,60.623,358.277z"></path>
				<linearGradient id="SVGID_24_" gradientUnits="userSpaceOnUse" x1="218.7842" y1="355.6914" x2="244.2861" y2="355.6914">
					<stop offset="0" style="stop-color:#F36D20"></stop>
					<stop offset="0.2308" style="stop-color:#FFD200"></stop>
					<stop offset="0.4945" style="stop-color:#FAA21A"></stop>
					<stop offset="0.7967" style="stop-color:#FFD200"></stop>
					<stop offset="1" style="stop-color:#F15D21"></stop>
				</linearGradient>
				<path fill="url(#SVGID_24_)" d="M233.196,354.865c-12.712,1.097-12.712-5.478-12.712-5.478l-1.7,4.613
					c2.732,5.613,14.953,4.513,19.1,4.276c3.461-0.204,3.289,2.359,2.966,3.719c1.236-0.557,2.376-1.269,3.36-2.201
					C244.21,359.795,245.912,353.774,233.196,354.865z"></path>
				<path fill="#120E07" d="M237.884,358.277c-4.146,0.236-16.367,1.337-19.1-4.276l-2.534,6.895c0,0,15.205,5.342,24.6,1.101
					C241.173,360.637,241.345,358.073,237.884,358.277z"></path>
			</g>
			<g>
				<linearGradient id="SVGID_25_" gradientUnits="userSpaceOnUse" x1="13.0591" y1="345.1758" x2="76.3311" y2="345.1758">
					<stop offset="0" style="stop-color:#F36D20"></stop>
					<stop offset="0.2308" style="stop-color:#FFD200"></stop>
					<stop offset="0.4945" style="stop-color:#FAA21A"></stop>
					<stop offset="0.7967" style="stop-color:#FFD200"></stop>
					<stop offset="1" style="stop-color:#F15D21"></stop>
				</linearGradient>
				<path fill="url(#SVGID_25_)" d="M39.223,341.741c4.404-0.563,9.223-0.864,14.296-0.864c6.85,0,12.269,0.583,14.415,1.117
					c5.01,1.246,7.133,3.991,8.012,5.882c0.131-0.389,0.274-0.768,0.382-1.237c0,0,0.382-5.399-7.69-7.426
					c-7.203-1.813-39.716-3.036-52.974,7.559c-0.887,0.716-1.918,1.651-2.604,2.943c0.359,0.828,0.886,1.647,1.675,2.35
					c0.01,0.02,0.115,0.13,0.313,0.278C18.548,345.273,31.733,343.036,39.223,341.741z"></path>
				<linearGradient id="SVGID_26_" gradientUnits="userSpaceOnUse" x1="38.7373" y1="368.0469" x2="54.2583" y2="368.0469">
					<stop offset="0" style="stop-color:#F36D20"></stop>
					<stop offset="0.2308" style="stop-color:#FFD200"></stop>
					<stop offset="0.4945" style="stop-color:#FAA21A"></stop>
					<stop offset="0.7967" style="stop-color:#FFD200"></stop>
					<stop offset="1" style="stop-color:#F15D21"></stop>
				</linearGradient>
				<path fill="url(#SVGID_26_)" d="M39.448,365.742c-0.209,0.547-0.436,1.091-0.71,1.615c0.587,0.337,1.259,0.734,1.971,1.155
					c4.262-0.618,8.893-0.242,13.55,2.117l-1.193-3.337l-0.126-0.356C47.779,365.477,43,365.153,39.448,365.742z"></path>
				<path fill="#120E07" d="M67.934,341.994c-2.146-0.534-7.565-1.117-14.415-1.117c-5.073,0-9.892,0.301-14.296,0.864
					c-7.489,1.295-20.675,3.532-24.176,10.602c0.487,0.376,1.637,0.972,4,0.972c1.51,0,3.268-0.253,5.215-0.758
					c8.192-2.123,9.93-4.486,9.951-4.513c1.541-1.305,3.257-3.801,3.257-3.801s1.358,1.913,1.957,4.396
					c0.146,0.47,2.873,9.582,0.021,17.103c3.553-0.589,8.331-0.266,13.491,1.194l-1.609-4.503c0,0-1.563-9.481,8.044-10.032
					c8.016-0.46,13.075,1.541,15.68-2.554c0.341-0.534,0.628-1.218,0.892-1.972C75.067,345.985,72.943,343.24,67.934,341.994z"></path>
			</g>
		</g>
	</g>
</g>
<path d="M250.474,398.104v-0.038c0.771-0.282,1.489-0.998,1.489-2.06c0-0.692-0.259-1.269-0.709-1.645
	c-0.55-0.466-1.354-0.66-2.538-0.66c-0.861,0-1.702,0.074-2.266,0.168v8.109h1.489v-3.376h0.751
	c0.857,0.025,1.246,0.369,1.482,1.438c0.227,1.029,0.421,1.696,0.544,1.938h1.547c-0.168-0.313-0.388-1.266-0.644-2.295
	C251.413,398.895,251.06,398.325,250.474,398.104z M248.833,397.503h-0.894v-2.59c0.142-0.046,0.446-0.078,0.926-0.078
	c0.974,0,1.608,0.415,1.608,1.317C250.474,396.972,249.839,397.503,248.833,397.503z M249.069,391.271
	c-3.756,0-6.796,3.047-6.796,6.805c0,3.752,3.04,6.799,6.796,6.799c3.755,0,6.801-3.047,6.801-6.799
	C255.87,394.317,252.824,391.271,249.069,391.271z M249.069,404.045c-3.299,0-5.974-2.677-5.974-5.97
	c0-3.305,2.675-5.976,5.974-5.976c3.298,0,5.973,2.671,5.973,5.976C255.042,401.368,252.367,404.045,249.069,404.045z"></path>
</svg>
