
<svg viewBox="0 0 132.175 190.22999" version="1.1" id="svg24" width="132.175" height="190.23" xmlns="http://www.w3.org/2000/svg">
  <defs id="defs28"></defs>
  
  <title id="title2">Los Angeles Angels of Anaheim hat light logo</title>
  <path d="m 77.96,190.23 h 54.215 c -5.015,-3.412 -9.434,-9.375 -11.408,-16.174 l -15.153,-52.018 c -1.645,-5.596 1.025,-11.19 5.294,-14.98 -6.05,-1.85 -11.408,-6.064 -13.113,-11.848 L 89.318,66.096 c 12.066,-4.024 19.935,-11.18 19.935,-19.483 0,-10.845 -13.436,-19.73 -32.112,-22.27 L 70.055,0 h -7.946 l -7.09,24.343 c -18.685,2.54 -32.134,11.425 -32.134,22.27 0,8.303 7.88,15.458 19.958,19.483 L 34.354,95.21 c -1.666,5.784 -7.05,9.997 -13.097,11.848 4.253,3.79 6.934,9.384 5.306,14.98 L 11.4,174.056 c -2,6.8 -6.4,12.762 -11.4,16.173 h 54.21 c -4.435,-3.413 -6.854,-9.376 -4.87,-16.175 l 1.33,-4.548 H 81.5 l 1.322,4.548 c 1.99,6.8 -0.436,12.762 -4.86,16.173 l -0.002,0.002 z m -16.544,-57.55 4.676,-16.084 4.67,16.084 z" fill="#ffffff" id="path4"></path>
  <path d="m 123.047,186.54 c -2.575,-3.39 -4.642,-7.324 -5.846,-11.448 l -15.046,-51.65 c -2.396,-8.204 2.024,-14.023 2.603,-14.958 -5.233,-2.832 -9.062,-7.145 -10.51,-12.24 l -9.17,-31.442 c 12.926,-3.445 21.73,-10.288 21.73,-18.19 0,-9.998 -14.167,-18.347 -32.908,-20.197 L 67.283,3.69 h -2.397 l -6.615,22.726 c -18.764,1.85 -32.93,10.2 -32.93,20.197 0,7.902 8.822,14.745 21.74,18.19 L 37.92,96.246 c -1.48,5.094 -5.285,9.407 -10.53,12.24 0.59,0.935 5.016,6.754 2.62,14.956 l -15.053,51.65 c -1.204,4.125 -3.265,8.06 -5.857,11.448 h 37.536 c -3.037,-6.7 -1.438,-11.57 -0.08,-16.162 l 1.333,-4.57 h 36.38 l 1.35,4.57 c 1.33,4.593 2.92,9.463 -0.108,16.162 h 37.534 z m -66.607,-50.147 9.65,-33.048 9.62,33.048 z" fill="#003263" id="path6"></path>
  <path d="m 76.055,54.694 -4.82,-16.596 0.947,3.31 c -1.973,-0.1 -4.013,-0.178 -6.09,-0.178 v 10.766 l 28.906,99.11 6.654,22.74 11.42,6.843 c -0.803,-1.74 -1.51,-3.513 -2.052,-5.34 L 96.625,126.082 c -2.27,-7.69 -1.026,-11.023 0.62,-15.66 -4.32,-3.31 -7.208,-7.635 -8.606,-12.505 L 77.72,60.4 77.704,60.41 76.054,54.694 Z M 69.48,32.044 66.09,20.442 v 11.536 c 1.144,0 2.258,0.022 3.39,0.067 z m -39.14,142.404 9.234,6.24 c -0.48,-3.108 -0.027,-7.188 0.87,-10.097 l 3.05,-10.61 -6.343,-8.874 -6.81,23.34 z" fill="#ba0021" id="path8"></path>
  <path d="m 48.658,142.223 17.433,-59.7 V 51.997 l -28.94,99.11 H 95 l -11.526,-8.883" fill="#ba0021" id="path10"></path>
  <path d="m 66.09,82.524 17.383,59.7 11.525,8.882 -28.907,-99.11" fill="#862633" id="path12"></path>
  <path d="M 113.072,180.688 101.652,173.844 95,151.106 H 37.15 L 66.09,51.996 V 41.228 c 2.08,0 4.12,0.077 6.092,0.177 l -0.947,-3.31 c -0.257,0 -0.524,-0.01 -0.78,-0.034 -1.428,-0.065 -2.877,-0.12 -4.364,-0.12 -1.753,0 -3.48,0.067 -5.16,0.156 l -4.836,16.596 h 0.017 L 54.447,60.41 H 54.43 L 43.492,97.917 c -1.394,4.87 -4.24,9.195 -8.572,12.506 1.628,4.636 2.87,7.97 0.613,15.66 L 21.14,175.35 c -0.542,1.827 -1.233,3.6 -2.08,5.338 h 20.515 l -9.235,-6.24 6.81,-23.342 6.343,8.873 H 88.64 l 3.115,10.61 c 0.835,2.907 1.3,6.99 0.835,10.097 h 20.482 z M 66.09,20.442 62.71,32.045 C 63.824,32 64.956,31.978 66.093,31.978 V 20.442 Z" fill="#862633" id="path14"></path>
  <path d="m 56.11,54.694 h -0.017 c -10.472,-1.237 -17.907,-4.403 -17.907,-8.08 0,-4.237 9.793,-7.76 22.744,-8.517 1.678,-0.09 3.406,-0.156 5.16,-0.156 1.488,0 2.938,0.058 4.364,0.124 0.257,0.023 0.524,0.034 0.78,0.034 12.936,0.746 22.755,4.27 22.755,8.516 0,3.677 -7.464,6.844 -17.925,8.08 h -0.01 l 1.65,5.718 0.015,-0.01 c 13.483,-2.006 23.174,-7.41 23.174,-13.787 0,-7.59 -13.805,-13.843 -31.416,-14.568 -1.13,-0.045 -2.245,-0.067 -3.388,-0.067 -1.137,0 -2.27,0.023 -3.383,0.067 -17.66,0.725 -31.432,6.977 -31.432,14.568 0,6.376 9.668,11.78 23.15,13.798 h 0.017 l 1.668,-5.716 v -0.003 z" fill="#c4ced4" id="path16"></path>
  <g fill="#ffffff" id="g22"></g>
</svg>
