
<svg height="430" width="414.87201" version="1.1" viewBox="0 0 414.87201 430.00001" id="svg1578" xmlns="http://www.w3.org/2000/svg">
  <defs id="defs1582"></defs>
  
  <path d="m 385.9457,182.39268 c -11.98528,18.16251 -44.99078,30.88551 -140.96522,65.82758 0.82979,-6.08494 2.39703,-17.05617 3.59557,-24.43177 2.12046,-3.78004 4.70189,-7.83665 7.46775,-11.89326 l 0.73756,-1.10633 a 79.570558,79.571502 0 0 1 6.82238,-8.57419 c 2.21265,3.68784 5.62385,8.66637 12.72282,8.48197 23.78615,-0.64534 34.20413,-45.17576 37.89191,-62.60068 a 26.06222,26.062528 0 0 0 5.80822,0.64534 c -1.65958,5.62392 -14.93548,35.77184 2.67365,40.84259 17.51695,5.16295 28.30366,-43.33187 31.43826,-53.84216 10.69457,12.35423 8.02093,25.35376 2.58143,28.02744 -2.76581,1.38295 -5.90043,-2.85805 -9.03501,0.0922 -4.60974,4.42536 -1.5673,11.70879 4.79405,12.81515 9.12725,1.47512 15.11988,-4.70197 21.1125,-11.06348 1.9361,-1.93608 9.03507,-6.26928 13.36821,-3.13463 6.63792,4.51759 1.8438,15.58105 -1.01408,19.91421 z M 228.66194,218.9943 c -9.68038,1.8439 -6.54575,-35.95621 7.83655,-37.70793 2.76585,-0.27661 5.62385,3.04243 5.07069,8.57415 a 84.450505,84.451505 0 0 1 -2.85799,15.2123 c -1.84393,5.71608 -4.88634,12.99954 -10.04925,13.92148 z m 56.33079,-58.91279 c 7.19113,3.59561 -5.34727,18.71567 -11.06332,24.89276 0.92197,-13.9216 7.83655,-26.55236 11.06332,-24.89276 z m -51.62885,92.01095 c 0,0 -3.31898,1.47514 -4.88629,2.02832 2.21265,-3.22685 6.17702,-10.69467 7.00676,-12.07762 -0.36877,2.4893 -2.12047,10.0493 -2.12047,10.0493 z m -16.13401,44.9913 c -6.36142,1.10632 -3.13464,-15.02788 1.84388,-22.7723 6.45363,-2.48939 11.89306,-5.07075 11.89306,-5.07075 -3.31898,15.94993 -6.177,26.46022 -13.73694,27.84315 z m -24.8925,-87.12461 c -0.0922,1.6596 -1.93609,16.04194 -2.39702,17.60933 -1.75172,7.28351 -5.4395,12.53859 -10.60236,12.26198 -8.85067,-0.2766 -4.88632,-37.61575 7.74431,-36.325 a 5.4824542,5.4825192 0 0 1 5.25507,6.45369 z m -57.80586,51.44501 c -7.19117,-1.47511 -6.91457,-20.74395 -1.93609,-29.22592 3.22679,5.9005 11.80087,6.54585 16.96375,5.80829 0.36878,8.38983 -6.0848,25.1694 -15.02766,23.41766 z m 14.7511,-32.45278 a 13.512691,13.512851 0 0 1 -4.60974,0.36876 c -3.59557,-0.36876 -6.2692,-2.12047 -6.5458,-3.59561 -1.75168,-8.20538 10.78673,-7.0068 11.15554,3.22688 z M 397.8387,162.10953 c -4.241,-12.07763 -20.37502,-9.68052 -24.43155,-5.9005 0,-15.85765 -8.02093,-20.19081 -16.41061,-29.96353 -1.8439,-6.82246 3.5956,-9.12736 4.33313,-14.93567 1.4751,-11.893206 -17.14814,-8.48201 -11.89304,15.85761 -2.21271,11.34007 -14.19796,46.09773 -20.46719,47.0197 -3.59557,0.46099 -3.87215,-5.34733 -1.93607,-12.26198 1.84385,-6.91466 11.80088,-19.45325 5.62385,-25.81486 -3.59562,-3.6878 -10.23358,1.84392 -16.22623,-1.47509 0,0 0.18443,-4.97857 -1.38293,-6.82247 a 4.2895055,4.2895562 0 0 0 -5.90044,0 c -4.5175,3.50343 -4.7019,13.09173 -2.30487,17.88592 -1.84385,11.8932 -3.31898,16.68736 -9.12721,32.63717 -5.90043,16.50301 -20.00619,24.33961 -23.23301,14.2903 28.21151,-27.10546 21.94229,-37.52355 17.51693,-41.21137 -7.28342,-5.9927 -29.77881,4.79412 -30.88509,38.99867 a 32.178603,32.178983 0 0 0 0.46096,4.88638 c -2.21267,2.67364 -6.08483,7.46784 -11.06332,14.29028 2.30487,-15.12006 5.53167,-37.15477 6.63799,-45.26795 a 31.550467,31.550841 0 0 1 -11.89306,4.42538 l -0.82979,5.62392 c -5.99262,-9.03515 -34.01972,-0.55316 -33.00558,43.70067 -1.38292,13.64494 -8.66627,15.12005 -8.94287,11.8932 -0.92194,-16.13421 9.12727,-63.79925 12.53843,-81.03982 a 31.647764,31.64814 0 0 1 -11.7086,3.78026 c 0,0 -8.66623,43.88506 -8.85061,43.88506 a 11.387975,11.38811 0 0 0 -11.06335,-2.3049 c -10.51014,2.48928 -18.71545,17.33274 -19.26862,26.73669 a 24.54421,24.544501 0 0 1 -6.17703,4.60978 c -1.29072,-5.6239 -3.87217,-10.78688 -9.6804,-12.53859 -19.08425,-5.80834 -34.75727,22.49566 -29.6866,49.14031 a 22.434522,22.434787 0 0 0 9.03507,12.16976 c 13.46036,6.63809 30.9773,-11.52442 31.16168,-39.82841 a 17.665762,17.665971 0 0 0 4.9785,-5.16292 c -1.19854,8.57416 1.47511,24.61616 11.15551,25.9991 10.4179,1.56731 16.22623,-10.87905 17.79352,-16.1342 a 8.7995629,8.7996671 0 0 0 8.29749,5.80831 c 8.94286,-0.36878 11.70869,-11.70882 13.36819,-16.5952 7.83655,12.5386 20.55937,1.01418 23.41738,-6.36147 l -1.01413,6.0849 c -7.19119,8.66637 -20.55932,30.14792 -20.55932,30.14792 -24.89253,9.03515 -73.29457,26.92107 -93.20856,56.7924 a 69.357394,69.358215 0 0 1 30.14757,0.92196 c 3.22679,-8.75858 22.9564,-26.3679 51.99764,-36.04845 -7.09898,14.38252 -5.71606,35.58746 6.45364,35.40308 21.02031,-0.46097 27.93488,-36.60161 30.88509,-50.33873 18.71547,-8.02098 52.08985,-20.92837 87.0315,-35.86403 32.36015,-13.92165 78.82611,-37.2471 68.31601,-67.11843 z M 17.905611,315.98394 c -1.382915,-3.41124 7.928714,-11.52442 16.226204,-11.89325 -3.226793,5.53177 -14.93535,15.30445 -16.226204,11.89325 z M 0.38867982,236.78803 C -1.0864226,250.34078 1.4028192,259.4681 11.912963,263.8013 c 7.744339,3.22683 16.687192,-3.59561 19.176434,-7.46784 a 30.227231,30.227589 0 0 0 4.794058,-12.99956 c 0,0 -14.658889,14.10588 -23.140778,1.19856 -4.8862463,-7.46787 -2.304817,-29.59477 26.459809,-45.26798 28.76465,-15.58105 43.054789,-2.85808 43.054789,-2.85808 17.33253,9.77273 18.070085,38.81427 12.999385,61.30999 -3.872157,16.77958 -11.800871,34.3889 -29.870979,37.70795 -6.730199,1.19853 -9.311628,0.46097 -15.488651,0.27659 a 97.942983,97.944142 0 0 0 7.836576,-32.45281 C 62.066726,210.32793 67.782787,205.25718 73.037884,197.32836 33.94744,217.24259 45.19516,284.82186 37.542907,295.9775 8.87057,300.21851 2.3247709,323.63612 8.0408058,327.32401 c 4.3331452,2.76583 23.7861422,-2.48941 37.0622422,-23.97086 9.588115,-0.18443 40.288934,8.29759 59.004412,-25.81486 12.63063,-23.04886 16.68719,-63.33826 -3.68776,-83.25248 C 71.193955,165.52092 4.998388,194.93128 0.38867982,236.78803 Z" fill="#005a9c" id="path1564" style="stroke-width:1"></path>
  <path d="m 285.53023,69.441359 a 34.509605,34.5102 0 0 0 14.93468,-18.89916 33.983755,33.984341 0 0 0 -1.19848,-24.154058 34.462578,34.463172 0 0 0 -13.7362,43.053218 z" fill="#ffffff" id="path1566" style="stroke-width:1"></path>
  <path d="m 257.04373,72.760189 a 31.969552,31.970103 0 0 0 10.60175,1.75165 34.408796,34.409389 0 0 0 12.99869,-2.581332 39.848299,39.848986 0 0 1 16.13313,-50.336344 34.47171,34.472304 0 0 0 -29.13177,-16.1333325 35.947136,35.947756 0 0 0 -13.36746,2.5813575 39.226396,39.227072 0 0 1 1.38284,28.026018 39.509976,39.510657 0 0 1 -17.42376,22.033647 34.256053,34.256643 0 0 0 18.80658,14.658336 z" fill="#ffffff" id="path1568" style="stroke-width:1"></path>
  <path d="M 250.49829,34.408791 A 34.342771,34.343363 0 0 0 249.4842,10.531336 34.493339,34.493934 0 0 0 235.74789,53.215817 34.065616,34.066203 0 0 0 250.49829,34.408791 Z" fill="#ffffff" id="path1570" style="stroke-width:1"></path>
  <path d="m 295.15547,75.618125 a 2.6633512,2.6634732 0 0 0 -3.13437,2.212595 l -10.41703,56.6974 a 2.7393162,2.7394416 0 0 0 2.12026,3.22667 h 0.55315 a 2.7538868,2.754013 0 0 0 2.6734,-2.21257 l 10.41703,-56.697399 a 2.8018741,2.8020024 0 0 0 -2.21244,-3.226696 z m -22.67795,12.906787 a 2.7393668,2.7394922 0 0 0 -3.2265,2.120412 l -12.72178,56.697406 a 2.7871769,2.7873045 0 0 0 2.12028,3.22669 c 0.18442,0 0.36877,0.0922 0.55314,0.0922 a 2.7538615,2.7539877 0 0 0 2.67339,-2.21257 l 12.62958,-56.605247 a 2.7482964,2.7484222 0 0 0 -2.02811,-3.318957 z M 259.66358,272.35361 a 2.8521631,2.8522938 0 0 0 -3.22652,2.21257 l -10.14055,52.641 a 2.7099218,2.7100459 0 0 0 2.21252,3.13436 1.1688177,1.1688713 0 0 0 0.55308,0.0923 2.753381,2.753507 0 0 0 2.58133,-2.30465 l 10.23271,-52.54881 a 2.8017982,2.8019265 0 0 0 -2.21257,-3.22675 z m -39.82462,51.99558 a 2.8840113,2.8841434 0 0 0 -3.31873,2.12041 l -8.02025,36.04662 a 2.7483723,2.7484981 0 0 0 2.0281,3.31888 h 0.64531 a 2.646175,2.6462962 0 0 0 2.58124,-2.12038 l 8.11249,-36.13883 a 2.6550035,2.655125 0 0 0 -2.02816,-3.2267 z M 253.48707,86.865421 a 2.810753,2.8108818 0 0 0 -3.41091,1.843809 l -21.47948,69.51195 a 2.6172108,2.6173306 0 0 0 1.75154,3.41107 1.3699237,1.3699864 0 0 0 0.82973,0.18439 2.7374442,2.7375696 0 0 0 2.58124,-1.93604 l 21.4795,-69.511904 a 2.825602,2.8257314 0 0 0 -1.75162,-3.503275 z M 188.21891,298.16695 a 2.7241637,2.7242884 0 0 0 -3.41089,1.75165 l -5.16248,16.68654 a 2.825602,2.8257314 0 0 0 1.75157,3.5033 c 0.27656,0 0.55311,0.0921 0.82972,0.0921 a 2.6552817,2.6554033 0 0 0 2.58124,-1.93597 l 5.16246,-16.68659 a 2.724189,2.7243137 0 0 0 -1.75162,-3.41107 z m -10.04835,32.5434 a 2.7028641,2.7029879 0 0 0 -3.41088,1.84383 l -29.03884,93.85039 a 2.7240878,2.7242125 0 0 0 1.75157,3.41101 2.690216,2.6903392 0 0 0 0.82972,0.18442 2.9824394,2.982576 0 0 0 2.67342,-1.93597 l 28.9466,-93.94256 a 2.7241384,2.7242631 0 0 0 -1.75159,-3.41107 z m 37.05905,-200.42292 a 2.4547576,2.45487 0 0 0 1.10623,0.27657 2.7075693,2.7076933 0 0 0 2.48916,-1.65951 l 20.28107,-46.279842 a 2.7238095,2.7239343 0 0 0 -4.97809,-2.21257 l -20.28117,46.279812 a 2.8278281,2.8279576 0 0 0 1.3828,3.59554 z m -84.71957,193.78521 a 2.6967677,2.6968912 0 0 0 -3.59529,1.38286 l -14.65766,33.46529 a 2.6683093,2.6684315 0 0 0 1.3828,3.59543 2.4544287,2.4545411 0 0 0 1.10622,0.27658 2.8068068,2.8069354 0 0 0 2.48916,-1.65952 l 14.65769,-33.46526 a 2.6683093,2.6684315 0 0 0 -1.38292,-3.59538 z M 225.09356,56.073651 a 2.7133368,2.7134611 0 0 0 -3.68744,1.014101 L 193.1048,107.97712 a 2.7990409,2.799169 0 0 0 1.01405,3.77983 3.6994137,3.6995832 0 0 0 1.38282,0.27655 2.5348964,2.5350125 0 0 0 2.30467,-1.38281 l 28.30128,-50.889396 a 2.7132862,2.7134105 0 0 0 -1.01406,-3.687643 z m -77.25241,144.186679 41.76048,-74.67475 a 2.7446537,2.7447794 0 0 0 -1.10624,-3.68762 2.7132356,2.7133599 0 0 0 -3.68745,1.0141 l -41.76059,74.76678 a 2.6662351,2.6663571 0 0 0 1.10625,3.68762 2.1164949,2.1165917 0 0 0 1.29062,0.36879 2.7627912,2.7629177 0 0 0 2.39693,-1.47492 z m -64.25414,110.4446 a 2.853681,2.8538117 0 0 0 -3.779653,1.10631 l -21.663792,38.99674 a 2.7446537,2.7447794 0 0 0 1.106234,3.68764 3.2529585,3.2531075 0 0 0 1.290621,0.27655 2.575927,2.576045 0 0 0 2.396853,-1.38283 L 84.601065,314.39257 A 2.7133115,2.7134358 0 0 0 83.58701,310.70493 Z M 255.69957,36.068231 A 39.225225,39.227021 0 0 0 254.31674,8.0422892 35.946312,35.947958 0 0 1 267.68382,5.4609317 34.470725,34.472304 0 0 1 296.8148,21.594163 39.847262,39.849087 0 0 0 280.68214,71.930406 34.407535,34.409111 0 0 1 267.68382,74.511738 31.968866,31.97033 0 0 1 257.08237,72.760088 34.2551,34.256668 0 0 1 238.27631,58.101752 39.508974,39.510783 0 0 0 255.69957,36.068231 Z m -20.9264,-6.72992 a 34.645119,34.646705 0 0 1 14.74989,-18.806975 34.319201,34.320772 0 0 1 1.01406,23.877455 34.064643,34.066203 0 0 1 -14.74987,18.806975 34.74767,34.749261 0 0 1 -1.01408,-23.877455 z m 65.72914,21.203787 a 34.508619,34.5102 0 0 1 -14.93425,18.89916 34.461594,34.463172 0 0 1 13.73591,-43.053193 33.982531,33.984088 0 0 1 1.19834,24.154033 z M 303.1757,21.686347 A 39.962108,39.963937 0 1 0 255.42303,78.01519 39.854548,39.856372 0 0 0 305.66476,52.201615 39.505837,39.507646 0 0 0 303.1757,21.686448 Z" fill="#ef3e42" id="path1572" style="stroke-width:0.999996"></path>
  <path d="m 409.20378,188.1223 h -1.76298 v -1.55851 h 1.48458 c 0.64954,0 1.48461,0 1.48461,0.73343 0,0.64171 -0.4639,0.82508 -1.20621,0.82508 z m 2.50536,-0.73341 c 0,-1.74183 -1.02072,-2.01689 -2.50536,-2.01689 h -3.15479 v 6.509 h 1.39181 v -2.56693 h 1.11348 l 1.4846,2.56693 h 1.48457 l -1.57736,-2.56693 a 1.7099136,1.689438 0 0 0 1.76297,-1.92515 z" fill="#005a9c" id="path1574" style="stroke-width:1"></path>
  <path d="m 408.61713,193.58747 a 4.8758385,4.9037159 0 0 1 0,-9.80565 4.8749551,4.9028275 0 1 1 0,9.80565 z m 0,-11.19325 a 6.2089763,6.244476 0 1 0 6.25466,6.29042 6.2030197,6.2384854 0 0 0 -6.25466,-6.29042 z" fill="#005a9c" id="path1576" style="stroke-width:0.999995"></path>
</svg>
