
<svg viewBox="0 0 86.4 86.4" xml:space="preserve" width="300" height="300" version="1.1" id="svg16" xmlns="http://www.w3.org/2000/svg"><defs id="defs20"></defs>
    <path fill="#12284b" d="M 43.2,2 C 20.5,2 2,20.5 2,43.2 2,65.9 20.5,84.4 43.2,84.4 65.9,84.4 84.4,65.9 84.4,43.2 84.4,20.5 65.9,2 43.2,2" id="path2"></path>
    <path fill="#ffc52f" d="M 43.2,0 C 19.4,0 0,19.4 0,43.2 0,67 19.4,86.4 43.2,86.4 67,86.4 86.4,67 86.4,43.2 86.4,19.4 67,0 43.2,0 M 2,43.2 C 2,20.5 20.5,2 43.2,2 65.9,2 84.4,20.5 84.4,43.2 84.4,65.9 65.9,84.4 43.2,84.4 20.5,84.4 2,65.9 2,43.2" id="path4"></path>
    <path d="M 43.2,82.5 C 21.5,82.5 3.9,64.9 3.9,43.2 3.9,21.5 21.5,3.9 43.2,3.9 c 21.7,0 39.3,17.6 39.3,39.3 0,21.7 -17.6,39.3 -39.3,39.3 m 0,-77.6 C 22.1,4.9 4.9,22.1 4.9,43.2 4.9,64.3 22.1,81.5 43.2,81.5 64.3,81.5 81.5,64.3 81.5,43.2 81.5,22.1 64.3,4.9 43.2,4.9" style="fill:#003ea0" id="path6"></path>
    <path fill="#ffc52f" d="m 62.6,34.6 v 5.8 c 0,4.8 -0.8,7.7 -4.6,15.8 -4,8.4 -8.9,10.9 -14.8,10.9 -3.9,0 -7.5,-1.3 -10.4,-3.6 L 32.1,62.9 32,62.8 c -0.8,-0.7 -1.5,-1.5 -2.2,-2.4 l -0.2,-0.2 c 0,-0.1 -0.1,-0.1 -0.1,-0.2 -0.4,-0.5 -0.7,-1 -1,-1.5 0,-0.1 -0.1,-0.1 -0.1,-0.2 -1,-1.7 -1.6,-3.5 -2.1,-4.9 C 26.1,53 26,52.6 25.9,52.2 24.8,49.3 22.6,43.8 21.6,41 20.5,38 20.3,36 21,34 c 0.7,-2.1 2.4,-3.7 4.7,-5.6 2.3,-1.9 4.2,-3.4 6.9,-5.3 1.7,-1.2 3.5,-1.9 5.2,-1.9 0.7,0 1.4,0.1 2.1,0.3 0.1,0 0.2,0.1 0.4,0.2 0.6,0.2 1.1,0.5 1.5,0.9 l 0.1,-0.1 c 1.2,-0.7 2.6,-1.1 4,-1.1 1.1,0 2.2,0.2 3.1,0.7 0.2,0.1 0.3,0.2 0.5,0.2 0.1,0 0.1,0.1 0.2,0.1 0.7,0.4 1.4,0.9 1.9,1.4 0.8,-0.3 1.6,-0.4 2.4,-0.4 1.2,0 2.2,0.3 3.2,0.9 l 0.2,0.1 c 0.4,0.3 0.7,0.4 1,0.7 2.8,2 4.2,4 4.2,9.5" id="path8"></path>
    <path fill="#12284b" d="m 57.5,26.7 c -0.4,-0.3 -0.6,-0.4 -1.2,-0.8 -1.2,-0.8 -2.7,-1 -4.9,0 -0.1,0 -0.2,0.1 -0.4,0.1 -0.5,-1 -1.3,-1.6 -2,-2 -0.3,-0.2 -0.4,-0.2 -0.7,-0.3 -1.5,-0.7 -3.6,-0.8 -5.5,0.4 -0.4,0.2 -0.9,0.5 -1.4,0.8 -0.5,-0.8 -1.1,-1.2 -1.8,-1.5 -0.2,-0.1 -0.3,-0.1 -0.4,-0.1 -1.4,-0.5 -3.6,-0.2 -5.7,1.3 -2.5,1.8 -4.4,3.3 -6.8,5.3 -4.4,3.6 -5.4,5.7 -3.6,10.6 1,2.7 3.1,8.1 4.3,11.2 0.7,1.8 1.4,4.1 2.7,6.3 0.1,0.2 0.2,0.4 0.4,0.6 0,0.1 0.1,0.1 0.1,0.2 0.6,0.9 1.3,1.8 2.1,2.6 l 0.2,0.2 0.1,0.1 c 2.7,2.4 6.2,3.9 10.1,3.9 7.2,0 13.1,-5.9 13.1,-13.1 C 56.2,45.6 50.6,40 43.7,40 40,40 36.2,42.2 34,45.6 c -0.9,-2.3 -3,-7.3 -4.5,-11 -0.8,-2 -0.6,-3 0.6,-4.2 0.6,-0.6 1.4,-1.2 2.3,-1.8 0.9,-0.6 1.9,-0.2 1.9,0.9 v 12.3 c 2,-2 4.5,-3.4 7.6,-3.9 V 27.7 c 0.2,-0.1 0.4,-0.3 0.6,-0.4 0.8,-0.5 1.4,0.1 1.4,0.8 v 9.5 h 0.2 c 2.7,0 5.2,0.7 7.3,2 V 28.9 c 0.2,-0.1 0.4,-0.2 0.5,-0.2 0.8,-0.3 1.4,0.2 1.4,0.9 0,0.7 -0.1,11.3 -0.1,11.3 3,2.4 4.9,6.1 5.2,10.1 1.4,-3 2.4,-5.8 2.4,-10.6 v -5.8 c 0.1,-4.8 -1,-6.3 -3.3,-7.9 M 43.7,44.9 c 4.2,0 7.5,3.4 7.5,7.5 0,4.2 -3.4,7.5 -7.5,7.5 -4.2,0 -7.5,-3.4 -7.5,-7.5 0,-4.1 3.4,-7.5 7.5,-7.5" id="path10"></path>
    <path d="m 38,52.4 c 0,-1.4 0.5,-2.6 1.3,-3.6 1.6,2.1 1.6,5.1 0,7.2 C 38.5,55.1 38,53.8 38,52.4 m 2.3,4.6 c 2.1,-2.7 2.1,-6.5 0,-9.1 1,-0.7 2.1,-1.1 3.4,-1.1 1.3,0 2.5,0.4 3.4,1.1 -2.1,2.7 -2.1,6.5 0,9.1 -1,0.7 -2.1,1.2 -3.4,1.2 -1.3,0 -2.5,-0.5 -3.4,-1.2 m 7.9,-0.9 c -1.6,-2.1 -1.6,-5.1 0,-7.2 0.8,1 1.3,2.2 1.3,3.6 -0.1,1.3 -0.5,2.6 -1.3,3.6 M 15.6,31.2 h -2.2 l 3.1,1.4 -0.6,1.3 -0.9,-0.4 0.2,-0.3 -4.1,-1.9 -0.1,0.3 -0.9,-0.4 0.5,-1.2 0.5,0.2 h 3.2 l -2.1,-2.4 -0.4,-0.3 0.5,-1.2 0.9,0.4 -0.1,0.3 4,1.8 0.2,-0.3 0.9,0.4 -0.6,1.3 -3.1,-1.4 1.5,1.7 z m 1.5,-11.5 0.8,0.7 -0.2,0.2 3.3,2.9 0.3,-0.2 0.7,0.6 -1.2,1.4 -0.7,-0.7 0.2,-0.3 L 17,21.4 16.7,21.7 16,21.1 Z m 9.5,-1.5 0.9,-0.6 0.8,1.1 -3,2.1 -0.6,-0.8 0.3,-0.2 -2.5,-3.7 -0.3,0.2 -0.6,-0.8 1.5,-1 0.6,0.8 -0.3,0.2 2.5,3.7 0.9,-0.7 z m 8.8,-9.3 0.3,0.9 -0.3,0.1 0.6,5 0.1,0.5 -1,0.3 -0.1,-0.4 -1.8,-2.9 0.3,3.3 0.1,0.5 -1,0.3 -0.1,-0.4 -2.5,-4.4 -0.3,0.1 -0.3,-1 1.2,-0.4 0.2,0.5 1.6,2.9 L 32.1,10.5 33,10.2 34.7,13 34.3,9.8 34.2,9.3 Z m 10,4.7 h 0.3 v 1 h -1.4 v -1.7 h -1.6 v 1.7 h -1.4 v -1 h 0.3 l 0.1,-3.4 1,-2 h 1.9 l 0.9,2 z M 44.3,10.4 43.8,9.2 h -0.6 l -0.6,1.2 v 1.5 h 1.7 z m 11.7,0.1 -0.3,0.9 -0.4,-0.1 -1.2,3.9 -1,1.1 -2.3,-0.7 -0.2,-1.5 1.2,-3.9 -0.3,-0.1 0.3,-1 1.3,0.5 -1.4,4.6 0.1,0.6 0.9,0.3 0.4,-0.4 1.5,-4.7 z m 8,4.5 0.8,0.5 -0.5,0.8 -0.3,-0.2 -2.1,1.3 -0.4,2.4 0.3,0.2 -0.6,0.8 -0.8,-0.5 0.5,-3 -0.4,-0.3 -1.5,2.3 -1.2,-0.8 0.5,-0.9 0.3,0.2 2.5,-3.6 -0.2,-0.2 0.5,-0.8 1.2,0.8 -1.5,2.2 0.4,0.3 z m 5.9,7.5 0.3,-0.2 -0.7,-0.8 -1.4,1 1.1,1.3 -0.8,0.6 -1,-1.2 -1.4,1.1 0.7,0.8 0.3,-0.2 0.7,0.8 -1.1,0.9 -2.2,-2.8 0.7,-0.7 0.2,0.3 3.5,-2.8 -0.2,-0.3 0.7,-0.6 2.3,2.8 -1,0.9 z m 4.6,8 0.4,-0.1 -0.5,-1 -1.6,0.7 0.7,1.5 -0.9,0.4 -0.7,-1.5 -1.6,0.7 0.5,1 0.3,-0.2 0.4,1 -1.2,0.5 -1.4,-3.3 0.9,-0.4 0.1,0.4 4.1,-1.8 -0.2,-0.3 1,-0.4 1.4,3.3 -1.2,0.5 z M 16.4,66.1 14.2,63.3 15,62.7 15.2,63 18.7,60.3 18.5,60 l 0.8,-0.6 2.2,2.8 -0.5,1 -1.1,0.8 -0.9,0.2 -0.4,0.8 -1.1,0.9 z m 1.6,-2 0.2,-0.3 -0.9,-1.1 -1.4,1.1 0.8,1.1 0.4,-0.1 z m 1.4,-3 -1.4,1.1 0.9,1.1 0.3,-0.1 0.9,-0.7 0.2,-0.3 z m 5.7,11.3 0.3,0.2 -0.6,0.8 -0.8,-0.6 0.5,-2.6 -0.5,-0.4 -1.4,2 -1.2,-0.8 0.6,-0.8 0.3,0.2 2.5,-3.7 -0.3,-0.2 0.6,-0.8 2.8,2 -0.3,1.4 -0.8,1.1 -1.2,0.7 -0.2,-0.1 z m -0.6,-3.4 1.1,0.8 0.3,-0.2 0.8,-1.1 0.1,-0.4 -1.1,-0.8 z m 10.1,3.1 0.1,-0.3 -1,-0.3 -0.6,1.6 1.6,0.5 -0.3,0.9 -1.6,-0.5 -0.5,1.7 1,0.3 0.2,-0.3 1,0.3 -0.4,1.3 -3.5,-1.1 0.3,-1 0.4,0.1 1.4,-4.2 -0.4,-0.1 0.3,-0.9 3.5,1.1 -0.5,1.3 z m 12,-0.1 v 1 h -0.3 l -0.9,4.9 v 0.5 H 44.3 V 77.9 L 43.5,74.7 42.8,78 v 0.5 H 41.7 V 78 l -1,-4.9 h -0.4 v -1 h 1.3 v 0.4 l 0.7,3.2 0.7,-3.2 h 0.9 l 0.8,3.2 0.6,-3.2 V 72 Z m 7.1,-0.5 -0.1,-0.3 -1,0.3 0.5,1.7 1.6,-0.6 0.3,1 -1.6,0.5 0.6,1.6 1,-0.3 -0.1,-0.4 1.1,-0.3 0.4,1.2 -3.4,1.2 -0.3,-0.9 0.3,-0.1 -1.5,-4.2 -0.3,0.1 -0.3,-0.9 3.4,-1.2 0.4,1.2 z m 11,-1.5 0.3,-0.2 0.6,0.8 -0.8,0.6 -2.3,-1.3 -0.6,0.4 1.4,2 -1.2,0.7 -0.6,-0.8 0.3,-0.2 -2.6,-3.6 -0.3,0.2 -0.6,-0.8 2.8,-2 1.3,0.7 0.8,1.1 0.3,1.4 -0.2,0.1 z m -3.5,-0.6 1.1,-0.8 -0.1,-0.3 -0.8,-1.1 -0.2,-0.2 -1.1,0.8 z m 10.9,-6 -1.7,2.2 -1.1,-0.2 -0.5,-0.4 0.6,-0.9 0.3,0.2 0.4,0.1 0.7,-1 -0.1,-0.3 -0.7,-0.5 -2.9,1.1 -1.3,-1 -0.5,-1 1.7,-2.2 1,0.3 0.6,0.4 -0.7,0.8 -0.3,-0.2 -0.3,-0.1 -0.8,1 0.2,0.3 0.6,0.5 3,-1 1.3,0.9 z" style="fill:#ffffff" id="path12"></path>
    
</svg>
