
<svg viewBox="0 0 180.687 199.99879" version="1.1" id="svg24" width="180.687" height="199.99879" xmlns="http://www.w3.org/2000/svg">
  <defs id="defs28"></defs>
  
  <path fill="#ffffff" d="m 109.156,58.44 -1.193,-2.778 -1.496,2.508 -3.038,0.24 1.898,2.202 -0.76,2.951 2.755,-1.225 2.561,1.703 -0.194,-3.029 2.331,-1.799 z m -12.118,-0.301 -1.172,-1.617 -0.589,1.834 -1.928,0.605 1.548,1.14 -0.064,2.009 1.596,-1.184 1.899,0.717 -0.565,-1.93 L 99,58.224 Z m 34.32,17.47 -1.236,-1.769 -0.664,1.942 -2.073,0.586 1.727,1.249 -0.121,2.17 1.781,-1.195 1.928,0.781 -0.55,-2.029 1.271,-1.716 z M 35.24,147.603 c 0.079,-0.066 0.163,-0.13 0.242,-0.197 -0.012,-0.022 -0.044,-0.075 -0.047,-0.086 -0.096,-0.034 -0.441,-0.172 -0.845,-0.325 0.209,0.207 0.434,0.402 0.65,0.608 z m 89.293,-85.72 -3.115,1.43 -3.102,-1.8 0.365,3.395 -2.71,2.335 3.473,0.662 1.344,3.353 1.836,-3.051 3.448,-0.182 -2.246,-2.661 z m -20.454,24.38 c -3.678,-1.735 -7.619,-1.369 -8.8,0.38 -0.293,0.435 -0.651,0.997 -0.725,1.225 -0.076,0.25 -0.163,0.501 -0.24,0.75 0.075,-0.23 0.163,-0.488 0.238,-0.718 0.067,-0.228 0.424,-0.79 0.718,-1.225 1.182,-1.757 5.122,-2.116 8.8,-0.38 3.689,1.736 6.314,5.825 5.285,8.506 0.008,-0.009 0.008,-0.009 0.009,-0.01 1.042,-2.68 -1.587,-6.782 -5.285,-8.528 z m -62.77,36.262 c 2.635,2.919 10.588,-6.315 8.962,-8.929 -2.15,-2.703 -11.309,6.316 -8.962,8.929 z M 33.68,105.35 c -5.208,5.166 -13.715,6.194 -17.872,1.693 -5.142,-5.547 1.246,-15.202 6.512,-24.384 5.392,-9.397 9.472,-17.685 3.125,-18.933 -4.092,-0.803 -8.714,4.47 -10.884,8.464 -2.114,3.884 -4.697,9.612 -4.07,18.554 0,14.062 3.833,27.213 10.406,38.617 z m 2.45,43.087 c -0.022,-0.041 -0.043,-0.073 -0.064,-0.107 -0.01,0.01 -0.02,0.012 -0.023,0.021 0.025,0.032 0.056,0.055 0.087,0.086 z m 106.988,-37.946 c -1.41,-1.973 -6.899,2.52 -7.203,5.252 4.385,-0.173 8.333,-3.677 7.203,-5.252 z m -27.342,6.232 c 3.852,-0.5 7.715,-3.712 7.065,-5.179 -0.905,-2.061 -6.231,1.651 -7.065,5.179 z m 27.985,-85.722 c -0.402,0.446 -0.836,0.956 -1.282,1.488 1.129,0.391 3.356,1.169 4.473,1.551 -1.033,-1.042 -2.097,-2.053 -3.191,-3.039 z m 12.356,82.53 c -0.91,0.87 -1.918,1.651 -2.863,2.302 -0.022,2.941 -3.058,3.059 -3.213,2.906 -0.522,0.567 -0.12,3.038 2.493,3.168 4.343,0.218 4.277,-5.499 3.702,-7.617 -0.072,-0.249 -0.094,-0.508 -0.119,-0.759 z m -52.819,-0.944 c -0.553,-1.236 -3.832,-0.771 -5.828,0.022 l -2.03,3.155 -0.812,1.292 c 4.46,0.359 9.624,-2.352 8.67,-4.469 z" id="path2"></path>
  <path d="M 90.342,0 C 40.527,0 0,40.527 0,90.342 c 0,34.626 19.281,65.624 50.314,80.99 -0.13,0.252 -0.433,0.833 -0.433,0.833 -1.435,2.814 -4.439,8.671 -5.352,9.099 l -1.701,0.528 c -0.836,0.202 -1.695,0.411 -2.463,0.997 -0.816,0.631 -2.073,3.016 -2.073,4.248 l -0.064,0.419 c -0.067,0.369 -0.164,0.883 -0.164,1.512 0,2.002 0.988,5.165 7.009,8.492 0.002,0.001 1.216,0.644 1.216,0.644 8.184,3.851 11.047,0.826 12.122,-0.312 l 0.304,-0.295 c 0.998,-0.718 2.201,-3.14 2.233,-4.168 10e-4,-0.038 10e-4,-0.08 10e-4,-0.122 0,-0.911 -0.325,-1.694 -0.639,-2.455 l -0.563,-1.691 c -0.002,-0.022 -0.003,-0.049 -0.003,-0.08 0,-1.142 3.148,-7.197 4.679,-10.142 0,0 0.672,-1.295 0.879,-1.7 8.105,2.336 16.525,3.543 25.043,3.543 49.815,0 90.342,-40.527 90.342,-90.342 C 180.684,40.527 140.157,0 90.342,0 Z m 0.01,176.347 c -9.526,0 -18.674,-1.571 -27.236,-4.427 -2.962,5.806 -5.607,11.182 -7.127,14.704 -1.066,2.466 -1.323,3.589 -0.26,4.832 0.206,0.24 0.532,0.841 0.587,1.059 0.226,0.846 -0.74,1.95 -1.249,2.279 -1.052,0.687 -3.32,0.861 -7.389,-1.001 -4.07,-1.865 -5.09,-4.129 -5.155,-5.388 -0.032,-0.606 0.292,-2.033 1.107,-2.351 0.207,-0.08 0.889,-0.174 1.204,-0.144 1.629,0.129 2.527,-0.933 3.895,-3.25 1.943,-3.29 4.664,-8.102 7.543,-13.334 C 25.737,156.151 4.348,125.814 4.263,90.454 c 0,0.053 -0.011,0.097 -0.011,0.149 l 0.009,-0.347 c 0,0.066 10e-4,0.131 0.002,0.197 0.162,-7.976 4.729,-14.445 7.152,-18.666 2.984,-5.184 12.402,-16.101 21.071,-8.788 10.86,9.159 -18.641,37.328 -11.11,42.534 3.797,2.617 10.436,-0.898 14.526,-4.728 L 48.578,77.214 55.76,77.01 24.79,135.482 c 2.442,3.474 5.165,6.74 8.105,9.787 0.024,0.002 0.047,-0.011 0.078,-0.008 l 2.994,1.15 c 0.1,0.042 0.195,0.118 0.251,0.215 l 0.075,0.111 c 0.771,-0.708 1.487,-1.477 2.226,-2.224 -0.009,-0.003 -0.032,-0.034 -0.033,-0.035 -0.271,-0.077 -4.578,-1.343 -4.578,-1.343 -0.227,-0.066 -0.37,-0.272 -0.37,-0.491 0,-0.052 0.002,-0.097 0.021,-0.15 0.077,-0.273 0.369,-0.433 0.641,-0.349 l 4.72,1.379 c 0.096,0.03 0.175,0.085 0.24,0.152 l 0.096,0.108 c 0.629,-0.651 1.249,-1.303 1.855,-1.977 -0.023,-0.03 -0.077,-0.085 -0.087,-0.095 -0.25,-0.077 -5.165,-1.574 -5.165,-1.574 -0.227,-0.066 -0.369,-0.271 -0.369,-0.49 0,-0.053 0.01,-0.106 0.022,-0.152 0.085,-0.272 0.37,-0.432 0.649,-0.346 l 5.295,1.607 c 0.087,0.03 0.164,0.076 0.228,0.149 l 0.099,0.101 c 0.956,-1.098 1.909,-2.205 2.799,-3.366 -0.034,-0.053 -0.097,-0.13 -0.109,-0.152 -0.432,-0.043 -5.295,-0.552 -5.295,-0.552 -0.27,-0.031 -0.466,-0.25 -0.466,-0.512 0,-0.02 0,-0.041 10e-4,-0.054 0.031,-0.291 0.29,-0.496 0.573,-0.465 l 5.524,0.576 c 0.151,0.019 0.283,0.096 0.369,0.216 l 0.033,0.053 c 0.759,-1.028 1.517,-2.05 2.223,-3.114 -1.399,-0.163 -5.152,-0.607 -5.152,-0.607 -0.261,-0.032 -0.456,-0.258 -0.456,-0.511 0,-0.022 0,-0.043 0.001,-0.064 0.04,-0.283 0.292,-0.488 0.575,-0.455 l 5.662,0.663 c 0.607,-0.945 1.162,-1.931 1.726,-2.908 l -4.383,-0.411 c -0.283,-0.023 -0.497,-0.274 -0.467,-0.564 0.023,-0.283 0.281,-0.49 0.564,-0.467 l 4.872,0.455 c 0.065,-0.118 0.14,-0.226 0.197,-0.337 0.019,-0.02 0.009,-0.044 0.029,-0.064 0.002,-0.009 0.013,-10e-4 0.014,-0.01 0.065,-0.12 0.141,-0.228 0.206,-0.347 0.139,-0.25 0.454,-0.348 0.704,-0.207 0.25,0.131 0.347,0.447 0.208,0.696 -0.022,0.052 -0.054,0.095 -0.077,0.139 l 4.048,3.725 c 0.215,0.195 0.226,0.529 0.031,0.736 -0.195,0.207 -0.521,0.226 -0.736,0.031 l -3.885,-3.58 c -0.705,1.257 -1.424,2.497 -2.202,3.702 l 3.623,4.588 c 0.182,0.219 0.14,0.544 -0.086,0.727 -0.22,0.175 -0.546,0.14 -0.727,-0.086 0,0 -2.444,-3.102 -3.399,-4.308 -0.789,1.192 -1.624,2.333 -2.472,3.471 l 3.016,4.242 c 0.163,0.229 0.11,0.554 -0.128,0.718 -0.23,0.163 -0.554,0.109 -0.718,-0.121 0,0 -1.758,-2.474 -2.809,-3.948 -0.859,1.117 -1.791,2.171 -2.714,3.234 l 3.095,3.277 c 0.195,0.215 0.193,0.541 -0.022,0.736 -0.207,0.196 -0.533,0.185 -0.729,-0.021 0,0 -1.898,-2.008 -3.017,-3.2 -0.609,0.683 -1.248,1.344 -1.887,2.004 l 2.678,3.029 c 0.187,0.216 0.166,0.543 -0.051,0.728 -0.209,0.194 -0.535,0.172 -0.728,-0.044 0,0 -1.648,-1.866 -2.636,-2.984 -0.762,0.77 -1.5,1.563 -2.302,2.3 -0.02,0.02 -0.031,0.031 -0.052,0.043 l 1.671,2.671 c 0.063,0.097 0.063,0.205 0.053,0.312 6.251,5.352 13.281,9.767 20.824,13.02 4.491,-8.244 8.898,-16.567 11.12,-21.08 1.183,-2.409 4.96,-9.808 9.29,-18.945 -2.15,1.649 -6.578,3.808 -7.715,2.049 -2.356,-3.667 4.851,-9.483 3.492,-11.11 -0.824,-0.977 -4.209,1.572 -6.975,4.753 0,0 -1.532,2.942 -3.626,6.652 l -4.925,0.044 c -0.296,-0.229 6.26,-9.831 4.99,-10.949 -1.812,-1.583 -12.424,15.572 -17.415,11.935 -0.422,-0.313 -1.542,-1.584 -0.044,-4.794 -2.234,2.95 -7.66,5.337 -9.948,3.353 -4.896,-4.245 8.409,-18.5 13.778,-13.563 0.422,0.389 0.567,0.767 0.542,1.062 l 0.718,-1.139 4.852,-0.044 c -2.204,5.936 -6.773,11.307 -5.601,12.153 2.04,1.473 13.78,-16.517 17.773,-12.599 1.238,1.217 1.152,2.812 0.827,3.68 2.832,-2.951 8.809,-5.794 10.741,-3.788 2.353,2.44 -4.798,9.634 -3.224,10.635 0.642,0.412 2.235,-0.554 3.083,-1.13 3.384,-7.236 6.955,-15.278 9.843,-22.754 C 90.829,97.996 84.669,95.295 78.841,93.025 72.048,90.37 65.029,83.011 66.753,74.373 68.782,64.196 81.761,63.991 87.588,63.546 c 1.659,-0.122 2.724,0.42 0,0.693 -3.073,0.313 -4.72,0.457 -7.714,1.844 7.257,-0.237 20.343,2.311 31.031,7.652 7.825,3.916 16.344,10.262 21.237,15.255 2.484,2.538 3.373,2.981 1.497,-0.576 -0.358,-0.674 -0.761,-1.323 -1.608,-2.411 -1.193,-1.55 -2.907,-4.067 0.686,-0.693 3.688,3.451 8.376,12.261 6.075,23.08 0,0 -0.042,0.586 -0.109,0.88 -0.064,0.085 -2.225,0.965 -3.025,1.529 1.116,-2.335 2.027,-5.286 2.015,-8.563 -0.347,-5.368 -1.269,-7.063 -6.521,-12.131 -4.588,-4.426 -13.911,-11.206 -20.885,-14.701 -16.081,-8.063 -40.29,-12.305 -41.906,0.575 -0.968,7.767 6.446,13.475 10.598,15.083 3.182,1.246 9.204,3.223 12.662,5.067 l -0.542,1.66 c 0.749,-1.952 1.466,-3.864 2.105,-5.707 0.219,-0.642 0.403,-1.248 0.609,-1.876 -0.196,0.584 -0.393,1.16 -0.608,1.769 -5.828,-3.887 -9.255,-8.073 -7.671,-11.091 2.94,-5.608 12.119,-4.664 21.71,0.045 9.584,4.708 16.071,11.858 13.359,17.002 -1.607,3.049 -7.098,2.986 -13.803,0.75 -0.011,0.02 -0.021,0.031 -0.033,0.051 -9.603,13.349 -24.197,37.525 -29.675,47.084 -2.442,4.272 -6.772,12.261 -10.983,20.343 7.717,2.527 15.853,3.875 24.144,3.808 23.177,-0.202 44.02,-9.647 58.647,-25.063 l -3.203,2.193 c -0.237,0.162 -0.562,0.106 -0.724,-0.132 -0.064,-0.088 -0.089,-0.194 -0.089,-0.293 0,-0.163 0.077,-0.326 0.226,-0.432 0,0 2.132,-1.457 3.388,-2.314 -0.684,-0.464 -1.409,-1.008 -2.158,-1.636 l -4.797,3.2 c -0.239,0.162 -0.556,0.096 -0.717,-0.142 -0.161,-0.239 -0.097,-0.563 0.142,-0.716 0,0 3.84,-2.561 4.569,-3.036 -0.401,-0.348 -0.796,-0.707 -1.205,-1.088 -0.131,0.022 -0.271,-0.009 -0.389,-0.096 -0.141,-0.099 -0.186,-0.26 -0.185,-0.424 -0.043,0.085 -0.077,0.172 -0.164,0.219 l -5.067,2.994 c -0.248,0.15 -0.564,0.065 -0.706,-0.176 -0.15,-0.249 -0.065,-0.564 0.176,-0.714 l 5.067,-2.994 c 0.009,-0.001 0.02,0 0.022,-0.001 -0.49,-0.489 -0.989,-0.997 -1.487,-1.517 l -5.883,2.668 c -0.26,0.12 -0.573,10e-4 -0.691,-0.259 -0.112,-0.26 -0.001,-0.566 0.259,-0.684 0,0 4.362,-1.975 5.595,-2.496 -0.681,-0.726 -1.354,-1.463 -2.015,-2.212 -0.065,0.073 -0.141,0.128 -0.228,0.151 l -5.524,1.614 c -0.272,0.077 -0.564,-0.076 -0.641,-0.356 -0.02,-0.044 -0.022,-0.097 -0.022,-0.141 0,-0.227 0.143,-0.434 0.37,-0.499 0,0 4.98,-1.453 5.35,-1.562 -0.718,-0.835 -1.423,-1.662 -2.095,-2.485 l -6.773,0.228 c -0.291,0.01 -0.53,-0.217 -0.54,-0.5 -0.01,-0.291 0.216,-0.53 0.499,-0.54 l 6,-0.197 c -1.095,-1.368 -2.085,-2.679 -2.919,-3.831 l -5.044,0.913 c -0.274,0.053 -0.545,-0.131 -0.598,-0.414 -0.009,-0.032 -0.01,-0.064 -0.01,-0.096 0,-0.241 0.175,-0.466 0.432,-0.51 0,0 3.451,-0.629 4.569,-0.827 -0.629,-0.912 -1.14,-1.714 -1.484,-2.322 -0.133,-0.258 -0.045,-0.572 0.205,-0.705 0.25,-0.14 0.565,-0.052 0.705,0.198 0.326,0.596 0.823,1.366 1.422,2.245 0.518,-0.511 1.213,-1.206 1.213,-1.206 0.204,-0.205 0.531,-0.205 0.729,0 0.205,0.197 0.205,0.531 0,0.728 l -1.336,1.344 c 0.749,1.051 1.638,2.224 2.615,3.462 l 3.037,-3.441 c 0.186,-0.216 0.512,-0.238 0.728,-0.044 0.216,0.186 0.237,0.512 0.044,0.728 l -3.156,3.58 c 0.77,0.955 1.584,1.932 2.431,2.91 1.04,-1.228 2.938,-3.483 2.938,-3.483 0.184,-0.218 0.51,-0.241 0.728,-0.064 0.218,0.192 0.249,0.518 0.064,0.736 l -3.039,3.612 c 0.686,0.783 1.392,1.554 2.106,2.314 0.9,-1.11 2.897,-3.594 2.897,-3.594 0.175,-0.225 0.508,-0.259 0.728,-0.076 0.219,0.175 0.259,0.501 0.076,0.727 0,0 -2.028,2.517 -3.006,3.69 0.652,0.683 1.303,1.333 1.953,1.955 l 3.223,-4.43 c 0.172,-0.237 0.497,-0.282 0.726,-0.118 0.229,0.164 0.282,0.49 0.111,0.726 l -3.302,4.547 c 0.394,0.378 0.793,0.727 1.184,1.065 0.913,-1.109 2.682,-3.256 2.682,-3.256 0.184,-0.219 0.51,-0.251 0.735,-0.067 0.218,0.184 0.25,0.51 0.067,0.728 0,0 -1.735,2.105 -2.701,3.266 0.834,0.693 1.637,1.292 2.377,1.769 0.174,-0.348 1.53,-3.061 1.53,-3.061 0.129,-0.26 0.443,-0.366 0.703,-0.236 0.251,0.128 0.358,0.442 0.229,0.695 l -1.194,2.386 c 6.663,-7.489 11.903,-16.299 15.291,-26.085 0,0 6.39,-5.656 8.809,-9.462 0,0 -0.369,1.693 -0.716,3.08 -9.136,37.723 -43.132,65.742 -83.67,65.742 z M 56.128,124.448 c 0.187,-0.208 0.513,-0.229 0.729,-0.034 l 2.419,2.191 c 0.208,0.187 0.228,0.512 0.034,0.728 -0.187,0.216 -0.521,0.228 -0.729,0.034 l -2.419,-2.182 c -0.216,-0.194 -0.228,-0.521 -0.034,-0.737 z m 3.907,-4.417 c 0.153,-0.239 0.469,-0.314 0.716,-0.153 l 1.141,0.729 c 0.239,0.153 0.314,0.477 0.161,0.716 -0.16,0.239 -0.477,0.314 -0.716,0.161 l -1.149,-0.737 c -0.24,-0.154 -0.314,-0.477 -0.153,-0.716 z m -2.16,-2.193 c 0.218,0.176 0.251,0.502 0.068,0.727 -0.176,0.219 -0.502,0.251 -0.727,0.076 l -1.269,-1.04 c -0.218,-0.176 -0.251,-0.51 -0.068,-0.728 0.176,-0.227 0.509,-0.251 0.727,-0.075 z M 90.94,56.835 c 5.24,-3.625 17.912,-6.747 29.243,-0.63 8.354,4.495 14.389,11.915 16.122,22.734 l -6.335,3.624 C 123.982,75.771 118.575,71.744 114.43,69.672 110.285,67.6 100.616,63.455 91.405,62.99 Z m 27.331,53.255 c -0.488,0.175 -1.705,0.826 -2.648,1.422 -1.899,-2.16 -8.581,-6.791 -12.152,-8.029 -0.054,-0.02 0.902,-1.279 0.902,-1.279 3.687,1.497 12.456,6.586 13.842,7.854 z m 7.715,12.685 c -0.031,-0.291 0.182,-0.542 0.466,-0.565 l 2.301,-0.236 c 0.283,-0.024 0.534,0.182 0.565,0.466 0.031,0.282 -0.175,0.541 -0.466,0.565 l -2.301,0.229 c -0.283,0.031 -0.535,-0.176 -0.565,-0.459 z m 19.641,5.392 v -0.812 h 3.658 v 0.812 h -1.367 v 3.723 h -0.924 v -3.723 z m 8.91,0.12 -1.306,3.603 h -0.898 l -1.27,-3.603 h -0.021 v 3.603 h -0.924 v -4.535 h 1.605 l 1.053,2.962 h 0.022 l 1.097,-2.962 h 1.594 v 4.535 h -0.931 v -3.603 z m 6.887,-8.919 c -0.208,0.728 -0.51,1.445 -1.008,2.118 -1.908,2.581 -5.165,2.928 -7.876,2.472 -1.728,-0.301 -3.668,-1.451 -4.471,-2.745 -0.329,-0.542 -0.543,-1.062 -0.695,-1.563 -6.837,4.111 -15.322,5.231 -17.395,1.203 -0.282,-0.552 -0.433,-1.105 -0.489,-1.658 -7.595,5.456 -17.598,7.16 -19.724,2.506 -0.261,-0.575 -0.381,-1.162 -0.402,-1.749 l -0.198,0.826 c -4.882,4.428 -10.133,6.087 -11.86,4.763 -2.886,-2.203 -0.259,-5.067 -1.724,-6.304 -0.401,-0.336 -1.073,-0.422 -2.169,-0.338 l 2.027,-3.136 1.943,-3.123 c 0.023,-0.011 0.056,-0.021 0.087,-0.032 l 1.617,-2.508 c 3.047,-1.562 8.017,-2.398 8.853,0.446 1.163,3.981 -4.392,7.422 -8.244,8.06 2.93,0.534 0.032,3.799 3.036,4.19 1.303,0.173 5.046,-2.486 7.117,-5.231 2.748,-6.443 16.277,-12.109 18.167,-7.27 1.637,4.168 -6.11,7.901 -12.49,7.964 -0.27,0.001 -0.175,-0.073 -0.205,0.001 -0.555,1.617 0.236,3.386 3.223,3.363 2.898,-0.03 7.161,-1.214 11.263,-4.709 2.376,-6.381 16.283,-11.761 17.556,-7.268 1.118,3.938 -5.784,7.302 -11.632,7.757 -0.262,0.022 -0.174,-0.066 -0.197,10e-4 -0.562,1.617 0.229,3.395 3.223,3.363 2.452,-0.022 5.103,-1.021 8.409,-2.854 0.229,-3.169 3.822,-4.913 5.512,-3.364 1.203,-0.855 2.466,-1.909 3.451,-3.06 0.065,-0.564 0.143,-1.117 0.23,-1.638 0.575,-3.503 5.109,-7.148 6.715,-6 1.096,0.783 0.491,3.387 -2.474,5.938 -0.554,0.542 -0.921,0.629 -0.118,2.287 0.391,0.802 0.889,2.116 1.126,3.604 5.264,-3.876 8.15,-10.309 8.662,-25.132 l -0.045,-0.064 c 0,-21.539 -8.518,-41.08 -22.352,-55.479 -0.12,0.206 -0.351,0.326 -0.587,0.248 l -5.522,-1.911 c -0.599,0.737 -1.195,1.477 -1.748,2.172 1.292,0.618 4.209,2.006 4.209,2.006 0.185,0.087 0.294,0.272 0.294,0.467 0,0.075 -0.02,0.151 -0.053,0.226 -0.121,0.252 -0.433,0.361 -0.686,0.241 0,0 -3.123,-1.486 -4.414,-2.116 -0.412,0.521 -0.782,0.998 -1.064,1.358 9.678,6.997 16.429,17.911 17.676,30.164 -0.01,0.128 -14.575,8.407 -18.568,10.675 -0.171,-1.093 -0.39,-2.159 -0.669,-3.211 l 15.993,-10.331 c 0.152,-1.16 -0.792,-5.121 -1.12,-5.771 l -16.481,11.405 c -1.097,-2.498 -2.517,-4.829 -4.19,-6.937 l 15.986,-14.039 c -2.31,-3.626 -4.666,-6.121 -7.629,-8.704 l -13.695,17.438 c -2.886,-2.257 -6.161,-4.037 -9.712,-5.197 l 7.728,-20.095 c -3.744,-1.206 -7.998,-1.671 -12.261,-1.269 l -3.309,19.89 c -0.652,-0.035 -1.303,-0.099 -1.966,-0.099 -2.168,0 -4.277,0.226 -6.325,0.639 l 0.378,-18.067 c -1.757,0.63 -4.034,1.725 -5.704,3.049 l 0.323,16.513 c -1.324,0.502 -2.624,1.075 -3.852,1.748 -0.291,-4.6 -1.128,-18.099 -1.031,-18.172 6.803,-4.818 15.114,-7.651 24.087,-7.651 8.64,0 16.733,2.779 23.494,7.431 0.292,-0.378 0.652,-0.845 1.052,-1.346 l -4.088,-4.088 c -0.198,-0.198 -0.198,-0.531 0,-0.729 0.205,-0.204 0.531,-0.204 0.736,0 0,0 3.093,3.093 3.983,4.006 0.552,-0.695 1.15,-1.443 1.756,-2.173 l -3.071,-4.394 c -0.171,-0.237 -0.108,-0.562 0.122,-0.725 0.237,-0.163 0.562,-0.108 0.725,0.13 0,0 2.195,3.145 2.909,4.156 0.488,-0.577 0.957,-1.13 1.4,-1.62 -14.107,-12.41 -32.597,-19.943 -52.856,-19.943 -22.188,0 -42.262,9.019 -56.769,23.591 0.259,0.207 0.509,0.423 0.759,0.639 l 5.869,-2.17 c 0.263,-0.098 0.565,0.034 0.663,0.305 0.022,0.063 0.033,0.119 0.033,0.182 0,0.207 -0.13,0.404 -0.337,0.48 0,0 -3.743,1.388 -5.318,1.973 0.858,0.75 1.684,1.531 2.507,2.322 l 5.438,-2.041 c 0.27,-0.098 0.572,0.034 0.671,0.303 0.099,0.27 -0.033,0.565 -0.303,0.664 l -4.97,1.865 c 0.403,0.401 0.792,0.823 1.184,1.226 l 5.521,-1.768 c 0.272,-0.087 0.564,0.065 0.651,0.337 0.087,0.271 -0.064,0.563 -0.336,0.651 l -5.044,1.622 c 0.596,0.631 1.183,1.27 1.756,1.921 l 6.958,-1.086 c 0.29,-0.044 0.552,0.152 0.595,0.433 0.044,0.283 -0.151,0.545 -0.433,0.596 l -6.339,0.988 c 0.576,0.684 1.161,1.368 1.714,2.072 l 6.882,-0.986 c 0.29,-0.042 0.551,0.153 0.586,0.435 0.043,0.291 -0.153,0.552 -0.436,0.594 L 45.3,46.428 c 1.009,1.316 1.974,2.679 2.886,4.059 l 7.932,-0.693 c 0.283,-0.023 0.533,0.185 0.563,0.476 0.023,0.283 -0.185,0.533 -0.475,0.555 l -7.359,0.64 c 0.901,1.41 1.761,2.842 2.571,4.306 l 7.726,-0.218 c 0.284,-0.009 0.522,0.209 0.532,0.501 0,10e-4 0,0.011 0,0.012 0,0.281 -0.226,0.51 -0.508,0.52 0,0 -5.37,0.152 -7.227,0.206 0.714,1.336 1.377,2.701 2.006,4.08 l 7.313,0.435 c 0.283,0.02 0.5,0.26 0.488,0.552 -0.02,0.283 -0.268,0.5 -0.552,0.48 0,0 -4.894,-0.293 -6.771,-0.403 0.739,1.702 1.444,3.418 2.061,5.174 l 7.781,0.643 c 0.283,0.022 0.499,0.28 0.469,0.563 -0.022,0.283 -0.272,0.498 -0.555,0.468 0,0 -5.382,-0.446 -7.347,-0.609 0.578,1.746 1.096,3.515 1.544,5.296 l 7.246,1.897 c 0.273,0.075 0.436,0.358 0.369,0.63 -0.075,0.28 -0.357,0.445 -0.638,0.369 L 58.68,74.621 c 0.446,1.888 0.825,3.805 1.129,5.729 0.064,0.118 0.077,0.228 0.053,0.356 0,0.011 10e-4,0.022 10e-4,0.034 l 6.717,2.354 c 0.271,0.097 0.412,0.391 0.323,0.662 -0.096,0.271 -0.391,0.412 -0.661,0.316 l -6.216,-2.171 c 0.336,2.431 0.554,4.884 0.652,7.367 l 7.203,3.051 c 0.262,0.108 0.382,0.413 0.273,0.674 -0.109,0.27 -0.413,0.39 -0.675,0.28 0,0 -5.034,-2.137 -6.769,-2.874 0.02,0.649 0.055,1.29 0.055,1.932 0,1.713 -0.064,3.363 -0.165,4.991 l 6.696,2.71 c 0.262,0.101 0.391,0.404 0.284,0.673 -0.108,0.263 -0.404,0.392 -0.673,0.284 0,0 -4.82,-1.944 -6.404,-2.583 -0.182,2.203 -0.454,4.384 -0.845,6.586 l 6.837,2.866 c 0.269,0.109 0.39,0.413 0.281,0.682 -0.11,0.262 -0.413,0.383 -0.682,0.274 0,0 -5.231,-2.193 -6.611,-2.777 -0.259,1.334 -0.562,2.689 -0.9,4.066 l 3.322,2.79 c 0.225,0.184 0.249,0.51 0.065,0.728 -0.184,0.217 -0.51,0.249 -0.728,0.065 l -3.569,-2.995 c -0.023,-0.02 -0.022,-0.054 -0.043,-0.077 -0.044,-0.053 -0.065,-0.098 -0.087,-0.172 -0.022,-0.066 -0.033,-0.12 -0.024,-0.186 0,-0.032 -0.022,-0.055 -0.012,-0.087 0.337,-1.345 0.618,-2.649 0.87,-3.949 -1.749,0.715 -5.817,2.366 -5.817,2.366 -0.262,0.108 -0.565,-0.021 -0.673,-0.283 -0.108,-0.262 0.021,-0.566 0.283,-0.674 l 6.434,-2.616 c 0.39,-2.147 0.652,-4.272 0.835,-6.411 -1.444,0.965 -5.057,3.375 -5.057,3.375 -0.239,0.153 -0.563,0.097 -0.725,-0.142 -0.154,-0.239 -0.089,-0.563 0.149,-0.725 l 5.753,-3.832 c 0.108,-1.616 0.172,-3.254 0.172,-4.946 0,-0.597 -0.041,-1.184 -0.053,-1.782 -1.413,1.12 -5.382,4.264 -5.382,4.264 -0.227,0.175 -0.553,0.141 -0.727,-0.085 C 53.394,94.5 53.428,94.175 53.655,94 l 5.989,-4.743 C 59.537,86.729 59.308,84.225 58.96,81.75 l -4.621,4.62 c -0.198,0.197 -0.531,0.197 -0.729,0 -0.205,-0.205 -0.205,-0.531 0,-0.736 l 5.166,-5.165 c -0.313,-1.952 -0.695,-3.883 -1.152,-5.783 l -1.56,1.552 c -0.197,0.197 -0.524,0.197 -0.729,0 -0.205,-0.205 -0.205,-0.531 0,-0.736 l 1.985,-1.985 c -0.444,-1.716 -0.942,-3.41 -1.498,-5.09 -1.127,1.128 -4.817,4.818 -4.817,4.818 -0.205,0.204 -0.531,0.204 -0.736,0 -0.205,-0.206 -0.205,-0.531 0,-0.737 l 5.187,-5.179 c -0.617,-1.745 -1.313,-3.448 -2.051,-5.131 -1.096,1.073 -4.591,4.492 -4.591,4.492 -0.206,0.197 -0.539,0.196 -0.736,-0.01 -0.196,-0.206 -0.196,-0.532 0.011,-0.728 l 4.863,-4.762 c -0.619,-1.356 -1.272,-2.692 -1.977,-4.014 -1.087,1.148 -4.34,4.547 -4.34,4.547 -0.196,0.206 -0.522,0.216 -0.729,0.02 -0.207,-0.196 -0.216,-0.522 -0.02,-0.736 l 4.588,-4.798 c -0.802,-1.453 -1.669,-2.874 -2.561,-4.273 l -4.035,4.372 c -0.195,0.207 -0.521,0.226 -0.729,0.031 -0.215,-0.194 -0.226,-0.521 -0.032,-0.736 l 4.145,-4.491 c 0.021,-0.021 0.054,-0.013 0.075,-0.033 -0.717,-1.085 -1.465,-2.15 -2.245,-3.202 l -3.35,5.03 c -0.162,0.231 -0.478,0.295 -0.717,0.141 -0.239,-0.162 -0.303,-0.486 -0.142,-0.716 l 3.55,-5.337 c -0.131,-0.174 -0.259,-0.348 -0.391,-0.521 -0.108,-0.064 -0.183,-0.163 -0.217,-0.292 -0.444,-0.564 -0.901,-1.107 -1.358,-1.66 l -2.884,5.456 c -0.131,0.251 -0.446,0.348 -0.697,0.217 -0.258,-0.131 -0.355,-0.446 -0.216,-0.704 l 3.072,-5.818 c -0.044,-0.053 -0.087,-0.108 -0.132,-0.161 -0.173,-0.064 -0.323,-0.176 -0.348,-0.371 -0.008,-0.01 0.003,-0.02 0.002,-0.032 -0.34,-0.391 -0.695,-0.782 -1.052,-1.172 l -2.224,5.459 c -0.101,0.269 -0.404,0.391 -0.673,0.283 -0.262,-0.108 -0.391,-0.404 -0.283,-0.673 l 2.407,-5.894 c -0.694,-0.737 -1.398,-1.466 -2.125,-2.181 l -2.321,5.481 c -0.111,0.261 -0.414,0.382 -0.675,0.272 -0.261,-0.11 -0.39,-0.413 -0.28,-0.674 l 2.473,-5.837 c -0.75,-0.717 -1.509,-1.431 -2.292,-2.115 -0.465,1.419 -1.854,5.664 -1.854,5.664 -0.087,0.271 -0.38,0.423 -0.652,0.335 -0.272,-0.088 -0.423,-0.38 -0.335,-0.66 l 1.985,-6.065 C 33.116,35.134 32.875,34.919 32.627,34.721 24.152,43.456 17.641,54.104 13.832,65.974 L 5.478,74.826 C 12.661,34.527 47.873,3.93 90.234,3.93 c 47.547,0 86.09,38.55 86.09,86.098 l 0.054,0.142 c 0.042,2.223 -0.293,8.616 -1.489,11.1 -4.176,8.603 -10.763,15.798 -13.465,18.098 z" fill="#ffffff" id="path4"></path>
  <path d="m 97.47,112.609 c -0.031,0.011 -0.064,0.021 -0.087,0.032 l -1.943,3.123 z" fill="#e4002b" id="path6"></path>
  <path d="m 94.553,87.869 c 0.074,-0.228 0.432,-0.79 0.725,-1.225 1.181,-1.749 5.123,-2.115 8.8,-0.38 3.699,1.746 6.327,5.847 5.284,8.529 0,10e-4 -10e-4,10e-4 -0.009,0.01 -10e-4,0.01 0,0.012 -10e-4,0.022 -0.194,0.489 -0.575,1.149 -0.717,1.336 -0.595,0.79 -1.214,1.628 -1.855,2.518 6.705,2.235 12.196,2.299 13.803,-0.75 2.711,-5.144 -3.776,-12.294 -13.359,-17.002 -9.591,-4.709 -18.77,-5.653 -21.71,-0.045 -1.585,3.019 1.843,7.205 7.671,11.091 0.215,-0.609 0.412,-1.185 0.608,-1.769 0.174,-0.531 0.357,-1.064 0.52,-1.584 0.077,-0.25 0.164,-0.501 0.24,-0.751 z m 8.918,15.614 c 3.571,1.238 10.253,5.869 12.152,8.029 0.943,-0.596 2.159,-1.247 2.648,-1.422 l -0.055,-0.031 c -1.386,-1.268 -10.155,-6.357 -13.842,-7.854 -10e-4,0 -0.957,1.258 -0.903,1.278 z" fill="#003087" id="path8"></path>
  <path d="m 176.379,90.169 -0.054,-0.142 c 0,-47.548 -38.543,-86.098 -86.09,-86.098 -42.361,0 -77.573,30.598 -84.755,70.897 l 8.354,-8.852 c 3.809,-11.871 10.32,-22.518 18.795,-31.253 0.248,0.198 0.488,0.412 0.736,0.611 l -1.985,6.065 c -0.088,0.279 0.063,0.572 0.335,0.66 0.272,0.088 0.564,-0.064 0.652,-0.335 0,0 1.389,-4.245 1.854,-5.664 0.783,0.684 1.542,1.398 2.292,2.115 L 34.04,44.01 c -0.11,0.261 0.019,0.564 0.28,0.674 0.261,0.11 0.564,-0.011 0.675,-0.272 l 2.321,-5.481 c 0.727,0.715 1.431,1.444 2.125,2.181 l -2.407,5.894 c -0.108,0.269 0.021,0.565 0.283,0.673 0.269,0.108 0.572,-0.013 0.673,-0.283 l 2.224,-5.459 c 0.357,0.39 0.713,0.78 1.052,1.172 0,0.012 -0.01,0.022 -0.002,0.032 0.025,0.195 0.174,0.307 0.348,0.371 0.044,0.053 0.088,0.108 0.132,0.161 l -3.072,5.818 c -0.139,0.258 -0.041,0.572 0.216,0.704 0.251,0.132 0.565,0.034 0.697,-0.217 l 2.884,-5.456 c 0.457,0.553 0.914,1.096 1.358,1.66 0.034,0.129 0.109,0.228 0.217,0.292 0.132,0.174 0.26,0.348 0.391,0.521 l -3.55,5.337 c -0.161,0.231 -0.097,0.554 0.142,0.716 0.239,0.154 0.555,0.089 0.717,-0.141 l 3.353,-5.033 c 0.78,1.051 1.528,2.116 2.245,3.202 -0.022,0.02 -0.054,0.012 -0.075,0.033 L 43.119,55.6 c -0.195,0.215 -0.183,0.542 0.032,0.736 0.208,0.196 0.534,0.176 0.729,-0.031 l 4.035,-4.372 c 0.892,1.399 1.758,2.819 2.561,4.273 l -4.588,4.798 c -0.196,0.215 -0.187,0.54 0.02,0.736 0.207,0.196 0.533,0.186 0.729,-0.02 0,0 3.253,-3.399 4.34,-4.547 0.704,1.322 1.357,2.658 1.977,4.014 l -4.863,4.762 c -0.206,0.196 -0.207,0.523 -0.011,0.728 0.197,0.206 0.531,0.207 0.736,0.01 0,0 3.496,-3.419 4.591,-4.492 0.739,1.683 1.434,3.387 2.051,5.131 l -5.187,5.179 c -0.205,0.206 -0.205,0.531 0,0.737 0.205,0.204 0.531,0.204 0.736,0 0,0 3.69,-3.69 4.817,-4.818 0.556,1.68 1.054,3.375 1.498,5.09 l -1.985,1.985 c -0.205,0.205 -0.205,0.531 0,0.736 0.205,0.197 0.531,0.197 0.729,0 l 1.56,-1.552 c 0.457,1.901 0.838,3.832 1.152,5.783 l -5.166,5.165 c -0.205,0.205 -0.205,0.531 0,0.736 0.198,0.197 0.531,0.197 0.729,0 l 4.621,-4.62 c 0.348,2.474 0.577,4.979 0.684,7.507 L 53.655,94 c -0.227,0.175 -0.261,0.501 -0.086,0.728 0.175,0.227 0.5,0.26 0.727,0.085 0,0 3.969,-3.144 5.382,-4.264 0.012,0.597 0.053,1.184 0.053,1.782 0,1.692 -0.064,3.33 -0.172,4.946 l -5.753,3.832 c -0.238,0.162 -0.303,0.486 -0.149,0.725 0.162,0.239 0.486,0.295 0.725,0.142 0,0 3.613,-2.409 5.057,-3.375 -0.183,2.139 -0.446,4.264 -0.835,6.411 l -6.434,2.616 c -0.263,0.108 -0.391,0.412 -0.283,0.674 0.108,0.262 0.411,0.391 0.673,0.283 0,0 4.068,-1.651 5.817,-2.366 -0.252,1.3 -0.533,2.604 -0.87,3.949 -0.01,0.032 0.012,0.056 0.012,0.087 -0.009,0.066 0.002,0.12 0.024,0.186 0.021,0.073 0.043,0.118 0.087,0.172 0.021,0.023 0.02,0.056 0.043,0.077 l 3.569,2.995 c 0.218,0.184 0.544,0.152 0.728,-0.065 0.184,-0.218 0.16,-0.544 -0.065,-0.728 l -3.322,-2.79 c 0.337,-1.377 0.641,-2.732 0.9,-4.066 1.379,0.584 6.611,2.777 6.611,2.777 0.269,0.109 0.573,-0.012 0.682,-0.274 0.109,-0.268 -0.012,-0.572 -0.281,-0.682 l -6.837,-2.866 c 0.391,-2.202 0.663,-4.383 0.845,-6.586 1.584,0.639 6.404,2.583 6.404,2.583 0.27,0.108 0.565,-0.021 0.673,-0.284 0.108,-0.268 -0.022,-0.572 -0.284,-0.673 L 60.6,97.321 c 0.101,-1.628 0.165,-3.278 0.165,-4.991 0,-0.642 -0.034,-1.282 -0.055,-1.932 1.735,0.737 6.769,2.874 6.769,2.874 0.261,0.11 0.566,-0.011 0.675,-0.28 0.11,-0.261 -0.01,-0.566 -0.273,-0.674 L 60.678,89.267 C 60.58,86.784 60.362,84.331 60.026,81.9 l 6.216,2.171 c 0.27,0.097 0.565,-0.044 0.661,-0.316 0.089,-0.271 -0.052,-0.565 -0.323,-0.662 l -6.717,-2.354 c 0,-0.011 -10e-4,-0.023 -10e-4,-0.034 0.025,-0.128 0.012,-0.239 -0.053,-0.356 -0.304,-1.924 -0.683,-3.841 -1.129,-5.729 l 6.675,1.746 c 0.281,0.075 0.563,-0.089 0.638,-0.369 0.067,-0.273 -0.097,-0.555 -0.369,-0.63 L 58.378,73.47 c -0.448,-1.782 -0.966,-3.551 -1.544,-5.296 1.966,0.163 7.347,0.609 7.347,0.609 0.283,0.03 0.533,-0.186 0.555,-0.468 0.03,-0.283 -0.186,-0.541 -0.469,-0.563 l -7.781,-0.643 c -0.617,-1.756 -1.321,-3.472 -2.061,-5.174 1.877,0.11 6.771,0.403 6.771,0.403 0.284,0.02 0.532,-0.197 0.552,-0.48 0.013,-0.291 -0.204,-0.532 -0.488,-0.552 l -7.313,-0.435 c -0.629,-1.379 -1.292,-2.744 -2.006,-4.08 1.856,-0.054 7.227,-0.206 7.227,-0.206 0.282,-0.01 0.508,-0.239 0.508,-0.52 0,-10e-4 0,-0.011 0,-0.012 -0.01,-0.291 -0.248,-0.51 -0.532,-0.501 l -7.726,0.218 c -0.811,-1.464 -1.67,-2.896 -2.571,-4.306 l 7.359,-0.64 c 0.29,-0.023 0.498,-0.273 0.475,-0.555 -0.03,-0.291 -0.28,-0.498 -0.563,-0.476 l -7.932,0.693 C 47.274,49.107 46.309,47.743 45.3,46.427 l 6.325,-0.901 c 0.283,-0.042 0.478,-0.304 0.436,-0.594 -0.035,-0.281 -0.296,-0.477 -0.586,-0.435 l -6.882,0.986 c -0.554,-0.704 -1.138,-1.388 -1.714,-2.072 l 6.339,-0.988 C 49.5,42.372 49.695,42.11 49.651,41.827 49.607,41.545 49.345,41.35 49.056,41.394 l -6.958,1.086 c -0.573,-0.651 -1.161,-1.29 -1.756,-1.921 l 5.044,-1.616 c 0.272,-0.088 0.423,-0.38 0.336,-0.651 -0.088,-0.272 -0.379,-0.424 -0.651,-0.337 l -5.521,1.768 c -0.392,-0.404 -0.781,-0.825 -1.184,-1.226 l 4.97,-1.865 c 0.27,-0.099 0.402,-0.394 0.303,-0.664 -0.098,-0.27 -0.4,-0.401 -0.671,-0.303 l -5.438,2.041 c -0.823,-0.791 -1.649,-1.572 -2.507,-2.322 1.576,-0.585 5.319,-1.973 5.319,-1.973 0.207,-0.077 0.337,-0.273 0.337,-0.48 0,-0.064 -0.01,-0.12 -0.033,-0.182 -0.098,-0.271 -0.4,-0.403 -0.663,-0.305 l -5.869,2.17 c -0.25,-0.216 -0.501,-0.432 -0.759,-0.639 14.507,-14.572 34.581,-23.591 56.769,-23.591 20.26,0 38.75,7.533 52.856,19.943 -0.444,0.49 -0.913,1.042 -1.4,1.62 -0.714,-1.012 -2.909,-4.156 -2.909,-4.156 -0.163,-0.238 -0.488,-0.293 -0.725,-0.13 -0.23,0.164 -0.293,0.488 -0.122,0.725 l 3.071,4.394 c -0.606,0.73 -1.204,1.477 -1.756,2.173 -0.89,-0.913 -3.983,-4.006 -3.983,-4.006 -0.205,-0.204 -0.531,-0.204 -0.736,0 -0.198,0.198 -0.198,0.531 0,0.729 l 4.088,4.088 c -0.399,0.501 -0.76,0.968 -1.052,1.346 -6.76,-4.652 -14.854,-7.431 -23.494,-7.431 -8.973,0 -17.284,2.833 -24.087,7.651 -0.097,0.074 0.739,13.572 1.031,18.172 1.228,-0.673 2.528,-1.246 3.852,-1.748 L 94.435,37.241 c 1.671,-1.324 3.948,-2.419 5.704,-3.049 l -0.378,18.067 c 2.049,-0.413 4.157,-0.639 6.325,-0.639 0.663,0 1.314,0.064 1.966,0.099 l 3.309,-19.89 c 4.263,-0.402 8.518,0.063 12.261,1.269 l -7.728,20.095 c 3.551,1.16 6.826,2.94 9.712,5.197 l 13.695,-17.438 c 2.963,2.583 5.319,5.078 7.629,8.704 l -15.986,14.039 c 1.673,2.108 3.093,4.439 4.19,6.937 l 16.481,-11.405 c 0.328,0.65 1.272,4.61 1.12,5.771 l -15.993,10.327 c 0.28,1.053 0.498,2.118 0.669,3.211 3.993,-2.267 18.558,-10.547 18.568,-10.675 -1.247,-12.253 -7.998,-23.167 -17.676,-30.164 0.282,-0.36 0.652,-0.837 1.064,-1.358 1.291,0.63 4.414,2.116 4.414,2.116 0.253,0.12 0.565,0.011 0.686,-0.241 0.033,-0.075 0.053,-0.151 0.053,-0.226 0,-0.195 -0.109,-0.379 -0.294,-0.467 0,0 -2.917,-1.388 -4.209,-2.006 0.553,-0.695 1.149,-1.435 1.748,-2.172 l 5.522,1.911 c 0.236,0.077 0.467,-0.042 0.587,-0.248 13.833,14.399 22.352,33.94 22.352,55.479 l 0.045,0.064 c -0.512,14.823 -3.398,21.256 -8.662,25.132 -0.237,-1.488 -0.735,-2.802 -1.126,-3.604 -0.803,-1.658 -0.436,-1.746 0.118,-2.287 2.965,-2.551 3.57,-5.155 2.474,-5.938 -1.606,-1.147 -6.14,2.498 -6.715,6 -0.086,0.522 -0.165,1.075 -0.23,1.638 -0.985,1.151 -2.248,2.204 -3.451,3.06 -1.69,-1.549 -5.283,0.196 -5.512,3.364 -3.307,1.833 -5.958,2.833 -8.409,2.854 -2.994,0.032 -3.785,-1.746 -3.223,-3.363 0.022,-0.066 -0.065,0.021 0.197,-0.001 5.848,-0.455 12.75,-3.819 11.632,-7.757 -1.273,-4.493 -15.18,0.887 -17.556,7.268 -4.102,3.495 -8.365,4.678 -11.263,4.709 -2.987,0.023 -3.778,-1.746 -3.223,-3.363 0.03,-0.074 -0.066,0 0.205,-10e-4 6.381,-0.064 14.128,-3.796 12.49,-7.964 -1.89,-4.839 -15.419,0.827 -18.167,7.27 -2.071,2.746 -5.813,5.404 -7.117,5.231 -3.004,-0.391 -0.106,-3.656 -3.036,-4.19 3.851,-0.638 9.406,-4.079 8.244,-8.06 -0.836,-2.844 -5.805,-2.008 -8.853,-0.446 l -1.617,2.508 c 1.996,-0.794 5.275,-1.258 5.828,-0.022 0.954,2.117 -4.21,4.828 -8.67,4.47 l 0.812,-1.292 -2.027,3.136 c 1.096,-0.084 1.768,0.003 2.169,0.338 1.465,1.236 -1.162,4.101 1.724,6.304 1.726,1.323 6.978,-0.335 11.86,-4.763 l 0.198,-0.826 c 0.021,0.587 0.141,1.174 0.402,1.749 2.127,4.654 12.129,2.95 19.724,-2.506 0.056,0.553 0.207,1.106 0.489,1.658 2.072,4.028 10.558,2.908 17.395,-1.203 0.152,0.501 0.365,1.021 0.695,1.563 0.803,1.293 2.743,2.444 4.471,2.745 2.711,0.457 5.969,0.109 7.876,-2.472 0.499,-0.673 0.8,-1.39 1.008,-2.118 2.702,-2.3 9.289,-9.495 13.465,-18.099 1.195,-2.485 1.531,-8.879 1.489,-11.102 z m -33.9,-57.68 c 0.446,-0.532 0.88,-1.042 1.282,-1.488 1.094,0.987 2.158,1.997 3.191,3.039 -1.117,-0.382 -3.345,-1.161 -4.473,-1.551 z m 0.639,78.002 c 1.129,1.575 -2.818,5.079 -7.203,5.252 0.305,-2.732 5.794,-7.225 7.203,-5.252 z m -20.277,1.053 c 0.65,1.467 -3.213,4.679 -7.065,5.179 0.834,-3.528 6.16,-7.24 7.065,-5.179 z m 29.694,10.362 c -2.613,-0.13 -3.015,-2.601 -2.493,-3.168 0.154,0.153 3.191,0.035 3.213,-2.906 0.945,-0.651 1.953,-1.432 2.863,-2.302 0.025,0.251 0.047,0.51 0.12,0.759 0.574,2.118 0.64,7.835 -3.703,7.617 z" fill="#e4002b" id="path10"></path>
  <path d="m 174.739,107.521 c -2.419,3.806 -8.809,9.462 -8.809,9.462 -3.388,9.786 -8.628,18.595 -15.291,26.085 l 1.194,-2.386 c 0.13,-0.252 0.022,-0.566 -0.229,-0.695 -0.259,-0.13 -0.574,-0.023 -0.703,0.236 0,0 -1.356,2.712 -1.53,3.061 -0.74,-0.477 -1.543,-1.075 -2.377,-1.769 0.966,-1.161 2.701,-3.266 2.701,-3.266 0.183,-0.218 0.151,-0.544 -0.067,-0.728 -0.226,-0.184 -0.552,-0.152 -0.735,0.067 0,0 -1.768,2.147 -2.682,3.256 -0.391,-0.338 -0.79,-0.687 -1.184,-1.065 l 3.302,-4.547 c 0.171,-0.237 0.118,-0.562 -0.111,-0.726 -0.229,-0.164 -0.554,-0.119 -0.726,0.118 l -3.223,4.43 c -0.65,-0.622 -1.301,-1.271 -1.953,-1.955 0.978,-1.174 3.006,-3.69 3.006,-3.69 0.183,-0.226 0.143,-0.552 -0.076,-0.727 -0.22,-0.183 -0.552,-0.15 -0.728,0.076 0,0 -1.997,2.485 -2.897,3.594 -0.714,-0.76 -1.42,-1.531 -2.106,-2.314 l 3.039,-3.612 c 0.184,-0.217 0.153,-0.544 -0.064,-0.736 -0.217,-0.176 -0.543,-0.153 -0.728,0.064 0,0 -1.898,2.256 -2.938,3.483 -0.846,-0.978 -1.661,-1.955 -2.431,-2.91 l 3.156,-3.58 c 0.194,-0.216 0.172,-0.542 -0.044,-0.728 -0.216,-0.194 -0.543,-0.172 -0.728,0.044 l -3.037,3.441 c -0.977,-1.238 -1.866,-2.411 -2.615,-3.462 l 1.336,-1.344 c 0.205,-0.197 0.205,-0.531 0,-0.728 -0.198,-0.205 -0.525,-0.205 -0.729,0 0,0 -0.695,0.695 -1.213,1.206 -0.599,-0.879 -1.096,-1.65 -1.422,-2.245 -0.14,-0.25 -0.455,-0.338 -0.705,-0.198 -0.25,0.133 -0.338,0.448 -0.205,0.705 0.344,0.609 0.854,1.411 1.484,2.322 -1.118,0.198 -4.569,0.827 -4.569,0.827 -0.257,0.044 -0.432,0.269 -0.432,0.51 0,0.032 0.001,0.064 0.01,0.096 0.053,0.283 0.324,0.467 0.598,0.414 l 5.044,-0.913 c 0.834,1.152 1.824,2.463 2.919,3.831 l -6,0.197 c -0.283,0.01 -0.509,0.25 -0.499,0.54 0.01,0.283 0.249,0.51 0.54,0.5 l 6.773,-0.228 c 0.672,0.824 1.377,1.65 2.095,2.485 -0.37,0.109 -5.35,1.562 -5.35,1.562 -0.227,0.065 -0.37,0.272 -0.37,0.499 0,0.044 0.002,0.097 0.022,0.141 0.077,0.28 0.369,0.434 0.641,0.356 l 5.524,-1.614 c 0.087,-0.023 0.163,-0.078 0.228,-0.151 0.661,0.749 1.334,1.487 2.015,2.212 -1.233,0.521 -5.595,2.496 -5.595,2.496 -0.26,0.118 -0.371,0.424 -0.259,0.684 0.119,0.26 0.431,0.379 0.691,0.259 l 5.883,-2.668 c 0.498,0.52 0.996,1.028 1.487,1.517 -0.002,10e-4 -0.013,0 -0.022,10e-4 l -5.067,2.994 c -0.242,0.15 -0.327,0.466 -0.176,0.714 0.142,0.241 0.458,0.326 0.706,0.176 l 5.067,-2.994 c 0.087,-0.047 0.12,-0.133 0.164,-0.219 -0.001,0.163 0.044,0.325 0.185,0.424 0.118,0.086 0.259,0.118 0.389,0.096 0.41,0.381 0.805,0.74 1.205,1.088 -0.728,0.475 -4.569,3.036 -4.569,3.036 -0.238,0.154 -0.303,0.478 -0.142,0.716 0.161,0.238 0.478,0.304 0.717,0.142 l 4.797,-3.2 c 0.749,0.628 1.474,1.172 2.158,1.636 -1.256,0.857 -3.388,2.314 -3.388,2.314 -0.149,0.106 -0.226,0.269 -0.226,0.432 0,0.099 0.024,0.205 0.089,0.293 0.162,0.238 0.487,0.294 0.724,0.132 l 3.203,-2.193 c -14.627,15.416 -35.47,24.861 -58.647,25.063 -8.291,0.068 -16.427,-1.28 -24.144,-3.808 4.211,-8.082 8.541,-16.071 10.983,-20.343 5.478,-9.56 20.072,-33.736 29.675,-47.084 0.012,-0.02 0.022,-0.031 0.033,-0.051 0.641,-0.89 1.259,-1.728 1.855,-2.518 0.142,-0.187 0.523,-0.847 0.717,-1.336 0.001,-0.01 0.001,-0.012 0.001,-0.022 1.029,-2.681 -1.596,-6.77 -5.285,-8.506 -3.678,-1.736 -7.619,-1.377 -8.8,0.38 -0.294,0.435 -0.651,0.997 -0.718,1.225 -0.074,0.229 -0.162,0.488 -0.238,0.718 -0.163,0.52 -0.346,1.053 -0.52,1.584 -0.207,0.629 -0.391,1.235 -0.609,1.876 -0.639,1.843 -1.356,3.755 -2.105,5.707 -0.033,0.088 -0.074,0.176 -0.107,0.271 -2.888,7.476 -6.459,15.518 -9.843,22.754 -0.847,0.576 -2.441,1.542 -3.083,1.13 -1.574,-1 5.577,-8.195 3.224,-10.635 -1.932,-2.006 -7.909,0.837 -10.741,3.788 0.325,-0.868 0.411,-2.463 -0.827,-3.68 -3.993,-3.918 -15.733,14.072 -17.773,12.599 -1.172,-0.846 3.397,-6.217 5.601,-12.153 l -4.852,0.044 -0.718,1.139 c 0.025,-0.295 -0.12,-0.673 -0.542,-1.062 -5.369,-4.937 -18.674,9.318 -13.778,13.563 2.288,1.984 7.714,-0.403 9.948,-3.353 -1.498,3.21 -0.378,4.481 0.044,4.794 4.99,3.637 15.603,-13.518 17.415,-11.935 1.271,1.118 -5.286,10.721 -4.99,10.949 l 4.925,-0.044 c 2.093,-3.711 3.626,-6.652 3.626,-6.652 2.766,-3.181 6.152,-5.729 6.975,-4.753 1.358,1.627 -5.848,7.443 -3.492,11.11 1.138,1.759 5.565,-0.4 7.715,-2.049 -4.33,9.137 -8.107,16.537 -9.29,18.945 -2.223,4.513 -6.629,12.836 -11.12,21.08 -7.543,-3.253 -14.573,-7.668 -20.824,-13.02 0.009,-0.106 0.01,-0.215 -0.053,-0.312 l -1.671,-2.671 c 0.021,-0.012 0.032,-0.023 0.052,-0.043 0.803,-0.737 1.541,-1.53 2.302,-2.3 0.988,1.119 2.636,2.984 2.636,2.984 0.193,0.216 0.519,0.237 0.728,0.044 0.216,-0.185 0.237,-0.512 0.051,-0.728 l -2.678,-3.029 c 0.639,-0.661 1.279,-1.321 1.887,-2.004 1.119,1.192 3.017,3.2 3.017,3.2 0.196,0.207 0.522,0.217 0.729,0.021 0.214,-0.196 0.217,-0.522 0.022,-0.736 l -3.095,-3.277 c 0.923,-1.063 1.855,-2.117 2.714,-3.234 1.05,1.474 2.809,3.948 2.809,3.948 0.164,0.23 0.489,0.285 0.718,0.121 0.237,-0.164 0.291,-0.489 0.128,-0.718 l -3.016,-4.242 c 0.848,-1.138 1.683,-2.279 2.472,-3.471 0.956,1.206 3.399,4.308 3.399,4.308 0.181,0.226 0.508,0.261 0.727,0.086 0.227,-0.183 0.268,-0.508 0.086,-0.727 l -3.623,-4.588 c 0.778,-1.205 1.497,-2.445 2.202,-3.702 l 3.885,3.58 c 0.215,0.195 0.541,0.176 0.736,-0.031 0.195,-0.208 0.184,-0.542 -0.031,-0.736 l -4.048,-3.725 c 0.023,-0.044 0.055,-0.087 0.077,-0.139 0.14,-0.25 0.043,-0.565 -0.208,-0.696 -0.25,-0.14 -0.565,-0.043 -0.704,0.207 -0.065,0.119 -0.141,0.228 -0.206,0.347 -0.002,0.009 -0.012,0.001 -0.014,0.01 -0.02,0.02 -0.01,0.044 -0.029,0.064 -0.058,0.111 -0.133,0.219 -0.197,0.337 l -4.872,-0.455 c -0.283,-0.023 -0.541,0.184 -0.564,0.467 -0.03,0.291 0.184,0.541 0.467,0.564 l 4.383,0.411 c -0.564,0.977 -1.119,1.963 -1.726,2.908 l -5.662,-0.663 c -0.283,-0.033 -0.535,0.172 -0.575,0.455 -10e-4,0.021 -10e-4,0.042 -10e-4,0.064 0,0.252 0.195,0.479 0.456,0.511 0,0 3.754,0.444 5.152,0.607 -0.706,1.064 -1.464,2.086 -2.223,3.114 l -0.033,-0.053 c -0.086,-0.12 -0.218,-0.197 -0.369,-0.216 l -5.524,-0.576 c -0.283,-0.031 -0.542,0.174 -0.573,0.465 -0.001,0.013 -0.001,0.034 -0.001,0.054 0,0.261 0.196,0.48 0.466,0.512 0,0 4.863,0.509 5.295,0.552 0.012,0.022 0.075,0.099 0.109,0.152 -0.89,1.161 -1.843,2.268 -2.799,3.366 l -0.099,-0.101 c -0.064,-0.073 -0.141,-0.118 -0.228,-0.149 l -5.295,-1.607 c -0.279,-0.086 -0.564,0.075 -0.649,0.346 -0.012,0.046 -0.022,0.099 -0.022,0.152 0,0.219 0.142,0.425 0.369,0.49 0,0 4.915,1.497 5.165,1.574 0.01,0.01 0.064,0.064 0.087,0.095 -0.606,0.674 -1.227,1.326 -1.855,1.977 l -0.096,-0.108 c -0.065,-0.067 -0.144,-0.121 -0.24,-0.152 l -4.72,-1.379 c -0.273,-0.085 -0.564,0.076 -0.641,0.349 -0.019,0.053 -0.021,0.098 -0.021,0.15 0,0.219 0.143,0.425 0.37,0.491 0,0 4.307,1.266 4.578,1.343 10e-4,10e-4 0.024,0.032 0.033,0.035 -0.738,0.747 -1.454,1.517 -2.226,2.224 l -0.075,-0.111 c -0.056,-0.097 -0.151,-0.173 -0.251,-0.215 l -2.994,-1.15 c -0.031,-0.003 -0.054,0.01 -0.078,0.008 -2.94,-3.047 -5.663,-6.312 -8.105,-9.787 l 30.97,-58.472 -7.182,0.204 -12.675,23.596 c -4.09,3.83 -10.729,7.345 -14.526,4.728 -7.531,-5.206 21.97,-33.375 11.11,-42.534 -8.669,-7.313 -18.087,3.604 -21.071,8.788 -2.423,4.221 -6.99,10.69 -7.152,18.666 0.085,35.359 21.474,65.697 52.009,78.872 -2.879,5.233 -5.6,10.044 -7.543,13.334 -1.368,2.316 -2.266,3.378 -3.895,3.25 -0.315,-0.029 -0.997,0.064 -1.204,0.144 -0.815,0.318 -1.139,1.745 -1.107,2.351 0.064,1.259 1.085,3.523 5.155,5.388 4.069,1.862 6.336,1.689 7.389,1.001 0.509,-0.328 1.475,-1.432 1.249,-2.279 -0.055,-0.218 -0.381,-0.819 -0.587,-1.059 -1.063,-1.243 -0.806,-2.365 0.26,-4.832 1.52,-3.522 4.165,-8.898 7.127,-14.704 8.562,2.856 17.71,4.427 27.236,4.427 40.538,0 74.533,-28.019 83.671,-65.747 0.347,-1.386 0.716,-3.078 0.716,-3.078 z m -133.43,15.004 c -2.347,-2.613 6.812,-11.632 8.962,-8.929 1.626,2.614 -6.327,11.848 -8.962,8.929 z M 14.56,72.191 c 2.17,-3.994 6.792,-9.266 10.884,-8.464 6.348,1.247 2.267,9.536 -3.125,18.933 -5.265,9.182 -11.653,18.837 -6.512,24.384 4.157,4.5 12.664,3.473 17.872,-1.693 L 20.896,129.362 C 14.323,117.959 10.49,104.807 10.49,90.745 9.863,81.803 12.446,76.075 14.56,72.191 Z m 21.57,76.246 c -0.031,-0.031 -0.063,-0.054 -0.088,-0.085 0.003,-0.009 0.013,-0.012 0.023,-0.021 0.022,0.032 0.044,0.065 0.065,0.106 z m -0.695,-1.117 c 0.003,0.012 0.035,0.064 0.047,0.086 -0.079,0.067 -0.163,0.131 -0.242,0.197 -0.216,-0.206 -0.441,-0.401 -0.65,-0.608 0.404,0.153 0.749,0.291 0.845,0.325 z M 96.288,87.913 96.95,87.773 C 91.775,103.387 81.421,125.131 79.306,128.039 90.384,106.966 95.735,89.952 96.288,87.913 Z m -12.217,38.152 c 1.441,-2.81 18.726,-31.827 21.482,-35.973 0.122,-0.671 -0.681,-1.127 -0.681,-1.127 -2.735,4.711 -32.976,56.218 -33.986,58.171 1.311,-2.4 10.037,-20.021 13.271,-26.259 3.397,-6.545 14.42,-33.518 14.671,-34.713 3.06,-0.097 6.413,1.281 8.214,3.745 0.032,-0.065 -0.685,1.119 -0.685,1.119 -0.694,1.061 -12.133,19.542 -13.164,21.386 -1.051,1.876 -27.495,46.941 -27.495,46.941 6.533,-12.697 16.94,-30.482 18.373,-33.29 z m -21.92,38.115 c 0.522,-0.907 0.066,-0.007 10e-4,0.197 -0.032,0.09 -1.336,2.484 -2.875,5.315 1.388,-2.604 2.472,-4.707 2.874,-5.512 z m -15.452,22.186 c 0.954,-0.248 2.768,-2.554 2.866,-2.75 0.098,-0.201 0.36,-0.405 0.23,0.029 -0.196,1.005 -0.891,1.975 -1.466,2.613 -0.339,0.382 -0.554,0.635 -0.826,0.701 -0.683,0.165 -0.933,-0.09 -0.999,-0.289 -0.009,-0.335 0.057,-0.27 0.195,-0.304 z m 4.234,1.656 c -0.252,0.903 -0.576,2.234 -0.828,3.4 -0.161,0.723 -0.541,0.875 -0.944,0.723 -0.249,-0.088 -0.507,-0.267 -0.716,-0.441 -0.128,-0.102 -0.292,-0.13 -0.487,-0.232 -0.055,-0.023 -0.118,0.069 -0.175,0.027 -0.105,-0.065 -0.206,-0.267 -0.314,-0.316 -0.163,-0.066 -0.401,-0.218 -0.575,-0.305 -0.15,-0.078 -0.28,-0.268 -0.402,-0.32 -0.097,-0.043 -0.194,0.045 -0.301,-0.006 -0.262,-0.138 -0.446,-0.333 -0.653,-0.449 -0.139,-0.074 -0.377,-0.216 -0.454,-0.281 -0.173,-0.14 -0.141,-0.262 -0.077,-0.356 0.088,-0.138 0.39,-0.21 0.521,-0.23 0.143,-0.022 0.652,0.167 1.226,0.44 0.457,0.225 0.956,0.515 1.346,0.637 0.325,0.094 0.716,0.006 0.891,-0.168 0.13,-0.129 0.055,-0.301 0.066,-0.476 0.019,-0.224 0.215,-0.464 0.095,-0.631 -0.152,-0.21 -0.303,-0.266 -0.454,-0.361 -0.184,-0.109 -0.369,-0.224 -0.553,-0.296 -0.335,-0.129 -0.468,-0.664 -0.075,-0.731 0,0 0.358,-0.136 0.585,-0.353 0.129,-0.123 0.075,-0.27 0.227,-0.43 0.066,-0.08 0.249,-0.152 0.295,-0.236 0.043,-0.065 -0.045,-0.125 0.018,-0.195 0.066,-0.059 0.025,-0.152 0.132,-0.26 0.087,-0.09 0.315,-0.204 0.403,-0.327 0.087,-0.107 0.174,-0.216 0.27,-0.331 1.814,-2.347 4.829,-7.612 7.421,-12.371 -1.193,2.234 -2.276,4.295 -2.753,5.331 -1,2.178 -2.585,5.954 -3.364,8.086 -0.035,0.11 0.054,0.22 0.02,0.326 -0.197,0.544 -0.337,0.943 -0.391,1.132 z m 7.574,-12.068 c -0.013,0.058 0.02,0.14 -0.012,0.188 -0.183,0.26 -0.165,0.508 -0.26,0.803 -0.011,0.031 -0.108,0.052 -0.107,0.072 0.021,0.284 -0.315,0.472 -0.372,0.726 -0.118,0.461 -0.323,0.818 -0.497,1.272 -0.012,0.035 -0.107,0.045 -0.109,0.073 -0.023,0.186 -0.217,0.252 -0.271,0.404 -0.012,0.042 0.011,0.107 -0.011,0.122 -0.118,0.081 -0.162,0.195 -0.248,0.289 -0.033,0.036 0.009,0.125 -0.013,0.183 -0.043,0.122 -0.151,0.216 -0.174,0.34 -0.107,0.554 -0.281,1.069 -0.499,1.546 -0.054,0.123 -0.142,0.288 -0.097,0.45 -0.152,-0.001 0.044,0.217 -0.13,0.201 0,0.136 0.033,0.277 -0.012,0.391 -0.14,0.355 -0.175,0.702 -0.26,1.072 -0.013,0.064 -0.107,0.13 -0.099,0.202 0.012,0.282 -0.302,0.518 -0.303,0.802 0,0.246 -0.151,0.405 -0.251,0.658 -0.064,0.145 -0.185,0.276 -0.291,0.427 -0.152,0.217 -0.403,0.433 -0.531,0.666 -0.034,0.072 0.14,0.202 0.053,0.244 -0.053,0.022 -0.098,0.029 -0.128,0.081 -0.088,0.181 0.107,0.441 -0.123,0.529 -0.149,0.496 -0.683,0.925 -0.835,1.411 -0.053,0.165 0.163,0.368 0.097,0.514 -0.173,0.367 -0.184,0.635 -0.312,1.011 -0.013,0.053 -0.067,0.102 -0.12,0.059 -0.054,-0.043 -0.066,-0.11 -0.078,-0.183 -0.011,-0.055 -0.149,-0.057 -0.129,-0.207 0.055,-0.499 0.369,-0.701 0.489,-1.166 0.163,-0.62 0.269,-1.172 0.379,-1.759 0.032,-0.157 0.096,-0.295 0.109,-0.468 0.009,-0.051 -0.033,-0.087 -0.024,-0.144 0.023,-0.182 0.186,-0.327 0.141,-0.524 0.283,-0.353 0.207,-0.838 0.501,-1.214 0.044,-0.064 0.193,-0.181 0.227,-0.253 0.217,-0.406 0.162,-0.811 0.412,-1.222 0.023,-0.045 0.054,-0.023 0.076,-0.08 0.043,-0.092 0.282,-0.26 0.313,-0.361 0.022,-0.087 -0.106,-0.187 -0.042,-0.282 0.022,-0.035 -10e-4,-0.087 0.011,-0.125 0.074,-0.193 0.227,-0.331 0.291,-0.526 0.068,-0.232 0.153,-0.477 0.316,-0.659 0.042,-0.043 0.096,-0.095 0.098,-0.158 0.009,-0.065 -0.055,-0.132 0.14,-0.197 -0.013,-0.262 0.229,-0.411 0.293,-0.659 0.023,-0.113 0.163,-0.23 0.207,-0.354 0.054,-0.146 0.119,-0.29 0.16,-0.456 0.011,-0.052 0.056,-0.092 0.121,-0.071 0,-0.067 -0.021,-0.14 0.01,-0.195 0.206,-0.392 0.531,-0.687 0.653,-1.137 0.01,-0.035 0.096,-0.038 0.117,-0.078 0.023,-0.052 -0.02,-0.14 0.013,-0.182 0.247,-0.295 0.303,-0.624 0.507,-0.955 0.024,-0.045 -0.01,-0.13 0.013,-0.188 0.065,-0.167 0.174,-0.311 0.248,-0.476 0.022,-0.053 -0.019,-0.133 0.013,-0.186 0.076,-0.12 0.161,-0.234 0.237,-0.356 0.142,-0.227 0.293,-0.536 0.445,-0.846 -0.075,0.251 0.034,0.613 -0.117,0.845 -0.007,0.021 -0.216,0.03 -0.235,0.086 z m 1.139,-2.178 -0.078,0.152 c 0,0.031 0,0.065 0,0.097 -0.052,-0.036 -0.02,0.077 -0.065,0.034 0.013,0.065 -0.009,0.13 -0.042,0.16 -0.076,0.074 -0.085,0.122 -0.119,0.21 -10e-4,0.007 0.031,0.037 0.011,0.05 -0.065,0.054 -0.046,0.145 -0.108,0.217 -0.076,0.102 -0.296,0.172 -0.361,0.291 0.153,-0.311 0.306,-0.616 0.478,-0.833 0.122,-0.172 0.011,-0.057 0.088,-0.224 0.054,-0.122 0.368,-0.99 0.423,-1.12 1.442,-3.378 26.218,-47.247 40.355,-70.174 3.287,-5.108 7.054,-11.196 7.391,-11.738 0.204,0.171 0.585,0.779 0.55,1.292 -0.04,0.464 -6.782,10.511 -7.213,11.154 -15.422,23.469 -39.49,67.025 -41.31,70.432 z M 4.252,90.603 c 0,-0.052 0.011,-0.096 0.011,-0.149 0,-0.066 -0.002,-0.131 -0.002,-0.197 z" fill="#e4002b" id="path12"></path>
  <path d="m 55.879,116.873 c -0.183,0.218 -0.151,0.552 0.068,0.728 l 1.269,1.04 c 0.225,0.175 0.551,0.143 0.727,-0.076 0.183,-0.225 0.151,-0.551 -0.068,-0.727 l -1.269,-1.04 c -0.218,-0.176 -0.551,-0.151 -0.727,0.075 z m 5.458,4.61 c 0.239,0.153 0.555,0.079 0.716,-0.161 0.153,-0.239 0.078,-0.564 -0.161,-0.716 l -1.141,-0.729 c -0.247,-0.16 -0.563,-0.086 -0.716,0.153 -0.16,0.239 -0.086,0.563 0.153,0.715 z m -2.027,5.85 c 0.194,-0.216 0.174,-0.542 -0.034,-0.728 l -2.419,-2.191 c -0.216,-0.194 -0.542,-0.174 -0.729,0.034 -0.194,0.215 -0.182,0.542 0.034,0.736 l 2.419,2.182 c 0.208,0.195 0.542,0.183 0.729,-0.033 z m 69.542,-4.328 c 0.291,-0.024 0.497,-0.283 0.466,-0.565 -0.031,-0.283 -0.282,-0.49 -0.565,-0.466 l -2.301,0.236 c -0.284,0.023 -0.497,0.274 -0.466,0.565 0.03,0.283 0.282,0.49 0.565,0.458 z" fill="#e4002b" id="path14"></path>
  <path d="m 114.43,69.672 c 4.145,2.072 9.551,6.099 15.54,12.891 l 6.335,-3.624 C 134.572,68.12 128.536,60.7 120.182,56.205 108.851,50.088 96.18,53.21 90.939,56.835 l 0.465,6.155 c 9.212,0.465 18.881,4.61 23.026,6.682 z m -16.102,-8.029 -1.899,-0.717 -1.595,1.184 0.064,-2.009 -1.548,-1.139 1.928,-0.606 0.589,-1.833 1.172,1.616 1.962,0.085 -1.237,1.489 z m 11.555,2.398 -2.562,-1.702 -2.755,1.225 0.76,-2.951 -1.898,-2.201 3.038,-0.241 1.496,-2.507 1.192,2.778 2.865,0.773 -2.331,1.799 z m 12.741,4.166 -1.837,3.051 -1.344,-3.353 -3.473,-0.662 2.711,-2.336 -0.365,-3.395 3.102,1.8 3.115,-1.43 -0.706,3.481 2.246,2.661 z m 10.076,11.166 -1.928,-0.781 -1.781,1.195 0.121,-2.17 -1.727,-1.248 2.073,-0.586 0.664,-1.942 1.236,1.769 2.063,0.02 -1.271,1.716 z M 91.62,96.126 C 88.161,94.282 82.14,92.305 78.958,91.059 74.805,89.452 67.391,83.744 68.36,75.976 c 1.616,-12.88 25.824,-8.639 41.906,-0.575 6.974,3.494 16.297,10.275 20.885,14.701 5.252,5.068 6.174,6.763 6.521,12.131 0.012,3.277 -0.899,6.228 -2.015,8.563 0.8,-0.564 2.961,-1.445 3.025,-1.529 0.067,-0.294 0.109,-0.88 0.109,-0.88 2.301,-10.82 -2.388,-19.629 -6.075,-23.08 -3.593,-3.374 -1.879,-0.856 -0.686,0.693 0.847,1.088 1.25,1.736 1.608,2.411 1.876,3.557 0.987,3.113 -1.497,0.576 C 127.248,83.993 118.729,77.648 110.904,73.732 100.216,68.391 87.13,65.844 79.873,66.08 c 2.994,-1.387 4.641,-1.531 7.714,-1.844 2.724,-0.273 1.659,-0.815 0,-0.693 -5.827,0.445 -18.806,0.65 -20.835,10.827 -1.724,8.637 5.295,15.996 12.088,18.652 5.829,2.27 11.989,4.971 12.132,5.036 0.033,-0.096 0.074,-0.183 0.107,-0.271 z" fill="#003087" id="path16"></path>
  <path d="m 47.502,186.959 c 0.272,-0.067 0.488,-0.32 0.826,-0.701 0.574,-0.639 1.269,-1.609 1.466,-2.613 0.13,-0.434 -0.132,-0.23 -0.23,-0.029 -0.098,0.197 -1.911,2.503 -2.866,2.75 -0.138,0.034 -0.204,-0.031 -0.196,0.304 0.067,0.199 0.318,0.454 1,0.289 z" fill="#ffffff" id="path18"></path>
  <path d="m 54.666,178.479 c 0.477,-1.035 1.56,-3.097 2.753,-5.331 -2.593,4.76 -5.607,10.025 -7.421,12.371 -0.095,0.115 -0.183,0.224 -0.27,0.331 -0.087,0.123 -0.315,0.237 -0.403,0.327 -0.108,0.109 -0.066,0.201 -0.132,0.26 -0.063,0.071 0.025,0.13 -0.018,0.195 -0.046,0.084 -0.23,0.156 -0.295,0.236 -0.152,0.16 -0.098,0.307 -0.227,0.43 -0.227,0.217 -0.585,0.353 -0.585,0.353 -0.393,0.067 -0.26,0.602 0.075,0.731 0.184,0.072 0.369,0.188 0.553,0.296 0.151,0.094 0.303,0.151 0.454,0.361 0.119,0.167 -0.076,0.407 -0.095,0.631 -0.011,0.175 0.064,0.347 -0.066,0.476 -0.175,0.174 -0.566,0.262 -0.891,0.168 -0.39,-0.122 -0.889,-0.412 -1.346,-0.637 -0.574,-0.273 -1.083,-0.461 -1.226,-0.44 -0.131,0.02 -0.433,0.092 -0.521,0.23 -0.064,0.094 -0.096,0.216 0.077,0.356 0.076,0.065 0.315,0.207 0.454,0.281 0.207,0.115 0.392,0.311 0.653,0.449 0.108,0.05 0.204,-0.038 0.301,0.006 0.123,0.052 0.252,0.242 0.402,0.32 0.174,0.087 0.412,0.239 0.575,0.305 0.108,0.049 0.209,0.251 0.314,0.316 0.057,0.042 0.12,-0.05 0.175,-0.027 0.195,0.102 0.359,0.13 0.487,0.232 0.209,0.174 0.468,0.353 0.716,0.441 0.402,0.152 0.783,0 0.944,-0.723 0.252,-1.166 0.575,-2.497 0.828,-3.4 0.054,-0.19 0.194,-0.589 0.389,-1.131 0.034,-0.106 -0.055,-0.216 -0.02,-0.326 0.782,-2.133 2.367,-5.909 3.366,-8.087 z m 51.692,-87.451 c 0,0 0.717,-1.185 0.685,-1.119 -1.801,-2.464 -5.155,-3.842 -8.214,-3.745 -0.251,1.195 -11.274,28.168 -14.671,34.713 -3.234,6.237 -11.96,23.859 -13.271,26.259 1.01,-1.953 31.251,-53.46 33.986,-58.171 0,0 0.803,0.456 0.681,1.127 -2.756,4.146 -20.041,33.163 -21.482,35.973 -1.434,2.809 -11.84,20.594 -18.373,33.29 0,0 26.445,-45.065 27.495,-46.941 1.031,-1.845 12.47,-20.325 13.164,-21.386 z M 58.419,175.87 c -0.076,0.122 -0.161,0.236 -0.237,0.356 -0.032,0.053 0.01,0.133 -0.013,0.186 -0.075,0.165 -0.183,0.309 -0.248,0.476 -0.022,0.058 0.012,0.144 -0.013,0.188 -0.204,0.331 -0.26,0.659 -0.507,0.955 -0.033,0.042 0.01,0.13 -0.013,0.182 -0.021,0.041 -0.107,0.043 -0.117,0.078 -0.122,0.449 -0.447,0.745 -0.653,1.137 -0.031,0.055 -0.01,0.129 -0.01,0.195 -0.065,-0.022 -0.11,0.019 -0.121,0.071 -0.041,0.165 -0.106,0.31 -0.16,0.456 -0.044,0.123 -0.184,0.24 -0.207,0.354 -0.065,0.249 -0.306,0.398 -0.293,0.659 -0.195,0.065 -0.131,0.132 -0.14,0.197 -0.002,0.062 -0.056,0.114 -0.098,0.158 -0.163,0.181 -0.248,0.427 -0.316,0.659 -0.064,0.195 -0.218,0.334 -0.291,0.526 -0.012,0.038 0.011,0.09 -0.011,0.125 -0.064,0.095 0.064,0.195 0.042,0.282 -0.031,0.101 -0.27,0.269 -0.313,0.361 -0.023,0.057 -0.053,0.035 -0.076,0.08 -0.25,0.411 -0.195,0.816 -0.412,1.222 -0.034,0.073 -0.183,0.19 -0.227,0.253 -0.294,0.376 -0.218,0.861 -0.501,1.214 0.045,0.197 -0.119,0.342 -0.141,0.524 -0.009,0.057 0.033,0.092 0.024,0.144 -0.013,0.174 -0.077,0.311 -0.109,0.468 -0.109,0.587 -0.216,1.139 -0.379,1.759 -0.12,0.465 -0.434,0.667 -0.489,1.166 -0.02,0.151 0.119,0.152 0.129,0.207 0.012,0.073 0.024,0.14 0.078,0.183 0.053,0.042 0.107,-0.007 0.12,-0.059 0.128,-0.376 0.139,-0.643 0.312,-1.011 0.066,-0.146 -0.151,-0.349 -0.097,-0.514 0.153,-0.486 0.686,-0.914 0.835,-1.411 0.23,-0.088 0.034,-0.349 0.123,-0.529 0.03,-0.052 0.076,-0.059 0.128,-0.081 0.088,-0.042 -0.087,-0.172 -0.053,-0.244 0.127,-0.233 0.378,-0.449 0.531,-0.666 0.106,-0.151 0.227,-0.282 0.291,-0.427 0.1,-0.253 0.251,-0.412 0.251,-0.658 0.001,-0.284 0.315,-0.519 0.303,-0.802 -0.008,-0.072 0.086,-0.139 0.099,-0.202 0.085,-0.37 0.12,-0.718 0.26,-1.072 0.044,-0.114 0.012,-0.254 0.012,-0.391 0.174,0.016 -0.022,-0.202 0.13,-0.201 -0.045,-0.162 0.043,-0.327 0.097,-0.45 0.218,-0.477 0.392,-0.992 0.499,-1.546 0.022,-0.125 0.13,-0.218 0.174,-0.34 0.022,-0.059 -0.02,-0.147 0.013,-0.183 0.086,-0.094 0.13,-0.209 0.248,-0.289 0.022,-0.015 -10e-4,-0.08 0.011,-0.122 0.054,-0.152 0.248,-0.218 0.271,-0.404 10e-4,-0.029 0.097,-0.038 0.109,-0.073 0.175,-0.454 0.379,-0.811 0.497,-1.272 0.057,-0.254 0.393,-0.442 0.372,-0.726 0,-0.02 0.097,-0.041 0.107,-0.072 0.096,-0.295 0.077,-0.543 0.26,-0.803 0.033,-0.048 -10e-4,-0.13 0.012,-0.188 0.019,-0.055 0.228,-0.065 0.239,-0.085 0.151,-0.232 0.043,-0.594 0.117,-0.845 -0.157,0.309 -0.307,0.618 -0.449,0.845 z m 42.536,-72.527 c 0.431,-0.642 7.173,-10.689 7.213,-11.154 0.034,-0.513 -0.346,-1.121 -0.55,-1.292 -0.337,0.542 -4.104,6.63 -7.391,11.738 -14.137,22.928 -38.912,66.796 -40.355,70.174 -0.055,0.13 -0.369,0.998 -0.423,1.12 -0.076,0.167 0.034,0.052 -0.088,0.224 -0.171,0.217 -0.325,0.522 -0.478,0.833 0.065,-0.118 0.285,-0.189 0.361,-0.291 0.062,-0.072 0.043,-0.163 0.108,-0.217 0.02,-0.013 -0.012,-0.043 -0.011,-0.05 0.034,-0.088 0.043,-0.136 0.119,-0.21 0.033,-0.03 0.055,-0.095 0.042,-0.16 0.045,0.043 0.013,-0.07 0.065,-0.034 0,-0.031 0,-0.065 0,-0.097 l 0.078,-0.152 c 1.821,-3.406 25.889,-46.962 41.31,-70.432 z" fill="#ffffff" id="path20"></path>
  <path d="m 96.95,87.772 -0.662,0.14 c -0.552,2.039 -5.904,19.053 -16.982,40.126 2.115,-2.908 12.469,-24.651 17.644,-40.266 z m -34.798,76.605 c 0.065,-0.204 0.521,-1.104 -10e-4,-0.197 -0.402,0.805 -1.487,2.908 -2.874,5.512 1.539,-2.831 2.843,-5.225 2.875,-5.315 z" fill="#ffffff" id="path22"></path>
</svg>
