<svg xmlns="http://www.w3.org/2000/svg" viewBox="0 0 234.72 182"><g id="레이어_2"><g id="레이어_1-2"><path d="M214.51,28.89l1.84-3.95L217.94,29a19.39,19.39,0,0,0,2,3.69,8.5,8.5,0,0,1,1.65-.64,7,7,0,0,1,1.82-.23,6.31,6.31,0,0,1,1.78.23,6.75,6.75,0,0,1,3.17,2,6.44,6.44,0,0,1,1.39,2.76,10,10,0,0,1,.2,3.59,10.39,10.39,0,0,1-2.5,5.83,9,9,0,0,1-1.32,1.23,11.3,11.3,0,0,1,2.39,4.67,13.65,13.65,0,0,1,.43,3,23.78,23.78,0,0,0,5.76,3.36s-4.83,1.75-6.48,3.11c-.13.36-.29.72-.45,1.07l0,.07-.13.26a6.42,6.42,0,0,1-2.37,2.75,56.79,56.79,0,0,0-10.33,8.06,8.67,8.67,0,0,1-4.15,2.5l-.71.19a9.61,9.61,0,0,1-1.75.23h-.45a6.9,6.9,0,0,1-1.85-.23l-2.91.36c-14.68,1.88-24.55,3.37-36,5.28V35a8.28,8.28,0,0,0,2.6-2l3.3-4.18,4,3.5a21.73,21.73,0,0,1,4.34,4.89,16.59,16.59,0,0,1,1.23,2.59,9.77,9.77,0,0,1,1.2-1.43,15.51,15.51,0,0,1,3.95-2.75l12.31-6.41,3.43,6.87c1.62-.1,3.37-.23,3.66-.26a6.28,6.28,0,0,0,3.92-1.4A47.43,47.43,0,0,0,214.51,28.89Z" style="fill:#fff"></path><path d="M40.06,155.8,36.56,182l3.69-3A92.42,92.42,0,0,1,76,161a3.27,3.27,0,0,0,2.39-1.91,2,2,0,0,0-.29-2l-.16-.2a84.7,84.7,0,0,0,88.52.23,2.07,2.07,0,0,0-.26,1.94,3.29,3.29,0,0,0,2.4,1.91A92.17,92.17,0,0,1,204.24,179l3.69,3-3.49-26.2L225.17,151l-2-2.33a55.6,55.6,0,0,0-16-13.12l2.69-5a3.26,3.26,0,0,0,.32-2.52,3.21,3.21,0,0,0-1.46-1.92c-3-1.91-6.22-3.79-9.49-5.6A84.75,84.75,0,0,0,59.3,28.18c-2.47-9-10.08-14.48-20.57-14.48A21,21,0,0,0,28.88,16a16.39,16.39,0,0,0-9.49-3.11,14.53,14.53,0,0,0-2.1.13c-6.74.94-11.44,5.83-11.44,11.89A11.21,11.21,0,0,0,12.14,35,17.38,17.38,0,0,0,16.09,36c0,.39,0,.71,0,.87a41.29,41.29,0,0,0,.09,6.55c-2,1.19-10.75,4-14.35,4.76A40.21,40.21,0,0,1,16.19,54,22,22,0,0,0,5.92,57.88,13,13,0,0,0,0,68.47C-.4,76.18,5,82.14,13.21,83c.74.07,1.52.1,2.3.1A24.62,24.62,0,0,0,24,81.53a5.07,5.07,0,0,1,1.69-.33,3.31,3.31,0,0,1,1.91.58c2.39,1.62,5.83,6.16,8.84,12.51,0,0,.55-1.1,1.36-2.63a83.69,83.69,0,0,0,7.61,28.83c-3.43,1.91-7.25,4.11-9.65,5.64A3,3,0,0,0,34.29,128a3.36,3.36,0,0,0,.29,2.46l2.69,5.05a55.34,55.34,0,0,0-16,13.12l-2,2.33Z" style="fill:#fff"></path><path d="M86.89,123.28c-.13-.2-.25-.36-.38-.55-.49-.1-1.49-.36-1.92-.49a7.48,7.48,0,0,0,.62.75A7.59,7.59,0,0,0,86.89,123.28Z" style="fill:#bbac39"></path><path d="M85.4,121.14c-.16-.26-.35-.52-.51-.81a8.2,8.2,0,0,1-2.17-.55c.25.35.55.74.84,1.1A14.5,14.5,0,0,0,85.4,121.14Z" style="fill:#bbac39"></path><path d="M81.78,117.54a4.55,4.55,0,0,0,1.91.81c-.23-.39-.46-.81-.68-1.2a2.56,2.56,0,0,1-1.66-.84,2.12,2.12,0,0,1-1.26-.36c.29.46.58.91.91,1.36A3.61,3.61,0,0,0,81.78,117.54Z" style="fill:#bbac39"></path><path d="M79.35,113.88a6.86,6.86,0,0,0,2.46,1c-.23-.46-.42-.91-.65-1.4a3.69,3.69,0,0,1-2.14-1,4.1,4.1,0,0,1-1.2-.39c.29.52.55,1,.88,1.56A5.1,5.1,0,0,1,79.35,113.88Z" style="fill:#bbac39"></path><path d="M77.4,110.16a4.5,4.5,0,0,0,2.85,1.13c-.16-.45-.32-.87-.48-1.33a3.89,3.89,0,0,1-2.79-1c-.22.09-.55-.07-.87-.29.19.48.42.93.65,1.42A.76.76,0,0,0,77.4,110.16Z" style="fill:#bbac39"></path><path d="M75.69,105.88a6,6,0,0,0,3.17,1.49l-.36-1.62a4.84,4.84,0,0,1-2.72-1.17c-.22.13-.87-.26-1.32-.58.16.58.35,1.17.58,1.78C75.2,105.85,75.27,105.75,75.69,105.88Z" style="fill:#bbac39"></path><path d="M74.17,100.44a11.72,11.72,0,0,0,4,3.3c-.09-.58-.19-1.16-.25-1.78a10.12,10.12,0,0,1-3.54-3.37,5.45,5.45,0,0,1-1.13.36c.07.52.16,1,.26,1.52A4.36,4.36,0,0,0,74.17,100.44Z" style="fill:#bbac39"></path><path d="M73.9,94.8a10.23,10.23,0,0,0,3.79,4c0-.61,0-1.2,0-1.81a11.44,11.44,0,0,1-3.46-3.79,5.74,5.74,0,0,1-1.4.42c0,.45,0,.87.07,1.33A4.84,4.84,0,0,0,73.9,94.8Z" style="fill:#bbac39"></path><path d="M74.19,89.36c-.25.91,1,2.33,3.57,4.7,0-.62.09-1.27.16-1.88a10.8,10.8,0,0,1-3.4-4.41c-.55.2-.75.65-1.46.55,0,.49-.1,1-.13,1.46A3.89,3.89,0,0,0,74.19,89.36Z" style="fill:#bbac39"></path><path d="M75.07,84.37c-.16.78.84,2.47,3.05,4.34l.38-2c-2-1.26-2.33-2.88-2.85-4a5.56,5.56,0,0,1-1.91.59c-.09.52-.19,1.07-.26,1.59A11.24,11.24,0,0,0,75.07,84.37Z" style="fill:#bbac39"></path><path d="M76.5,79.19c-.17.78.81,2.4,2.91,4.25.16-.62.29-1.27.49-1.88-2-1.27-2.46-3-3-4.08-.58.19-1.32.9-2.1.84-.13.52-.26,1.07-.39,1.58A5.19,5.19,0,0,0,76.5,79.19Z" style="fill:#bbac39"></path><path d="M75.88,74.4a15.36,15.36,0,0,0,2.47-.58c-.33.68.19,1.49,2.65,3.82.16-.55.33-1.1.52-1.62a7.67,7.67,0,0,1-2.88-3.79,8.53,8.53,0,0,1-2.3.71c-.1.26-.16.55-.26.81S76,74.17,75.88,74.4Z" style="fill:#bbac39"></path><path d="M168.74,78.87a13.05,13.05,0,0,0-2.1,1.39c0-.74-.71-1.36-3.82-2.69,0,.59.06,1.14.06,1.72a7.64,7.64,0,0,1,4,2.56,7.77,7.77,0,0,1,1.91-1.46c0-.29,0-.58,0-.84S168.74,79.06,168.74,78.87Z" style="fill:#bbac39"></path><path d="M167,85.93c-.06-.94-1.26-1.69-4-2.92,0,.62,0,1.2-.07,1.82a8.45,8.45,0,0,1,4,2.59,8.82,8.82,0,0,1,2-1.23c0-.55,0-1.1,0-1.69C168.39,84.86,167.32,85.64,167,85.93Z" style="fill:#bbac39"></path><path d="M166.05,91.89c-.06-.94-.42-1.62-3.43-3.11,0,.52-.1,1.07-.16,1.59a8.14,8.14,0,0,1,3.69,3c.65-.35,1.52-1.33,2.4-1.84.06-.52.1-1.07.13-1.59C168,90.47,166.44,91.57,166.05,91.89Z" style="fill:#bbac39"></path><path d="M165.18,97.2c0-.71-.71-1.65-3.24-2.65-.09.58-.19,1.16-.29,1.75,2.2.55,3.31,1.62,3.56,2.62a11.55,11.55,0,0,1,2.63-1.85c.09-.55.16-1.1.26-1.68C167.32,95.84,165.57,96.88,165.18,97.2Z" style="fill:#bbac39"></path><path d="M164,103.26c.1-.36.22-.68.09-.91-.22-.42-.81-1.29-3.2-2.14-.1.49-.2.94-.33,1.43,2.14.75,2.89,1.68,3,2.27.29.29.19.61.29.84a12.34,12.34,0,0,1,2.85-2c.1-.52.23-1,.32-1.52A12.18,12.18,0,0,0,164,103.26Z" style="fill:#bbac39"></path><path d="M165.83,106.69c.06-.19.1-.39.16-.61a22.06,22.06,0,0,0-3.3,1.49c.06-.17.29-.94-3.08-2.08-.16.59-.32,1.14-.49,1.72,2.92.78,3.28,1.26,3.28,1.82a12,12,0,0,1,2.81-1.2Z" style="fill:#bbac39"></path><path d="M122.33,27.53A57.25,57.25,0,1,0,179.56,84.8,57.23,57.23,0,0,0,122.33,27.53Zm0,111.49a54.24,54.24,0,1,1,54.22-54.26A54.28,54.28,0,0,1,122.33,139Z" style="fill:#bbac39"></path><path d="M205.15,84.77A82.91,82.91,0,1,1,122.23,1.88,82.9,82.9,0,0,1,205.15,84.77Zm-3.76,0a79.13,79.13,0,1,0-79.13,79.13A79.22,79.22,0,0,0,201.39,84.77Z" style="fill:#b8a536"></path><path d="M180.79,84.76A58.47,58.47,0,1,1,122.33,26.3,58.46,58.46,0,0,1,180.79,84.76ZM122.33,6.93a77.84,77.84,0,1,0,77.83,77.83A77.84,77.84,0,0,0,122.33,6.93Z" style="fill:#000121"></path><path d="M201.39,84.77a79,79,0,1,1-79-79A79,79,0,0,1,201.39,84.77ZM122.33,1.88a82.89,82.89,0,1,0,82.88,82.89A82.9,82.9,0,0,0,122.33,1.88Z" style="fill:#bbac39"></path><path d="M52.37,158.58s-.07,0-.14,0A.2.2,0,0,0,52.37,158.58Z" style="fill:#b8a536"></path><path d="M192.16,158.58a.86.86,0,0,1,.13,0A.26.26,0,0,1,192.16,158.58Z" style="fill:#b8a536"></path><path d="M39.89,136.3a53.58,53.58,0,0,0-17.13,13.54l3.6.84a43.79,43.79,0,0,1,15-11.56Z" style="fill:#bbac39"></path><path d="M75.07,157.58c-.39,0-5.08.26-5.08.26-12.54,2.85-26.47,11.88-30.42,15.84l-.52,3.82a94,94,0,0,1,36.44-18.27c.84-.23,1.2-.74,1.07-1A1.68,1.68,0,0,0,75.07,157.58Z" style="fill:#bbac39"></path><path d="M204.6,136.3l-1.49,2.85a43.71,43.71,0,0,1,15,11.56l3.6-.84A52.75,52.75,0,0,0,204.6,136.3Z" style="fill:#bbac39"></path><path d="M174.51,157.84s-4.7-.26-5.09-.26a1.75,1.75,0,0,0-1.49.68c-.16.22.19.74,1.07,1a94,94,0,0,1,36.44,18.27l-.52-3.82C201,169.72,187,160.69,174.51,157.84Z" style="fill:#bbac39"></path><path d="M179.46,158.06c5.64.29,11.44.59,11.95.59C191,158.65,185,158.32,179.46,158.06Z" style="fill:#b8a536"></path><path d="M41.38,139.12a43.71,43.71,0,0,0-15,11.56h0l1.07.26a43.83,43.83,0,0,1,14.48-10.85Z" style="fill:#fff;fill-rule:evenodd"></path><path d="M203.11,139.12a43.84,43.84,0,0,1,15,11.56h0l-1.07.26a43.73,43.73,0,0,0-14.48-10.85Z" style="fill:#fff;fill-rule:evenodd"></path><path d="M195,154.24a.64.64,0,0,0-.29-.55c-19.47-12.79-47.94-21.09-72.46-21.09s-53,8.3-72.45,21.09a.7.7,0,0,0-.3.55,1.3,1.3,0,0,0,.07.33l.49.9a.76.76,0,0,1-.07-.32.78.78,0,0,1,.29-.58,133.5,133.5,0,0,1,143.94,0,.64.64,0,0,1,.29.58,1.2,1.2,0,0,1-.06.32l.49-.9A1.66,1.66,0,0,0,195,154.24Z" style="fill:#fff"></path><path d="M206.7,131c-26.85-16.75-53.7-24.52-84.44-24.52S64.67,114.21,37.82,131c-.13.09-.42.32-.45.51l.52,1a1,1,0,0,1,.45-.72c26.69-16.61,53.38-24.35,83.92-24.35s57.2,7.74,83.92,24.35a1,1,0,0,1,.46.72l.52-1C207.12,131.28,206.83,131.05,206.7,131Z" style="fill:#fff;fill-rule:evenodd"></path><path d="M202.33,154.34l14.77-3.44a44.1,44.1,0,0,0-14.48-10.85l4-7.58a1,1,0,0,0-.46-.71c-26.69-16.61-53.38-24.36-83.92-24.36s-57.2,7.75-83.92,24.36a1,1,0,0,0-.46.71l4,7.58A44.42,44.42,0,0,0,27.42,150.9l14.77,3.44-2.33,17,0,.33A73,73,0,0,1,61.69,159.2c1.1-.39,2.2-.78,3.37-1.17-5.64.29-11.43.58-12,.58a5.84,5.84,0,0,1-.75-.06.28.28,0,0,1-.13,0,1.06,1.06,0,0,1-.71-.39l-1.46-2.76-.48-.9a1.07,1.07,0,0,1-.07-.33.65.65,0,0,1,.29-.55c19.47-12.79,47.94-21.08,72.46-21.08s53,8.29,72.46,21.08a.74.74,0,0,1,.29.55,1,1,0,0,1-.07.33l-.48.9L193,158.13a1.3,1.3,0,0,1-.71.39.86.86,0,0,1-.13,0,5.84,5.84,0,0,1-.75.06c-.51,0-6.31-.32-11.95-.58,1.14.36,2.27.74,3.37,1.17a73.44,73.44,0,0,1,21.86,12.47l0-.33Z" style="fill:#000121"></path><path d="M63.77,136.75a4.78,4.78,0,0,1-1.14,1,3.63,3.63,0,0,1-1.45.36,2.46,2.46,0,0,1-2.4-1.56l-.49-1c-.26-.45-.52-.65-.87-.65a.86.86,0,0,0,.13-.71,2,2,0,0,0-.13-.39l-.46-.94a2.49,2.49,0,0,1,.26-2.81,4.64,4.64,0,0,1,1.17-1,4.54,4.54,0,0,1,1.49-.32,2.41,2.41,0,0,1,2.36,1.52l.46.94c.26.45.55.65.87.65a.86.86,0,0,0-.13.71,2,2,0,0,0,.13.39l.49,1A2.56,2.56,0,0,1,63.77,136.75Zm-2-2.95c-.26-.45-.52-.65-.87-.65a.88.88,0,0,0,.13-.71,2,2,0,0,0-.13-.39l-.42-.87a1.14,1.14,0,0,0-.62-.62.87.87,0,0,0-.74,0,.9.9,0,0,0-.49.55,1.06,1.06,0,0,0,.1.87l.42.88c.26.45.52.64.87.64a.88.88,0,0,0-.13.72,3.56,3.56,0,0,0,.13.39l.43.87a1.1,1.1,0,0,0,.61.61.86.86,0,0,0,.75,0,1,1,0,0,0,.48-.55,1,1,0,0,0-.1-.87Z" style="fill:#bbac39"></path><path d="M74.94,132.48a3.13,3.13,0,0,1-2.07,0,1.67,1.67,0,0,0,0-1,2.6,2.6,0,0,0-1-1,.94.94,0,0,0,0-.55.81.81,0,0,0-.51-.48,1,1,0,0,0-.75,0,.69.69,0,0,0-.48.52,1.57,1.57,0,0,0,.13,1.13,3.61,3.61,0,0,0,1.58,2.17,1.13,1.13,0,0,1-.61.55,1.25,1.25,0,0,1-.91,0,1.62,1.62,0,0,1-.68.65,1.34,1.34,0,0,1-.84,0,5.45,5.45,0,0,0-.39-2.4,3.38,3.38,0,0,0-1.17-1.75A3.47,3.47,0,0,0,67,128.1a5.25,5.25,0,0,0-1.29-2,1,1,0,0,1,.61-.56,1.4,1.4,0,0,1,.94,0,3.87,3.87,0,0,1,1.56-1,4.21,4.21,0,0,1,2-.26,1.63,1.63,0,0,1,1.29.88c.2.48.45.71.78.77a.82.82,0,0,0-.2.69.94.94,0,0,0,.1.38,1.32,1.32,0,0,1-.42,1.3,1.35,1.35,0,0,1,.88.32,2.47,2.47,0,0,1,.22.29.71.71,0,0,0,.68.55,2.52,2.52,0,0,1,.26.46,4.64,4.64,0,0,0,.62,1,3.21,3.21,0,0,0,1.07.87A4.2,4.2,0,0,1,74.94,132.48Zm-4.47-6.06a.6.6,0,0,0-.39-.35.69.69,0,0,0-.58,0,.82.82,0,0,0-.52.52,1.7,1.7,0,0,0,.71,1.84.86.86,0,0,0,.75,0,.75.75,0,0,0,.45-.39.59.59,0,0,0,.07-.51.78.78,0,0,0-.49-.46A1.83,1.83,0,0,0,70.47,126.42Z" style="fill:#bbac39"></path><path d="M80.74,130.21a1.07,1.07,0,0,1-.65.55,1,1,0,0,1-.81-.1,5.9,5.9,0,0,0-.23-2.46A3.28,3.28,0,0,0,78,126.36a3.25,3.25,0,0,0-.13-2.14,5.5,5.5,0,0,0-1.16-2.17,1.13,1.13,0,0,1,.65-.52,1.37,1.37,0,0,1,.87.1,1.1,1.1,0,0,1,.68-.55,1,1,0,0,1,.81.09,5.87,5.87,0,0,0,.23,2.46A3.27,3.27,0,0,0,81,125.48a3.3,3.3,0,0,0,.12,2.14,5.59,5.59,0,0,0,1.17,2.17,1.13,1.13,0,0,1-.65.52A1.16,1.16,0,0,1,80.74,130.21Z" style="fill:#bbac39"></path><path d="M88.87,119.65a1.88,1.88,0,0,0-.36-.68.52.52,0,0,1,.45-.46,1.44,1.44,0,0,1,.85.13.79.79,0,0,1,.55-.45,1.14,1.14,0,0,1,.84.16,1.48,1.48,0,0,0-.39.78,2.62,2.62,0,0,0-.07,1.3,3,3,0,0,1,.1.32A4.21,4.21,0,0,0,90,122a3.53,3.53,0,0,0-.19,1.1,3.25,3.25,0,0,0,1.36,1.52,5.86,5.86,0,0,0,.87.42c0,.23.07.42.1.58a1.47,1.47,0,0,0,.39.81,4.09,4.09,0,0,0,.94.72,1.18,1.18,0,0,1-.75.45,1.56,1.56,0,0,1-.94-.1,3,3,0,0,1-.77.49,2.37,2.37,0,0,1-.91-.07,2,2,0,0,0,.1-1,2.55,2.55,0,0,0-.49-.88c-.06-.09-.39-.39-.91-.9-.22.68-.39,1.06-.42,1.2a2.08,2.08,0,0,0-.06,1,2.15,2.15,0,0,0,.48.9.81.81,0,0,1-.61.42,1.39,1.39,0,0,1-.88-.09,1.12,1.12,0,0,1-.64.45,1.35,1.35,0,0,1-.88-.1,2.08,2.08,0,0,0,.55-.94,2.36,2.36,0,0,0,.1-1.13,1,1,0,0,0-.23-.48,4.31,4.31,0,0,0,1.27-2.76,4.11,4.11,0,0,0-1.33-1.26,3,3,0,0,0-.68-.29c0-.16-.07-.33-.1-.46a2.63,2.63,0,0,0-.39-1,2.9,2.9,0,0,0-.74-.55,1.24,1.24,0,0,1,.74-.55,1.12,1.12,0,0,1,.81.16,1.21,1.21,0,0,1,.71-.45,1,1,0,0,1,.78.16,2.37,2.37,0,0,0,0,.78,3.46,3.46,0,0,0,1.2,1.46A4.07,4.07,0,0,0,88.87,119.65Z" style="fill:#bbac39"></path><path d="M110,122.08a.89.89,0,0,0-.35.61,1.89,1.89,0,0,0,0,.43v.16a1.8,1.8,0,0,1-.82,1.39,3.27,3.27,0,0,1-1.81.68,4.35,4.35,0,0,1-1.94-.23,1.31,1.31,0,0,1-.81.42,1.06,1.06,0,0,1-.81-.22,5.49,5.49,0,0,0,.23-2.43,3.72,3.72,0,0,0-.68-2,3.72,3.72,0,0,0,.25-2.1,5.83,5.83,0,0,0-.71-2.34,1.22,1.22,0,0,1,.75-.39,1.34,1.34,0,0,1,.87.26,4.35,4.35,0,0,1,3.82-.29,1.5,1.5,0,0,1,1,1.17,1.05,1.05,0,0,0,.55.94.9.9,0,0,0-.36.61,1.71,1.71,0,0,0,0,.39,1.29,1.29,0,0,1-.78,1.13,1.63,1.63,0,0,1,.81.52,1,1,0,0,1,.13.29C109.47,121.66,109.63,122,110,122.08ZM107,118a.61.61,0,0,0-.29-.45.89.89,0,0,0-.59-.13.87.87,0,0,0-.64.35,1.42,1.42,0,0,0-.23,1,1.34,1.34,0,0,0,.42.94.88.88,0,0,0,.71.22.82.82,0,0,0,.55-.26.47.47,0,0,0,.2-.48,1,1,0,0,0-.36-.59A.77.77,0,0,0,107,118Zm-.91,5.54a.88.88,0,0,0,.71.26.87.87,0,0,0,.55-.29.66.66,0,0,0,.2-.59,1.37,1.37,0,0,0-.36-.68,1.11,1.11,0,0,0,.23-.71.76.76,0,0,0-.29-.52,1,1,0,0,0-.62-.16.82.82,0,0,0-.65.42,1.72,1.72,0,0,0-.19,1.17A1.49,1.49,0,0,0,106.13,123.57Z" style="fill:#bbac39"></path><path d="M118.5,124.25a3.54,3.54,0,0,1-1.46.42,3.6,3.6,0,0,1-1.49-.29A2.53,2.53,0,0,1,114,122l0-1.1a1.05,1.05,0,0,0-.52-1,.94.94,0,0,0,.42-.62,1.84,1.84,0,0,0,0-.42l0-1a4.49,4.49,0,0,0-.71-2.33,1.49,1.49,0,0,1,.9-.36,1.14,1.14,0,0,1,.75.3,1.18,1.18,0,0,1,.81-.33,1.1,1.1,0,0,1,.74.26,5.39,5.39,0,0,0-.45,2.46l0,1c0,.52.2.84.52,1a.82.82,0,0,0-.42.58.83.83,0,0,0,0,.42l0,1a1.21,1.21,0,0,0,.32.84.93.93,0,0,0,.68.26.94.94,0,0,0,.68-.29,1.14,1.14,0,0,0,.26-.88l0-1a1,1,0,0,0-.52-1,.88.88,0,0,0,.42-.62,1.4,1.4,0,0,0,0-.42l0-1a5,5,0,0,0-.61-2.43,1.11,1.11,0,0,1,1.55,0,.74.74,0,0,1,.62-.33,1.3,1.3,0,0,1,.84.33,3.67,3.67,0,0,0-.42,1.55,7.58,7.58,0,0,0,0,.84l0,1a1,1,0,0,0,.55,1,.8.8,0,0,0-.42.58,1.75,1.75,0,0,0-.07.42l0,1.11A2.5,2.5,0,0,1,118.5,124.25Z" style="fill:#bbac39"></path><path d="M125.83,124.25a1.21,1.21,0,0,1-.81.32,1.15,1.15,0,0,1-.75-.32,5.63,5.63,0,0,0,.59-2.4,3.32,3.32,0,0,0-.43-2.07,3.41,3.41,0,0,0,.56-2.08,5.26,5.26,0,0,0-.43-2.42,1.21,1.21,0,0,1,.78-.3,1.19,1.19,0,0,1,.84.39,3,3,0,0,1,1.3-.35,3.37,3.37,0,0,1,.68.12,3.48,3.48,0,0,0,.61.17,4.43,4.43,0,0,0,.65.09,2,2,0,0,0,.81-.12c0,.42,0,.68-.22.74a2.16,2.16,0,0,1,.09.62,1.22,1.22,0,0,1-.52,1A1.34,1.34,0,0,0,129,117a1.78,1.78,0,0,0-.94-.29.85.85,0,0,0-1,.91l0,.71a1,1,0,0,0,.26.78,1,1,0,0,0,.74.29,1.7,1.7,0,0,0,1.33-.55,1.76,1.76,0,0,1,.06.39,1,1,0,0,1-.32.68,1,1,0,0,1,.29.71.63.63,0,0,1-.1.36,1.83,1.83,0,0,0-1.36-.69c-.64,0-1,.33-1,1s0,1.3,0,1.49a2.47,2.47,0,0,0,.43,1.46,1.2,1.2,0,0,1-.78.29A.89.89,0,0,1,125.83,124.25Z" style="fill:#bbac39"></path><path d="M135.05,124.73a1.18,1.18,0,0,1-.81.26,1,1,0,0,1-.71-.39,5.36,5.36,0,0,0,.71-2.36,3.36,3.36,0,0,0-.29-2.11,3.59,3.59,0,0,0,.68-2,5.34,5.34,0,0,0-.26-2.43,1.06,1.06,0,0,1,.81-.22,1.38,1.38,0,0,1,.85.42,2.51,2.51,0,0,1,1.32-.26,3,3,0,0,1,.68.16c.2.06.43.16.62.23s.42.09.61.13a1.75,1.75,0,0,0,.85-.1c0,.42-.1.68-.26.71a1.41,1.41,0,0,1,.06.65,1.19,1.19,0,0,1-.58,1,1.5,1.5,0,0,0-.55-.68,2.12,2.12,0,0,0-.94-.35.85.85,0,0,0-1.07.84l-.06.71a.91.91,0,0,0,.22.78,1.14,1.14,0,0,0,.72.32,1.87,1.87,0,0,0,1.36-.45,1.71,1.71,0,0,1,0,.39,1.14,1.14,0,0,1-.36.68.85.85,0,0,1,.23.71,1.26,1.26,0,0,1-.1.36,2,2,0,0,0-1.29-.78c-.65-.07-1,.26-1.11,1s-.12,1.3-.12,1.49a2.19,2.19,0,0,0,.35,1.49,1.08,1.08,0,0,1-.78.23A.83.83,0,0,1,135.05,124.73Z" style="fill:#bbac39"></path><path d="M147.07,126.62c-.26,0-.42-.13-.45-.33a3,3,0,0,0,.48-1.2,1.83,1.83,0,0,0-.22-1.33,1.39,1.39,0,0,0-1-.67,1.34,1.34,0,0,0-1.16.32,1.87,1.87,0,0,0-.62,1.2,3,3,0,0,0,.1,1.29c-.1.17-.26.2-.55.17a2.68,2.68,0,0,1-.94-.39,1,1,0,0,1-.68.13,2,2,0,0,1-.94-.46,5.39,5.39,0,0,0,2.33-3.53,2.18,2.18,0,0,0,0-.65,5.64,5.64,0,0,0,2-3.27,1.74,1.74,0,0,0-.06-1,1.13,1.13,0,0,1,.77-.19,1,1,0,0,1,.69.45,1,1,0,0,1,.77-.23,1.16,1.16,0,0,1,.68.42,1.84,1.84,0,0,0-.35.91,5.47,5.47,0,0,0,.87,3.73,2.7,2.7,0,0,0-.16.64,5.38,5.38,0,0,0,1.1,4.08,2,2,0,0,1-1,.14,1.07,1.07,0,0,1-.61-.33A4,4,0,0,1,147.07,126.62Zm-.74-6.48a3.53,3.53,0,0,0-.75,1.59,1.37,1.37,0,0,1,.49-.07,1.82,1.82,0,0,1,.45.19A3.19,3.19,0,0,0,146.33,120.14Z" style="fill:#bbac39"></path><path d="M158.54,129a1.1,1.1,0,0,0-.75-.45,2,2,0,0,0-.48-.07,5.08,5.08,0,0,0-.68,0,5,5,0,0,1-.72-.06,2.68,2.68,0,0,1-1.19-.68,1.17,1.17,0,0,1-.85.16,1.28,1.28,0,0,1-.68-.48,5.45,5.45,0,0,0,1-2.24,3.35,3.35,0,0,0,0-2.14,3.43,3.43,0,0,0,1-1.94,5.46,5.46,0,0,0,.12-1.91l-.06-.52a1.07,1.07,0,0,1,.81-.13,1.12,1.12,0,0,1,.68.52,1.14,1.14,0,0,1,.84-.16,1.17,1.17,0,0,1,.68.48,5.65,5.65,0,0,0-1,2.24,3.46,3.46,0,0,0,0,2.13,3.81,3.81,0,0,0-1,2.08c-.13.61.07,1,.58,1.1a1.71,1.71,0,0,0,.88-.07,1.76,1.76,0,0,0,.78-.55,1.3,1.3,0,0,1,.22,1.17,2.12,2.12,0,0,1-.26.58C158.67,128.27,158.67,128.56,158.54,129Z" style="fill:#bbac39"></path><path d="M166.18,130.89a3.88,3.88,0,0,1-1.49-.1,4.09,4.09,0,0,1-1.29-.74,2.51,2.51,0,0,1-.68-2.79l.32-1a1,1,0,0,0-.19-1.07.81.81,0,0,0,.58-.42,1.31,1.31,0,0,0,.16-.36l.33-1a2.44,2.44,0,0,1,2.13-1.85,4.34,4.34,0,0,1,1.53.1,4.79,4.79,0,0,1,1.29.77,2.5,2.5,0,0,1,.68,2.73l-.32,1a1,1,0,0,0,.19,1.07.81.81,0,0,0-.58.42,1.07,1.07,0,0,0-.16.36l-.33,1A2.55,2.55,0,0,1,166.18,130.89Zm.62-3.46a1.06,1.06,0,0,0-.16-1.07.82.82,0,0,0,.58-.43,1.13,1.13,0,0,0,.16-.35l.29-.94a1.16,1.16,0,0,0,0-.88.89.89,0,0,0-.55-.48,1,1,0,0,0-.74.1,1,1,0,0,0-.52.71l-.29.94a1,1,0,0,0,.19,1.07.79.79,0,0,0-.58.42,1,1,0,0,0-.16.36l-.3.93a1.18,1.18,0,0,0,0,.88.84.84,0,0,0,.55.48,1,1,0,0,0,.74-.06,1.14,1.14,0,0,0,.52-.71Z" style="fill:#bbac39"></path><path d="M176.32,130.4a1.11,1.11,0,0,0-.78,0,1,1,0,0,0-.58.62l-.26.64a.85.85,0,0,0,.55,1.24,2.09,2.09,0,0,0,1,.12,1.22,1.22,0,0,0,.77-.32,1.17,1.17,0,0,1,.1,1.13,1.39,1.39,0,0,1-.36.52c.13.13.1.39-.09.75a1.74,1.74,0,0,0-.68-.46,2.36,2.36,0,0,0-.62-.16,4.76,4.76,0,0,0-.65-.06,5.25,5.25,0,0,1-.68-.16,2.54,2.54,0,0,1-1-.85,1.51,1.51,0,0,1-.94,0,1.07,1.07,0,0,1-.62-.58,5.88,5.88,0,0,0,1.36-2,3.55,3.55,0,0,0,.33-2.11,3.55,3.55,0,0,0,1.23-1.71,6,6,0,0,0,.45-2.4,1.21,1.21,0,0,1,.84,0,1.45,1.45,0,0,1,.68.65,2.5,2.5,0,0,1,1.33.13,2.33,2.33,0,0,1,.62.35l.52.39a1.61,1.61,0,0,0,.55.29,2,2,0,0,0,.81.17c-.13.42-.26.61-.46.61a1.38,1.38,0,0,1-.13.62,1.18,1.18,0,0,1-.84.74,1.2,1.2,0,0,0-.32-.78,1.92,1.92,0,0,0-.81-.61.83.83,0,0,0-1.23.52l-.26.65a.87.87,0,0,0,0,.8,1.09,1.09,0,0,0,.58.52,1.65,1.65,0,0,0,1.42-.06,1.76,1.76,0,0,1-.06.39.89.89,0,0,1-.55.52,1,1,0,0,1,0,.74,3.22,3.22,0,0,1-.19.33A1.88,1.88,0,0,0,176.32,130.4Z" style="fill:#bbac39"></path><path d="M187.82,132.9A1.89,1.89,0,0,0,187,131a1.21,1.21,0,0,0-.81-.1,1.07,1.07,0,0,0-.62.49,1,1,0,0,0-.06.81,1.48,1.48,0,0,0,.61.71.9.9,0,0,0,.49.13,1.43,1.43,0,0,0,.19,1,2.26,2.26,0,0,0,.29.52,2.59,2.59,0,0,1-1.39,4,3.37,3.37,0,0,1-2.53-.32,5.63,5.63,0,0,1-1.29-.91,2.59,2.59,0,0,1-.39-.45,1.42,1.42,0,0,0-.39-.36,1.21,1.21,0,0,0-.78-.06,2.77,2.77,0,0,0,.1-.26,1.13,1.13,0,0,1,.91-.68.86.86,0,0,1,.09-.55,2.15,2.15,0,0,1,.65-.71,3.06,3.06,0,0,0,.52,1.62,3.09,3.09,0,0,0,1.07,1,1.65,1.65,0,0,0,1,.22.72.72,0,0,0,.65-.42,1.52,1.52,0,0,0,0-1,1.55,1.55,0,0,0-.74-.78,1.8,1.8,0,0,0-.55-.19,1.16,1.16,0,0,0-.13-1.3,2.35,2.35,0,0,1-.2-2.5,2.81,2.81,0,0,1,4.83-.29c.07.1.13.2.2.29a.78.78,0,0,0,.25.23c.13.07.29.13.52.23,0,.06,0,.13-.06.19a1.32,1.32,0,0,1-.71.59A1.36,1.36,0,0,1,187.82,132.9Z" style="fill:#bbac39"></path><path d="M192,157.22c.1.07.16.1.23.16.32.26.45.59.35.81a.57.57,0,0,1-.35.33,1.06,1.06,0,0,0,.71-.39l1.46-2.75a1.08,1.08,0,0,0,.06-.33.8.8,0,0,0-.29-.58,133.56,133.56,0,0,0-143.94,0,.64.64,0,0,0-.29.58,1.28,1.28,0,0,0,.06.33l1.46,2.75a1.3,1.3,0,0,0,.71.39c-.19-.07-.32-.16-.35-.33s.06-.55.35-.81a1.6,1.6,0,0,1,.23-.16,130.26,130.26,0,0,1,16.68-9,82.71,82.71,0,0,0,106.34,0A140.3,140.3,0,0,1,192,157.22ZM122.26,137c4.25,0,8.46.22,12.6.61a54.69,54.69,0,0,1-12.5,1.46,53.47,53.47,0,0,1-12.54-1.49Q116,136.95,122.26,137Zm.07,26.85a78.65,78.65,0,0,1-49.24-17.23,130.49,130.49,0,0,1,29.32-8.13,57.29,57.29,0,0,0,39.84,0,129.56,129.56,0,0,1,29.31,8.16A79,79,0,0,1,122.33,163.8Z" style="fill:#bbac39"></path><path d="M170.36,110c-2.07-.64-4.21-1.26-6.35-1.84-.42-.1-.77-.23-1.16-.3a159.86,159.86,0,0,0-40.59-5,156.86,156.86,0,0,0-47.94,7.09l-2.91.94a149.5,149.5,0,0,0-20.12,8.52c-3.75,2-10.88,6-14.51,8.29a1.35,1.35,0,0,0-.48,1.88l1,1.91a2.82,2.82,0,0,1,.46-.52c26.85-16.74,53.7-24.52,84.44-24.52s57.59,7.78,84.44,24.52a1.85,1.85,0,0,1,.45.52l1-1.91a1.36,1.36,0,0,0-.49-1.88c-3.59-2.3-7.25-4.44-11-6.45l-3.4-1.81a149.38,149.38,0,0,0-20.08-8.52Z" style="fill:#bbac39"></path><path d="M227,55.71a11.51,11.51,0,0,0-.35-3.08,9.55,9.55,0,0,0-3.76-5.47A7.83,7.83,0,0,0,226,45a8.47,8.47,0,0,0,2-4.76,8,8,0,0,0-.16-2.91,5.28,5.28,0,0,0-1-2,4.59,4.59,0,0,0-2.2-1.43,5,5,0,0,0-2.59,0,6.12,6.12,0,0,0-2,.94l-.55.42a20.31,20.31,0,0,1-3.36-5.5s-2.69,5.76-5.25,7.15a3.8,3.8,0,0,1-1.1.39,23.71,23.71,0,0,1-2.53.46c-.36.06-3.92.29-3.92.29l-.23,1.88-4-8.1-10.59,5.54a13.54,13.54,0,0,0-3.5,2.43,10.53,10.53,0,0,0-2.85,6,30.13,30.13,0,0,0-.39,3.85c0-2.36-.13-5-.26-5.83a14.67,14.67,0,0,0-1.88-5.5,19.51,19.51,0,0,0-4-4.47l-2.53-2.21-2.07,2.63a10.53,10.53,0,0,1-5.77,3.4c-1.91.32-8.55.35-8.55.35l0,10.79a1.59,1.59,0,0,0-.36,0,2.88,2.88,0,0,1-.35,0V34.3c0-.84,3.79-2.27,3.79-2.27a41.62,41.62,0,0,1-6.61-6.57,71.27,71.27,0,0,1-4-7.35s-2,4.95-4.5,7.64a44.52,44.52,0,0,1-5.77,4.89s3.47,1.62,3.47,2.66v6.48a15.25,15.25,0,0,1-5.8-3.57,25.85,25.85,0,0,1-4-5,89.64,89.64,0,0,1-7.26,6.18l-6.64-.35a13.27,13.27,0,0,0,2.17-9.49,27.55,27.55,0,0,0-2.85-8.52l-2.13,5.05a4,4,0,0,0-1.24-.94,7.54,7.54,0,0,0-3.85-1.1,6.07,6.07,0,0,0-4.15,1.68,9,9,0,0,0-2,3.14,17.62,17.62,0,0,0-1.1,6.29,11.59,11.59,0,0,1-.32,3.92,1.29,1.29,0,0,1-.49.16,1.22,1.22,0,0,1-.48-.16,11.59,11.59,0,0,1-.33-3.92,17.62,17.62,0,0,0-1.1-6.29,8.45,8.45,0,0,0-2.07-3.14,6.45,6.45,0,0,0-4.24-1.68,7.1,7.1,0,0,0-3.76,1.1,5.24,5.24,0,0,0-1.33,1l-2-5.12a25.63,25.63,0,0,0-2.92,8.39c-.29,2.49.1,6.86,2.27,9.65l-2.85.16a75.39,75.39,0,0,1-4.24-8.42s-2.85,6.8-5.57,9.56a13.57,13.57,0,0,0-3.86-4.64l-3.37-2.62s-1.49,5-3.11,6.74a31.62,31.62,0,0,1-4.89,3.92s2.82,2.13,2.82,3.3v3.3c0,.72-1.78,2.27-3.17,3a13.33,13.33,0,0,0-3.24-4.41,14.53,14.53,0,0,0,3.14-8c.32-2.17,3.34-3.34,4.31-3.66-2-.45-4.18-2-4.54-3.69-1.29-9.91-8.71-16-19.4-16a18.59,18.59,0,0,0-10,2.62,14.16,14.16,0,0,0-9.36-3.6,13.3,13.3,0,0,0-1.88.13c-5.79.78-9.84,4.93-9.84,10.08a9.34,9.34,0,0,0,5.24,8.42A17.43,17.43,0,0,0,18,34.4c0,.45-.13,2.1-.16,2.53a34.47,34.47,0,0,0,.23,7.25c-1.91,1.88-9,3.79-9.78,3.92,0,0,7.57,1.88,9.87,4.11a32.94,32.94,0,0,0-.61,4.51,2.28,2.28,0,0,0-.52,0h-.49c-6.47,0-14.21,3.11-14.7,11.83-.36,6.8,4.28,11.85,11.56,12.6.72.06,1.43.09,2.14.09a22.66,22.66,0,0,0,7.87-1.42,6.64,6.64,0,0,1,2.33-.42,4.83,4.83,0,0,1,2.92.9c1.13.78,4.08,2.43,7.8,10.6a53.36,53.36,0,0,1,2.89-5.54c.35-.62.71-1.2,1.07-1.72,11.3,5.47,21.34,10.59,27.33,23.68,0,0,20.51-13,63.78-20.73,33.88-6,44.31-8.1,71.26-11.53l3.27-.42a5.59,5.59,0,0,0,2.1.22,8.57,8.57,0,0,0,1.62-.22h0a7.39,7.39,0,0,0,3.75-2.14,57,57,0,0,1,10.72-8.39,5.15,5.15,0,0,0,1.75-2.2,9.47,9.47,0,0,0,.49-1.27c.19-.74,4.28-2.3,4.28-2.3S227,56.59,227,55.71Zm-165.38-1v4.63a4.27,4.27,0,0,1-1.39-1.65A22.54,22.54,0,0,0,59,52.51C60.17,53.15,61.66,54.09,61.66,54.68ZM37.27,27.31a3.21,3.21,0,0,1,2.43.94,7.18,7.18,0,0,1,1.72,4c0,.74-1.1,1.84-3.44,3,.59.36,3.76,1.88,3.76,3.14a4.86,4.86,0,0,1-1,3.69c-.88.88-3.86,1.82-5.77,1.82h-.42v-14C34.49,27.73,36,27.31,37.27,27.31Zm-.19,42.17c-1.85-.13-2.59-.94-2.59-2.85V53.06c0-.78.29-.78.45-.78,2.62,0,4.6.65,5.73,1.84A5.71,5.71,0,0,1,42,58.21c0,1.39-3.37,2.78-3.88,3,1.2.38,3.82,2.13,3.92,3.33a5.67,5.67,0,0,1-1.56,3.69,4.21,4.21,0,0,1-3.08,1.24A1.38,1.38,0,0,1,37.08,69.48Zm4.44,12.69c1.74-2.1,3.82-3.46,7-5,3.89-1.94,15.84-3.17,16.78-3.2-2.56-1.46-5.19-4.28-5.48-5.48A5.45,5.45,0,0,1,60,65.33v0a11.19,11.19,0,0,1,3.4,2.53A36.87,36.87,0,0,1,67,74.53l7.39-6.67a7.4,7.4,0,0,0,.42.61A15.32,15.32,0,0,0,78.67,72L81,73.53l9-10.79,1.72,15.09Z" style="fill:#bbac39"></path><path d="M64,59.53V53.9a1.34,1.34,0,0,0-.45-1,9.08,9.08,0,0,0-3.28-1.19,10.23,10.23,0,0,0,3.28-1.3,1.36,1.36,0,0,0,.48-1v-4.7c0-1.39-2.91-2.95-2.91-2.95A9.84,9.84,0,0,0,65.71,39a15.65,15.65,0,0,0,2.17-4.18,10.88,10.88,0,0,1,4.05,4.34A9.88,9.88,0,0,1,72.87,42a11.22,11.22,0,0,0,3.75-3.17,19,19,0,0,0,1.72-2.37A17,17,0,0,0,79.6,34a14.59,14.59,0,0,0,3.18,5.47,22,22,0,0,0,4.14,3.47,6.31,6.31,0,0,0-2.2.81c-.52.51-.55.74-.55,2.2v3.69c0,1.2,3.24,1.81,4.92,2-1.68.26-4.92.58-4.92,2.27v5.7a2.66,2.66,0,0,0,.36,1.65.53.53,0,0,0,.48.29,32.7,32.7,0,0,0,3.6-.39s-8,9.39-8,9.39L80,70.06a13.41,13.41,0,0,1-3.37-3A8.33,8.33,0,0,1,75.23,64l-7.58,6.84a18.24,18.24,0,0,0-3.08-4.89,17.89,17.89,0,0,0-3.88-2.79S64,61.38,64,59.53Z" style="fill:#fff"></path><path d="M14.53,48.2c.26,0,4.38-1,5.83-3.18V45A35.29,35.29,0,0,1,20,37.05a23.65,23.65,0,0,1,1.26-6.41,3.69,3.69,0,0,1-.87.1,3.58,3.58,0,0,1-1-.13,5.56,5.56,0,0,1-2.49-1.36c-.45-.39-.65-.52-.88-.52a1,1,0,0,0-.42.1c-.64.22-.58,1.39-.58,1.39l.1,1.62-1.46-.71a7,7,0,0,1-3.85-6.25c0-3.92,3.2-7.1,7.77-7.71a12,12,0,0,1,1.55-.1,13,13,0,0,1,9.17,4.15c1.39-1.2,4.63-3.34,10.17-3.34,9.62,0,16,5.31,17.07,14.22.19,1.75,4.31,3.11,4.34,3.11s-4,1.39-4.11,3.2a11.49,11.49,0,0,1-4.6,8.85c3.59,1.68,5.7,5.21,6.48,10.78.29,2.14,4,3.27,4.14,3.27s-4,1.56-4.34,3.5a19.72,19.72,0,0,0-.32,3.79c.09,1.91,3.07,3.6,3.07,3.6-.64,0-8.55.45-13.05,2.75-4.92,2.49-7.22,4.83-9.81,10l-.88,1.85-.87-1.88a19.39,19.39,0,0,0-5.74-6.61,7.15,7.15,0,0,0-4.37-1.39,8.81,8.81,0,0,0-3.14.58,20.17,20.17,0,0,1-7,1.26c-.65,0-1.26,0-1.88-.09-6-.59-9.71-4.54-9.42-10.08C4.53,59.11,15.28,59,16.7,59.05a8.28,8.28,0,0,1,2.37.48s-1.46.52-2.27.88c-2.1.9-3,2-3.43,3.2-.16.55-.1,1,.1,1.14a.92.92,0,0,0,.64.22,4.69,4.69,0,0,0,1.3-.32A23,23,0,0,1,17.77,64a7.59,7.59,0,0,1,1.14-.09,4.83,4.83,0,0,1,.94.09,24.73,24.73,0,0,1-.2-5.37,32.94,32.94,0,0,1,1-7.13C19,49.26,14.66,48.2,14.53,48.2ZM40.9,61.31s3.21-1.23,3.27-2.26a8.61,8.61,0,0,0-2-6.58c-1.59-1.68-4.18-2.59-7.49-2.59a2.87,2.87,0,0,0-2.88,3.17V66.63c0,3.17,1.72,5.05,4.83,5.24.19,0,.35,0,.55,0A6.59,6.59,0,0,0,42,70a8.47,8.47,0,0,0,2.27-6.18C44.27,62.93,41.35,61.41,40.9,61.31Zm-.19-26.1s2.91-1.3,2.91-2.33a10,10,0,0,0-2.46-6.35A5.65,5.65,0,0,0,37,24.88c-3.14,0-5.18,1.94-5.18,4.95V43.76c0,1.55.45,2.46,2.82,2.46s6-1,7.48-2.53a7.23,7.23,0,0,0,1.72-5.86v0C43.78,36.34,40.77,35.21,40.71,35.21Z" style="fill:#fff"></path><path d="M54.56,32.23c-1-8.13-6.54-13.38-16.09-13.38-7.19,0-10.24,3.76-10.24,3.76s-4.05-5.35-10.49-4.47c-3.89.52-7,3.11-7,6.73A6.08,6.08,0,0,0,14,30.25s-.13-1.88,1.23-2.36c1.92-.68,2.05,1.23,4.31,1.78a5.2,5.2,0,0,0,4.05-1.1c-1.16.55-2.52,5.18-2.65,8.55a33.55,33.55,0,0,0,.38,8.16,6.05,6.05,0,0,1-5.08,2.95,6.92,6.92,0,0,1,5.34,3.2,30.59,30.59,0,0,0-1.07,7.36A29.56,29.56,0,0,0,21,66c-.29-.68-1.46-1.2-3.14-.88-2.75.52-3.76,1.56-5.12.49S13.1,60.31,17,60c0,0-11.56-.32-12,8.85-.29,5.11,3.21,8.51,8.56,9.06A19.23,19.23,0,0,0,22,76.73a9,9,0,0,1,8.46.94,20.22,20.22,0,0,1,6,7c2.75-5.53,5.28-7.93,10.24-10.43s11.59-2.52,11.59-2.52a3.89,3.89,0,0,1-2.17-3.05,18.82,18.82,0,0,1,.33-4c.45-2.66,3.78-3.34,3.78-3.34s-3.17-.22-3.56-3.14c-.74-5.54-2.88-9.52-7.84-10.72,0,0,5.44-1.91,6-9.13.2-2.59,3.57-3.11,3.57-3.11S54.89,34.72,54.56,32.23ZM30.89,29.86c0-3.66,2.59-5.92,6.15-5.92,6.09,0,7.58,6.67,7.55,9,0,1.84-2.59,2.3-2.59,2.3s2.69.22,2.85,2.56a8.17,8.17,0,0,1-2,6.67c-1.72,1.72-5.67,2.78-8.16,2.78s-3.79-1-3.79-3.43Zm5.7,43c-3.5-.22-5.74-2.43-5.74-6.22V53a3.79,3.79,0,0,1,3.83-4.11c6.9,0,10.78,3.69,10.43,10.17-.1,1.88-2.69,2.2-2.69,2.2s2.78.68,2.78,2.46C45.24,69.31,41.54,73.17,36.59,72.81Z" style="fill:#000121"></path><path d="M73,60.31a5.87,5.87,0,0,0,.1,1.13,1.05,1.05,0,0,0,.22.56s.13-.07.2-.07a2.51,2.51,0,0,1,.32-.23l1.2-1v-16a2.37,2.37,0,0,0-.42-1.39,2,2,0,0,0-.68-.61L72.83,42a14.5,14.5,0,0,1,.2,2.75Z" style="fill:#b8a536"></path><path d="M201.68,71.23l.88,1.16C175.54,75.83,165,77.9,131.14,84c-46.48,8.26-62.26,19.33-62.26,19.33S63.31,90.53,47,84.22l47.93-4c-1-7.87-4.18-33.23-4.34-35.73-.16-2.75-3-4.34-3-4.34s3.66-.19,5.89-.55c2.72-.39,4.28-2.75,4.31-5.73,0-.78-.39-1.52-.94-1.52-1.85,0-2,3.27-5.47,3.27-2.76,0-4-2.56-4-7,0-1.1,0-2.24.09-3.5,0,0,.52,4,1.52,4s2.3-4,5.64-4c3.18,0,4.15,4.83,4.15,7.9s-.07,6.45,2.78,7.13a5.66,5.66,0,0,0-2.78,4.34c-.2,2.49-2.56,27.79-3.31,35.69L110,78.9c-.84-9-3-32.09-3.17-34.46A5.77,5.77,0,0,0,104,40.1c2.85-.68,2.79-4.18,2.79-7.13s1-7.9,4.18-7.9,4.5,4,5.6,4,1.52-4,1.52-4c0,1.26.1,2.43.1,3.5,0,4.47-1.23,7-4,7-3.4,0-3.63-3.27-5.48-3.27-.54,0-.93.71-.93,1.52,0,3,1.55,5.34,4.3,5.73,2.21.36,5.87.55,5.87.55s-2.85,1.59-3,4.34c-.16,2.37-3,25.36-4.18,34.4ZM199,62c1.62,0,4.73-1.79,4.73-1.79a72.63,72.63,0,0,0-9.49,9c-6-2.82-9.29-6.22-9.26-14.7v-.68a2.36,2.36,0,0,0-2.33-2.24,2.44,2.44,0,0,0,2.46-2.2c.32-5.6,1.39-7.42,5-9.33l7.68-4.05,5.34,10.72-10.85,8.42C193,58.82,195.59,62,199,62Zm-6.8-7.91,4.7-3.72-4.63-10.3c-.07,4-.2,8-.2,11.11A17,17,0,0,0,192.19,54.09Zm31.74,2a7,7,0,0,0-3-6.57c-2.55-1.62-4.66-1.46-6.34-2.24-1.88-.84-2.3-2.2-2.37-5.44a8.52,8.52,0,0,0,6,2.85c4,0,6.74-2.33,6.81-5.24,0-2-.65-2.66-1.53-2.69a1.69,1.69,0,0,0-1.39.55s1.62.06,1.26,1.16c-.26.78-1.65.85-3.23.55a5.26,5.26,0,0,1-3.83-3.33,11,11,0,0,1-3.79,3.85A13.11,13.11,0,0,1,206.41,41s-1,8.35,2,10.72,4.82,2.91,7.19,3a2.62,2.62,0,0,1,2.2,2,4.32,4.32,0,0,1-1.49,1.07A3.22,3.22,0,0,1,218,59.18c.36.74-.06,3.2-.06,3.2a10.33,10.33,0,0,0-7-2.81c-4.31,0-6.77,4-6.77,7,0,2.85,1.2,5.05,3.95,5.05A4,4,0,0,0,211.53,70a5,5,0,0,1-2.69.36,2.09,2.09,0,0,1-1.59-3c.55-1.26,2-1.91,3.86-1.52s3,2.56,3,2.56a30.51,30.51,0,0,1,3.63-3.6,28.77,28.77,0,0,1,4.66-3.21,3.14,3.14,0,0,0,1.33-2.36c.13-.84,1.91-1.36,1.91-1.36S223.87,57.17,223.93,56.13Zm-66.23-4.5a2.36,2.36,0,0,0,2.36-2.1l0-8.26c4.73.19,10.43-1,13.64-5.12,4.31,3.79,5,6.09,5.09,13.31a2.36,2.36,0,0,0,2.36,2.2,2.42,2.42,0,0,0-2.4,2.11c-.19,8-1.16,9.23-4.82,10.33a8.11,8.11,0,0,0-5.9,5.25c-2.78-3.18-9.81-7.87-9.81-7.87A2.29,2.29,0,0,0,160,59V53.8A2.31,2.31,0,0,0,157.7,51.63Zm9.65,7.16a19,19,0,0,1,4.11,3.79l0-15.52c0-2.78-.67-4.72-4.11-5.63Zm-105,4.31a12.5,12.5,0,0,1,5.63,6.22l8-7.26c0,3.92,2.1,5.6,4.5,7.26l6.44-7.26a6.62,6.62,0,0,1-1.91.36c-.94,0-1.71-.81-1.71-2.92V53.77a2.34,2.34,0,0,1,2.33-2.11,2.33,2.33,0,0,1-2.33-2.1V46c0-2.3.39-3,1.71-3.34,0,0-4.05-2.95-5.44-6.58,0,0-2.3,4-5,5.83a3.3,3.3,0,0,1,1.36,2.66V61l-1.42,1.3a1.88,1.88,0,0,1-1.17.55c-.94,0-1.16-1.39-1.16-2.5V44.73a9.77,9.77,0,0,0-4-8.61,15.44,15.44,0,0,1-2.07,3.66A10,10,0,0,1,62.86,42a2.59,2.59,0,0,1,2,2.62v4.86a2.29,2.29,0,0,1-2.33,2.2,2.3,2.3,0,0,1,2.33,2.2v5.64C64.83,61.87,62.31,63.1,62.31,63.1Zm81-11.47a2.34,2.34,0,0,1,2.34,2.11v7.35c0,.65-.59,5.15,4.53,8.16L156.63,62a8.93,8.93,0,0,1-1.91.38c-1.56,0-1.75-1.71-1.75-3.88V53.87a2.27,2.27,0,0,1,2.36-2.17A2.38,2.38,0,0,1,153,49.46V34.69c0-2.3.39-2.95,1.71-3.33,0,0-4-2.92-5.44-6.52,0,0-2.3,4-5,5.8a3.3,3.3,0,0,1,1.36,2.66V49.56A2.36,2.36,0,0,1,143.28,51.63Zm-23.38-2.1V47.45c0-2.91,1-4.18,3.72-5.5a31.44,31.44,0,0,0,8.55-5.9,18,18,0,0,0,9.27,6.71s-2.76,1.55-2.76,3.75v2.92a2.33,2.33,0,0,0,2.37,2.2,2.36,2.36,0,0,0-2.37,2.2v4.89c0,2.05.42,3.66,1.62,3.7a5.23,5.23,0,0,0,2-.39l-6.41,7.25a8.32,8.32,0,0,1-4.41-6.9,72.26,72.26,0,0,0-7,6.9c-4-3-4.53-4.73-4.53-8.35V53.74a2.37,2.37,0,0,0-2.33-2.11A2.33,2.33,0,0,0,119.9,49.53Zm7.32-8.1V60.51c0,1.68.29,2.91,1.23,2.91a1.58,1.58,0,0,0,1-.42l1.84-1.68V45.25A18.91,18.91,0,0,1,127.22,41.43Z" style="fill:#000121"></path><path d="M88,45.18l.48,4.25a6.69,6.69,0,0,1-2-.59V45.57Zm1.55,13.7a29.12,29.12,0,0,1-3,.39V54.54a11.32,11.32,0,0,1,2.46-1ZM202.1,73.36c-27.85,3.53-38.67,5.77-70.86,11.53-19.6,3.53-34.43,7.55-44.61,11.28-12.66,4.59-18.17,8.55-18.17,8.55A37.2,37.2,0,0,0,61,94.22C55.83,89.1,49.29,86.29,43.85,83.6l50-4.15C93.08,73,91.17,58.27,90.2,50.17c-.33-2.85-.59-4.89-.62-5.6a3.9,3.9,0,0,0-1.2-2.46c-.61-.65-3-2.47-3-2.47s6.8-.71,7.87-.87a3.74,3.74,0,0,0,2.62-1.59,5.6,5.6,0,0,0,.94-3.27,1.31,1.31,0,0,0-.16-.61c-.13,0-.48.19-.87.71a8.8,8.8,0,0,1-2,1.88,5,5,0,0,1-4.63.13,4.74,4.74,0,0,1-1.69-1.78,11.66,11.66,0,0,1-1.06-5.58,16,16,0,0,1,.94-5.4A35.62,35.62,0,0,0,89,28.08,16.61,16.61,0,0,1,92,25a4.21,4.21,0,0,1,2.49-.74,3.74,3.74,0,0,1,2.72,1.1,6.38,6.38,0,0,1,1.43,2.3,15,15,0,0,1,.94,5.41v.62a16.51,16.51,0,0,0,.16,2.88,4.41,4.41,0,0,0,.87,2.14,2.05,2.05,0,0,0,1.1.61l1,.13,1.07-.16a2.3,2.3,0,0,0,1.1-.65,3.29,3.29,0,0,0,.61-1.23,14.18,14.18,0,0,0,.36-3.92v-.65a15.78,15.78,0,0,1,.52-4,7.51,7.51,0,0,1,1.94-3.63,3.65,3.65,0,0,1,2.59-1,5.09,5.09,0,0,1,3.27,1.26,30.23,30.23,0,0,1,2.24,2.53c.16-.26,1.62-4.89,1.62-4.89a20.12,20.12,0,0,1,.94,5.44,15,15,0,0,1-.55,4.47,5,5,0,0,1-2,2.85,4.11,4.11,0,0,1-2.27.62,4.47,4.47,0,0,1-3.27-1.24c-.74-.68-1.2-1.39-1.55-1.68a1.38,1.38,0,0,0-.52-.32,1.62,1.62,0,0,0-.16.68,5.67,5.67,0,0,0,1,3.3,3.6,3.6,0,0,0,2.59,1.49c1.07.13,2.63.32,3.79.39s2.24.16,2.56.16l2.66,0s-2.88,1.56-3.11,1.72a6,6,0,0,0-1.07.91,4,4,0,0,0-1.26,2.59c0,.65-.26,2.56-.59,5.18-.06.62-.16,1.26-.22,1.94,2.07-.35,4-1.16,4-2.07v-2.1a6.29,6.29,0,0,1,1-3.83,8.17,8.17,0,0,1,3.24-2.46,32.62,32.62,0,0,0,8.36-5.76l.71-.78.55.87A16.91,16.91,0,0,0,141.57,42l2.23.52a30.45,30.45,0,0,0-2.72,1.58,5.59,5.59,0,0,0-1.23,1.36,2.54,2.54,0,0,0-.36,1.1v2.89a1.31,1.31,0,0,0,.39.94A3,3,0,0,0,142,51s2.59,0,2.66-1.49v-16a2.76,2.76,0,0,0-.72-2,5.62,5.62,0,0,0-1.45-.91,13.24,13.24,0,0,0,3.69-3.07,47.86,47.86,0,0,0,3-4.47,21,21,0,0,0,3.4,5.28c1.49,1.42,3.6,3.17,3.6,3.17a6.28,6.28,0,0,0-2,.94c-.55.61-.45,2.33-.45,2.33v14.8c0,.52.74,1.33,2.65,1.33,2.24,0,2.66-1,2.66-1.33V40.36l.84.06c.36,0,.72,0,1,0,4.34,0,9.07-1.23,12-4.82l.56-.81.71.71c2.27,2.07,3.59,3.56,4.37,5.73s1,4.64,1,8.26a1.18,1.18,0,0,0,.46.85,4.64,4.64,0,0,0,1.84.68,3.77,3.77,0,0,0,1.91-.81,1.67,1.67,0,0,0,.33-.81s.23-4.6,1.39-6.45a8.85,8.85,0,0,1,3.79-3.4L198.06,35l6.05,12.14-10.94,8.52a8.53,8.53,0,0,0,1.91,3.76A5.17,5.17,0,0,0,199,61.22a11.5,11.5,0,0,0,2.23-.65c1.11-.36,2.43-.94,4-1.52a6.67,6.67,0,0,1-2.17,2.81c-3.57,2.6-8.68,8.62-8.68,8.62l-1.88-1a15.83,15.83,0,0,1-6-4.86C184.78,62.25,184,59,184,54.74v-.88a1.16,1.16,0,0,0-.42-.84,4.84,4.84,0,0,0-1.66-.71A5.31,5.31,0,0,0,180,53a1.32,1.32,0,0,0-.48,1,32,32,0,0,1-.71,6.71,5.34,5.34,0,0,1-2.27,3.3,9.59,9.59,0,0,1-2.46,1A8.59,8.59,0,0,0,171,66.5a8.34,8.34,0,0,0-2.2,3.11l-.58,1.52-1-1.2a35.18,35.18,0,0,0-4.3-3.82c-1.62-1.27-5.38-3.89-5.38-3.89l-7.29,8.29-.65-.39a10.2,10.2,0,0,1-4.27-4.66,9.54,9.54,0,0,1-.68-3.82V53.93c0-.71-.65-1.52-2.63-1.56,0,0-2.56.07-2.56,1.56v4.89a7.79,7.79,0,0,0,.2,1.88,1.55,1.55,0,0,0,.36.84h.29A12.45,12.45,0,0,0,144,60.8L136,70.48l-.64-.39a9.48,9.48,0,0,1-4.6-5.83,65.63,65.63,0,0,0-5.64,5.67l-.58.65-.68-.52a12.67,12.67,0,0,1-4.08-4.24,10.08,10.08,0,0,1-.88-4.83V53.83c0-.58-.65-1.26-1.75-1.52-.71-.16-1.71-.45-2.23-.58-.26,2.23-.55,4.92-.88,7.58-.81,6.6-1.78,14-2.39,18.62l90.2-7.61,2.24,2.85Zm4.09-19.17a15.69,15.69,0,0,0,3.53,2.33c-.46.06-.91.13-1.36.23a9.06,9.06,0,0,0-2.4,1c-3.89,1-7.48,1.81-8.78.39a10,10,0,0,1-1.26-1.78l7.81-6.06A8.91,8.91,0,0,0,206.19,54.19ZM188.5,69.7l-17.81,1.49.26-.61c.94-1.69,5.05-3.76,6.9-4.73a7.1,7.1,0,0,0,3.3-4.67,22.22,22.22,0,0,0,.65-4.63,24.58,24.58,0,0,0,.39,3.31A15,15,0,0,0,186,67.53,19.45,19.45,0,0,0,188.5,69.7Zm-22.74,1.91-14.64,1.23,6.19-8.09a.53.53,0,0,1,.16.13c2,1.39,6.54,4.73,8.13,6.57Zm-15.64,1.33-36.34,3,2.91-22.77s0,8.58,0,9a10.73,10.73,0,0,0,1.4,5.18,15.06,15.06,0,0,0,4.44,4.47l2.33,1.72s4-4.44,5.08-5.51a12.5,12.5,0,0,0,4.21,4l2.27,1.33,6.64-7.52A12.05,12.05,0,0,0,148.47,72Zm74.34-13.47a7.5,7.5,0,0,1-.46,1.46,3.52,3.52,0,0,1-.78,1.1,8.54,8.54,0,0,1-1.13.74c-.36.23-.78.45-1.2.75a28.34,28.34,0,0,0-2.72,2A32.84,32.84,0,0,0,213.83,70s-.62-1.1-.68-1.16L212,70.64a3.33,3.33,0,0,1-.94,1,5.61,5.61,0,0,1-3.27,1,4.4,4.4,0,0,1-3.5-1.91,7.1,7.1,0,0,1-1.07-4,8.46,8.46,0,0,1,2-5.25,7.18,7.18,0,0,1,5.61-2.62,11,11,0,0,1,5.6,1.55,4.05,4.05,0,0,1,.68.46c.07-.72,0-1.14-.26-1.43-.64-.68-3.46-1.3-3.46-1.3a9,9,0,0,0,3.24-1.42,1.44,1.44,0,0,0-1.2-.91,11.42,11.42,0,0,1-7.71-3.24c-2.2-1.91-2.5-5.6-2.5-8.42a37.41,37.41,0,0,1,.26-3.88s4,.22,6.81-1.46c2.52-1.52,3.95-5,3.95-5s1,3.11,3.27,4.31a16.74,16.74,0,0,1,1.94-1.39,3.18,3.18,0,0,1,2.66-.52c1,.26,1.75,1.52,1.68,3.2a5.78,5.78,0,0,1-2.43,4.8A8.32,8.32,0,0,1,218,45.7a8.86,8.86,0,0,1-4.83-1.65,3.11,3.11,0,0,0,1.36,2.4,10.72,10.72,0,0,0,2.59.81A15.15,15.15,0,0,1,221.41,49,7.31,7.31,0,0,1,224,52.08a9.15,9.15,0,0,1,.68,4.18c0,.58,3.18,1.85,3.18,1.85S224.62,59,224.46,59.47Z" style="fill:#fff"></path><path d="M100.82,41.85a4.89,4.89,0,0,0-1.23,2.72c-.2,2.4-2.37,25.75-3.18,34.66L109,78.16c-.91-9.56-2.91-31.26-3.11-33.56a4.41,4.41,0,0,0-1.23-2.69,6.2,6.2,0,0,0-1.91-1.32A6.41,6.41,0,0,0,100.82,41.85Zm1.72,1.55.19-.19a1.13,1.13,0,0,1,.19.19,2.48,2.48,0,0,1,.65,1.36c.13,1.92,3.27,31.84,3.27,31.84l-8.38.72,3.46-32.52A1.88,1.88,0,0,1,102.54,43.4Z" style="fill:#b8a536"></path><path d="M170.52,47.06a5.88,5.88,0,0,0-.64-3,4.29,4.29,0,0,0-1.69-1.39V58.33a18.36,18.36,0,0,1,2.37,2S170.52,47.06,170.52,47.06Z" style="fill:#b8a536"></path><path d="M195.72,50.14,193,44c-.13,2.75-.13,8.16-.13,8.39Z" style="fill:#b8a536"></path><path d="M211.37,67a2.75,2.75,0,0,0-3.27.42,1.33,1.33,0,0,0,1.23,2.21,9.29,9.29,0,0,0,3.72-1A6,6,0,0,0,211.37,67Z" style="fill:#b8a536"></path><path d="M128.39,62.42s0,.06.06.06a.47.47,0,0,0,.36-.16l1.58-1.42V45.8a12.78,12.78,0,0,1-2.23-1.94V60.51A4.85,4.85,0,0,0,128.39,62.42Z" style="fill:#b8a536"></path><path d="M153.78,53.87v4.69a11.45,11.45,0,0,0,.13,2,1.28,1.28,0,0,0,.35.81.65.65,0,0,0,.42.1,14.81,14.81,0,0,0,1.85-.39c.49-.16,1.39-.45,1.78-.62a.46.46,0,0,0,.29-.19,1.24,1.24,0,0,0,.3-.39,3,3,0,0,0,.16-1v-5a1.19,1.19,0,0,0-.36-.84,4.29,4.29,0,0,0-2.33-.71,3.12,3.12,0,0,0-2.24.71A1.34,1.34,0,0,0,153.78,53.87Zm2.33.71a3.1,3.1,0,0,1,.36,0h.35v4l-.68.1V54.58Z" style="fill:#b8a536"></path><path d="M201.68,71.23l.88,1.16C175.54,75.83,165,77.9,131.14,84c-46.48,8.26-62.26,19.33-62.26,19.33S63.31,90.53,47,84.22l47.93-4c-1-7.87-4.18-33.23-4.34-35.73-.16-2.75-3-4.34-3-4.34s3.66-.19,5.89-.55c2.72-.39,4.28-2.75,4.31-5.73,0-.78-.39-1.52-.94-1.52-1.85,0-2,3.27-5.47,3.27-2.76,0-4-2.56-4-7,0-1.1,0-2.24.09-3.5,0,0,.52,4,1.52,4s2.3-4,5.64-4c3.18,0,4.15,4.83,4.15,7.9s-.07,6.45,2.78,7.13a5.66,5.66,0,0,0-2.78,4.34c-.2,2.49-2.56,27.79-3.31,35.69L110,78.9c-.84-9-3-32.09-3.17-34.46A5.77,5.77,0,0,0,104,40.1c2.85-.68,2.79-4.18,2.79-7.13s1-7.9,4.18-7.9,4.5,4,5.6,4,1.52-4,1.52-4c0,1.26.1,2.43.1,3.5,0,4.47-1.23,7-4,7-3.4,0-3.63-3.27-5.48-3.27-.54,0-.93.71-.93,1.52,0,3,1.55,5.34,4.3,5.73,2.21.36,5.87.55,5.87.55s-2.85,1.59-3,4.34c-.16,2.37-3,25.36-4.18,34.4ZM199,62c1.62,0,4.73-1.79,4.73-1.79a72.63,72.63,0,0,0-9.49,9c-6-2.82-9.29-6.22-9.26-14.7v-.68a2.36,2.36,0,0,0-2.33-2.24,2.44,2.44,0,0,0,2.46-2.2c.32-5.6,1.39-7.42,5-9.33l7.68-4.05,5.34,10.72-10.85,8.42C193,58.82,195.59,62,199,62Zm-6.8-7.91,4.7-3.72-4.63-10.3c-.07,4-.2,8-.2,11.11A17,17,0,0,0,192.19,54.09Zm31.74,2a7,7,0,0,0-3-6.57c-2.55-1.62-4.66-1.46-6.34-2.24-1.88-.84-2.3-2.2-2.37-5.44a8.52,8.52,0,0,0,6,2.85c4,0,6.74-2.33,6.81-5.24,0-2-.65-2.66-1.53-2.69a1.69,1.69,0,0,0-1.39.55s1.62.06,1.26,1.16c-.26.78-1.65.85-3.23.55a5.26,5.26,0,0,1-3.83-3.33,11,11,0,0,1-3.79,3.85A13.11,13.11,0,0,1,206.41,41s-1,8.35,2,10.72,4.82,2.91,7.19,3a2.62,2.62,0,0,1,2.2,2,4.32,4.32,0,0,1-1.49,1.07A3.22,3.22,0,0,1,218,59.18c.36.74-.06,3.2-.06,3.2a10.33,10.33,0,0,0-7-2.81c-4.31,0-6.77,4-6.77,7,0,2.85,1.2,5.05,3.95,5.05A4,4,0,0,0,211.53,70a5,5,0,0,1-2.69.36,2.09,2.09,0,0,1-1.59-3c.55-1.26,2-1.91,3.86-1.52s3,2.56,3,2.56a30.51,30.51,0,0,1,3.63-3.6,28.77,28.77,0,0,1,4.66-3.21,3.14,3.14,0,0,0,1.33-2.36c.13-.84,1.91-1.36,1.91-1.36S223.87,57.17,223.93,56.13Zm-66.23-4.5a2.36,2.36,0,0,0,2.36-2.1l0-8.26c4.73.19,10.43-1,13.64-5.12,4.31,3.79,5,6.09,5.09,13.31a2.36,2.36,0,0,0,2.36,2.2,2.42,2.42,0,0,0-2.4,2.11c-.19,8-1.16,9.23-4.82,10.33a8.11,8.11,0,0,0-5.9,5.25c-2.78-3.18-9.81-7.87-9.81-7.87A2.29,2.29,0,0,0,160,59V53.8A2.31,2.31,0,0,0,157.7,51.63Zm9.65,7.16a19,19,0,0,1,4.11,3.79l0-15.52c0-2.78-.67-4.72-4.11-5.63Zm-105,4.31a12.5,12.5,0,0,1,5.63,6.22l8-7.26c0,3.92,2.1,5.6,4.5,7.26l6.44-7.26a6.62,6.62,0,0,1-1.91.36c-.94,0-1.71-.81-1.71-2.92V53.77a2.34,2.34,0,0,1,2.33-2.11,2.33,2.33,0,0,1-2.33-2.1V46c0-2.3.39-3,1.71-3.34,0,0-4.05-2.95-5.44-6.58,0,0-2.3,4-5,5.83a3.3,3.3,0,0,1,1.36,2.66V61l-1.42,1.3a1.88,1.88,0,0,1-1.17.55c-.94,0-1.16-1.39-1.16-2.5V44.73a9.77,9.77,0,0,0-4-8.61,15.44,15.44,0,0,1-2.07,3.66A10,10,0,0,1,62.86,42a2.59,2.59,0,0,1,2,2.62v4.86a2.29,2.29,0,0,1-2.33,2.2,2.3,2.3,0,0,1,2.33,2.2v5.64C64.83,61.87,62.31,63.1,62.31,63.1Zm81-11.47a2.34,2.34,0,0,1,2.34,2.11v7.35c0,.65-.59,5.15,4.53,8.16L156.63,62a8.93,8.93,0,0,1-1.91.38c-1.56,0-1.75-1.71-1.75-3.88V53.87a2.27,2.27,0,0,1,2.36-2.17A2.38,2.38,0,0,1,153,49.46V34.69c0-2.3.39-2.95,1.71-3.33,0,0-4-2.92-5.44-6.52,0,0-2.3,4-5,5.8a3.3,3.3,0,0,1,1.36,2.66V49.56A2.36,2.36,0,0,1,143.28,51.63Zm-23.38-2.1V47.45c0-2.91,1-4.18,3.72-5.5a31.44,31.44,0,0,0,8.55-5.9,18,18,0,0,0,9.27,6.71s-2.76,1.55-2.76,3.75v2.92a2.33,2.33,0,0,0,2.37,2.2,2.36,2.36,0,0,0-2.37,2.2v4.89c0,2.05.42,3.66,1.62,3.7a5.23,5.23,0,0,0,2-.39l-6.41,7.25a8.32,8.32,0,0,1-4.41-6.9,72.26,72.26,0,0,0-7,6.9c-4-3-4.53-4.73-4.53-8.35V53.74a2.37,2.37,0,0,0-2.33-2.11A2.33,2.33,0,0,0,119.9,49.53Zm7.32-8.1V60.51c0,1.68.29,2.91,1.23,2.91a1.58,1.58,0,0,0,1-.42l1.84-1.68V45.25A18.91,18.91,0,0,1,127.22,41.43Z" style="fill:#000121"></path></g></g></svg>