
<svg xmlns="http://www.w3.org/2000/svg" id="Layer_1" viewBox="0 0 453.47427 407.85452" version="1.1" width="453.47424" height="407.85449">
  <defs id="defs7702">
</defs>
  <title id="title7704">philadelphia_phillies_shop_logo</title>
  <g id="layer8" transform="translate(47.151988,167.32248)">
    <g id="g8144" transform="matrix(1.0289663,0,0,1.0289663,-5.2019097,-6.9673129)">
      <path id="path8079" style="fill:#ffffff;stroke:none;stroke-width:1.90564" d="m 220.37695,402.92773 h 28.20313 v -14.48242 c 6.8603,-6.66973 11.13598,-13.91672 10.86133,-21.05761 -0.29743,-7.73329 -4.95404,-13.24325 -7.8125,-15.91114 h 119.48437 l 0.95313,-3.43164 c 0.26004,-0.93625 6.28848,-25.53462 -24.77344,-56.78711 -8.00369,-8.19425 -13.53052,-16.77063 -17.3418,-26.29883 6.47917,5.90748 14.67378,9.14844 23.62988,9.14844 2.66749,0 8.38169,-0.38927 15.24512,-3.24023 5.52324,-2.29426 10.29086,-5.52635 14.67383,-9.71875 0,0 1.72818,1.63071 3.81055,3.75781 5.94759,6.07534 11.24391,9.1769 20.77148,8.95703 15.24582,-0.35183 26.98334,-12.21878 26.98334,-26.70072 0,-3.66556 -0.20159,-6.60824 -2.90131,-12.88326 -4.35121,-10.11361 -13.09629,-19.90322 -26.17773,-28.76953 -4.07093,-2.75919 -5.25962,-5.20527 -5.81251,-6.09766 -0.83567,-1.34884 -2.19143,-1.90625 -3.52538,-1.90625 -0.76225,0 -1.63098,0.29128 -2.28711,0.76367 l -9.52735,6.85938 c -1.67281,1.20437 -2.66002,3.23825 -2.2871,5.33593 1.15159,6.47772 0.54262,13.4012 -2.28711,20.00391 -5.7469,13.40944 -15.81617,20.96094 -27.25,20.96094 h -1.33399 c 11.05271,-5.52636 16.60443,-12.94542 19.2461,-18.48438 3.2659,-6.84781 3.24023,-12.38729 3.24023,-12.95898 0,-21.53373 -20.58149,-21.72461 -21.43847,-21.72461 -13.62477,0 -25.25059,8.00535 -31.34864,19.82031 -0.19056,-7.81312 -0.18945,-15.81831 -0.18945,-24.20312 v -9.52735 c 0.38112,-45.35422 -33.92056,-65.55471 -46.87891,-65.55468 h -5.9082 v -6.66993 c 5.90748,-1.33394 9.14736,-4.9535 10.67187,-8.57422 l 37.54102,0.38086 11.05273,33.53907 h 58.3125 V 86.019531 h -7.43164 V 32.089844 L 361.77539,16.083984 H 277.35547 L 260.9668,6.5546875 h -53.16797 l -16.38867,9.5292965 h -84.41993 l -16.769527,16.00586 v 54.3125 h -7.431641 v 44.726006 c 0,0 -0.947619,-0.52677 -1.333984,-0.70647 -7.808048,-3.63165 -17.340674,-5.52735 -27.25,-5.52735 -18.103576,0 -35.019202,6.14421 -45.3535155,16.19922 -10.8184783,10.52609 -16.0216017,23.25057 -14.1035156,33.91992 1.1309414,6.29086 4.55081562,11.10487 9.71875,13.33985 5.1196394,2.21409 11.0366601,2.82475 15.6269531,0.18945 7.679048,-4.40856 10.457255,-13.04043 11.433594,-21.3418 0,0 -2.09574,0.18945 -3.429688,0.18945 -0.95282,0 -2.422665,-0.17348 -2.476562,-1.14355 -0.137421,-2.47339 2.66781,-6.66875 7.050781,-9.71777 v 81.9414 c -7.050867,7.62256 -11.888466,17.01884 -10.481445,24.48829 1.335199,7.08817 5.464522,10.303 12.577148,10.958 7.402879,0.68173 13.367358,-2.06166 17.91211,-5.90722 5.364812,-4.53945 8.384765,-10.67206 8.384765,-17.3418 v -42.6875 c 13.530041,-4.95466 26.679065,-10.86162 34.492188,-21.5332 v 75.46289 c 0,6.66973 5.527529,12.19726 12.197269,12.19726 6.66974,0 12.19531,-5.52753 12.19531,-12.19726 v -37.73047 c 0,-2.28677 1.90548,-4.38281 4.38281,-4.38281 2.47733,0 4.38281,1.90548 4.38281,4.38281 v 27.06054 c 0,7.24143 3.43095,13.52831 8.57618,17.72071 -3.62072,7.81313 -8.70559,15.11454 -15.62696,22.10547 -31.001177,31.31274 -25.08022,55.62353 -24.773435,56.78906 l 0.953125,3.62109 h 119.48437 c -2.85846,2.6679 -7.52077,7.98825 -7.81445,15.72168 -0.27841,7.33145 4.00298,14.5765 10.86328,21.05567 z M 189.69531,103.74219 c 1.52451,3.43015 4.7644,7.24222 10.67188,8.57617 v 6.66992 h -5.90625 c -12.95835,0 -46.87891,20.19851 -46.87891,65.55274 v 21.34375 c -4.19241,-5.71692 -10.86377,-9.52735 -18.48633,-9.52735 -3.23958,0 -6.28802,0.57035 -9.14648,1.9043 v -39.25586 c 0,-6.66974 -5.52557,-12.19531 -12.19531,-12.19531 -2.6679,0 -5.14599,0.95316 -7.24219,2.28711 -1.905644,-4.38297 -4.764051,-8.19485 -8.384767,-11.625 h 48.974607 l 11.05274,-33.34961 z m -127.867185,46.87893 2.476563,-0.18945 c 8.930414,-0.68315 14.372127,4.32148 14.958984,14.29101 0.559954,9.51252 -6.315915,16.4325 -16.865234,17.91405 l -0.570313,0.0801 z m 289.847655,69.55661 c 3.56959,-0.23954 0.89621,5.30204 0.38086,6.28907 -2.68246,5.13764 -8.95741,7.81169 -12.57812,8.95508 0,-8.00369 5.13913,-14.7705 12.19726,-15.24415 z m 49.35547,7.43165 c 12.38666,7.05086 12.20075,17.91303 12.19531,18.10351 -0.18513,6.47933 -6.04444,7.70984 -10.09961,5.52734 -3.66315,-1.97152 -5.43116,-4.62886 -8.0039,-7.81445 2.28677,-4.7641 4.38369,-10.09949 5.9082,-15.8164 z" transform="translate(-35.12596,-162.39572)"></path>
      <path id="path7993" style="fill:#002d72;fill-opacity:1;stroke:none;stroke-width:1.90564" d="m 208.30901,188.69909 v -4.57353 h 123.48544 c 0,0 5.85438,-22.43389 -23.62993,-52.21453 -8.43812,-8.52292 -14.2923,-17.53188 -18.29414,-27.25064 -3.81128,4.38297 -9.90933,7.05086 -16.3885,7.05086 -7.05087,0 -13.53004,-3.23958 -17.91301,-8.57537 -5.33579,5.52635 -12.95835,8.57537 -21.34317,8.57537 -8.9565,0 -16.76962,-3.62071 -22.10542,-10.09989 -5.33579,6.66974 -12.95834,10.09989 -22.10541,10.09989 -8.76595,0 -16.3885,-3.43015 -21.7243,-9.52819 -4.1924,5.90748 -11.05271,9.52819 -18.4847,9.52819 -6.28861,0 -12.19609,-2.66789 -16.57906,-7.05086 -4.19241,4.57353 -10.09989,7.05086 -16.57907,7.05086 -3.62071,0 -7.05087,-0.95282 -10.09989,-2.47733 -3.81128,8.00369 -9.147069,15.62625 -16.197935,22.67711 -29.727978,29.72798 -23.820495,52.21453 -23.820495,52.21453 h 118.5124 l -1.32782,-4.00184 -6.46692,-8.38482 -5.90748,-24.39219 -7.24143,-10.67158 v -24.01106 h 4.57353 v 22.28802 l 7.24143,10.67158 5.90749,23.51718 5.71691,8.38482 2.47734,6.79045 v 0 0 4.57354 c -5.95778,4.61089 -10.86215,9.88543 -10.86215,16.29322 0,5.8122 3.04902,11.33855 8.76594,17.05547 l 1.90564,1.90564 v 12.00553 h 18.67527 v -12.19609 l 1.90564,-1.90564 c 5.90748,-5.71692 8.76594,-11.24328 8.76594,-17.05548 0,-7.02096 -5.30733,-12.32549 -10.86214,-16.29322 z M 182.964,77.600305 c 0,5.716919 4.57353,10.290454 10.29045,10.290454 5.52636,0 9.71876,-4.382971 9.71876,-10.290454 V 28.053675 22.908448 C 201.4487,48.444019 189.44317,64.83252 182.964,71.883386 Z M 228.12766,7.4727677 c -0.19057,-1.1433838 -0.57169,-1.7150757 -1.14339,-1.7150757 -0.38112,0 -0.76225,0.5716919 -0.76225,1.5245117 V 35.676234 c 3.04902,-12.767786 1.90564,-27.0600826 1.90564,-28.2034663 z m -43.25802,0 c -0.10218,-1.0108013 -0.4833,-1.7150757 -1.055,-1.7150757 -0.38112,0 -0.85064,0.5716919 -0.85064,1.5245117 V 35.676234 c 3.04902,-12.767786 2.02222,-27.0501895 1.90564,-28.2034663 z M 154.9511,88.462451 c 2.66789,0 4.95466,-2.286768 4.95466,-4.954663 V 22.717884 l -11.43384,8.384815 6.09805,19.056396 -16.19794,-11.814966 -16.19793,11.814966 6.09804,-19.056396 -11.24327,-8.003687 -0.38113,60.59934 c -0.0168,2.667842 2.28677,4.954663 4.95466,4.954663 2.6679,0 4.95467,-2.286768 4.95467,-4.954663 V 55.494886 c 0,-6.288611 5.14522,-11.433838 11.6244,-11.433838 6.28861,0 11.43384,5.145227 11.43384,11.433838 v 28.203466 c 0,2.506476 2.47733,4.764099 5.33579,4.764099 z m 126.72503,-64.410619 -9.33763,6.860303 6.09804,19.056396 -16.19793,-11.814966 -16.19794,11.814966 6.09805,-19.056396 -6.10418,-4.573535 c -2.28677,23.629931 -13.90504,38.875048 -20.19365,45.73535 v 3.430151 c 0,6.860303 5.52635,12.386658 12.38666,12.386658 6.8603,0 12.38665,-5.526355 12.38665,-12.386658 V 55.304322 c 0,-6.288611 5.14523,-11.433838 11.43384,-11.433838 6.28861,0 11.6244,5.145227 11.6244,11.433838 v 28.203466 c 0,2.667895 2.28677,4.954663 4.95467,4.954663 2.28676,0 4.38297,-1.524512 4.7641,-3.81128 -0.95282,-3.620715 -1.52452,-7.24143 -1.52452,-10.862145 0,-1.715076 0.19057,-3.430152 0.38113,-5.145227 -0.95282,-14.101733 -0.57169,-44.591967 -0.57169,-44.591967 z m -167.88685,-87.278293 44.59197,-0.381128 c 0,0 0.57169,8.956506 11.81496,8.956506 v 15.626244 h -10.67158 c -9.90932,0 -40.78069,17.341321 -42.11463,58.122008 h 14.86399 l 6.09804,-19.05639576 6.09805,19.05639576 h 15.51029 V 5.3765641 c 0,-11.6244015 9.52819,-21.1525991 21.1526,-21.1525991 10.86214,0 19.76445,8.5832312 21.35147,20.9620352 0.31874,2.4861279 0.56338,7.4319948 0.56338,7.4319948 V 5.5671281 c 0,-11.6244016 9.26303,-21.1525991 20.88743,-21.1525991 10.86215,0 20.40492,8.5721052 21.9026,20.9620351 0.59853,4.9514919 0.95282,9.5281979 0.76226,14.1017329 h 9.53432 l 6.09805,-19.05639584 6.09805,19.05639584 h 13.14891 c -1.33395,-40.971251 -32.20531,-58.122008 -42.11464,-58.122008 h -11.04658 v -15.626244 c 11.24328,0 11.81497,-8.956506 11.81497,-8.956506 l 44.59196,0.381127 11.05271,33.539257 h 50.11832 v -41.924071 h -7.43199 v -57.169192 l -13.91117,-13.33947 h -83.84814 l -16.3885,-9.5282 h -50.49945 l -16.3885,9.5282 H 73.580286 l -13.911169,13.33947 v 56.788064 h -7.431994 v 41.924071 h 50.499447 z"></path>
      <path id="polygon8013" style="fill:#002d72;fill-opacity:1;stroke:none" transform="matrix(1.9056396,0,0,1.9056396,-40.567526,-156.03111)" d="m 90.5,97.5 -2.1,6.5 5.5,-4 5.6,4 -2.2,-6.5 5.6,-4 H 96 L 93.9,87 91.8,93.5 h -6.9 z m 59.4,-4 5.6,4 -2.1,6.5 5.5,-4 5.5,4 -2.1,-6.5 5.6,-4 H 161 l -2.1,-6.5 -2.1,6.5 z"></path>
      <path id="path8015" style="fill:#e81828;fill-opacity:1;stroke:none;stroke-width:1.90564" d="m 45.37682,-29.496641 c -7.431994,-3.430151 -16.579065,-5.33579 -26.107263,-5.33579 -16.960192,0 -33.72982,5.907482 -43.448582,15.43568 -10.09989,9.9093262 -15.054553,21.7242918 -13.339478,31.443054 0.95282,5.335791 3.81128,9.14707 8.003687,11.052709 2.667895,1.143384 4.573535,1.715076 7.431994,1.715076 2.096204,0 4.001843,-0.381128 5.716919,-1.333948 7.2414304,-4.001843 9.337634,-14.6734246 9.7187619,-16.0073723 h -0.190564 c -4.0018429,0 -5.3265129,-1.8861967 -5.4310729,-3.7159972 -0.27728,-4.8523992 5.240509,-11.3385557 11.7196836,-14.1970155 l 1.14338376,-0.571691 V -9.6779887 77.219177 L 0.4037254,77.409741 c -6.8603026,7.24143 -10.6715814,14.863989 -10.6715814,20.771472 0,1.333947 0.190564,2.667897 0.5716915,3.811277 1.1433838,3.43015 4.0018432,5.71692 8.1942503,6.47918 0.9528198,0.19056 1.9056396,0.19056 3.0490234,0.19056 4.9546629,0 10.2904538,-1.90564 14.2922968,-5.33579 4.764099,-4.001844 7.241431,-9.337634 7.241431,-15.054553 V 43.67992 l 0.571692,-0.190564 C 44.805128,35.866798 64.15513,26.937897 65.386036,1.088875 66.06138,-13.093348 58.335169,-23.398594 45.37682,-29.496641 Z M 28.0355,22.908448 c -0.95647,0.171308 -4.001844,0.571692 -4.001844,0.571692 v -38.303356 c 0,0 4.764099,-0.381128 5.526355,-0.381128 10.481018,0 17.238762,5.2843288 17.817731,16.9601929 C 47.944033,13.176051 39.847026,20.792951 28.0355,22.908448 Z m 165.21895,67.650206 c -7.24143,0 -13.14891,-5.907483 -13.14891,-13.148913 v -6.669739 l 0.19056,-0.190564 C 187.53753,62.736316 204.20912,40.809401 199.54306,5.3765641 198.111,-5.498156 190.58656,-13.10814 181.24892,-13.10814 c -10.09989,0 -18.29414,8.1942503 -18.29414,18.2941402 V 83.12666 c 0,4.382971 -3.62071,7.813122 -7.81312,7.813122 -4.38297,0 -8.697,-3.620715 -8.697,-7.813122 V 54.923194 c 0,-4.764099 -3.81128,-8.575378 -8.57538,-8.575378 -4.7641,0 -8.57538,3.811279 -8.57538,8.575378 V 83.12666 c 0,4.382971 -3.62071,7.813122 -7.81312,7.813122 -4.38297,0 -7.77384,-3.620899 -7.81312,-7.813122 V 64.260828 56.066577 c 0,-10.862145 -8.95651,-19.818651 -19.818657,-19.818651 -3.81128,0 -7.622559,1.143383 -10.862146,3.239587 l -1.143384,0.762256 V -3.579942 c 0,-5.1452269 -4.192407,-9.14707 -9.14707,-9.14707 -2.286767,0 -4.382971,0.95282 -6.098047,2.286767 0.95282,3.2395878 1.524512,6.669739 1.524512,10.48101824 V 2.5181047 C 67.74174,9.1878433 66.026664,14.714198 63.549333,19.478297 V 99.51516 c 0,5.14523 4.192407,9.14707 9.14707,9.14707 5.145227,0 9.14707,-4.19241 9.14707,-9.14707 V 61.783496 c 0,-4.001843 3.239587,-7.24143 7.241431,-7.24143 4.001843,0 7.050866,3.049023 7.24143,7.050866 v 27.441211 c 0.190564,10.67158 8.956506,19.818647 19.818656,19.818647 6.28861,0 12.88941,-2.85846 16.70069,-8.00368 l 0.57169,-0.76226 0.57169,0.76226 c 3.81128,5.14522 9.5282,8.00368 15.81681,8.00368 7.43199,0 14.21581,-4.2301 17.53188,-10.862141 l 0.5717,-1.143384 0.76225,1.143384 c 4.78017,7.170321 12.57722,10.862141 21.34317,10.862141 9.33763,0 17.01943,-3.52886 21.53372,-11.052705 l 0.57169,-0.95282 0.5717,0.95282 c 4.51435,7.523805 12.57722,11.052705 21.53372,11.052705 8.76595,0 15.96074,-3.46718 20.96204,-9.718758 l 0.76226,-0.952819 0.57169,0.952819 c 3.64877,6.081298 9.90932,9.528198 16.96019,9.528198 8.00369,0 15.28238,-4.45748 18.67527,-11.243273 l 0.57169,-1.143384 0.76226,0.95282 c 5.99139,7.489197 15.05455,11.433837 24.67803,11.433837 2.38205,0 7.70316,-0.416 14.00645,-3.04902 8.75143,-3.65566 16.00737,-10.099893 21.53373,-19.246963 4.38297,-6.860302 8.35963,-15.119525 10.29045,-24.773315 l 0.19057,-0.952819 0.76225,0.381127 c 8.30998,4.155014 12.33982,9.738229 14.10173,13.91117 1.85902,4.402947 1.90564,7.813122 1.90564,8.003686 0,8.003686 -6.75943,10.103001 -11.81496,8.956506 -4.19566,-0.951494 -7.62256,-4.954663 -10.67158,-8.384814 0,0 -3.43016,6.479174 -8.76595,12.767785 0,0 1.18325,1.296894 4.19241,4.573537 5.56656,6.06136 11.43445,8.2051 18.29414,7.81312 6.47981,-0.37028 12.58094,-2.85442 17.34132,-7.24143 4.95839,-4.569494 7.62256,-10.607526 7.62256,-16.960192 0,-0.57169 2.38966,-18.73371 -27.82234,-38.875048 -4.66335,-3.108901 -6.24994,-6.306547 -6.57446,-6.955585 -0.24846,-0.49693 -0.66697,-0.666974 -1.0481,-0.666974 -0.19056,0 -0.54355,0.0331 -0.76225,0.190564 l -9.5282,6.860303 c -0.77325,0.556739 -1.27813,1.534087 -1.14338,2.477331 1.01017,7.071182 0.38112,14.101733 -2.47734,21.343164 -9.14707,20.580907 -24.01105,22.867675 -29.91854,22.867675 -2.66789,0 -5.10595,-0.837901 -7.62256,-2.096204 l -1.52451,-0.762255 1.52451,-0.571692 c 7.62256,-2.85846 17.72245,-8.384815 22.86768,-19.24696 3.04902,-6.479175 2.85846,-11.624402 2.85846,-11.624402 0,-18.29414 -16.57907,-18.865832 -18.48471,-18.865832 v 0 c -18.10357,0 -32.777,15.626245 -32.777,35.063769 0,3.620715 0.5717,7.24143 1.52452,10.862145 -0.5717,4.001844 -3.81128,6.860303 -7.81313,6.860303 -4.38297,0 -7.81312,-3.620715 -7.81312,-7.813122 V 55.304322 c 0,-4.764099 -3.81128,-8.575379 -8.57538,-8.575379 -4.7641,0 -8.57538,3.81128 -8.57538,8.575379 v 20.199779 c 0,8.384815 -6.8603,15.245117 -15.24511,15.245117 -8.38482,0 -15.24512,-6.860302 -15.24512,-15.245117 v -4.573535 c 7.24144,-7.813122 24.10358,-29.930601 19.43752,-65.3634379 -1.43206,-10.8747201 -8.9565,-18.4847041 -18.29414,-18.4847041 -10.09989,0 -18.29414,8.1942502 -18.29414,18.2941401 V 77.790869 c 0,7.243937 -5.71691,12.767785 -12.57722,12.767785 z M 223.17299,6.9010758 c 0,-2.4773315 1.71508,-4.3829711 3.81128,-4.3829711 1.33395,0 3.42273,0.572873 4.00185,4.1924071 0.18313,1.1445967 2.17846,25.5822722 -6.28861,40.3995592 l -1.52452,2.667896 z m -43.06745,0 c 0,-2.4773315 1.71508,-4.3829711 3.81128,-4.3829711 1.33395,0 3.42271,0.5728742 4.00184,4.1924071 0.18314,1.1445979 2.17842,25.5822432 -6.28861,40.3995592 l -1.52451,2.667896 z M 301.49478,74.170154 c -0.72163,-10.102874 5.90748,-18.675268 14.86399,-19.437524 2.0962,-0.190564 3.62072,0.571692 4.57354,2.096203 1.14338,1.90564 0.76225,4.764099 -1.33395,8.384815 -4.00184,7.431994 -14.67343,10.671581 -17.72245,11.243273 0,0 -0.3404,-1.716528 -0.38113,-2.286767 z"></path>
    </g>
  </g>
</svg>