<svg xmlns="http://www.w3.org/2000/svg" viewBox="0 0 218 172.09"><g id="레이어_2"><g id="레이어_1-2"><path d="M218,109.48l-6.13,3.3c-13.36,7.13-25.91,12.08-41.39,12.76-4.58.19-6.19.56-6.94.87,1-1.21,1-2.52,1-4.64V104.15a14,14,0,0,0-.53-4.05,14.42,14.42,0,0,0,12.64-9.18l0-.1c.68-2.27,1-6.32-3.24-10.24a27.31,27.31,0,0,1,5.17-3.21,22.29,22.29,0,0,1,4.51-.34c3.28,0,6.14-.1,7.79-1.56a10.86,10.86,0,0,0,3.27-7.69,6.4,6.4,0,0,0-1.93-3.92,6.87,6.87,0,0,0-1.46-3.62,5.77,5.77,0,0,0-3.06-1.93,5.47,5.47,0,0,0-.4-.46A8.45,8.45,0,0,0,188.48,53,3.6,3.6,0,0,0,185,49.32a4.18,4.18,0,0,0-1.18.18l-.34.13-.28.18a7.35,7.35,0,0,1-4.27,1.12,18.65,18.65,0,0,1-2.12-.15,26.87,26.87,0,0,0-3.11-6.2,10,10,0,0,0,2-7.6,10.54,10.54,0,0,0-5.23-7.62,7.62,7.62,0,0,0-3.27-.78c-2.92,0-5.17,1.74-7,3.42l-.69-1.34c-2.4-4.73-7.44-7-15.48-7-1,0-2.08,0-3.23.09a5.57,5.57,0,0,0-3.62-1.21,11.36,11.36,0,0,0-2.64.37l-.35.06a6.05,6.05,0,0,0-4.76,3.77c-5.42,2-8.9,4.73-10.56,8.16a35.63,35.63,0,0,0-1.8-3.8,4.53,4.53,0,0,0,0-1.56,10.22,10.22,0,0,0-4.36-6.85h0a5.74,5.74,0,0,0-3.24-.81A34.37,34.37,0,0,0,95.6,14.38a18.33,18.33,0,0,0-4.33-.53,30.26,30.26,0,0,0-5.67.65c-.72-.9-1.4-1.8-2.09-2.71-3-3.95-6-8-10.58-10.33l-.07,0A11.44,11.44,0,0,0,66.67.05l-.22,0a11.54,11.54,0,0,0-9.22,8.18c-1.27,4.15-.71,9.22.87,13.83A4.62,4.62,0,0,0,56.42,22a6.11,6.11,0,0,0-3.92,2A10.71,10.71,0,0,0,50,22.85c-.1-.47-.19-.91-.22-1.22a2.87,2.87,0,0,0-2.93-2.33,6.66,6.66,0,0,0-5.51,4.08,12,12,0,0,0-5,4.08l0,.06a12.29,12.29,0,0,0-1.22,11,9.93,9.93,0,0,0-1.21,3.67c-2.62,4.18-1.31,8.94,1,17.19.15,5.45.9,12.49,5,19.49l-.19,1.5,0,.31,0,.25a3.37,3.37,0,0,0,1.44,2.74s.06.09.12.12c-.34,1.53-1,5,2,5.7a35.83,35.83,0,0,1,6.51,3.15,34.61,34.61,0,0,0,5.88,15.26V124.2c0,1.75.5,2.21.5,2.21s-2.92-.31-3.39-.31c-17.87-1.43-33.63-6-46.93-13.45L0,109.35s0,6.73,0,6.79A9.08,9.08,0,0,0,3.21,123a71.33,71.33,0,0,0,21.51,13.23c-4.51-.43-9.37-1.05-14.57-2l-4.7-.84.12,4.76a6.91,6.91,0,0,0,4.33,6.11c.19.09.38.15.56.22a10.12,10.12,0,0,0,3,1.93l.44,4.48a7.11,7.11,0,0,0,5,5.67,7.18,7.18,0,0,0,2.62,1.46,86.82,86.82,0,0,0,17.09,3c1,3.33,3.24,7.23,6.73,8.63a12.56,12.56,0,0,0,7.47,2.21h.06a27.12,27.12,0,0,0,7.26-1.06,167.65,167.65,0,0,1,31.23-5.67c4-.43,13.54-.71,17.34-.71,5.8,0,17.35.49,21.3,1.06,0,0,12.27,1.61,16.66,2.55,1.87.4,13.17,3.24,16.1,3.7,12.3,2,19.43-7.13,20.46-11.11a64.11,64.11,0,0,0,13.23-2.65,8.3,8.3,0,0,0,2.62-1.46,8.5,8.5,0,0,0,3.33-2.09,6.35,6.35,0,0,0,1.74-3.58s.41-3.89.47-4.55a8.45,8.45,0,0,0,2.93-1.86c3.17-1.25,4.79-3.59,4.92-6.33l.12-4.85a151.13,151.13,0,0,1-19.21,2.92,76.2,76.2,0,0,0,21.36-13.14,9.36,9.36,0,0,0,3.24-7S218,109.48,218,109.48Z" style="fill:#fff"></path><path d="M171.2,140.61l-2.27.09a32.84,32.84,0,0,0,3.08,1.9l1,.53a22.43,22.43,0,0,1,6.81,5.73c10.28-1,17.66-2.64,24.26-5.45a4.23,4.23,0,0,0,1.71-1.33c.41-.16.81-.35,1.22-.5a4,4,0,0,0,2.49-3.43l0-1.15-1.12.22C199.29,138.93,187.45,140,171.2,140.61Z" style="fill:#faa61a"></path><path d="M186.55,149.55l-4.67-.06-1.65,0a.11.11,0,0,0,0,.07,12.2,12.2,0,0,1,2.15,8.28,64.47,64.47,0,0,0,13.2-2.58,4.59,4.59,0,0,0,2-1.28c.25-.06.5-.16.72-.22a4.28,4.28,0,0,0,2.93-3.11l.09-1-1.06,0C195.08,149.7,190.94,149.64,186.55,149.55Z" style="fill:#faa61a"></path><path d="M39.17,157l-.12-1.15L38.71,153c-.1-.72-.16-1.37-.22-1.84l-.09-.81-.1-.84h-.84l-3.92.06c-5.05.06-10.28.16-15.76.06l-1.06,0,.1,1a4.23,4.23,0,0,0,2.92,3.11c.25.06.5.16.72.22a5,5,0,0,0,1.93,1.28c5,1.59,10.87,2.33,16.91,3A9.24,9.24,0,0,0,39.17,157Z" style="fill:#faa61a"></path><path d="M38,147.34l-.12-1.12-.63-5.3-.09-.78-.78,0a213.13,213.13,0,0,1-26.75-2.92L8.5,137l0,1.15a4,4,0,0,0,2.5,3.43l1.18.46A3.93,3.93,0,0,0,14,143.41c6.63,2.78,14.76,4.58,24.2,5.42Z" style="fill:#faa61a"></path><path d="M213.64,115.2a113.15,113.15,0,0,1-42.85,13.3c-8.84,1-12.76,4.05-14.35,7.19a4.72,4.72,0,0,0-.72.91l.6-5.55.12-1.09-1.09.07c-4.14.25-9.22.49-13.92.68-4.45.19-7.38,2.34-8,5.79a7.2,7.2,0,0,0-.87,3.05s-.41,7.88-.75,14.27h-.28c-4.17-.19-7.57-.32-10.18-.35.09-4,.46-19.12.46-21.2v-.91l-.9,0s-2.8-.09-4.79-.09c-2.62,0-4.12,1.53-4.12,4.17v1a5.41,5.41,0,0,0-.09,1c0,1.09,0,4.79-.06,8.93a5.23,5.23,0,0,0-1.53-3.17,5.55,5.55,0,0,0-4.08-1.46H97.78l.15,9.06h4.95l0,3.55a6.94,6.94,0,0,1-1.59.25c-2.27,0-3.45-1.25-4.11-3.43a31.77,31.77,0,0,1-.34-3.74c-.09-2.8,0-6.16,1.25-7.5a2.29,2.29,0,0,1,1.74-.65,3,3,0,0,1,2.06.65.85.85,0,0,1,.28.62v.9h9.24l0-1.93v-.93c0-3.67-3.24-8-12.37-8.1-3.89,0-6.91,1.19-9,3.4-2.49,2.65-3.64,6.85-3.36,12.42,0,.63.13,1.19.19,1.75l-4.33-11.56a3.07,3.07,0,0,0-.25-.59l-.56-1.46A5.36,5.36,0,0,0,77,130.8c-1.55,0-6.07-.24-6.13-.24l-.78,0-.18.75c-.75,3-1.44,5.82-2.15,8.56l-.13-.52a8.3,8.3,0,0,0-1.74-3.37c-1.68-3.77-6.23-6.29-12.3-6.75-18.65-1.37-35.19-6-49.2-13.89L3,114.52v1.59a6,6,0,0,0,2.18,4.76,37.32,37.32,0,0,0,3.17,2.52c7,6.17,18.44,11.46,30.24,14.11l1,9c.53,5,1,9.25,1.21,10.56.69,4.67,2.21,7.75,4.67,9.4a9.17,9.17,0,0,0,1.43.75,3.39,3.39,0,0,0,.5.34c2.65,1.77,6.39,1.93,12,.5l5.2-1.28c2.68-.65,5.2-1.25,8-2l.53-.16.13-.56c1.4-6.85,2.43-12.45,3.42-18.09l1.53,5.73,2.55,9.56.22.81.5-.06.12.53.22.77.78-.09c2.4-.31,5.26-.65,8.47-.93l1.18-.13-.4-1.12-1.31-3.46a13.17,13.17,0,0,0,10.74,5,16.56,16.56,0,0,0,10-3.37l.46-.34c0,1.09,0,1.78,0,1.81v.9h.91a176.26,176.26,0,0,1,17.81,1l1,.12v-.06l.72.09c3.18.38,9.37,1.19,15.13,2.4,1.93.41,4.15,1,6.48,1.53,3.33.81,6.76,1.65,9.53,2.15a13.93,13.93,0,0,0,10.52-2,12,12,0,0,0,6.79-7.75c1.44-5.48-1.62-10.87-8.41-14.7l-.9-.5c-2.89-1.62-4.64-2.71-4.51-4.08a7.58,7.58,0,0,1,1.9-.43c17.81-2.46,30.48-7.44,41-16.07.15-.12.31-.28.46-.4.91-.66,1.78-1.34,2.65-2.06a6,6,0,0,0,2.21-4.76v-1.56ZM63.27,156.93c-2.52.5-6.07,1.12-9.09,1.56a4.37,4.37,0,0,1-.59.06,5.15,5.15,0,0,1-.12-.72l-.07-.65c-.12-1.09-.43-3.52-.71-6.82,3.73.28,7.5.47,11.24.56l.93,0C64.36,152.88,63.83,154.84,63.27,156.93Zm1.65-6.2c0-.28-.06-.84-.06-.84l-.4-4.29-.19-2.06-.06-.81H63l-.09-1-.09-.84H62c-3.77-.06-7.1-.12-10.19-.22v-.09l-.09-1c6,.47,11.4.72,15.07.75h.87C66.73,143.85,65.86,147.25,64.92,150.73Zm77.82-10c3,0,6.35-.16,10.62-.38h.81a1.16,1.16,0,0,0,0,.32c0,.09,0,.18,0,.28h-1l-10.4,0A.84.84,0,0,0,142.74,140.74ZM167,158.24a1.42,1.42,0,0,0-.07.22,4.41,4.41,0,0,1-.93.09A94.48,94.48,0,0,1,154,156.68c-4.21-.84-8.5-1.53-12.24-2,.09-1.34.19-2.83.31-4.3h10.12l.1-.81a7.91,7.91,0,0,0,.06-.84h1.18l.09-.84c.13-1,.19-2.05.25-3s.16-2,.25-3l0-.18c-.15,5.6,3.74,8.62,7.66,10.86C167.06,155.72,167.43,156.74,167,158.24Z" style="fill:#faa61a"></path><path d="M63.71,125.42c0,.15.06.31.53.34V126H60.35v-.22c.46,0,.53-.16.53-.34V116.6c0-.15-.07-.31-.53-.34V116h6.91c2.8,0,4,1,4,3.15,0,1.74-1.13,2.68-2.71,3.08l2.24,3.15a.62.62,0,0,0,.56.34V126H67.42v-.22c.28,0,.4-.12.4-.34s-2-2.77-2.24-3.18H63.74v3.18Zm0-5.2h3.18c1.12,0,1.46-.5,1.46-1s-.34-1-1.46-1H63.71Z" style="fill:#790020"></path><path d="M78,123.83a10.93,10.93,0,0,0-.59,1.74c0,.13.06.19.34.19V126H74.39v-.22a.59.59,0,0,0,.5-.44c.15-.43,3.36-8.75,3.36-8.87s-.22-.16-.37-.19V116H82.8v.22c-.22,0-.35.06-.35.25s2.34,5.79,3.49,8.66c.19.47.31.56.53.56V126H82.73v-.22c.28,0,.38-.13.38-.22s-.56-1.46-.66-1.71H78Zm.47-1.53H82l-1.84-4.48Z" style="fill:#790020"></path><path d="M97.37,126v-.22c.22,0,.37,0,.37-.25s-2.33-3.55-2.61-4l-1.84,1.65v2.28c0,.15.06.31.53.34V126H89.93v-.22c.47,0,.53-.16.53-.34V116.6c0-.15-.06-.31-.53-.34V116h3.89v.22c-.47,0-.53.16-.53.34V120h.13c1.52-1.46,3.7-3.3,3.7-3.49s-.12-.22-.34-.25V116h4.79v.22c-.49,0-.59.19-1,.59l-3.27,2.84,3.86,5.76a.55.55,0,0,0,.59.31V126Z" style="fill:#790020"></path><path d="M112.85,116.6c0-.15-.07-.31-.53-.34V116h3.89v.22c-.47,0-.53.16-.53.34v5.08c0,3.33-2.34,4.42-5.2,4.42s-5.2-1.09-5.2-4.42V116.6c0-.15-.06-.31-.53-.34V116h3.89v.22c-.46,0-.53.16-.53.34v5.08c0,1.46.88,2.06,2.37,2.06s2.37-.6,2.37-2.06Z" style="fill:#790020"></path><path d="M122.78,126v-.22c.47,0,.53-.16.53-.34v-7.07h-3.24c-.22,0-.28.09-.34.53h-.22v-3.36h.22c.06.43.12.52.34.52h9.34c.22,0,.28-.09.34-.52H130v3.36h-.22c-.06-.44-.12-.53-.34-.53h-3.24v7.07c0,.15.07.31.53.34V126Z" style="fill:#790020"></path><path d="M140.84,122.33h-.22a.51.51,0,0,0-.56-.43h-3.52v1.74h6.08c.21,0,.28-.09.34-.56h.22v3.3h-.25c-.07-.31-.13-.4-.35-.4h-9.43v-.22c.47,0,.53-.16.53-.34V116.6c0-.15-.06-.31-.53-.34V116h9.43c.22,0,.28-.09.35-.52h.21v3.3h-.21c-.07-.44-.13-.53-.35-.53h-6.07v1.55H140a.5.5,0,0,0,.56-.43h.22v2.92Z" style="fill:#790020"></path><path d="M147.41,116.6c0-.15-.06-.31-.53-.34V116h4.55v.22c-.44,0-.53.13-.53.25s3.27,3.68,4.58,5.14V116.6c0-.21-.16-.31-.41-.34V116h3.46v.22c-.47,0-.53.16-.53.34v8.82c0,.15.06.31.53.34V126H155v-.22c.34,0,.43-.06.43-.22s-.47-.5-5.45-6.07v6c0,.15.06.31.53.34V126h-3.58v-.22c.47,0,.53-.16.53-.34Z" style="fill:#790020"></path><path d="M110.82,147.15c0,3.34-.06,10-.06,10a16.33,16.33,0,0,1-9.72,3.24c-5.75-.07-12.54-2.87-13.35-14.14-.56-11.3,4.79-14.79,11.42-14.85,8.44.09,11.43,3.86,11.43,7.16h-7.6c0-1.37-1.49-2.24-3.33-2.24-3.7,0-4.2,4.08-4,9.37s1,9.68,5.76,9.78a6.44,6.44,0,0,0,2.52-.56c0-2.31,0-4.39-.06-6.7H98.87c-.07-1.87,0-3.7-.1-5.57h7.51C108.8,142.61,110.85,143.82,110.82,147.15Zm10.06-15s-2.74-.1-4.76-.1-3.18,1-3.18,3.24c0,2.93-.22,24-.22,24a178.11,178.11,0,0,1,18.5,1.09l.25-5.76c-3.58-.16-7.85-.34-11.09-.34C120.38,154.32,120.88,134.57,120.88,132.18ZM5.79,120.1c7.63,6.72,20.46,12.45,33.48,14.94.87,7.51,2.11,19.56,2.46,21.86,1.46,10,6.63,11.49,15.94,9.16,4.7-1.19,8.91-2.09,13.58-3.34,1.77-8.84,3-15.69,4.45-24,2.09,8,4,14.85,6,22.32,3-.4,6.22-.74,8.78-1,0,0-5.86-15.6-9.5-25.38a4.36,4.36,0,0,0-4-3c-1.59,0-6.17-.25-6.17-.25-2.24,9.09-4.17,16.63-6.79,26.28-2.52.5-6.41,1.21-9.71,1.68-2.4.34-3.27-.9-3.49-2.93-.06-.59-.5-3.86-.93-8.81,4.29.35,8.5.56,12.64.66-.22-2.21-.41-4.3-.59-6.54-4.43-.06-8.6-.16-12.62-.28-.15-1.87-.34-3.52-.46-5,5.73.46,12.11.84,16.56.87-1.12-4.55-6.26-7-12-7.41-17.88-1.31-34.75-5.67-49.58-14A5.25,5.25,0,0,0,5.79,120.1ZM36.34,141a210.87,210.87,0,0,1-26.87-2.93,3,3,0,0,0,1.93,2.59c6.72,2.8,15.32,4.76,25.56,5.6Zm1.12,9.4c-6.38.07-12.77.22-19.71.1A3.37,3.37,0,0,0,20,152.85c5.51,1.75,12,2.49,18.09,3.12Zm132.9-13.95c18.4-2.55,31.32-7.75,41.85-16.37a4.89,4.89,0,0,0,1.87-4,113.25,113.25,0,0,1-43.16,13.39c-8.94,1-13.82,4.29-14.45,9.4-.65,5.39,2.21,8.53,7.32,11.46s6.6,4.39,5.85,6.82a3.55,3.55,0,0,1-3.7,2.4,100.9,100.9,0,0,1-12.24-1.9c-4.11-.81-8.78-1.59-13-2,.1-2.3.38-5.38.56-7.69h11.34c.22-2,.31-4,.5-6-3.77,0-7.63,0-11.43.07.12-2,.28-2.12.37-4.05,4,0,8.22-.19,12.64-.41l.69-6.54c-4.14.25-9.16.5-13.95.69s-7.1,2.61-7.29,6-1.21,23-1.21,23c4.64.53,10.52,1.4,15.69,2.49,4.92,1.06,11.65,2.93,16.48,3.8,7.37,1.31,13.2-2.74,14.57-8,1.46-5.58-2.28-10.44-8-13.67-3.24-1.84-6.39-3.3-5.92-5.76C166.16,137.91,167.37,136.88,170.36,136.47Zm2.12,5.3,1,.53a24.41,24.41,0,0,1,5.36,4,2,2,0,0,0,.22.19c12.23-1,20.33-2.71,27.58-5.79a3.14,3.14,0,0,0,1.94-2.59c-10,1.93-22.46,2.9-36.56,3.4C172.17,141.61,172.32,141.71,172.48,141.77Zm9.4,8.65a13,13,0,0,1,1.5,5.17,68,68,0,0,0,14.6-2.71,3.38,3.38,0,0,0,2.27-2.33C193.4,150.67,188.2,150.52,181.88,150.42Z" style="fill:#790020"></path><path d="M189.63,64.82a3.65,3.65,0,0,0-3.36-4.11c-.47-.56-1.53-2.58-3.55-1.93a5.91,5.91,0,0,0,3.18-5.6c0-.53-.25-1.53-1.28-1.22-2.93,1.93-6.38,1.78-9.81,1.12a25.28,25.28,0,0,0-4.45-8.69,7.78,7.78,0,0,0-.93-12.7c-4.21-2-7.23,2.4-9.94,4.48l-2.27-4.32c-2.8-5.55-10.37-6-17.5-5.42a2.62,2.62,0,0,0-.93-1c-1.22-.65-2.56-.28-4,0s-3.27,1.37-2.9,3.15c-9.49,3.11-11.42,7.41-11.49,11.21a8.63,8.63,0,0,0-2.7-.37,31.29,31.29,0,0,0-3.56-8.35c.47-.16.5-.84.44-1.21a7.47,7.47,0,0,0-3.14-5c-.84-.46-1.84-.81-2.56-.09A32.78,32.78,0,0,0,95,16.9c-3.73-.93-7.07-.19-10.4.44C80.49,12.48,77.22,6.5,71.77,3.76A9.58,9.58,0,0,0,67,2.61c-12.64,2.68-7.82,20.61-1.5,27.27-3.2,3.83-8.62,11.46-7.75,26.38a17.46,17.46,0,0,0-3.95-.16c-.69-1.43-2-4.2-2.18-4.61-.44-2.46,1.55-4.92,1.49-7.41.78-2.3,3.8-4.92,3.74-6.69a77.26,77.26,0,0,1,1-11.18c.06-.78.43-1.77-1.22-1.59-2,.22-2.89,1.9-3.77,3.18A8.86,8.86,0,0,0,47.64,25c-.15-.94-.37-2.22-.46-2.87s-3.31.44-3.77,3.33a9.31,9.31,0,0,0-5,3.55,10.22,10.22,0,0,0-.46,9.87,7.15,7.15,0,0,0-1.62,4.24C33.94,46.39,34.94,50.28,37.4,59c.15,6.51,1.18,13,5.14,19.3l-.32,2.4c0,.31,0,.56.41.87s.75.84,1.4,1.34c-.28,1.75-1,3.83-.19,4s7.66,3,8.32,4.48c.9,7.73,3.49,12,7.47,17.78.06.07.09.16.16.25H120a15.45,15.45,0,0,0,.84-6c-.44-4.2-2-8.37-7.13-10.83l-.56-2.06c-.41-.78-1.34-.68-2.09-1.06A3.61,3.61,0,0,0,110,87.21c-9.06-2.18-10.56-4.17-16.5-7a16.19,16.19,0,0,0,2.27-.78c3.18,1.77,6.94,2.67,12.58-1.22,1.71-1.18.5-1.21-.56-1.43a12,12,0,0,1-2.27-.65,26.19,26.19,0,0,0,6.57-2,15.78,15.78,0,0,0,1.31,1.71c.87,4,4.2,7.1,7.72,8.82a4.89,4.89,0,0,0,4.67,5.54c-.06-.81-.47-5,7.81-2.8a3.59,3.59,0,0,0-2.64,2.52c-2.06,5.11-3.12,6.79-6.73,10.15a.94.94,0,0,0-.25.78c.22,2.09,1.75,3.49,3,4.89-.56,1.21-1.18,2.52-1.8,3.7h13.61a4.35,4.35,0,0,0,.59-1.34,2.63,2.63,0,0,1,.84,1,.82.82,0,0,1-.07.31h20.77a19.72,19.72,0,0,0-1.27-14,20.87,20.87,0,0,1,2.15-2.18c3.39,1.93.74,4.21,1.71,4.24,4.33.06,9.25-3.24,10.68-7.44.78-2.59.37-6.08-4.95-9.47,0,0,4.92-4.27,8.5-5.7,2.83-1,9.78.1,11.49-1.4a8.34,8.34,0,0,0,2.4-5.76C191.53,67,190.54,65.91,189.63,64.82ZM120.29,40.28c.22,1.72.28,3.62.62,5.36-1.09-.56-2.49-1.37-2.55-2.68S119.32,41,120.29,40.28Zm-.41,31.27c-1.27.15-3.17-1.59-2.42-2.9.62-.93,2.64-.62,2.64-.62a6.25,6.25,0,0,0-6.16-2.71,4.21,4.21,0,0,0-3.27,3.18,6.11,6.11,0,0,0-.16,1.09,5.78,5.78,0,0,1-2.86-1.41A24.07,24.07,0,0,0,112,61.71a8.21,8.21,0,0,0,2.77-3.12,22.59,22.59,0,0,0,7.16-.43,49.46,49.46,0,0,0,.84,11A3.54,3.54,0,0,1,119.88,71.55Z"></path><path d="M106.84,89.08s.81-.72,1.93-1.62l-.91-.19-1.62,1.37C106.46,88.8,106.65,88.92,106.84,89.08Z" style="fill:#fff"></path><path d="M106.93,87c-.28-.06-.59-.15-.9-.21-.25.18-.63.4-1.22.84l.72.5Z" style="fill:#d0b581"></path><path d="M138.35,108.45a25.33,25.33,0,0,0,1.12-10h.09c1.12,2.62.59,5.61.13,8.57a14.81,14.81,0,0,1,1.52,2.42h18.93c1.44-6.22.6-12.17-3.61-16.75,0,0-.09-.06-.09-.06-.59.12-1.22.25-2,.34.12.94-.56,2.12-2.24,2.43-5.58,1-11.9-5.54-11.43-3.61.25,1.09,1.27,2.3.68,1.8-2-1.65-2.18-4.7-4.7-5.51a3.64,3.64,0,0,0-4.89,2c-1.15,2.39-2,7-2.43,7.81s0-.87-.12-1.43L125.49,100A24.61,24.61,0,0,1,138.35,108.45Z" style="fill:#fff"></path><path d="M128.38,101.79l-1,2.7c-1.16-.77-2.65-2.92-2.65-3.55S127.26,101.26,128.38,101.79Z" style="fill:#e4d4b8"></path><path d="M160.89,92.88l-1.74,1.71A11.34,11.34,0,0,0,157,92.5c.07,0,.13,0,.19,0A6.49,6.49,0,0,1,160.89,92.88Z" style="fill:#fff"></path><path d="M161.61,77.22c4.3,2.55,14.51,6.72,11,13.6A12,12,0,0,1,164,96.9a3.25,3.25,0,0,0-.19-2.65c-2.34-3.52-8.66-2.71-13.23-4.92-2.65-1.25-5.64-2.74-6.32-5.89a3.55,3.55,0,0,1,.34-2.14c.15-.32-.47-.44-.66-.25-1,.9-.87,2.27-.21,3.8,1.49,3.55,7.78,5.79,12.89,7-4.83.53-11.24.5-14.54-1.21-1.93-1-3.3-3.27-5.33-3.65A9.46,9.46,0,0,1,134,77c1.18-3.21,5-4.36,7.66-4.3s5.61,1.93,7.6,1.9,5.29-1.71,8-.22Z" style="fill:#fcaf17"></path><path d="M181.72,59.44c-1.27,1.31-1.46,3.24-1.65,5l-.46-.31a13.19,13.19,0,0,0-.53-4C180,60,180.82,59.66,181.72,59.44Z" style="fill:#f287b7"></path><path d="M185.4,60.74a8,8,0,0,0-3,4.49c-.53.4-1.12-.28-1.31-.53-.37-.47-.34-3.49,1.47-5.23C183.5,58.63,185.12,59.75,185.4,60.74Z" style="fill:#f287b7"></path><path d="M188.85,64.58a2.8,2.8,0,0,0-2.18-.13c-1.24.69-1.52,2-2.27,2.84-.47-.41-1.12-.85-1.31-1.5a6.2,6.2,0,0,1,3-4.39C187.05,61.21,188.88,62.05,188.85,64.58Z" style="fill:#f287b7"></path><path d="M175.71,58.35c-.09-.47.69-1.75.81-2.68s-.34.75-1,.84c-.13-.81-.31-1.62-.5-2.43,3.21.34,6.54.87,9.22-.87.34-.09.59.31.56.53,0,2.27-1.69,4.2-3.83,5.11l-2.09.56c-.75-.88-1.28-2.56-2.62-2.5a14.15,14.15,0,0,1,2.56,9.47c-.06.9.68-1.09.68-1.09a7.7,7.7,0,0,1,6,5.67c.28,1,.32-.56.69-.78.78-.59,1.8-1,2.27-1.81,0,0,.25-.77-.28-.25a3.81,3.81,0,0,1-2.77,1.09c-.84-1.24.28-2.58,1-3.61a1.41,1.41,0,0,1,1.46-.53,3.47,3.47,0,0,1,2.8,2.43c.25,1-.62,3.68-1.62,4.83s-3.7,1.09-5,1.09-7.69.25-8.88.78.53.25.75.49a78.48,78.48,0,0,0-6.82,4.83l0,0C172.73,75,176.52,65.29,175.71,58.35Z" style="fill:#f287b7"></path><path d="M153.57,55.11c-1.15-2.27-2.92-4.14-5.69-4.2a9.3,9.3,0,0,0-4.36,1.4s-1,.84-.44-.1c1.12-1.93,3.46-3.8,6.07-3.45C152.05,49.47,153.29,52.62,153.57,55.11Z" style="fill:#f287b7"></path><path d="M171.51,58.63a.35.35,0,0,1-.38.09,4.79,4.79,0,0,0-4.32-3.24c-1.62.06-3.15,1.28-4.33,2.27,1.06-1.89,2.71-4,5.26-4.07C170.29,54.08,171.17,56.63,171.51,58.63Z" style="fill:#f287b7"></path><path d="M167.74,79.71,166.37,79c4-5.11,7.38-12.58,6.17-19.34a5.89,5.89,0,0,0,2.27-1.15C175.4,66,172.07,73.85,167.74,79.71Z" style="fill:#f287b7"></path><path d="M125.77,75a1.62,1.62,0,0,0-.1-.18c-2.36-6.29-3.45-11.8-2.36-18.19.43-2.11,11.43-.34,13.67-13.57a47.81,47.81,0,0,1,17.22-3.71c-1,.75-2.43,1.25-3.52,1.9,5.11-.84,10.12-5.07,14.26-8.19.65-.47,3.77-1.77,6.07,1.9a6.81,6.81,0,0,1,.28,7,9.18,9.18,0,0,1-6.6,4.36c1.62-.91,2.86-2,2.62-4.18s-1.69-2.83-1.22-2c1.59,2.93-1.71,5.67-3.49,6.2a7.08,7.08,0,0,1-2.89-.25c1-.59,2-1.06,2-2.74s-3.27-2.06-2.61-1.75c.31.16.74.16,1.12.81a2,2,0,0,1,.09,2.18A3.72,3.72,0,0,1,158.21,46a7.46,7.46,0,0,0,3.3,1.12,12.65,12.65,0,0,0,8.16-2,22.12,22.12,0,0,1,5,11.59c.19.9-1,1.3-1.74,1.58l-.56.13c-.56-1.87-1.53-4.76-3.8-5.42a4.89,4.89,0,0,0-5.17,1.81,35,35,0,0,0-5.76,19,8.76,8.76,0,0,0-6.69-.12c3.2-6.26,5-14.17,3.2-20.62a8.75,8.75,0,0,0-3.73-4.88,5.06,5.06,0,0,0-4.55.25,12.27,12.27,0,0,0-3.67,3.26c-1.56-.34-3.08-2.52-3.4-3.14s-.4,0-.12.9a9.32,9.32,0,0,0,2.61,3.33,30.65,30.65,0,0,0-2.67,19.47,23,23,0,0,0-2.37,1,.8.8,0,0,1,.22-.12C132.49,71.89,129.41,72.11,125.77,75Z" style="fill:#f287b7"></path><path d="M159.8,70.24c.1.75.44,2.71,2.18,2.9s3.18-2.81,3.83-5.7.5-4.27-.49-5.3a2.39,2.39,0,0,0-3.49.16C160.08,63.86,159.4,67.44,159.8,70.24Zm1.06-2.9c.19-1.74,1.06-3,2-3a7.38,7.38,0,0,0-.19.72c-.25,1.59.28,3,1.18,3.3a1,1,0,0,0,.84-.15v0c-.18,1.9-1.21,3.24-2.27,3S160.68,69.24,160.86,67.34Z" style="fill:#00b7ce"></path><path d="M139.81,66.25c.13.78.47,2.81,2.24,3s3.46-3.45,3.87-5.91c.74-4-.19-5.11-.19-5.11a2.43,2.43,0,0,0-3.83-.15C140.12,59.65,139.41,63.36,139.81,66.25ZM141,63.11c.18-1.74,1.05-3,2-3-.06.22-.12.47-.19.72-.25,1.55.28,3,1.19,3.3a1,1,0,0,0,.84-.16v0c-.19,1.9-1.22,3.24-2.28,3S140.81,65,141,63.11Z" style="fill:#00b7ce"></path><path d="M141.4,69.84a3.34,3.34,0,0,0,3.3-1.28c1.56-1.71,2.31-6.26,2.31-6.26.56-3.86-.91-4.83-1.47-5.17a3.11,3.11,0,0,0-3.39-.16,5.54,5.54,0,0,0-1.75,1.62c.22-.74.5-1.49.81-2.27.94-2.09,4.33-4.58,7.17-4.36,2.36.38,4,2.49,5,4.49,1,2.61.25,5.54-.25,8.4a52,52,0,0,1-3.05,9c-3.61.19-6.92-2.61-10.53-1.68-.06-1.5-.22-2.83-.15-4.45A3.79,3.79,0,0,0,141.4,69.84Z" style="fill:#fff"></path><path d="M161.33,73.73a3.17,3.17,0,0,0,3.18-1.22c1.52-1.68,2.24-6.07,2.24-6.07.43-2.74-.06-4.11-1.43-5a3,3,0,0,0-3.3-.16,4.36,4.36,0,0,0-1.25,1A11.8,11.8,0,0,1,161.89,60c1.34-2.05,3.12-3.45,5.11-3.39,2.15.09,3.42,2.3,4.11,4.11,1.4,3.55-.19,7.78-1.59,11.33a29.08,29.08,0,0,1-3.92,6.48,48.24,48.24,0,0,1-6.89-4,19.49,19.49,0,0,1,.13-2.93c0-.37.09-.75.15-1.18A4.41,4.41,0,0,0,161.33,73.73Z" style="fill:#fff"></path><path d="M162.85,64.32c.38-1.18,1.19-1.9,1.94-1.71.9.25,1.43,1.75,1.18,3.3a3.17,3.17,0,0,1-1.28,2.24,1.17,1.17,0,0,1-.84.16c-.9-.25-1.43-1.71-1.18-3.3C162.73,64.76,162.79,64.54,162.85,64.32Z" style="fill:#fff"></path><path d="M143,60.06c.37-1.19,1.18-1.9,1.93-1.68.9.24,1.43,1.74,1.18,3.3a3.13,3.13,0,0,1-1.27,2.24,1.16,1.16,0,0,1-.84.15c-.91-.24-1.44-1.74-1.19-3.3C142.87,60.52,142.93,60.28,143,60.06Z" style="fill:#fff"></path><path d="M144.7,104.31l0-.13-.13,0a9.16,9.16,0,0,1-2,.13h-.18l0,.18a.81.81,0,0,0,.37.6c.09.06.22.09.34.15s0,0,.06,0a3.07,3.07,0,0,0,1.75.28c0-.18-.1-.43-.13-.68Zm-1.81.62a.71.71,0,0,1-.31-.5,10.76,10.76,0,0,0,2-.12l.16.9A3.32,3.32,0,0,1,142.89,104.93Z" style="fill:#d0b581"></path><path d="M160.71,102.28l-.28.19a1.82,1.82,0,0,0-.19-.62,2.09,2.09,0,0,0,.4-.13v-.12l-.43.09-.13,0a1.82,1.82,0,0,1,.25.94,2.15,2.15,0,0,0,.41-.32S160.71,102.31,160.71,102.28Z" style="fill:#d0b581"></path><path d="M159.4,101.22l-.1-.06c-.31-.19-.46-.31-.46-.5a.49.49,0,0,1,.18-.09,4.07,4.07,0,0,0,1.31-.81.4.4,0,0,1,0-.19,3.53,3.53,0,0,1-1.12.63c-.28.09-.41.25-.41.46s.25.41.63.66a1.58,1.58,0,0,1,.75,1.59c-.1.77-.53,1.3-1.28,1.24-.44,0-.94-.12-1.4-.19a13.3,13.3,0,0,0-1.53-.06s-.09-2.71-.12-3.14a.79.79,0,0,1,.65-.91c.44-.09.9-.15,1.31-.25v.88a8.92,8.92,0,0,1-1.18.18v.56c.34-.06.71-.12,1.05-.15v.78c-.34.06-.71.12-1.05.15,0,.31,0,.75,0,1,.4,0,.84,0,1.24.06a6.62,6.62,0,0,0,1.12.06.43.43,0,0,0,.31-.4c0-.31-.21-.53-.59-.78a1.45,1.45,0,0,1-.78-1.37c0-.81.41-1.18,1.16-1.43a4.5,4.5,0,0,0,.93-.47s0-.06,0-.12a3.73,3.73,0,0,1-.94.46,1.53,1.53,0,0,0-1.15,1,.54.54,0,0,0-.06.16v-.81l-.09,0-1.28.22a.88.88,0,0,0-.72.84,1.86,1.86,0,0,0-.06.43s0,1.09.06,2h0c-.4.07-.74.1-1,.13,0-.56-.16-2.68-.16-3v-.12h-.09s-.28,0-.5,0-.44.28-.41.65v.28c0,.16,0,.72.1,1.34a1.09,1.09,0,0,0-.19-.5.53.53,0,0,0-.47-.15l-.81.12h-.12l.12,1.31.13,0,.43-.06,0,.52a.26.26,0,0,1-.15.07c-.25,0-.41-.13-.5-.44a2.76,2.76,0,0,1-.06-.53,2.63,2.63,0,0,1,.06-1.12c0-.06.09-.09.19-.12a.39.39,0,0,1,.22.06.11.11,0,0,1,0,.09v.13h.09l.81-.1h.09v-.37c0-.53-.43-1.09-1.43-1a1.28,1.28,0,0,0-1,.63,3.06,3.06,0,0,0-.25,1.9c0,.09,0,.18,0,.24l-.63-1.65s0-.06,0-.09l-.06-.19a.67.67,0,0,0-.62-.49,3.47,3.47,0,0,1-.75,0h-.09v.12c-.07.47-.13.94-.19,1.34l0-.09a2.34,2.34,0,0,0-.25-.5,1.71,1.71,0,0,0-1.65-.87,8.49,8.49,0,0,1-5.51-1.87l-.19-.16,0,.25a1.5,1.5,0,0,0,.28.94,8.68,8.68,0,0,0,1.15,1.12,6.06,6.06,0,0,0,2.31,1.24l.25,1.5c.12.81.24,1.49.28,1.68a2,2,0,0,0,.74,1.4l.22.09,0,0c.38.22.87.13,1.59-.24l.65-.32a8.79,8.79,0,0,0,1-.49l.06,0v-.09c.09-1.09.16-2,.22-2.83l.25.84.4,1.4,0,.12a.15.15,0,0,1,.07,0l0,.07,0,.12.09,0,1-.34.12,0-.06-.15-.19-.47a1.23,1.23,0,0,0,1.25.5,1.8,1.8,0,0,0,1-.68l0-.07a.87.87,0,0,0,0,.25v.13h.09a9.74,9.74,0,0,1,1.84-.19h.16a13.81,13.81,0,0,1,1.46.06c.19,0,.4,0,.59.06l.75.1a1.13,1.13,0,0,0,1-.41,1.84,1.84,0,0,0-.18-2.71Zm-.88,1.19c.41.22.57.4.53.62v.06a.11.11,0,0,1-.09,0,4.19,4.19,0,0,1-.84,0l-.25,0c-.37,0-.78-.06-1.15-.06v-.59l.87-.13h.06V102h.13v-.9A1.4,1.4,0,0,0,158.52,102.41Zm-.8-1.5V101h-.1l-1,.13v0a9.25,9.25,0,0,0,1-.19Zm-9.38,1.25h.13c-.07.56-.16,1.12-.22,1.68a1.57,1.57,0,0,0,0-.16l-.13-.68,0-.28,0-.13h-.15l0-.15,0-.13-.13,0c-.5.07-.93.1-1.34.16v0l0-.16Zm-.09,1.65c-.06.31-.09.65-.13,1l-1.15.47s-.06,0-.09,0a.18.18,0,0,0,0-.12v-.1c0-.15-.09-.53-.19-1,.5,0,1-.07,1.46-.13Zm3.18.87-1,.34c-.31-1.09-.62-2.08-1-3.27-.06,1.28-.15,2.37-.28,3.74-.56.31-1.09.56-1.68.84-1.21.62-1.93.53-2.24-1.06-.06-.37-.41-2.3-.59-3.52a5.94,5.94,0,0,1-3.43-2.11,1.14,1.14,0,0,1-.25-.81,8.28,8.28,0,0,0,5.58,1.86,1.55,1.55,0,0,1,1.62,1,21.67,21.67,0,0,1-2.18.13c0,.21.06.49.12.77l1.65-.18c.06.34.1.68.16,1-.53.07-1.09.13-1.65.16.12.78.22,1.31.22,1.4,0,.31.18.5.49.37a12.62,12.62,0,0,0,1.25-.49c.22-1.56.37-2.74.56-4.18l.75,0c.18,0,.4.1.49.41C150.59,102.47,151.43,104.68,151.43,104.68Zm1.18-.19c-.62.13-1.43-.15-1.65-1.8s.4-2.24,1.15-2.34c.93-.09,1.28.41,1.31.87-.31,0-.5.07-.81.13,0-.22-.19-.31-.41-.28-.4.06-.43.65-.34,1.43s.22,1.4.75,1.31c.06,0,.22-.09.28-.13,0-.31-.06-.62-.09-1l-.53.09c0-.28,0-.53-.07-.81l.81-.12c.28,0,.5.09.53.56s.1,1.43.1,1.43A1.68,1.68,0,0,1,152.61,104.49Zm1.24-.34s-.18-3-.21-3.39.09-.47.31-.5a4,4,0,0,1,.5,0c0,.34.18,3.08.18,3.08.35-.06.75-.09,1.12-.12l0,.77A11.16,11.16,0,0,0,153.85,104.15Z" style="fill:#d0b581"></path><path d="M159.09,100.79a2.57,2.57,0,0,1,.93.84,1.73,1.73,0,0,0,.56-.38c0-.06,0-.12,0-.18-.19.12-.37.21-.56.31a3.76,3.76,0,0,0-.65-.53,6.81,6.81,0,0,0,1.12-.41s0-.06,0-.12a7,7,0,0,1-1.13.4Z" style="fill:#d0b581"></path><path d="M144.61,103.81l0-.16-.16-.93,0-.12h-.09a11.79,11.79,0,0,1-2.65-.47l-.22-.06,0,.25a.91.91,0,0,0,.31.68,2.78,2.78,0,0,0,.56.34,4.22,4.22,0,0,0,2.28.69Zm-2.71-1a1,1,0,0,1-.25-.59,12.53,12.53,0,0,0,2.68.47l.15.93A4.31,4.31,0,0,1,141.9,102.84Z" style="fill:#d0b581"></path><path d="M153,101.84l-.81.13a5.54,5.54,0,0,1,.07.81l.53-.1c0,.35.06.63.09,1a.47.47,0,0,1-.28.12c-.53.07-.65-.56-.75-1.3s-.06-1.37.34-1.44a.34.34,0,0,1,.41.28,6.56,6.56,0,0,0,.81-.12c0-.47-.41-1-1.31-.87s-1.34.68-1.15,2.33,1,1.93,1.65,1.81a1.59,1.59,0,0,0,1-.65s-.07-.94-.1-1.44S153.26,101.81,153,101.84Z" style="fill:#790020"></path><path d="M154.6,103.28s-.15-2.77-.19-3.09a4.24,4.24,0,0,1-.49,0c-.22,0-.32.18-.32.49s.22,3.4.22,3.4a14.72,14.72,0,0,1,1.9-.19l0-.78C155.38,103.18,155,103.25,154.6,103.28Z" style="fill:#790020"></path><path d="M149.53,100.69l-.75,0c-.19,1.44-.34,2.62-.56,4.18-.31.12-.81.34-1.25.5s-.43-.07-.49-.38a9.19,9.19,0,0,1-.22-1.4,12.15,12.15,0,0,0,1.65-.16c-.06-.34-.1-.65-.16-1l-1.65.18c0-.31-.09-.56-.12-.77.78,0,1.62-.07,2.18-.13a1.54,1.54,0,0,0-1.62-1A8.6,8.6,0,0,1,141,98.89a1.3,1.3,0,0,0,.25.81,6,6,0,0,0,3.43,2.11c.22,1.22.53,3.15.59,3.52.31,1.59,1,1.68,2.24,1.06.59-.31,1.12-.56,1.68-.84.13-1.4.22-2.46.28-3.74.35,1.19.66,2.18,1,3.27.34-.12.72-.25,1-.34l-1.37-3.61C149.93,100.79,149.74,100.66,149.53,100.69Z" style="fill:#790020"></path><path d="M144.45,103.65l-.15-.93a10.91,10.91,0,0,1-2.68-.47,1,1,0,0,0,.25.59A4.45,4.45,0,0,0,144.45,103.65Z" style="fill:#790020"></path><path d="M142.58,104.46a.77.77,0,0,0,.31.5,3.32,3.32,0,0,0,1.84.28l-.15-.9A10.81,10.81,0,0,1,142.58,104.46Z" style="fill:#790020"></path><path d="M159.37,101.32c-.38-.25-.6-.38-.63-.66s.1-.37.41-.47a3.77,3.77,0,0,0,1.12-.62v0c0-.16-.09-.31-.13-.47a3.09,3.09,0,0,1-.09-.31,3.13,3.13,0,0,1-.93.47c-.78.25-1.16.62-1.16,1.43a1.42,1.42,0,0,0,.78,1.37c.38.22.63.44.59.78a.5.5,0,0,1-.31.41,8.32,8.32,0,0,1-1.12-.07c-.37,0-.81-.06-1.24-.06a8.87,8.87,0,0,0,0-1c.35-.06.72-.12,1.06-.15v-.78c-.34,0-.71.09-1.06.15v-.56l1.19-.18v-.87l-1.31.24a.84.84,0,0,0-.65.91c0,.46.12,3.14.12,3.14a13.3,13.3,0,0,1,1.53.06c.46.07,1,.16,1.4.19.75.06,1.21-.47,1.28-1.24A1.8,1.8,0,0,0,159.37,101.32Z" style="fill:#790020"></path><path d="M160,101.38a2.93,2.93,0,0,0,.56-.31c0-.22-.06-.44-.09-.63a6.81,6.81,0,0,1-1.12.41A3.76,3.76,0,0,1,160,101.38Z" style="fill:#790020"></path><path d="M160.67,101.75a2,2,0,0,0-.4.13,2.87,2.87,0,0,1,.19.62,1.35,1.35,0,0,0,.28-.19A4.73,4.73,0,0,1,160.67,101.75Z" style="fill:#790020"></path><path d="M147.38,98.54l.09,1.38s0,.06-.06.06v0l.5-.06v0c-.07,0-.07,0-.07,0l0-.49.25,0c0,.07.31.44.31.47s0,.06,0,.06v0l.5,0v0s-.06,0-.06,0l-.31-.47a.46.46,0,0,0,.31-.49c0-.35-.19-.47-.53-.44l-.87.06v0S147.38,98.51,147.38,98.54Zm.77.19c.16,0,.19.06.19.16s0,.15-.15.18l-.41,0,0-.32Z" style="fill:#790020"></path><path d="M149.56,99.79v0s0,0,0,0a2,2,0,0,0,.06-.28l.53-.06a2.3,2.3,0,0,0,.09.25,0,0,0,0,1,0,0v0l.44-.06v0s0,0-.07-.09c-.15-.4-.49-1.21-.49-1.25s0,0,0,0v0l-.63.1v0s0,0,.07,0-.31,1.31-.31,1.37,0,.06-.07.06v0Zm.22-1.24.24.65-.4,0Z" style="fill:#790020"></path><path d="M151,98.26l.09,1.31s0,.06-.06.06v0l.47,0v0c-.07,0-.07,0-.07,0l0-.34.19-.28c0,.06.34.53.34.56s0,0,0,0v0l.47-.06v0s0,0-.06,0l-.5-.81.34-.44c.06-.06.06-.09.13-.09v0l-.53,0v0s0,0,0,0-.22.31-.38.56h0l0-.5s0,0,.06-.06v0l-.43,0v0A.09.09,0,0,1,151,98.26Z" style="fill:#790020"></path><path d="M152.64,98.14l.06.72c0,.46.28.62.62.56s.53-.22.5-.69l-.06-.71s0,0,.06-.07v0l-.4,0v0c.06,0,.06,0,.06,0l.06.71c0,.22-.06.31-.25.31S153,99,153,98.79l0-.71s0,0,.06,0v0l-.46.06v0A.1.1,0,0,1,152.64,98.14Z" style="fill:#790020"></path><path d="M154.2,98.36c0-.07,0-.07,0-.07l.34,0,.06,1s0,0-.06.06v0l.41,0v0c-.07,0-.07,0-.07,0l-.06-1,.31,0s0,0,0,.07h0l0-.47h0c0,.06,0,.06,0,.06l-.93.06s0,0,0-.09h0Z" style="fill:#790020"></path><path d="M155.57,97.92l.09,1.18s0,0-.06.07v0l.9-.1s0,0,0,.07h0l0-.44h0c0,.06,0,.06,0,.09l-.59,0,0-.22.34,0s.06,0,.06.06h0l0-.41h0s0,.07-.06.07l-.34,0,0-.22.59,0s0,0,0,.06h0l0-.44h0c0,.07,0,.07,0,.1l-.91.06v0C155.57,97.89,155.57,97.92,155.57,97.92Z" style="fill:#790020"></path><path d="M156.87,97.83,157,99s0,0,0,.06v0l.34,0v0s0,0-.06,0l-.07-.78c.5.69.56.72.56.75s0,0,0,0v0l.31,0v0a.1.1,0,0,1-.06,0l-.06-1.15s0,0,0,0v0l-.31,0v0s0,0,0,0l0,.65c-.12-.19-.47-.62-.47-.62s0,0,0,0v0l-.44,0v0C156.87,97.8,156.87,97.83,156.87,97.83Z" style="fill:#790020"></path><path d="M136.6,109.41c.1-.65.19-1.21.25-1.65a17.7,17.7,0,0,0-6.35-4.92c-.43-.18-1.27-.43-1.49.06-1.28,2.93-2,4.71-3,6.51Z" style="fill:#f287b7"></path><path d="M115.18,57.91a15,15,0,0,0,6.79-.56l.09-1.87a20.76,20.76,0,0,1-5.2-.5,15.67,15.67,0,0,1-1.37,2.46A4.22,4.22,0,0,0,115.18,57.91Z" style="fill:#530115"></path><path d="M118.51,48.63a29.4,29.4,0,0,0,2.93-.9l-.18-.41a9.88,9.88,0,0,1-2.68-2.08A23.89,23.89,0,0,1,118.51,48.63Z" style="fill:#f287b7"></path><path d="M119.23,40.22a7.87,7.87,0,0,0-1.4-.12c.09.4.18.81.25,1.21A3.86,3.86,0,0,1,119.23,40.22Z" style="fill:#f287b7"></path><path d="M117.48,67.72a2.77,2.77,0,0,1,1.81-.06c-3.18-2.93-6.23-1.44-7.1-.32a3.73,3.73,0,0,0-.72,2.46,23.66,23.66,0,0,0,3.68.41c.62,0,1.21-.13,1.53-.09A1.74,1.74,0,0,1,117.48,67.72Z" style="fill:#f8c1d9"></path><path d="M144.51,92.66s8.91,4.49,8.82.34C150.21,93.35,146.48,92.48,144.51,92.66Z" style="fill:#f8c1d9"></path><path d="M125.77,75s0,.06,0,.1a10.79,10.79,0,0,1,.62,1.52c.19.62-.09.75-.5.16a32.54,32.54,0,0,1-2.8-6.23,4.06,4.06,0,0,1-4,1.65,4.14,4.14,0,0,1-2.3-1.71,1.84,1.84,0,0,1-.12.18,11.59,11.59,0,0,1-3.9,3.12,15.09,15.09,0,0,0,1.09,1.55c2.34,2.9,5.7,3.71,5,3.71a8.68,8.68,0,0,1-4.21-1.93A13.65,13.65,0,0,0,121.19,84s1.09-2.74,5.32-2c1.53.28-2,0-3.58,1.12s-1.62,5.3,2.21,6.36c-.53-1.25.22-4.64,7.54-3.37-.72-.87-1.71-1.62-2-2.74l.13-.06a39.66,39.66,0,0,0,4.33,3.55l.46-.09a10.61,10.61,0,0,1-2.83-5.55,7.73,7.73,0,0,1,3.55-8,.8.8,0,0,1,.22-.12C132.49,71.89,129.41,72.11,125.77,75Z" style="fill:#f8c1d9"></path><path d="M138.51,26.4s.18.34-.1.4-5.17,1.31-5.17,1.31c-.18-.44-.34-.87.44-1.4S137.54,25.18,138.51,26.4Z" style="fill:#790020"></path><path d="M158.34,36.92c-.78.6-1.49.94-2.33,1.5-11.74-.31-22.49,5-33.51,8.94-.65-3.83-2.3-9.66.94-13.08s14.54-7,19.49-7.2c3.8-.15,11.27.25,13.36,5.24C157,33.81,158,35.34,158.34,36.92Z" style="fill:#790020"></path><path d="M135.8,43.12l-1.37.5a25.41,25.41,0,0,1-1.78,4.82c-2.46,4.24-7.88,5.55-12.52,5a11.17,11.17,0,0,1-2.49-.47c-.12.41-.28.78-.43,1.18,3.42.78,6.91,1.13,10.05-.06a12.48,12.48,0,0,0,7.7-7.38C135.24,45.55,135.92,44.15,135.8,43.12Z" style="fill:#790020"></path><path d="M127.48,51.9a9.64,9.64,0,0,0,5.86-7.85c-5,1.75-9.94,3.86-15,5.55a20.09,20.09,0,0,1-.56,2.67C121.16,53,124.52,53.24,127.48,51.9Z" style="fill:#790020"></path><path d="M128.76,41c-.47.22-1.18.56-1.77.81-.44.19-.69,0-.85-.43,0-.13-.31-.78-.68-1.78.84-.12,1.68-.28,2.49-.47-.19-.43-.34-.87-.5-1.3l-2.46.53c-.12-.38-.28-.72-.37-1,1.12-.19,2.4-.41,3.27-.62a2.47,2.47,0,0,0-2.74-1,29.71,29.71,0,0,1-3,.31,11.51,11.51,0,0,0-.47,1.4h.94c.59,1.5,1.52,4,1.71,4.39.84,2,1.93,2.06,3.61,1.16.84-.47,1.62-.84,2.43-1.34Z" style="fill:#fff"></path><path d="M121.53,41.22c0,.31.07.59.1.9.68,0,1.37-.12,2-.18l-.43-1.12A17.23,17.23,0,0,0,121.53,41.22Z" style="fill:#fff"></path><path d="M122.47,38.88c-.31.07-.62.1-.93.16a9.39,9.39,0,0,0,0,1.06c.44,0,.91-.09,1.37-.16Z" style="fill:#fff"></path><path d="M123.81,41.81l-.25-.59a2.57,2.57,0,0,0-.16-.37l-.06-.16-.06-.19-.16,0-.74.18c-.28.06-.56.16-.88.22v.19c.57-.16,1.12-.28,1.65-.44l.44,1.12a18.94,18.94,0,0,1-2,.19,1.84,1.84,0,0,0,.06.4c.75,0,1.52-.09,2.33-.18,0-.07-.06-.16-.09-.22Z" style="fill:#d0b581"></path><path d="M123.12,40.1l-.09-.22-.41-1.06-.06-.15-.15,0c-.28.06-.56.09-.84.15a.61.61,0,0,1,0,.22c.31-.06.62-.09.93-.15l.4,1.06c-.46.06-.93.12-1.37.15v.47a16,16,0,0,0,1.75-.16Z" style="fill:#d0b581"></path><path d="M130.69,41.84l.22-.12-2.18-.91-.16.1c-.47.22-1.12.53-1.68.74,0,0-.06,0-.09,0a.24.24,0,0,1-.07-.13l-.06-.12c-.09-.22-.28-.72-.53-1.37.75-.13,1.5-.25,2.21-.41l.19,0a1.18,1.18,0,0,1-.06-.19l-.31-.87-.16-.4L128,38l-.16,0a.11.11,0,0,0-.09,0l-.06-.21-.07-.16-.15,0-2,.44v0l-.1-.22c1.19-.19,2.24-.38,3-.56l.22-.06a1.24,1.24,0,0,0-.1-.22,2.09,2.09,0,0,0-.52-.63,2.87,2.87,0,0,0-2.77-.8c-1,.15-1.91.24-2.81.31l-.09.18a23.62,23.62,0,0,0,3-.31,2.49,2.49,0,0,1,2.74,1c-.88.22-2.12.43-3.27.62.09.28.22.62.37,1l2.46-.53c.16.43.31.87.5,1.31-.81.18-1.62.34-2.49.46.37,1,.62,1.65.68,1.78.16.4.41.62.84.43.63-.25,1.34-.59,1.78-.81l1.68.69L128,43.09c-1.68.93-2.77.87-3.61-1.15-.19-.47-1.12-2.9-1.71-4.4h-.94c0,.16-.06.32-.09.5.34,0,.68,0,1,0l.71,1.81c.38,1,.72,1.87.84,2.15a3,3,0,0,0,1.44,1.71l.31.09a.14.14,0,0,0,.12.07,2.78,2.78,0,0,0,2.37-.47l.93-.5,1.44-.78.21-.12Z" style="fill:#d0b581"></path><path d="M47.61,30c-2.55.78-3.49,6.51-2.8,10.24a18.77,18.77,0,0,1-3.15-2,3.8,3.8,0,0,0-1.24-.53,2,2,0,0,0-1.87.47c-1.56-2.93-1-7.16.81-9.16A9.39,9.39,0,0,1,42,26.68a9.89,9.89,0,0,1,9,.43A7.14,7.14,0,0,1,53,29a10,10,0,0,1,.16,10.68,7.89,7.89,0,0,1-1.13,1.25c-1.65-2.53-2.89-7.88-3-10C49,30.26,49,29.54,47.61,30Z" style="fill:#fff"></path><path d="M50.66,28.42c.6-.46.25.66.72.66s.09-1,.44-1.4l-.75-.56c-.34.12-1-.35-1.31-.07s-.22.38-.09.41l1.21.25c-.65,1-2.4.22-2.49.68s.81.25,1.28.41c-.25.65-1.19.59-1.59.53s-.37-.1-.53,0-.09.46.31.49a1,1,0,0,1,.22,0,.92.92,0,0,1,.56,0,.48.48,0,0,1,.31.43c.28.28.34,1.81.78,1.12s-.44-1.4,0-2.08.06,1,.62.9C51.19,29.73,50.07,28.89,50.66,28.42Z" style="fill:#790020"></path><path d="M40.42,37.67c0-1.06-1.62-1.59-1.46-2.12s.62.19.93.28c.12-.81-.78-1.84-1-2a.25.25,0,0,1,.16-.44c.28,0,.4.22.62.38A2.21,2.21,0,0,0,39,31.81a.25.25,0,0,1,.24-.43,4.32,4.32,0,0,0,.6.28,2,2,0,0,0,.09-1.09c-.19-.37-.56-1-.31-1.09s.62.34.62.34a1.91,1.91,0,0,0-.06-1.46c-.06-.22.06-.28.19-.31a.4.4,0,0,1,.4.25,5.55,5.55,0,0,0,.5-1.22v0a7.1,7.1,0,0,1,.78-.5,2.78,2.78,0,0,1,.84-.31c.37,0-1.5.81-1.53,1.71.09-.18.44-.46.66-.25.12.38-.53.75-1,1.09a1.2,1.2,0,0,0-.37.91,2.38,2.38,0,0,1,.4-.44c.12-.09.78,0,.5.31a3.3,3.3,0,0,1-1,1c-.22.31-.15.68-.22,1.21a1,1,0,0,0,.41-.25c.18-.18.4-.43.53-.09,0,.56-.35.65-.75,1.12s-.34,1.12-.22,1.18c.25-.15.31-.93.81-.53.19.91-1.12,1.34-.78,2.31.31-.19.35-1,.91-.72S40,36.55,41,37.51c.34-.4.62-1.27,1-1.12s-.1.84-.47,1.71A4.35,4.35,0,0,0,40.42,37.67Z" style="fill:#790020"></path><path d="M71.62,7.22a21.64,21.64,0,0,1,7.19,8.56c-2.36-2.21-5.6-4.73-9-4.14a5.62,5.62,0,0,0-3.67,5c-.37,3.52,1.12,6.82,3.11,10.12l-2.36,1.62c-4-6.1-6.79-13.48-3.3-19.77,1.06-1.37,2.61-2.93,4.61-2.71A9.3,9.3,0,0,1,71.62,7.22Z" style="fill:#530115"></path><path d="M60.47,57.29a96.81,96.81,0,0,0,11.83,1c3.4.1,3.21,4.83,7.54,5,5,.25,10.09,1,12.64,5.42,1.12,1.8,1.68,3.79.66,5.72-1.78,3.27-9.59,5.2-14.73,6.08-4,.68-8.88.74-12.71-1.84a38.06,38.06,0,0,1-7.25-6.88c6.47.87,11,5,18.46,4.58a8.62,8.62,0,0,0,7.32-5.86c.28-.22.94.34,1.49.75s-.15-1.12-1-1.84a3,3,0,0,0-2.52-.84c-.35,0-1,.62-.63.72s1.37-.16,1.37.56c-.28,2.89-2.89,5.07-5.85,5.7-6.17.53-12.18-3.09-18.4-4.67-1.87-.41-4.92-.91-6.79,2.8-3.3-3.46-6-8.16-4.49-12.49S52.78,56.14,60.47,57.29Z" style="fill:#fcaf17"></path><path d="M107.55,24.68c7.47,6.85,12.08,17.07,9.5,26.07-1.15,3-2.21,6.13-4.52,8.28-2-11.37-11.46-21-18.49-30.3-2.8-3.39-5.79-6.85-8.38-10.18C92.45,15,101.57,19.45,107.55,24.68Z" style="fill:#790020"></path><path d="M73.67,6c10.62,8.31,9.72,22.54,18.59,32.32a20.35,20.35,0,0,0,12.52,5.39l1.37,2.15c-5.54-.19-11.86-2.62-15.6-7.35C82.24,29,83.08,16.84,73.77,8,71.68,6.16,68.5,4.66,66,5.35c-4.2,1.86-5.14,7.56-4.42,12.17a27.53,27.53,0,0,0,5,11.3l-.5.44a24.25,24.25,0,0,1-5.63-17.9c.53-3.49,2.24-6.29,5.38-7.51C68.29,3.17,71.34,4.44,73.67,6Z" style="fill:#790020"></path><path d="M104.25,43A19.93,19.93,0,0,1,87.81,30.47L81.27,14.59C88.87,23.94,97,33,104.25,43Z" style="fill:#790020"></path><path d="M112.32,26.43c.56.65,1.77,2.37,1.15,3.24-.06.09-.28.15-.28.15a41.5,41.5,0,0,0-3.4-4.26.68.68,0,0,1,.6-.38A3,3,0,0,1,112.32,26.43Z" style="fill:#790020"></path><path d="M88.81,18.83a1.62,1.62,0,0,1,.22-.06l.21-.09.53-.19a1.86,1.86,0,0,0,.34-.13l.16,0,.16-.06-.19-.15-.81-.66-.12-.09a14.86,14.86,0,0,0-1.59.31C88.06,18.08,88.43,18.46,88.81,18.83Z" style="fill:#d0b581"></path><path d="M94.91,25.71l.37.25-.12-.37.4.25-.84-2.31-.28-.18c-.71-.5-1.71-1.19-2.49-1.78a.23.23,0,0,1-.12-.12s.06,0,.12-.07l.13,0c.21,0,.68-.18,1.34-.37.8.75,1.68,1.49,2.55,2.27l.25.22a1.22,1.22,0,0,1,.21-.06l.88-.28.43-.13.16-.06-.19-.15-.09-.1.22-.06.18,0-.25-.19c-.93-.74-1.71-1.43-2.42-2l.18-.06c1.34,1.15,2.65,2.27,3.61,3.05l.29.25a1.41,1.41,0,0,0,.21-.1A.52.52,0,0,0,100,23c.41-.5-.18-1.53-1.62-2.74-1-.85-1.9-1.62-2.7-2.37a18.25,18.25,0,0,0-3.09-.59c.16.18.35.37.5.56l-1.68.53c-.93.28-1.74.53-2,.62-.84.31-1.19.68-1,1.21a1.53,1.53,0,0,0,.13.32s0,.06,0,.09c.15.56.93,1.31,2.52,2.37l1.49,1C93.29,24.62,94,25.15,94.91,25.71Z" style="fill:#d0b581"></path><path d="M90.55,18.27l.28-.09.22-.06,1-.31.15,0L92,17.65a4.1,4.1,0,0,0-.41-.34,15.15,15.15,0,0,0-2,.06C89.9,17.65,90.21,18,90.55,18.27Z" style="fill:#d0b581"></path><path d="M90.83,18l1-.31-.44-.38c-.4,0-.84,0-1.25,0C90.33,17.52,90.58,17.74,90.83,18Z" style="fill:#fff"></path><path d="M94.44,23.56c-.71-.5-1.8-1.24-2.64-1.9-.63-.43-.53-.65-.13-.77.13,0,.75-.25,1.71-.53.91.84,1.87,1.68,2.87,2.52.43-.13.87-.25,1.34-.41L94.6,20a9.55,9.55,0,0,0,1-.28c1.28,1.09,2.78,2.37,3.93,3.3.75-.43,0-1.55-1.37-2.68-1-.87-2-1.68-2.8-2.49a17.46,17.46,0,0,0-2.09-.4c.15.15.31.34.5.5-1.4.43-3.68,1.12-4.11,1.27-1.84.66-1.06,1.69,1.46,3.4,1.34.9,2.55,1.77,4,2.74Z" style="fill:#fff"></path><path d="M89.06,18.52l1-.34c-.31-.28-.65-.53-1-.78l-1,.19A11.74,11.74,0,0,0,89.06,18.52Z" style="fill:#fff"></path><path d="M75,14a21.1,21.1,0,0,1,4.89,4.15c2.71,6.35,4.3,13,8.44,19C82.92,38.29,79.19,45.64,77.22,52A74,74,0,0,0,76,60c-1.09-1.31-2.21-2.68-4.27-2.62-.5,0-.93,0-1.4,0,3-6.38,5.39-14.82,4-22.6a5.94,5.94,0,0,0-2.18-3.4l-.07,0,1.22,2.31a3.65,3.65,0,0,0-1.84-1.4c-4-1.12-7.91,5.66-9.34,9.4S60.38,51.87,60.85,56.6l-2.18-.31C57.92,45.77,61,32.94,69.81,27.67a21.37,21.37,0,0,0,8.35,7.07c-.13-1.65-.1-3.83,1.46-4.64l.81-.28c-.19-.31-.75-.28-1.09-.28-1.06.19-2,1.06-1.93,3.18a7,7,0,0,1-.47-5.89,1.8,1.8,0,0,1,1.65-.9c-.24-.72-.84-.81-1.55-.4-1.12.65-1.59,2.33-1.5,3.8a11.62,11.62,0,0,0,1.56,4.29,23.25,23.25,0,0,1-9.65-13.14c-.25-2.46-.25-5.6,1.8-6.94C70.87,12.23,73.14,13.13,75,14Z" style="fill:#8a3f1e"></path><path d="M106.43,46.76c-4.24-.12-9.15-2-12.92-4.33,2.27,8.1-1.59,16-5.51,21.52a9.66,9.66,0,0,1,3.51,2.21l0,0c4.48-.65,8.75,2.43,10.37,5,.12.22.27.44.37.63a1.06,1.06,0,0,1-.1.12c1-1,3.52-3.39,4.61-4.73s4.39-5.55,4.46-8.47C111.29,54.55,108.92,50.25,106.43,46.76Z" style="fill:#8a3f1e"></path><path d="M71.18,44.18c-2.33-.81-5,4.51-4.89,7.59,0,1.28.32,3.43,1.81,3.86,2.15.63,3.58-4,3.89-5.32a33.24,33.24,0,0,0,.63-3.64A2.45,2.45,0,0,0,71.18,44.18Zm-.37,6.69c-.4,1.53-1.43,2.49-2.24,2.15s-1.12-1.9-.72-3.43a2.94,2.94,0,0,1,1.68-2.18c-.25,1.28.07,2.46.75,2.74a.74.74,0,0,0,.65,0A3,3,0,0,1,70.81,50.87Z" style="fill:#00b7ce"></path><path d="M90.43,49.81c-2.49-1.09-5.83,4.42-6,7.75-.06,1.37.06,3.71,1.68,4.3,2.3.87,4.26-3.92,4.73-5.39a27.59,27.59,0,0,0,1-3.86A2.7,2.7,0,0,0,90.43,49.81Zm-1,7.19c-.59,1.62-1.77,2.56-2.64,2.09s-1.1-2.15-.5-3.74a3,3,0,0,1,2-2.18c-.37,1.34-.12,2.65.59,3a.94.94,0,0,0,.72.07A4.26,4.26,0,0,1,89.46,57Z" style="fill:#00b7ce"></path><path d="M71.87,33.22c-1-.84-2.68-.07-3.83.74-5.51,4.89-7.26,15.08-6.39,22.8a31,31,0,0,0,4.42.5c1,.06,3,.4,4-1.28a2.86,2.86,0,0,1-1.56.44,2.55,2.55,0,0,1-2.08-1.5c-1.72-3.11-.13-7.44,1.15-9.25s2.86-2.58,4.17-2.08a2.82,2.82,0,0,1,1.43,2.27V46l.1-.31C74.67,39.26,73.8,34.87,71.87,33.22Z" style="fill:#fff"></path><path d="M88.5,62.21a3,3,0,0,1-2.12.56A2.73,2.73,0,0,1,84.23,61c-1.65-3.49.5-8,2-9.87,1.69-2,3.37-2.52,4.77-1.87a3,3,0,0,1,1.37,2.59,8.27,8.27,0,0,1-.13,1.43c.53-1.93,1.72-6.45.53-10.87A24.8,24.8,0,0,1,89,38.17c-1.75-.81-11.31,5.38-12.27,22.35.06,1.06,1.21,1.62,2.15,2s5.54.43,8.4,1.15A8.21,8.21,0,0,0,88.5,62.21Z" style="fill:#fff"></path><path d="M90.89,50.81c-.81-.44-1.86.43-2.42,1.93s-.35,3,.46,3.45,1.9-.43,2.43-1.93S91.71,51.21,90.89,50.81Z" style="fill:#fff"></path><path d="M69.66,47c-.38,1.4-.1,2.83.65,3.15s1.68-.57,2.06-2,.09-2.83-.66-3.14S70,45.61,69.66,47Z" style="fill:#fff"></path><path d="M94.51,72.54c.06-2.08-1.16-4.35-3-6.35,4.48-.65,8.75,2.43,10.37,5,.12.22.28.44.37.63,0,0-.06.09-.09.12a34.49,34.49,0,0,1-3.34,2.71c-.49.34-.49.68.47.12a68,68,0,0,0,7.2-5.35A17.8,17.8,0,0,0,116,70.8c-2.86,2.59-7.6,4.2-11.43,4.86,0,0-1.21-.38-1.9-.62s.13.9,1.37,1.43a18.36,18.36,0,0,0,3.9,1.15c-2.59,2-6.82,4.14-12.21,1.18-1.68.91-7.19,1.75-10.28,1.06C93.64,77.46,94.51,74.69,94.51,72.54Z" style="fill:#ca6c18"></path><path d="M111.2,90.23l-1.43,1.62a16.35,16.35,0,0,1-2.34-2.3C108.64,88.92,109.89,90.08,111.2,90.23Z" style="fill:#790020"></path><path d="M42.88,80.8l1.46,1.4a25.62,25.62,0,0,1,5-9.94,18.1,18.1,0,0,1-1.25-1.83A15.86,15.86,0,0,0,42.88,80.8Z" style="fill:#790020"></path><path d="M50.17,73.32c-.13-.15-.35-.4-.47-.56-2.27,2.28-5.3,8.35-5.42,13.58a4,4,0,0,1,.62.22A25.07,25.07,0,0,1,50.17,73.32Z" style="fill:#fff"></path><path d="M50.6,73.88a25.15,25.15,0,0,0-5.11,12.9c.19.09.44.18.69.28.53-4.67,2.9-10.15,5-12.58-.06-.1-.25-.25-.31-.35S50.69,74,50.6,73.88Z" style="fill:#d0b581"></path><path d="M72.06,81.73l-.32,0a14,14,0,0,1-3.92-1c.06.72.19,1.65.44,3a.53.53,0,0,0,.15-.12A16.66,16.66,0,0,1,72.06,81.73Z" style="fill:#790020"></path><path d="M44.9,86.56c.13.06.41.15.59.21A25,25,0,0,1,50.6,73.88c-.12-.12-.31-.43-.44-.56A25.05,25.05,0,0,0,44.9,86.56Z" style="fill:#790020"></path><path d="M102.11,92.72a1.2,1.2,0,0,0-1.1-1,7.78,7.78,0,0,0-4,2l1.55,1.12C99.43,93.75,101.36,93.07,102.11,92.72Z" style="fill:#ca6c18"></path><path d="M103.54,94.25c-.19-.9-.41-1.09-.94-1.09a9,9,0,0,0-3.55,2,13.12,13.12,0,0,1,1.41.62A11.2,11.2,0,0,1,103.54,94.25Z" style="fill:#ca6c18"></path><path d="M103.48,96.4c.43-.22.87-1,.49-1.4a5.33,5.33,0,0,0-2.49,1.24C102,97,102.85,96.71,103.48,96.4Z" style="fill:#ca6c18"></path><path d="M106.37,109.41h1.09l.19-.4c1.59-3.86,3.7-6.6,3.42-7.51a6,6,0,0,0-3-2.67c-1.33-.6-2.77.37-2.49.68.69.72,1.09-.19,1.66.13,1.12.56,2.83,1.71,2.33,2.8C109.3,103.09,107.77,106.49,106.37,109.41Z" style="fill:#ca6c18"></path><path d="M115.43,102.22c-.74-3.36-3.67-6.57-5.48-8.68s-6.32-6.73-11-8A47.69,47.69,0,0,1,115.43,102.22Z" style="fill:#ca6c18"></path><path d="M101.23,109.41c.5-1.46,1.09-2.86,1.53-4.11.09-.25-.9-.68-1.09-.43a43.91,43.91,0,0,0-1.81,4.54Z" style="fill:#ca6c18"></path><path d="M96.65,88.74a11.06,11.06,0,0,0-3.26,2.08l1.18.88a12.52,12.52,0,0,1,3.36-2.22A1.77,1.77,0,0,0,96.65,88.74Z" style="fill:#ca6c18"></path><path d="M83.05,104.62a5.69,5.69,0,0,0,1.43,2.4,27.23,27.23,0,0,0,2.9,2.43h1.55A27.61,27.61,0,0,1,83.05,104.62Z" style="fill:#ca6c18"></path><path d="M116,105.71a36.55,36.55,0,0,1-1.4,3.7h1.34a20.49,20.49,0,0,0,1.28-4.26c.09-1.56.06-3.68-1.62-4.64A8.54,8.54,0,0,1,116,105.71Z" style="fill:#ca6c18"></path><path d="M100.11,91a1.6,1.6,0,0,0-1.43-1,9.89,9.89,0,0,0-3.55,2.22l1.25,1A21.23,21.23,0,0,1,100.11,91Z" style="fill:#ca6c18"></path><path d="M90,109.41h5.36a26.46,26.46,0,0,1-12.3-8.12c-.75.43-.65,1.37-.47,2A30.68,30.68,0,0,0,90,109.41Z" style="fill:#ca6c18"></path><path d="M99.71,108.08a17,17,0,0,0,.87-2.31c-6-2.83-11.71-6.32-16.19-11A2.79,2.79,0,0,0,83,96.87,31.33,31.33,0,0,0,99.71,108.08Z" style="fill:#ca6c18"></path><path d="M100.71,105.37c1-1.53.12-2.87-1.1-3.71s-9-6.57-13.29-10.24a3.46,3.46,0,0,0-1.18,1.77,2,2,0,0,0,.59,1.93A59.59,59.59,0,0,0,100.71,105.37Z" style="fill:#ca6c18"></path><path d="M98.15,109.42h1.12c.06-.25.16-.53.25-.88A29.88,29.88,0,0,1,82.74,97.36c-.41,1.37.34,2.81,1.18,4A25.48,25.48,0,0,0,98.15,109.42Z" style="fill:#ca6c18"></path><path d="M95.29,96.83c-.53-.43-.57-1.8,1.86-2A20.91,20.91,0,0,0,95,93.1a22.31,22.31,0,0,0-5.27-3.27A4.27,4.27,0,0,0,86.69,91c3.86,3.12,7.82,6.14,11.8,9.13A31.61,31.61,0,0,0,95.29,96.83Z" style="fill:#ca6c18"></path><path d="M97,88.24a2,2,0,0,1,1.59,1.06A3.67,3.67,0,0,1,100.89,91a2.9,2.9,0,0,1,1.84,1.56c.71,0,1.71,1.34,1.49,1.77a1.44,1.44,0,0,1,.41,1.75,2,2,0,0,1-1.5,1.24s1.56,1.53,2.06,1.37,2-1.43,3.83-.18c1.24.84,3.33,2.3,2.71,3.7s-2.62,5.39-2.62,5.39c-.22.4-.53,1.06-.87,1.84h5.7a11.41,11.41,0,0,0,1.52-6.29,52.16,52.16,0,0,0-13.73-15.29l-3.8-2.43c-1.06.22-2.55.43-2.86,1.65C95.69,87.09,96.75,87.34,97,88.24Z" style="fill:#ca6c18"></path><path d="M96,88a1.21,1.21,0,0,0-1.37-.34c.5.25,1,.94,1.37.87S96.13,88.15,96,88Z" style="fill:#ca6c18"></path><path d="M92.61,89.89c-.25-.22-1.22-1.12-1.81-.59l2,1.12S92.86,90.11,92.61,89.89Z" style="fill:#ca6c18"></path><path d="M94.41,89.11c.31.25.69-.21.56-.37-1.24-1.28-2.08-.81-1.83-.62S94,88.71,94.41,89.11Z" style="fill:#ca6c18"></path><path d="M92.05,88.92a4.59,4.59,0,0,1,1.06.78c.31.31,1-.09.81-.25s-1.1-1-1.63-1S91.74,88.77,92.05,88.92Z" style="fill:#ca6c18"></path><path d="M101.86,109.41h2.27a5.76,5.76,0,0,1-1.77-1.28Z" style="fill:#8a3f1e"></path><path d="M117.61,101.78c.87,2.12,1.68,5.11,1.28,5s-.72-.69-1-1a23.77,23.77,0,0,1-1,3.55h2.28A16.35,16.35,0,0,0,119,99.2c-1.12-3.52-4.26-5.39-7.44-7-.47-.18-1.18-.46-1.25.32A60.65,60.65,0,0,1,115,99.35,4.17,4.17,0,0,1,117.61,101.78Z" style="fill:#8a3f1e"></path><path d="M96.16,96.58c3.45,2.65,5.7,8.29,10.4,10.19.65-1.31,1.27-2.78,2-4-1.12-.65-2.52-2.21-3.86-3.18C97,94.06,95.53,96.12,96.16,96.58Z" style="fill:#8a3f1e"></path><path d="M102.64,107.39c.46.68,1.83,1.68,2,2h.84c.25-.68.47-1.31.65-1.74l-2.89-1.9Z" style="fill:#8a3f1e"></path><path d="M46.87,24.84s-.1-1.34-.13-2-1.9-.16-2.33,2.12A9,9,0,0,1,46.87,24.84Z" style="fill:#8a3f1e"></path><path d="M54.46,40.1c1.19-1.53,1.81-3.3,2-8.1.1-3.39,1.56-6.82.47-6.73-1.93.16-2.58,1.9-3.18,3.31A10.85,10.85,0,0,1,53.84,40c-.87,1.56-1.62,1.12-1.12,2.62Z" style="fill:#8a3f1e"></path><path d="M38,55c.25-.78.47-.46.34.47A35.05,35.05,0,0,0,43,76.81a19,19,0,0,1,4.7-7.07c-2.83-5-1.86-8.56.16-11a7.8,7.8,0,0,1,5.08-2.55l-1.65-3.43a10.65,10.65,0,0,0-.63,1.59c-.18.62-.43.5-.4-.16.22-3.77,1.37-6.44,1.84-9.65.21-1.53-.57-2.87-1.65-4.89-1.47-2.74-2.18-8.1-2.31-8.72s-1,0-1.65,1.12c-.84,1.37-2,7-.19,9.72-.06.68-.71,1.06-1.21,1.4-1.34,1,.75,2.05-1,2.71-.81.31-2.18,2.12-1.71,6a6.12,6.12,0,0,1-.34-5,4.39,4.39,0,0,1-4.52-1.05c-.4-.5,0-.32.19-.19a5.52,5.52,0,0,0,5.64-.22c.4-.25.77-.9.34-1s-3.61-1.8-5.42-2c-.87-.12-1.28.72-1.68,1.34-2.15,4.11,0,8.94.84,12.77C37.55,56.45,37.71,55.82,38,55Z" style="fill:#8a3f1e"></path><path d="M38.46,41.75c2.83.71,5.2,1.77,6.91.25.44-.41-2.65-1.93-3.86-3-2.24-2.27-3.8,1.37-4.17,3A1.51,1.51,0,0,1,38.46,41.75Z" style="fill:#8a3f1e"></path><path d="M74.89,93.35,73,93.28v-.06h2.09v.16Z" style="fill:#fff"></path><path d="M65.61,97.18a2.24,2.24,0,0,1-1.46-1l.22.68.06.22h-.19l-1.37.09h-.12l0-.15,0-.09h-.06l0-.16-.44-1.87-.28-1.12c-.12,1.06-.28,2.15-.46,3.46l0,.09-.1,0c-.43.13-.81.19-1.21.28l-.81.19a2,2,0,0,1-1.81-.22s0,0-.06,0-.16-.09-.25-.16a2.77,2.77,0,0,1-.71-1.8c0-.25-.13-1.06-.22-2l-.16-1.78a6.26,6.26,0,0,1-2.21-1.74,6.58,6.58,0,0,1-1-1.25c0,8.81,4.23,14.89,7.66,20.55H69A68.34,68.34,0,0,1,65.61,97.18Z" style="fill:#fff"></path><path d="M60.44,92.63h-.15c-.57,0-1.41-.13-2.31-.25l0,.19v0l1.56.09h.12v.16l0,.18h.19l0,.16,0,.34.1.87s0,.16,0,.19C60.19,93.94,60.32,93.28,60.44,92.63Z" style="fill:#fff"></path><path d="M58.2,94.41c.06.62.12,1.09.15,1.27v.13a.21.21,0,0,0,0,.15h.09a11.58,11.58,0,0,0,1.37-.22c.09-.4.16-.77.22-1.15h-.16A16.53,16.53,0,0,1,58.2,94.41Z" style="fill:#fff"></path><path d="M92.33,80.45a17.8,17.8,0,0,1-8.22-.06s-1.19.28-2.9.59a44.26,44.26,0,0,1-7.32.81,18.13,18.13,0,0,0-5.51,2.65,5,5,0,0,0-1.49,1.87,11.47,11.47,0,0,0-1.13,4.61c1.28.15,1.78,1,1.78,1.65v.56h-.16l-1.24-.06H66v-.19a.3.3,0,0,0-.06-.13.52.52,0,0,0-.34-.15.3.3,0,0,0-.28.12c-.22.25-.19.91-.16,1.47a4.83,4.83,0,0,0,.06.71c.13.44.32.72.69.75a.72.72,0,0,0,.25,0l0-.72-.63,0H65.3l-.06-1.77h.15l1.25.06a.86.86,0,0,1,.68.31,1.2,1.2,0,0,1,.25.62c0-.12,0-1.59,0-1.77a.47.47,0,0,1,0-.22v-.16c0-.52.25-.81.69-.81a6.8,6.8,0,0,1,.81.07h.15v4.45c.44,0,1,.09,1.78.19h0c0-1.31.09-2.9.09-2.9a1.33,1.33,0,0,1,.16-.65,1.28,1.28,0,0,1,1.4-1.09c.84,0,1.77,0,2.55-.07h.19l0,.22-.1,1.06a2.35,2.35,0,0,0,.19-.25,3,3,0,0,1,2.58-1.34,11.14,11.14,0,0,0,5.83-2.74l.25-.21.06.34a1.82,1.82,0,0,1-.37,1.34A9.37,9.37,0,0,1,82.46,91a7.8,7.8,0,0,1-4.71,2.18,2.77,2.77,0,0,0-.4.09c0,.28.34.53,1,.94l.22.12c1.31.9,1.84,2,1.56,3.18a2.12,2.12,0,0,1-1.31,1.59,2.65,2.65,0,0,1-2.21.18c-.5-.15-1-.31-1.53-.5s-.81-.28-1.18-.4c-1.06-.34-2.15-.56-2.71-.69l-.12,0-.19,0a21.14,21.14,0,0,0-3.08-.4H67.6v-.56l-.06.06a2.23,2.23,0,0,1-1.34.53,82.21,82.21,0,0,0,3.36,12.2H86.19c-2.58-2.08-3.83-3.73-4.17-5.38-.47-2.28-.16-3,.44-3.49a7.71,7.71,0,0,1-.29-4.17,3.41,3.41,0,0,1-.68.31,3.58,3.58,0,0,1-1.06.37A2.41,2.41,0,0,0,80,95.4h.31a15.83,15.83,0,0,0,2.12-.12l.15,0a3.92,3.92,0,0,1,1.59-1.56c.06-2.31,3-5,5.42-4.61,1-.65,1.09-.69,1.52-.75a2.44,2.44,0,0,1,1.25-.65,1.46,1.46,0,0,1,1.31-.34c.4-.19.62-1.53,2.08-2.15a7.07,7.07,0,0,1,3.74-.41C97.31,83.57,94.22,81.42,92.33,80.45Z" style="fill:#fff"></path><path d="M67.2,80.48c-3.49-1.71-6.42-4.82-8.94-7.72A2.66,2.66,0,0,0,54,72.51c-1.59,1.56-1.72,2.74-2.34,2.43C50.07,76.84,47.83,81,46.8,87.3a19.18,19.18,0,0,1,5.36,3.12,16.63,16.63,0,0,1,.74-6.32c.38-.91.57-1,.38.25a25.77,25.77,0,0,0-.34,3.39,8.65,8.65,0,0,0,5.35,2.65,2.23,2.23,0,0,1,1.9,1.34,1.83,1.83,0,0,1,.28.65l0,.12c.1-.53.19-1,.31-1.62l0-.15H61s.72.06,1,.06a.94.94,0,0,1,.78.72l.1.28s0,.06,0,.12l.75,2.31c0-.13,0-.22,0-.35a3.5,3.5,0,0,1,.5-2.39,1.56,1.56,0,0,1,1.22-.6,11.2,11.2,0,0,1,2.55-6.72A15.85,15.85,0,0,1,67.2,80.48Z" style="fill:#fff"></path><path d="M51.16,74.48c-2.09,2.42-4.45,7.9-5,12.58.19.09.4.15.59.25,1-6.3,3.3-10.47,4.89-12.37A5.48,5.48,0,0,1,51.16,74.48Z" style="fill:#790020"></path><path d="M72.87,96.12c.74.15,1.52.34,2.24.53l.53.15a15.9,15.9,0,0,0,1.74.41.64.64,0,0,0,.22,0s0-.07,0-.1c.09-.31-.22-.65-1-1.18a2.77,2.77,0,0,1-1.49-2.34v0a4.43,4.43,0,0,0,0,.63c0,.22,0,.4,0,.62V95h-.22v.31h-.16L73,95.21A4.73,4.73,0,0,0,72.87,96.12Z" style="fill:#fff"></path><path d="M70,101.16a.91.91,0,0,0-1.12-.5.78.78,0,0,0-.47,1.06.91.91,0,0,0,1.12.5A.76.76,0,0,0,70,101.16Z" style="fill:#e4d4b8"></path><path d="M68.79,85.31a.93.93,0,0,0-.6,1.09.78.78,0,0,0,1,.53.93.93,0,0,0,.59-1.09A.76.76,0,0,0,68.79,85.31Z" style="fill:#e4d4b8"></path><path d="M72.08,107.73a.9.9,0,0,0-1.12-.5.78.78,0,0,0-.46,1.06.89.89,0,0,0,1.12.5A.78.78,0,0,0,72.08,107.73Z" style="fill:#e4d4b8"></path><path d="M66.67,93.35l-1.25-.07c0,.38,0,.72,0,1.09l.81,0c0,.47,0,.88,0,1.34a.83.83,0,0,1-.41.1c-.78-.07-.93-.94-1-2s0-1.83.63-1.8a.51.51,0,0,1,.56.47l1.27.06c0-.66-.53-1.43-1.93-1.5-1.09,0-1.93.63-1.8,2.84s1.27,2.83,2.24,2.89a2.43,2.43,0,0,0,1.62-.53s0-1.3,0-2S67.11,93.35,66.67,93.35Z" style="fill:#790020"></path><path d="M71.06,96c-.62-.06-1.37-.15-1.93-.18V91.35s-.47,0-.81,0-.53.19-.53.62c0,.6.06,4.8.06,4.8a26.36,26.36,0,0,1,3.21.44Z" style="fill:#790020"></path><path d="M61.87,91c-.25,0-1-.06-1-.06-.31,1.74-.59,3.14-.94,5l-1.46.22c-.37,0-.5-.22-.53-.59,0-.13-.09-.72-.19-1.65.66.09,1.28.15,1.93.21,0-.4-.09-.81-.12-1.24-.69,0-1.31-.1-1.9-.13q0-.51-.09-.93c.87.12,1.83.22,2.52.25a2.07,2.07,0,0,0-1.87-1.47A8.65,8.65,0,0,1,52.91,88a3.23,3.23,0,0,1,0,.62s0,.06,0,.06a6.5,6.5,0,0,0,3.23,2.78c.16,1.4.41,3.64.44,4.07.25,1.87,1,2.22,2.43,1.87.71-.18,1.37-.31,2.08-.5.25-1.68.41-3,.6-4.54.37,1.56.68,2.89,1,4.36.47,0,1-.06,1.4-.1l-1.61-5A.77.77,0,0,0,61.87,91Z" style="fill:#790020"></path><path d="M53.18,91.51a1,1,0,0,0,.22.65,4.94,4.94,0,0,0,2.46,1.37l-.09-1.06A9.89,9.89,0,0,1,53.18,91.51Z" style="fill:#790020"></path><path d="M54.25,94.59a3.37,3.37,0,0,0,1.83.75l-.12-1A8.58,8.58,0,0,1,54,94,.89.89,0,0,0,54.25,94.59Z" style="fill:#790020"></path><path d="M78.16,91c-1.68.22-2.55.75-2.65,2a2.63,2.63,0,0,0,1.43,2.46c.78.5,1.31,1,1.16,1.47a.73.73,0,0,1-.75.49,20.75,20.75,0,0,1-2.3-.56c-.75-.18-1.59-.4-2.37-.56,0-.46,0-1.09.06-1.55l2.06.09c0-.4,0-.81.06-1.25-.69,0-1.4-.06-2.09-.06,0-.4,0-.43.06-.84.72,0,1.5,0,2.31,0l.09-1.37c-.78,0-1.68.06-2.55.06a1.16,1.16,0,0,0-1.28,1.19c0,.68-.12,4.7-.12,4.7a28.68,28.68,0,0,1,2.83.68c.9.28,1.87.66,2.8.91,1.62.46,2.71-.16,3-1.47a2.7,2.7,0,0,0-1.46-2.92c-.75-.53-1.28-.81-1.25-1.28s.25-.56.91-.65a7.87,7.87,0,0,0,5.6-3.18A1.39,1.39,0,0,0,84,88.21,11.54,11.54,0,0,1,78.16,91Z" style="fill:#790020"></path><path d="M78.47,93.63a9.94,9.94,0,0,1,1.4,1.12,6.16,6.16,0,0,0,3.36-1.37,1,1,0,0,0,.28-.78A14.82,14.82,0,0,1,78.47,93.63Z" style="fill:#790020"></path><path d="M80.74,96.74a4.38,4.38,0,0,0,1.59-.65,3,3,0,0,1,.22-.56v0a14.44,14.44,0,0,1-2.15.13A3.06,3.06,0,0,1,80.74,96.74Z" style="fill:#790020"></path><path d="M59.88,89.83c-.06,0-.09,0-.09-.07v-.59h.28c0,.07.37.59.37.63a.06.06,0,0,1-.06.06v0H61v0s-.06,0-.09-.06l-.38-.63a.54.54,0,0,0,.41-.59c0-.4-.19-.59-.63-.62H59.26v0c.06,0,.09,0,.09.06l0,1.68s0,.07-.09.07v0Zm-.13-1.44h.5a.19.19,0,1,1,0,.38h-.5Z" style="fill:#790020"></path><path d="M62,89.89a.11.11,0,0,1-.07,0s0-.07.1-.35l.71,0c0,.06.13.31.13.34s0,0-.07,0v0h.6v0s-.07,0-.1-.13c-.18-.56-.59-1.65-.59-1.68s0,0,.06-.06v0H62v0s.06,0,.06,0-.47,1.62-.5,1.71,0,.07-.06.1v0H62v0Zm.34-1.53.31.87h-.56Z" style="fill:#790020"></path><path d="M64.55,90c-.06,0-.09,0-.09-.06v-.44l.28-.31a8.17,8.17,0,0,1,.43.81c0,.06,0,.06-.06.06v0h.72v0s-.06,0-.1-.06l-.65-1.15.53-.56c.06-.09.09-.13.19-.13v0H65v0s.06,0,.06.07-.34.4-.59.68h0v-.65s0-.06.09-.06v0h-.62v0c.09,0,.09,0,.09.06l0,1.71s0,.06-.09.06v0h.62Z" style="fill:#790020"></path><path d="M67.32,90.08c.5,0,.87-.19.87-.88l0-1s0-.07.1-.07v0H67.6v0c.1,0,.1,0,.1.07l0,1a.37.37,0,0,1-.41.41.36.36,0,0,1-.4-.41l0-1s0-.06.09-.06v0h-.65v0c.09,0,.09,0,.09.06l0,1A.8.8,0,0,0,67.32,90.08Z" style="fill:#790020"></path><path d="M68.94,88.55h.56l0,1.43s0,.07-.09.07v.06l.69,0v-.06c-.1,0-.1,0-.1-.07l0-1.43h.56s.06,0,.06.09h0l0-.68h0c0,.09,0,.09-.06.09l-1.62,0s-.06,0-.06-.09h0v.68h0Q68.9,88.55,68.94,88.55Z" style="fill:#790020"></path><path d="M73,90.26h0v-.68h0c0,.09,0,.12-.06.12l-1.09,0V89.3h.62a.08.08,0,0,1,.09.09h0v-.62h0a.08.08,0,0,1-.09.09h-.62v-.31h1.09s.06,0,.06.12h0V88h0c0,.09,0,.12-.06.09l-1.68,0v.06c.09,0,.09,0,.09.07l0,1.8s0,.06-.09.06v0l1.68,0C73,90.2,73,90.2,73,90.26Z" style="fill:#790020"></path><path d="M74.36,90.17c-.09,0-.09,0-.09-.06l0-1.25c.93,1.19,1,1.25,1,1.28s0,0-.09,0v.06h.65v-.06c-.09,0-.09,0-.09-.06l0-1.84s0-.06.09-.06v0h-.65v.06c.06,0,.06,0,.06.06l0,1.06c-.25-.31-.87-1.06-.87-1.09s0-.06.09-.06v0h-.84v0c.1,0,.1,0,.1.06l0,1.84s0,.06-.1.06v.06h.66Z" style="fill:#790020"></path><path d="M76,107.05h.62l.44,1.65h-3l-.47-1.65h.6L73.18,103h-.63l-.34-1.22,1-1.27h1.15Z" style="fill:#d0b581;fill-rule:evenodd"></path><path d="M74.11,100.76h-.75l-.81,1.12.22.81h.63l1.24,4.64H74l.31,1.09h2.43l-.31-1.09h-.59Z" style="fill:#790020;fill-rule:evenodd"></path><path d="M80.21,106.89l-1.12-4.54-.15-.13H77.88l-.09.13,1.15,4.54.15.13h1Zm-3.45-6.41h2.43l1.37,1.18,1.43,6-.78,1.12H78.84l-1.33-1.12-1.53-6Z" style="fill:#d0b581;fill-rule:evenodd"></path><path d="M80.52,107l-.21.31H79l-.37-.31-1.22-4.77.22-.31H79l.37.31Zm-3.58-6.26-.65,1,1.46,5.7,1.16.94H81l.66-.94-1.37-5.7-1.16-1Z" style="fill:#790020;fill-rule:evenodd"></path><path d="M105.56,88.15l.69.49,1.61-1.37c-.24-.06-.62-.15-.93-.25Z" style="fill:#790020"></path><path d="M106.06,86.81c-.34-.1-.59-.16-.94-.28l-1,.62c.25.15.44.31.72.5A8.44,8.44,0,0,1,106.06,86.81Z" style="fill:#790020"></path><path d="M100.76,85.12a32.29,32.29,0,0,1,3.37,2l1-.62C103.57,86.09,101.86,85.53,100.76,85.12Z" style="fill:#fff"></path><path d="M56.05,94.16h-.12A10.15,10.15,0,0,1,54,93.84l-.15-.06V94a1.09,1.09,0,0,0,.31.72c.09.09.19.15.31.25l.06.06a3.48,3.48,0,0,0,1.72.74c0-.21-.07-.52-.1-.8l-.09-.66Zm0,1.18a3.43,3.43,0,0,1-1.84-.75A.94.94,0,0,1,54,94a8.75,8.75,0,0,0,2,.31Z" style="fill:#d0b581"></path><path d="M80.4,95.43h-.31a2.42,2.42,0,0,1,.4,1.68,4.25,4.25,0,0,0,1.06-.37,5.14,5.14,0,0,0,.69-.31c0-.09.06-.22.09-.31a3.76,3.76,0,0,1-1.59.65,3.26,3.26,0,0,0-.34-1.12,15.43,15.43,0,0,0,2.15-.12v0a1.47,1.47,0,0,1,.12-.25l-.15,0C81.8,95.4,81.21,95.43,80.4,95.43Z" style="fill:#d0b581"></path><path d="M84.26,88.15l-.06-.35L84,88a10.92,10.92,0,0,1-5.82,2.74c-1.09.16-2.15.44-2.59,1.34a1.8,1.8,0,0,0-.18.25l.09-1.06,0-.22h-.19c-.78,0-1.68.06-2.55.06a1.29,1.29,0,0,0-1.4,1.09,1.4,1.4,0,0,0-.16.66s0,1.62-.09,2.89h0c-.75-.09-1.34-.12-1.78-.18V91.13h-.15l-.81-.06c-.44,0-.69.28-.69.81V92c0,.06,0,.15,0,.22s0,2,0,1.77a1.16,1.16,0,0,0-.25-.62.86.86,0,0,0-.68-.31L65.45,93H65.3l.06,1.78h.19l.62,0,0,.72a.72.72,0,0,1-.25,0c-.37,0-.59-.28-.68-.75a5.33,5.33,0,0,1-.07-.72,2.84,2.84,0,0,1,.16-1.46.31.31,0,0,1,.28-.12.39.39,0,0,1,.34.15.25.25,0,0,1,.06.13V93h.16l1.25.07h.15V92.5c0-.71-.59-1.61-2.08-1.68a1.7,1.7,0,0,0-1.47.63,3.5,3.5,0,0,0-.5,2.39c0,.13,0,.22,0,.35l-.74-2.31s0-.09,0-.12l-.1-.28a.87.87,0,0,0-.78-.72c-.24,0-1-.06-1-.06h-.13l0,.15c-.09.56-.18,1.13-.31,1.62l0-.12a1.83,1.83,0,0,0-.28-.65,2.28,2.28,0,0,0-1.9-1.34,8.5,8.5,0,0,1-5.35-2.65v.22a8.65,8.65,0,0,0,5.35,2.61A2.09,2.09,0,0,1,60.16,92c-.69,0-1.65-.13-2.52-.25q0,.42.09.93c.59.06,1.25.1,1.9.13,0,.43.09.81.12,1.24-.62-.06-1.27-.12-1.93-.22.1.94.16,1.56.19,1.65,0,.38.19.63.53.6L60,95.87c.38-1.81.63-3.24.94-5,0,0,.71.06,1,.06a.83.83,0,0,1,.66.62c.62,1.93,1.62,5,1.62,5-.41,0-.94.07-1.4.1-.35-1.47-.69-2.81-1-4.36-.19,1.59-.38,2.89-.59,4.54-.72.19-1.37.32-2.09.5-1.4.34-2.18,0-2.43-1.87-.06-.43-.28-2.67-.43-4.08A6.57,6.57,0,0,1,53,88.64a.1.1,0,0,0,0-.06v.28a7.69,7.69,0,0,0,1,1.25,6.93,6.93,0,0,0,2.21,1.74l.19,1.74c.09.94.19,1.75.22,2a2.94,2.94,0,0,0,.71,1.8.72.72,0,0,0,.25.16s0,0,.06,0a1.83,1.83,0,0,0,1.81.22l.81-.19,1.21-.28.1,0,0-.09c.19-1.31.34-2.37.47-3.46l.28,1.12.43,1.87,0,.15h.07l0,.1,0,.15H63L64.33,97h.19l-.06-.22-.22-.68A2.19,2.19,0,0,0,66,97.21a2.23,2.23,0,0,0,1.65-.56l.07-.07v.56h.15a27.8,27.8,0,0,1,3.08.41l.19,0,.13,0A26.33,26.33,0,0,1,74,98.3c.37.12.77.25,1.18.4s1,.34,1.52.5A2.59,2.59,0,0,0,78.9,99a2.08,2.08,0,0,0,1.31-1.59c.28-1.21-.25-2.27-1.55-3.17l-.22-.13c-.62-.43-1-.65-1-.93l.41-.09a7.77,7.77,0,0,0,4.7-2.18A10.46,10.46,0,0,0,84,89.48,2,2,0,0,0,84.26,88.15ZM59.85,95.74,58.48,96h-.1a1.3,1.3,0,0,1,0-.15v-.13c0-.22-.09-.65-.12-1.28a14.2,14.2,0,0,0,1.71.19h.16C60,95,59.91,95.37,59.85,95.74Zm.22-1.15s0-.19,0-.19l-.1-.87,0-.34,0-.16h-.19l0-.18v-.16h-.12L58,92.6v0l0-.19c.9.12,1.74.22,2.3.25h.16C60.32,93.28,60.19,93.94,60.07,94.59Zm5.82,2.21c-.93-.06-2.06-.68-2.24-2.89s.71-2.87,1.8-2.84c1.4.06,1.93.81,1.93,1.5l-1.27-.07c0-.28-.25-.43-.56-.46-.63,0-.69.78-.63,1.8s.19,1.9,1,2a.86.86,0,0,0,.41-.1c0-.47,0-.87,0-1.34l-.81,0c0-.37,0-.71,0-1.09l1.25.06a.81.81,0,0,1,.78.94c0,.65,0,2,0,2A2.31,2.31,0,0,1,65.89,96.8Zm5.14.34a28.47,28.47,0,0,0-3.21-.43s0-4.21-.06-4.8c0-.43.18-.65.53-.62s.81,0,.81,0v4.45c.56,0,1.3.13,1.93.19Zm4-2.33a4.58,4.58,0,0,0,0-.62c0-.19,0-.41,0-.63v0a2.76,2.76,0,0,0,1.5,2.34c.81.53,1.12.87,1,1.18a.11.11,0,0,1,0,.09.45.45,0,0,1-.22,0,12,12,0,0,1-1.75-.41l-.53-.15c-.71-.19-1.49-.38-2.24-.53,0-.28,0-.6,0-.91l1.69.1h.15V95h.22Zm-.09-1.46L73,93.28v-.06h2.09v.16A1,1,0,0,1,74.92,93.35Zm8.81-4a7.81,7.81,0,0,1-5.6,3.18c-.66.09-.91.28-.91.65s.5.75,1.25,1.28c1.24.84,1.74,1.83,1.46,2.92-.31,1.28-1.37,1.93-3,1.47-.9-.25-1.9-.63-2.8-.91a26.79,26.79,0,0,0-2.83-.68s.09-4,.12-4.7a1.18,1.18,0,0,1,1.28-1.19c.87,0,1.77,0,2.55-.06l-.09,1.37c-.81,0-1.59,0-2.31,0a7.72,7.72,0,0,1-.06.84c.69,0,1.4.06,2.09.06,0,.41,0,.81-.07,1.25l-2.05-.09c0,.46-.06,1.09-.06,1.55.78.16,1.62.38,2.36.56a19.36,19.36,0,0,0,2.31.56.67.67,0,0,0,.75-.49c.12-.5-.41-1-1.16-1.47A2.55,2.55,0,0,1,75.51,93c.09-1.27,1-1.77,2.65-2a11.76,11.76,0,0,0,5.91-2.77A1.51,1.51,0,0,1,83.73,89.36Z" style="fill:#d0b581"></path><path d="M78.47,93.44l-.53,0a7,7,0,0,1,2,1.68,6.59,6.59,0,0,0,2.46-.93,3.28,3.28,0,0,0,1-.69,1.24,1.24,0,0,0,.34-.93v-.28l-.25.09A16.36,16.36,0,0,1,78.47,93.44Zm4.8,0a6.34,6.34,0,0,1-3.37,1.37,7.54,7.54,0,0,0-1.4-1.12,15.62,15.62,0,0,0,5.08-1A1.48,1.48,0,0,1,83.27,93.41Z" style="fill:#d0b581"></path><path d="M56.05,94l0-.25,0-.19-.1-1v-.13l-.09,0a10.18,10.18,0,0,1-2.52-1l-.19-.09v.28a1.46,1.46,0,0,0,.25.78,3.71,3.71,0,0,0,.5.47A5.32,5.32,0,0,0,56.05,94Zm-2.87-2.49a11.36,11.36,0,0,0,2.56,1l.09,1.06a4.89,4.89,0,0,1-2.46-1.37A2.59,2.59,0,0,1,53.18,91.51Z" style="fill:#d0b581"></path></g></g></svg>