
<svg viewBox="0 0 360.871 480" version="1.1" id="svg6" width="360.871" height="480" xmlns="http://www.w3.org/2000/svg">
  <defs id="defs10"></defs>
  
  <g fill="#ffc427" id="g4">
    <path d="M 291.879,102.155 97.712,102.17 c 0,0 11.606,16.691 11.606,48.41 v 24.553 H 68.22 c -9.864,0 -17.859,-7.996 -17.859,-17.859 V 57.44 c 0,-9.822 8.037,-17.859 17.859,-17.859 l 133.257,0.002 c 10.251,0.137 16.992,10.317 15.592,20.473 -1.356,9.834 -6.491,15.723 -6.491,15.723 l 52.876,0.001 V 52.886 C 263.453,23.678 239.776,0 210.567,0 H 52.885 C 23.677,0 0,23.678 0,52.886 v 109.912 c 0,29.208 23.677,52.885 52.885,52.885 h 145.491 c 9.862,0 17.859,7.996 17.859,17.859 v 95.228 c 0,9.815 -8.031,17.846 -17.846,17.846 H 159.672 V 234.71 H 109.318 V 346.615 H 65.36 c -9.857,0 -17.846,-7.99 -17.846,-17.846 v -9.507 c 0,-31.632 8.502,-38.942 8.502,-38.942 L 3.141,280.319 v 53.963 c 0,29.203 23.675,52.878 52.878,52.878 h 53.298 v 44.429 c 0,31.718 -11.606,48.41 -11.606,48.41 L 291.903,480 c 38.09,0 68.968,-30.878 68.968,-68.968 v -239.89 c 0,-38.103 -30.889,-68.99 -68.992,-68.987 z m 18.638,309.838 c 0,15.042 -12.194,27.236 -27.235,27.236 h -123.61 v -52.07 h 54.047 c 29.203,0 52.877,-23.674 52.877,-52.878 V 228.019 c 0,-29.208 -23.678,-52.886 -52.886,-52.886 h -54.038 v -32.208 h 123.615 c 15.039,0 27.231,12.192 27.231,27.232 z" id="path2"></path>
  </g>
</svg>
