<svg xmlns="http://www.w3.org/2000/svg" viewBox="0 0 182.86 194.42"><g id="레이어_2"><g id="레이어_1-2"><path d="M168.29,95.17l.06.08s-.08-.1-.06-.08" style="fill:#fff;fill-rule:evenodd"></path><path d="M182.82,90.17Zm-91.2,79.3Zm-.78,0h0Zm30-7.76v.13l0,.28a2.12,2.12,0,0,0,1.26,1.8,2,2,0,0,0,2.13-.31l1.55-1.36,2-1.86a27.9,27.9,0,0,0,8.1-18.53s0-1.55,0-2a71.66,71.66,0,0,0,25.66-38.81l.06-.46a2.08,2.08,0,0,0-.34-1.06,12.43,12.43,0,0,0,2.61-1l4.56-2.62a9.36,9.36,0,0,0,2.34,1.8,2,2,0,0,0,2,0l9.15-5.28a2.07,2.07,0,0,0,1-1.77l0-.42a2,2,0,0,0-1.77-1.61,2.11,2.11,0,0,1-1.91-2.26v-.2c0-1.09,0-6.46,0-6.46v-1a13.37,13.37,0,0,0-.59-4,9.46,9.46,0,0,0-1.4-2.81s-2.66-3.48-2.66-3.48a1.82,1.82,0,0,0-.58-.48l3.76-4.42,1.57-1.85a2,2,0,0,0,.49-1.32l-.09-.61a9.33,9.33,0,0,0-1.77-3.27l-.18-.21a9.32,9.32,0,0,0-4.79-2.83,10.48,10.48,0,0,0-4.29-.09,12.11,12.11,0,0,0-3.78,1.33l-1.22.71a.36.36,0,0,1,.29,0c-.33,0-1.27.57-4.91,2.67a9.68,9.68,0,0,0-1.51-.86h0a2.06,2.06,0,0,0,.47-1.31l-.17-.82a70.67,70.67,0,0,0-6.54-11.69l.66-1a45.85,45.85,0,0,0,4.56-10.9,18.1,18.1,0,0,0,.71-4.83,13.28,13.28,0,0,0-1.61-6.43,19.13,19.13,0,0,0-3.2-4.19,28.23,28.23,0,0,0-5.51-3.94C140.94,8.47,124.19.39,96.84,0l-2,0C71.82,0,57.51,5.73,51,9.15a35.65,35.65,0,0,0-8.94,6.21,2,2,0,0,0-.52,1.34s.06.32.11.56a31.18,31.18,0,0,0-6.44,5.83l-2.87,3.83A2,2,0,0,0,32,28.15a2,2,0,0,0,.33,1.11,2,2,0,0,0,2.17.88l2.34-.54c-.26.94-.5,1.88-.68,2.91a48.27,48.27,0,0,0-.7,8,71.75,71.75,0,0,0-7.64,12.66l-.19.86a2.05,2.05,0,0,0,.66,1.51l.17.09a18,18,0,0,0-3,2.72,1.86,1.86,0,0,0-.25-.43,2,2,0,0,0-2.59-.46l-4.26,2.47L3.11,68.71a2,2,0,0,0,.18,3.63L5.87,73.5a2.09,2.09,0,0,0,1.73,0l.66-.22a1.5,1.5,0,0,1,1.26.26,1.43,1.43,0,0,1,.46,1.1v34.54a18.38,18.38,0,0,1-.31,3.55c-.27.84-1.28,2.43-4.88,3.22a.45.45,0,0,1,.28,0c-.13-.06-.13-.06-2.88.33l-.3,0a2.06,2.06,0,0,0-1.51,3.24l4,5.48a2,2,0,0,0,1.36.81,1.76,1.76,0,0,0,.94-.14l-.11,0a51.58,51.58,0,0,0,9.77-3.16l1-.44A49.27,49.27,0,0,1,23,120c1.53-.41,3.15-.78,4.83-1.09l1.1-.19,2-.29a1.8,1.8,0,0,0-.1.4,2.05,2.05,0,0,0,.29,1,71.67,71.67,0,0,0,14.35,17.16,49.46,49.46,0,0,0,5.17,7.77l1.8,2.05,1.08,1.1.18.17s.92.87.92.87l.32.28.72.64.37.31.7.56.42.33.67.51.41.3-.89.42a2.06,2.06,0,0,0-1.31,1.76v.15a2,2,0,0,0,1,1.78l1.17.64.92.51,2.17,1.1L65.05,160l.1,0,1.13.46.34.13,1.85.69.55.2.87.29,1,.32.58.19,1.52.44.35.1,1.41.38.47.12,1.73.4,1.21.27.23,0-.24.23a2.09,2.09,0,0,0-.74,1.6l0,.41a2,2,0,0,0,1.41,1.56l1.18.35,1.68.43.4.09,1.17.26,1.08.2,1.09.18.22,0h0a5.28,5.28,0,0,0,.84.12l.24,0,.81.1.37,0,.72.06.29,0,.76,0,.44,0,.4,0,.71,0s0,0-.08,0a5.59,5.59,0,0,0,.86,0h.3l1.27,0c1.47,0,3-.16,4.47-.34l.45-.06.81-.12.7-.12.83-.15.67-.13.76-.17h-.11c.19,0,.46-.08,1-.19l.61-.15,1.43-.39,1.57-.5,3.54-1.33.21-.08,1.46-.66.3-.13,1.4-.69.33-.17,1.34-.71.3-.18,1.16-.67.16-.1a2,2,0,0,0,.22-.15s0,0,0,0l1.23-.76.46-.31,1.15-.78.51-.35.18-.13,0,.19s0,.33,0,.33l0,.45,0,.35a0,0,0,0,1,0,0Z" style="fill:#fff;fill-rule:evenodd"></path><path d="M168.11,94.75a.41.41,0,0,0-.24.4.45.45,0,0,0,0,.16l.08.12h0a0,0,0,0,1,0,0l0,0h0c0,.06.11.06.16.08a.3.3,0,0,0,.23.07c.13,0,.25,0,.31-.12a.32.32,0,0,0,.06-.16.3.3,0,0,0,0-.12l0-.06a.4.4,0,0,0-.07-.21l0-.06v0a.37.37,0,0,0-.5-.17" style="fill:#fff;fill-rule:evenodd"></path><path d="M136.62,46.22v0a2.33,2.33,0,0,0-.87-1.22c-.19-.12-.34-.15-.43-.09s-.11.21-.07.42a42.17,42.17,0,0,1,.8,5.29.76.76,0,0,0,.1.3.67.67,0,0,0,.21.23,44.24,44.24,0,0,0,4.72,2.82.52.52,0,0,0,.51,0,.46.46,0,0,0,.17-.48,1.78,1.78,0,0,0-.86-1.22l0,0a39.87,39.87,0,0,1-4-1.76c0-1.26-.21-4.26-.23-4.25" style="fill:#002448;fill-rule:evenodd"></path><path d="M124.53,50.37a2.09,2.09,0,0,0,0-.76,2.17,2.17,0,0,0-.21-.72c-.1-.2-.21-.29-.31-.28h0c-.11,0-.2.13-.26.34a33.55,33.55,0,0,1-1.86,5,.59.59,0,0,0-.07.31.58.58,0,0,0,.07.3,35.87,35.87,0,0,0,2.77,4.76.51.51,0,0,0,.45.27.53.53,0,0,0,.39-.36,1.58,1.58,0,0,0,.09-.76,1.76,1.76,0,0,0-.26-.72l0,0a33.25,33.25,0,0,1-2.68-3.48,30,30,0,0,0,1.85-3.82" style="fill:#002448;fill-rule:evenodd"></path><path d="M120.33,50.48a1.87,1.87,0,0,0,.17-.73,2.29,2.29,0,0,0-.07-.76c-.07-.21-.17-.33-.27-.33h0c-.1,0-.22.08-.31.28a35.71,35.71,0,0,1-2.72,4.59.82.82,0,0,0-.12.3.64.64,0,0,0,0,.31,36.37,36.37,0,0,0,1.88,5.16.52.52,0,0,0,.4.34.47.47,0,0,0,.44-.27,1.57,1.57,0,0,0,.22-.73,1.84,1.84,0,0,0-.12-.76l0,0a35.08,35.08,0,0,1-2-3.89,33.54,33.54,0,0,0,2.5-3.44" style="fill:#002448;fill-rule:evenodd"></path><path d="M116.09,49.88l0,0a2,2,0,0,0,.29-.7,2.19,2.19,0,0,0,0-.75c0-.22-.12-.35-.22-.37s-.23.06-.36.24a45,45,0,0,1-3.43,4.11.72.72,0,0,0-.16.27.94.94,0,0,0,0,.32,48.5,48.5,0,0,0,1,5.38.5.5,0,0,0,.33.39.54.54,0,0,0,.48-.21,1.71,1.71,0,0,0,.33-.69,1.67,1.67,0,0,0,0-.77v0a36.1,36.1,0,0,1-1.35-4.15,34.76,34.76,0,0,0,3-3" style="fill:#002448;fill-rule:evenodd"></path><path d="M103.68,43.64a1.66,1.66,0,0,0,.49-.58,1.86,1.86,0,0,0,.24-.72c0-.23,0-.38-.16-.44h0c-.11-.07-.27,0-.45.09l-4.44,3.17a.65.65,0,0,0-.2.23.76.76,0,0,0-.1.3l-.36,5.39c0,.23,0,.38.16.44s.28,0,.47-.1a1.78,1.78,0,0,0,.49-.58,1.69,1.69,0,0,0,.23-.72v0s-.14-3.07-.18-4.3l3.78-2.11" style="fill:#002448;fill-rule:evenodd"></path><path d="M127.63,115.32l.06.1-.06-.1m2.5,26.13a2.17,2.17,0,0,0,0,.26,22.83,22.83,0,0,1-2.06,8.54,22,22,0,0,1-1.11,2.08,22.83,22.83,0,0,1-1.64,2.36s0,0,0,0l-.15-.45a.45.45,0,0,0,0-.11l-.18-.53-.06-.14-.09-.26,0-.08a1.22,1.22,0,0,0-.07-.17,2.33,2.33,0,0,0-.11-.28l-.06-.17-.13-.31a.42.42,0,0,1,0-.1l-.18-.39,0-.07c0-.11-.09-.21-.14-.31a.25.25,0,0,1,0-.07l-.15-.31s0,0,0,0h0a3.41,3.41,0,0,0-.17-.33.6.6,0,0,1-.08.08c-.91.88-1.84,1.72-2.78,2.52l-.07,0q-.42.36-.84.69l-.33.27-.59.46-.32.25-1.25.93-.26.18c-.43.3-.86.6-1.3.89l-.18.12c-.47.31-.93.6-1.4.89l0,0-1.44.84-.13.08-1.42.76-.19.1c-.48.24-1,.47-1.43.69l-.19.09c-.48.22-1,.43-1.46.63l-.15.07c-.51.21-1,.41-1.54.59l0,0c-1.08.4-2.18.75-3.29,1h0q-.83.23-1.65.42h-.06c-.55.13-1.1.24-1.65.34h-.06a38.85,38.85,0,0,1-7.16.66c-.5,0-1,0-1.49,0l-.68,0-.77,0L88.19,164l-.25,0c-.42,0-.83-.1-1.25-.16l-.17,0c.19-.23.37-.46.53-.67a37,37,0,0,0,2.56-3.74l-1.51-.08-1.58-.11-.44,0-.69-.06a63.36,63.36,0,0,1-11.29-2.22l-.07,0-1.38-.42-.1,0-1.4-.47-.16-.06-1.17-.41a2.08,2.08,0,0,0-.32-.12l-1.31-.51h0c-.53-.21-1-.43-1.57-.66l-.34-.14h0c.91-.65,1.65-1.25,2.2-1.7l.58-.48q-1.9-.87-3.63-1.83l-1.15-.66-.61-.38-.29-.18-.75-.49-.37-.24-.62-.44c-.33-.23-.65-.46-1-.7l-.25-.2-.52-.41c-.6-.49-1.17-1-1.74-1.51s-1.16-1.1-1.71-1.68c-.38-.41-.76-.83-1.13-1.27l0-.06a5.71,5.71,0,0,1-.39-.47h0a16.27,16.27,0,0,0,1.33,1.06c.26.19.53.38.81.56l.46.3a.37.37,0,0,0,.27.24l.08,0,.38.24a58.05,58.05,0,0,0,7.57,3.68l.41.17c3.08,1.24,5.72,2.1,6.64,2.4a69.94,69.94,0,0,0,9.06,2c1.29.19,2.61.35,3.92.48h0a37.22,37.22,0,0,0,5.66.13,22.8,22.8,0,0,0,3.79-.52,15.32,15.32,0,0,0,4.66-2.1,13.44,13.44,0,0,1-1,2.32c-.21.39-.43.76-.65,1.1-.12.19-.25.37-.37.55A18.68,18.68,0,0,1,96.25,156a25.15,25.15,0,0,0,3.76-3.18l.66-.71A24.67,24.67,0,0,0,104.2,147a21.23,21.23,0,0,0,2.12-6.23,5.84,5.84,0,0,0,.17-.64c1.37-5.69,4.13-8.6,6.49-10.21a12.85,12.85,0,0,1,2.22-1.21l.26-.19a.62.62,0,0,1,0,.09,14.66,14.66,0,0,1-2.1,5.76l1.45-.18a17,17,0,0,0,3.75-1,10.94,10.94,0,0,0,3.67-2.34,7,7,0,0,1,.23,4.08l1.61-1.19a29.73,29.73,0,0,0,2.72-2.35,18,18,0,0,0,1.32-1.42,31.6,31.6,0,0,1,1.68,6.23,28.21,28.21,0,0,1,.35,5.31m-12.22-10.67c.09-.39.17-.75.22-1.1a12.11,12.11,0,0,0,.16-2.15l.14-.16a26.47,26.47,0,0,0,3.73-6.59c.18-.48.35-1,.5-1.48a17.35,17.35,0,0,0,.72-4c.08.09.15.19.22.28,1.58,2.14,3.18,5.63,3.31,11.3v.36a5.55,5.55,0,0,1-.33.53,14.69,14.69,0,0,1-1.89,2.11,7.44,7.44,0,0,0-1-2.61l-.89-1.29a8.26,8.26,0,0,1-3,3.7,9.61,9.61,0,0,1-1.84,1.07h0m41.6-30.24a11.11,11.11,0,0,1-1.4.1,10.68,10.68,0,0,1-2.49-.29c-.26-.06-.5-.13-.74-.2A64.79,64.79,0,0,1,145,121c-.73,1-1.67,2.19-2.6,3.31,0-1.75,0-3.55-.08-5.35a.49.49,0,0,0-.25-.45h0a.48.48,0,0,0-.52.13,1.81,1.81,0,0,0-.62,1.43v0a40,40,0,0,1,.61,4.53,41.57,41.57,0,0,0-3.65,2.49l0,0a2.17,2.17,0,0,0-.44.66,2.09,2.09,0,0,0-.18.76c0,.24.06.38.16.43s.26,0,.43-.17c.86-.8,1.74-1.56,2.65-2.3-.76.87-1.39,1.55-1.69,1.87a61.12,61.12,0,0,1-5.7,5.21,33.29,33.29,0,0,0-2.48-7.25,27.84,27.84,0,0,0-.35-3.72c.68-1,1.39-2,2.14-3a.69.69,0,0,0,.13-.3.88.88,0,0,0,0-.32c-.45-1.83-1-3.7-1.61-5.52a.51.51,0,0,0-.37-.37h0a.5.5,0,0,0-.46.26,1.65,1.65,0,0,0-.28.75,1.85,1.85,0,0,0,.06.79l0,0a40.63,40.63,0,0,1,1.8,4.21c-.44.43-1.13,1.24-1.73,2a24.49,24.49,0,0,0-1.67-4.67c-.11-.23-.66-1.18-.65-1.18a15.91,15.91,0,0,0-7.74-6.65l-.2-.09a27.58,27.58,0,0,1,.07,6.4c-.46-1-.94-2-1.47-3a.5.5,0,0,0-.41-.31h0a.54.54,0,0,0-.43.33,1.67,1.67,0,0,0-.15.79,1.62,1.62,0,0,0,.18.77l0,0s1.26,1.85,2,3.15a16.21,16.21,0,0,1-1,3.52c.4-.93-.49,1.15-.58,1.33a13.2,13.2,0,0,1-2.09,3.24,15.89,15.89,0,0,0-5,2.3c-3,2-6.25,5.66-7.83,11.79v0a.73.73,0,0,0,0,.08l-.12.48h0v0a4,4,0,0,1-.2.63s-.07.26-.14.57a10.64,10.64,0,0,1-8.7,7.33l-1.44,0A64,64,0,0,1,69,143.65a.6.6,0,0,0,.17-.31c.53-1.76,1.16-3.47,1.88-5.23a.78.78,0,0,0,0-.32.71.71,0,0,0-.08-.31c-.9-1.65-1.88-3.32-3-4.92a.51.51,0,0,0-.45-.27h0c-.15,0-.29.14-.38.37a1.61,1.61,0,0,0-.07.8,1.72,1.72,0,0,0,.26.74l0,0a40.61,40.61,0,0,1,2.82,3.59,39.84,39.84,0,0,0-1.88,4l0,0a2.06,2.06,0,0,0,0,.79,2.12,2.12,0,0,0,.23.76l0,0-.11,0c-.51-.21-2-.75-3.9-1.65.42-1,.87-2,1.35-3.08a.79.79,0,0,0,.07-.32.76.76,0,0,0-.06-.32c-.81-1.69-1.71-3.42-2.71-5.07a.5.5,0,0,0-.43-.29h0c-.16,0-.3.13-.4.35a1.71,1.71,0,0,0-.12.79,1.66,1.66,0,0,0,.23.76l0,0a43.68,43.68,0,0,1,2.62,3.74c-.42.66-1.13,2-1.61,2.89-.78-.4-1.62-.85-2.47-1.36l-.89-.55.62-1.06a.63.63,0,0,0,.1-.3.87.87,0,0,0,0-.33c-.63-1.76-1.34-3.57-2.17-5.32a.49.49,0,0,0-.4-.33h0a.53.53,0,0,0-.44.31,1.73,1.73,0,0,0-.19.78,1.61,1.61,0,0,0,.14.77l0,0a43.23,43.23,0,0,1,2.23,4c-.19.24-.44.57-.7.94-1.15-.71-2.55-1.6-3.43-2.15,0,0,0,0,0,0a.69.69,0,0,0,0-.33c-.6-1.77-1.29-3.59-2.09-5.35-.09-.22-.24-.34-.39-.34h0a.49.49,0,0,0-.44.3,1.61,1.61,0,0,0-.21.78,1.81,1.81,0,0,0,.13.78l0,0s1.2,2,1.87,3.38c-6.16-4-12.19-10.6-16.6-17.38-1.83,0-3.58.13-5.22.29a69.72,69.72,0,0,0,14.2,16.91,46.74,46.74,0,0,0,5.14,7.77c.55.67,1.13,1.33,1.72,2,.34.35.68.7,1,1l.19.2.85.8a3.85,3.85,0,0,1,.3.27l.69.59.35.29.66.55.4.31.65.49.45.33.63.43.6.42.36.24c.31.2.62.4.94.59l.08,0,.16.1,0,0-.12.07a25.12,25.12,0,0,1-4.12,2c.45.26.91.5,1.36.75l.68.37.07,0c.68.36,1.35.7,2,1h0l0,0c1.17.56,2.34,1.09,3.54,1.6,0,0,.05,0,.08,0l1.11.45.32.12c.6.24,1.2.46,1.8.68l.54.19.84.29.81.26.71.22,1.47.44.48.13,1.23.33.47.12c.55.13,1.1.27,1.66.39l1.18.25,1,.19.22,0,1.11.19h.07c.37.07.76.13,1.13.18l.32.05a2.06,2.06,0,0,0,.26,0l-.27.3a29.18,29.18,0,0,1-2.91,2.85l0,.06c.38.12.76.22,1.15.33s1.07.29,1.61.42l.38.09.23.05.88.19h0l1,.2h.11l.9.15.21,0,.81.11.28,0,.73.09.34,0,.69.06.38,0,.64,0,.42,0,.63,0h1.53l1.14,0c1.43,0,2.86-.15,4.27-.33l.43-.05.88-.14.56-.09.8-.15.66-.13.71-.15.79-.19.58-.14c.46-.12.92-.24,1.37-.38h0l1.47-.47c1.15-.38,2.28-.8,3.4-1.27l.18-.08c.47-.2,1-.41,1.42-.63l.28-.13,1.35-.66.31-.16,1.29-.69.29-.17,1.12-.65.36-.22c.4-.23.79-.48,1.18-.73l.44-.29c.38-.25.75-.51,1.11-.76l.47-.33,1.07-.77.61-.47.39-.3.68-.54c0,.22.11.44.17.67a1.74,1.74,0,0,0,.05.22c0,.16.07.31.1.47s0,.2.06.3,0,.29.08.43l.06.34c0,.17,0,.34.08.52s.06.4.08.61,0,.24,0,.36,0,.31,0,.47l0,.35,0,.5a.19.19,0,0,1,0,.08l1.55-1.36,0,0c.64-.57,1.25-1.14,1.82-1.72a25.86,25.86,0,0,0,7.51-17.19c0-1,0-1.94,0-2.87a69.28,69.28,0,0,0,25.72-38.35m-77.8,28,0,0a43.34,43.34,0,0,1,3.56,2.85c-.37,1.22-1,4.32-.92,4.33v0a2.24,2.24,0,0,0,.15.78,2.13,2.13,0,0,0,.39.68c.16.17.3.23.41.19s.18-.18.19-.41a55.54,55.54,0,0,1,.63-5.52,1,1,0,0,0,0-.33.73.73,0,0,0-.15-.29c-1.25-1.39-2.59-2.8-4-4.11a.51.51,0,0,0-.5-.15h0a.54.54,0,0,0-.29.45,1.7,1.7,0,0,0,.11.79,1.76,1.76,0,0,0,.43.67m5-2.53,0,0a40.48,40.48,0,0,1,3.74,2.63,40,40,0,0,0-.65,4.37v0a2,2,0,0,0,.18.77,2.37,2.37,0,0,0,.44.66c.17.16.32.21.42.16s.17-.2.17-.43a54.81,54.81,0,0,1,.28-5.54.74.74,0,0,0,0-.32.63.63,0,0,0-.16-.28c-1.34-1.32-2.77-2.64-4.27-3.86a.48.48,0,0,0-.5-.12h0a.52.52,0,0,0-.26.47,1.61,1.61,0,0,0,.16.78,1.64,1.64,0,0,0,.47.64m-14.43,6.86,0,0s2.35,2.27,3.18,3.28A42.56,42.56,0,0,0,74,140.4v0a1.79,1.79,0,0,0,0,.79,2.11,2.11,0,0,0,.3.73q.21.28.39.24c.1,0,.19-.16.24-.39.34-1.81.79-3.58,1.31-5.39a.72.72,0,0,0,0-.33.75.75,0,0,0-.11-.3,57,57,0,0,0-3.47-4.59.51.51,0,0,0-.47-.22.53.53,0,0,0-.34.42,1.52,1.52,0,0,0,0,.79,1.61,1.61,0,0,0,.34.72M77.17,131l0,0a41.39,41.39,0,0,1,3.33,3.13,43.52,43.52,0,0,0-1.27,4.24v0a2,2,0,0,0,.08.79,1.88,1.88,0,0,0,.34.71c.14.18.28.25.39.22s.19-.16.22-.4c.26-1.82.63-3.61,1.07-5.44a.62.62,0,0,0,0-.33.82.82,0,0,0-.12-.3c-1.14-1.49-2.36-3-3.67-4.42a.49.49,0,0,0-.48-.2.53.53,0,0,0-.33.43,1.65,1.65,0,0,0,0,.79,1.92,1.92,0,0,0,.37.71m19.37-10.62,0,0a41.16,41.16,0,0,1,3.51,2.93,39.75,39.75,0,0,0-1,4.3v0a2.34,2.34,0,0,0,.51,1.47c.15.17.3.23.41.19s.17-.18.19-.41c.15-1.83.41-3.64.74-5.5a.76.76,0,0,0,0-.33.71.71,0,0,0-.14-.29c-1.22-1.42-2.54-2.86-3.93-4.19a.51.51,0,0,0-.49-.17h0a.52.52,0,0,0-.3.45,1.68,1.68,0,0,0,.09.79,1.87,1.87,0,0,0,.42.68m36.76,6c.11,0,.25,0,.4-.22a53,53,0,0,1,3.72-4.12,1,1,0,0,0,.16-.29.74.74,0,0,0,0-.32c-.2-1.86-.48-3.79-.87-5.68a.49.49,0,0,0-.32-.41h0c-.15,0-.32,0-.49.2a1.61,1.61,0,0,0-.37.71,1.53,1.53,0,0,0,0,.79v0s1,3.11,1.24,4.4a40.56,40.56,0,0,0-3.27,3l0,0a2.18,2.18,0,0,0-.34.72,2.14,2.14,0,0,0-.07.78c0,.23.11.36.22.39M112,114.56l0,0a43.59,43.59,0,0,1,3,3.44c-.58,1.14-1.71,4.08-1.68,4.1v0a2.1,2.1,0,0,0,0,.79,2.38,2.38,0,0,0,.26.74c.13.2.26.28.38.26s.21-.15.26-.38c.43-1.78,1-3.53,1.6-5.31a.87.87,0,0,0,0-.33.76.76,0,0,0-.1-.31c-1-1.59-2-3.22-3.21-4.76a.49.49,0,0,0-.46-.24c-.15,0-.29.16-.37.39a1.79,1.79,0,0,0,0,.8,1.89,1.89,0,0,0,.3.74m-5.14,1.34,0,0a40.08,40.08,0,0,1,3.36,3.1,42,42,0,0,0-1.22,4.25v0a2.23,2.23,0,0,0,.09.79,2,2,0,0,0,.35.7c.14.19.28.26.39.22s.19-.17.22-.4c.24-1.82.59-3.62,1-5.46a.91.91,0,0,0,0-.33.71.71,0,0,0-.13-.29c-1.15-1.48-2.4-3-3.72-4.39a.52.52,0,0,0-.49-.19c-.15,0-.26.19-.31.44a1.66,1.66,0,0,0,0,.79,1.69,1.69,0,0,0,.38.7m-15.32,7.28,0,0A40.73,40.73,0,0,1,95.22,126a40.66,40.66,0,0,0-.8,4.35v0a2.07,2.07,0,0,0,.17.78,2.11,2.11,0,0,0,.41.67c.16.16.31.22.41.17s.18-.18.18-.42c.06-1.83.23-3.65.48-5.53a1.35,1.35,0,0,0,0-.33.76.76,0,0,0-.16-.28c-1.29-1.36-2.67-2.73-4.13-4a.49.49,0,0,0-.5-.15.52.52,0,0,0-.27.46,1.59,1.59,0,0,0,.13.79,1.65,1.65,0,0,0,.45.66m10.17-5.44,0,0a45.72,45.72,0,0,1,3.46,3,40,40,0,0,0-1.08,4.29v0a2.2,2.2,0,0,0,.11.78,2.11,2.11,0,0,0,.37.7c.15.18.29.24.4.21s.19-.18.21-.42c.18-1.82.47-3.63.83-5.49a.72.72,0,0,0,0-.32.61.61,0,0,0-.14-.29c-1.19-1.44-2.49-2.9-3.86-4.26a.5.5,0,0,0-.49-.18h0a.56.56,0,0,0-.3.45,1.68,1.68,0,0,0,.08.79,1.59,1.59,0,0,0,.41.68" style="fill:#002448;fill-rule:evenodd"></path><path d="M86.87,46.16l-.28.11a24.85,24.85,0,0,0,.88-5.41l.44-.24a13.15,13.15,0,0,0,2.71-2,10.53,10.53,0,0,0,1.06-1.19l.23-.08a9.56,9.56,0,0,0,1.55-.72,12,12,0,0,0,2.41-1.82,12.69,12.69,0,0,0,2.3-3,11.44,11.44,0,0,1,.24,2c0,.49,0,1,0,1.44a24.84,24.84,0,0,1-3.84,5.44,18.24,18.24,0,0,1-7.73,5.37m23.48.06,0,0a.07.07,0,0,0,0-.05c0-.13,0-.26,0-.4v-.07a22.22,22.22,0,0,0-.34-4.95l.07,0a10.93,10.93,0,0,0,3.43-2.89,9,9,0,0,0,1.41-.63,10.51,10.51,0,0,0,2.22-1.65,12.19,12.19,0,0,0,2.34-3.12,10.23,10.23,0,0,1,.2,1.52v0c0,.33,0,.66,0,1A34.94,34.94,0,0,1,118,38.2c-3.41,5.62-7.24,7.78-7.68,8m25.35-10.8c-2.5,6.52-6,9.19-6,9.19a15,15,0,0,0-.49-5,9.38,9.38,0,0,0,1.16-1.32,7,7,0,0,0,.68-.3,9.93,9.93,0,0,0,3.67-3.49l.08-.12a10.48,10.48,0,0,0,.69-1.28,14.36,14.36,0,0,1,.19,2.26.37.37,0,0,1,0,.11m8,8.55c-.21.21-.42.42-.64.62s-.54.48-.54.48a21.4,21.4,0,0,0-.22-2.86,13.65,13.65,0,0,0-.25-1.37c0-.15-.07-.29-.11-.44h0a8.9,8.9,0,0,0,1.84-1.77,6.2,6.2,0,0,0,1.07-.51,6.56,6.56,0,0,0,.68-.43,10.39,10.39,0,0,0,2.8-3.24,6.58,6.58,0,0,0,.41-.81c.06.3.1.65.14,1s.05,1,.06,1.5a28,28,0,0,1-2.29,4.12c-.53.78-1,1.48-1.54,2.07A19.77,19.77,0,0,1,143.7,44M41.58,33.46a18.58,18.58,0,0,1,2.86-7.6L46,23.77a30.2,30.2,0,0,0-3.78.3c3.63-4.72,10.66-6.45,12.91-6.89a20,20,0,0,0-4.5-1.62A58.77,58.77,0,0,1,64.15,9.64l.23-.06,1.29-.33A62.53,62.53,0,0,1,75.22,7.1h0a116.85,116.85,0,0,1,19.7-1.61l1.84,0C113,5.73,125.33,8.72,134,12a67.45,67.45,0,0,1,10.09,4.71,23.21,23.21,0,0,1,4.33,3,13.45,13.45,0,0,1,2.31,3,7.79,7.79,0,0,1,.95,3.84,12.41,12.41,0,0,1-.5,3.35c-.23.8-.49,1.65-.8,2.52,0,0,0-.07,0-.1A8.11,8.11,0,0,0,149,28.45a17,17,0,0,1-1.2,2.77,13.07,13.07,0,0,1-2.21,3,11,11,0,0,0,0-3.53,13.64,13.64,0,0,1-2.84,5.1,12.36,12.36,0,0,1-1.89,1.76,12.08,12.08,0,0,0-1.52-2.36c-.15-.16-.29-.32-.45-.47.17-.57.38-1.3.61-2.15a66.18,66.18,0,0,0,1.77-8.39,6,6,0,0,0,0-.65c0-1.37-.55-4.5-4.18-7.59a24.39,24.39,0,0,0-5.63-3.53c-9.41-3.78-16.71-3-16.71-3s11.29,1.52,19.34,7.75c.42.31.81.61,1.15.9a12.81,12.81,0,0,1,1,1h0a6.8,6.8,0,0,1,2.17,4.51c0,.1,0,.18,0,.22h0v.07a58.8,58.8,0,0,1-1.33,6.65l0,.11h0l-.09.37h0c-.05-.26-.11-.49-.16-.72a6.72,6.72,0,0,0-1.09-2.66l-.24.66c-.09.24-.19.47-.28.7a15.36,15.36,0,0,1-2.38,4,8.68,8.68,0,0,1-.8.85,11.92,11.92,0,0,0,.11-1.4,12.88,12.88,0,0,0-.13-1.92c-.06-.36-.11-.57-.11-.57a10.27,10.27,0,0,1-.55,1.89,13.89,13.89,0,0,1-3.34,5.08c-.08-.15-.16-.29-.25-.43a9.44,9.44,0,0,0-1-1.18l-1.29-1.33-1.28,1.34h0a12.93,12.93,0,0,1-2.44,1.84,59.5,59.5,0,0,0,3.3-9.51q.43-1.75.75-3.6a8.24,8.24,0,0,0,.11-1.2,9.37,9.37,0,0,0-.59-3.69,9,9,0,0,0-.63-1.23c-1.57-2.59-4.8-5.34-11-7.52L112.63,10l-.82-.23-.55-.15C98.09,6.14,84.08,8.46,84.08,8.46A129,129,0,0,1,108,11.55a42.8,42.8,0,0,1,7.75,2.55h0c.69.32,1.34.65,1.91,1A13.37,13.37,0,0,1,122,18.72l.12.17a3.87,3.87,0,0,1,.24.37l0,0,.17.31a6.18,6.18,0,0,1,.57,1.66,5.69,5.69,0,0,1,0,2.08l0-.13h0l0,.11v.11c-.15.92-.33,1.81-.54,2.7-.29,1.27-.63,2.51-1,3.68h0c0,.17-.1.34-.16.52a2.76,2.76,0,0,1-.08.27,0,0,0,0,0,0,0v0c-.1-.5-.21-.94-.32-1.33a6.41,6.41,0,0,0-1.22-2.5c-.12.32-.24.61-.37.9a16.79,16.79,0,0,1-2.7,4.28,11.76,11.76,0,0,1-1.4,1.35,10.82,10.82,0,0,0-.27-4.22,13.6,13.6,0,0,1-5.66,8.9c-.2-.85-.42-1.63-.6-2.28l-.64-2-2,1.85,0,0a20.39,20.39,0,0,1-3.05,2.12A14.69,14.69,0,0,1,99.94,39l-.43.12-.27.06A36.82,36.82,0,0,0,105,23.61l0-.14a8.91,8.91,0,0,0-.26-3.62,9.72,9.72,0,0,0-2.51-4.24,11.7,11.7,0,0,0-1.16-1,12.63,12.63,0,0,0-1.14-.78,22.34,22.34,0,0,0-4-1.91h0l-.35-.13h0l-.2-.05c-13.89-4.15-31,.59-31,.59,4-.28,7.55-.4,10.75-.4,8.57,0,14.5.9,18.56,2.15a20.63,20.63,0,0,1,4.78,2.08,10.32,10.32,0,0,1,2.65,2.3,4.66,4.66,0,0,1,.52.84,7,7,0,0,1,.61,3.71l0,.13a34.12,34.12,0,0,1-1.81,7.49.17.17,0,0,0,0-.07c-.58-3.48-1.82-4.68-1.82-4.68a17.41,17.41,0,0,1-3.35,5.38,13.13,13.13,0,0,1-1.64,1.51,11.44,11.44,0,0,0,0-2.55,9.81,9.81,0,0,0-.42-2,13.54,13.54,0,0,1-5.73,9.31A27.34,27.34,0,0,0,86.7,33l-.64-2.12-2.08,3v0a15.43,15.43,0,0,1-1.63,1.92,1.49,1.49,0,0,0,0-.21,14.36,14.36,0,0,0-1-7l-2,1.72,0,0a22.49,22.49,0,0,1-3.93,2.57,17.1,17.1,0,0,1-7.7,2.14A11.32,11.32,0,0,1,66,35a75.59,75.59,0,0,0-10.15-1H54.72c-1.11,0-2.23,0-3.35.13l-.91.09-.36,0a24.85,24.85,0,0,0-3.69.74c-.4.11-.8.24-1.19.38l-.61.23a13.29,13.29,0,0,0-3.44,2l-.08.06a.22.22,0,0,0,0-.08l.06-.68c.09-1,.23-2.17.42-3.3M36,51.64a64.43,64.43,0,0,1,5.8-8.6c0,.1.05.2.08.3a.92.92,0,0,0,.16.26,1,1,0,0,0,.26.19,41.69,41.69,0,0,1,4.82,2.3c.19.11.34.12.42.06s.11-.22,0-.43a2.2,2.2,0,0,0-.36-.67,2,2,0,0,0-.56-.51l0,0a40.44,40.44,0,0,0-4-1.46c-.05-.23-.11-.53-.15-.86.92-1.12,1.89-2.21,2.88-3.27l.14-.06c.06.48.13,1,.2,1.41a.51.51,0,0,0,.13.28.64.64,0,0,0,.21.22,40.64,40.64,0,0,1,4.43,3c.17.14.32.18.41.13s.14-.19.1-.41a1.9,1.9,0,0,0-.25-.71,1.93,1.93,0,0,0-.48-.59l0,0a34.79,34.79,0,0,0-3.72-2,13.58,13.58,0,0,1,0-1.62,18.29,18.29,0,0,1,3.5-.84.32.32,0,0,1,0,.09,1.35,1.35,0,0,0,.19.25,38.74,38.74,0,0,1,3.9,3.62c.15.16.29.22.39.19s.16-.16.16-.38a2.05,2.05,0,0,0-.14-.74,2,2,0,0,0-.37-.66l0,0A34.54,34.54,0,0,0,51,37.54a35.53,35.53,0,0,1,3.75-.19c.41,0,.81,0,1.22,0,.73.9,1.42,1.82,2,2.74.13.17.26.27.36.24s.19-.13.23-.35a2.13,2.13,0,0,0,0-.75,2,2,0,0,0-.27-.71l0,0a14.46,14.46,0,0,0-.95-1.09,76.62,76.62,0,0,1,8.11.93,14,14,0,0,0,2.31.18,21,21,0,0,0,9.83-2.8c.49-.27,1-.54,1.36-.8A16.72,16.72,0,0,1,77,43.07l2.27-.93a16.9,16.9,0,0,0,5.08-3.42s0,.27,0,.72c0,.09,0,.18,0,.26s0,.14,0,.22c0,2.26-.39,7.26-3.12,10.87l1.82-.17A19.76,19.76,0,0,0,93.72,46c.34-.28.65-.56.94-.83-.06,1-.12,2-.19,3.05,0,.22,0,.38.15.43a.43.43,0,0,0,.46-.1,1.89,1.89,0,0,0,.49-.58,1.77,1.77,0,0,0,.23-.72v0s-.07-1.64-.13-3c.51-.53.92-1,1.23-1.37h.54a15.83,15.83,0,0,0,7.77-2.41c.4-.24.77-.48,1.11-.7A23.55,23.55,0,0,1,107,45.2q-1.68,1.29-3.42,2.55a.69.69,0,0,0-.2.24.61.61,0,0,0-.09.3c-.11,1.79-.2,3.6-.24,5.42,0,.23.07.38.2.44a.45.45,0,0,0,.47-.1,1.66,1.66,0,0,0,.48-.59,1.63,1.63,0,0,0,.21-.74v0s-.27-3.08-.32-4.31c.7-.39,2-1.18,2.88-1.7a15.48,15.48,0,0,1-1,4.6,14,14,0,0,0,2-.38c0,1.7.11,3.42.29,5.18a.47.47,0,0,0,.25.44.53.53,0,0,0,.5-.15,1.62,1.62,0,0,0,.42-.64,1.84,1.84,0,0,0,.12-.75v0s-.63-3.08-.76-4.28a17.32,17.32,0,0,0,5.08-2.78,33.68,33.68,0,0,0,2.67-2.46,42.1,42.1,0,0,0,3.31-3.85A13.82,13.82,0,0,0,125.31,39s2,2.43,1,11.83l1.17-.6a33.81,33.81,0,0,1-.74,3.71.64.64,0,0,0,0,.31.59.59,0,0,0,.12.29,37,37,0,0,0,3.58,4.2.45.45,0,0,0,.81-.25,1.43,1.43,0,0,0-.05-.76,1.75,1.75,0,0,0-.38-.67l0,0a35.72,35.72,0,0,1-3.24-2.94A32.92,32.92,0,0,0,128.63,50v-.05a2,2,0,0,0,0-.34,19.94,19.94,0,0,0,3.1-2.14,37.21,37.21,0,0,1,0,5.17.72.72,0,0,0,.05.31.88.88,0,0,0,.16.27,39.44,39.44,0,0,0,4.25,3.51.51.51,0,0,0,.51.1.53.53,0,0,0,.23-.47,1.47,1.47,0,0,0-.18-.74,1.66,1.66,0,0,0-.48-.59l0,0a36.47,36.47,0,0,1-3.7-2.35,36.5,36.5,0,0,0,.42-4.23v0a2.12,2.12,0,0,0-.22-.72,2.31,2.31,0,0,0-.45-.62l0,0a22.31,22.31,0,0,0,4.51-5.77,23.16,23.16,0,0,0,1.05-2.14S140.7,43.72,139.5,51l1.89-1c.5-.26,1-.54,1.45-.84,1.1.49,2.23.94,3.38,1.36a.49.49,0,0,0,.51,0,.49.49,0,0,0,.09-.5,1.67,1.67,0,0,0-.39-.66,1.62,1.62,0,0,0-.63-.43l0,0s-.86-.2-1.83-.47a21.43,21.43,0,0,0,1.84-1.57,63.32,63.32,0,0,1,5.1,8.87l.41-.09a11.55,11.55,0,0,1,2-.18h.07a10.48,10.48,0,0,1,2.58.32,69.48,69.48,0,0,0-7.09-12.53c.48-.67.92-1.35,1.33-2a44.43,44.43,0,0,0,4.34-10.41,15.53,15.53,0,0,0,.64-4.27A11.42,11.42,0,0,0,153.8,21a17,17,0,0,0-2.88-3.73,25.65,25.65,0,0,0-5.07-3.61c-7.8-4.54-24.13-11.29-49-11.63H94.92C72.26,2,58.28,7.64,52,11h0a33.69,33.69,0,0,0-8.42,5.81,20.07,20.07,0,0,1,2.51.17,29.41,29.41,0,0,0-9.24,7.43L34,28.15l4.65-1.07a11.7,11.7,0,0,1,1.22-.22,26.42,26.42,0,0,0-1.74,6,46.43,46.43,0,0,0-.67,8v.29A69.79,69.79,0,0,0,29.63,54a21.76,21.76,0,0,1,6.4-2.4" style="fill:#002448;fill-rule:evenodd"></path><path d="M144.9,77.49V68.54a7.8,7.8,0,0,0-1.76-5.06,7.22,7.22,0,0,0-3.88-2.36,8.52,8.52,0,0,0-3.46-.07,10.29,10.29,0,0,0-3.15,1.11l-6.94,4,0,0a7.2,7.2,0,0,0-3.6-2,8.39,8.39,0,0,0-3.47-.08,10.4,10.4,0,0,0-3.15,1.12l-4.67,2.69,1.47,1.21.66.54.38.31h0a4.42,4.42,0,0,1,3.59.13h0a2.31,2.31,0,0,1,.88,1,6.25,6.25,0,0,1,.63,2.67l0,14.18c0,.57,0,1.11,0,1.62V91c0,.31,0,.62,0,.93s0,.46-.08.69A10.64,10.64,0,0,1,118,94a11.43,11.43,0,0,1-.93,2.23c-.13.25-.28.49-.42.73a13.75,13.75,0,0,1-1.45,1.87l-.26.27a12.11,12.11,0,0,1-2.2,1.77,11.33,11.33,0,0,1-4,1.6l-.58.08,2.82,3.83v0h0a21.75,21.75,0,0,0,11.73-7.36h0l1-1.21,8-9.39a5.57,5.57,0,0,1-4-5.5V71.58a8.5,8.5,0,0,0-.51-3l1.75-1h0c.07,0,3-1.81,5.14-.55a2.31,2.31,0,0,1,.88,1,6.38,6.38,0,0,1,.64,2.67l0,14.18c0,.58,0,1.11,0,1.62h0V88c0,.3,0,.62-.05.92a5.36,5.36,0,0,1-.09.7,9.19,9.19,0,0,1-.31,1.38,11.43,11.43,0,0,1-.93,2.23c-.13.25-.27.49-.42.73a13,13,0,0,1-1.45,1.87l-.26.27a12.86,12.86,0,0,1-2.19,1.77,11.11,11.11,0,0,1-4,1.59l-.57.09,2.81,3.83v0h0A21.72,21.72,0,0,0,139.84,96h0l9-10.6a5.57,5.57,0,0,1-3.95-5.51v-.13" style="fill:#a31216;fill-rule:evenodd"></path><path d="M63,68.81a5.57,5.57,0,0,1-.93.58,1.46,1.46,0,0,0-.22.18.67.67,0,0,0-.29.31.81.81,0,0,0-.15.54c.18,1.13,4.67,1.64,10.24-7,0,0,4.71-7.34.6-12.4l-.32-.39h0l-.26-.25-.13-.11A5.42,5.42,0,0,0,67,49.11a7.88,7.88,0,0,0-6.33,7.45A5.26,5.26,0,0,0,62.5,60.7h0l0,0,.13.11h0A7.89,7.89,0,0,1,64,62a3.39,3.39,0,0,1,.89,1.29h0a4,4,0,0,1,.27,1.44,5.27,5.27,0,0,1-1.77,3.81c-.12.11-.24.2-.36.3" style="fill:#a31216;fill-rule:evenodd"></path><path d="M76.23,92V80.65a7.76,7.76,0,0,0-1.75-5.06,7.16,7.16,0,0,0-3.88-2.36,8.57,8.57,0,0,0-3.47-.07A10.48,10.48,0,0,0,64,74.27l-6.35,3.66,2.65,1.79.06,0h0l.07,0c.64-.35,3.13-1.58,5-.48h0a2.33,2.33,0,0,1,.69.71l0,.05.08.13A6.82,6.82,0,0,1,67,83.3V99.43c0,.54,0,1.06-.07,1.56,0,.24,0,.47-.09.7a11.66,11.66,0,0,1-.94,3.27c-.11.26-.23.49-.35.73a11.07,11.07,0,0,1-1.64,2.24l-.33.33A12,12,0,0,1,61.13,110a13.64,13.64,0,0,1-4.53,1.58l2.82,3.83v0h0a21.75,21.75,0,0,0,11.73-7.36h0l9-10.61a5.58,5.58,0,0,1-4-5.5" style="fill:#a31216;fill-rule:evenodd"></path><path d="M99.36,74.22l0,0c.12.11.23.23.35.36l0,.06a3.72,3.72,0,0,1,.33.45h0c.07.11.13.23.19.34s0,0,0,0,.11.25.16.38.08.23.11.35l0,.07c0,.11.05.22.07.33a.77.77,0,0,1,0,.15c0,.1,0,.19,0,.28s0,.3,0,.45v0l-.05,16.56v.47c0,.14,0,.28,0,.42v0h0c0,.23,0,.46-.08.7s-.08.43-.13.64l0,.08c0,.22-.1.43-.17.65h0a0,0,0,0,1,0,0c-.05.17-.11.33-.16.5a.78.78,0,0,0,0,.14c0,.13-.1.27-.16.41l-.06.13-.18.42a.93.93,0,0,0-.05.1c-.08.17-.16.33-.25.49h0c-.13.25-.27.49-.42.73s-.21.33-.33.49h0a11.44,11.44,0,0,1-1.12,1.38h0l-.25.27h0c-.17.18-.35.34-.53.51l-.08.07c-.17.15-.35.31-.54.45h0l-.26-.11a4.49,4.49,0,0,1-1-.63l0,0q-.18-.16-.36-.36l0-.06a4.16,4.16,0,0,1-.32-.45,4.35,4.35,0,0,1-.37-.75c0-.12-.08-.24-.11-.36s0,0,0-.06a1.94,1.94,0,0,1-.07-.33l0-.15a2.66,2.66,0,0,1,0-.28,2.82,2.82,0,0,1,0-.41s0,0,0,0v0l0-16.56c0-.31,0-.62,0-.92s0-.47.09-.71.08-.43.13-.65c0,0,0,0,0-.07,0-.22.11-.44.17-.65l.18-.55a1,1,0,0,0,0-.1c0-.15.11-.3.17-.44a.36.36,0,0,0,0-.11l.21-.45,0-.07.26-.52c.13-.24.28-.48.43-.72a12.47,12.47,0,0,1,1.45-1.87,3.32,3.32,0,0,1,.25-.27c.17-.18.36-.35.54-.51l.06-.06.56-.47.25.11a3.68,3.68,0,0,1,1,.63m-1.45-6.15-.48.21-.61.29-.09.05-.56.29L96,69a3.84,3.84,0,0,0-.39.22l-.16.09-.18.1-.75.47-.06,0h0c-.24.15-.47.31-.7.47l0,0-.66.48,0,0-.36.28-.29.23,0,0-.06,0-.59.51h0l-.12.1-.44.42a4.89,4.89,0,0,0-.56-.46,3.62,3.62,0,0,0-.32-.22,7.14,7.14,0,0,0-1.12-.62,8.1,8.1,0,0,0-3.19-.63,8.68,8.68,0,0,0-1,.06l-.53.08a9.29,9.29,0,0,0-1.51.39L76.7,74.08,79,76c2-.68,5.15-.92,5.15,4.47V102q0,.34,0,.66a.66.66,0,0,0,0,.14c0,.21,0,.42.08.63,0,0,0,.05,0,.08l.12.58a.19.19,0,0,1,0,.07q.07.3.18.6l0,.08a7.82,7.82,0,0,0,.52,1.14l0,0a6.27,6.27,0,0,0,.73,1,3.79,3.79,0,0,0,.38.42h0c.13.14.27.26.4.38l0,0a6.34,6.34,0,0,0,.89.65l0,0a7.18,7.18,0,0,0,1,.5l0,0,.52.19h0c.19.06.38.12.57.16a8.63,8.63,0,0,0,3.41.09h.07l.25,0h0a2.92,2.92,0,0,0,.4-.07h0l.11,0a.29.29,0,0,1,.14,0l.07,0,.21-.06a.35.35,0,0,0,.11,0l.23-.07.15-.05.23-.06h0l.16-.06h0l.4-.15h0l.44-.17h0l.41-.18.62-.29.18-.09.5-.26.22-.12c.17-.09.35-.19.52-.3l.23-.13c.26-.15.5-.31.77-.49a.07.07,0,0,0,.06,0h0l.65-.43.09-.06c.21-.14.41-.29.62-.45l.09-.07c.21-.15.41-.31.61-.48l.08-.06.62-.52,0,0,.62-.56,0,0c.21-.2.41-.4.61-.61h0L114,91.57a5.54,5.54,0,0,1-3.9-5.51l-.06.15V74.69c0-.23,0-.45,0-.66,0,0,0-.09,0-.14,0-.21,0-.42-.08-.63a.19.19,0,0,0,0-.08c0-.2-.07-.39-.11-.58a.19.19,0,0,1,0-.07c-.06-.2-.12-.4-.19-.6a.41.41,0,0,0,0-.08,6.82,6.82,0,0,0-.51-1.13l0,0c-.11-.19-.22-.36-.34-.53a4.91,4.91,0,0,0-.39-.51,5.23,5.23,0,0,0-.39-.42h0l-.39-.38s0,0,0,0a7.14,7.14,0,0,0-.88-.65l0,0a8.2,8.2,0,0,0-1-.5h0a4.45,4.45,0,0,0-.51-.19h0q-.28-.09-.57-.15h0a8.14,8.14,0,0,0-2.89-.16h0l-.5.07h-.08l-.24,0h0a6.21,6.21,0,0,0-.84.17h0c-.27.07-.61.17-1,.31l-.29.1-.64.25" style="fill:#a31216;fill-rule:evenodd"></path><path d="M177.1,86.31V78.63a11.7,11.7,0,0,0-.48-3.42,7.33,7.33,0,0,0-1.1-2.2l-2.64-3.46h0l-6.46,7.59-4.62-6.49a6.22,6.22,0,0,1-1-3.36V65.74a8.29,8.29,0,0,0-.51-2.92l1.86-1.07a8.32,8.32,0,0,1,1.85-.76,4.29,4.29,0,0,1,3,.13,2.09,2.09,0,0,1,.21.1,2.93,2.93,0,0,1,1.23,1.88l0,.11.09.35,0,.15c0,.14,0,.3.08.45v.08a9.7,9.7,0,0,1,.08,1.27v5.18l7.32-8.61.05-.07,1.52-1.77a7.41,7.41,0,0,0-1.38-2.57l-.14-.16a7.16,7.16,0,0,0-3.74-2.2,8.74,8.74,0,0,0-3.47-.08,10.68,10.68,0,0,0-3.15,1.12l-1.18.69v0l-5.8,3.36a7.69,7.69,0,0,0-7.09-2.14,10.29,10.29,0,0,0-3.15,1.11L143.93,62l2.5,2.07c2-.68,5.12-.92,5.15,4.4v5.93a11.23,11.23,0,0,0,.48,3.4,7.61,7.61,0,0,0,1.08,2.21l.23.3.16.21,2.25,2.94a0,0,0,0,0,0,0h0l6.44-7.57,4.29,6h0a6.07,6.07,0,0,1,1.3,3.83v4.75l-1.33.77h0a8,8,0,0,1-1.86.76,4.35,4.35,0,0,1-3-.13,2.12,2.12,0,0,1-.21-.11A3,3,0,0,1,160.17,90a.35.35,0,0,0,0-.11,3.59,3.59,0,0,1-.08-.35s0-.1,0-.15-.05-.29-.06-.45a.24.24,0,0,1,0-.08,9.7,9.7,0,0,1-.08-1.27V82.37L151,92.83a7.45,7.45,0,0,0,1.38,2.56l.14.15a7.11,7.11,0,0,0,3.74,2.21,8.56,8.56,0,0,0,3.47.07,10.32,10.32,0,0,0,3.14-1.11l6.06-3.49a6.69,6.69,0,0,0,.69,1l.13.15a6.82,6.82,0,0,0,2,1.54l9.14-5.28a4.16,4.16,0,0,1-3.72-4.28" style="fill:#a31216;fill-rule:evenodd"></path><path d="M50.49,117.07l10.22-18.2-4-5.37c-6.93,18.25-21.2,16.69-21.2,16.69h0a34,34,0,0,1-6.64-.57A16.87,16.87,0,0,0,32,100.47V68.23a8.94,8.94,0,0,1,7.14-8,6.24,6.24,0,0,1,1.13-.1v0a6.83,6.83,0,0,1,1.49.15l.19,0a5.88,5.88,0,0,1,3.72,3l.11.23,1.14-1.35,1.95-2.3h0l1.9-2.23,1-1.22-2.91-.65-2.08-.46-.09,0L45.21,55l-2.93-.65,0,0a13,13,0,0,0-5.61-.16c-13.88,2.91-14.1,16.13-14.1,16.13v31.41c0,6.08-3.23,9.95-7.13,12.4,3.67-3.58,3.91-9.11,3.91-9.11V70.21c0-.12,0-.23,0-.35a20,20,0,0,1,4.22-10.62L19.36,61.7,4.13,70.48l2.58,1.15a4.44,4.44,0,0,1,1.2-.39A3.35,3.35,0,0,1,12,74.6v34.55a20,20,0,0,1-.36,4c-.39,1.3-1.74,3.7-6.43,4.72-1.32.24-2.34.36-2.84.4a2.28,2.28,0,0,1-.36,0l4,5.48.09-.08a48.22,48.22,0,0,0,9.39-3h0l.9-.42a52,52,0,0,1,6-2.23c1.4-.39,3.11-.79,5.06-1.15.42-.06.76-.12,1.05-.18a59.43,59.43,0,0,1,22,.34" style="fill:#a31216;fill-rule:evenodd"></path><path d="M65.1,178.94a3.18,3.18,0,0,1,.09-.33,2.34,2.34,0,0,0,.09-.24c.08-.16.16-.31.25-.46a3.06,3.06,0,0,1,.54-.67,2.11,2.11,0,0,1,.23-.19,4.51,4.51,0,0,1,.73-.46l.11-.05a3.62,3.62,0,0,1,.55-.2l.09.08a1.88,1.88,0,0,1,.53.84,1.3,1.3,0,0,1,.08.34c0,.2,0,.46,0,.64,0,0,0,0,0,0s-.28,1.06-1.22,4.92a5.71,5.71,0,0,1-.16.57,4.39,4.39,0,0,1-.13.52,1,1,0,0,1-.1.33,1.69,1.69,0,0,1-.08.24,4,4,0,0,1-.24.46,3.8,3.8,0,0,1-.54.66l-.21.2a4.21,4.21,0,0,1-.7.46.39.39,0,0,0-.11.06l-.53.2-.08-.08a2.22,2.22,0,0,1-.51-.83,1.28,1.28,0,0,1-.06-.33,2.21,2.21,0,0,1,0-.63s0,0,0,0c.52-2.19.77-3.3,1.27-5.52v0c0-.22.08-.32.12-.53m-4.2,1.55a.11.11,0,0,0,0,0c-.34,1.65-.51,2.48-.86,4.11a3.55,3.55,0,0,0,1.51,3.55,3.79,3.79,0,0,0,1.25.54h.1a5.37,5.37,0,0,0,.65.11h.06a1.93,1.93,0,0,0,.34,0h.16a7.23,7.23,0,0,0,1.25-.15h0a.65.65,0,0,1,.19,0l.66-.17A2.2,2.2,0,0,0,67.83,190l.5.14.58.15c.83.23,1.25.34,2.09.59a.32.32,0,0,1,.14,0v0c0-.05,0-.07,0-.12-.13-.52-.2-.77-.33-1.29a1.45,1.45,0,0,1-.23-.08c-.38-.16-1-.62-.7-1.89s.55-2,.91-3.41h0c0-.07.05-.12.06-.17.11-.43.17-.64.3-1.06,0,0,.07-.3.21-.83.07-.27.16-.58.26-.93a2.54,2.54,0,0,1,2.16-1.83c-.67-1.06-1-1.59-1.71-2.65l-.17-.26a4,4,0,0,0-2.49-1.82h0l-.12,0a3.23,3.23,0,0,0-.76-.13h-.14l-.46,0a9.37,9.37,0,0,0-1.29.12l0,0a5.8,5.8,0,0,0-2.44.87c-1.76,1-2.62,1.51-4.32,2.56a2.61,2.61,0,0,1,1.12,2.6" style="fill:#a31216;fill-rule:evenodd"></path><path d="M67.73,176.48v0l0-.08Zm-1.51,3.25h0C65.76,181.86,65.5,183,65,185a2,2,0,0,0,.31-.39l1.33.23-1.16-.56c0-.05.1-.33.11-.37a3.06,3.06,0,0,0,.1-.41c.08-.28.12-.42.16-.58.75-3.1,1.09-4.42,1.2-4.84h0a2,2,0,0,0-.44.5l-.18.33s-.08.25-.08.27-.08.33-.08.36a1.46,1.46,0,0,1-.07.19Zm-1.88,8.43a1.26,1.26,0,0,1-1-.5,3.27,3.27,0,0,1-.79-1.28,2.63,2.63,0,0,1-.14-.71,2.57,2.57,0,0,1,0-.77,1,1,0,0,1,0-.24c.51-2.17.77-3.27,1.27-5.49a1.13,1.13,0,0,1,.17-.42h-.07c0-.05.07-.32.09-.37A2,2,0,0,1,64,178a5.42,5.42,0,0,1,.35-.72,5,5,0,0,1,.8-1l.4-.32a4.66,4.66,0,0,1,.87-.54,2.11,2.11,0,0,1,.44-.17,1.33,1.33,0,0,1,.42-.17,1.29,1.29,0,0,1,1.25.3,3.24,3.24,0,0,1,1,1.51,2.75,2.75,0,0,1,.12.55,3.06,3.06,0,0,1,0,.68v.08a1.12,1.12,0,0,1-.05.36s-.29,1.09-1.21,4.9c0,.22-.11.43-.18.66s0,.23-.12.48a2,2,0,0,1-.14.44,5.46,5.46,0,0,1-.31.71,4.92,4.92,0,0,1-.86,1.11l-.24.22a5.78,5.78,0,0,1-1,.65,8.3,8.3,0,0,1-.84.35,1.39,1.39,0,0,1-.4.06Z" style="fill:#fff;fill-rule:evenodd"></path><path d="M66.21,187.24a1.28,1.28,0,0,1,1.2.84,1,1,0,0,0,.74.65l.41.11a3.32,3.32,0,0,1,.06-1.7l.84-3.14a.91.91,0,0,1,.06-.32c.13-.49.2-.7.29-1l.52-1.92a3.64,3.64,0,0,1,1.48-2.09l-.73-1.13.84-1.06-1,.75a3.14,3.14,0,0,0-.89-1,2.83,2.83,0,0,0-.92-.4,3.07,3.07,0,0,0-.71-.14l-.24-1.3-.28,1.28a6.45,6.45,0,0,0-1,.09h-.06a4.86,4.86,0,0,0-2.07.74c-1.24.71-2,1.17-3,1.75a3.78,3.78,0,0,1,.42,2.55,1.33,1.33,0,0,0,0,.19l-.82,4a2.22,2.22,0,0,0,.19,1.3,2.31,2.31,0,0,0,.78.92,2.48,2.48,0,0,0,.82.35c.18,0,.34.07.59.1l.58,0c.1,0,.42-.05.82-.12l.26-.06a4.94,4.94,0,0,0,.48-.13,1.34,1.34,0,0,1,.4-.06m4.93,4.93a1.41,1.41,0,0,1-.35,0l-.16,0c-.67-.2-1.07-.31-1.64-.46l-1.35-.36A3.78,3.78,0,0,1,65.58,190a8,8,0,0,1-1.44.17,5.93,5.93,0,0,1-.65,0,6.22,6.22,0,0,1-.94-.16,5.24,5.24,0,0,1-1.72-.72,4.81,4.81,0,0,1-1.69-2,4.76,4.76,0,0,1-.37-2.88l.85-4.14s0,0,0,0a1.33,1.33,0,0,0-.6-1.31,1.25,1.25,0,0,1-.54-1.09,1.27,1.27,0,0,1,.61-1.05c1.71-1,2.59-1.56,4.36-2.57a6.84,6.84,0,0,1,2.88-1h0a9.5,9.5,0,0,1,1.48-.15,3.08,3.08,0,0,0,.33,0l.33,0a4.57,4.57,0,0,1,1.15.2,5.09,5.09,0,0,1,1.79.8A4.82,4.82,0,0,1,73,175.71l.27.39c.61.93,1,1.46,1.59,2.46a1.31,1.31,0,0,1,.08,1.23,1.29,1.29,0,0,1-1,.73,1.25,1.25,0,0,0-1.1.89l-.76,2.8a1.29,1.29,0,0,1,0,.19l-.9,3.4a.92.92,0,0,0,0,.41,1.31,1.31,0,0,1,1,.93l.32,1.29a1.72,1.72,0,0,1,0,.26h0a1.36,1.36,0,0,1-.13.77,1.28,1.28,0,0,1-1.15.71" style="fill:#fff;fill-rule:evenodd"></path><path d="M19.32,156l-.21-.16-.22-.15s0,0,0,0a2.26,2.26,0,0,1-.42-.45,2,2,0,0,1,.39-2.76s0,0,0,0l1.1-.77a.84.84,0,0,1,.19-.12l.51-.36,1.78.43c-.24.7-.39,1.09-.66,1.82a.22.22,0,0,1,0,.08s0,0,0,0a2.5,2.5,0,0,1-1,1.45l-1,.7a3.13,3.13,0,0,0-.39.31h0m4.77-5.27c0-.15.07-.22.11-.35.19-.51.29-.78.47-1.3v0a2.65,2.65,0,0,1,.91-1.35c.13-.08.42-.29,1-.71a2.47,2.47,0,0,0,.39-.32s0,0,0,0l.23.16a2.13,2.13,0,0,1,.25.16h0a2.46,2.46,0,0,1,.43.48,2.05,2.05,0,0,1-.33,2.89h0s-.27.2-1.13.77a.67.67,0,0,1-.16.12l-.59.41-.09,0-1.74-.38c.09-.24.14-.38.24-.62m-3,8.27a8,8,0,0,0,1-.47h0c.17-.13-.07,0,1.74-1.13a6.38,6.38,0,0,1,2-1c0-.19,0-.36,0-.55a5.63,5.63,0,0,1,.15-.87,7.59,7.59,0,0,1,.54-1.45l-1.69-.42c-.65-.16-.95-.24-1.59-.38l0,0c.14-.32.22-.5.33-.78L30,153.49l.1-.08h0l.09-.07h0l.25-.2a3.16,3.16,0,0,0,.88-1.42s0-.05,0-.08a3.75,3.75,0,0,0,0-1.94,4.32,4.32,0,0,0-.61-1.36,4.75,4.75,0,0,0-.93-1c-.3-.21-.45-.31-.74-.53,0,0,0,0,0,0-.27-.18-.4-.28-.66-.47l-.36-.26s0,0,0,0L28,146l-.37-.27a2.6,2.6,0,0,0,.16-.47.19.19,0,0,1,0-.08,4,4,0,0,0,.07-1.09l-1.24-.86-1.51-1a3.08,3.08,0,0,0-.34-.24c-.12-.09-.19-.12-.32-.22a2,2,0,0,1-.51,2.36s0,0,0,0l-1.67,1.23a6.59,6.59,0,0,1-2,1.1,2.63,2.63,0,0,1,0,.56,6,6,0,0,1-.09.88,6.67,6.67,0,0,1-.48,1.48c.69.14,1,.21,1.71.37l1.54.34c-.14.39-.21.61-.35,1l-6.32-1.38-.15.11s0,0,0,0h0L16,150a.1.1,0,0,1,0,.05h0a3.34,3.34,0,0,0-.77,1.39s0,.05,0,.08a3.62,3.62,0,0,0,0,1.79,3.77,3.77,0,0,0,.59,1.25,3.59,3.59,0,0,0,.87.87c.27.2.41.3.71.49h0l.61.44.34.22.05,0s0,0,0,0c.16.1.23.16.36.25a3.52,3.52,0,0,0-.18.45s0,.06,0,.09a3.35,3.35,0,0,0-.16,1c.45.31.67.48,1.13.81s.82.6,1.36,1a2.2,2.2,0,0,1,.3-1.31" style="fill:#a31216;fill-rule:evenodd"></path><path d="M19.75,153.4l-.13.11a.7.7,0,0,0-.18.83l.25-.17.42-.29a1.21,1.21,0,0,0,.41-.66s0,0,0-.06a1.09,1.09,0,0,1,0-.17l.08-.23Zm-.4,3.89a1.39,1.39,0,0,1-.52-.11l-.24-.13-.16-.12,0-.05a1,1,0,0,1-.23-.11l.27-.45-.36.4a.9.9,0,0,1-.18-.15,3.77,3.77,0,0,1-.53-.59,3.32,3.32,0,0,1,.51-4.43.69.69,0,0,1,.13-.11l1.16-.82.28-.18.47-.34a1.27,1.27,0,0,1,1-.16l1.79.43a1.29,1.29,0,0,1,.82.64,1.26,1.26,0,0,1,.09,1l-.57,1.55c0-.07,0,.08-.06.2a1.06,1.06,0,0,1-.09.25,3.76,3.76,0,0,1-1.44,2l-1.05.72-.28.22a1.22,1.22,0,0,1-.83.31Z" style="fill:#fff;fill-rule:evenodd"></path><path d="M25.82,149.66l-.19.55,1.11-.76.1-.08A.51.51,0,0,0,27,149a1,1,0,0,0-.13-.65l-.62.44a1.34,1.34,0,0,0-.39.63,1,1,0,0,1-.08.21M25.68,153a1.26,1.26,0,0,1-.33-.05l-1.76-.38a1.3,1.3,0,0,1-.86-.63,1.31,1.31,0,0,1-.09-1.06l.23-.6a2.19,2.19,0,0,0,.07-.23l.51-1.43a.69.69,0,0,1,.05-.13,3.89,3.89,0,0,1,1.29-1.79l1-.74a1.73,1.73,0,0,1,1.58-.49,1.24,1.24,0,0,1,.34.18l.29.21c-.05-.07.05,0,.14.08a1.07,1.07,0,0,1,.16.14,3.32,3.32,0,0,1,.62.7,3.59,3.59,0,0,1,.61,2.68,3.06,3.06,0,0,1-1.16,1.92.39.39,0,0,1-.1.08l-1.16.79-.7.5a1.36,1.36,0,0,1-.77.25" style="fill:#fff;fill-rule:evenodd"></path><path d="M24.16,150.72l5.55,1.37a2.06,2.06,0,0,0,.39-.74.36.36,0,0,1,0-.09,2.7,2.7,0,0,0,0-1.24,3,3,0,0,0-.42-1,3.22,3.22,0,0,0-.66-.71c-.28-.2-.45-.32-.73-.54h0l-.9-.65-.12-.09-.13-.1-.31-.21a1.3,1.3,0,0,1-.38-1.57c0-.07,0-.17.09-.28a.8.8,0,0,0,0-.15l-1-.66a2.91,2.91,0,0,1-.77,1,1.09,1.09,0,0,1-.17.13l-1,.73-.64.47a9,9,0,0,1-1.41.91,7.71,7.71,0,0,1-.11.84l-.06.28,1.85.41a1.31,1.31,0,0,1,.86.64,1.33,1.33,0,0,1,.07,1.07Zm-4.47,7.17.41.29a1.37,1.37,0,0,1,.57-.41,5.12,5.12,0,0,0,.78-.34l1.75-1.13a9.46,9.46,0,0,1,1.48-.84,6,6,0,0,1,.17-.85,1.33,1.33,0,0,1,0-.19l-.28-.07c-.64-.16-.94-.24-1.55-.37a1.44,1.44,0,0,1-.64-.35,1.35,1.35,0,0,1-.33-1.34l-5.36-1.17a2.07,2.07,0,0,0-.34.68s0,.11,0,.15a2.22,2.22,0,0,0,0,1.08,2.3,2.3,0,0,0,.36.79,2.41,2.41,0,0,0,.59.6l.68.47.13.11.51.36.23.16.15.1h0l.36.25a1.3,1.3,0,0,1,.42,1.63c0,.08-.07.16-.11.25a1.3,1.3,0,0,1,0,.13Zm1.09,3.69a1.23,1.23,0,0,1-.75-.25l-.27-.2-2.18-1.59a1.24,1.24,0,0,1-.55-1.06,4.42,4.42,0,0,1,.12-1l-.62-.44-.05,0-.63-.44a4.94,4.94,0,0,1-1.18-1.19,4.81,4.81,0,0,1-.78-1.66,4.88,4.88,0,0,1,0-2.43h0l0-.12a4.68,4.68,0,0,1,1-1.88s0,0,0,0a1.29,1.29,0,0,1,.17-.16.83.83,0,0,1,.13-.12l.13-.12a1.65,1.65,0,0,1,1.2-.35l2,.43,0-.07a4.33,4.33,0,0,0,.37-1.16,4.39,4.39,0,0,0,.08-.67,1.74,1.74,0,0,1,.88-1.76,5.09,5.09,0,0,0,1.55-.88l.65-.48,1-.73a1.49,1.49,0,0,1,.31-.2,2.6,2.6,0,0,0-.15-.69,1.28,1.28,0,0,1,.41-1.52,1.29,1.29,0,0,1,1.58,0c.33.21.42.28.59.4L28.6,143a1.26,1.26,0,0,1,.55,1,6.53,6.53,0,0,1,0,1.19l.12.1.59.41.13.11.59.42a6,6,0,0,1,1.3,1.37,5.62,5.62,0,0,1,.78,1.76,5,5,0,0,1,0,2.61,1.11,1.11,0,0,1-.11.35,4.38,4.38,0,0,1-1.15,1.73,3.61,3.61,0,0,1-.3.25l-.26.2a1.28,1.28,0,0,1-1.07.22l-2-.5a6.36,6.36,0,0,0-.37,1.06,3.35,3.35,0,0,0-.12.68v.39a1.29,1.29,0,0,1-1,1.27,5.36,5.36,0,0,0-1.61.8l-1.52,1,0,0a1.46,1.46,0,0,1-.38.27l-.61.3a.69.69,0,0,0,0,.2,1.31,1.31,0,0,1-.66,1.24,1.32,1.32,0,0,1-.64.16Z" style="fill:#fff;fill-rule:evenodd"></path><path d="M41,175.47c1.59-.2,2.38-.3,4-.45a2.53,2.53,0,0,1,.14-2.71l0,0,.08-.08c.74-1,1.1-1.48,1.86-2.48a1.21,1.21,0,0,1,1.66-.46c-.07-.39-.12-.59-.19-1,0-.15,0-.22-.06-.37v0s0,0,0,0c-.07-.35-.1-.53-.17-.89l-.1-.46s0,0,0-.06a3.86,3.86,0,0,0-.53-1.28,4.1,4.1,0,0,0-1-1,4.16,4.16,0,0,0-1.16-.57c-1.15-.34-1.73-.5-2.88-.8.25.54.39.81.66,1.35a3.08,3.08,0,0,1,.54.28,2,2,0,0,1,.61,2.72h0l-2.87,4a9.33,9.33,0,0,1-.91,1.09s-2.24,2.88-4.82.92l-.15,1.15c0,.1,0,.15,0,.23a0,0,0,0,0,0,0l.09,0,.07.06.06,0a6.74,6.74,0,0,0,5.18.77" style="fill:#a31216;fill-rule:evenodd"></path><path d="M40.8,174.19l.16,1.28-.12-1.28c1-.13,1.71-.22,2.5-.3a3.82,3.82,0,0,1,.53-2.06,1.34,1.34,0,0,1,.13-.23,1.77,1.77,0,0,1,.15-.18L46,169a2.85,2.85,0,0,1,1.14-.93v0l-.15-.79s-.11-.52-.11-.55a2.75,2.75,0,0,0-.34-.77,2.78,2.78,0,0,0-.69-.72h0a2.07,2.07,0,0,1,.1.43,3,3,0,0,1-.52,2.28l-2.88,4a10.64,10.64,0,0,1-1,1.25,5.49,5.49,0,0,1-1.29,1.17l.47-.1.16,0M39.28,177a8,8,0,0,1-4.16-1.18l-.12-.09a1.36,1.36,0,0,1-.44-.35,1.42,1.42,0,0,1-.25-.47,1.35,1.35,0,0,1,0-.6l.12-1a1.57,1.57,0,0,1,.8-1.18,1.33,1.33,0,0,1,1.3,0c1.52,1.15,2.88-.5,3-.69a10.52,10.52,0,0,0,.87-1l2.88-4a.46.46,0,0,0,.07-.36.84.84,0,0,0-.37-.56,2.16,2.16,0,0,1-1-.76c-.29-.58-.43-.86-.68-1.38a1.31,1.31,0,0,1,.18-1.38,1.29,1.29,0,0,1,1.32-.42c1.16.31,1.75.47,2.91.81a5.57,5.57,0,0,1,1.53.75,5.08,5.08,0,0,1,1.34,1.4,4.94,4.94,0,0,1,.72,1.69l.27,1.38a1.24,1.24,0,0,1,0,.16h0a1.22,1.22,0,0,1,0,.33l-.56-.06-.09,0,.26.13.45-.08.19,1a1.3,1.3,0,0,1-.56,1.31,1.27,1.27,0,0,1-1.42,0l-.62,1.1L46.15,173h0l0,0a1.26,1.26,0,0,0-.05,1.34,1.29,1.29,0,0,1-1,1.89c-1.56.15-2.35.25-3.87.44a7.83,7.83,0,0,1-1.92.24" style="fill:#fff;fill-rule:evenodd"></path><path d="M47.24,159.43h0v0a.33.33,0,0,1,0,.06s0,0,0,0a2.55,2.55,0,0,1,.13.62,1.24,1.24,0,0,1-.19,1,1.38,1.38,0,0,1-1.19.54h-.14a2.22,2.22,0,0,1-.37-.09h-.08a.25.25,0,0,0-.15,0,.18.18,0,0,0-.13.11c-.17.34.92,1.6,4,.81,0,0,2.67-.64,2.52-3.06a.47.47,0,0,0,0-.2.53.53,0,0,0,0-.13s0,0,0-.07a2.59,2.59,0,0,0-1-1.51,2.22,2.22,0,0,0-3.14.3,1.93,1.93,0,0,0-.26,1.57" style="fill:#a31216;fill-rule:evenodd"></path><path d="M48.62,159.66a2.63,2.63,0,0,1,.06.39,2.35,2.35,0,0,1,0,.94,1.73,1.73,0,0,1-.11.37l.34-.08c.17,0,1.63-.46,1.55-1.73a3.91,3.91,0,0,1,0-.48h0s-.22-.27-.49-.46a1.24,1.24,0,0,0-.93-.25.6.6,0,0,0-.4.24.6.6,0,0,0-.08.47,1.14,1.14,0,0,1,.14.59m-1.29,4.42a3.81,3.81,0,0,1-3.07-1.17,1.63,1.63,0,0,1-.27-1.76,1.67,1.67,0,0,1,1-.8,2.76,2.76,0,0,1,.44,0,1.56,1.56,0,0,1,.57.11.67.67,0,0,0,0-.52s0-.1,0-.16v0a3.21,3.21,0,0,1,.46-2.61,3.17,3.17,0,0,1,2.08-1.3,3.94,3.94,0,0,1,4.39,3c0,.08,0,.32.06.4v0a1.59,1.59,0,0,1,0,.34c.17,2.66-2.22,4-3.51,4.28a8.89,8.89,0,0,1-2.16.3" style="fill:#fff;fill-rule:evenodd"></path><path d="M55.31,178.06s0,0,0,0a.47.47,0,0,0,0-.1l.46-.73c.76-1.25,2.38-3.88,3.84-6.26,1.75.37,2.63.57,4.37,1l-.75-1.39s-2.91-.58-1.51-3l.05-.11a.05.05,0,0,1,0,0,3.12,3.12,0,0,0,.32-2,3.83,3.83,0,0,0-.88-1.85,4.18,4.18,0,0,0-1.19-1,4.24,4.24,0,0,0-1.3-.51c-1.27-.25-1.9-.37-3.17-.6.35.54.52.82.86,1.36a2,2,0,0,1,.63.24,2.1,2.1,0,0,1,1,2.8h0s-.29.51-.77,1.3l-1.87-.36-.57-.1-.74-.13s0,0,0,0l-1-.17-.21,0,.12.2c.12.19.19.28.31.48a.25.25,0,0,0,0,.07c.07.11.1.17.17.27l.19.31h0s3,.49,1.52,3c-1.33,2.25-2.81,4.81-3.76,6.42a9.18,9.18,0,0,1-1.09,1.54c-.55.47-1.93,1.11-4.8-.82l-.08-.06-.09-.06s0,.05,0,.09,0,0,0,.07c.13,1.33.19,2,.3,3.32,0,0,0,0,0,0a7.2,7.2,0,0,0,4.93.55c1.89-.42,2.86-.61,4.8-1a2.62,2.62,0,0,1-.12-2.81" style="fill:#a31216;fill-rule:evenodd"></path><path d="M46.93,180.44a6,6,0,0,0,3.4.17l3.37-.72a3.81,3.81,0,0,1,.35-2.2,1.43,1.43,0,0,1,.13-.28l.07-.13.44-.69c.56-.93,1.63-2.67,2.75-4.49l1.09-1.76a1.26,1.26,0,0,1,1.36-.59l.36.08a3.17,3.17,0,0,1,.34-2.81,2.12,2.12,0,0,1,.11-.21,1.84,1.84,0,0,0,.15-1.09,2.56,2.56,0,0,0-.59-1.23,3.48,3.48,0,0,0-.87-.74l-.16-.09a3.14,3.14,0,0,1-.07,2.92l-.79,1.33a1.3,1.3,0,0,1-1.34.6l-.34-.07a3.25,3.25,0,0,1-.37,3l-3.76,6.42a10.15,10.15,0,0,1-1.26,1.76,4,4,0,0,1-4.4.48l0,.34m2,2.92a8.41,8.41,0,0,1-3.78-.9,1.28,1.28,0,0,1-.7-.94.89.89,0,0,1,0-.23c-.1-1.25-.16-1.91-.29-3.2a1.3,1.3,0,0,1,.62-1.4,1.27,1.27,0,0,1,1.51.18c1.8,1.19,2.86,1.25,3.25.9a8.91,8.91,0,0,0,.82-1.21l3.77-6.42c.25-.42.25-.63.23-.68a1.59,1.59,0,0,0-.86-.42,1.32,1.32,0,0,1-.92-.67l-.35-.58-.18-.27a1.65,1.65,0,0,1-.14-1.56c.26-.43.63-.86,1.12-.8l1.26.22.1,0a6.75,6.75,0,0,1,.76.14l1.51.27.3-.5c.18-.32,0-.8-.5-1.06a1.86,1.86,0,0,1-1.09-.68c-.32-.53-.5-.8-.84-1.32a1.28,1.28,0,0,1,1.31-2l.37.06,2.82.53a5.92,5.92,0,0,1,1.71.67,6,6,0,0,1,1.53,1.3,5.06,5.06,0,0,1,1.15,2.47,4.48,4.48,0,0,1-.44,2.77l-.08.12c-.23.45-.25.63-.22.69a1.47,1.47,0,0,0,.84.46,1.31,1.31,0,0,1,.89.66l.74,1.39a1.29,1.29,0,0,1-1.44,1.86c-1.4-.35-2.24-.55-3.44-.8l-.61,1c-1.11,1.81-2.18,3.54-2.74,4.49l-.36.55a1.08,1.08,0,0,1-.12.24,1.3,1.3,0,0,0,.09,1.41,1.29,1.29,0,0,1,.12,1.22,1.27,1.27,0,0,1-.94.77c-1.93.37-2.9.57-4.77,1a8.61,8.61,0,0,1-2,.24" style="fill:#fff;fill-rule:evenodd"></path><path d="M97,186.49s0,0,0,0a.44.44,0,0,1,0-.1s.05-.32.14-.86c.13-.75.33-1.92.56-3.28a3.13,3.13,0,0,0-.4-2.12,3.59,3.59,0,0,0-1.44-1.37,4,4,0,0,0-2.78-.47l-1.76.36-.48.11-.12,0-.12,0L90,179h0l-.13,0-.12,0a3.7,3.7,0,0,0-1.45-1.25,4.24,4.24,0,0,0-1.42-.41,4.35,4.35,0,0,0-1.36.07c-.57.15-.86.21-1.42.38h0l-.47.12-.15,0a.5.5,0,0,1-.13,0l-.61.17-.23.06h0A3.84,3.84,0,0,0,81,177.13a4.29,4.29,0,0,0-1.45-.35,4,4,0,0,0-1.35.13l-3,.91,1.33.82a2.76,2.76,0,0,1,.65-.06,2,2,0,0,1,2,2s0,0,0,0-.07,1.07-.31,5.05c0,.21,0,.41-.06.6h0c0,.22,0,.32,0,.53a1.49,1.49,0,0,1,0,.21,3.63,3.63,0,0,1-3.23,3.56.93.93,0,0,1-.32,0h-.23a.67.67,0,0,1-.22,0c.32.51.48.77.79,1.3,0,0,0,0,0,0s0,0,0,0a7.31,7.31,0,0,0,4.68-1.72c1.51-1.24,2.27-1.86,3.84-3.09a2.61,2.61,0,0,1-1.39-2.45v-.06s0-.32.08-.85c.06-.76.17-1.95.28-3.34a2.93,2.93,0,0,0-.13-1.14l.22-.06h0l.37-.1.16-.05a2.74,2.74,0,0,1,.64,0,2.29,2.29,0,0,1,2,2.11s0,0,0,0c-.23,2.26-.37,3.37-.59,5.64h0a5,5,0,0,1-.05.53c0,.11,0,.22,0,.33s0,.17-.07.27a2.64,2.64,0,0,1-.17.47,3.83,3.83,0,0,1-.44.73l-.19.23a3.28,3.28,0,0,1-.64.54.45.45,0,0,1-.1.09,4.32,4.32,0,0,1-.92.43,3.82,3.82,0,0,1-1.6.19.86.86,0,0,1-.22,0c.39.69.57,1,1,1.71v0h0a7.25,7.25,0,0,0,4.76-1.52h0c1.56-1.18,2.36-1.76,4-2.91a2.56,2.56,0,0,1-1.25-2.51.07.07,0,0,0,0,.06.49.49,0,0,1,0-.12s0-.32.1-.85c.1-.75.25-1.94.43-3.32a3.41,3.41,0,0,0-.06-1.06l.18,0h0c.14,0,.2-.05.35-.07s.28-.07.47-.1a2.29,2.29,0,0,1,.64,0c1.19.17,2.12,1.29,1.89,2.21h0s-.17,1.08-.74,5l-.1.59c0,.21,0,.32-.09.53a1.6,1.6,0,0,1-.07.33,2,2,0,0,1-.06.26c-.06.16-.12.32-.19.47a6.43,6.43,0,0,1-.48.72l-.2.21a5.47,5.47,0,0,1-.66.53l-.12.06a3.61,3.61,0,0,1-.92.4,4.33,4.33,0,0,1-1.61.14l-.22,0,.87,1.74v0h0A7.47,7.47,0,0,0,94,191.8c1.61-1.11,2.43-1.68,4.11-2.74A2.61,2.61,0,0,1,97,186.49" style="fill:#a31216;fill-rule:evenodd"></path><path d="M84.44,180.38c0,.06,0,.12,0,.18l-.28,3.33c0,.57-.09.92-.09.92a1.31,1.31,0,0,0,.54,1.08l.5-4.71v-.12a1.14,1.14,0,0,0-.66-.68Zm6.62,4.92a1.5,1.5,0,0,1,0,.3,1.29,1.29,0,0,0,.65,1.25l.06,0c.56-3.89.73-5,.73-5a.91.91,0,0,0-.8-.74h-.12a.66.66,0,0,0,0,.14l-.43,3.34c0,.27-.06.48-.08.62Zm-11.17,1.18-1,.34h1.28a4.23,4.23,0,0,1,0,.5,4.92,4.92,0,0,1-.45,1.81c1-.83,1.7-1.39,2.55-2.06a3.76,3.76,0,0,1-.7-2.47c0-.14,0-.43.08-.91l.27-3.34a1.63,1.63,0,0,0-.06-.63.65.65,0,0,0-.35-.69,2.58,2.58,0,0,0-1-.74,2.69,2.69,0,0,0-1-.22h-.18a3.17,3.17,0,0,1,.49.48,2.9,2.9,0,0,1,.72,2.05v.13h0l-.3,5.05c0,.23,0,.39,0,.51a.28.28,0,0,1,0,.09h0l0,.15Zm7.17.61,0,.46,0,.33c0,.05-.06.27-.08.32a3.52,3.52,0,0,1-.28.81,4.53,4.53,0,0,1-.6,1l-.07.09.23-.16.11-.09c1.13-.86,1.86-1.4,2.79-2.06a3.8,3.8,0,0,1-.59-2.07,1.09,1.09,0,0,1,0-.44s0-.35.1-.91L89,181a2,2,0,0,0,0-.63,1.22,1.22,0,0,1,0-.38,1,1,0,0,1-.28-.26,2.3,2.3,0,0,0-1-.81,3,3,0,0,0-1-.3h-.27a3.81,3.81,0,0,1,1.21,2.4,1.6,1.6,0,0,1,0,.31L87.08,187s0,.07,0,.1Zm8-4.66s-.17,1.15-.71,4.9l-.11.66a5.27,5.27,0,0,1-.1.58A1.69,1.69,0,0,1,94,189s-.07.29-.08.31c-.15.37-.2.5-.26.63a6,6,0,0,1-.62.95l-.12.12c.13-.07.25-.15.37-.23,1.16-.8,1.91-1.32,2.87-1.94a3.79,3.79,0,0,1-.51-2.23.14.14,0,0,1,0-.09l.74-4.4a2,2,0,0,0-.25-1.26,2.56,2.56,0,0,0-1-.89,3.08,3.08,0,0,0-1-.35l-.17,0a3.85,3.85,0,0,1,.56.65,2.73,2.73,0,0,1,.44,2.22Zm-5.26,12-.65,0a2,2,0,0,1-1-.75l0,0-.71-1.42a8.48,8.48,0,0,1-4.94,1.41,1.32,1.32,0,0,1-.44,0,1.29,1.29,0,0,1-.84-.77l-.62-1.1a8.63,8.63,0,0,1-4.69,1.49,1.29,1.29,0,0,1-1.3-.73l-.73-1.19a1.3,1.3,0,0,1,.14-1.53,1.53,1.53,0,0,1,1-.43,2.28,2.28,0,0,1,.37,0,2.41,2.41,0,0,0,2.29-2.42l0-.54a2,2,0,0,1,0-.35s.05-.48.05-.49l.3-4.86a1,1,0,0,1,0-.24,1,1,0,0,0-.82-.6,1.73,1.73,0,0,0-.32,0,1.28,1.28,0,0,1-1-.17l-1.31-.8a1.29,1.29,0,0,1,.28-2.33c1.2-.37,1.79-.56,3-.91a5.16,5.16,0,0,1,1.78-.18,5.46,5.46,0,0,1,1.87.44,5.81,5.81,0,0,1,1.34.86l.12,0,.32-.09.48-.11.08,0,.85-.23.46-.12a5.4,5.4,0,0,1,1.82-.1,5.38,5.38,0,0,1,3.23,1.52l.25-.06,2.29-.48a5.75,5.75,0,0,1,1.8,0,5.43,5.43,0,0,1,1.89.65,4.9,4.9,0,0,1,1.91,1.84,4.41,4.41,0,0,1,.56,3l-.68,4s0,.07,0,.1,0,.06,0,.08a1.32,1.32,0,0,0,.63,1.28,1.29,1.29,0,0,1,0,2.16c-1.66,1-2.48,1.61-4.07,2.7a8.77,8.77,0,0,1-5,1.57Z" style="fill:#fff;fill-rule:evenodd"></path><path d="M107.71,185.43a4.28,4.28,0,0,1,.1.59c0,.21.06.32.09.52a2.15,2.15,0,0,1,0,.34,2.28,2.28,0,0,0,0,.26c0,.17,0,.35,0,.52a3,3,0,0,1-.23.82,1.31,1.31,0,0,1-.12.27,3.06,3.06,0,0,1-.45.71l-.07.09a4.93,4.93,0,0,1-.39.4l-.11,0a2.09,2.09,0,0,1-.8-.55,1.56,1.56,0,0,1-.2-.27,2.13,2.13,0,0,1-.23-.59l0,0c-.42-2.22-.64-3.35-1.08-5.57h0c0-.22-.06-.31-.11-.53s0-.23,0-.34,0-.16,0-.25,0-.35,0-.53a3.79,3.79,0,0,1,.22-.83c.05-.08.09-.19.13-.26a4.42,4.42,0,0,1,.48-.71l.08-.11c.14-.14.27-.27.42-.4l.12,0a2.09,2.09,0,0,1,.84.55,1.26,1.26,0,0,1,.2.27,4.54,4.54,0,0,1,.22.61h0s.17,1.07.88,5m6.78,5.39a.61.61,0,0,1-.07-.1c-.33-.42-.49-.63-.83-1a.82.82,0,0,1-.23,0c-.42,0-1.22-.14-1.41-1.44s-.33-2.09-.55-3.47h0a1,1,0,0,0,0-.18c-.07-.44-.1-.66-.16-1.1,0,0-.06-.32-.14-.85,0-.28-.1-.59-.14-.95a2.52,2.52,0,0,1,1.22-2.55c-1-.7-1.57-1-2.62-1.71l-.27-.18a4,4,0,0,0-3-.65h0l-.11,0a2.94,2.94,0,0,0-.76.18l-.12,0-.44.18a8.27,8.27,0,0,0-1.13.62s0,0,0,0a5.85,5.85,0,0,0-1.88,1.8c-1.2,1.63-1.79,2.45-2.92,4.09a2.6,2.6,0,0,1,2.09,1.91s0,0,0,.05l.9,4.12a3.36,3.36,0,0,0,1.11,1.81,3.52,3.52,0,0,0,1.69.82,3.89,3.89,0,0,0,1.36,0h0l.09,0a4.93,4.93,0,0,0,.64-.17l.06,0,.31-.12.15-.07a8.57,8.57,0,0,0,1.08-.64h0l.15-.12a4.45,4.45,0,0,0,.53-.42,2.19,2.19,0,0,0,2.07.65,2.85,2.85,0,0,0,.51-.07l.59-.1,2.16-.32.14,0v0" style="fill:#a31216;fill-rule:evenodd"></path><path d="M106.5,188v0a1.59,1.59,0,0,0,.14-.48l1.32-.36h-1.29l1.23-.59-1.27.22s-.11-.6-.12-.64a3,3,0,0,0-.06-.4s0-.05,0-.06c-.55-3.09-.78-4.41-.85-4.84v0a2.54,2.54,0,0,0-.21.66l0,.38.1.58a1.94,1.94,0,0,1,0,.24h0c.43,2.13.64,3.26,1,5.29Zm.17,3.28a1.27,1.27,0,0,1-.6-.15,3.08,3.08,0,0,1-1.29-.9,1.75,1.75,0,0,1-.4-.61,2,2,0,0,1-.25-.6,1.12,1.12,0,0,1-.08-.26c-.44-2.32-.66-3.44-1.08-5.57,0,0,0,0,0-.06s0-.21,0-.22-.1-.53-.1-.56,0-.38,0-.38a7,7,0,0,1,0-.79,4.84,4.84,0,0,1,.31-1.18c0-.05.17-.36.2-.41a4.88,4.88,0,0,1,.62-.91,6.18,6.18,0,0,1,.67-.68,1.3,1.3,0,0,1,1.45-.12,2.9,2.9,0,0,1,1.29.87,1.88,1.88,0,0,1,.38.54,4.4,4.4,0,0,1,.24.6h0a1.26,1.26,0,0,1,.13.37s.17,1.08.87,4.94a5,5,0,0,1,.12.74l-1.18.63,1.26-.24a3.86,3.86,0,0,1,.06.49c0,.05,0,.36,0,.41l0,.4a5.13,5.13,0,0,1-.33,1.35l-.18.41a5.06,5.06,0,0,1-.59.92,6.3,6.3,0,0,1-.61.63,1.26,1.26,0,0,1-.85.33Z" style="fill:#fff;fill-rule:evenodd"></path><path d="M106.33,190.87l.78,1.09-.36-1.25a6.75,6.75,0,0,0,.86-.52c.29-.22.42-.31.53-.41a1.13,1.13,0,0,1,.92-.37,1.27,1.27,0,0,1,.9.4.93.93,0,0,0,.92.28l.43-.06a3.32,3.32,0,0,1-.63-1.58l-.48-3a2.21,2.21,0,0,1-.11-.51l-.46-3a3.62,3.62,0,0,1,.51-2.49l-1.32-.86.42-1.26-.74,1a2.56,2.56,0,0,0-1-.43,2.64,2.64,0,0,0-1,0h0l-.23,0a2.67,2.67,0,0,0-.43.12l-.45.18a8.22,8.22,0,0,0-.85.46l-.12.09a4.85,4.85,0,0,0-1.55,1.48c-.85,1.16-1.39,1.9-2,2.82a3.71,3.71,0,0,1,1.4,2.09l0,.12.9,4.12a2.1,2.1,0,0,0,.68,1.1,2.31,2.31,0,0,0,1.11.54,2.91,2.91,0,0,0,.88,0,3.73,3.73,0,0,0,.57-.16Zm-1.1,2.77a5.16,5.16,0,0,1-.79-.06,4.75,4.75,0,0,1-2.35-1.13,4.56,4.56,0,0,1-1.51-2.46l-.89-4.08a1.28,1.28,0,0,1,0-.38,1.55,1.55,0,0,0-1.06-.67,1.27,1.27,0,0,1-.94-.77,1.32,1.32,0,0,1,.13-1.22c1.14-1.66,1.74-2.48,2.94-4.13a7.15,7.15,0,0,1,2.17-2.09l.08-.05a9.08,9.08,0,0,1,1.29-.71l.51-.21a6.5,6.5,0,0,1,1.14-.31H106a5.23,5.23,0,0,1,2,0,5.28,5.28,0,0,1,2,.86c1.28.82,1.8,1.17,2.86,1.87a1.3,1.3,0,0,1,.57,1.09,1.28,1.28,0,0,1-.6,1.07,1.26,1.26,0,0,0-.64,1.25l.28,1.78s.05.35.05.37l.11.71a1.6,1.6,0,0,1,0,.21l.55,3.48c0,.25.09.36.12.38a1.23,1.23,0,0,1,1.26.44l.83,1a1.19,1.19,0,0,1,.16.23,1.32,1.32,0,0,1,.2.69,1.29,1.29,0,0,1-1.25,1.28l-2.65.42c-.3.05-.44.08-.69.1a3.33,3.33,0,0,1-2.13-.32l-.14.07a7,7,0,0,1-1.12.66l-.37.16-.41.14a4.61,4.61,0,0,1-.71.19,6,6,0,0,1-1.09.1Z" style="fill:#fff;fill-rule:evenodd"></path><path d="M32.7,159.37l.23-.26a1.53,1.53,0,0,1,.19-.18c.14-.11.27-.22.41-.31a3.17,3.17,0,0,1,.79-.37c.1,0,.2-.06.29-.07a4.82,4.82,0,0,1,.86-.1h.12a3.8,3.8,0,0,1,.58.06.83.83,0,0,0,0,.12,1.94,1.94,0,0,1,.12,1,1.13,1.13,0,0,1-.08.34c-.08.2-.23.4-.31.56v0s-.72.81-3.26,3.88q-.2.24-.39.45l-.34.41a1.88,1.88,0,0,1-.24.25,1.53,1.53,0,0,1-.18.18c-.13.11-.28.2-.42.3a3,3,0,0,1-.77.36,1.57,1.57,0,0,1-.29.08,3.3,3.3,0,0,1-.82.11H29.1a3.41,3.41,0,0,1-.55-.05s0-.06,0-.09a2.16,2.16,0,0,1-.11-1,1.59,1.59,0,0,1,.09-.33,1.94,1.94,0,0,1,.31-.56v0c1.43-1.75,2.15-2.63,3.57-4.4h0c.13-.17.21-.25.33-.41m-6.37,7.77h0s0,0,.07,0a3.73,3.73,0,0,0,.53.39l.06,0a2.64,2.64,0,0,0,.29.15l.15.08a7.24,7.24,0,0,0,1.18.41h0l.18,0a5.64,5.64,0,0,0,.67.13,2.22,2.22,0,0,0,.81,2l.4.34.45.39c.65.56,1,.85,1.63,1.44a.24.24,0,0,1,.11.09s0,0,0,0,0-.07,0-.11l.27-1.31-.16-.16c-.28-.31-.67-1,.19-2l2.3-2.66h0a1.59,1.59,0,0,1,.13-.13c.29-.35.44-.51.73-.84l.57-.65c.18-.21.38-.45.63-.72a2.55,2.55,0,0,1,2.73-.69c-.13-1.25-.21-1.87-.36-3.12,0-.12,0-.19,0-.31a3.8,3.8,0,0,0-.5-1.59,3.75,3.75,0,0,0-.94-1.14h0l-.09-.07a2.93,2.93,0,0,0-.63-.45l-.11-.08-.42-.21A7.16,7.16,0,0,0,36,156h0a5.76,5.76,0,0,0-2.57-.28c-2,.13-3,.2-5,.4a2.59,2.59,0,0,1-.13,2.83.05.05,0,0,0,0,0c-1,1.33-1.55,2-2.58,3.33a3.37,3.37,0,0,0-.67,2,3.65,3.65,0,0,0,.46,1.82,4.13,4.13,0,0,0,.89,1" style="fill:#a31216;fill-rule:evenodd"></path><path d="M36.13,158.3v0l.08-.07Zm-2.6,2.06a1.07,1.07,0,0,1-.15.22l-.46.58L30,164.75a1.77,1.77,0,0,0,.38-.17l.36-.25.24-.27.29-.34.4-.46c2-2.45,2.9-3.48,3.19-3.81a2.12,2.12,0,0,0-.62.24l-.26.2-.26.26-.17.22Zm-4.3,7.12a5.88,5.88,0,0,1-.88-.07,1.29,1.29,0,0,1-1-.83l0-.11h0a3.29,3.29,0,0,1-.17-1.58,2.78,2.78,0,0,1,.18-.65,2.32,2.32,0,0,1,.36-.67,1,1,0,0,1,.14-.22h0l3.1-3.81.4-.5,0,0,.21-.27.28.16-.13-.22.05,0-.08-.06.23-.27.39-.37c.23-.18.37-.3.53-.4a4.45,4.45,0,0,1,1.1-.51,3.37,3.37,0,0,1,.53-.12,4.12,4.12,0,0,1,1-.11.85.85,0,0,1,.22,0,5,5,0,0,1,.77.08,1.32,1.32,0,0,1,.94.78,3.46,3.46,0,0,1,.24,1.79,2.59,2.59,0,0,1-.18.67,3.74,3.74,0,0,1-.27.5h0a1.33,1.33,0,0,1-.23.38s-.73.84-3.24,3.86c-.12.16-.28.33-.43.5l-.32.38a4,4,0,0,1-.36.38,5.85,5.85,0,0,1-.74.58,4.47,4.47,0,0,1-1.07.51l-.47.13a4.13,4.13,0,0,1-1.05.13Z" style="fill:#fff;fill-rule:evenodd"></path><path d="M27.25,166.23a3.62,3.62,0,0,0,.38.26l.37.19A5.61,5.61,0,0,0,29,167a6.5,6.5,0,0,0,.71.14,1.3,1.3,0,0,1,1.12,1.43,1,1,0,0,0,.38.9l.32.27a3.36,3.36,0,0,1,.78-1.49l2.14-2.47a1.22,1.22,0,0,1,.27-.33l1.95-2.23A3.71,3.71,0,0,1,38.86,162c0-.47-.11-.94-.19-1.57,0,0,0-.34,0-.35a2.68,2.68,0,0,0-.34-1.08,2.46,2.46,0,0,0-.63-.77l-.08-.06a1.17,1.17,0,0,1-.16-.15h0s-.11-.09-.32-.21l-.45-.25a6.19,6.19,0,0,0-.94-.36.79.79,0,0,1-.26-.08,4.66,4.66,0,0,0-2-.18c-1.43.09-2.35.15-3.47.25a3.81,3.81,0,0,1-.69,2.4.77.77,0,0,1-.09.13l-2.57,3.33a2.06,2.06,0,0,0-.41,1.22,2.47,2.47,0,0,0,.3,1.19,2.64,2.64,0,0,0,.52.61l.17.14M31.54,171l-.15.35.19-.23s0-.08,0-.12m1.36,3a1.27,1.27,0,0,1-.85-.32l-.13-.1c-.55-.51-.87-.79-1.38-1.22l-.31-.27-.78-.68a3.48,3.48,0,0,1-1.17-1.91,9.48,9.48,0,0,1-1.36-.48l-.6-.31a7.19,7.19,0,0,1-.72-.51l-.08-.06-.06,0s0,0-.05-.05a4.77,4.77,0,0,1-1.72-3.78,4.56,4.56,0,0,1,.93-2.75l2.54-3.29.12-.16a1.3,1.3,0,0,0,0-1.36,1.3,1.3,0,0,1,1-1.91c2-.2,3-.26,5-.4a7.22,7.22,0,0,1,3.05.34l.12,0a7,7,0,0,1,1.3.5l.49.25a5.15,5.15,0,0,1,1,.74h0a5.3,5.3,0,0,1,1.27,1.53,5.2,5.2,0,0,1,.64,2.1c.19,1.51.26,2.13.4,3.39a1.26,1.26,0,0,1-.46,1.13,1.29,1.29,0,0,1-1.21.23,1.27,1.27,0,0,0-1.38.32l-1.91,2.18s0,0,0,0l-.1.13L34.2,170a.91.91,0,0,0-.2.34,1.3,1.3,0,0,1,.47,1.26l-.27,1.29a1.71,1.71,0,0,1-.09.3c0,.06,0,.13-.06.15a1.25,1.25,0,0,1-1,.7H32.9" style="fill:#fff;fill-rule:evenodd"></path><path d="M176.71,136.77a2.08,2.08,0,0,1-2.66,1.22h0s-1-.49-4.53-2.15a5.44,5.44,0,0,1-.54-.26l-.47-.23a3.86,3.86,0,0,1-1.64-5.11l.1-.2c-.76.16-1.14.23-1.91.37,0,0,0,0,0,0h0a7.77,7.77,0,0,0-.2,5.09h0c.07.2.1.33.17.53.11.4.17.6.29,1,.37,1.29.53,1.94.88,3.24a2.61,2.61,0,0,1,2.79-.42s0,0,0,0,.29.16.77.38c.68.33,1.73.87,3,1.49a2.6,2.6,0,0,0,1.11.3c0,.25,0,.37-.09.63a1,1,0,0,0,0,.18,3,3,0,0,1-.24.62,2.07,2.07,0,0,1-2.71,1.08h0s-1-.49-4.43-2.34l-.52-.28a4.23,4.23,0,0,0-.47-.25,3.88,3.88,0,0,1-1.4-5.18l.1-.2c-.77.13-1.16.19-1.94.3h0a7.62,7.62,0,0,0-.42,5.06c.47,1.92.7,2.88,1.13,4.8a2.59,2.59,0,0,1,2.79-.25l0,0,.1,0,.74.42,2.9,1.6a3.62,3.62,0,0,0,4.82-1.82,5.22,5.22,0,0,0,.45-1.31c.09-.6.14-.89.22-1.48s.14-1,.22-1.7a4.1,4.1,0,0,0,2.46-2.22,4.59,4.59,0,0,0,.4-1.32c.13-1.27.19-1.91.32-3.18-.52.41-.76.61-1.27,1a2.25,2.25,0,0,1-.2.62" style="fill:#a31216;fill-rule:evenodd"></path><path d="M176.71,136.77h0ZM170,138.92l.3.14c.6.29,1.43.72,2.4,1.21l.59.31a1.47,1.47,0,0,0,.58.15,1.43,1.43,0,0,1,.41.09,1.35,1.35,0,0,1,.34-.17,2.84,2.84,0,0,0,1.68-1.54.37.37,0,0,1,0-.11,3.11,3.11,0,0,1-2.83.16l-.15-.08c-.33-.16-1.5-.73-4.4-2.08a6,6,0,0,1-.62-.31l-.37-.17a4.67,4.67,0,0,1-2-1.82c0,.14.07.27.11.4a1.05,1.05,0,0,1,.05.19c0,.05,0,.1,0,.11.19.67.25.86.36,1.22.21.73.36,1.25.5,1.79a3.76,3.76,0,0,1,2.52.26.92.92,0,0,1,.48.25Zm1.41,4.49a.56.56,0,0,0,.34,0,1,1,0,0,0,.54-.45l-.14-.07-.62-.31c-1-.49-1.77-.91-2.33-1.18s-.82-.4-.82-.4l-.15-.1a1.37,1.37,0,0,0-1.12.24c3.32,1.77,4.24,2.25,4.25,2.25l0,0ZM166.23,145l0,0,3.64,2a1.84,1.84,0,0,0,1.41.12,2.82,2.82,0,0,0,1.65-1.42l.06-.12a3,3,0,0,1-.49.2,3,3,0,0,1-2.36-.18l-.1,0c-.3-.16-1.45-.76-4.34-2.31l-.87-.46a5,5,0,0,1-2.07-2.06c0,.17.07.33.11.5.34,1.39.56,2.27.81,3.36a3.66,3.66,0,0,1,2.17.23,1.43,1.43,0,0,1,.34.14Zm4.51,4.83a4.32,4.32,0,0,1-2.08-.53l-3.48-1.94a1,1,0,0,1-.22-.09,1.35,1.35,0,0,0-1.41.18,1.3,1.3,0,0,1-1.21.16,1.32,1.32,0,0,1-.8-.93c-.42-1.91-.65-2.86-1.12-4.77a8.91,8.91,0,0,1,.49-5.89,1.29,1.29,0,0,1,1.16-.76l1.33-.21a9,9,0,0,1,.43-5.13,1.33,1.33,0,0,1,.23-.38,1.35,1.35,0,0,1,.95-.46c.64-.11,1-.19,1.7-.33a1.28,1.28,0,0,1,1.39,1.87,2.64,2.64,0,0,0,1,3.54l.53.25.44.22c3.62,1.69,4.6,2.18,4.6,2.18h0a.9.9,0,0,0,.9-.61,1.16,1.16,0,0,0,.1-.27,1.29,1.29,0,0,1,.5-.84c.49-.37.73-.56,1.23-1a1.31,1.31,0,0,1,1.42-.13,1.28,1.28,0,0,1,.67,1.26l-.32,3.18a5.87,5.87,0,0,1-.53,1.77,5.57,5.57,0,0,1-2.43,2.55l-.35,2.46a6.26,6.26,0,0,1-.56,1.68,5.47,5.47,0,0,1-3.21,2.73,4.68,4.68,0,0,1-1.32.19Z" style="fill:#fff;fill-rule:evenodd"></path><path d="M163.37,157.78a2,2,0,0,1-1.42.12,1.7,1.7,0,0,1-.57-.32h0s-.52-.44-2.36-2q-.63-.54-1.5-1.23l-.45-.41c-.17-.12-.23-.19-.4-.32a3.65,3.65,0,0,1-1.19-3.42,1.94,1.94,0,0,1,1.4-.07,1.39,1.39,0,0,1,.56.3h0l3.91,3.12a3.51,3.51,0,0,1,.45.39l0,0a3.19,3.19,0,0,0,.4.33,3.51,3.51,0,0,1,1.14,3.48m-6.31-11.16a3.8,3.8,0,0,0-2.55,1.43.46.46,0,0,0-.07.07,4.68,4.68,0,0,0-.68,1.12,11.06,11.06,0,0,0-.41,1.14s0,0,0,0-.08.29-.11.44L149.75,148a3.47,3.47,0,0,0-4.81.46,3.37,3.37,0,0,0-.63,1c-.38,1.05-.57,1.59-1,2.64l1.38-.41a2,2,0,0,1,3.07-.72s0,0,0,0c2.79,2.44,4.2,3.64,7,6.06a2.7,2.7,0,0,0,.43.39c.32.3.49.45.82.74,0,0,.23.21.64.55.56.5,1.48,1.28,2.5,2.17a3.61,3.61,0,0,0,5.09-.79.31.31,0,0,0,.07-.09v0a3.73,3.73,0,0,0,.43-.6l0-.06v0A1.82,1.82,0,0,0,165,159s.06-.11.09-.17a10.11,10.11,0,0,0,.5-1.28l0,0a6.39,6.39,0,0,0-2-7.11l-.88-.66-.68-.52c-.21-.16-.47-.34-.76-.58a2.51,2.51,0,0,1-.88-2.64c-.67.13-1,.21-1.69.32l-1.63.27" style="fill:#a31216;fill-rule:evenodd"></path><path d="M162.1,156.52l0,0a2.07,2.07,0,0,0-.72-1.24l-.27-.22a1,1,0,0,1-.2-.15c-.1-.09-.21-.19-.33-.28l-3.81-3a2.22,2.22,0,0,0,.69,1.08l.43.35-.41,1.36.81-1,1.52,1.25c1.4,1.14,2,1.68,2.26,1.87Zm1.27,1.26h0Zm-.87,1.49a3,3,0,0,1-.95-.15,3,3,0,0,1-.89-.46,1.55,1.55,0,0,1-.27-.24h0s-.62-.51-2.19-1.79c-.43-.37-.92-.77-1.49-1.23l-.29-.26.65-1.15-1,.82A5,5,0,0,1,154.2,150a1.28,1.28,0,0,1,.76-1,3.3,3.3,0,0,1,2.33-.11,2.59,2.59,0,0,1,.84.44l.12.07,3.91,3.13a4.08,4.08,0,0,1,.37.3l.14.1.32.26a4.84,4.84,0,0,1,1.64,4.78,1.28,1.28,0,0,1-.7.9,3.32,3.32,0,0,1-1.43.33Z" style="fill:#fff;fill-rule:evenodd"></path><path d="M157.06,146.62h0Zm-8.63,3.21a1.49,1.49,0,0,1,.2.15c2.38,2.07,3.76,3.26,5.85,5.06l1.15,1s.43.4.45.43L160,159.9a1.83,1.83,0,0,0,1.35.4,2.84,2.84,0,0,0,1.89-1,.79.79,0,0,1,.12-.15,3.08,3.08,0,0,0,.27-.39h0a1.62,1.62,0,0,1,.1-.18,3.24,3.24,0,0,0,.17-.32,6,6,0,0,0,.35-.86.87.87,0,0,1,.05-.22,5.13,5.13,0,0,0-1.54-5.7l-.63-.47-.25-.19-1.47-1.12a3.54,3.54,0,0,1-1.33-2.09l-1.85.31h-.07a2.5,2.5,0,0,0-1.68.94.39.39,0,0,1-.08.1l-.06.06a3.84,3.84,0,0,0-.44.77,7.81,7.81,0,0,0-.33.9s0,0,0,.06h0a1.73,1.73,0,0,1-.91,1.11,1.36,1.36,0,0,1-1.27,0L148.93,149a2.17,2.17,0,0,0-3,.31l0,0a3.22,3.22,0,0,1,2.54.55Zm12.77,13a4.32,4.32,0,0,1-2.86-1l-2.52-2.19c-.4-.34-.64-.56-.64-.56-.32-.27-.5-.43-.83-.73a3.38,3.38,0,0,1-.55-.53l-1-.84c-2.06-1.77-3.42-3-5.73-5l-.14-.1a.66.66,0,0,0-.93.11,2.18,2.18,0,0,1-.92.86l-1.4.42a1.29,1.29,0,0,1-1.56-1.71c.32-.8.5-1.3.74-2l.24-.66a4.47,4.47,0,0,1,.86-1.42,4.76,4.76,0,0,1,6.61-.62l2.05,1.69a5.69,5.69,0,0,1,.88-1.4l0,0a5.07,5.07,0,0,1,3.35-1.88l3.26-.58a1.34,1.34,0,0,1,1.18.38,1.27,1.27,0,0,1,.31,1.19,1.25,1.25,0,0,0,.4,1.31l2.31,1.76a7.62,7.62,0,0,1,2.51,8.32,1.55,1.55,0,0,1,0,.21,10.09,10.09,0,0,1-.57,1.47c-.18.33-.27.5-.36.63a6.57,6.57,0,0,1-.61.85h0v0h0l-.08.08a5.39,5.39,0,0,1-3.58,1.89l-.39,0Z" style="fill:#fff;fill-rule:evenodd"></path><path d="M137.43,168.26l-.05-.1-.38-.52c-.09-.13-.2-.29-.35-.47a4.32,4.32,0,0,0-.34-.39s0,0,0,0,.08-.12.13-.21l.16-.24h0a2.06,2.06,0,0,1,.45-.43,2,2,0,0,1,2.78.29h0s.2.29.82,1.09a1,1,0,0,0,.13.18c.2.25-.09,0,.11.25-.32,1.73-.49,2.58-.86,4.33-1.22-1.67-1.42-2.09-2.66-3.74m10.94,2.66h0c-.12-.17.05.05-1.3-1.63a6.66,6.66,0,0,1-1.14-1.92,2.83,2.83,0,0,1-.57,0,5,5,0,0,1-.88-.05,5.7,5.7,0,0,1-1.49-.43c-.11.69-.19,1-.31,1.73-.2,1.12-.31,1.69-.54,2.82l1,.31h0l.06,0h.05a2.51,2.51,0,0,1,1.52.91c.09.12.3.4.75,1a2.41,2.41,0,0,0,.34.37.11.11,0,0,1,0,0,1.34,1.34,0,0,1-.16.23,1.74,1.74,0,0,0-.15.26h0a2.28,2.28,0,0,1-.47.46,2.18,2.18,0,0,1-2.53.14l-1.74-2.36c.65-3,.94-4.47,1.41-7.42.13-.77.19-1.15.31-1.92l-.31-.32a3.28,3.28,0,0,0-1.46-.77l-.07,0a3.88,3.88,0,0,0-1.82.08,3.64,3.64,0,0,0-1.24.63,3.8,3.8,0,0,0-.86.93c-.18.27-.27.41-.45.7h0c-.17.25-.25.38-.41.63l-.22.35s0,0,0,0l0,0c-.08.15-.14.21-.23.36l-.46-.17h-.08a3.23,3.23,0,0,0-1-.11L133,167c-.39.57-.58.86-1,1.41l-.23.32c-.08.12-.11.17-.2.29a2,2,0,0,1,1.93.3l.36.54h0l4.88,7c.19.3.29.45.5.74a2.76,2.76,0,0,0,.23.27l0,0h0a3.06,3.06,0,0,0,1.39.76.16.16,0,0,0,.1,0,3.56,3.56,0,0,0,1.91-.06,4.26,4.26,0,0,0,1.37-.67,4.2,4.2,0,0,0,1-1c.23-.31.33-.46.54-.77s.27-.41.45-.67l.24-.37a.09.09,0,0,0,0-.05s0,0,0,0l.25-.39a3.13,3.13,0,0,0,.48.13.13.13,0,0,0,.09,0,3.6,3.6,0,0,0,1.09,0c.33-.52.5-.76.81-1.27s.6-.94,1-1.56c.1-.13.13-.23.23-.36s.13-.2.2-.32a2,2,0,0,1-2.38-.43" style="fill:#a31216;fill-rule:evenodd"></path><path d="M138.53,167.57l.9,1.24c0-.29.11-.59.17-.92h0l-.64-.82a.63.63,0,0,1-.1-.12.7.7,0,0,0-.87-.13l0,0,.28.38c0,.06.21.29.24.35m1.56,5.72a1.28,1.28,0,0,1-1-.54c-.56-.76-.91-1.27-1.24-1.75s-.75-1.09-1.41-2a1.74,1.74,0,0,1-.11-.18l-.64-.86a1.69,1.69,0,0,1-.48-1.32,2.36,2.36,0,0,1,.18-.57l-.08-.06.34-.51a.94.94,0,0,1,.09-.12,3.4,3.4,0,0,1,5-.23,1.3,1.3,0,0,1,.19.22l.8,1a2.39,2.39,0,0,1,.39.7,1.39,1.39,0,0,1,.1.75c-.33,1.74-.5,2.61-.87,4.37a1.32,1.32,0,0,1-1,1,1.24,1.24,0,0,1-.27,0" style="fill:#fff;fill-rule:evenodd"></path><path d="M135.75,165.29l.13.05-.11-.1Zm11.94,8.28h.12l.65-1a3,3,0,0,1-1.07-.83.3.3,0,0,1-.08-.08l-.52-.65-.74-.92a9.92,9.92,0,0,1-1-1.4l-.8-.06-.32-.06,0,.3c-.12.69-.22,1.17-.32,1.69a3.74,3.74,0,0,1,2.21,1.37l.73,1a1.53,1.53,0,0,1,.37.52,1.22,1.22,0,0,1,.34,0,2.93,2.93,0,0,1,.43.12Zm-4.28.63a1,1,0,0,0,.8-.14l-.35-.44a1.36,1.36,0,0,0-.72-.53,1.91,1.91,0,0,1-.33-.06l-.1,0-.25-.07Zm3.06,1.26.1.08,0-.07-.1,0,0,0Zm-5.28,1.92.21,0a2.3,2.3,0,0,0,1.21-.06,3.22,3.22,0,0,0,1-.47l.1-.08a3.42,3.42,0,0,1-1.93-.6,1.2,1.2,0,0,1-.28-.27l-1.74-2.36a1.28,1.28,0,0,1-.22-1c.66-3,.94-4.44,1.4-7.34l.2-1.25a1.92,1.92,0,0,0-.68-.31,2.66,2.66,0,0,0-1.23,0,2.36,2.36,0,0,0-.82.42,2.53,2.53,0,0,0-.59.63l-.41.65a.61.61,0,0,1-.12.16l-.48.76h0l0,.05a2.11,2.11,0,0,1-.21.31,1.45,1.45,0,0,1-1.71.66l-.34-.13h0l-.56.83a2.85,2.85,0,0,1,.46.31,1,1,0,0,1,.25.26,2.61,2.61,0,0,0,.19.27,2.49,2.49,0,0,1,.15.28h0l5.38,7.72h0a1,1,0,0,1,.21.19,2,2,0,0,0,.64.35Zm.7,2.67a4.4,4.4,0,0,1-1-.12,1.57,1.57,0,0,1-.34-.07,4.19,4.19,0,0,1-1.84-1.05v0a.46.46,0,0,1-.07-.07,2.74,2.74,0,0,1-.38-.44l-5.36-7.69-.1-.17-.1-.13a.57.57,0,0,0-.62-.06,1.28,1.28,0,0,1-1.46-.48,1.29,1.29,0,0,1,0-1.54l2-2.89a1.77,1.77,0,0,1,1.14-.77,4.8,4.8,0,0,1,1.41.15h0l-.28-.25.31-.48.07-.09.35-.55a5.46,5.46,0,0,1,1.16-1.27,4.94,4.94,0,0,1,1.68-.85,5.05,5.05,0,0,1,2.42-.11,4.64,4.64,0,0,1,2.15,1.1l.41.41a1.27,1.27,0,0,1,.31,1.06l-.31,1.94a.52.52,0,0,1,0,.11l.09,0a4.55,4.55,0,0,0,1.11.32,6.25,6.25,0,0,0,.66,0,1.78,1.78,0,0,1,1.82.84,5.53,5.53,0,0,0,.93,1.54l.73.9.51.64.08.09a.71.71,0,0,0,.82.06,1.29,1.29,0,0,1,1.68,1.78l-.28.45c-.11.18-.16.27-.24.38l-1.77,2.77a1.3,1.3,0,0,1-.92.58,5,5,0,0,1-1.28,0l0,0,0,0-.08,0,.16.13-.19.28-.29.43c-.2.3-.31.45-.55.78a5.27,5.27,0,0,1-1.24,1.26,5.61,5.61,0,0,1-1.79.87,5.05,5.05,0,0,1-1.43.21Z" style="fill:#fff;fill-rule:evenodd"></path><path d="M152.57,161.26s0,0,0,.05a.22.22,0,0,1-.07-.09L150.41,159a1.25,1.25,0,0,1-.17-1.74l-1,0H147.9l-.48,0h-.06a4,4,0,0,0-1.34.3,4,4,0,0,0-2,1.86c-.52,1.07-.77,1.62-1.29,2.7l1.45-.41a3,3,0,0,1,.38-.5,1.94,1.94,0,0,1,2.77-.12h0l3.41,3.52a9.31,9.31,0,0,1,.93,1.08s2.44,2.7.06,4.92c.45.13.67.21,1.11.35l.22.06h0l.06-.08.06,0,.05-.07a6.65,6.65,0,0,0,1.66-5c.08-1.59.13-2.4.25-4a2.54,2.54,0,0,1-2.64-.62" style="fill:#a31216;fill-rule:evenodd"></path><path d="M148.21,160.15l.09.08,3.42,3.52a10.17,10.17,0,0,1,1.06,1.24,5.3,5.3,0,0,1,.92,1.46c0-.15,0-.31,0-.46,0-1.16.09-1.9.14-2.73a3.68,3.68,0,0,1-1.95-.89,1.45,1.45,0,0,1-.26-.24l-.05-.07c-.81-.84-1.24-1.3-2-2.16a3.21,3.21,0,0,1-.76-1.35h-.53l-.53-1.27.12-1-.23.59.11.43.06,1.28a2.58,2.58,0,0,1-.38,0v0a2.39,2.39,0,0,0-.85.2,3.14,3.14,0,0,0-.83.55,1.57,1.57,0,0,1,.43,0,3,3,0,0,1,2.08.84m4.9,12.19a1.45,1.45,0,0,1-.54-.11l-1.16-.36a1.29,1.29,0,0,1-.51-2.17c1.37-1.27.12-2.82-.14-3.12a9.8,9.8,0,0,0-.88-1l-3.36-3.46-.08-.08a.33.33,0,0,0-.34-.13.87.87,0,0,0-.6.27,2.22,2.22,0,0,1-.93.82l-1.46.42a1.29,1.29,0,0,1-1.51-1.79l1.29-2.71a5.63,5.63,0,0,1,1-1.38,5.37,5.37,0,0,1,1.62-1.09,5.15,5.15,0,0,1,1.79-.42,1.68,1.68,0,0,1,.54.08V156h1l1.38,0a1.2,1.2,0,0,1,1.2.76,1.29,1.29,0,0,1-.24,1.4,30.66,30.66,0,0,1,2.29,2.22l.05.06a1.24,1.24,0,0,0,1.29.27,1.29,1.29,0,0,1,1.68,1.32c-.11,1.59-.16,2.39-.25,4a7.74,7.74,0,0,1-2,5.76,1.12,1.12,0,0,1-.19.18l-.2.2a1.3,1.3,0,0,1-.77.26" style="fill:#fff;fill-rule:evenodd"></path><path d="M142.29,158.51a1.1,1.1,0,0,0,0,.16,2.16,2.16,0,0,1-.17.34s0,0,0,.08a.18.18,0,0,0,0,.14.21.21,0,0,0,.08.16c.31.21,1.75-.63,1.51-3.86,0,0-.16-2.74-2.58-3a.65.65,0,0,0-.2,0h-.2a2.68,2.68,0,0,0-1.67.75,2.23,2.23,0,0,0-.25,3.14,2,2,0,0,0,1.51.55h.08s0,0,0,0a2.87,2.87,0,0,1,.64,0,1.56,1.56,0,0,1,.57.1,1.62,1.62,0,0,1,.41.27,1.36,1.36,0,0,1,.33,1.25" style="fill:#a31216;fill-rule:evenodd"></path><path d="M141.16,155.61a2.66,2.66,0,0,1,.81.16l.42.22c0-.12,0-.24,0-.36s-.17-1.69-1.44-1.83v0h-.21a1.51,1.51,0,0,0-.84.41,1.28,1.28,0,0,0-.38.87.55.55,0,0,0,.59.59h.23a3.52,3.52,0,0,1,.8,0Zm.22,2.77.65.21h.24Zm.88.29h0Zm0,2a1.48,1.48,0,0,1-.84-.25,1.7,1.7,0,0,1-.63-1.11,1.79,1.79,0,0,1,0-.45,1.31,1.31,0,0,1,.21-.59h0c0-.05,0,0,0-.07s0-.07,0-.08a3.83,3.83,0,0,0-.53,0h-.08a1.32,1.32,0,0,1-.28,0,3.19,3.19,0,0,1-2.3-.93,3.11,3.11,0,0,1-.91-2.24,3.89,3.89,0,0,1,1.16-2.72,4,4,0,0,1,2.51-1.13h.32a1.65,1.65,0,0,1,.42,0c2.64.29,3.52,2.87,3.6,4.2.26,3.53-1.27,4.7-1.75,5a1.86,1.86,0,0,1-.94.26Z" style="fill:#fff;fill-rule:evenodd"></path><path d="M132.42,181.77l-.17.2-.18.19h0a2.1,2.1,0,0,1-.5.34,2,2,0,0,1-2.68-.77h0s-.16-.3-.62-1.22a1.74,1.74,0,0,1-.1-.19c-.11-.22-.18-.36-.29-.55l.69-1.71,1.72.91.07,0,0,0a2.62,2.62,0,0,1,1.31,1.19c.06.15.23.46.54,1.11a3.12,3.12,0,0,0,.27.43s0,0,0,0m-4.56-5.45-.32-.17-1.23-.63h0a2.6,2.6,0,0,1-1.2-1.09l-.57-1.1a2.65,2.65,0,0,0-.26-.42l0,0,.19-.21.2-.21h0a2.47,2.47,0,0,1,.53-.36,2,2,0,0,1,2.81.73h0s.17.3.61,1.22a1.14,1.14,0,0,1,.1.19c.12.25.2.41.32.64l0,.08-.62,1.67c-.23-.12-.36-.18-.59-.32m7.78,4.11a5.63,5.63,0,0,0-.32-1.11h0c-.1-.19,0,.07-.89-1.87a6.79,6.79,0,0,1-.68-2.14,3,3,0,0,1-.54-.09,6.52,6.52,0,0,1-.85-.27,7.5,7.5,0,0,1-1.36-.73c-.28.64-.4,1-.66,1.61s-.37.91-.59,1.51l0,0c-.31-.17-.47-.28-.74-.43l2.45-6.09-.06-.1h0a.88.88,0,0,1-.06-.1h0a2.44,2.44,0,0,1-.17-.27,3.19,3.19,0,0,0-1.29-1.07l-.07,0a3.81,3.81,0,0,0-1.91-.27,4.37,4.37,0,0,0-1.44.42,4.52,4.52,0,0,0-1.12.79l-.63.65h0c-.23.22-.35.34-.56.57l-.3.32,0,0,0,.05-.32.34a2.58,2.58,0,0,0-.44-.22l-.09,0a4.69,4.69,0,0,0-1.05-.23l-1,1.12c-.5.53-.74.8-1.23,1.35-.11.13-.18.18-.28.31s-.14.17-.25.28a2,2,0,0,1,2.27.83s0,0,0,0c.09.19,0-.05,1,1.82a6.57,6.57,0,0,1,.82,2.09,3.21,3.21,0,0,1,.55.05,6.34,6.34,0,0,1,.86.22,6.92,6.92,0,0,1,1.39.67c.24-.65.34-1,.6-1.64s.32-.88.55-1.48c.38.19.58.3.93.5l-2.23,6.08.09.14,0,.06h0a1.72,1.72,0,0,0,.13.18l0,.05v0h0a3.33,3.33,0,0,0,1.25,1l.08,0a3.64,3.64,0,0,0,1.79.25,3.75,3.75,0,0,0,1.32-.41,3.3,3.3,0,0,0,1-.74c.23-.25.35-.37.58-.63h0l.51-.55.27-.3,0,0,0,0,.3-.33a3.33,3.33,0,0,0,.42.25l.08,0a3.7,3.7,0,0,0,1,.3c.37-.41.56-.59.94-1s.72-.73,1.18-1.2a2.18,2.18,0,0,1-1.25-.49" style="fill:#a31216;fill-rule:evenodd"></path><path d="M129.91,181a1,1,0,0,1,.1.17.7.7,0,0,0,.8.28l-.1-.21c-.14-.28-.22-.45-.26-.56a1.47,1.47,0,0,0-.6-.45.2.2,0,0,1-.08,0l-.14-.06-.23-.12.51,1Zm-1.06.76h0Zm1.76,2.29a3.23,3.23,0,0,1-2.76-1.49,1.27,1.27,0,0,1-.13-.19l-.64-1.25-.3-.58a1.65,1.65,0,0,1-.13-1.23l.69-1.7a1.31,1.31,0,0,1,.75-.73,1.28,1.28,0,0,1,1,.07c.65.33,1,.53,1.69.9h0a3.85,3.85,0,0,1,2,1.79l.56,1.14a1.73,1.73,0,0,1,.21,1.65,1.78,1.78,0,0,1-.21.27l0,.06s-.22.24-.23.24a1.17,1.17,0,0,1-.16.15,2.91,2.91,0,0,1-.79.54,3.26,3.26,0,0,1-1.51.36Z" style="fill:#fff;fill-rule:evenodd"></path><path d="M127.08,174.47l.5.26c-.47-1-.62-1.25-.63-1.27a.91.91,0,0,1-.12-.31c0,.11-.11,0-.22,0a1,1,0,0,0-.66,0c.21.4.3.58.35.69a1.38,1.38,0,0,0,.58.47l.2.11m1.37,3.46a1.4,1.4,0,0,1-.63-.16l-.56-.31-.28-.15-1.24-.63-.16-.1a3.81,3.81,0,0,1-1.56-1.52l-.47-.9a2.33,2.33,0,0,1-.41-1.54l-.07,0a1.4,1.4,0,0,1,.33-.61l1.12.68-.83-1a4.09,4.09,0,0,1,1-.72,3.64,3.64,0,0,1,2.77-.24,3,3,0,0,1,1.8,1.53h0s.18.33.62,1.26l.4.79a1.31,1.31,0,0,1,.08,1l-.67,1.8a1.27,1.27,0,0,1-.76.76,1.32,1.32,0,0,1-.44.08" style="fill:#fff;fill-rule:evenodd"></path><path d="M123.69,171.78l.06,0,0,0Zm.48,6.53a8.36,8.36,0,0,1,.81.22l.25.09c0-.1.08-.2.12-.32l.56-1.47a1.27,1.27,0,0,1,1.78-.68l.19.09L130,171a1.83,1.83,0,0,0-.66-.5l-.13-.06a2.56,2.56,0,0,0-1.19-.15,3,3,0,0,0-1.79.84l-1.43,1.49-.08.09-.14.14-.24.25a1.28,1.28,0,0,1-1.66.14,2.76,2.76,0,0,1-.35-.17l-.58.62-.25.26a2.94,2.94,0,0,1,.85.87,1.64,1.64,0,0,1,.14.22c.07.16.08.16.75,1.37l.22.39a9.85,9.85,0,0,1,.71,1.56Zm4,6a8.06,8.06,0,0,0,.87,0A2.75,2.75,0,0,0,130,184a2.21,2.21,0,0,0,.64-.47l.56-.61a.6.6,0,0,0,.08-.08l.25-.27.46-.49h0l.13-.14.27-.29a1.29,1.29,0,0,1,1.69-.14l.32.17.35-.37a1.31,1.31,0,0,1-.33-.64,4.2,4.2,0,0,0-.25-.85s0,0-.25-.53l-.61-1.31a10,10,0,0,1-.61-1.58,7.1,7.1,0,0,1-.78-.27l-.24-.1-.69,1.75a1.33,1.33,0,0,1-.25.41,1.3,1.3,0,0,1-1.56.3l-1.9,5.17a2.07,2.07,0,0,0,.62.43,1.36,1.36,0,0,1,.34.18Zm.6,2.59a5.13,5.13,0,0,1-1.86-.36,4.72,4.72,0,0,1-1.86-1.38L125,185l-.06-.09-.2-.29a1.32,1.32,0,0,1-.15-1.17l.7-1.9a.1.1,0,0,1-.05,0,6.27,6.27,0,0,0-1.1-.52,4.91,4.91,0,0,0-.71-.18l-.28,0a1.29,1.29,0,0,1-1.27-1.09,5.62,5.62,0,0,0-.67-1.67l-.22-.39-.76-1.37a.78.78,0,0,0-.86-.28,1.28,1.28,0,0,1-1.43-.6,1.27,1.27,0,0,1,.19-1.54l.8.41-.13-.49-.28-.37.22.15v-.05a1.14,1.14,0,0,1,.25-.06l-.23-.29c.41-.47.66-.75,1.12-1.24l1-1.08a1.36,1.36,0,0,1,1.12-.43,6.3,6.3,0,0,1,1.12.23l1.07-1.11.22-.23a5.47,5.47,0,0,1,1.45-1,5.85,5.85,0,0,1,1.87-.55,5.08,5.08,0,0,1,2.57.37l.13.07a4.53,4.53,0,0,1,1.76,1.47s.24.38.27.43a1.88,1.88,0,0,1,.17,1.29l-.77,1.92a5.18,5.18,0,0,0,1,.51,5.27,5.27,0,0,0,.67.22,1.8,1.8,0,0,0,.36.06,1.31,1.31,0,0,1,1.16,1.14,5.47,5.47,0,0,0,.56,1.72l.83,1.78a5.64,5.64,0,0,1,.35.94l.19,0a1.3,1.3,0,0,1,.85,2.19L135.72,184a1.28,1.28,0,0,1-1.16.41,5.73,5.73,0,0,1-1-.26l-.53.55h0l-.36.39a5.14,5.14,0,0,1-1.55,1.22,5.34,5.34,0,0,1-1.74.53,5.12,5.12,0,0,1-.56,0Z" style="fill:#fff;fill-rule:evenodd"></path><path d="M65.1,178.94a3.18,3.18,0,0,1,.09-.33,2.34,2.34,0,0,0,.09-.24c.08-.16.16-.31.25-.46a3.06,3.06,0,0,1,.54-.67,2.11,2.11,0,0,1,.23-.19,4.51,4.51,0,0,1,.73-.46l.11-.05a3.62,3.62,0,0,1,.55-.2l.09.08a1.88,1.88,0,0,1,.53.84,1.3,1.3,0,0,1,.08.34c0,.2,0,.46,0,.64,0,0,0,0,0,0s-.28,1.06-1.22,4.92a5.71,5.71,0,0,1-.16.57,4.39,4.39,0,0,1-.13.52,1,1,0,0,1-.1.33,1.69,1.69,0,0,1-.08.24,4,4,0,0,1-.24.46,3.8,3.8,0,0,1-.54.66l-.21.2a4.21,4.21,0,0,1-.7.46.39.39,0,0,0-.11.06l-.53.2-.08-.08a2.22,2.22,0,0,1-.51-.83,1.28,1.28,0,0,1-.06-.33,2.21,2.21,0,0,1,0-.63s0,0,0,0c.52-2.19.77-3.3,1.27-5.52v0c0-.22.08-.32.12-.53m-4.2,1.55a.11.11,0,0,0,0,0c-.34,1.65-.51,2.48-.86,4.11a3.55,3.55,0,0,0,1.51,3.55,3.79,3.79,0,0,0,1.25.54h.1a5.37,5.37,0,0,0,.65.11h.06a1.93,1.93,0,0,0,.34,0h.16a7.23,7.23,0,0,0,1.25-.15h0a.65.65,0,0,1,.19,0l.66-.17A2.2,2.2,0,0,0,67.83,190l.5.14.58.15c.83.23,1.25.34,2.09.59a.32.32,0,0,1,.14,0v0c0-.05,0-.07,0-.12-.13-.52-.2-.77-.33-1.29a1.45,1.45,0,0,1-.23-.08c-.38-.16-1-.62-.7-1.89s.55-2,.91-3.41h0c0-.07.05-.12.06-.17.11-.43.17-.64.3-1.06,0,0,.07-.3.21-.83.07-.27.16-.58.26-.93a2.54,2.54,0,0,1,2.16-1.83c-.67-1.06-1-1.59-1.71-2.65l-.17-.26a4,4,0,0,0-2.49-1.82h0l-.12,0a3.23,3.23,0,0,0-.76-.13h-.14l-.46,0a9.37,9.37,0,0,0-1.29.12l0,0a5.8,5.8,0,0,0-2.44.87c-1.76,1-2.62,1.51-4.32,2.56a2.61,2.61,0,0,1,1.12,2.6" style="fill:#a31216;fill-rule:evenodd"></path><path d="M19.32,156l-.21-.16-.22-.15s0,0,0,0a2.26,2.26,0,0,1-.42-.45,2,2,0,0,1,.39-2.76s0,0,0,0l1.1-.77a.84.84,0,0,1,.19-.12l.51-.36,1.78.43c-.24.7-.39,1.09-.66,1.82a.22.22,0,0,1,0,.08s0,0,0,0a2.5,2.5,0,0,1-1,1.45l-1,.7a3.13,3.13,0,0,0-.39.31h0m4.77-5.27c0-.15.07-.22.11-.35.19-.51.29-.78.47-1.3v0a2.65,2.65,0,0,1,.91-1.35c.13-.08.42-.29,1-.71a2.47,2.47,0,0,0,.39-.32s0,0,0,0l.23.16a2.13,2.13,0,0,1,.25.16h0a2.46,2.46,0,0,1,.43.48,2.05,2.05,0,0,1-.33,2.89h0s-.27.2-1.13.77a.67.67,0,0,1-.16.12l-.59.41-.09,0-1.74-.38c.09-.24.14-.38.24-.62m-3,8.27a8,8,0,0,0,1-.47h0c.17-.13-.07,0,1.74-1.13a6.38,6.38,0,0,1,2-1c0-.19,0-.36,0-.55a5.63,5.63,0,0,1,.15-.87,7.59,7.59,0,0,1,.54-1.45l-1.69-.42c-.65-.16-.95-.24-1.59-.38l0,0c.14-.32.22-.5.33-.78L30,153.49l.1-.08h0l.09-.07h0l.25-.2a3.16,3.16,0,0,0,.88-1.42s0-.05,0-.08a3.75,3.75,0,0,0,0-1.94,4.32,4.32,0,0,0-.61-1.36,4.75,4.75,0,0,0-.93-1c-.3-.21-.45-.31-.74-.53,0,0,0,0,0,0-.27-.18-.4-.28-.66-.47l-.36-.26s0,0,0,0L28,146l-.37-.27a2.6,2.6,0,0,0,.16-.47.19.19,0,0,1,0-.08,4,4,0,0,0,.07-1.09l-1.24-.86-1.51-1a3.08,3.08,0,0,0-.34-.24c-.12-.09-.19-.12-.32-.22a2,2,0,0,1-.51,2.36s0,0,0,0l-1.67,1.23a6.59,6.59,0,0,1-2,1.1,2.63,2.63,0,0,1,0,.56,6,6,0,0,1-.09.88,6.67,6.67,0,0,1-.48,1.48c.69.14,1,.21,1.71.37l1.54.34c-.14.39-.21.61-.35,1l-6.32-1.38-.15.11s0,0,0,0h0L16,150a.1.1,0,0,1,0,.05h0a3.34,3.34,0,0,0-.77,1.39s0,.05,0,.08a3.62,3.62,0,0,0,0,1.79,3.77,3.77,0,0,0,.59,1.25,3.59,3.59,0,0,0,.87.87c.27.2.41.3.71.49h0l.61.44.34.22.05,0s0,0,0,0c.16.1.23.16.36.25a3.52,3.52,0,0,0-.18.45s0,.06,0,.09a3.35,3.35,0,0,0-.16,1c.45.31.67.48,1.13.81s.82.6,1.36,1a2.2,2.2,0,0,1,.3-1.31" style="fill:#a31216;fill-rule:evenodd"></path><path d="M41,175.47c1.59-.2,2.38-.3,4-.45a2.53,2.53,0,0,1,.14-2.71l0,0,.08-.08c.74-1,1.1-1.48,1.86-2.48a1.21,1.21,0,0,1,1.66-.46c-.07-.39-.12-.59-.19-1,0-.15,0-.22-.06-.37v0s0,0,0,0c-.07-.35-.1-.53-.17-.89l-.1-.46s0,0,0-.06a3.86,3.86,0,0,0-.53-1.28,4.1,4.1,0,0,0-1-1,4.16,4.16,0,0,0-1.16-.57c-1.15-.34-1.73-.5-2.88-.8.25.54.39.81.66,1.35a3.08,3.08,0,0,1,.54.28,2,2,0,0,1,.61,2.72h0l-2.87,4a9.33,9.33,0,0,1-.91,1.09s-2.24,2.88-4.82.92l-.15,1.15c0,.1,0,.15,0,.23a0,0,0,0,0,0,0l.09,0,.07.06.06,0a6.74,6.74,0,0,0,5.18.77" style="fill:#a31216;fill-rule:evenodd"></path><path d="M47.24,159.43h0v0a.33.33,0,0,1,0,.06s0,0,0,0a2.55,2.55,0,0,1,.13.62,1.24,1.24,0,0,1-.19,1,1.38,1.38,0,0,1-1.19.54h-.14a2.22,2.22,0,0,1-.37-.09h-.08a.25.25,0,0,0-.15,0,.18.18,0,0,0-.13.11c-.17.34.92,1.6,4,.81,0,0,2.67-.64,2.52-3.06a.47.47,0,0,0,0-.2.53.53,0,0,0,0-.13s0,0,0-.07a2.59,2.59,0,0,0-1-1.51,2.22,2.22,0,0,0-3.14.3,1.93,1.93,0,0,0-.26,1.57" style="fill:#a31216;fill-rule:evenodd"></path><path d="M55.31,178.06s0,0,0,0a.47.47,0,0,0,0-.1l.46-.73c.76-1.25,2.38-3.88,3.84-6.26,1.75.37,2.63.57,4.37,1l-.75-1.39s-2.91-.58-1.51-3l.05-.11a.05.05,0,0,1,0,0,3.12,3.12,0,0,0,.32-2,3.83,3.83,0,0,0-.88-1.85,4.18,4.18,0,0,0-1.19-1,4.24,4.24,0,0,0-1.3-.51c-1.27-.25-1.9-.37-3.17-.6.35.54.52.82.86,1.36a2,2,0,0,1,.63.24,2.1,2.1,0,0,1,1,2.8h0s-.29.51-.77,1.3l-1.87-.36-.57-.1-.74-.13s0,0,0,0l-1-.17-.21,0,.12.2c.12.19.19.28.31.48a.25.25,0,0,0,0,.07c.07.11.1.17.17.27l.19.31h0s3,.49,1.52,3c-1.33,2.25-2.81,4.81-3.76,6.42a9.18,9.18,0,0,1-1.09,1.54c-.55.47-1.93,1.11-4.8-.82l-.08-.06-.09-.06s0,.05,0,.09,0,0,0,.07c.13,1.33.19,2,.3,3.32,0,0,0,0,0,0a7.2,7.2,0,0,0,4.93.55c1.89-.42,2.86-.61,4.8-1a2.62,2.62,0,0,1-.12-2.81" style="fill:#a31216;fill-rule:evenodd"></path><path d="M97,186.49s0,0,0,0a.44.44,0,0,1,0-.1s.05-.32.14-.86c.13-.75.33-1.92.56-3.28a3.13,3.13,0,0,0-.4-2.12,3.59,3.59,0,0,0-1.44-1.37,4,4,0,0,0-2.78-.47l-1.76.36-.48.11-.12,0-.12,0L90,179h0l-.13,0-.12,0a3.7,3.7,0,0,0-1.45-1.25,4.24,4.24,0,0,0-1.42-.41,4.35,4.35,0,0,0-1.36.07c-.57.15-.86.21-1.42.38h0l-.47.12-.15,0a.5.5,0,0,1-.13,0l-.61.17-.23.06h0A3.84,3.84,0,0,0,81,177.13a4.29,4.29,0,0,0-1.45-.35,4,4,0,0,0-1.35.13l-3,.91,1.33.82a2.76,2.76,0,0,1,.65-.06,2,2,0,0,1,2,2s0,0,0,0-.07,1.07-.31,5.05c0,.21,0,.41-.06.6h0c0,.22,0,.32,0,.53a1.49,1.49,0,0,1,0,.21,3.63,3.63,0,0,1-3.23,3.56.93.93,0,0,1-.32,0h-.23a.67.67,0,0,1-.22,0c.32.51.48.77.79,1.3,0,0,0,0,0,0s0,0,0,0a7.31,7.31,0,0,0,4.68-1.72c1.51-1.24,2.27-1.86,3.84-3.09a2.61,2.61,0,0,1-1.39-2.45v-.06s0-.32.08-.85c.06-.76.17-1.95.28-3.34a2.93,2.93,0,0,0-.13-1.14l.22-.06h0l.37-.1.16-.05a2.74,2.74,0,0,1,.64,0,2.29,2.29,0,0,1,2,2.11s0,0,0,0c-.23,2.26-.37,3.37-.59,5.64h0a5,5,0,0,1-.05.53c0,.11,0,.22,0,.33s0,.17-.07.27a2.64,2.64,0,0,1-.17.47,3.83,3.83,0,0,1-.44.73l-.19.23a3.28,3.28,0,0,1-.64.54.45.45,0,0,1-.1.09,4.32,4.32,0,0,1-.92.43,3.82,3.82,0,0,1-1.6.19.86.86,0,0,1-.22,0c.39.69.57,1,1,1.71v0h0a7.25,7.25,0,0,0,4.76-1.52h0c1.56-1.18,2.36-1.76,4-2.91a2.56,2.56,0,0,1-1.25-2.51.07.07,0,0,0,0,.06.49.49,0,0,1,0-.12s0-.32.1-.85c.1-.75.25-1.94.43-3.32a3.41,3.41,0,0,0-.06-1.06l.18,0h0c.14,0,.2-.05.35-.07s.28-.07.47-.1a2.29,2.29,0,0,1,.64,0c1.19.17,2.12,1.29,1.89,2.21h0s-.17,1.08-.74,5l-.1.59c0,.21,0,.32-.09.53a1.6,1.6,0,0,1-.07.33,2,2,0,0,1-.06.26c-.06.16-.12.32-.19.47a6.43,6.43,0,0,1-.48.72l-.2.21a5.47,5.47,0,0,1-.66.53l-.12.06a3.61,3.61,0,0,1-.92.4,4.33,4.33,0,0,1-1.61.14l-.22,0,.87,1.74v0h0A7.47,7.47,0,0,0,94,191.8c1.61-1.11,2.43-1.68,4.11-2.74A2.61,2.61,0,0,1,97,186.49" style="fill:#a31216;fill-rule:evenodd"></path><path d="M107.71,185.43a4.28,4.28,0,0,1,.1.59c0,.21.06.32.09.52a2.15,2.15,0,0,1,0,.34,2.28,2.28,0,0,0,0,.26c0,.17,0,.35,0,.52a3,3,0,0,1-.23.82,1.31,1.31,0,0,1-.12.27,3.06,3.06,0,0,1-.45.71l-.07.09a4.93,4.93,0,0,1-.39.4l-.11,0a2.09,2.09,0,0,1-.8-.55,1.56,1.56,0,0,1-.2-.27,2.13,2.13,0,0,1-.23-.59l0,0c-.42-2.22-.64-3.35-1.08-5.57h0c0-.22-.06-.31-.11-.53s0-.23,0-.34,0-.16,0-.25,0-.35,0-.53a3.79,3.79,0,0,1,.22-.83c.05-.08.09-.19.13-.26a4.42,4.42,0,0,1,.48-.71l.08-.11c.14-.14.27-.27.42-.4l.12,0a2.09,2.09,0,0,1,.84.55,1.26,1.26,0,0,1,.2.27,4.54,4.54,0,0,1,.22.61h0s.17,1.07.88,5m6.78,5.39a.61.61,0,0,1-.07-.1c-.33-.42-.49-.63-.83-1a.82.82,0,0,1-.23,0c-.42,0-1.22-.14-1.41-1.44s-.33-2.09-.55-3.47h0a1,1,0,0,0,0-.18c-.07-.44-.1-.66-.16-1.1,0,0-.06-.32-.14-.85,0-.28-.1-.59-.14-.95a2.52,2.52,0,0,1,1.22-2.55c-1-.7-1.57-1-2.62-1.71l-.27-.18a4,4,0,0,0-3-.65h0l-.11,0a2.94,2.94,0,0,0-.76.18l-.12,0-.44.18a8.27,8.27,0,0,0-1.13.62s0,0,0,0a5.85,5.85,0,0,0-1.88,1.8c-1.2,1.63-1.79,2.45-2.92,4.09a2.6,2.6,0,0,1,2.09,1.91s0,0,0,.05l.9,4.12a3.36,3.36,0,0,0,1.11,1.81,3.52,3.52,0,0,0,1.69.82,3.89,3.89,0,0,0,1.36,0h0l.09,0a4.93,4.93,0,0,0,.64-.17l.06,0,.31-.12.15-.07a8.57,8.57,0,0,0,1.08-.64h0l.15-.12a4.45,4.45,0,0,0,.53-.42,2.19,2.19,0,0,0,2.07.65,2.85,2.85,0,0,0,.51-.07l.59-.1,2.16-.32.14,0v0" style="fill:#a31216;fill-rule:evenodd"></path><path d="M32.7,159.37l.23-.26a1.53,1.53,0,0,1,.19-.18c.14-.11.27-.22.41-.31a3.17,3.17,0,0,1,.79-.37c.1,0,.2-.06.29-.07a4.82,4.82,0,0,1,.86-.1h.12a3.8,3.8,0,0,1,.58.06.83.83,0,0,0,0,.12,1.94,1.94,0,0,1,.12,1,1.13,1.13,0,0,1-.08.34c-.08.2-.23.4-.31.56v0s-.72.81-3.26,3.88q-.2.24-.39.45l-.34.41a1.88,1.88,0,0,1-.24.25,1.53,1.53,0,0,1-.18.18c-.13.11-.28.2-.42.3a3,3,0,0,1-.77.36,1.57,1.57,0,0,1-.29.08,3.3,3.3,0,0,1-.82.11H29.1a3.41,3.41,0,0,1-.55-.05s0-.06,0-.09a2.16,2.16,0,0,1-.11-1,1.59,1.59,0,0,1,.09-.33,1.94,1.94,0,0,1,.31-.56v0c1.43-1.75,2.15-2.63,3.57-4.4h0c.13-.17.21-.25.33-.41m-6.37,7.77h0s0,0,.07,0a3.73,3.73,0,0,0,.53.39l.06,0a2.64,2.64,0,0,0,.29.15l.15.08a7.24,7.24,0,0,0,1.18.41h0l.18,0a5.64,5.64,0,0,0,.67.13,2.22,2.22,0,0,0,.81,2l.4.34.45.39c.65.56,1,.85,1.63,1.44a.24.24,0,0,1,.11.09s0,0,0,0,0-.07,0-.11l.27-1.31-.16-.16c-.28-.31-.67-1,.19-2l2.3-2.66h0a1.59,1.59,0,0,1,.13-.13c.29-.35.44-.51.73-.84l.57-.65c.18-.21.38-.45.63-.72a2.55,2.55,0,0,1,2.73-.69c-.13-1.25-.21-1.87-.36-3.12,0-.12,0-.19,0-.31a3.8,3.8,0,0,0-.5-1.59,3.75,3.75,0,0,0-.94-1.14h0l-.09-.07a2.93,2.93,0,0,0-.63-.45l-.11-.08-.42-.21A7.16,7.16,0,0,0,36,156h0a5.76,5.76,0,0,0-2.57-.28c-2,.13-3,.2-5,.4a2.59,2.59,0,0,1-.13,2.83.05.05,0,0,0,0,0c-1,1.33-1.55,2-2.58,3.33a3.37,3.37,0,0,0-.67,2,3.65,3.65,0,0,0,.46,1.82,4.13,4.13,0,0,0,.89,1" style="fill:#a31216;fill-rule:evenodd"></path><path d="M176.71,136.77a2.08,2.08,0,0,1-2.66,1.22h0s-1-.49-4.53-2.15a5.44,5.44,0,0,1-.54-.26l-.47-.23a3.86,3.86,0,0,1-1.64-5.11l.1-.2c-.76.16-1.14.23-1.91.37,0,0,0,0,0,0h0a7.77,7.77,0,0,0-.2,5.09h0c.07.2.1.33.17.53.11.4.17.6.29,1,.37,1.29.53,1.94.88,3.24a2.61,2.61,0,0,1,2.79-.42s0,0,0,0,.29.16.77.38c.68.33,1.73.87,3,1.49a2.6,2.6,0,0,0,1.11.3c0,.25,0,.37-.09.63a1,1,0,0,0,0,.18,3,3,0,0,1-.24.62,2.07,2.07,0,0,1-2.71,1.08h0s-1-.49-4.43-2.34l-.52-.28a4.23,4.23,0,0,0-.47-.25,3.88,3.88,0,0,1-1.4-5.18l.1-.2c-.77.13-1.16.19-1.94.3h0a7.62,7.62,0,0,0-.42,5.06c.47,1.92.7,2.88,1.13,4.8a2.59,2.59,0,0,1,2.79-.25l0,0,.1,0,.74.42,2.9,1.6a3.62,3.62,0,0,0,4.82-1.82,5.22,5.22,0,0,0,.45-1.31c.09-.6.14-.89.22-1.48s.14-1,.22-1.7a4.1,4.1,0,0,0,2.46-2.22,4.59,4.59,0,0,0,.4-1.32c.13-1.27.19-1.91.32-3.18-.52.41-.76.61-1.27,1a2.25,2.25,0,0,1-.2.62" style="fill:#a31216;fill-rule:evenodd"></path><path d="M163.37,157.78a2,2,0,0,1-1.42.12,1.7,1.7,0,0,1-.57-.32h0s-.52-.44-2.36-2q-.63-.54-1.5-1.23l-.45-.41c-.17-.12-.23-.19-.4-.32a3.65,3.65,0,0,1-1.19-3.42,1.94,1.94,0,0,1,1.4-.07,1.39,1.39,0,0,1,.56.3h0l3.91,3.12a3.51,3.51,0,0,1,.45.39l0,0a3.19,3.19,0,0,0,.4.33,3.51,3.51,0,0,1,1.14,3.48m-6.31-11.16a3.8,3.8,0,0,0-2.55,1.43.46.46,0,0,0-.07.07,4.68,4.68,0,0,0-.68,1.12,11.06,11.06,0,0,0-.41,1.14s0,0,0,0-.08.29-.11.44L149.75,148a3.47,3.47,0,0,0-4.81.46,3.37,3.37,0,0,0-.63,1c-.38,1.05-.57,1.59-1,2.64l1.38-.41a2,2,0,0,1,3.07-.72s0,0,0,0c2.79,2.44,4.2,3.64,7,6.06a2.7,2.7,0,0,0,.43.39c.32.3.49.45.82.74,0,0,.23.21.64.55.56.5,1.48,1.28,2.5,2.17a3.61,3.61,0,0,0,5.09-.79.31.31,0,0,0,.07-.09v0a3.73,3.73,0,0,0,.43-.6l0-.06v0A1.82,1.82,0,0,0,165,159s.06-.11.09-.17a10.11,10.11,0,0,0,.5-1.28l0,0a6.39,6.39,0,0,0-2-7.11l-.88-.66-.68-.52c-.21-.16-.47-.34-.76-.58a2.51,2.51,0,0,1-.88-2.64c-.67.13-1,.21-1.69.32l-1.63.27" style="fill:#a31216;fill-rule:evenodd"></path><path d="M137.43,168.26l-.05-.1-.38-.52c-.09-.13-.2-.29-.35-.47a4.32,4.32,0,0,0-.34-.39s0,0,0,0,.08-.12.13-.21l.16-.24h0a2.06,2.06,0,0,1,.45-.43,2,2,0,0,1,2.78.29h0s.2.29.82,1.09a1,1,0,0,0,.13.18c.2.25-.09,0,.11.25-.32,1.73-.49,2.58-.86,4.33-1.22-1.67-1.42-2.09-2.66-3.74m10.94,2.66h0c-.12-.17.05.05-1.3-1.63a6.66,6.66,0,0,1-1.14-1.92,2.83,2.83,0,0,1-.57,0,5,5,0,0,1-.88-.05,5.7,5.7,0,0,1-1.49-.43c-.11.69-.19,1-.31,1.73-.2,1.12-.31,1.69-.54,2.82l1,.31h0l.06,0h.05a2.51,2.51,0,0,1,1.52.91c.09.12.3.4.75,1a2.41,2.41,0,0,0,.34.37.11.11,0,0,1,0,0,1.34,1.34,0,0,1-.16.23,1.74,1.74,0,0,0-.15.26h0a2.28,2.28,0,0,1-.47.46,2.18,2.18,0,0,1-2.53.14l-1.74-2.36c.65-3,.94-4.47,1.41-7.42.13-.77.19-1.15.31-1.92l-.31-.32a3.28,3.28,0,0,0-1.46-.77l-.07,0a3.88,3.88,0,0,0-1.82.08,3.64,3.64,0,0,0-1.24.63,3.8,3.8,0,0,0-.86.93c-.18.27-.27.41-.45.7h0c-.17.25-.25.38-.41.63l-.22.35s0,0,0,0l0,0c-.08.15-.14.21-.23.36l-.46-.17h-.08a3.23,3.23,0,0,0-1-.11L133,167c-.39.57-.58.86-1,1.41l-.23.32c-.08.12-.11.17-.2.29a2,2,0,0,1,1.93.3l.36.54h0l4.88,7c.19.3.29.45.5.74a2.76,2.76,0,0,0,.23.27l0,0h0a3.06,3.06,0,0,0,1.39.76.16.16,0,0,0,.1,0,3.56,3.56,0,0,0,1.91-.06,4.26,4.26,0,0,0,1.37-.67,4.2,4.2,0,0,0,1-1c.23-.31.33-.46.54-.77s.27-.41.45-.67l.24-.37a.09.09,0,0,0,0-.05s0,0,0,0l.25-.39a3.13,3.13,0,0,0,.48.13.13.13,0,0,0,.09,0,3.6,3.6,0,0,0,1.09,0c.33-.52.5-.76.81-1.27s.6-.94,1-1.56c.1-.13.13-.23.23-.36s.13-.2.2-.32a2,2,0,0,1-2.38-.43" style="fill:#a31216;fill-rule:evenodd"></path><path d="M152.57,161.26s0,0,0,.05a.22.22,0,0,1-.07-.09L150.41,159a1.25,1.25,0,0,1-.17-1.74l-1,0H147.9l-.48,0h-.06a4,4,0,0,0-1.34.3,4,4,0,0,0-2,1.86c-.52,1.07-.77,1.62-1.29,2.7l1.45-.41a3,3,0,0,1,.38-.5,1.94,1.94,0,0,1,2.77-.12h0l3.41,3.52a9.31,9.31,0,0,1,.93,1.08s2.44,2.7.06,4.92c.45.13.67.21,1.11.35l.22.06h0l.06-.08.06,0,.05-.07a6.65,6.65,0,0,0,1.66-5c.08-1.59.13-2.4.25-4a2.54,2.54,0,0,1-2.64-.62" style="fill:#a31216;fill-rule:evenodd"></path><path d="M142.29,158.51a1.1,1.1,0,0,0,0,.16,2.16,2.16,0,0,1-.17.34s0,0,0,.08a.18.18,0,0,0,0,.14.21.21,0,0,0,.08.16c.31.21,1.75-.63,1.51-3.86,0,0-.16-2.74-2.58-3a.65.65,0,0,0-.2,0h-.2a2.68,2.68,0,0,0-1.67.75,2.23,2.23,0,0,0-.25,3.14,2,2,0,0,0,1.51.55h.08s0,0,0,0a2.87,2.87,0,0,1,.64,0,1.56,1.56,0,0,1,.57.1,1.62,1.62,0,0,1,.41.27,1.36,1.36,0,0,1,.33,1.25" style="fill:#a31216;fill-rule:evenodd"></path><path d="M132.42,181.77l-.17.2-.18.19h0a2.1,2.1,0,0,1-.5.34,2,2,0,0,1-2.68-.77h0s-.16-.3-.62-1.22a1.74,1.74,0,0,1-.1-.19c-.11-.22-.18-.36-.29-.55l.69-1.71,1.72.91.07,0,0,0a2.62,2.62,0,0,1,1.31,1.19c.06.15.23.46.54,1.11a3.12,3.12,0,0,0,.27.43s0,0,0,0m-4.56-5.45-.32-.17-1.23-.63h0a2.6,2.6,0,0,1-1.2-1.09l-.57-1.1a2.65,2.65,0,0,0-.26-.42l0,0,.19-.21.2-.21h0a2.47,2.47,0,0,1,.53-.36,2,2,0,0,1,2.81.73h0s.17.3.61,1.22a1.14,1.14,0,0,1,.1.19c.12.25.2.41.32.64l0,.08-.62,1.67c-.23-.12-.36-.18-.59-.32m7.78,4.11a5.63,5.63,0,0,0-.32-1.11h0c-.1-.19,0,.07-.89-1.87a6.79,6.79,0,0,1-.68-2.14,3,3,0,0,1-.54-.09,6.52,6.52,0,0,1-.85-.27,7.5,7.5,0,0,1-1.36-.73c-.28.64-.4,1-.66,1.61s-.37.91-.59,1.51l0,0c-.31-.17-.47-.28-.74-.43l2.45-6.09-.06-.1h0a.88.88,0,0,1-.06-.1h0a2.44,2.44,0,0,1-.17-.27,3.19,3.19,0,0,0-1.29-1.07l-.07,0a3.81,3.81,0,0,0-1.91-.27,4.37,4.37,0,0,0-1.44.42,4.52,4.52,0,0,0-1.12.79l-.63.65h0c-.23.22-.35.34-.56.57l-.3.32,0,0,0,.05-.32.34a2.58,2.58,0,0,0-.44-.22l-.09,0a4.69,4.69,0,0,0-1.05-.23l-1,1.12c-.5.53-.74.8-1.23,1.35-.11.13-.18.18-.28.31s-.14.17-.25.28a2,2,0,0,1,2.27.83s0,0,0,0c.09.19,0-.05,1,1.82a6.57,6.57,0,0,1,.82,2.09,3.21,3.21,0,0,1,.55.05,6.34,6.34,0,0,1,.86.22,6.92,6.92,0,0,1,1.39.67c.24-.65.34-1,.6-1.64s.32-.88.55-1.48c.38.19.58.3.93.5l-2.23,6.08.09.14,0,.06h0a1.72,1.72,0,0,0,.13.18l0,.05v0h0a3.33,3.33,0,0,0,1.25,1l.08,0a3.64,3.64,0,0,0,1.79.25,3.75,3.75,0,0,0,1.32-.41,3.3,3.3,0,0,0,1-.74c.23-.25.35-.37.58-.63h0l.51-.55.27-.3,0,0,0,0,.3-.33a3.33,3.33,0,0,0,.42.25l.08,0a3.7,3.7,0,0,0,1,.3c.37-.41.56-.59.94-1s.72-.73,1.18-1.2a2.18,2.18,0,0,1-1.25-.49" style="fill:#a31216;fill-rule:evenodd"></path></g></g></svg>