<svg xmlns="http://www.w3.org/2000/svg" viewBox="0 0 200.49 200.47"><g id="레이어_2"><g id="Layer_1"><path d="M192.6,61.21a100.49,100.49,0,1,0,7.89,39,100.07,100.07,0,0,0-7.89-39" style="fill:#98999d"></path><path d="M195.61,100.24a95.37,95.37,0,1,0-95.37,95.37,95.35,95.35,0,0,0,95.37-95.37" style="fill:#fff"></path><path d="M163.12,102.6a62.92,62.92,0,1,0-65.24,60.52,62.94,62.94,0,0,0,65.24-60.52" style="fill:#f5bc00"></path><path d="M37.24,36.52l3.58,3.6-.45.53-.55-.4L39,39.72a2.81,2.81,0,0,0-1.69-.31,3.18,3.18,0,0,0-1.25.51,10.62,10.62,0,0,0-1.7,1.71l-2,2.3,6.73,5.72,1.76-2.06.48-.57a6.35,6.35,0,0,0,.66-.88,2.26,2.26,0,0,0,.24-.87,3.44,3.44,0,0,0-.12-1.14,2.88,2.88,0,0,0-.57-1.06l-.47-.54.39-.46,6,5.14-.39.45-.62-.39a3.07,3.07,0,0,0-2.25-.48,2,2,0,0,0-.92.57c-.33.32-.73.76-1.2,1.31l-1.76,2.07L44,53.8c.74.63,1.16,1,1.3,1.07a2.31,2.31,0,0,0,1.87.5,3.88,3.88,0,0,0,1-.45A10.46,10.46,0,0,0,49.42,54l.5-.42.61.52L43.82,62l-.62-.52.35-.53a5.52,5.52,0,0,0,.59-1.27,2.5,2.5,0,0,0,.06-1.16A3.69,3.69,0,0,0,43,56.87a11.65,11.65,0,0,0-.88-.82l-9-7.67-.27-.23a6.5,6.5,0,0,0-1-.74,2.63,2.63,0,0,0-1.27-.32,3.42,3.42,0,0,0-1.14.29,2.75,2.75,0,0,0-1,.79l-.36.41-.61-.51Z" style="fill:#191515"></path><path d="M59.76,20.72l-.43.49-.49.52a1.72,1.72,0,0,0-.22,1.2,4.78,4.78,0,0,0,.53,1.59,13.58,13.58,0,0,0,1,1.81l5,7.62a6.74,6.74,0,0,1,1.16,5.13,7.7,7.7,0,0,1-3.58,5.14q-3.63,2.49-6.26,2.22c-1.75-.17-3.34-1.28-4.74-3.33l-5.48-8c-.1-.15-.17-.26-.24-.35a8.07,8.07,0,0,0-1.11-1.38,2.25,2.25,0,0,0-.93-.54,2.37,2.37,0,0,0-.91-.08,5.26,5.26,0,0,0-1.34.44l-.62.3-.45-.66,8.28-5.67.45.66-.54.37a4,4,0,0,0-1,1,2.68,2.68,0,0,0-.42,1.39,2.63,2.63,0,0,0,.28,1.22,8.33,8.33,0,0,0,.71,1.24l.23.33,5.06,7.41a5.6,5.6,0,0,0,4.23,2.6A7.24,7.24,0,0,0,62.67,42q2.6-1.78,2.34-4.18-.2-2.05-2.71-5.72l-3.76-5.51a6.62,6.62,0,0,0-1.31-1.42,3.29,3.29,0,0,0-1.41-.69,3.21,3.21,0,0,0-1.42.14,4.6,4.6,0,0,0-1.28.61l-.43.29-.45-.66,7.07-4.83Z" style="fill:#191515"></path><path d="M90.51,32.63l-.8.25a19.39,19.39,0,0,1-2.16.4,8,8,0,0,1-2.21.14c-.68-.16-1.27-.31-1.75-.47a7.09,7.09,0,0,1-1.66-.86l-8.34-5.71,3.34-8a9,9,0,0,0,.32-1,2.28,2.28,0,0,0,0-1.56,1.38,1.38,0,0,0-.64-.55,1.18,1.18,0,0,0-.8-.07l-.31.09-.23-.76,7.28-2.22.23.76-.58.28a5.08,5.08,0,0,0-.91.6c-.14.12-.38.33-.7.65a8.07,8.07,0,0,0-1.15,1.63,13.88,13.88,0,0,0-.82,1.45l-3,6.57L83,29.08q1.14.75,1.89,1.17a13.24,13.24,0,0,0,2,.89,11.54,11.54,0,0,0,1.38.44c.44.1.91.2,1.42.28l.66.1Zm-10.4,2.91-9.6,2.92-.23-.78.54-.29.86-.4a2.12,2.12,0,0,0,.9-.88,3,3,0,0,0,.2-1.41,10.71,10.71,0,0,0-.46-2.22L69,21.64a11.7,11.7,0,0,0-.45-1.2,3.61,3.61,0,0,0-1-1.54,2.46,2.46,0,0,0-1.13-.42,4.89,4.89,0,0,0-1.21,0l-.52.08-.23-.76,8.76-2.67.22.75-.59.31a4.4,4.4,0,0,0-.94.69,3.12,3.12,0,0,0-.57,1,2,2,0,0,0-.07,1.08,11.42,11.42,0,0,0,.36,1.5,3.06,3.06,0,0,0,.11.35l3.45,11.35a9.07,9.07,0,0,0,.56,1.43,2.3,2.3,0,0,0,.88,1,3,3,0,0,0,1.18.33,5.56,5.56,0,0,0,1.58,0l.47-.09Z" style="fill:#191515"></path><path d="M112.32,11.84l-.63.15-.71.15a1.75,1.75,0,0,0-.87.86,5.35,5.35,0,0,0-.46,1.61,13.85,13.85,0,0,0-.19,2.07l-.27,9.09a6.73,6.73,0,0,1-2,4.88,7.7,7.7,0,0,1-5.87,2.18q-4.39,0-6.41-1.74t-2-5.45L93,16v-.42a8.75,8.75,0,0,0-.13-1.76,2.33,2.33,0,0,0-.45-1,2.45,2.45,0,0,0-.71-.58,5.3,5.3,0,0,0-1.35-.4l-.68-.11V10.9l10,.06v.79h-.66a3.78,3.78,0,0,0-1.42.27,2.61,2.61,0,0,0-1.14.9A2.51,2.51,0,0,0,96,14.08a8.72,8.72,0,0,0-.12,1.43v.39l-.07,9a5.64,5.64,0,0,0,2,4.55A7.2,7.2,0,0,0,102.55,31q3.14,0,4.31-2.1c.67-1.2,1-3.28,1-6.24l0-6.67a6.53,6.53,0,0,0-.26-1.91,3.1,3.1,0,0,0-.77-1.37,3,3,0,0,0-1.24-.7,4.87,4.87,0,0,0-1.4-.23h-.52V11l8.57.06Z" style="fill:#191515"></path><path d="M127.16,34.17a5.26,5.26,0,0,1-5.18,1.1q-2.94-1-4-4.72a12.9,12.9,0,0,1,.19-7.79,12.44,12.44,0,0,1,3.31-5.47,5.61,5.61,0,0,1,5.88-1.43q3.12,1,4.06,4.83a13.83,13.83,0,0,1-.47,7.6,12,12,0,0,1-3.74,5.88m7.36-13.39A9.3,9.3,0,0,0,128.31,15q-5.16-1.66-9.06.81a11.42,11.42,0,0,0-4.76,6.39q-1.72,5.36.67,9.39a10.11,10.11,0,0,0,5.8,4.6,10.45,10.45,0,0,0,7.76-.27q4.13-1.91,5.9-7.4a11.45,11.45,0,0,0-.1-7.75" style="fill:#191515"></path><path d="M147.14,50.6l-.69-.47a20.22,20.22,0,0,1-1.65-1.45A7.24,7.24,0,0,1,143.32,47c-.31-.63-.55-1.19-.73-1.66a7.32,7.32,0,0,1-.35-1.83l-.72-10.09,8.37-2.38a6.92,6.92,0,0,0,1-.36,2.29,2.29,0,0,0,1.23-.95,1.37,1.37,0,0,0,0-.85,1.07,1.07,0,0,0-.44-.67l-.27-.18.46-.66,6.26,4.33-.45.64-.57-.27a4.31,4.31,0,0,0-1-.34,8.84,8.84,0,0,0-.94-.15,8.32,8.32,0,0,0-2,.12,12.38,12.38,0,0,0-1.64.25l-7,1.74.75,8.76c.07.89.16,1.63.26,2.21a12.34,12.34,0,0,0,.54,2.11,11.85,11.85,0,0,0,.52,1.35c.19.41.41.84.65,1.29l.33.58Zm-8.73-6.34-8.26-5.7.46-.67.57.24c.28.15.56.29.85.42a2.07,2.07,0,0,0,1.24.17A2.82,2.82,0,0,0,134.5,38,10.15,10.15,0,0,0,136,36.25l6.44-9.32a12.59,12.59,0,0,0,.66-1.09,3.7,3.7,0,0,0,.59-1.74,2.38,2.38,0,0,0-.38-1.15,6,6,0,0,0-.75-.95l-.39-.36.46-.65,7.53,5.2-.44.65-.62-.27a3.91,3.91,0,0,0-1.12-.31,3,3,0,0,0-1.13.16,2,2,0,0,0-.89.62,10.45,10.45,0,0,0-.95,1.21l-.21.3L138,38.31a9.32,9.32,0,0,0-.77,1.32,2.29,2.29,0,0,0-.21,1.3,2.75,2.75,0,0,0,.47,1.12,5.33,5.33,0,0,0,1,1.24l.36.31Z" style="fill:#191515"></path><path d="M159.34,48.55l7.36-2.67-4.19,6.59Zm.86,16.89-.35-.43a1.36,1.36,0,0,1-.27-.7,7,7,0,0,1,0-1.3,2,2,0,0,1,.2-.65c.1-.2.4-.69.88-1.46l10.67-16.74-.13-.15a4,4,0,0,1-1.44-.07,2,2,0,0,1-.61-.16l-.64-.3-.57.63L151.83,50a12.29,12.29,0,0,1-1.32.3,3.76,3.76,0,0,1-1.16.12,5.69,5.69,0,0,1-.93-.28,3.22,3.22,0,0,1-.72-.47l-.43-.37-.63.51,5,6.24.62-.5-.34-.42a5.13,5.13,0,0,1-.6-.94,3.73,3.73,0,0,1-.26-1.07c0-.43.23-.89.85-1.39a5,5,0,0,1,1-.59l4.77-1.88,3.87,4.8-2.65,4.08a4.49,4.49,0,0,1-.48.69,3.27,3.27,0,0,1-.5.48,2.06,2.06,0,0,1-.85.42,1.34,1.34,0,0,1-.85-.06l-.68-.43-.52-.35-.63.51,5.22,6.5Z" style="fill:#191515"></path><path d="M32.67,148.13a5,5,0,0,1-7.07-1.48,5.68,5.68,0,0,1-.72-1.91,6.49,6.49,0,0,1-.14-1.54l.05-.59,3.5-2.82.4.42-.44.42a7.16,7.16,0,0,0-1.95,3.19,3.16,3.16,0,0,0,.31,2.49,2.25,2.25,0,0,0,1.72,1.09,3.64,3.64,0,0,0,2.32-.63,4,4,0,0,0,1.77-2.93c.13-1.22.26-2.45.4-3.69A4.73,4.73,0,0,1,35,137a5,5,0,0,1,4-.75,4.51,4.51,0,0,1,2.87,2,4.84,4.84,0,0,1,.71,1.61,6.62,6.62,0,0,1,.07,1.25l0,.36-3.49,1.84-.23-.38.26-.26a12.28,12.28,0,0,0,1.72-1.92,2.17,2.17,0,0,0-1.75-3.34,3.25,3.25,0,0,0-1.91.56,3.91,3.91,0,0,0-1.7,2.94c-.15,1.28-.29,2.54-.43,3.8a5.17,5.17,0,0,1-2.38,3.41" style="fill:#191515"></path><path d="M36.74,157.21a2.46,2.46,0,0,1-2.66-.6,2.61,2.61,0,0,1-.19-2.76,7.39,7.39,0,0,1,2.21-3.1,8.51,8.51,0,0,1,2.78-1.61,2.59,2.59,0,0,1,3,.63,2.62,2.62,0,0,1,.17,2.8,7.3,7.3,0,0,1-2.17,3,7.7,7.7,0,0,1-3.16,1.69m6.88-3.79a4.45,4.45,0,0,0-1.06-4,4.72,4.72,0,0,0-4.1-1.71,6.62,6.62,0,0,0-3.91,1.64,5.93,5.93,0,0,0-2.21,3.89,5,5,0,0,0,1.19,3.88,4.41,4.41,0,0,0,3.61,1.61A6.5,6.5,0,0,0,41.3,157a6.7,6.7,0,0,0,2.32-3.58" style="fill:#191515"></path><path d="M56.45,155.88a1,1,0,0,1-1.64.1,13.8,13.8,0,0,0,.08-1.64,1.74,1.74,0,0,0-.51-1.27c-.43-.38-1.1-.26-2,.36a16,16,0,0,0-2.59,2.44l-.67.76,1.9,1.7-1,1.19L48,157.81l-4.51,5.06c-.17.21-.36.45-.54.7a1.33,1.33,0,0,0-.3.68,1.83,1.83,0,0,0,.12.69,1.43,1.43,0,0,0,.43.65l.27.25-.45.5L39,162.72l.44-.49.17.12a1.27,1.27,0,0,0,.67.31,1.07,1.07,0,0,0,.7,0,1.32,1.32,0,0,0,.39-.26,4.5,4.5,0,0,0,.38-.36,1.12,1.12,0,0,1,.2-.24l4.66-5.22-1.25-1.11.42-.47,2,.12.44-.45a7.53,7.53,0,0,1,3.8-2.43,4,4,0,0,1,3.84.77,3.13,3.13,0,0,1,.89,1.24,1.53,1.53,0,0,1-.33,1.67" style="fill:#191515"></path><path d="M51.13,171.79l-.53-.26L49,170.89a4.58,4.58,0,0,1-.83-.4c-.68-.51-1-1-1-1.54a3.17,3.17,0,0,1,.74-1.5l.45-.61,4.07-5.45-.84-.63c-.16-.11-.15-.29,0-.51a9.88,9.88,0,0,1,2.41-.71c1-.24,1.62-.39,1.91-.48l.33.25-1.38,1.85,2.62,2-.93,1.25-2.62-2-3.63,4.87a5,5,0,0,0-.71,1.27,1.23,1.23,0,0,0,.07,1,3.35,3.35,0,0,0,.57.76,10.9,10.9,0,0,0,.91.73l.28.22Z" style="fill:#191515"></path><path d="M64.12,168.83a4.11,4.11,0,0,1-2.39-.58l-.25-.11L64.86,162l.3.16a3.52,3.52,0,0,1,1.74,2.1,3.4,3.4,0,0,1-.35,2.74,3.12,3.12,0,0,1-2.43,1.8m1.73,3.52a5.71,5.71,0,0,0-1.63-2.64l2.46-.17a3.31,3.31,0,0,0,2-1.62,4.05,4.05,0,0,0,.55-3.09,4.44,4.44,0,0,0-1.59-2.15,20.13,20.13,0,0,0-2.48-1.54q-.75-.42-1.86-1.14L62,159.15l-.4-.21-.3.56.44.24a1.46,1.46,0,0,1,.84,1.33,2.83,2.83,0,0,1-.25,1.13,13.48,13.48,0,0,1-.64,1.34l-.2.36a1.81,1.81,0,0,1-.1.17L57,171.9,57,172a1.3,1.3,0,0,0-.09.21,11,11,0,0,1-.64,1,1.34,1.34,0,0,1-.59.55,3.51,3.51,0,0,1-.94.09,4.56,4.56,0,0,1-.9-.23l-.5-.15L53,174l6.11,3.37a4.73,4.73,0,0,0,3.57.58,4.19,4.19,0,0,0,2.71-2.17,4.28,4.28,0,0,0,.47-3.46m-4.6,4.24a2.68,2.68,0,0,1-2.13-.22,1.66,1.66,0,0,1-1-1.61,4.44,4.44,0,0,1,.62-1.7l2.32-4.18.34.12.23.11.28.12a3.57,3.57,0,0,1,1.76,2.41,4.3,4.3,0,0,1-.44,3.19,3.56,3.56,0,0,1-2,1.76" style="fill:#191515"></path><path d="M71.23,181a1.31,1.31,0,0,1-1,0,1.29,1.29,0,0,1-.77-.71,1.94,1.94,0,0,1,.07-1.43.38.38,0,0,1,.06-.18,1.59,1.59,0,0,1,1.12-1c.12,0,.52-.09,1.2-.21l1.07-.17-1.12,3.09a1.12,1.12,0,0,1-.64.58m3.54,1.68-.39-.14a1.34,1.34,0,0,1-.42-.22,2.29,2.29,0,0,1-.36-.41.85.85,0,0,1-.11-.75,12.57,12.57,0,0,1,.49-1.55l1.53-4.23a4,4,0,0,0,.22-2.52,2,2,0,0,0-1.3-1.4,4,4,0,0,0-2.89.41c-1.21.52-1.91,1.05-2.1,1.58-.07.18.11.35.51.49a2.51,2.51,0,0,0,.38.11l.39.06h.18l.3-.83a1.39,1.39,0,0,1,.58-.84,1.17,1.17,0,0,1,1,.06A1.68,1.68,0,0,1,73.89,174a3.66,3.66,0,0,1-.09,1.06l-.55,1.52-4.41.65a1.4,1.4,0,0,0-.74.36,2.34,2.34,0,0,0-.5.89,3.84,3.84,0,0,0-.26,1.69,2,2,0,0,0,1.41,1.76A2.23,2.23,0,0,0,70,182a8.34,8.34,0,0,0,1.36-.46q0,.34,0,.69a1.24,1.24,0,0,0,.91,1,2.46,2.46,0,0,0,1,.18,4.26,4.26,0,0,0,.94-.18l.39-.1Z" style="fill:#191515"></path><path d="M87.72,186.28l-.17.61-4.6-1,.14-.63.22,0a1.54,1.54,0,0,0,.64-.06,1,1,0,0,0,.6-.41,2.26,2.26,0,0,0,.21-.58q.1-.41.21-.78l.94-4.46a3.64,3.64,0,0,0,0-1.71,2,2,0,0,0-1.63-1.48,2.32,2.32,0,0,0-1.17.06c-.34.15-.67.32-1,.48l-1.31,6.26c-.08.33-.15.66-.19,1a1.21,1.21,0,0,0,.05.66.86.86,0,0,0,.36.49,1.69,1.69,0,0,0,.59.22l.31.07-.12.62-4.76-1,.13-.63.27.06a1.54,1.54,0,0,0,.61-.05.87.87,0,0,0,.52-.27,1.41,1.41,0,0,0,.18-.37q.06-.19.12-.48c0-.06,0-.18.07-.37a1.21,1.21,0,0,1,.07-.31l1-4.66c0-.07,0-.12,0-.15s0-.23.08-.31c.06-.27.1-.51.13-.72a1.5,1.5,0,0,0,0-.52,2.43,2.43,0,0,0-.14-.49,1,1,0,0,0-.3-.49l-.22-.18.09-.41,2.62-.72.43.29-.5,1.76,1.58-.74a4.32,4.32,0,0,1,2.42-.28,2,2,0,0,1,1.68,1.6,6.65,6.65,0,0,1-.14,2.81l-1,4.82a1.72,1.72,0,0,1,0,.21c0,.1-.05.24-.09.4a3.34,3.34,0,0,0-.09.87,1,1,0,0,0,.4.54,1.52,1.52,0,0,0,.6.33Z" style="fill:#191515"></path><path d="M100.81,187.72l-.18.06a5.11,5.11,0,0,1-.79.05h-.68a3.35,3.35,0,0,1-2.08-1.37,12.4,12.4,0,0,1-1.79-2.73l-1.08-2.09-.15,3.08a5.61,5.61,0,0,0,0,.82,1.47,1.47,0,0,0,.13.62,1.32,1.32,0,0,0,.57.5,1.83,1.83,0,0,0,.56.18h.22l0,.67-4.85-.25,0-.65h.23a1.15,1.15,0,0,0,1-.45,1.43,1.43,0,0,0,.14-.59c0-.29,0-.59.07-.88l.58-11.22v-.19c0-.15,0-.31,0-.48s0-.55,0-.77a1,1,0,0,0-.07-.48,4.1,4.1,0,0,0-.17-.47.93.93,0,0,0-.31-.42l-.27-.16,0-.29L94.58,169l.28.21-.6,11.54,1.63-2a2.52,2.52,0,0,0,.57-1.18.47.47,0,0,0-.13-.4A.92.92,0,0,0,96,177l-.26-.06,0-.67,5-.16,0,.63-.45.12-.63.18a4.88,4.88,0,0,0-1,.45,7.05,7.05,0,0,0-1.36,1.09c-.24.26-.53.58-.84,1l-.65.81,1.91,3.08c.2.32.42.65.67,1,.45.67.86,1.22,1.21,1.65.18.2.38.41.6.62l.64.54Z" style="fill:#191515"></path><path d="M123.85,184.86l-7.1,1.25-.1-.63.5-.13a2.2,2.2,0,0,0,.92-.41,2.3,2.3,0,0,0,.65-.76,2.27,2.27,0,0,0,.17-1.06,9.87,9.87,0,0,0-.15-1.37,1.33,1.33,0,0,1-.06-.31l-.71-4-7.72,1.35.71,4a11.27,11.27,0,0,0,.4,1.62,2.33,2.33,0,0,0,.65,1.11,1.78,1.78,0,0,0,.89.41,2.76,2.76,0,0,0,.95,0l.4-.08.12.67-7.06,1.25-.12-.63.35-.19a6,6,0,0,0,.83-.43,1.49,1.49,0,0,0,.63-.73,1.78,1.78,0,0,0,.17-.83,7.32,7.32,0,0,0-.12-1.06c0-.16,0-.29-.07-.41s0-.21,0-.3L107.31,174a8.39,8.39,0,0,0-.21-1,4.34,4.34,0,0,0-.6-1.22,1.14,1.14,0,0,0-.68-.43,4.63,4.63,0,0,0-1.07-.1h-.34l-.11-.63,7-1.24.12.62-.26.05a3.09,3.09,0,0,0-.93.31,2.52,2.52,0,0,0-.81.77,1.76,1.76,0,0,0-.25,1,6.38,6.38,0,0,0,.09,1.27l.71,4,7.7-1.35L117,172a5.3,5.3,0,0,0-.26-1,2.05,2.05,0,0,0-.63-.95,2,2,0,0,0-.79-.37,5,5,0,0,0-1-.06l-.37.07-.11-.63,7-1.23.1.61-.48.16a3.49,3.49,0,0,0-.7.31,2.39,2.39,0,0,0-.52.58,1.6,1.6,0,0,0-.24.94,7,7,0,0,0,.08,1.23l1.67,9.44a2.28,2.28,0,0,0,.07.4,9.67,9.67,0,0,0,.35,1.45,1.88,1.88,0,0,0,.58.9,1.64,1.64,0,0,0,.77.36,3.53,3.53,0,0,0,.78,0l.42,0Z" style="fill:#191515"></path><path d="M127.25,174.32l-.5-6.2,3.81,4.88Zm12.05,3.81-.36.15a.93.93,0,0,1-.55,0,5.83,5.83,0,0,1-.91-.36,1.52,1.52,0,0,1-.42-.31c-.13-.13-.42-.49-.87-1l-9.83-12.41-.11.05a3.22,3.22,0,0,1-.33,1.07,1.4,1.4,0,0,1-.22.42l-.33.4.33.61,1.21,13.61c0,.22,0,.57,0,1.08a3.24,3.24,0,0,1-.12.9,5.29,5.29,0,0,1-.37.63,2,2,0,0,1-.47.41l-.34.23.25.61,5.32-2.12-.23-.6-.37.15a2.58,2.58,0,0,1-.77.2,2.67,2.67,0,0,1-.8-.08c-.3-.08-.58-.41-.81-1a4.16,4.16,0,0,1-.25-.86l-.45-4.1,4.11-1.63,2.34,3.1c.18.2.32.38.43.52a3.33,3.33,0,0,1,.25.5,1.67,1.67,0,0,1,.13.76,1.1,1.1,0,0,1-.19.61l-.44.4-.34.3.24.6,5.54-2.2Z" style="fill:#191515"></path><path d="M148,153.33l-.19.21a1.94,1.94,0,0,0-.43.57,2.27,2.27,0,0,0-.22.74,7.58,7.58,0,0,0,.24,1.78c.16.74.27,1.2.33,1.36l4.33,13.39-.3.2-10.4-9.41,4.29,13.52-.34.22-11.13-10.27-.58-.51a5,5,0,0,0-.56-.43,1.87,1.87,0,0,0-.58-.22,1.68,1.68,0,0,0-.74,0l-.48.08-.35-.52,4.79-3.22.36.53-.28.34c-.16.19-.34.38-.51.57a1.11,1.11,0,0,0-.15.73,1.84,1.84,0,0,0,.31.79,3,3,0,0,0,.43.5l7.28,6.72-2.25-7.63-.25-.65c-.06-.18-.14-.46-.27-.85a3.84,3.84,0,0,0-.33-.81,3.27,3.27,0,0,0-.3-.35,2.6,2.6,0,0,0-.61-.36,1.4,1.4,0,0,0-.77-.08,4.42,4.42,0,0,0-.92.22l-.29.13-.35-.53,5.09-3.42.34.53-.17.19c-.13.12-.25.23-.35.34a1.25,1.25,0,0,0-.4,1.11,1.62,1.62,0,0,0,.26.58,3.88,3.88,0,0,0,.52.62l.35.27,7.37,6.62-3.06-9.1-.23-.47c-.15-.28-.28-.51-.4-.69a2.57,2.57,0,0,0-.52-.6,1,1,0,0,0-.68-.14,2.71,2.71,0,0,0-.92.21l-.41.15-.35-.53,4.43-3Z" style="fill:#191515"></path><path d="M169.12,154.91l-.4.43a11.73,11.73,0,0,1-1.22,1,5.25,5.25,0,0,1-1.36.84,13.2,13.2,0,0,1-1.32.26,5.16,5.16,0,0,1-1.41,0l-7.73-1.06-1.22-6.59a5.39,5.39,0,0,0-.22-.78,1.92,1.92,0,0,0-.64-1.07,1.18,1.18,0,0,0-.63-.18.79.79,0,0,0-.55.23l-.15.15-.46-.44,3.73-4,.46.44-.26.39a2.73,2.73,0,0,0-.32.71c0,.14-.11.37-.19.69a6.67,6.67,0,0,0,0,1.49,10.79,10.79,0,0,0,.09,1.27l.81,5.48,6.72.8c.7.1,1.26.15,1.69.18a11.28,11.28,0,0,0,1.65-.06,10.22,10.22,0,0,0,1.08-.17c.33-.08.67-.17,1-.28l.46-.14Zm-5.45,5.48-4.91,5.22-.48-.45.21-.38c.14-.18.27-.37.39-.56a1.41,1.41,0,0,0,.21-.9,2.43,2.43,0,0,0-.46-1,9.89,9.89,0,0,0-1.23-1.35l-6.64-6.26c-.25-.23-.51-.46-.78-.68a3.1,3.1,0,0,0-1.3-.69,1.63,1.63,0,0,0-.9.1,3.5,3.5,0,0,0-.77.4l-.3.23-.47-.44,4.51-4.78.46.43-.24.41a3,3,0,0,0-.33.78,2.46,2.46,0,0,0,.05.87,1.94,1.94,0,0,0,.4.76,10.11,10.11,0,0,0,.87.89l.21.21,7,6.55a7.15,7.15,0,0,0,1,.78,1.91,1.91,0,0,0,1,.37,2.2,2.2,0,0,0,.89-.18,3.94,3.94,0,0,0,1-.53l.26-.22Z" style="fill:#191515"></path><path d="M171.08,143.13a5,5,0,0,1,2.29,3.58,4.88,4.88,0,0,1-.85,3.5,5.66,5.66,0,0,1-1.46,1.42,6.42,6.42,0,0,1-1.35.73l-.57.2-4-2.1.24-.53.55.24a7.19,7.19,0,0,0,3.7.51,3,3,0,0,0,2.16-1.27,2.21,2.21,0,0,0,.33-2,3.66,3.66,0,0,0-1.51-1.88,4,4,0,0,0-3.39-.46l-3.54,1.09a4.78,4.78,0,0,1-3.8-.72,5,5,0,0,1-2.25-3.34,4.48,4.48,0,0,1,.74-3.45,4.89,4.89,0,0,1,1.19-1.29,7.08,7.08,0,0,1,1.13-.56l.34-.12,3.06,2.47-.25.36-.34-.13a11.7,11.7,0,0,0-2.45-.82,2.17,2.17,0,0,0-2.37,2.92A3.22,3.22,0,0,0,160,143a3.94,3.94,0,0,0,3.38.39L167,142.3a5.17,5.17,0,0,1,4.07.83" style="fill:#191515"></path><path d="M155.48,108a15.46,15.46,0,0,1-3.59,2.72,16.8,16.8,0,0,1-3.34,1.6,6.85,6.85,0,0,1-2.37.65c-.09,0-.23.07-.23.21s.14.48.16.76a13,13,0,0,1,.33,3.61c0,.75-.2,1.45-.18,2.23a36.23,36.23,0,0,1-1.38,5.45A5.83,5.83,0,0,1,144,127c-.06.06-.14.14-.23.11-.1-.81.1-1.61,0-2.41a1.35,1.35,0,0,0-.24-1l-.06,0a20.06,20.06,0,0,1-2.16,5.65c-.84,1.65-2.53,2.91-3.72,4.35a21.49,21.49,0,0,1-1.93,1.89c-.71.39-.88.09-.91-.18.25-1.14,1.16-2.08.88-3.39l-.1-.11c-.44.7-.68,1.36-1.17,2.16-.17.45-.42.58-.74,1.19s-.83,1.33-1.32,1.94a9,9,0,0,1-1.83,2,20.43,20.43,0,0,1-5.6,3.62c-.32.11-.37.13-.39,0,.16-.41.5-.58.73-.85a7.39,7.39,0,0,0,2-2.8l0-.06c-1.06.87-1.93,2-3,2.79a13.9,13.9,0,0,1-2.11,1.57,55.61,55.61,0,0,1-4.88,3c-.26.05-.48.26-.76.28v-.15a25.14,25.14,0,0,0,3.13-4.1,31.91,31.91,0,0,0,1.78-3.5c.36-.07.49-.51.66-.8.28-.63.58-1.25.83-1.88a22.53,22.53,0,0,0,2-5.48,32.79,32.79,0,0,0,.55-5.25c-.09-.63,0-1.26-.06-1.9l-.12.1c-.43,1.86-.54,3.8-1,5.64a40.31,40.31,0,0,1-1.23,5.07c-.31.93-.56,1.86-.93,2.73h0c.09-.82.34-1.65.38-2.47,0-.6.1-1.08.06-1.61,0,0,0,0,0,0a8.23,8.23,0,0,0-.79,2.3,34.36,34.36,0,0,1-4.3,9.23c-.9,1.1-2.27,2.91-3.92,3.45l-3.13,1.13a24.42,24.42,0,0,1-4.09,1,39,39,0,0,1-4.85.42,35.25,35.25,0,0,1-4.37-.07,16.47,16.47,0,0,1-2.42-.37,14.89,14.89,0,0,1-3-2.9,38.66,38.66,0,0,1-2.8-3.85.64.64,0,0,0-.25-.18l0,0a6.84,6.84,0,0,0,1,2.28,20.29,20.29,0,0,0,3.6,4c0,.15.25.15.16.32-.28.16-1-.1-1.52-.17a54.26,54.26,0,0,1-5.83-1.6c-1-.29-4.79-2-6.44-2.89-.65-.33-1.45-.33-2.11-.61a.53.53,0,0,0-.28.07c0,.19.22.15.24.34a14.74,14.74,0,0,1-2.18-1c-1-.76-2-1.55-3-2.36A30,30,0,0,1,66,135a17.48,17.48,0,0,1-1.58-2c-.24-.2-.34-.45-.62-.55,0,0-.05,0-.08,0a4.89,4.89,0,0,1,.59,3.29c-.21.25-.45,0-.56,0a35.09,35.09,0,0,1-2.49-2.67,16.78,16.78,0,0,1-1.39-1.92,43,43,0,0,1-2.55-5.3c-.35-1-1-3.67-1.25-4-.11,0-.09.1-.12.16,0,.44.13.79.17,1.3a11,11,0,0,1-.1,3.6c-.09.35-.22.77-.52.92s-.73-.1-1.07-.51a24,24,0,0,1-1.57-2.73,16.44,16.44,0,0,1-1.27-3c-.2-.91-.58-3.91-1-5.17-.23.18,0,.61-.31.71-.61,0-1.76.16-2.47.13a11.28,11.28,0,0,1-3.62-.82c-.05,0,0-.09,0-.14a25.22,25.22,0,0,0,2.87-1.1c.68-.37,1.39-.84,2.21-1.33,3.42-2.21,9-8.3,9.6-8.82a43.34,43.34,0,0,0,3.74-4.86c.52-.51.79-1.16,1.26-1.72.69-1.38,1.66-2.65,2.4-4a19.39,19.39,0,0,0,1.1-1.78c.57-1,1-2.09,1.57-3.09s.91-2,1.39-3c.22-.57.91-2,1-2.2.43-1,.94-2,1.36-3.07.45-.6.56-1.31,1-1.93a35.58,35.58,0,0,1,2-3c.29-.38.61-.72.87-1.13a1.45,1.45,0,0,0,.41-.51c.5-.53.88-1.07,1.42-1.55,1-1.2,2.2-2.31,3.22-3.52a6.64,6.64,0,0,0,1.14-1.06c.57-.28.9-.9,1.39-1.3a14.45,14.45,0,0,1,2.31-1.7,13.12,13.12,0,0,1,1.84-1.12c1-.71,2.17-.91,3.14-1.64.6-.34,1.24-.56,1.86-.84a28,28,0,0,0,2.45-1.62,5.56,5.56,0,0,0,1-.79,9.37,9.37,0,0,0,1.42-1.54c0-.09-.08-.26.06-.25s.32-.38.49-.59c0-.06.09-.11,0-.2.43-.37.38-1,.75-1.37.26-.82.73-1.55,1-2.37.22-.6.13-1.16.32-1.76.06,0,.15-.13.23-.07a3,3,0,0,1,.65,1,8.79,8.79,0,0,1-.14,4.2c0,.31-.36.49-.2.74.4-.23.56-.75,1-1.07a5.46,5.46,0,0,1,2-1.21,6.18,6.18,0,0,1,4.14-.39,1.34,1.34,0,0,1,.53.74.83.83,0,0,1-.25.69c-.6.41-1.38.38-2,.79a8.73,8.73,0,0,1-1.15.4.25.25,0,0,0,0,.14c.72.42,1.76.18,2.52.52a21.61,21.61,0,0,1,3.6,2l.8.81c.26.45.6.88.83,1.33a.74.74,0,0,1-.19.57c-.53.12-.92-.39-1.39-.58-.67-.64-1.42-1.13-2.12-1.69-.13,0-.35-.26-.44,0,0,1.19.3,2.28.28,3.47a20.4,20.4,0,0,1-.36,2.62c-.24.46-.26,1-.58,1.44-.14,0-.11-.14-.16-.23A15.54,15.54,0,0,0,106.42,64a11.44,11.44,0,0,1-1-1.35.32.32,0,0,0-.27,0c-.26.18-.16.47-.17.72s0,.38.06.58a6.84,6.84,0,0,1-.79,3.76c-.17.1-.12.33-.27.43a3.19,3.19,0,0,1-1.53,1.63c-.16.05-.39.12-.52,0a5.5,5.5,0,0,1,0-1.72c.18-.52-.08-1,0-1.58,0-.33-.09-.64-.07-1-.11-.08-.2,0-.28.1-.35.4-.45.9-.75,1.3a6,6,0,0,1-2.34,1.9.86.86,0,0,1-.53,0c-.31-.34-.18-.92-.17-1.34.16-.63.31-1.29.44-1.94l0,0c-.6.28-.71.94-1,1.4a4.35,4.35,0,0,0,0,2.32c.23.45.85.26,1.26.3a6,6,0,0,0,2.37-1.07c.08,0,.13.1.13.17a10.11,10.11,0,0,0,.17,2c.23.45.76.36,1.17.43a3,3,0,0,0,2.08-1.22,7.44,7.44,0,0,0,.86-1.48c.27-.63.49-1.28.74-1.91,0-.36.11-.74.15-1.1.23-.05.33.29.46.47.06.38.38.67.51,1a15.9,15.9,0,0,1,.58,1.93c0,.36,0,.75.07,1.14.05.11.19.09.27,0a9.87,9.87,0,0,0,2.79-5.28c0-.11,0-.25.12-.27,1.1.18,1.93.85,3,1.07a14.67,14.67,0,0,1,3.36,2.26l.14,0a56.12,56.12,0,0,1,4.17,5,7.18,7.18,0,0,0,.65.91c.37.63.81,1.28,1.15,1.9.46.8.84,1.59,1.28,2.38.2.67.65,1.25.84,2,.31.45.4,1.06.74,1.52.8,1.53,1.48,3.11,2.25,4.63a65.35,65.35,0,0,0,3.85,6.74,10.07,10.07,0,0,0,1.25,1.88,31.33,31.33,0,0,0,5.09,5.6c1,1.18,2.27,2.12,3.35,3.24a19.5,19.5,0,0,0,5.6,3.45,17.55,17.55,0,0,0,3.6,1,18.52,18.52,0,0,0,2.27.16,10.85,10.85,0,0,0,2.06-.37c.08.09,0,.2-.07.3" style="fill:#f5bc00"></path><path d="M114.84,65.33s3.66,2.39,4.6,3.68a34.53,34.53,0,0,0,2.22,2.69l4.1-1.71s13.06-6,15.65-12.46c.23-.55.45-1.09.69-1.64.53-1.21,1.09-2.4,1.5-3.66a6.92,6.92,0,0,0,.41-3.09,5.28,5.28,0,0,0-.44-1.5c-.13-.26-.28-.51-.43-.76a.6.6,0,0,1-.12-.32,1.59,1.59,0,0,0-.13-.52,2.29,2.29,0,0,0-.31-.65c-.17-.23-.37-.44-.54-.66a2.71,2.71,0,0,0-.36-.4,4.28,4.28,0,0,0-.61-.4.87.87,0,0,1-.18-.11l0-.09a.61.61,0,0,0-.17-.07,2.89,2.89,0,0,0-.72-.23,1.45,1.45,0,0,1-.76-.27,1.76,1.76,0,0,0-.4-.27,4.74,4.74,0,0,0-1.62-.6,5.66,5.66,0,0,0-1.79,0,9.13,9.13,0,0,0-1.92.47,15.1,15.1,0,0,0-2,.91,21.63,21.63,0,0,0-2.06,1.24c-.71.48-1.4,1-2.06,1.51s-1.38,1.11-2,1.7-1.32,1.19-2,1.81-1.25,1.22-1.87,1.84-1.14,1.2-1.71,1.81-1,1.12-1.52,1.69l-1.3,1.5-1,1.23-.72.88-.37.45c-.94,1.13-3.76,4.33-3.76,4.33Z" style="fill:#98999d"></path><path d="M127,106.1c-1,1.62-2.22,3.12-3.31,4.7-.94,1.46-1.78,2.94-2.62,4.46-1.08,2-2.51,3.8-3.47,5.8a45.19,45.19,0,0,0-2.64,4.28c-.2.41-.47.81-.68,1.21s-.48.93-.8,1.33c-.21.19-.22.49-.44.65-.37.79-.84,1.51-1.26,2.29-.8,1.32-1.41,2.71-2.21,4a43.25,43.25,0,0,1-2.31,3.86,2.37,2.37,0,0,1-1.74.67c-.58-.1-.89-.72-1.4-1-.58-.72-1.56-1.27-2-2a12,12,0,0,1-1.07-1.07c-.39-.63-1.09-1-1.48-1.61a24.29,24.29,0,0,1-3.05-2.87c-1.22-.85-2.11-2-3.29-2.73-1.7-1.26-3.38-2.24-5-3.63-.48-.41-1-.74-1.52-1.22-.36-.13-.59-.55-1-.71a10.05,10.05,0,0,0-1.32-1c-.33-.52-.91-.68-1.28-1.17-.34-.31-.72-.55-1.07-.92a24.22,24.22,0,0,1-2.72-2.33c-.17-.5-.74-.78-1-1.23A4.9,4.9,0,0,1,76.88,114a6.2,6.2,0,0,1-.13-2.34,15.56,15.56,0,0,1,1.11-3.2,7,7,0,0,1,1.86-2.17,8.17,8.17,0,0,0,1.75-.75c.33.06.61.39.93.56s.83.62,1.27.83a8.75,8.75,0,0,0,1.82.82,12.53,12.53,0,0,0,2.41.54c.12-.1.31-.07.45-.1a15.15,15.15,0,0,0,1.2-1.09,4.93,4.93,0,0,0,2.15-3.22,5.81,5.81,0,0,0,.48-1.11c.3-.54.44-1.31.74-1.85a5.87,5.87,0,0,0,.29-1.15,19.68,19.68,0,0,0,.63-2.6c.07-1,.38-1.84.42-2.84.26-.91.48-1.85.74-2.75.23-1.57.76-3,1.1-4.49.1-.61.75-1.13,1-1.71a8.45,8.45,0,0,1,.48-1c.5-.69,1.19-1.33,1.74-2,.68-.46,1.42-1.18,2.27-1.14a4.72,4.72,0,0,1,1.87-.1,5.43,5.43,0,0,1,2.74,1.38,16.31,16.31,0,0,1,2.77,3.71c.3.9.9,1.67,1.14,2.56a61.43,61.43,0,0,0,3.35,7c1.46,2.09,2.88,4.16,5.52,4.49a5.48,5.48,0,0,0,1.72-.07,5.7,5.7,0,0,0,2.75-1.47c.28-.31.61-1,.92-1.29.48-.09.76.42,1.14.63a10.59,10.59,0,0,1,2.38,3.08c.13.25.09.53.24.76A8,8,0,0,1,127,106.1" style="fill:#e88319"></path><path d="M123.71,96c.91-.82.74-2.2.59-3.43l-.09-.73c0-1-.14-2-.25-3l-.13-1.15-.25-1a11.08,11.08,0,0,0-.33-1.29,9.28,9.28,0,0,0-.68-1.87A13.24,13.24,0,0,1,122,82l-.22-.43a1.29,1.29,0,0,1-.25-.55v0l0,0a18.83,18.83,0,0,0-2-2.65s0,0,0,0a7.33,7.33,0,0,0-1.79-1.41l-.5-.16a4,4,0,0,0-2.43-.32,1.56,1.56,0,0,0-.46.06.78.78,0,0,1-.45,0h-.08a.47.47,0,0,0-.31.3l-.6.39a4.85,4.85,0,0,0-1,.7,15,15,0,0,0-1.53,2.59,14.54,14.54,0,0,0-1,4.54h0v0a1.26,1.26,0,0,1-.12.44,2.44,2.44,0,0,0-.14.53,1.1,1.1,0,0,0,0,.18v0A15,15,0,0,0,110.64,89h.06l0,0a8.23,8.23,0,0,1,.58,1.32,16.25,16.25,0,0,0,.86,1.94,2.77,2.77,0,0,0,.17.23c.85,1.07,1.81,2.29,1.79,3.33v0c0,.42.53,1.06,1.41,2.07a6.54,6.54,0,0,1,1.13,1.51h0l0,.08,0,.08a3.92,3.92,0,0,0,1.9.84h0a5.52,5.52,0,0,0,1.73-.18h0A2.87,2.87,0,0,1,121,100a2.22,2.22,0,0,0,1.06-.56l.05,0v-.3a2.65,2.65,0,0,1,0-.6A10.17,10.17,0,0,1,123.71,96" style="fill:#fff"></path><path d="M84.59,105.94c-.1-.09-.19-.19-.29-.27a4.26,4.26,0,0,1-.38-.35,2.69,2.69,0,0,1-.46-.55c-.09-.19-.17,0-.32-.14s-.42-.5-.46-.58c-.33-.76-1.3-1-1.37-1.89-.39-4.16-.66-6.81-.25-8.82.09-1.13.67-2.46.8-3.58a27.11,27.11,0,0,1,1.66-4.37c.1-.28.33-.52.42-.82a34.13,34.13,0,0,1,2.86-3.64c.31-.21.55-.61.94-.76a4.66,4.66,0,0,1,3.92-.51,9,9,0,0,1,2.46,2.1A7.11,7.11,0,0,1,95.39,84a14.75,14.75,0,0,1,.39,3.34c-.26.78-.54,2.37-1,3.7,0,0-3.47,13.23-3.53,13.34A14.36,14.36,0,0,1,88.75,107a1.45,1.45,0,0,1-.7.23,2.32,2.32,0,0,1-1.33-.12l-.58-.21a1.52,1.52,0,0,1-.47-.2c-.15-.1-.29-.18-.43-.29s-.16-.14-.26-.21a2.2,2.2,0,0,1-.32-.21.46.46,0,0,1-.07-.07" style="fill:#fff"></path><path d="M76.74,115.57a45.54,45.54,0,0,0,1.53,11l.2.11,1.4,3.56L83,137.47s-.55-1.24-.22-.77c1,1.33,3.57,5.43,3.79,5.77a22.84,22.84,0,0,0,5.18,6c3.62,3.11,4.58,3,4.58,3l7-.14,3.78-.48,4.25-1.3,4.27-1.86,1-1.43,2.52-3.45,1.37-3.47,1.25-1.4.34-.46,1.54-3.68a29.15,29.15,0,0,0,2.14-5.37c.35-1.83,1.31-7.3,1.31-7.3s.4-.35.86-3.33,1.19-9,.07-13l-1.57,2-4.68,7.37-4.29,6.8-6.24,10.87-3.07,5.35s-.89,2.16-2,2.11-.86.25-5.59-4.37-17.59-14.5-17.59-14.5Z" style="fill:#fff"></path><path d="M81.81,79.11c.11,0,.24-.36.39-.64a17.53,17.53,0,0,1,3.74-5,3,3,0,0,1,2.28-.82,8.5,8.5,0,0,1,3.59,1,11.92,11.92,0,0,1,1.54.81c.08,0,.22.12.27,0a8.42,8.42,0,0,0-.82-2.17C92.16,71,91,69.6,89.45,69.51,87.6,69.35,86.14,70.68,85,72a12.83,12.83,0,0,0-3.21,6.86c0,.05,0,.26.07.26" style="fill:#191515"></path><path d="M128.49,102.73a4.79,4.79,0,0,0-1-3,9.31,9.31,0,0,0-2.63-2.6,1.24,1.24,0,0,0-.88-.23,3.35,3.35,0,0,1-1.76,1.75c-.18-.15,0-.27.13-.38a16,16,0,0,1,3.2-3.91,7.68,7.68,0,0,1,1.52-1.11c.23-.18.53-.25.73-.46l-.72.22a4.81,4.81,0,0,0-.84.32c-.43.2-.6.36-.91.52-.19,0-.11-.2-.16-.31A26.48,26.48,0,0,0,125,89c-.08-.64-.22-1.31-.28-2a22.69,22.69,0,0,0-.87-3.13,15.25,15.25,0,0,0-1.41-3.46,14.37,14.37,0,0,0-2.2-2.94,10.27,10.27,0,0,0-2.5-1.93,5,5,0,0,0-3.15-.71,13.36,13.36,0,0,0-3,.84c-.22.16.06.59.22.82s.25.38.06.53c-2.08,1.65-3.26,5.23-3.44,6.95,0,.05-.06.13-.14.1a11.54,11.54,0,0,0-3.07-2.89,6.28,6.28,0,0,0-4.13-.23,8.67,8.67,0,0,0-4.58,4.11c-.19.34-.15.3-.34.29a15.05,15.05,0,0,0-.63-2.1A8,8,0,0,0,94,81.1c-.37-.46-1-.71-1.25-1.21,0-.53.08-1.14-.33-1.51a5.26,5.26,0,0,0-4.14.47c-2.29,1.21-3.8,3.67-5,5.8a19.41,19.41,0,0,0-1.34,2.94,29.89,29.89,0,0,0-1.1,3.27,17.29,17.29,0,0,0-.67,4.3,28.36,28.36,0,0,0,.19,6.2.15.15,0,0,1-.18.11,5.54,5.54,0,0,0-1.68-.72,6.88,6.88,0,0,0-1.59-.28,11.27,11.27,0,0,0-2.08-.07l-.06,0,0,0c.77,0,1.58.11,2.35.2a4.43,4.43,0,0,1,1.5.45,11.92,11.92,0,0,1,4.24,3.41c.39.51.36.48.64.52A3.42,3.42,0,0,0,83,104c-.6-.84-1.37-1-1.44-1.89a30.32,30.32,0,0,1,0-8.82A19.47,19.47,0,0,1,82.31,90a28.23,28.23,0,0,1,1.78-4.3c.1-.27,2.27-4,3.85-4.83a4,4,0,0,1,3.57-.71A6.93,6.93,0,0,1,95,84.05a8.41,8.41,0,0,1,.53,3.2c-.35,1-.64,2.14-1,3.17a.3.3,0,0,1-.14,0,9.86,9.86,0,0,0-.76-1.19,2.51,2.51,0,0,0-2-.3,3.87,3.87,0,0,0-2,1.38,11.86,11.86,0,0,0-2,9.06A7.71,7.71,0,0,0,89,102.66a2.28,2.28,0,0,0,1.73,1.06.19.19,0,0,1,.1.28,5.68,5.68,0,0,1-2.08,3,4.4,4.4,0,0,1-2.83.1,11.07,11.07,0,0,1-3.54-1.49,7.44,7.44,0,0,1-1-.82,4.79,4.79,0,0,0-3.09,1.73,8,8,0,0,0-2,4.4,11.16,11.16,0,0,0,.13,2.94,49.06,49.06,0,0,0,.43,6.56c.07.22,0,.46.11.66a37.81,37.81,0,0,0,1.36,6l.16.26s.14,0,.14,0c-.15-.58-.29-1.17-.43-1.73a43.67,43.67,0,0,1-1.09-9.26.12.12,0,0,1,.19-.08c1.07,1,2.22,1.94,3.35,2.83s2.2,1.82,3.38,2.68c2.07,1.58,4,3.2,6.09,4.64a45.75,45.75,0,0,1,3.84,3c1,.74,3.52,3.28,4,3.53,1.53,1.51,3.25,3.27,4.15,4.3a11.07,11.07,0,0,1,1,.81,4.3,4.3,0,0,0,2.39,1.65,2,2,0,0,0,1.5-.1,3.76,3.76,0,0,0,1.56-1.85c.54-.83,1.18-2,1.83-3.16.3-.6,1.19-2.2,1.26-2.39.39-.78,1-1.43,1.36-2.24.17-.72.8-1.21,1.13-1.84.61-.86,1-1.81,1.57-2.7a18.13,18.13,0,0,1,1.45-2.32c1.47-2.71,3.34-5.24,4.73-8a18.59,18.59,0,0,0,1.37-2.32c.43-.59.79-1.24,1.18-1.86.55-.67,1-1.43,1.5-2.16.59-1,1.27-1.94,1.86-2.94.12-.13.15-.44.37-.37a16.23,16.23,0,0,1,.3,2.92,50.3,50.3,0,0,1-.57,10,7,7,0,0,0-.07,1h0a4.57,4.57,0,0,0,.49-1.76c.08-.83.33-1.53.34-2.39a35.73,35.73,0,0,0-.07-10.43,8.09,8.09,0,0,1-.06-2M109.5,85A12.62,12.62,0,0,1,112,78a3.68,3.68,0,0,1,1.24-1,2.76,2.76,0,0,1,.8-.38,2.11,2.11,0,0,1,.82-.12,4.73,4.73,0,0,1,2.74.5,6.92,6.92,0,0,1,1.77,1.4,18.31,18.31,0,0,1,2,2.62c.17.47.36.69.48,1a20.54,20.54,0,0,1,1.25,3.31c.25.73.35,1.54.57,2.29.14,1.36.34,2.73.39,4.12s.38,2.89-.68,3.84a12.64,12.64,0,0,0-1.8,2.75,1.93,1.93,0,0,0,0,.58c-.74.87-2.44.82-2.94.8a2.75,2.75,0,0,1-1.46-.64,9.38,9.38,0,0,0,.56-1.62c.08-.68,0-1.43.11-2.18,0-1.16-.21-2.33-.24-3.52-.28-1.42-.39-2.9-1.3-4.07a3.37,3.37,0,0,0-3.42-1.79c-.53.06-.88.57-1.17.94a6,6,0,0,0-.79,1.55s-.11.11-.19,0c-.39-.76-.85-1.52-1.23-2.34a7.2,7.2,0,0,1,0-1.13m4.14,5.67c-.12.16-.18.07-.38,0-.57-.44-1.41-.8-1.54-1.64a1.7,1.7,0,0,1,.55-1.34c.55.22.77.87,1.14,1.32a11,11,0,0,1,.23,1.7m-23.55,1.2a2.46,2.46,0,0,1,.66-1.08c.34-.12.4.36.53.55.23,1.18.65,2.43.21,3.63a.19.19,0,0,1-.25.11c-.82-.87-.89-2.09-1.15-3.21m36.39,14c-1,1.61-2.06,3.09-3.15,4.68s-1.86,3-2.7,4.48c-1.08,2-2.51,3.81-3.48,5.82a44.08,44.08,0,0,0-2.6,4.18c-.21.41-.47.81-.69,1.22s-.48.92-.79,1.32c-.21.19-.22.49-.45.65-.36.79-.81,1.57-1.23,2.35-.8,1.34-1.41,2.72-2.21,4a43.83,43.83,0,0,1-2.26,3.84,1.41,1.41,0,0,1-1.37.44c-.58-.1-.89-.72-1.4-1-.58-.72-1.36-1.3-1.86-2-.37-.35-3.75-3.72-5.9-5.69-1.22-.85-1.84-1.65-2.93-2.45-1.69-1.26-3.45-2.33-5-3.73-.48-.4-4.62-3.58-5-4.07-.34-.32-.72-.55-1.06-.93a21.92,21.92,0,0,1-2.62-2.29,9,9,0,0,1-2.48-3.12,5.84,5.84,0,0,1,.1-2.32,9.16,9.16,0,0,1,.85-2.51,7,7,0,0,1,1.85-2.17,4.73,4.73,0,0,1,1.42-.8c.22.15.53.46.83.67a21.8,21.8,0,0,0,3.09,1.66,7.78,7.78,0,0,0,2.58.51,4.13,4.13,0,0,0,.51-.07,2.37,2.37,0,0,0,.84-.48,9.75,9.75,0,0,0,3.12-4.24,26.88,26.88,0,0,0,2.06-6.66c.19-1,.67-4,1-5.57s.77-3,1.1-4.5a9,9,0,0,1,1.24-2.62,14,14,0,0,1,1.58-1.91,4.26,4.26,0,0,1,4-1.17,5.71,5.71,0,0,1,2.73,1.43,15.21,15.21,0,0,1,2.53,3.65c.3.9.9,1.67,1.14,2.57A62.27,62.27,0,0,0,113,95.93c1.47,2.08,3.31,4.5,6,4.84a5.72,5.72,0,0,0,1.71-.07A7.09,7.09,0,0,0,123.77,99c.29-.32.23-.81.54-1.13.48-.1.77.33,1.14.62a9.11,9.11,0,0,1,2.07,3,3,3,0,0,1,.24.76,6.44,6.44,0,0,1-1.28,3.66" style="fill:#191515"></path><path d="M107.14,93.34a3.47,3.47,0,0,0,.55,2.07.88.88,0,0,0,.72.19c.87-.46.64-1.49.56-2.27a2,2,0,0,0-1.32-1.58c-.62.23-.46,1.07-.51,1.59" style="fill:#191515"></path><path d="M128.09,92.67c-.05,0-.11,0-.14.07h0s.08,0,.11-.07" style="fill:#191515"></path><path d="M100.81,96.63a.77.77,0,0,0,.31-.29,2.54,2.54,0,0,0,.4-1.56,6.22,6.22,0,0,0,0-2l-.18-.32c-.36-.12-.82-.39-1.21-.16a4.23,4.23,0,0,0-.53,3.55,1.31,1.31,0,0,0,1.21.8" style="fill:#191515"></path><path d="M122.48,102.9a4.11,4.11,0,0,0-3.31-.27c-.06.05-.2,0-.17.16l1,.21c.4.18.9.2,1.16.63a5.32,5.32,0,0,1-.36,2.64c-1.4,2.65-4.08,4.57-6.42,6.35a34.82,34.82,0,0,0-3.32,2.66,20.07,20.07,0,0,0-3.4,3.16,22.37,22.37,0,0,0-1.92,2.49c-.21.25-.36.6-.69.64a17.3,17.3,0,0,0-4.42-3.67,16.08,16.08,0,0,0-3.85-1.45c-1.39-.33-2.8-.58-4.19-.83a46.46,46.46,0,0,1-4.53-1.21,7.92,7.92,0,0,1-1.93-.74c-.87-.48-2-1.11-2-2.27l.15-.19,1.91-1.33v-.11l-.07,0c-.76.19-1.57.24-2.27.48l-.59.23a5.42,5.42,0,0,0-3,5,.12.12,0,0,0,.18.12c.14,0,.15-.16.21-.24a7.36,7.36,0,0,1,1.77-2.45,2.38,2.38,0,0,1,.9-.7c.27.22.37.59.58.88a5.2,5.2,0,0,0,2.59,2.09c.34.12.63.36,1,.49.67.44,1.37.79,2,1.3.36.16.49.4.88.61.49.44,1,.79,1.5,1.25,1.2,1.19,2.37,2.53,3.53,3.75,1.38,1.57,2.76,3.15,4.07,4.92,1.24,1.6,2.66,3.26,4,4.87a5.33,5.33,0,0,0,1.61,1.28c.15,0,.34,0,.48-.11.73-.68.74-.86,2.15-3.27.71-1.34,1.28-2.44,1.82-3.72.54-1.11,1.14-2.19,1.68-3.34.11-.13.09-.32.24-.46.7-1.43,1.53-2.84,2.28-4.25a39.52,39.52,0,0,1,3.31-5.26c.3-.37.47-.62.7-.94a33.2,33.2,0,0,0,3.45-4.43,8,8,0,0,0,.94-3.48.21.21,0,0,1,.18-.21,7.87,7.87,0,0,1,1.91,2c.13.26.42.47.55.72.06,0,.13.09.19,0a3.06,3.06,0,0,0-.61-2,5.27,5.27,0,0,0-1.88-1.9m-15.06,25.24a37.1,37.1,0,0,1-2.1,4.12.34.34,0,0,1-.42.1c-.33-.18-.51-.54-.77-.81-.61-.52-.81-1.06-1.38-1.57-.73-1-1.5-1.84-2.15-2.86l.07-.19a9,9,0,0,1,3.69-1.76,7.76,7.76,0,0,1,2.72-.19,1.82,1.82,0,0,1,1.41.77,23.45,23.45,0,0,1-1.07,2.39" style="fill:#191515"></path><path d="M127.39,119a13.6,13.6,0,0,0-.73-3,3.85,3.85,0,0,0,0,.83,20.65,20.65,0,0,1-.2,5.44c0,.78-.2,1.58-.25,2.35-.13.46-.1.93-.23,1.4,0,.86-.18,1.71-.21,2.59,0,.25-.16.52,0,.72l.09-.16a40.88,40.88,0,0,0,1.34-6.53c.27-.38.09-.86.22-1.29-.08-.76.07-1.61,0-2.33" style="fill:#191515"></path><path d="M79.32,126.89l-.2-.59c-.07,0-.12-.22-.23-.17,0,.63.16,1.31.22,1.94a24.05,24.05,0,0,0,.92,3.17,9.85,9.85,0,0,1,.45,1.13,34.17,34.17,0,0,0,2.35,4.88c.11.17.18.39.4.43-.78-1.85-1.53-3.71-2.32-5.54a46.78,46.78,0,0,1-1.59-5.25" style="fill:#191515"></path><path d="M85.69,139.78c-.25-.71-.63-1.36-.86-2.09-.61-1-.82-2.22-1.33-3.29-.07-.17-.15-.45-.37-.52a21.75,21.75,0,0,0,1.45,4.69c.53,1.16,1.07,2.31,1.69,3.41a17.73,17.73,0,0,0,2.43,3.53c0,.06.1.12.16,0s0,0,0-.06A28.06,28.06,0,0,1,87.3,143c-.58-1.05-1.07-2.15-1.61-3.22" style="fill:#191515"></path><path d="M157.75,106.22a8.52,8.52,0,0,1-2.62.47,14.7,14.7,0,0,1-6.6-1.07l-1.12-.43a11.52,11.52,0,0,1-2.87-1.61,12.57,12.57,0,0,1-1.69-1.26,74.42,74.42,0,0,1-7.1-7,35.45,35.45,0,0,1-3.16-4.67,62.12,62.12,0,0,1-3.26-5.75c-.72-1.28-1.25-2.63-2-3.93-.51-1-1-2.12-1.45-3.22A41.44,41.44,0,0,0,124,74c-.33-.67-.92-1.31-1.3-2-1-1.15-1.87-2.43-2.93-3.58a25.68,25.68,0,0,0-2.66-2.56,17,17,0,0,0-4.32-2.12.93.93,0,0,1-.54-.3l.94.22a1.21,1.21,0,0,0,.94-1.58c-.33-1.45-1.67-2.56-2.77-3.5-.67-.52-1.49-.58-2.2-1.05-.15-.14-.46,0-.51-.3a.58.58,0,0,1,.42-.2c.66-.52,1.76-.9,1.58-1.95a2.4,2.4,0,0,0-.63-.75,6.87,6.87,0,0,0-4.18-.64c-1,0-1.75.65-2.65.94-.16-.2-.11-.55-.13-.81a9.63,9.63,0,0,0-.27-1.5,3.1,3.1,0,0,0-2.23-2.44l-.08.08c-.13.41-.26.85-.39,1.28a17.37,17.37,0,0,1-1,3.37,3.4,3.4,0,0,0-.45.81,9,9,0,0,1-2.46,3.28,13.86,13.86,0,0,1-3.92,2.38,8.36,8.36,0,0,1-1.77.82l-.69.14c-1.12.58-2.25,1.26-3.36,2,0,.14-.24.14-.34.26a26.39,26.39,0,0,0-2.25,1.73c-.47.62-1.15,1-1.59,1.52-1.12,1.08-2.3,2-3.28,3.18-.72.67-1.25,1.59-2,2.22-.09.22-.37.37-.46.57-.74,1-1.55,1.81-2.22,2.81-.24.43-1.51,2.49-1.84,3.11-.4,1-1,2-1.4,3-.32.57-.43,1.23-.79,1.77A91.2,91.2,0,0,1,64.4,95.71c-1.06,1.57-2,3.22-3.23,4.72-.65.91-1.35,1.76-2.05,2.62-1.07,1.29-2.28,2.5-3.47,3.73a37.53,37.53,0,0,1-4.74,4.38s-1.87,1.49-2.54,1.94a22.55,22.55,0,0,1-2.78,1.56,12,12,0,0,1-3.92,1.11,6,6,0,0,0,3.69,2.51,8.93,8.93,0,0,0,5.07.06c.24.18.13.38.16.75a13,13,0,0,0,.79,5.13,11.12,11.12,0,0,0,1,2.22c.73,1.06,1.52,2.63,2.95,2.77a1.65,1.65,0,0,0,.9-.06c.3-.14.69-.34,1-1.3a2,2,0,0,1,.15-.6c.16-.11.38.68.61,1.16A26.19,26.19,0,0,0,62.5,136a3.41,3.41,0,0,0,2.34,1.21,2,2,0,0,0,.83-.11l.12.12a30.83,30.83,0,0,0,10.83,8.84c.6.19,1.35.58,1.93.08.47.13.82.54,1.25.72a25.52,25.52,0,0,0,5.26,2.59,30.08,30.08,0,0,0,4.62,1.38,71.65,71.65,0,0,0,7.46,1.05,46.34,46.34,0,0,0,6.56,0,15.39,15.39,0,0,0,2.62-.33,40.11,40.11,0,0,0,9.54-3.13c.64-.25,1.24-.61,1.91-.86a26.24,26.24,0,0,0,2.4-1.53c1.16-.67,2.27-1.5,3.4-2.19a7.23,7.23,0,0,0,3.78-1.12,16.59,16.59,0,0,0,1.84-1.12,13.89,13.89,0,0,0,4.56-4.66c.21-.16.5-.48.8-.3.59.41,1.1.2,1.81-.37a7.89,7.89,0,0,1,.76-.63,31.51,31.51,0,0,0,2.4-2.37,15.15,15.15,0,0,0,2.72-3.7l.73-1.39H143c.27,0,1.33.1,1.73-.38,0,0,0,0,0,0a5.43,5.43,0,0,1,.42-.53,19.87,19.87,0,0,0,1.52-4.5c.27-1.24.54-2.52.73-3.79.12-1.54.59-3,.68-4.51,0-.31,0-.66.31-.85.61-.14,7.54-2.76,9.43-7.31,0-.08-.08,0-.14,0m-41-39.39s-.05.06-.05,0ZM148.14,113h0v0h0Zm7.34-5a15.46,15.46,0,0,1-3.59,2.72,16.8,16.8,0,0,1-3.34,1.6,6.85,6.85,0,0,1-2.37.65c-.09,0-.23.07-.23.21s.14.48.16.76a13,13,0,0,1,.33,3.61c0,.75-.2,1.45-.18,2.23a36.23,36.23,0,0,1-1.38,5.45A5.83,5.83,0,0,1,144,127c-.06.06-.14.14-.23.11-.1-.81.1-1.61,0-2.41a1.35,1.35,0,0,0-.24-1l-.06,0a20.06,20.06,0,0,1-2.16,5.65c-.84,1.65-2.53,2.91-3.72,4.35a21.49,21.49,0,0,1-1.93,1.89c-.71.39-.88.09-.91-.18.25-1.14,1.16-2.08.88-3.39l-.1-.11c-.44.7-.68,1.36-1.17,2.16-.17.45-.42.58-.74,1.19s-.83,1.33-1.32,1.94a9,9,0,0,1-1.83,2,20.43,20.43,0,0,1-5.6,3.62c-.32.11-.37.13-.39,0,.16-.41.5-.58.73-.85a7.39,7.39,0,0,0,2-2.8l0-.06c-1.06.87-1.93,2-3,2.79a13.9,13.9,0,0,1-2.11,1.57,55.61,55.61,0,0,1-4.88,3c-.26.05-.48.26-.76.28v-.15a25.14,25.14,0,0,0,3.13-4.1,31.91,31.91,0,0,0,1.78-3.5c.36-.07.49-.51.66-.8.28-.63.58-1.25.83-1.88a22.53,22.53,0,0,0,2-5.48,32.79,32.79,0,0,0,.55-5.25c-.09-.63,0-1.26-.06-1.9l-.12.1c-.43,1.86-.54,3.8-1,5.64a40.31,40.31,0,0,1-1.23,5.07c-.31.93-.56,1.86-.93,2.73h0c.09-.82.34-1.65.38-2.47,0-.6.1-1.08.06-1.61,0,0,0,0,0,0a8.23,8.23,0,0,0-.79,2.3,34.36,34.36,0,0,1-4.3,9.23c-.9,1.1-2.27,2.91-3.92,3.45l-3.13,1.13a24.42,24.42,0,0,1-4.09,1,39,39,0,0,1-4.85.42,35.25,35.25,0,0,1-4.37-.07,16.47,16.47,0,0,1-2.42-.37,14.89,14.89,0,0,1-3-2.9,38.66,38.66,0,0,1-2.8-3.85.64.64,0,0,0-.25-.18l0,0a6.84,6.84,0,0,0,1,2.28,20.29,20.29,0,0,0,3.6,4c0,.15.25.15.16.32-.28.16-1-.1-1.52-.17a54.26,54.26,0,0,1-5.83-1.6c-1-.29-4.79-2-6.44-2.89-.65-.33-1.45-.33-2.11-.61a.53.53,0,0,0-.28.07c0,.19.22.15.24.34a14.74,14.74,0,0,1-2.18-1c-1-.76-2-1.55-3-2.36A30,30,0,0,1,66,135a17.48,17.48,0,0,1-1.58-2c-.24-.2-.34-.45-.62-.55,0,0-.05,0-.08,0a4.89,4.89,0,0,1,.59,3.29c-.21.25-.45,0-.56,0a35.09,35.09,0,0,1-2.49-2.67,16.78,16.78,0,0,1-1.39-1.92,43,43,0,0,1-2.55-5.3c-.35-1-1-3.67-1.25-4-.11,0-.09.1-.12.16,0,.44.13.79.17,1.3a11,11,0,0,1-.1,3.6c-.09.35-.22.77-.52.92s-.73-.1-1.07-.51a24,24,0,0,1-1.57-2.73,16.44,16.44,0,0,1-1.27-3c-.2-.91-.58-3.91-1-5.17-.23.18,0,.61-.31.71-.61,0-1.76.16-2.47.13a11.28,11.28,0,0,1-3.62-.82c-.05,0,0-.09,0-.14a25.22,25.22,0,0,0,2.87-1.1c.68-.37,1.39-.84,2.21-1.33,3.42-2.21,9-8.3,9.6-8.82a43.34,43.34,0,0,0,3.74-4.86c.52-.51.79-1.16,1.26-1.72.69-1.38,1.66-2.65,2.4-4a19.39,19.39,0,0,0,1.1-1.78c.57-1,1-2.09,1.57-3.09s.91-2,1.39-3c.22-.57.91-2,1-2.2.43-1,.94-2,1.36-3.07.45-.6.56-1.31,1-1.93a35.58,35.58,0,0,1,2-3c.29-.38.61-.72.87-1.13a1.45,1.45,0,0,0,.41-.51c.5-.53.88-1.07,1.42-1.55,1-1.2,2.2-2.31,3.22-3.52a6.64,6.64,0,0,0,1.14-1.06c.57-.28.9-.9,1.39-1.3a14.45,14.45,0,0,1,2.31-1.7,13.12,13.12,0,0,1,1.84-1.12c1-.71,2.17-.91,3.14-1.64.6-.34,1.24-.56,1.86-.84a28,28,0,0,0,2.45-1.62,5.56,5.56,0,0,0,1-.79,9.37,9.37,0,0,0,1.42-1.54c0-.09-.08-.26.06-.25s.32-.38.49-.59c0-.06.09-.11,0-.2.43-.37.38-1,.75-1.37.26-.82.73-1.55,1-2.37.22-.6.13-1.16.32-1.76.06,0,.15-.13.23-.07a3,3,0,0,1,.65,1,8.79,8.79,0,0,1-.14,4.2c0,.31-.36.49-.2.74.4-.23.56-.75,1-1.07a5.46,5.46,0,0,1,2-1.21,6.18,6.18,0,0,1,4.14-.39,1.34,1.34,0,0,1,.53.74.83.83,0,0,1-.25.69c-.6.41-1.38.38-2,.79a8.73,8.73,0,0,1-1.15.4.25.25,0,0,0,0,.14c.72.42,1.76.18,2.52.52a21.61,21.61,0,0,1,3.6,2l.8.81c.26.45.6.88.83,1.33a.74.74,0,0,1-.19.57c-.53.12-.92-.39-1.39-.58-.67-.64-1.42-1.13-2.12-1.69-.13,0-.35-.26-.44,0,0,1.19.3,2.28.28,3.47a20.4,20.4,0,0,1-.36,2.62c-.24.46-.26,1-.58,1.44-.14,0-.11-.14-.16-.23A15.54,15.54,0,0,0,106.42,64a11.44,11.44,0,0,1-1-1.35.32.32,0,0,0-.27,0c-.26.18-.16.47-.17.72s0,.38.06.58a6.84,6.84,0,0,1-.79,3.76c-.17.1-.12.33-.27.43a3.19,3.19,0,0,1-1.53,1.63c-.16.05-.39.12-.52,0a5.5,5.5,0,0,1,0-1.72c.18-.52-.08-1,0-1.58,0-.33-.09-.64-.07-1-.11-.08-.2,0-.28.1-.35.4-.45.9-.75,1.3a6,6,0,0,1-2.34,1.9.86.86,0,0,1-.53,0c-.31-.34-.18-.92-.17-1.34.16-.63.31-1.29.44-1.94l0,0c-.6.28-.71.94-1,1.4a4.35,4.35,0,0,0,0,2.32c.23.45.85.26,1.26.3a6,6,0,0,0,2.37-1.07c.08,0,.13.1.13.17a10.11,10.11,0,0,0,.17,2c.23.45.76.36,1.17.43a3,3,0,0,0,2.08-1.22,7.44,7.44,0,0,0,.86-1.48c.27-.63.49-1.28.74-1.91,0-.36.11-.74.15-1.1.23-.05.33.29.46.47.06.38.38.67.51,1a15.9,15.9,0,0,1,.58,1.93c0,.36,0,.75.07,1.14.05.11.19.09.27,0a9.87,9.87,0,0,0,2.79-5.28c0-.11,0-.25.12-.27,1.1.18,1.93.85,3,1.07a14.67,14.67,0,0,1,3.36,2.26l.14,0a56.12,56.12,0,0,1,4.17,5,7.18,7.18,0,0,0,.65.91c.37.63.81,1.28,1.15,1.9.46.8.84,1.59,1.28,2.38.2.67.65,1.25.84,2,.31.45.4,1.06.74,1.52.8,1.53,1.48,3.11,2.25,4.63a65.35,65.35,0,0,0,3.85,6.74,10.07,10.07,0,0,0,1.25,1.88,31.33,31.33,0,0,0,5.09,5.6c1,1.18,2.27,2.12,3.35,3.24a19.5,19.5,0,0,0,5.6,3.45,17.55,17.55,0,0,0,3.6,1,18.52,18.52,0,0,0,2.27.16,10.85,10.85,0,0,0,2.06-.37c.08.09,0,.2-.07.3" style="fill:#191515"></path><path d="M109.45,74.09c.32,0,.38-.08.71-.5l1.64-2.37A3.34,3.34,0,0,1,113,70.08a2.54,2.54,0,0,1,2,.08,14.8,14.8,0,0,1,4.81,4.26c.26-.22,0-.41-.08-.75a17,17,0,0,0-2.92-4.32A5.21,5.21,0,0,0,115,68a3.89,3.89,0,0,0-2.62-.19c-1.54.36-2,2-2.6,3.25-.13.57-.28,1-.39,1.49a4.07,4.07,0,0,0-.11,1.4.22.22,0,0,0,.22.17m8.9-1.94a.14.14,0,0,1-.06.11c-.05,0-.11,0-.11-.09s.15-.11.17,0" style="fill:#191515"></path><path d="M118.35,72.15a.14.14,0,0,1-.06.11c-.05,0-.11,0-.11-.09s.15-.11.17,0" style="fill:#191515"></path><path d="M78,72s-2.54-8.55-1.8-10.78,3.87-5.52,3.87-5.52a7.35,7.35,0,0,1,1.52-4.81c1.68-1.82,6.16-4.1,6.73-4.42a2.54,2.54,0,0,0,.73-.5s0-.1,0-.13l0-.33a4.33,4.33,0,0,1,.08-.5,1.61,1.61,0,0,0,.08-.48,1.61,1.61,0,0,1,0-.38c0-.18-.08-.35-.08-.53a.64.64,0,0,1,.08-.3,1.67,1.67,0,0,1,.18-.28c.1-.11.19-.23.29-.32a1.56,1.56,0,0,1,.56-.43c.26-.09.53-.2.79-.32a1,1,0,0,1,.44-.1h.25a1.24,1.24,0,0,0,.42-.11,2.46,2.46,0,0,1,.29-.07,2.78,2.78,0,0,1,.57-.07,2.15,2.15,0,0,1,1.11.27,4,4,0,0,1,1.12,1c.17.21.34.44.5.67s.17.26.25.4a3.41,3.41,0,0,0,.26.44s8.7-2.16,14.86,2a11.8,11.8,0,0,1,5.15,10.94s-5.22,6.87-9,9.7-5.72,4.13-8.42,4.38a8.44,8.44,0,0,1-6.26-1.75,18.85,18.85,0,0,1-2.65-2l-.93-1.24L82.7,69.2,78,72.54Z" style="fill:#fff"></path><path d="M78,72s-2.54-8.55-1.8-10.78,3.87-5.52,3.87-5.52a7.35,7.35,0,0,1,1.52-4.81c1.68-1.82,6.16-4.1,6.73-4.42a2.54,2.54,0,0,0,.73-.5s0-.1,0-.13l0-.33a4.33,4.33,0,0,1,.08-.5,1.61,1.61,0,0,0,.08-.48,1.61,1.61,0,0,1,0-.38c0-.18-.08-.35-.08-.53a.64.64,0,0,1,.08-.3,1.67,1.67,0,0,1,.18-.28c.1-.11.19-.23.29-.32a1.56,1.56,0,0,1,.56-.43c.26-.09.53-.2.79-.32a1,1,0,0,1,.44-.1h.25a1.24,1.24,0,0,0,.42-.11,2.46,2.46,0,0,1,.29-.07,2.78,2.78,0,0,1,.57-.07,2.15,2.15,0,0,1,1.11.27,4,4,0,0,1,1.12,1c.17.21.34.44.5.67s.17.26.25.4a3.41,3.41,0,0,0,.26.44s8.7-2.16,14.86,2a11.8,11.8,0,0,1,5.15,10.94s-5.22,6.87-9,9.7-5.72,4.13-8.42,4.38a8.44,8.44,0,0,1-6.26-1.75,18.85,18.85,0,0,1-2.65-2l-.93-1.24L82.7,69.2,78,72.54Z" style="fill:#5c5c5f"></path><path d="M85.32,67.62s5.42,6.21,10.24,7.46a15.44,15.44,0,0,0,9.32-.8A34.1,34.1,0,0,0,110.67,70a54.18,54.18,0,0,0,3.93-4.77l2.81-3L114,60.43A53.5,53.5,0,0,0,109.63,65a21.59,21.59,0,0,1-3.12,3s-2.26,2-3.65,2.29l0,0-.12.08-.19.13-.26.15-.33.18-.41.18c-.15.06-.3.13-.46.18l-.52.17-.59.14a4.62,4.62,0,0,1-.63.11,5.23,5.23,0,0,1-.68.07h-.73a6.83,6.83,0,0,1-.78-.06,7.62,7.62,0,0,1-.81-.14,8.19,8.19,0,0,1-.85-.23,9.32,9.32,0,0,1-.88-.33c-.31-.14-.62-.29-.92-.46a10.23,10.23,0,0,1-.94-.57,10.8,10.8,0,0,1-1-.71.18.18,0,0,1-.07-.05l-.25-.21a.49.49,0,0,1-.17-.18.65.65,0,0,0-.13-.16c-.07-.06-.16-.09-.22-.14l-.07-.09a.24.24,0,0,1-.06-.09l-.1-.15a.32.32,0,0,0-.09-.08,2,2,0,0,1-.14-.25.86.86,0,0,0-.14-.13.65.65,0,0,1-.15-.18c0-.08-.11-.16-.15-.25a2.31,2.31,0,0,0-.14-.19.43.43,0,0,1-.09-.13l0-.06s0,0,0,0a.57.57,0,0,0-.11-.16l-.08-.09-.07-.11s0,0,0-.07a1.13,1.13,0,0,0-.1-.13l-.16,0a.36.36,0,0,0-.3.07l-.09,0a2.74,2.74,0,0,1-.4.15l-.56.22-.66.25-.66.25-.58.23-.41.15-.16.06" style="fill:#98999d"></path><path d="M143.53,46.31a7.92,7.92,0,0,0-1.09-1.51c-.13-.15-.26-.31-.4-.45a6.46,6.46,0,0,0-1.66-1.16,12.06,12.06,0,0,0-4.87-1.1,9.5,9.5,0,0,0-2.18.28,16,16,0,0,0-2.06.66A22.57,22.57,0,0,0,127,45.36c-.54.38-1,.83-1.56,1.27-.35.29-.71.57-1,.89l-.77.75-.52.6c-.75.78-1.44,1.59-2.15,2.41l-2.33,2.59-.78.89c-.19.25-.86,1.16-1.17,1.18a.15.15,0,0,1-.14-.07,1.64,1.64,0,0,1-.13-.46c-.09-.35-.14-.7-.2-1.07-.14-.74-.32-1.45-.47-2.18a12.09,12.09,0,0,0-.79-2.67,6.45,6.45,0,0,0-.52-.87,8,8,0,0,0-2-2.08c-.27-.18-.55-.33-.82-.5a15,15,0,0,0-1.54-.8,22.71,22.71,0,0,0-4.8-1.48c-1-.19-2-.38-3.13-.49a22.27,22.27,0,0,0-3.71,0l-.4,0a5.32,5.32,0,0,1-1.37.06c-.22-.1-.56-.63-.7-.79a4.14,4.14,0,0,0-2.19-1.5,3.27,3.27,0,0,0-.66-.1h-.2l-.21,0-.17,0a8.34,8.34,0,0,0-1.41.36,3.82,3.82,0,0,0-2.39,3.19c-.06.33,0,1-.18,1s-2,.88-2.23,1c-.84.42-1.71.81-2.52,1.3A12.57,12.57,0,0,0,82.22,49a5.38,5.38,0,0,0-1.44,1.65,6.67,6.67,0,0,0-.34.88A9.29,9.29,0,0,0,80,53.28c0,.28-.08.55-.11.84a2.56,2.56,0,0,1-.08.69,2.64,2.64,0,0,1-.62.72l-.84.92-.83,1.12a15.53,15.53,0,0,0-1.37,2.14,8,8,0,0,0-.33,4.66c.05.3.1.6.14.9s.05.42.08.63c.09.53.23,1.06.34,1.59s.18.92.28,1.38.19.7.29,1.06.09.5.14.76.21.66.32,1a3.39,3.39,0,0,1,.19.85c0,.3-.53.76-.74,1a.85.85,0,0,0-.25.25c-.08.19.08.32.23.38S78.74,72.66,79,72.4A19.79,19.79,0,0,1,80.69,71c.46-.3.92-.6,1.39-.89s1.1-.75,1.69-1.07L85,68.36a1,1,0,0,1,.42-.2c.16,0,.73.66.89.81s.47.43.71.64l1,.9,1.38,1.12.72.63c.54.47,1.1.91,1.66,1.32a12.61,12.61,0,0,0,7.82,2.5,13.21,13.21,0,0,0,5-1,13.5,13.5,0,0,0,1.75-.86,17.46,17.46,0,0,0,2.76-1.88l.88-.85c.66-.62,1.31-1.28,1.94-1.93l.7-.69.6-.71.56-.6c.23-.32.46-.63.7-.94s.42-.51.64-.76l.83-1.09c.4-.5,1.88-2.27,2.19-2.66l.53-.63c.3-.37,2-2.25,2.46-2.85.16-.18.32-.34.48-.51.33-.35,1.57-1.56,1.85-1.83.78-.74,1.46-1.57,2.24-2.3.42-.4,1.63-1.45,1.79-1.61,1.09-1,3.78-3.27,6-4a8.64,8.64,0,0,1,1.53-.31,4.33,4.33,0,0,1,2.13.25,3,3,0,0,1,1.81,2,3.85,3.85,0,0,1,0,1,7.71,7.71,0,0,1-.83,3.12,26.62,26.62,0,0,1-2.62,4.34c-.33.44-.69.87-1,1.32a2.85,2.85,0,0,0-.53.72s0,0,0,.08c.54,0,1.93-1.64,2.3-2.07a18.73,18.73,0,0,0,1.16-1.5c.34-.48,1.27-1.93,1.41-2.18a7.23,7.23,0,0,0,1-3.75,4.79,4.79,0,0,0-.09-1.15c-.47-1.9-1.91-2.68-3.78-3a8.22,8.22,0,0,0-1.82,0,8.91,8.91,0,0,0-1.19.22,10.6,10.6,0,0,0-2.61,1.19c-.92.57-1.62,1.1-1.82,1.24A30.35,30.35,0,0,0,126.21,52c-.55.45-2,1.77-2.13,1.95s-.74.76-.89.9-.54.54-.82.8-1.35,1.38-1.67,1.74-2.22,2.39-2.69,3c-.33.43-1.51,1.91-1.77,2.21l-1.18,1.43c-.13.17-.28.33-.42.49-.6.78-1.15,1.59-1.77,2.35l-1.34,1.6a7.06,7.06,0,0,1-.67.67l-.46.47-.62.58c-.59.56-1.2,1.06-1.79,1.59a19.06,19.06,0,0,1-2.26,1.59,12.93,12.93,0,0,1-5.53,1.68A9.73,9.73,0,0,1,97.44,75c-.44-.08-.89-.14-1.31-.24a14.62,14.62,0,0,1-1.77-.57,8.07,8.07,0,0,1-1.17-.5,17.7,17.7,0,0,1-2.71-2.14l-1.39-1.19L87.6,69.07l-.76-.69-.55-.54c0-.16.91-.54,1.08-.61a29.34,29.34,0,0,1,3.74-1.4c.61-.19,1.24-.35,1.86-.53L94.13,65l1.42-.3c.93-.21,1.86-.41,2.84-.55.48-.07,1-.11,1.5-.14l.53,0c.86-.07,1.74-.15,2.62-.14l1.71.07c1.24.05,2.55.08,3.74.2a2.72,2.72,0,0,1,1.09.17c.12,0-.15.26-.18.29-.28.32-.59.6-.9.9s-.88.87-1.36,1.27a26.55,26.55,0,0,1-2.35,1.94c-.48.32-1,.7-1.48,1s-1,.48-1.56.74c-.21.1-.63.24-.84.34a7.5,7.5,0,0,1-1.16.38,7.4,7.4,0,0,1-3,.16,8.71,8.71,0,0,1-4.53-2.23A15.29,15.29,0,0,1,91,67.92a4.78,4.78,0,0,0-.52-.58.35.35,0,0,0-.32-.11h-.05a.87.87,0,0,0,.1.45,10.63,10.63,0,0,0,4.12,3.66c.33.15,1.09.42,1.43.53,1.63.54,4.94.73,9.12-2.25a31.53,31.53,0,0,0,2.93-2.39c.5-.47,1.1-1,1.61-1.43s3.24-3.26,3.81-3.95L116,58.62c.91-1,1.81-2,2.72-3,.61-.66,1.24-1.3,1.81-2l1.6-1.76a27.75,27.75,0,0,1,2.26-2.35c.4-.38.78-.76,1.18-1.13L126,48l.49-.44c.51-.42,1.07-.79,1.58-1.18A15.11,15.11,0,0,1,130.28,45a16.84,16.84,0,0,1,3.15-1.26,14.5,14.5,0,0,1,1.92-.33,11,11,0,0,1,1.53-.13,10.45,10.45,0,0,1,1.49.15,5.46,5.46,0,0,1,4.48,3.24,6.71,6.71,0,0,1,.5,1.74c0,.32,0,.66.09,1a3.74,3.74,0,0,1,0,.58,7.5,7.5,0,0,1-.21,1.72,22.34,22.34,0,0,1-.83,3c-.16.42-.32.78-.47,1.19a15.54,15.54,0,0,1-2,3.54,16.43,16.43,0,0,1-3,3.08c-.66.52-2.23,1.72-3.38,2.46a77.16,77.16,0,0,1-6.8,4.05c-1,.57-4.09,2.16-4.66,2.41a1.63,1.63,0,0,0-.6.31.29.29,0,0,0,0,.27,4.66,4.66,0,0,0,.68.72c.26.09.55-.13.77-.21.51-.2,4-2.11,4.23-2.27.95-.53,3.67-2.2,4-2.41a43.74,43.74,0,0,0,6.93-5l.8-.74a20.14,20.14,0,0,0,2.54-3.18c.39-.63.84-1.4,1.17-2.07s.46-1.09.67-1.63l.21-.7c.85-2.55,1.25-5.78,0-8.17m-53.79-3a2.78,2.78,0,0,1,1.51-1.28,9.35,9.35,0,0,1,1.07-.29,2.94,2.94,0,0,1,2.82,1.48c0,.09.2.28.13.4A5.58,5.58,0,0,1,93.9,44a28,28,0,0,0-3.29.89c-.28.1-1.37.59-1.29.39s0-.39,0-.58a3.59,3.59,0,0,1,.41-1.37m25.64,14.33a2.54,2.54,0,0,1-.52.78l-1,1.21-.59.63-.48.6c-.44.52-.91,1-1.36,1.54l-.76.85c-.21.17-1.23-.14-1.54-.17l-1.32-.18c-.63-.06-1.25-.07-1.89-.13-.3,0-.63-.05-.94-.06a1.18,1.18,0,0,0-.46,0l-1,0a.94.94,0,0,0-.38,0,1.67,1.67,0,0,0-.59,0,1,1,0,0,0-.38,0,1,1,0,0,0-.43,0,.75.75,0,0,0-.26,0,1,1,0,0,0-.25,0,.79.79,0,0,0-.31,0l-.23,0a.52.52,0,0,0-.25,0,1.11,1.11,0,0,0-.26,0,.75.75,0,0,0-.3,0,.66.66,0,0,0-.28,0l-.18,0-.23,0-.2,0h-.18a.61.61,0,0,0-.28,0l-.16,0-.17,0L98,63a2.32,2.32,0,0,0-.65.09l-1.09.23c-.56.13-1.14.22-1.7.36l-1.33.35-1.23.3c-.73.21-1.45.44-2.16.67l-1.14.36a24.94,24.94,0,0,0-2.65,1.15c-.74.39-1.46.83-2.2,1.24l-.94.57c-.32.2-.64.4-1,.61l-.67.52a12.52,12.52,0,0,0-1.15.92l-.48.49-1,.86c-.12,0-.18-.15-.22-.25a11,11,0,0,1-.29-1.32c-.14-.55-.29-1.09-.4-1.64,0-.2-.07-.4-.1-.59s-.06-.41-.1-.61-.13-.56-.19-.84c-.16-.8-.22-1.6-.31-2.44,0-.55-.15-1.11-.15-1.68a7,7,0,0,1,.29-1.87,5,5,0,0,1,.67-1.25,11.22,11.22,0,0,1,1-1.48,6.36,6.36,0,0,0,.53-.72,1.79,1.79,0,0,1,.36-.46s0,0,0,0v0s0,0,0,.08c0,.33,0,.67.08,1a8.82,8.82,0,0,0,.53,2.24,4.21,4.21,0,0,0,.4.93c0,.08.16.25.28.22s0-.07,0-.09a3.66,3.66,0,0,0-.06-1c-.07-.7-.17-1.43-.19-2.14a19.39,19.39,0,0,1,0-3.41,9.71,9.71,0,0,1,.89-2.76A4.56,4.56,0,0,1,82.89,50a10.19,10.19,0,0,1,1.81-1.29c.34-.18,2.39-1.25,3.1-1.58.54-.25,1.07-.48,1.63-.69s1.41-.5,2.13-.72,1.25-.33,1.9-.47a36.27,36.27,0,0,1,5.12-1,23.64,23.64,0,0,1,7,.29,16.51,16.51,0,0,1,3,.81,10.1,10.1,0,0,1,5.09,4.33,8.26,8.26,0,0,1,.43,1,24.43,24.43,0,0,1,.78,3c.16.78.34,1.54.49,2.33a3.66,3.66,0,0,1,.07,1.68" style="fill:#191515"></path><path d="M108.43,59.71a.13.13,0,0,1,0-.06.19.19,0,0,1,0-.07s0-.1,0-.14a.41.41,0,0,1,0-.11s0-.1,0-.16v-.05a.15.15,0,0,0,0-.07v-.11a.78.78,0,0,1,0-.14.72.72,0,0,0-.08-.26l-.11-.1s0,0,0,0l-.08,0h-.65l-.07,0a.11.11,0,0,1,0-.06.32.32,0,0,1,0-.09.31.31,0,0,1,0-.08.14.14,0,0,0,0-.06v0a2.14,2.14,0,0,1-.07-.38,1.41,1.41,0,0,1,0-.2.07.07,0,0,0,0,0,.49.49,0,0,0,0-.12v-.09s0,0,0-.06a.71.71,0,0,0,0-.15.28.28,0,0,1,0-.09.38.38,0,0,1,0-.1.43.43,0,0,0,0,0v-.05a.57.57,0,0,1,0-.13c0-.08,0-.15,0-.24v0a1.25,1.25,0,0,0,0-.19v0a.77.77,0,0,0,0-.15v-.06a.37.37,0,0,0,0-.09v-.11c0-.07,0-.13,0-.21s0-.14,0-.21,0-.09,0-.14,0-.05,0-.08l0-.06-.06-.08,0,0,0,0a0,0,0,0,1,0,0l0,0a.1.1,0,0,0,0,0s0,0,0,0l0-.06,0,0h0a.12.12,0,0,0-.05,0,.57.57,0,0,1-.13-.08l-.06,0-.08,0-.06,0-.1-.06h0l-.14-.05h0l0,0h-.06s0,0,0,0h0l-.1,0-.15,0h-.23s0,0-.06,0h-.17s0-.05,0-.06l-.05-.06,0-.06s0,0,0,0l0,0,0,0,0,0s0,0,0,0l0,0,0,0s0,0,0,0l-.06,0-.07-.06,0,0,0,0,0,0,0,0-.13-.07a.47.47,0,0,0-.12-.09l-.18-.09-.14-.08-.13-.06-.16-.08-.19-.1-.13,0-.11-.05-.06,0-.08,0-.08,0-.05,0v0a.2.2,0,0,1,0-.1.22.22,0,0,0,0-.08v-.05s0,0,0-.06v-.08a.09.09,0,0,0,0,0V52.1c0-.08,0-.17,0-.25v0s0-.06,0-.09a.28.28,0,0,1,0-.09h0l0,0s0,.06,0,.08a.16.16,0,0,0,0,.07.87.87,0,0,0,.07.17.14.14,0,0,1,0,.06l.06.17v0l0,0,0,0a.12.12,0,0,0,.06.08.09.09,0,0,0,.07,0l0,0,.11,0h.84l0,0h.08l.07,0a.1.1,0,0,0,0,0s0,0,0-.06l0-.06a.43.43,0,0,1,0,0s0,0,0,0a.28.28,0,0,0,0-.09,1.75,1.75,0,0,0,0-.4v-.22a1.3,1.3,0,0,0,0-.13.37.37,0,0,0,0-.11.43.43,0,0,1,0-.11s0-.06,0-.09a.43.43,0,0,1,0-.05v0a.07.07,0,0,1,0,0,.41.41,0,0,1,0-.11v-.06c0-.09,0-.19,0-.28v0s0,0,0,0v-.1a1.15,1.15,0,0,0,0-.18v0c0-.07,0-.14,0-.2v-.11a.43.43,0,0,1,0,0,.34.34,0,0,0,0-.1v-.21l0,0a.11.11,0,0,0,0-.06.09.09,0,0,0,0-.05l0,0,0,0-.06,0,0,0a.09.09,0,0,0-.06,0h-.07s0,0,0,0h-.68a.33.33,0,0,0-.1,0h-.39a.12.12,0,0,0-.09.08.09.09,0,0,0,0,.05.14.14,0,0,0,0,.06v.27a.13.13,0,0,1,0,.06s0,0,0,0h0l0,0,0,0h0l-.26-.1-.15-.05-.06,0-.06,0-.13,0-.17,0h-.18l0,0h-.11l-.05,0h-.14l-.13,0h-.06s0,0,0,0H100s-.07,0-.09,0h-.24l0,0h-.19l-.07,0h0a.32.32,0,0,0-.09,0H99l-.08,0a.17.17,0,0,0-.1,0,.19.19,0,0,0-.08,0h0l-.08,0-.08,0,0,0,0,0h0l0,0a.09.09,0,0,0-.06,0l0,0,0,0h0l0,0-.06,0,0,0-.13.11a1,1,0,0,0-.16.12l-.06,0,0,0h0s0,0,0,0l0,0,0,0-.09.1,0,0,0,0a.1.1,0,0,1,0,.06,0,0,0,0,0,0,0l0,0s0,0,0,0l0,0-.06.07a.08.08,0,0,0,0,0l0,0s0,0,0,0l0,0a.93.93,0,0,1,0,.1l0,.06s0,.09,0,.13,0,0,0,0a.15.15,0,0,1,0,.06l0,0s0,0,0,.06v0a.29.29,0,0,0,0,.09v.13s0,0,0,.07v0a.09.09,0,0,0,0,.08v.12s0,0,0,.07v0s0,0,0,0V52A.64.64,0,0,0,97,52a1648337093971.26,1648337093971.26,0,0,0,0,.12.18.18,0,0,0,0,.11.11.11,0,0,0,0,.06l0,.13,0,.08,0,0,0,.05,0,0a.14.14,0,0,0,0,.06l0,0,0,0,0,0s0,0,0,.05a.61.61,0,0,0,.07.1s0,0,0,0l0,.05s0,0,0,0a1,1,0,0,0,.09.13l.06,0,.09.1,0,0,0,0a0,0,0,0,1,0,0l0,0s0,0,0,0l0,0h0l0,0h0l.12.08,0,0h0l0,0h0l.13.07h0l0,0h0l.05,0,0,0,.08,0h.12l.07,0,0,0h0l.13,0h.07l.06,0,.08,0h0l.07,0,.23.05h0l.07,0a.53.53,0,0,1,.12,0c.1,0,.2,0,.3.06l.05,0,0,0,.11,0h0a.26.26,0,0,1,.11.07s0,0,0,.06,0,0,0,.07,0,.08,0,.13v.12s0,0,0,.05,0,0,0,.06V55a.11.11,0,0,1,0,0,.06.06,0,0,1,0,0s0,.05,0,.08,0,0,0,0,0,0,0,0v.06a1.5,1.5,0,0,1,0,.2.43.43,0,0,0,0,0v.09s0,0,0,.07v.08a1.27,1.27,0,0,1,0,.2c0,.07,0,.13,0,.19l0,0-.11,0h0a.35.35,0,0,1-.13,0l-.16-.07A.27.27,0,0,1,100,56L100,56a.09.09,0,0,0-.06,0l0,0,0,0-.06-.05-.06-.06a1.31,1.31,0,0,0-.11-.12l-.06-.06,0,0,0-.07s0,0-.06-.08,0,0,0,0l0,0a.41.41,0,0,1,0-.09l0,0a.83.83,0,0,0-.07-.13l0,0a.25.25,0,0,1,0-.07,1.85,1.85,0,0,0-.19-.27l0-.06a.35.35,0,0,0-.05-.08l0,0a.53.53,0,0,0-.12-.1h-.53s-.07,0-.09,0h0s-.07,0-.08,0h-.27l-.08,0-.07,0-.15.07s-.06,0-.08.07a.46.46,0,0,0-.09.15s0,0,0,.06,0,0,0,.06V55a0,0,0,0,1,0,0s0,.05,0,.08h0a.43.43,0,0,0,0,.11v.23s0,0,0,.06v0s0,.07,0,.1v0a.09.09,0,0,0,0,0v.05s0,.06,0,.09,0,.08,0,.12a.77.77,0,0,0,0,.15,0,0,0,0,0,0,0c0,.07,0,.13,0,.19s0,.05,0,.07a.51.51,0,0,0,0,.13c0,.07,0,.13,0,.2s0,.06,0,.09,0,.08,0,.13v.25a.13.13,0,0,0,0,.06s0,.06,0,.07h0s0,0,0,0v.06a.11.11,0,0,1,0,.06v.08s0,.05,0,.08v.09a.06.06,0,0,0,0,0v0s0,.06,0,.08v0a.37.37,0,0,0,0,.11,0,0,0,0,0,0,0l0,0,.07.06,0,0,0,0,0,0h0l0,0s0,0,.06,0h.76s0,0,.07,0h.5l0,0,.06-.06,0,0a.33.33,0,0,0,.08-.19V58a.57.57,0,0,0,0-.13V57.8a.07.07,0,0,1,0-.06h0s0,0,0,0h0l0,0,.07,0,.13.08h0l.1,0h0l0,0h.06s0,0,0,0l.09,0h0l.06,0h.13l.07,0h.13l.09,0h.28a0,0,0,0,0,0,0v.2a.76.76,0,0,1,0,.15.11.11,0,0,0,0,0s0,.07,0,.1,0,0-.06.06-.06,0-.08,0l-.09,0s0,0-.08,0-.06,0-.09.05l0,0,0,0,0,0,0,0a.1.1,0,0,0,0,.05v0a.12.12,0,0,0,0,.09v0a.25.25,0,0,0,0,.08s0,0,0,0a.06.06,0,0,0,0,0v.28s0,0,0,0,0,.06,0,.09,0,.12,0,.17,0,.08,0,.11,0,.05,0,.07,0,.05,0,.07v.07a.94.94,0,0,0,.06.3v0a.09.09,0,0,0,0,.06l.05.06h0a.3.3,0,0,0,.19,0l.13,0H101l.13,0h1.25l0,0h.7s.18,0,.21,0h.06l.09,0h0l.1,0,0,0,0,0a.41.41,0,0,1,0-.09.45.45,0,0,0,0-.11s0,0,0-.07v-.06s0,0,0-.06v-.25a.35.35,0,0,0,0-.06v-.13c0-.09,0-.18,0-.27s0-.1,0-.15,0,0,0,0a.19.19,0,0,0,0-.08.09.09,0,0,1,0,0,1.5,1.5,0,0,0-.15-.23l-.09,0,0,0h-.31l-.09,0-.06,0a0,0,0,0,1,0,0,.49.49,0,0,1,0-.11l0,0s0-.08,0-.12,0-.18,0-.2.08,0,.11,0l0,0h.1l0,0h0s0,0,.06,0h0l.2-.08.09,0a.41.41,0,0,1,.11-.07l0,0,0,0h0l0,0a.57.57,0,0,0,.13-.08l.08,0,0,0s.05,0,.07-.06l0,0,0,0a.27.27,0,0,1,.08-.07l0,0,.08-.09s0,0,0,0l0-.06.16-.21.07-.09.06-.09,0,0,0-.07h0s.1.31.1.37a.34.34,0,0,1,0,.1.13.13,0,0,1,0,.06v0a.34.34,0,0,1,0,.1v.15s0,.08,0,.12v.05a.11.11,0,0,0,0,0V58s0,0,0,.06v.05a0,0,0,0,0,0,0,0,0,0,0,1,0,0,.28.28,0,0,1,0,.09v.15a0,0,0,0,1,0,0,.22.22,0,0,1,0,.08.35.35,0,0,0,0,.08l-.06,0,0,0,0,0,0,0-.06,0a.26.26,0,0,0-.14.11s0,0,0,0h0l0,.05V59s0,.05,0,.07,0,0,0,.06v.06s0,.09,0,.11v0a.43.43,0,0,0,0,0v0s0,0,0,.05h0v.16a.08.08,0,0,1,0,0,.09.09,0,0,1,0,.05v0a.25.25,0,0,0,0,.07s0,0,0,0h0a0,0,0,0,0,0,0,.37.37,0,0,0,0,.15l0,.07,0,.1s0,0,0,.05l0,0,.06.08a.1.1,0,0,0,.07,0,.38.38,0,0,0,.1,0l.06,0a.17.17,0,0,0,.12,0l.17,0h.29l0,0h1.87l.08,0h.22l.09,0h.17a.27.27,0,0,0,.11-.05s0,0,0,0l.06,0,0,0,0,0a.09.09,0,0,0,0,0s0,0,0,0a.61.61,0,0,0,0-.27M98.3,53.35h0m.09,1.53Zm.45,1.89h0Zm3.1-5.7s-.08,0-.1,0H101s0,0-.06,0h-.35a.21.21,0,0,0-.11,0H100a.4.4,0,0,0-.27.17.73.73,0,0,1,0,.09.25.25,0,0,1-.11,0c-.09,0-.07-.17,0-.24a.14.14,0,0,1,0-.06s0,0,0-.06l.07-.08s0,0,0,0l.1-.06h0a.41.41,0,0,1,.15-.07l.12,0,.12,0,.08,0h0l.07,0h.75l.25,0h.15l.08,0c.09,0,.22,0,.26.14a0,0,0,0,1,0,0" style="fill:#f5bc00"></path><path d="M108.43,59.71a.13.13,0,0,1,0-.06.19.19,0,0,1,0-.07s0-.1,0-.14a.41.41,0,0,1,0-.11s0-.1,0-.16v-.05a.15.15,0,0,0,0-.07v-.11a.78.78,0,0,1,0-.14.72.72,0,0,0-.08-.26l-.11-.1s0,0,0,0l-.08,0h-.65l-.07,0a.11.11,0,0,1,0-.06.32.32,0,0,1,0-.09.31.31,0,0,1,0-.08.14.14,0,0,0,0-.06v0a2.14,2.14,0,0,1-.07-.38,1.41,1.41,0,0,1,0-.2.43.43,0,0,0,0,0v-.12a.28.28,0,0,0,0-.09s0,0,0-.06a.71.71,0,0,0,0-.15.28.28,0,0,1,0-.09.38.38,0,0,1,0-.1.43.43,0,0,0,0,0v-.05a.57.57,0,0,1,0-.13c0-.08,0-.15,0-.24v0a1.25,1.25,0,0,0,0-.19v0a.77.77,0,0,0,0-.15v-.06a.37.37,0,0,0,0-.09v-.11c0-.07,0-.13,0-.21s0-.14,0-.21,0-.09,0-.14,0-.05,0-.08l0-.06-.06-.08,0,0,0,0a0,0,0,0,1,0,0l0,0,0,0,0,0,0-.06,0,0h0a.12.12,0,0,0-.05,0,.57.57,0,0,1-.13-.08l-.06,0-.08,0-.06,0-.1-.06h0l-.13-.05h0l0,0h-.1l-.1,0-.15,0h-.23s0,0-.06,0h-.17s0-.05,0-.06l-.05-.06,0-.06s0,0,0,0l0,0,0,0,0,0s0,0,0,0l0,0,0,0s0,0,0,0l-.06,0-.07-.06,0,0,0,0,0,0,0,0-.13-.07a.47.47,0,0,0-.12-.09l-.18-.09-.14-.08-.12-.06-.17-.08-.19-.1-.13,0-.11-.05-.06,0-.08,0-.08,0-.05,0v0a.2.2,0,0,1,0-.1.22.22,0,0,0,0-.08v-.05s0,0,0-.06v-.08a.09.09,0,0,0,0,0,.07.07,0,0,1,0,0v0a2.09,2.09,0,0,0,0-.25v0s0-.06,0-.09,0-.06,0-.09h0l0,0s0,.06,0,.08a.16.16,0,0,0,0,.07.87.87,0,0,0,.07.17.14.14,0,0,1,0,.06c0,.06,0,.12.05.17a0,0,0,0,1,0,0,.05.05,0,0,1,0,0l0,0a.12.12,0,0,0,.06.08.09.09,0,0,0,.07,0l0,0,.11,0h.84l0,0h.07l.08,0a.1.1,0,0,0,0,0s0,0,0-.06l0-.06a.43.43,0,0,1,0,0s0,0,0,0a.28.28,0,0,0,0-.09,1.75,1.75,0,0,0,0-.4v-.22a1.3,1.3,0,0,0,0-.13.37.37,0,0,0,0-.11.43.43,0,0,1,0-.11s0-.06,0-.09a.43.43,0,0,1,0-.05v0a.07.07,0,0,1,0,0,.41.41,0,0,1,0-.11v-.06c0-.09,0-.19,0-.28v0s0,0,0,0v-.1a1.15,1.15,0,0,0,0-.18v0c0-.07,0-.14,0-.2v-.11a.07.07,0,0,1,0,0,.34.34,0,0,0,0-.1v-.21l0,0a.11.11,0,0,0,0-.06.09.09,0,0,0,0-.05l0,0,0,0-.06,0,0,0a.09.09,0,0,0-.06,0h-.07s0,0,0,0h-.68a.33.33,0,0,0-.1,0h-.39a.12.12,0,0,0-.09.08.09.09,0,0,0,0,.05.14.14,0,0,0,0,.06v.27a.13.13,0,0,1,0,.06s0,0,0,0h0l0,0,0,0h0l-.26-.1-.15-.05-.06,0-.06,0-.13,0-.17,0h-.18l0,0h-.11l-.05,0h-.14l-.13,0h-.06s0,0,0,0H100s-.07,0-.09,0h-.24l0,0h-.19l-.07,0h0a.32.32,0,0,0-.09,0H99l-.08,0a.17.17,0,0,0-.1,0,.19.19,0,0,0-.08,0h0l-.08,0-.08,0,0,0,0,0h0l0,0-.06,0,0,0,0,0h0l0,0-.06,0,0,0-.13.11a1,1,0,0,0-.16.12l-.06,0,0,0h0s0,0,0,0l0,0,0,0-.09.1,0,0,0,0a.1.1,0,0,1,0,.06,0,0,0,0,0,0,0l0,0s0,0,0,0l0,0-.06.07a.08.08,0,0,0,0,0l0,0s0,0,0,0l0,0a.93.93,0,0,1,0,.1l0,.06s0,.09,0,.13,0,0,0,0a.15.15,0,0,1,0,.06l0,0s0,0,0,.06v0a.29.29,0,0,0,0,.09v.13s0,0,0,.07,0,0,0,0v0a.06.06,0,0,0,0,0s0,0,0,.07v0s0,0,0,.07v0s0,0,0,0V52A.64.64,0,0,0,97,52a1648337093971.26,1648337093971.26,0,0,0,0,.12.18.18,0,0,0,0,.11.14.14,0,0,0,0,.06l0,.13,0,.08,0,0,0,.05,0,0a.14.14,0,0,0,0,.06l0,0,0,0,0,0s0,0,0,.05a.61.61,0,0,0,.07.1s0,0,0,0l0,.05s0,0,0,0a1,1,0,0,0,.09.13l.06,0,.09.1,0,0,0,0a0,0,0,0,1,0,0l0,0s0,0,0,0l0,0h0l0,0h0l.12.08,0,0h0l0,0h0l.13.07h0l0,0h0l.05,0,0,0,.08,0h.12l.07,0,0,0h0l.14,0h.06l.06,0,.08,0h0l.06,0,.23.05h0l.07,0a.53.53,0,0,1,.12,0,2.47,2.47,0,0,1,.29.06l.06,0,0,0,.11,0h0a.26.26,0,0,1,.11.07s0,0,0,.06,0,0,0,.07,0,.08,0,.13v.12s0,0,0,.05,0,0,0,.06V55a.11.11,0,0,1,0,0,.06.06,0,0,1,0,0s0,.05,0,.08,0,0,0,0,0,0,0,0v.06a1.5,1.5,0,0,1,0,.2s0,0,0,0a.28.28,0,0,0,0,.09v.15a1.27,1.27,0,0,1,0,.2.4.4,0,0,1,0,.19s0,0,0,0l-.11,0h0a.35.35,0,0,1-.13,0l-.16-.07A.21.21,0,0,1,100,56L100,56a.09.09,0,0,0-.06,0l0,0,0,0-.06-.05-.06-.06a1.31,1.31,0,0,0-.11-.12l-.06-.06,0,0,0-.06s0,0-.06-.08,0,0,0,0l0,0,0-.09,0,0a.83.83,0,0,0-.07-.13l0,0a.25.25,0,0,1,0-.07,1.85,1.85,0,0,0-.19-.27l0-.06a.35.35,0,0,0-.05-.08l0,0a.53.53,0,0,0-.12-.1h-.53s-.07,0-.09,0h0s-.07,0-.08,0h-.27l-.08,0-.06,0a.59.59,0,0,0-.16.07s-.06,0-.08.07a.46.46,0,0,0-.09.15s0,0,0,.06,0,0,0,.06V55a0,0,0,0,1,0,0s0,.05,0,.08h0a.43.43,0,0,0,0,.11v.23s0,0,0,.06v0s0,.07,0,.1v0a.09.09,0,0,0,0,0v.05s0,.06,0,.09,0,.08,0,.12a.77.77,0,0,0,0,.15,0,0,0,0,0,0,0c0,.07,0,.13,0,.19s0,.05,0,.07a.51.51,0,0,0,0,.13c0,.07,0,.13,0,.2s0,.06,0,.09,0,.08,0,.13v.25a.13.13,0,0,0,0,.06s0,.06,0,.07h0s0,0,0,0v.06a.11.11,0,0,1,0,.06v.08s0,.05,0,.08v.09a.06.06,0,0,0,0,0v0s0,.06,0,.08v0a.37.37,0,0,0,0,.11,0,0,0,0,0,0,0l0,0,.07.06,0,0,0,0,0,0h0l0,0s0,0,.06,0h.76s0,0,.07,0h.5l0,0,.06-.06,0,0a.33.33,0,0,0,.08-.19V58a.57.57,0,0,0,0-.13V57.8a.07.07,0,0,1,0-.06h0s0,0,0,0h0l0,0,.07,0,.13.08h0l.09,0h0l0,0h.06s0,0,0,0l.09,0h0l.06,0h0s0,0,0,0h.07l.07,0h.13l.09,0h.28a0,0,0,0,0,0,0v.2a.76.76,0,0,1,0,.15.11.11,0,0,0,0,0s0,.07,0,.1,0,0-.06.06,0,0-.08,0l-.09,0s0,0-.08,0-.06,0-.09.05l0,0,0,0,0,0,0,0a.1.1,0,0,0,0,.05v0a.12.12,0,0,0,0,.09v0a.31.31,0,0,0,0,.08v.46a1,1,0,0,1,0,.17v.25a.15.15,0,0,0,0,.07.94.94,0,0,0,.06.3v0a.09.09,0,0,0,0,.06l.05.06h0a.3.3,0,0,0,.19,0l.13,0H101l.13,0h1.25l0,0h.7s.18,0,.21,0h.06l.09,0h0l.1,0,0,0,0,0a.41.41,0,0,1,0-.09.45.45,0,0,0,0-.11s0,0,0-.07v-.06s0,0,0-.06v-.25a.35.35,0,0,0,0-.06v-.13c0-.09,0-.18,0-.27s0-.1,0-.15,0,0,0,0a.19.19,0,0,0,0-.08.09.09,0,0,1,0,0,1.5,1.5,0,0,0-.15-.23l-.09,0,0,0h-.31l-.09,0-.06,0a0,0,0,0,1,0,0,.49.49,0,0,1,0-.11l0,0s0-.08,0-.12,0-.18,0-.2.08,0,.11,0l0,0h.1l0,0h0s0,0,.06,0h0l.19-.08.09,0a.41.41,0,0,1,.11-.07l0,0,0,0h0l0,0a.57.57,0,0,0,.13-.08l.08,0,0,0s.05,0,.07-.06l0,0,0,0a.27.27,0,0,1,.08-.07l0,0,.08-.09s0,0,0,0l0-.06.16-.21.07-.09.06-.09,0,0,0-.07h0s.1.31.1.37a.34.34,0,0,1,0,.1.13.13,0,0,1,0,.06v0a.34.34,0,0,1,0,.1v.15s0,.08,0,.12v.05a.11.11,0,0,0,0,0V58s0,0,0,.06v.05a0,0,0,0,0,0,0,0,0,0,0,1,0,0,.28.28,0,0,1,0,.09v.15a0,0,0,0,1,0,0,.22.22,0,0,1,0,.08.35.35,0,0,0,0,.08l-.06,0,0,0,0,0,0,0-.06,0a.33.33,0,0,0-.15.11s0,0,0,0h0l0,.05V59s0,.05,0,.07,0,0,0,.06v.06s0,.09,0,.11v0a.43.43,0,0,0,0,0v0s0,0,0,.05h0v.16a.08.08,0,0,1,0,0,.09.09,0,0,1,0,.05v0s0,0,0,.07,0,0,0,0h0s0,0,0,0a.37.37,0,0,0,0,.15l0,.07,0,.1,0,.05,0,0,.06.08a.1.1,0,0,0,.07,0,.38.38,0,0,0,.1,0l.06,0a.17.17,0,0,0,.12,0l.17,0h.29s0,0,0,0h1.87l.08,0h.22l.09,0h.17a.22.22,0,0,0,.11-.05s0,0,0,0l.06,0,0,0,0,0,0,0s0,0,0,0a.61.61,0,0,0,0-.27M98.3,53.35h0m.09,1.53Zm.45,1.89h0Zm1.88.89s0,0,0,0h-.23l-.07,0h-.09l-.07,0-.07,0,0,0-.06,0,0,0-.17-.07,0,0-.06,0-.13-.07-.11-.06,0,0a1.64,1.64,0,0,1-.22-.14l-.16-.14L99,56.86l-.06,0v0l0,0h0l0,0h0c-.05,0,0,.17,0,.23V57a.07.07,0,0,1,0,.05v.09a.13.13,0,0,1,0,.06v.09a1.79,1.79,0,0,1,0,.23v0a.13.13,0,0,1,0,.07l0,0a.06.06,0,0,0,0,0,.14.14,0,0,0-.09,0H98.2a.21.21,0,0,1-.14,0,.13.13,0,0,1,0,0,.08.08,0,0,1,0-.05,1,1,0,0,1,0-.18,1.1,1.1,0,0,0,0-.18V57.1s0,0,0,0,0,0,0,0v0a0,0,0,0,0,0,0s0-.07,0-.11a.28.28,0,0,0,0-.09.34.34,0,0,0,0-.1v0s0,0,0,0a.09.09,0,0,0,0,0s0,0,0,0v0a.09.09,0,0,1,0-.05.13.13,0,0,1,0-.06v0c0-.06,0-.13,0-.19V56s0-.06,0-.09a.48.48,0,0,1,0-.12v0s0,0,0,0v-.09c0-.06,0-.11,0-.17l0,0v-.22s0,0,0,0,0-.09,0-.13v0s0,0,0-.05a.25.25,0,0,1,.2-.09h.21a.38.38,0,0,1,.22,0,.22.22,0,0,1,.1.12.83.83,0,0,1,.08.12.56.56,0,0,1,0,.08s0,0,0,0l0,0,0,0,0,0s0,0,0,0a1,1,0,0,0,.11.15l0,0s0,0,0,0l0,0,.08.1,0,0v0s0,0,0,0l0,0h0l0,0,0,0,.11.13a3.17,3.17,0,0,0,.49.32l0,0h0a.59.59,0,0,1,.14.06l.06,0h0l.15.06a1.57,1.57,0,0,1,.3.12l0,0s0,.15,0,.2a1.15,1.15,0,0,1,0,.19.45.45,0,0,1,0,.12v0a.49.49,0,0,1,0,.12s0,.05,0,.07v.12m2.14,1.55h.2s.08,0,.1.05.07.2.08.29v.16s0,0,0,0v.06a.4.4,0,0,1,0,.22.16.16,0,0,1-.09.05h-.61s-.06,0-.09,0h-1.21s-.06,0-.08,0H101a.21.21,0,0,1-.17-.07l0,0a0,0,0,0,1,0,0,.13.13,0,0,1,0-.06,1.37,1.37,0,0,1,0-.23,1.1,1.1,0,0,1,0-.18.32.32,0,0,1,0-.14.23.23,0,0,1,.16-.13h.1c.13-.06.29-.12.33-.26a.33.33,0,0,0,0-.17c0-.11,0-.22,0-.33a.11.11,0,0,1,0,0v-.15a2.66,2.66,0,0,0,0-.28,2.46,2.46,0,0,0,0-.26v-.13s0,0,0-.05v-.37a1.5,1.5,0,0,1,0-.22c0-.15,0-.3,0-.45v-.06a.13.13,0,0,1,0-.05v-.09a.76.76,0,0,0,0-.15.66.66,0,0,1,0-.14s0-.07,0-.11,0-.17,0-.25,0-.06,0-.09v-.06s0-.06,0-.09,0-.09,0-.13,0,0,0-.08v-.2s0-.09,0-.14a.13.13,0,0,1,0-.06v-.25a.34.34,0,0,1,0-.1s0,0,.05,0l.06,0h.17l.07,0h0l0,0h0l.09,0h.07l.12,0h0l.18.06,0,0s0,0,.05,0a.3.3,0,0,1,0,.13s0,0,0,.08a.65.65,0,0,0,0,.14,0,0,0,0,1,0,0l0,0s.08,0,.1,0,0,0,0,0l.06-.06,0,0,.09-.05h0a.21.21,0,0,1,0,.06l0,0s0,0,0,0h0l0,0,0,0v0l0,0s0,0,0,.06,0,0,0,0v.07a.77.77,0,0,1,0,.15v.07s0,.06,0,.09l0,.09a.21.21,0,0,0,0,.06v0l0,0,0,0a.09.09,0,0,1,0,.05.18.18,0,0,0,0,.07l0,.06,0,0,0,.08a.39.39,0,0,0-.08.1.84.84,0,0,0-.08.31.76.76,0,0,0,0,.15.48.48,0,0,1,0,.12v.08a1.64,1.64,0,0,0,0,.23v.07c0,.06,0,.11,0,.17v.06a1.11,1.11,0,0,0,0,.17v.07h0v0l0,.05v.13a.25.25,0,0,1,0,.09s0,0,0,0v0s0,.1,0,.15v.1s0,0,0,.08,0,.08,0,.12v0l0,.1v0a.11.11,0,0,0,0,0l0,.08,0,0a.13.13,0,0,0,0,.06l.09.06.06,0h0l.09,0m1.76-3.8v.15a.09.09,0,0,1,0,0s0,.07,0,.1v.06l0,0v0a.14.14,0,0,0,0,.06s0,0,0,.05l0,0v0a.06.06,0,0,0,0,0,.32.32,0,0,0,0,.09.1.1,0,0,0,0,0s0,.05,0,.08l-.06.09s0,0,0,0v0s0,0,0,0l0,0s0,0,0,0l-.16.19,0,0,0,.06L104,57a2.09,2.09,0,0,1-.22.2l0,0-.08.05,0,0-.09,0-.06,0h0l-.16.08-.17,0,0,0H103l-.07,0h0s-.07,0-.08,0a.11.11,0,0,1,0-.05v-.07a.25.25,0,0,0,0-.08,1.55,1.55,0,0,1,0-.22v-.36a.13.13,0,0,1,0-.06.4.4,0,0,1,.1-.12h0a.07.07,0,0,1,0,0l0-.05,0,0,0-.05.07-.11v0a.05.05,0,0,0,0,0s0,0,0-.06,0-.05,0-.07,0,0,0-.06v0a.53.53,0,0,0,0-.12.64.64,0,0,0,0-.07s0-.06,0-.09,0,0,0,0a1,1,0,0,0,0-.17s0,0,0,0a.47.47,0,0,0,0-.12.09.09,0,0,0,0-.05s0,0,0,0a0,0,0,0,1,0,0l0,0a.19.19,0,0,1,0-.07.56.56,0,0,0,0-.08s0,0,0,0l-.11-.18,0-.06-.07-.08-.07-.08s0-.06-.07-.07l-.12-.08-.05,0a1.92,1.92,0,0,0-.25-.12l-.13-.05-.09,0-.16,0-.15-.05a.58.58,0,0,0-.14,0l-.05,0h0l-.08,0h-.06l0,0h-.06l-.14,0-.16,0-.27-.08-.11,0-.11,0-.1,0h0l-.23-.06h0l-.09,0-.09,0h0l-.54-.16-.12,0,0,0a.9.9,0,0,1-.16,0l-.1,0h0l-.15-.06-.08,0-.06,0-.06,0-.12-.08a.54.54,0,0,1-.12-.09L98.26,53a.6.6,0,0,1-.08-.08l-.05,0-.2-.22,0-.06-.06-.09,0-.06a1.27,1.27,0,0,1-.07-.12s0,0,0-.06a.17.17,0,0,0,0-.05s0,0,0,0l0,0s0-.05,0-.07a0,0,0,0,1,0,0v-.06s0,0,0,0a.31.31,0,0,0,0-.08s0-.06,0-.11a.08.08,0,0,1,0-.06,1.36,1.36,0,0,1,0-.21l0-.22s0-.06,0-.09a.3.3,0,0,0,0-.1l0,0s0,0,0,0a0,0,0,0,1,0,0l0,0,.09-.16s0,0,0,0l0,0,0,0,.1-.11.1-.12s0,0,.05,0l0,0a.6.6,0,0,0,.13-.09l.15-.11.08,0,.07,0,.08-.05,0,0,.11,0a.52.52,0,0,1,.13-.06l.1,0,.17-.06.19,0,.08,0h.12l.21,0h.91l.08,0H101l0,0h.36l0,0h.33l0,0h.06l0,0h0l.05,0h0l0,0h0l0,0,.12,0,.07,0,.08,0,0,0,.07,0h.08l.07,0h0l.07,0,0,0h0l.07,0s0,0,0,0a.56.56,0,0,0,0-.13c0-.05,0-.09,0-.14a.13.13,0,0,1,0-.06s0-.11,0-.17,0,0,0-.08l0,0h0a.19.19,0,0,1,.1,0h.16s.07,0,.1,0h.06c.09,0,.24,0,.29,0a.09.09,0,0,1,0,.06v.07a1.37,1.37,0,0,0,0,.19V50c0,.09,0,.17,0,.25v.06s0,.11,0,.17v.07a1.69,1.69,0,0,1,0,.23v.1s0,.09,0,.13a.76.76,0,0,1,0,.15v.09s0,0,0,.07v0s0,.09,0,.13,0,.09,0,.14a.87.87,0,0,1,0,.23.22.22,0,0,1,0,.08l-.06,0s0,0,0,0h-.52a.3.3,0,0,1-.1-.07.05.05,0,0,1,0,0l0-.14,0-.08,0-.08v0s0,0,0,0a.56.56,0,0,1,0-.12l0-.08,0,0a.08.08,0,0,0,0,0l0,0,0-.05a.43.43,0,0,1,0-.07s0,0,0,0-.06-.07-.09-.12l-.05,0,0,0,0,0,0,0-.1-.06h0l-.12-.07,0,0a.3.3,0,0,1-.08,0l0,0-.08,0h0l-.09-.05h0l0,0-.06,0h-.1l0,0-.07,0s0,0,0,0h-.08l0,0,0,0h-.21l0,0H101l-.06,0h-.41a.3.3,0,0,0-.16,0H100l0,0h0l-.08,0-.09,0h0s0,0,0,0h0l-.06,0-.14.08,0,0s0,0,0,0l-.08.06h0a.34.34,0,0,0-.06.06l0,0,0,0,0,0s0,0,0,0l0,0-.06.13a.57.57,0,0,0,0,.14v0a.49.49,0,0,0,0,.17v0s0,0,0,0a.43.43,0,0,0,0,.05.11.11,0,0,1,0,0,.61.61,0,0,0,0,.12s0,0,0,.05l0,0,0,.07s0,0,0,.06l.08.08,0,0,.15.11a1.26,1.26,0,0,0,.33.16l.1,0,.13,0,0,0a.17.17,0,0,1,.1,0h0l.24.08.11,0,.08,0,.08,0,.11,0,.11,0,.11,0,.17,0,.1,0h0l.13,0h.06l0,0h.07a.42.42,0,0,1,.12,0l.12,0H102l.06,0,.06,0,.23,0h0l.24.08.07,0,0,0,0,0h0l.07,0h0l.09,0h.06l.08,0,.12.06.14.06.29.14.06,0,0,0,.07,0,.19.13,0,0,.05,0,.15.15a1,1,0,0,1,.09.13.78.78,0,0,1,.09.24l0,.08v.06l0,.1,0,.12v.11c0,.05,0,.1,0,.15v.12a1.91,1.91,0,0,1,0,.24m-4.51-3.55s0-.09,0-.12l0,0a.28.28,0,0,1,.15-.08H101l.12,0h1l.06,0s0,0,0,0a.11.11,0,0,1,0,.06,1.75,1.75,0,0,1,0,.33v.18s0,0,0,0v.05s0,0,0,0a.19.19,0,0,1,0,.08,0,0,0,0,1,0,0h0a.49.49,0,0,1-.14,0l-.13,0-.06,0-.29-.07h-.29l-.1,0-.24-.07-.27-.08-.12,0a.76.76,0,0,0-.2-.06c-.06,0-.28,0-.28-.12a.08.08,0,0,1,0,0m-.07-.62a.4.4,0,0,0-.27.17.73.73,0,0,1,0,.09l-.1,0c-.1,0-.08-.17-.05-.24a.14.14,0,0,1,0-.06s0,0,0-.06l.07-.08s0,0,0,0l.1-.06h0a.41.41,0,0,1,.15-.07l.12,0,.12,0,.08,0h0l.07,0h.74l.26,0h.15l.08,0c.09,0,.22,0,.26.14a0,0,0,0,1,0,0s-.08,0-.1,0H101s0,0-.06,0h-.35a.21.21,0,0,0-.11,0H100m7.73,8.27v0a.47.47,0,0,1,0,.17l0,0,0,0-.1,0a.34.34,0,0,0-.1,0h-.31s0,0-.07,0h-.21l0,0h-.54s-.11,0-.14,0H106s-.08,0-.11,0a.42.42,0,0,0-.16,0,.11.11,0,0,0-.1,0s-.09,0-.11,0h-.28a.13.13,0,0,1-.07,0,.2.2,0,0,1,0-.08,1.13,1.13,0,0,1-.06-.32s0-.09,0-.14a.06.06,0,0,1,0,0v-.06l0-.08c0-.05.08-.07.13-.09h0l0,0h0s.07,0,.08-.06l0,0a.41.41,0,0,0,.11-.23s0-.08,0-.12a2.71,2.71,0,0,0,0-.29.08.08,0,0,0,0,0v-.21c0-.13,0-.27,0-.4a.28.28,0,0,1,0-.09v0s0-.08,0-.12a1.13,1.13,0,0,0,0-.18s0-.07,0-.11l0-.11a.38.38,0,0,0,0-.1,1.13,1.13,0,0,0,0-.18.77.77,0,0,0,0-.15,1.81,1.81,0,0,0,0-.23l0-.1s0-.07,0-.1,0,0,0,0l0-.09-.05-.07s-.06-.06-.06-.09,0,0,0,0a.66.66,0,0,0,0-.15s0,0,0-.08v-.12s0,0,0,0v-.09a.22.22,0,0,0,0-.08s0,0,0-.08v-.08s0-.05,0-.08,0,0,0,0a.54.54,0,0,1,0-.1.36.36,0,0,1,0-.1.07.07,0,0,1,0-.05l0-.09s0-.06,0-.08.06,0,.1,0h.08l.19,0,0,0h.18s0,0,.08,0l.11.05,0,0,.06,0,.09.08s0,0,0,0l0,0a1.88,1.88,0,0,1,.12.18.3.3,0,0,0,0,.08s0,0,0,.06l0,.05,0,.12a.09.09,0,0,0,0,0v0a.36.36,0,0,1,0,.1s0,0,0,0v.07a1.5,1.5,0,0,1,0,.22s0,.08,0,.13a0,0,0,0,0,0,0v.15s0,.09,0,.13a1.21,1.21,0,0,1,0,.19s0,.06,0,.1v0a1.48,1.48,0,0,0,0,.21.34.34,0,0,1,0,.1s0,0,0,.06a1.79,1.79,0,0,0,0,.24.15.15,0,0,1,0,.07s0,.09,0,.13,0,0,0,.06,0,0,0,0a.76.76,0,0,1,0,.15,0,0,0,0,1,0,0v0s0,0,0,.06v.06a.24.24,0,0,1,0,.08.49.49,0,0,1,0,.12.64.64,0,0,1,0,.07,1.46,1.46,0,0,0,.09.36.69.69,0,0,0,.23.3s0,0,0,0l.18.08h.35a.2.2,0,0,1,.16,0,.27.27,0,0,1,0,.15.07.07,0,0,1,0,0,.24.24,0,0,1,0,.09l0,.14v.13" style="fill:#191515"></path><path d="M107.42,128.14a37.1,37.1,0,0,1-2.1,4.12.34.34,0,0,1-.42.1c-.33-.18-.51-.54-.77-.81-.61-.52-.81-1.06-1.38-1.57-.73-1-1.5-1.84-2.15-2.86l.07-.19a9,9,0,0,1,3.69-1.76,7.76,7.76,0,0,1,2.72-.19,1.82,1.82,0,0,1,1.41.77,23.45,23.45,0,0,1-1.07,2.39" style="fill:#ba142d"></path></g></g></svg>