
<svg xmlns="http://www.w3.org/2000/svg" viewBox="0 0 932.46623 371.1048" height="371.1048" width="932.46625" xml:space="preserve" id="svg2" version="1.1"><defs id="defs6"><clipPath id="clipPath18" clipPathUnits="userSpaceOnUse"><path id="path16" d="M 0,595.28 H 841.89 V 0 H 0 Z"></path></clipPath><clipPath id="clipPath168" clipPathUnits="userSpaceOnUse"><path id="path166" d="M 0,595.28 H 841.89 V 0 H 0 Z"></path></clipPath></defs><g transform="matrix(1.3333333,0,0,-1.3333333,-94.969468,654.14958)" id="g10"><g id="g162"><g clip-path="url(#clipPath168)" id="g164"><g transform="translate(627.0303,458.3376)" id="g170"><path id="path172" style="fill:#e91b3b;fill-opacity:1;fill-rule:nonzero;stroke:none" d="m 0,0 c 21.68,18.3 27.064,32.274 27.064,32.274 h -582.867 c 0,0 -0.343,-6.808 27.596,-31.743 27.938,-24.935 60.624,-27.595 72.881,-27.595 h 318.366 c -42.025,-61.265 -102.917,-150.046 -104.44,-152.332 -2.33,-3.5 -13.707,-16.394 -6.835,-32.874 6.872,-16.479 33.562,-33.784 33.562,-33.784 l 150.164,218.99 C -61.093,-27.058 -21.671,-18.293 0,0"></path></g><g transform="translate(698.0898,490.5832)" id="g174"><path id="path176" style="fill:#e91b3b;fill-opacity:1;fill-rule:nonzero;stroke:none" d="M 0,0 C 0,0 -0.012,-0.018 -0.034,-0.05 L 0,0.029 c 0,0 -16.19,-24.315 -39.275,-38.646 -23.084,-14.332 -50.346,-21.551 -50.346,-21.551 l 48.343,-0.028 c -42.226,-61.581 -101.884,-148.596 -103.391,-150.859 -2.337,-3.511 -13.745,-16.448 -6.891,-32.953 6.856,-16.505 34.106,-33.008 34.106,-33.008 L 72.487,-0.057 Z"></path></g><g transform="translate(461.0439,416.4807)" id="g178"><path id="path180" style="fill:#e91b3b;fill-opacity:1;fill-rule:nonzero;stroke:none" d="m 0,0 h -288.587 c 0,0 1.468,-3.211 14.584,-15.168 13.116,-11.958 26.428,-14.585 30.705,-14.585 h 222.89 C -13.495,-19.673 -6.607,-9.632 0,0"></path></g><g transform="translate(429.4316,370.3928)" id="g182"><path id="path184" style="fill:#e91b3b;fill-opacity:1;fill-rule:nonzero;stroke:none" d="m 0,0 h -198.271 c 0,0 0.974,-5.102 13.928,-15.826 12.955,-10.723 21.973,-13.927 25.92,-13.927 H -20.404 C -13.903,-20.272 -7.011,-10.222 0,0"></path></g><g transform="translate(399.415,326.6218)" id="g186"><path id="path188" style="fill:#e91b3b;fill-opacity:1;fill-rule:nonzero;stroke:none" d="m 0,0 h -112.639 c 0,0 -0.094,-3.326 14.196,-15.557 14.291,-12.231 22.843,-14.196 26.643,-14.196 h 51.404 C -14.922,-21.765 -7.918,-11.548 0,0"></path></g></g></g></g></svg>
