
<svg viewBox="0 0 200 200" version="1.1" id="svg26" width="200" height="200" xmlns="http://www.w3.org/2000/svg">
  <defs id="defs30"></defs>
  
  <path d="M 100.003,0 C 44.862,0 0,44.862 0,100.002 0,155.143 44.862,200 100.003,200 155.14,200 200,155.143 200,100.002 200,44.862 155.14,0 100.003,0 Z m 0,196.612 c -53.359,0 -96.612,-43.256 -96.612,-96.61 0,-53.353 43.253,-96.612 96.612,-96.612 53.356,0 96.607,43.259 96.607,96.612 -0.001,53.354 -43.252,96.61 -96.607,96.61 z" fill="#ffffff" id="path2"></path>
  <path d="m 75.238,158.125 c 1.193,0.514 2.399,0.97 3.616,1.408 -0.639,-0.366 -1.225,-0.788 -1.908,-1.54 -0.6,0.127 -1.14,0.166 -1.708,0.132 z" fill="#ffffff" id="path4"></path>
  <path d="m 192.164,98.275 h -28.761 c -0.128,-4.391 -0.758,-8.761 -1.789,-13.054 -0.487,-0.73 -0.958,-1.228 -1.428,-1.566 l 0.428,-0.967 0.471,0.528 c -0.184,-0.672 -0.326,-1.354 -0.533,-2.021 -0.647,-1.363 -1.428,-2.306 -2.238,-3.183 l 0.252,-0.861 c 0.376,0.372 0.638,0.657 0.858,0.917 C 156.373,69.82 151.611,62.064 144.981,55.436 131.05,41.501 112.228,35.442 94.036,37.239 c 0.07,-0.006 0.14,-0.017 0.21,-0.023 0.644,0.449 1.544,1.178 1.544,1.178 l -0.736,0.11 c -0.207,-0.348 -1.64,-0.92 -2.126,-1.104 -0.769,0.09 -1.535,0.214 -2.302,0.332 1.34,0.748 2.266,1.544 2.266,1.544 l -0.995,0.09 c -1.03,-0.505 -1.986,-1.109 -3.011,-1.382 -1.213,0.221 -2.409,0.521 -3.609,0.813 0.255,0.071 0.468,0.202 0.812,0.364 0.795,0.018 2.98,1.093 2.98,1.093 l -1.682,0.536 c -0.713,-0.364 -1.493,-0.929 -2.616,-0.731 -0.365,-0.412 -1.324,-0.612 -1.822,-0.693 -1.018,0.288 -2.017,0.646 -3.023,0.988 0.377,0.08 0.806,0.188 1.216,0.513 1.223,0.024 3.411,0.975 3.599,1.285 l -1.693,0.597 c -0.843,-0.536 -2,-1.116 -3.175,-0.916 -0.537,-0.463 -1.581,-0.724 -1.896,-0.798 -1.03,0.388 -2.047,0.808 -3.06,1.252 0.578,0.02 1.386,-0.223 1.787,0.377 1.021,-0.052 2.798,0.638 3.769,1.513 l -1.805,0.462 c -0.82,-0.518 -2.18,-1.285 -3.441,-1.164 -0.205,-0.472 -1.837,-0.256 -2.456,-0.191 -6.2,3 -12.032,7.007 -17.177,12.151 C 43.682,67.342 37.577,82.822 37.157,98.425 L 7.827,98.394 v -0.001 c -0.009,0.537 -0.041,1.07 -0.041,1.61 0,-0.01 0.007,-0.008 0.008,-0.018 -0.003,0.157 -0.008,0.303 -0.008,0.469 0,0.417 0.025,0.825 0.032,1.241 H 37.15 c 0.222,9.038 2.417,18.014 6.478,26.306 1.779,1.749 4.183,2.779 5.39,3.16 l 0.433,2.026 c -1.417,-0.672 -2.695,-0.967 -4.567,-2.669 0.891,1.63 1.849,3.233 2.896,4.795 1.294,1.054 2.903,2.113 2.903,2.113 l 0.564,0.952 c -0.585,-0.208 -1.306,-0.606 -1.931,-0.98 1.892,2.584 3.937,5.091 6.273,7.427 4.936,4.934 10.5,8.838 16.416,11.799 l 0.144,-0.483 c 1.575,0.464 2.816,1.516 5.098,0.934 1.026,0.977 2.772,2.15 4.16,2.493 l -0.472,0.694 c 21.834,7.004 46.712,1.893 64.043,-15.441 11.982,-11.98 18.094,-27.575 18.444,-43.275 h 28.761 c 0.006,-0.416 0.032,-0.825 0.032,-1.241 0,-0.103 -0.007,-0.204 -0.008,-0.307 -0.007,-0.576 -0.031,-1.148 -0.043,-1.723 z M 157.519,79.629 c 1.652,1.669 2.041,2.072 2.78,3.581 l -0.436,0.9 c -0.726,-1.752 -1.5,-2.57 -2.652,-3.56 z m -5.274,8.583 c 1.424,0.988 2.662,2.885 3.396,4.383 l -0.697,1.044 c -0.739,-1.763 -2.503,-3.683 -3.667,-4.396 z m -13.818,13.078 c 0.989,0.676 2.13,1.791 3.834,4.285 l 1.311,-0.845 c 0.338,2.507 0.413,5.251 0.128,7.613 l -1.411,1.095 c 0.354,-1.476 0.096,-4.541 -0.068,-7.769 l -1.168,0.965 c -1.955,-2.911 -3.334,-4.286 -3.847,-4.435 z m 0.133,15.07 -1.824,1.167 c -0.128,-2.511 0.593,-7.368 0.593,-7.368 -1.59,0.592 -4.988,-3.332 -5.74,-3.899 l 1.667,-1.016 c 2.252,2.473 3.471,3.165 4.186,3.665 0.451,0.315 1.542,-0.81 1.472,-0.741 -0.328,1.301 -0.415,6.871 -0.354,8.192 z m -7.281,-1.798 c -0.879,-0.028 -5.178,-3.445 -6.491,-4.798 l 2.267,-1.237 c 0,0 2.75,3.26 3.576,3.968 0.833,0.708 1.764,0.932 2.498,0.674 l 0.071,0.125 c -0.118,1.978 -0.172,5.658 1.013,6.892 l -2.055,0.859 c -1.101,-2.209 -0.741,-3.702 -0.755,-6.577 z m 0.01,-51.733 4.56,4.263 V 94.25 h -8.227 l -5.035,-4.768 h 8.703 V 62.829 Z m -1.698,1.591 c 0,1.53 0,21.834 0,23.364 -1.139,0 -4.27,0 -5.416,0 0.003,-0.498 0.008,-1.002 0.008,-1.002 0,-8.799 -6.397,-13.841 -17.553,-13.841 0.046,0 -0.764,-0.001 -0.764,-0.001 L 104.97,72.934 V 91.79 c 0,2.983 2.747,4.968 4.619,6.014 -1.896,0.885 -4.619,2.646 -4.619,5.85 v 20.423 c 0,2.659 1.695,4.008 5.044,4.008 0,0 2.424,0 3.527,0 0,1.32 0,7.778 0,9.097 -1.567,0 -28.516,0 -30.084,0 0,-1.319 0,-7.777 0,-9.097 1.126,0 3.729,0 3.729,0 3.034,0 4.842,-1.568 4.842,-4.196 v -20.235 c 0,-3.237 -2.333,-4.945 -4.032,-5.818 1.685,-0.963 4.032,-2.808 4.032,-6.046 V 72.899 h -1.834 c -11.51,0 -16.639,4.442 -16.639,14.403 l 0.143,-0.473 c 0,0 -0.041,0.478 -0.085,0.955 -1.154,0 -5.999,0 -7.256,0 0,-1.53 0,-21.835 0,-23.364 1.639,0 61.601,0 63.234,0 z m -15.565,33.508 -2.129,-0.835 c -0.054,-0.021 -5.229,-2.083 -5.229,-5.303 0,0 0,-15.514 0,-17.141 5.814,0.017 10.075,1.461 12.719,4.103 -1.63,-1.233 -3.927,-2.076 -7.11,-2.348 l -0.818,-0.051 c 0,0 0,13.506 0,17.35 0,1.779 1.24,3.195 2.567,4.225 z M 70.732,44.854 c 0.582,0.072 0.51,0.236 1.016,0.413 1.01,-0.049 2.944,0.318 4.18,0.988 l -1.577,1.197 c -0.8,-0.499 -2.183,-0.935 -3.434,-0.829 -0.243,-0.538 -2.077,-0.574 -2.352,-0.59 z m -5.45,3.383 c 0,0 0.718,0.49 1.028,0.967 1.28,-0.335 3.806,-0.457 6.188,-0.039 l -1.584,1.405 c -2.109,-0.474 -4.268,0.111 -5.74,0.386 -0.439,-0.616 -0.682,-1.224 -1.401,-1.449 z m -4.496,4.67 c 0,0 0.643,0.434 1.082,1.178 1.279,-0.621 2.967,-1.144 7.076,-0.849 l -1.398,1.801 c -2.711,-0.368 -5.391,0.062 -6.609,0.666 -0.449,-0.605 -0.68,-1.421 -1.4,-1.644 z M 50.833,67.29 c 0,0 1.225,1.169 1.769,2.531 0.298,-0.992 2.593,-1.708 5.915,-1.708 l -1.129,2.075 c -2.732,-0.365 -4.565,0.767 -5.786,1.37 -0.442,-0.598 -0.59,-1.808 -1.505,-2.306 z m -5.184,11.828 c 0,0 1.523,1.857 1.961,2.601 0.318,-0.998 2.062,-1.39 6.05,-1.629 l -0.68,2.026 c -2.713,-0.362 -4.75,0.752 -5.96,1.375 -0.451,-0.623 -0.862,-1.829 -1.78,-2.336 z m -5.142,32.9 c 0,0 2.618,0.962 3.062,1.721 0.957,-0.567 2.298,-0.774 4.906,0.396 l 0.06,1.987 c -2.151,-1.151 -3.883,-1.211 -5.098,-0.587 -0.451,-0.613 -1.744,-1.267 -2.806,-1.518 z m 0.005,-6.614 c 0,0 2.749,2.352 3.157,3.111 0.151,-0.613 0.085,-1.044 4.86,-0.811 l -0.021,1.931 c -4.05,-0.854 -4.683,-0.364 -5.248,0.582 -0.413,-0.636 -1.813,-2.047 -2.708,-2.583 z m 0.456,11.949 c 0,0 2.288,1.036 2.718,1.78 0.308,-0.982 2.462,0.095 4.663,1.508 l 0.051,2 c -1.005,-0.552 -1.657,-1.015 -2.534,-1.421 -0.985,-0.436 -1.747,-0.782 -1.98,-0.156 -0.444,-0.621 -1.22,-1.183 -2.406,-1.491 z m 3.448,8.745 c -0.451,-0.672 -1.191,-1.218 -2.15,-1.611 l -0.279,-2.014 c 0,0 1.808,0.993 2.252,1.803 0.81,0 1.919,-0.107 4.198,1.798 l 0.164,1.892 c -2.231,-1.596 -3.145,-1.996 -4.185,-1.868 z m 4.542,-23.693 c -3.004,-0.126 -4.402,0.703 -4.886,1.287 -0.272,0.334 -0.403,0.703 -0.503,0.816 -0.446,-0.608 -1.923,-3.083 -2.724,-3.439 l 0.139,-2.029 c 0,0 2.288,2.281 2.821,3.696 0.075,-0.259 0.182,-0.721 0.457,-0.962 0.292,-0.341 1.405,-1.188 4.867,-1.229 z m 0.782,-6.934 c -2.729,-0.226 -4.724,0.758 -5.252,1.807 -0.467,-0.574 -1.128,-1.895 -2.732,-3.275 l 0.318,-2.105 c 0,0 2.409,2.498 2.886,3.239 0.426,-0.929 1.882,-1.462 5.119,-1.647 z m 1.513,-7.061 c -2.698,-0.385 -4.611,1.316 -5.833,1.939 -0.441,-0.628 -1.116,-2.182 -2.016,-3.021 l 0.426,-2.172 c 0,0 1.877,2.601 2.311,3.349 0.961,-1.177 1.59,-1.616 5.537,-1.911 z m 3.488,-11.933 c -2.721,-0.374 -4.219,0.636 -5.442,1.259 -0.441,-0.623 -0.862,-1.833 -1.767,-2.341 l 0.605,-2.037 c 0,0 1.344,1.519 1.96,2.737 0.31,-0.98 1.382,-1.326 5.514,-1.58 z M 59.834,64.992 C 57.131,64.6 55.556,65.795 54.336,66.426 53.885,65.81 53.476,64.6 52.823,64.105 l 0.738,-1.769 c 0,0 1.144,1.234 1.575,2.264 0.308,-0.997 2.531,-1.7 5.981,-1.7 z m -2.631,-4.05 c -0.436,-0.615 -0.349,-1.203 -1.257,-1.7 l 0.988,-1.557 c 0,0 0.774,0.757 1.2,1.503 0.311,-0.985 2.653,-1.359 6.907,-1.454 l -1.39,1.801 c -2.722,-0.378 -5.222,0.792 -6.448,1.407 z m 12.321,33.023 -4.781,-4.484 h 10.488 l 0.012,-2.078 c 0.01,-9.126 4.339,-12.807 14.952,-12.807 0,0 0.103,0 0.137,0 0,0.22 0,0.756 0,1.469 -9.912,0.988 -10.826,6.88 -10.826,16.224 l -0.01,1.675 h -9.972 z m 12.236,43.676 v 0.994 c -0.225,-0.1 -0.449,-0.202 -0.649,-0.297 z m 0.228,20.06 c -1.964,-0.731 -2.713,-1.442 -3.601,-2.703 -1.613,0.346 -3.744,0.52 -5.955,-0.623 l 0.436,-1.339 c 1.57,0.467 3.683,1.487 5.964,0.908 0.949,1.413 1.769,2.485 3.859,2.739 z m 1.421,-2.594 c -1.973,-0.736 -2.868,-2.026 -3.691,-3.382 -1.621,0.338 -3.84,0.169 -6.23,-0.65 l 0.658,-1.51 c 1.582,0.464 4.001,1.303 6.297,0.723 0.533,1.993 2.056,2.862 3.69,3.532 z m 2.052,-3.962 c -2.298,-1.347 -2.527,-2.322 -3.42,-3.957 l -0.124,0.226 c -2.454,0.275 -4.376,0.167 -6.581,-0.518 l 0.811,-1.433 c 1.577,0.461 4.35,0.969 6.632,0.382 l 0.243,-0.382 c 0.347,1.482 2.108,3.814 3.555,4.398 z m 2.38,-2.801 c -1.959,-0.741 -2.738,-2.595 -3.545,-4.384 l -0.117,0.168 c -1.939,0 -4.093,-0.088 -6.304,-1.246 l 0.903,-1.357 c 1.571,0.46 4.175,1.604 6.372,1.185 l 0.127,-0.182 c 0.349,1.484 2.237,3.947 3.678,4.524 z m 2.744,-3.398 c -0.48,-0.135 -0.868,-0.559 -1.205,-1.108 h -2.274 l -5.243,-4.958 h 33.378 v -12.384 l 1.224,1.14 c -0.593,-1.741 -0.383,-3.212 -0.401,-5.699 l -0.503,0.292 c -1.148,-0.128 -2.663,-1.166 -4.103,-2.432 0,3.475 0,6.182 0,6.182 0.006,0.141 0,0.276 -0.006,0.407 h -1.439 c -2.777,0 -3.346,-0.925 -3.346,-2.311 v -20.423 c 0,-3.463 5.096,-4.938 5.15,-4.952 l 2.346,-0.662 c 1.505,1.131 3.076,1.754 3.076,1.754 0,0 -5.781,1.601 -5.781,5.776 0,2.056 0,7.045 0,11.577 l 0.136,-0.057 c 1.109,1.504 3.503,3.71 5.718,4.075 l 0.55,-0.326 c -0.123,1.985 -0.169,5.652 1.016,6.894 l -1.591,0.667 1.995,1.857 v 13.58 h -27.61 z m 33.069,-26.734 -0.504,0.295 c -1.68,-0.195 -4.163,-2.331 -6.035,-4.285 l 2.067,-0.859 c 1.111,1.512 3.503,3.718 5.723,4.075 l 0.544,-0.32 c -0.118,1.976 -0.169,5.655 1.021,6.891 l -2.065,0.858 c -1.105,-2.231 -0.729,-3.72 -0.751,-6.655 z m 23.949,-8.91 -1.452,1.156 c 0.322,-1.469 0.339,-4.622 0.106,-7.428 l -0.785,0.832 c -0.726,-1.758 -3.147,-4.006 -4.326,-4.706 l 1.18,-1.046 c 1.311,0.906 3.038,2.874 3.883,4.344 l 1.024,-0.749 c 0.45,2.142 0.603,5.068 0.37,7.597 z m 1.201,-8.73 c -0.724,-1.762 -3.147,-4.009 -4.32,-4.706 l 1.175,-1.046 c 1.426,0.982 3.375,3.234 4.113,4.724 z m 2.785,5.527 -1.382,1.29 c 0.285,-5.684 0.003,-6.83 -0.362,-7.771 l 1.095,-1.09 c 0.459,2.144 0.69,3.308 0.649,7.571 z m -3.494,-13.757 1.114,-0.898 c 1.479,1 3.359,2.9 4.098,4.401 l -0.852,1.175 c -0.727,-1.767 -3.549,-4.137 -4.36,-4.678 z m 7.167,9.887 -1.277,1.682 c 0.354,-2.121 -0.046,-5.783 -0.688,-7.934 l 0.985,-1.286 c 0.443,2.142 1.195,5.137 0.98,7.538 z m 2.313,-2.835 c -0.16,-2.679 -0.693,-4.685 -2.083,-6.468 l 0.498,-0.852 c 0.692,-0.638 2.537,3.013 2.567,5.812 z m 2.272,-3.887 c -0.752,-4.355 -1.904,-5.195 -2.543,-5.749 l -0.38,0.622 c -0.739,-1.76 -1.952,-3.503 -3.116,-4.224 l 0.77,-1.028 c 1.418,0.985 2.318,2.598 3.06,4.088 l -0.204,0.332 0.27,-0.332 c 0.159,-0.923 2.088,0.636 2.724,4.775 z m 1.595,-3.712 c -0.595,-3.175 -1.58,-4.329 -2.45,-5.05 l 0.042,-0.118 -0.363,0.772 c -0.723,-2.024 -1.408,-2.788 -2.957,-4.17 l 0.572,-0.913 c 1.653,1.511 2.132,2.522 2.865,3.991 l 0.131,-0.359 c 0.305,-0.788 2.436,1.754 2.611,4.044 z" fill="#ffffff" id="path6"></path>
  <path d="m 134.449,26.878 c -0.875,0.82 -3.655,3.416 -4.158,3.888 0.603,0.285 2.945,1.39 3.519,1.662 0.074,-0.652 0.5,-4.36 0.639,-5.55 z" fill="#c0111f" id="path8"></path>
  <path d="M 37.157,98.425 C 37.577,82.822 43.682,67.342 55.59,55.434 60.735,50.29 66.567,46.283 72.767,43.283 72.671,43.293 72.597,43.3 72.558,43.3 l 2.231,-1.013 c 0.037,0.006 0.084,-0.002 0.124,0 1.013,-0.444 2.03,-0.864 3.06,-1.252 -0.022,-0.006 -0.069,-0.018 -0.084,-0.02 0.644,-0.242 1.288,-0.47 1.936,-0.688 0.031,0.006 0.067,0.019 0.098,0.026 1.006,-0.342 2.005,-0.699 3.023,-0.988 -0.012,-0.002 -0.03,-0.006 -0.04,-0.007 0.749,-0.213 1.493,-0.416 2.249,-0.602 0.044,0.007 0.078,0.03 0.119,0.041 1.2,-0.292 2.397,-0.593 3.609,-0.813 -0.01,-0.004 -0.02,-0.01 -0.03,-0.012 0.556,-0.1 1.11,-0.21 1.672,-0.298 0.036,0.019 0.063,0.038 0.099,0.059 0.766,-0.118 1.532,-0.242 2.302,-0.332 -0.019,-0.008 -0.059,-0.023 -0.074,-0.029 0.392,-0.046 0.788,-0.091 1.182,-0.131 18.192,-1.797 37.014,4.262 50.945,18.197 6.63,6.628 11.393,14.384 14.443,22.632 0.062,0.073 0.14,0.156 0.193,0.224 0.38,1.042 0.738,2.091 1.065,3.157 -0.041,-0.092 -0.087,-0.165 -0.13,-0.254 0.208,0.667 0.349,1.349 0.533,2.021 l 0.145,0.162 c 0.182,0.667 0.356,1.341 0.513,2.013 -0.044,-0.069 -0.085,-0.105 -0.128,-0.17 1.031,4.293 1.661,8.664 1.789,13.054 h 28.761 c 0.012,0.575 0.035,1.147 0.044,1.722 0,0.003 0.008,0.003 0.008,0.005 0,-50.85 -41.366,-92.219 -92.214,-92.219 -50.31,0 -91.309,40.502 -92.175,90.609 v 10e-4 z m 136.924,-29.181 2.262,6.961 h 7.325 l -5.93,4.306 2.265,6.961 -5.922,-4.304 -5.924,4.304 2.262,-6.961 -5.924,-4.306 h 7.324 z m -22.749,-21.821 0.149,-0.179 1.626,0.71 -0.226,0.311 c -0.672,0.928 -1.272,2.48 -0.302,4.575 0.867,1.59 1.949,2.152 2.703,2.342 0.8,0.202 1.621,0.084 2.259,-0.329 0.5,-0.316 0.882,-1.183 0.911,-2.037 0,0 -0.101,-1.892 -0.101,-2.272 0,-0.041 0,-0.064 0.003,-0.064 -0.003,-0.011 -1.103,-2.014 -1.103,-2.014 l 0.174,-0.164 c 0,0 0.893,-0.856 0.944,-0.823 0.005,-0.041 0.036,-0.369 0.036,-0.336 l 0.041,-0.652 c 0.087,-0.931 0.38,-1.803 0.823,-2.452 0.362,-0.528 0.959,-0.854 1.39,-1.034 2.78,-1.194 5.64,0.929 6.922,3.537 0.549,1.131 1.393,3.27 0.869,4.911 l -0.103,0.313 -1.547,-0.603 0.075,-0.269 c 0.31,-1.112 0.177,-2.064 -0.492,-3.509 -0.788,-1.705 -2.616,-1.751 -3.419,-1.395 -0.664,0.287 -1.02,1.181 -1.02,2.513 0,0.054 0.003,0.264 0.003,0.352 0,0.056 -0.003,0.105 -0.01,0.11 0.026,0.047 1.042,1.777 1.042,1.777 0,0 -0.898,0.913 -1.054,1.077 0.015,0.203 0.067,0.798 0.067,0.826 l -0.028,1.502 c -0.003,0.31 -0.131,1.293 -0.613,2.113 -0.243,0.43 -0.795,1.052 -1.431,1.385 -1.318,0.713 -2.726,0.867 -4.068,0.446 -1.734,-0.541 -3.263,-2.034 -4.42,-4.316 -1.315,-2.597 -1.028,-5.21 -0.1,-6.352 z M 122.71,34.11 c 0,0 1.493,-0.931 1.451,-0.9 0,0 4.037,-3.629 4.232,-3.807 -0.003,-0.238 -0.012,-2.062 -0.012,-2.062 l 0.261,-0.041 c 0,0 2.029,-0.313 2.037,-0.27 0.018,-0.013 5.383,-4.973 5.383,-4.973 l 0.154,-0.14 2.195,1.051 -0.013,0.205 c 0,0 -0.326,7.094 -0.397,7.099 0.008,0.005 1.544,1.959 1.544,1.959 l -0.213,0.193 c 0,0 -1.513,1.356 -1.562,1.316 -0.013,0.08 -0.749,5.432 -0.767,5.432 0,0.003 0.439,2.331 0.439,2.331 l -5.581,-2.616 c 0,0 1.303,-1.108 1.463,-1.241 0.022,-0.211 0.261,-2.349 0.302,-2.708 -0.356,-0.17 -4.786,-2.26 -5.137,-2.424 -0.254,0.253 -1.816,1.816 -1.962,1.962 -0.01,0.21 -0.056,1.921 -0.056,1.921 l -4.237,-1.988 z M 91.537,31.109 c 0,0 1.508,-1.426 1.516,-1.426 0,-0.003 3.949,-5.219 4.252,-5.622 -0.27,-0.261 -1.144,-1.105 -1.144,-1.105 0,0 0.6,-0.972 0.747,-1.218 -0.524,-0.792 -3.573,-5.434 -3.573,-5.439 l -1.749,-2 5.488,-0.016 0.031,0.275 c 0,0 0.118,1.059 0.118,1.257 0,0.02 0,0.031 -0.006,0.031 0.011,0.015 2.445,3.747 2.852,4.37 0.436,-0.579 3.029,-4.021 3.216,-4.268 -0.107,-0.256 -0.528,-1.236 -0.528,-1.236 l -0.182,-0.428 5.291,0.016 -1.703,1.967 c 0,0 -3.688,4.942 -3.966,5.316 0.231,0.259 0.99,1.11 0.99,1.11 0,0 -0.592,0.937 -0.746,1.182 0.549,0.816 3.824,5.673 3.824,5.683 l 2.144,2.103 -5.881,0.008 -0.031,-0.275 c 0,0 -0.121,-1.054 -0.121,-1.249 0,-0.018 0,-0.028 0.003,-0.03 -0.01,-0.016 -2.662,-3.965 -3.07,-4.573 -0.441,0.569 -3.293,4.257 -3.452,4.459 0.051,0.228 0.364,1.59 0.364,1.59 l -5.257,0.059 z m -24.601,-10.594 0.272,-0.146 1.736,3.36 -0.492,0.01 c 0,0 -2.323,0.046 -2.326,0.017 -0.01,0.004 -3.832,1.986 -4.314,2.237 0.238,0.451 1.869,3.598 2.103,4.047 0.649,-0.336 2.875,-1.495 2.88,-1.483 0.006,-0.002 1.417,-1.508 1.417,-1.508 l 1.574,3.161 -0.425,0.058 c 0,0 -1.518,0.2 -1.518,0.182 -0.01,0.002 -2.462,1.287 -2.913,1.523 0.236,0.464 2.339,4.575 2.585,5.053 0.712,-0.377 4.106,-2.172 4.123,-2.149 0,-0.006 1.77,-2.38 1.77,-2.38 l 1.611,3.232 -10.648,5.591 0.005,-0.513 c 0,0 0.011,-1.508 0.042,-1.512 -0.008,-0.014 -2.262,-4.577 -2.375,-4.808 -0.228,-0.067 -2.172,-0.628 -2.172,-0.628 0,0 0.7,-1.824 0.787,-2.047 -0.313,-0.608 -2.334,-4.516 -2.334,-4.599 l -1.893,-1.177 z m -27.701,19.366 0.187,-0.231 2.941,2.301 -0.466,0.208 c 0,0 -2.165,0.969 -2.18,0.944 -0.005,0.01 -1.365,1.654 -1.673,2.031 0.395,0.334 3.201,2.695 3.381,2.845 0.22,-0.021 2.036,-0.211 2.036,-0.211 l 0.051,0.281 c 0,0 0.27,1.504 0.27,1.774 0,0.023 -0.003,0.036 -0.008,0.036 0.066,0.056 4.103,3.462 4.103,3.516 0.008,0.003 2.203,0.341 2.203,0.341 l -3.813,4.563 -0.205,-0.441 c 0,0 -0.677,-1.462 -0.677,-1.524 0,0 -3.934,-3.311 -4.109,-3.457 -0.213,0.011 -2.072,0.095 -2.072,0.095 0,0 -0.21,-1.849 -0.239,-2.067 -0.167,-0.138 -2.988,-2.459 -3.39,-2.791 -0.439,0.526 -1.737,2.068 -1.755,2.055 -0.003,0.008 -0.687,2.729 -0.687,2.729 l -2.835,-2.334 z m -16.184,36.323 2.26,-6.961 2.265,6.961 h 7.319 l -5.919,4.301 2.262,6.966 -5.927,-4.304 -5.917,4.304 2.26,-6.966 -5.922,-4.301 z" fill="#c0111f" id="path10"></path>
  <path d="m 41.697,152.73 c 0.313,-0.546 1.872,-3.252 2.442,-4.244 -1.082,0.387 -4.067,1.451 -4.698,1.674 0.425,0.485 1.85,2.109 2.256,2.57 z m -8.489,-29.571 c 0.092,-0.239 0.138,-0.498 0.138,-0.775 0,-0.341 -0.069,-0.71 -0.212,-1.102 0,0 -0.311,-0.867 -0.449,-1.241 -0.483,0.164 -4.381,1.475 -4.881,1.644 0.174,0.472 0.534,1.437 0.534,1.437 0.208,0.559 0.582,0.997 1.085,1.267 h 0.003 c 0.659,0.359 1.505,0.407 2.306,0.123 0.732,-0.278 1.245,-0.742 1.476,-1.353 z m 121.874,23.134 c -0.564,0.077 -1.103,0.408 -1.59,0.985 0,0 -0.605,0.7 -0.857,0.997 0.372,0.339 3.416,3.101 3.819,3.468 0.326,-0.39 0.982,-1.172 0.982,-1.175 0.377,-0.442 0.573,-0.964 0.573,-1.521 0,-0.015 0,-0.033 0,-0.049 -0.013,-0.752 -0.388,-1.516 -1.037,-2.075 -0.592,-0.51 -1.244,-0.728 -1.89,-0.63 z" fill="#003278" id="path12"></path>
  <path d="m 100.003,3.39 c -53.359,0 -96.612,43.259 -96.612,96.612 0,53.354 43.253,96.61 96.612,96.61 53.356,0 96.607,-43.256 96.607,-96.61 C 196.609,46.649 153.358,3.39 100.003,3.39 Z m -76.69,128.792 c -0.039,0.057 -1.442,2.2 -1.442,2.2 l -1.585,-4.514 c 0,0 5.432,-5.993 5.663,-6.251 -0.077,-0.228 -0.326,-0.923 -0.367,-1.044 -1.1,0.408 -5.07,1.885 -5.091,1.867 -0.005,0.005 -1.564,1.641 -1.564,1.641 l -1.996,-5.568 0.462,0.028 c 0,0 1.605,0.09 1.611,0.108 0.01,-0.002 4.724,-1.723 4.945,-1.806 0.098,-0.218 0.977,-2.162 0.977,-2.162 l 0.279,0.115 c 0,0 1.775,0.744 1.775,0.819 0.03,-0.013 2.975,-1.072 2.975,-1.072 0,0 1.469,-0.531 1.493,-0.518 0.008,-0.008 1.231,-1.184 1.231,-1.184 l 0.341,-0.329 2.216,6.035 c 0.787,2.144 0.9,4.353 0.3,5.909 -0.436,1.13 -1.195,1.903 -2.296,2.31 -1.652,0.595 -3.603,-0.141 -5.001,-1.749 -0.33,0.351 -4.833,5.067 -4.926,5.165 z m 26.35,14.213 c 0,0 -2.98,6.137 -3.032,6.127 0.003,0.007 0.354,2.377 0.354,2.377 l -0.231,0.087 c 0,0 -1.718,0.674 -1.739,0.62 -0.016,0.021 -1.783,2.96 -1.783,2.96 0,0 -1.121,1.872 -1.126,1.823 -0.002,0.01 -0.564,2.552 -0.564,2.552 l -4.35,-4.973 c 0,0 1.759,-0.533 1.964,-0.595 0.09,-0.164 1.085,-1.905 1.252,-2.198 -0.239,-0.274 -3.303,-3.755 -3.55,-4.034 -0.308,0.123 -2.221,0.883 -2.406,0.957 -0.086,0.192 -0.866,1.844 -0.866,1.844 l -3.339,-3.834 c 0,0 0.774,-0.131 0.779,-0.131 0.985,-0.149 1.437,-0.213 1.683,-0.223 -0.005,-0.003 -0.041,-0.018 -0.041,-0.018 0,0 5.222,-1.754 5.465,-1.837 0.098,-0.202 0.875,-1.849 0.875,-1.849 l 0.246,0.059 c 0,0 1.952,0.48 1.955,0.523 0.02,-0.006 6.55,-2.287 6.55,-2.287 l 0.283,-0.098 1.708,1.965 z m 28.812,19.685 c 0,0 -1.275,1.005 -1.305,0.997 -0.008,0.012 -0.816,1.674 -0.816,1.674 0,0 -1.231,2.524 -1.3,2.524 0.005,0.023 0.505,2.064 0.505,2.064 l -0.228,0.108 c 0,0 -1.644,0.759 -1.677,0.706 -0.013,0.03 -3.252,6.658 -3.252,6.658 l -2,-1.011 c 0,0 -2.128,-12.316 -2.41,-13.942 -1.101,2.213 -4.145,8.333 -4.186,8.333 0.005,0.006 0.297,2.46 0.297,2.46 l -4.863,-2.414 0.405,-0.298 c 0,0 1.336,-0.979 1.357,-0.954 0.01,-0.016 0.874,-1.762 0.874,-1.762 0,0 1.487,-3.006 1.555,-2.995 -0.005,-0.018 -0.6,-2.252 -0.6,-2.252 0,0 1.837,-0.702 2.052,-0.784 0.095,-0.201 0.81,-1.66 0.81,-1.66 0,0 1.139,-2.326 1.165,-2.285 0,-0.01 -0.131,-1.998 -0.131,-1.998 l -0.036,-0.526 4.268,2.088 c 0,0 1.823,10.051 2.111,11.628 0.428,-0.878 1.066,-2.183 1.066,-2.183 0,0 2.19,-4.47 2.226,-4.444 0,-0.005 -0.21,-2.413 -0.21,-2.413 l 4.701,2.383 z m -3.237,-7.955 c 0.569,0.034 1.109,-0.005 1.708,-0.132 0.684,0.753 1.27,1.175 1.908,1.54 -1.217,-0.438 -2.423,-0.894 -3.616,-1.408 z m 34.228,19.675 c 0,0 -0.818,1.457 -0.859,1.457 0,0.026 -0.028,6.037 -0.028,6.037 l -0.656,0.328 c -1.126,0.56 -2.088,1.04 -5.388,1.008 -4.701,-0.041 -8.825,-3.29 -9.556,-7.574 l -1.357,-1.784 0.18,-0.19 c 0,0 1.22,-1.269 1.234,-1.241 0.008,-0.016 0.216,-0.785 0.22,-0.804 1.301,-3.795 5.196,-6.418 9.477,-6.378 2.226,0.02 3.473,0.362 4.924,1.347 l 0.202,0.139 -0.097,3.216 -0.521,-0.646 c 0,0 -0.254,-0.315 -0.251,-0.31 -0.714,-0.854 -2.221,-1.347 -4.248,-1.39 -2.811,-0.067 -4.467,2.19 -5.078,4.291 0,0 -0.077,0.459 -0.087,0.52 0.164,0.197 1.374,1.634 1.374,1.634 l -0.2,0.197 c 0,0 -1.308,1.305 -1.334,1.323 0.416,2.626 2.165,5.289 5.137,5.314 1.21,0.01 1.605,-0.31 1.95,-0.415 l 0.01,-2.988 c 0,0 0.008,-1.531 0.038,-1.531 -0.008,-0.02 -1.067,-2.06 -1.067,-2.06 l 6.237,0.045 z m 21.482,2.89 0.041,-0.51 c 0,0 0.133,-1.665 0.159,-1.67 -0.005,-0.015 -1.872,-4.594 -1.962,-4.817 -0.223,-0.082 -2.162,-0.795 -2.162,-0.795 0,0 0.852,-1.819 0.949,-2.034 -0.154,-0.369 -1.937,-4.527 -1.937,-4.606 l -1.929,-1.41 10.967,-4.765 0.415,-0.179 1.475,3.493 c 0,0 -2.878,-0.156 -3.041,-0.169 -0.134,0.062 -3.719,1.605 -4.145,1.787 0.2,0.469 1.585,3.681 1.785,4.153 0.016,-0.005 0.052,-0.021 0.052,-0.021 0,0 2.708,-1.175 2.713,-1.165 0.003,0 1.632,-1.51 1.632,-1.51 l 1.493,3.598 -0.431,0.023 c 0,0 -1.697,0.098 -1.703,0.085 -0.005,0.003 -2.344,1.01 -2.803,1.207 0.205,0.498 2.019,4.827 2.142,5.122 0.395,-0.175 1.406,-0.616 1.406,-0.616 0,0 2.6,-1.141 2.61,-1.113 0.011,-0.008 2.057,-2.37 2.057,-2.37 l 1.444,3.393 z m 36.3,-26.393 c 0,0 -7.863,-1.81 -8.202,-1.888 -0.143,0.164 -0.579,0.657 -0.731,0.834 0.895,0.757 4.137,3.511 4.137,3.536 0.003,0 2.178,0.562 2.178,0.562 l -3.86,4.475 -0.205,-0.418 c 0,0 -0.685,-1.405 -0.685,-1.457 0,0 -3.814,-3.278 -4.006,-3.442 -0.228,0.021 -2.362,0.208 -2.362,0.208 l -0.033,-0.298 c 0,0 -0.167,-1.443 -0.167,-1.849 0,-0.064 0.005,-0.1 0.015,-0.1 -0.036,-0.033 -3.524,-3.075 -3.524,-3.123 v -0.003 c -0.01,0 -2.147,-0.633 -2.147,-0.633 l 4.16,-4.902 c 1.474,-1.738 3.339,-2.924 4.988,-3.165 1.195,-0.177 2.241,0.11 3.133,0.877 0.887,0.767 1.352,1.939 1.352,3.234 0,0.644 -0.178,1.324 -0.418,1.996 0.508,0.13 6.866,1.759 6.912,1.77 0.038,0.002 2.608,0.184 2.608,0.184 z m 14.825,-26.378 c -0.954,3.008 -3.193,4.536 -4.475,4.662 l -0.32,0.031 -0.61,-1.557 0.035,-0.391 0.38,-0.06 c 1.084,-0.177 2.533,-0.826 3.275,-2.894 0.351,-1.224 0.3,-2.34 -0.154,-3.225 -0.365,-0.71 -0.972,-1.239 -1.855,-1.49 -0.523,-0.126 -1.341,0.197 -1.924,0.748 0,0 -1.518,1.713 -1.544,1.706 0,0.008 -0.636,2.257 -0.636,2.257 l -0.236,-0.002 c 0,0 -1.293,-0.021 -1.308,-0.077 -0.026,0.021 -0.223,0.182 -0.21,0.169 0,0 -0.466,0.428 -0.477,0.439 -0.723,0.597 -1.554,1.018 -2.347,1.18 -0.648,0.125 -1.32,-0.082 -1.771,-0.252 -2.87,-1.131 -3.422,-4.717 -2.488,-7.517 0.693,-2.08 1.713,-3.563 2.878,-4.17 l 0.405,-0.213 0.67,1.51 -0.013,0.331 -0.241,0.136 c -0.951,0.533 -1.498,1.274 -2.016,2.721 -0.631,1.746 0.68,2.929 1.449,3.229 0.366,0.11 1.156,0.107 2.349,-1.155 0,0 0.162,-0.176 0.19,-0.179 0.021,-0.087 0.52,-2.072 0.52,-2.072 0,0 1.324,-0.016 1.544,-0.021 0.123,-0.149 0.464,-0.562 0.492,-0.588 0,0 1.051,-1.033 1.062,-1.043 0.323,-0.298 1.097,-0.859 1.97,-1.098 l 0.002,-0.002 c 0.523,-0.131 1.354,-0.178 2.045,0.036 1.559,0.464 2.767,1.5 3.4,2.921 0.705,1.588 0.692,3.64 -0.041,5.93 z m 10.111,-26.374 h -28.761 c -0.35,15.7 -6.462,31.295 -18.444,43.275 -17.331,17.333 -42.208,22.445 -64.043,15.441 l 0.472,-0.694 c -1.388,-0.343 -3.134,-1.516 -4.16,-2.493 -2.283,0.582 -3.524,-0.47 -5.098,-0.934 l -0.144,0.483 c -5.916,-2.961 -11.48,-6.864 -16.416,-11.799 -2.336,-2.337 -4.382,-4.844 -6.273,-7.427 0.626,0.374 1.347,0.772 1.931,0.98 l -0.564,-0.952 c 0,0 -1.608,-1.059 -2.903,-2.113 -1.047,-1.562 -2.005,-3.165 -2.896,-4.795 1.872,1.702 3.151,1.997 4.567,2.669 l -0.433,-2.026 c -1.207,-0.38 -3.611,-1.411 -5.39,-3.16 -4.061,-8.292 -6.256,-17.268 -6.478,-26.306 H 7.818 c -0.006,-0.416 -0.032,-0.825 -0.032,-1.241 0,-0.166 0.006,-0.313 0.008,-0.469 -0.002,0.01 -0.008,0.008 -0.008,0.018 0,-0.54 0.032,-1.072 0.041,-1.61 0.866,-50.107 41.865,-90.608 92.176,-90.608 50.847,0 92.214,41.369 92.214,92.219 0,-0.003 -0.008,-0.003 -0.008,-0.005 0.001,0.103 0.008,0.204 0.008,0.307 -0.001,0.415 -0.026,0.825 -0.033,1.24 z" fill="#003278" id="path14"></path>
  <path d="m 33.241,128.768 c 1.101,-0.407 1.86,-1.18 2.296,-2.31 0.6,-1.557 0.487,-3.765 -0.3,-5.909 l -2.216,-6.035 -0.341,0.329 c 0,0 -1.223,1.177 -1.231,1.184 -0.023,-0.012 -1.493,0.518 -1.493,0.518 0,0 -2.945,1.059 -2.975,1.072 0,-0.075 -1.775,-0.819 -1.775,-0.819 l -0.279,-0.115 c 0,0 -0.879,1.944 -0.977,2.162 -0.221,0.083 -4.935,1.804 -4.945,1.806 -0.006,-0.018 -1.611,-0.108 -1.611,-0.108 l -0.462,-0.028 1.996,5.568 c 0,0 1.559,-1.636 1.564,-1.641 0.021,0.018 3.99,-1.46 5.091,-1.867 0.041,0.121 0.29,0.816 0.367,1.044 -0.231,0.257 -5.663,6.251 -5.663,6.251 l 1.585,4.514 c 0,0 1.403,-2.144 1.442,-2.2 0.092,-0.098 4.596,-4.814 4.927,-5.163 1.397,1.606 3.348,2.342 5,1.747 z m -3.816,-4.38 h -0.003 c -0.503,-0.27 -0.877,-0.708 -1.085,-1.267 0,0 -0.359,-0.965 -0.534,-1.437 0.5,-0.169 4.398,-1.479 4.881,-1.644 0.138,0.374 0.449,1.241 0.449,1.241 0.143,0.392 0.212,0.762 0.212,1.102 0,0.277 -0.046,0.536 -0.138,0.775 -0.231,0.61 -0.744,1.074 -1.477,1.351 -0.8,0.286 -1.646,0.238 -2.305,-0.121 z m 18.334,19.958 c 0,0 -6.53,2.282 -6.55,2.287 -0.003,-0.044 -1.955,-0.523 -1.955,-0.523 l -0.246,-0.059 c 0,0 -0.777,1.647 -0.875,1.849 -0.244,0.082 -5.465,1.837 -5.465,1.837 0,0 0.036,0.015 0.041,0.018 -0.246,0.01 -0.698,0.074 -1.683,0.223 -0.005,0 -0.779,0.131 -0.779,0.131 l 3.339,3.834 c 0,0 0.78,-1.652 0.866,-1.844 0.185,-0.074 2.098,-0.834 2.406,-0.957 0.247,0.279 3.311,3.76 3.55,4.034 -0.167,0.293 -1.162,2.034 -1.252,2.198 -0.205,0.062 -1.964,0.595 -1.964,0.595 l 4.35,4.973 c 0,0 0.562,-2.542 0.564,-2.552 0.006,0.049 1.126,-1.823 1.126,-1.823 0,0 1.767,-2.939 1.783,-2.96 0.02,0.054 1.739,-0.62 1.739,-0.62 l 0.231,-0.087 c 0,0 -0.351,-2.37 -0.354,-2.377 0.052,0.01 3.032,-6.127 3.032,-6.127 l 0.088,-0.182 -1.708,-1.965 z m -6.062,8.384 c -0.405,-0.461 -1.831,-2.085 -2.257,-2.57 0.631,-0.222 3.616,-1.287 4.698,-1.674 -0.569,0.992 -2.129,3.698 -2.441,4.244 z m 32.664,13.082 c -0.036,-0.026 -2.226,4.444 -2.226,4.444 0,0 -0.638,1.306 -1.066,2.183 -0.288,-1.578 -2.111,-11.628 -2.111,-11.628 l -4.268,-2.088 0.036,0.526 c 0,0 0.131,1.988 0.131,1.998 -0.026,-0.041 -1.165,2.285 -1.165,2.285 0,0 -0.715,1.459 -0.81,1.66 -0.216,0.082 -2.052,0.784 -2.052,0.784 0,0 0.595,2.235 0.6,2.252 -0.067,-0.011 -1.555,2.995 -1.555,2.995 0,0 -0.864,1.746 -0.874,1.762 -0.021,-0.026 -1.357,0.954 -1.357,0.954 l -0.405,0.298 4.863,2.414 c 0,0 -0.292,-2.454 -0.297,-2.46 0.041,0 3.085,-6.12 4.186,-8.333 0.282,1.626 2.41,13.942 2.41,13.942 l 2,1.011 c 0,0 3.239,-6.628 3.252,-6.658 0.033,0.054 1.677,-0.706 1.677,-0.706 l 0.228,-0.108 c 0,0 -0.5,-2.041 -0.505,-2.064 0.069,0 1.3,-2.524 1.3,-2.524 0,0 0.808,-1.662 0.816,-1.674 0.031,0.007 1.305,-0.997 1.305,-0.997 l 0.377,-0.298 -4.701,-2.383 c 10e-4,0 0.211,2.409 0.211,2.413 z m 30.191,13.548 c -0.031,0 -0.038,1.531 -0.038,1.531 l -0.01,2.988 c -0.344,0.105 -0.739,0.425 -1.95,0.415 -2.972,-0.025 -4.722,-2.687 -5.137,-5.314 0.026,-0.018 1.334,-1.323 1.334,-1.323 l 0.2,-0.197 c 0,0 -1.21,-1.437 -1.374,-1.634 0.01,-0.062 0.087,-0.52 0.087,-0.52 0.611,-2.101 2.267,-4.358 5.078,-4.291 2.026,0.044 3.534,0.536 4.248,1.39 -0.003,-0.006 0.251,0.31 0.251,0.31 l 0.521,0.646 0.097,-3.216 -0.202,-0.139 c -1.451,-0.985 -2.698,-1.326 -4.924,-1.347 -4.281,-0.041 -8.176,2.582 -9.477,6.378 -0.005,0.018 -0.213,0.788 -0.22,0.804 -0.013,-0.028 -1.234,1.241 -1.234,1.241 l -0.18,0.19 1.357,1.784 c 0.731,4.283 4.855,7.533 9.556,7.574 3.301,0.032 4.262,-0.448 5.388,-1.008 l 0.656,-0.328 c 0,0 0.028,-6.012 0.028,-6.037 0.041,0 0.859,-1.457 0.859,-1.457 l 0.256,-0.454 -6.237,-0.045 c 0.001,-10e-4 1.06,2.039 1.067,2.059 z m 34.121,-4.581 c -0.01,-0.028 -2.61,1.113 -2.61,1.113 0,0 -1.011,0.441 -1.406,0.616 -0.123,-0.295 -1.937,-4.624 -2.142,-5.122 0.46,-0.198 2.798,-1.205 2.803,-1.207 0.005,0.012 1.703,-0.085 1.703,-0.085 l 0.431,-0.023 -1.493,-3.598 c 0,0 -1.629,1.51 -1.632,1.51 -0.005,-0.01 -2.713,1.165 -2.713,1.165 0,0 -0.036,0.015 -0.052,0.021 -0.2,-0.472 -1.584,-3.683 -1.785,-4.153 0.426,-0.182 4.011,-1.726 4.145,-1.787 0.164,0.013 3.041,0.169 3.041,0.169 l -1.475,-3.493 -0.415,0.179 -10.967,4.765 1.929,1.41 c 0,0.08 1.783,4.237 1.937,4.606 -0.098,0.216 -0.949,2.034 -0.949,2.034 0,0 1.94,0.713 2.162,0.795 0.09,0.223 1.957,4.802 1.962,4.817 -0.026,0.004 -0.159,1.67 -0.159,1.67 l -0.041,0.51 11.225,-4.888 -1.444,-3.393 c 0.002,-0.001 -2.045,2.361 -2.055,2.369 z m 22.2,-26.037 c 0.241,-0.672 0.418,-1.352 0.418,-1.996 0,-1.295 -0.465,-2.467 -1.352,-3.234 -0.893,-0.767 -1.939,-1.054 -3.133,-0.877 -1.65,0.241 -3.514,1.427 -4.988,3.165 l -4.16,4.902 c 0,0 2.136,0.633 2.147,0.633 v 0.003 c 0,0.048 3.488,3.09 3.524,3.123 -0.01,0 -0.015,0.036 -0.015,0.1 0,0.406 0.167,1.849 0.167,1.849 l 0.033,0.298 c 0,0 2.134,-0.187 2.362,-0.208 0.192,0.164 4.006,3.442 4.006,3.442 0,0.052 0.685,1.457 0.685,1.457 l 0.205,0.418 3.86,-4.475 c 0,0 -2.175,-0.562 -2.178,-0.562 0,-0.026 -3.242,-2.78 -4.137,-3.536 0.151,-0.177 0.587,-0.67 0.731,-0.834 0.339,0.077 8.202,1.888 8.202,1.888 l 3.145,-3.601 c 0,0 -2.57,-0.182 -2.608,-0.184 -0.048,-0.012 -6.406,-1.64 -6.914,-1.771 z m -2.864,0.305 c 0,0.557 -0.196,1.079 -0.573,1.521 0,0.003 -0.656,0.785 -0.982,1.175 -0.403,-0.367 -3.447,-3.129 -3.819,-3.468 0.251,-0.297 0.857,-0.997 0.857,-0.997 0.487,-0.577 1.026,-0.908 1.59,-0.985 0.647,-0.098 1.298,0.121 1.89,0.631 0.649,0.559 1.024,1.323 1.037,2.075 0,0.015 0,0.033 0,0.048 z m 20.704,-29.979 c -0.69,-0.213 -1.521,-0.167 -2.045,-0.036 l -0.002,0.002 c -0.872,0.239 -1.647,0.8 -1.97,1.098 -0.011,0.01 -1.062,1.043 -1.062,1.043 -0.028,0.026 -0.369,0.439 -0.492,0.588 -0.221,0.005 -1.544,0.021 -1.544,0.021 0,0 -0.5,1.985 -0.52,2.072 -0.028,0.003 -0.19,0.179 -0.19,0.179 -1.193,1.262 -1.983,1.265 -2.349,1.155 -0.769,-0.3 -2.08,-1.483 -1.449,-3.229 0.518,-1.446 1.065,-2.188 2.016,-2.721 l 0.241,-0.136 0.013,-0.331 -0.67,-1.51 -0.405,0.213 c -1.165,0.608 -2.185,2.091 -2.878,4.17 -0.934,2.801 -0.382,6.386 2.488,7.517 0.451,0.169 1.123,0.377 1.771,0.252 0.793,-0.162 1.623,-0.583 2.347,-1.18 0.011,-0.011 0.477,-0.439 0.477,-0.439 -0.013,0.013 0.185,-0.148 0.21,-0.169 0.015,0.056 1.308,0.077 1.308,0.077 l 0.236,0.002 c 0,0 0.636,-2.249 0.636,-2.257 0.026,0.008 1.544,-1.706 1.544,-1.706 0.582,-0.551 1.401,-0.874 1.924,-0.748 0.882,0.251 1.49,0.78 1.855,1.49 0.453,0.885 0.505,2.001 0.154,3.225 -0.742,2.068 -2.191,2.718 -3.275,2.894 l -0.38,0.06 -0.035,0.391 0.61,1.557 0.32,-0.031 c 1.282,-0.126 3.522,-1.654 4.475,-4.662 0.733,-2.29 0.746,-4.342 0.041,-5.93 -0.633,-1.42 -1.84,-2.456 -3.4,-2.921 z M 33.82,50.147 c 0.018,0.013 1.316,-1.528 1.755,-2.055 0.402,0.332 3.223,2.652 3.39,2.791 0.028,0.218 0.239,2.067 0.239,2.067 0,0 1.859,-0.084 2.072,-0.095 0.174,0.147 4.109,3.457 4.109,3.457 0,0.062 0.677,1.524 0.677,1.524 l 0.205,0.441 3.813,-4.563 c 0,0 -2.196,-0.338 -2.203,-0.341 0,-0.054 -4.037,-3.46 -4.103,-3.516 0.005,0 0.008,-0.013 0.008,-0.036 0,-0.27 -0.27,-1.774 -0.27,-1.774 l -0.051,-0.281 c 0,0 -1.815,0.19 -2.036,0.211 -0.18,-0.149 -2.985,-2.511 -3.381,-2.845 0.308,-0.377 1.667,-2.021 1.673,-2.031 0.015,0.026 2.18,-0.944 2.18,-0.944 l 0.466,-0.208 -2.941,-2.301 -0.187,0.231 -8.936,10.661 2.835,2.334 c 0,0.002 0.684,-2.719 0.686,-2.727 z M 60.655,31.812 c -0.087,0.223 -0.787,2.047 -0.787,2.047 0,0 1.944,0.561 2.172,0.628 0.113,0.231 2.368,4.794 2.375,4.808 -0.031,0.003 -0.042,1.512 -0.042,1.512 l -0.005,0.513 10.648,-5.591 -1.611,-3.232 c 0,0 -1.77,2.375 -1.77,2.38 -0.018,-0.023 -3.411,1.772 -4.123,2.149 -0.246,-0.478 -2.349,-4.588 -2.585,-5.053 0.451,-0.236 2.903,-1.521 2.913,-1.523 0,0.018 1.518,-0.182 1.518,-0.182 l 0.425,-0.058 -1.574,-3.161 c 0,0 -1.411,1.506 -1.417,1.508 -0.005,-0.013 -2.231,1.147 -2.88,1.483 -0.234,-0.449 -1.865,-3.596 -2.103,-4.047 0.482,-0.251 4.304,-2.234 4.314,-2.237 0.003,0.03 2.326,-0.017 2.326,-0.017 l 0.492,-0.01 -1.736,-3.36 -0.272,0.146 -10.507,5.521 1.893,1.177 c 0.002,0.083 2.023,3.992 2.336,4.599 z m 65.872,2.665 c 0.146,-0.146 1.708,-1.709 1.962,-1.962 0.352,0.164 4.781,2.254 5.137,2.424 -0.041,0.359 -0.28,2.497 -0.302,2.708 -0.16,0.133 -1.463,1.241 -1.463,1.241 l 5.581,2.616 c 0,0 -0.439,-2.329 -0.439,-2.331 0.018,0 0.753,-5.352 0.767,-5.432 0.048,0.041 1.562,-1.316 1.562,-1.316 l 0.213,-0.193 c 0,0 -1.537,-1.954 -1.544,-1.959 0.072,-0.005 0.397,-7.099 0.397,-7.099 l 0.013,-0.205 -2.195,-1.051 -0.154,0.14 c 0,0 -5.366,4.96 -5.383,4.973 -0.008,-0.044 -2.037,0.27 -2.037,0.27 l -0.261,0.041 c 0,0 0.01,1.824 0.012,2.062 -0.195,0.178 -4.232,3.807 -4.232,3.807 0.041,-0.031 -1.451,0.9 -1.451,0.9 l -0.477,0.3 4.237,1.988 c 0,-10e-4 0.047,-1.711 0.057,-1.922 z m 7.922,-7.599 c -0.139,1.19 -0.565,4.898 -0.639,5.55 -0.574,-0.272 -2.916,-1.378 -3.519,-1.662 0.503,-0.472 3.283,-3.068 4.158,-3.888 z m 21.403,31.217 c 1.341,0.421 2.749,0.267 4.068,-0.446 0.636,-0.333 1.187,-0.956 1.431,-1.385 0.482,-0.82 0.61,-1.803 0.613,-2.113 l 0.028,-1.502 c 0,-0.029 -0.052,-0.623 -0.067,-0.826 0.157,-0.164 1.054,-1.077 1.054,-1.077 0,0 -1.016,-1.731 -1.042,-1.777 0.008,-0.005 0.01,-0.054 0.01,-0.11 0,-0.087 -0.003,-0.298 -0.003,-0.352 0,-1.332 0.356,-2.226 1.02,-2.513 0.804,-0.356 2.632,-0.31 3.419,1.395 0.669,1.445 0.803,2.396 0.492,3.509 l -0.075,0.269 1.547,0.603 0.103,-0.313 c 0.523,-1.641 -0.32,-3.78 -0.869,-4.911 -1.282,-2.608 -4.142,-4.732 -6.922,-3.537 -0.431,0.18 -1.028,0.506 -1.39,1.034 -0.444,0.649 -0.736,1.521 -0.823,2.452 l -0.041,0.652 c 0,-0.033 -0.031,0.295 -0.036,0.336 -0.051,-0.033 -0.944,0.823 -0.944,0.823 l -0.174,0.164 c 0,0 1.1,2.003 1.103,2.014 -0.003,0 -0.003,0.023 -0.003,0.064 0,0.38 0.101,2.272 0.101,2.272 -0.028,0.854 -0.411,1.721 -0.911,2.037 -0.638,0.412 -1.459,0.531 -2.259,0.329 -0.754,-0.19 -1.836,-0.752 -2.703,-2.342 -0.97,-2.095 -0.37,-3.647 0.302,-4.575 l 0.226,-0.311 -1.626,-0.71 -0.149,0.179 c -0.928,1.141 -1.215,3.755 0.1,6.355 1.157,2.279 2.686,3.772 4.42,4.313 z M 95.858,30.001 c 0.159,-0.202 3.011,-3.89 3.452,-4.459 0.408,0.608 3.06,4.557 3.07,4.573 -0.003,0.003 -0.003,0.012 -0.003,0.03 0,0.195 0.121,1.249 0.121,1.249 l 0.031,0.275 5.881,-0.008 -2.144,-2.103 c 0,-0.01 -3.275,-4.867 -3.824,-5.683 0.154,-0.246 0.746,-1.182 0.746,-1.182 0,0 -0.759,-0.851 -0.99,-1.11 0.277,-0.374 3.966,-5.316 3.966,-5.316 l 1.703,-1.967 -5.291,-0.016 0.182,0.428 c 0,0 0.42,0.98 0.528,1.236 -0.187,0.247 -2.78,3.688 -3.216,4.268 -0.408,-0.623 -2.842,-4.355 -2.852,-4.37 0.006,0 0.006,-0.011 0.006,-0.031 0,-0.198 -0.118,-1.257 -0.118,-1.257 l -0.031,-0.275 -5.488,0.016 1.749,2 c 0,0.005 3.049,4.647 3.573,5.439 -0.146,0.246 -0.747,1.218 -0.747,1.218 0,0 0.875,0.844 1.144,1.105 -0.303,0.403 -4.252,5.619 -4.252,5.622 -0.008,0 -1.516,1.426 -1.516,1.426 l -0.572,0.542 5.257,-0.059 c -0.001,0 -0.314,-1.363 -0.365,-1.591 z m 74.561,50.51 -2.262,6.961 5.924,-4.304 5.922,4.304 -2.265,-6.961 5.93,-4.307 h -7.325 l -2.262,-6.96 -2.262,6.96 h -7.324 z m -151.025,6.961 5.917,-4.304 5.927,4.304 -2.262,-6.966 5.919,-4.302 h -7.319 l -2.265,-6.96 -2.26,6.96 h -7.319 l 5.922,4.302 z" fill="#ffffff" id="path16"></path>
  <path fill="#003278" d="m 92.927,37.4 c 0.486,0.185 1.919,0.757 2.126,1.104 l 0.736,-0.11 c 0,0 -0.9,-0.729 -1.544,-1.178 -0.071,0.006 -0.14,0.017 -0.21,0.023 -0.395,0.04 -0.79,0.085 -1.182,0.131 0.014,0.006 0.054,0.022 0.074,0.03 z m -4.073,0.57 c 0.01,0.002 0.021,0.009 0.03,0.012 1.025,0.273 1.981,0.877 3.011,1.382 l 0.995,-0.09 c 0,0 -0.926,-0.796 -2.266,-1.544 -0.036,-0.021 -0.063,-0.04 -0.099,-0.059 -0.561,0.089 -1.115,0.199 -1.671,0.299 z m -5.948,1.388 c 0.01,0.001 0.028,0.005 0.04,0.007 0.498,0.08 1.458,0.281 1.822,0.693 1.123,-0.198 1.903,0.367 2.616,0.731 l 1.682,-0.536 c 0,0 -2.185,-1.075 -2.98,-1.093 -0.344,-0.162 -0.557,-0.292 -0.812,-0.364 -0.042,-0.01 -0.076,-0.034 -0.119,-0.041 -0.756,0.187 -1.5,0.39 -2.249,0.603 z m -5.016,1.657 c 0.015,0.002 0.062,0.015 0.084,0.02 0.315,0.074 1.359,0.335 1.896,0.798 1.174,-0.2 2.331,0.38 3.175,0.916 l 1.693,-0.597 c -0.187,-0.31 -2.375,-1.262 -3.599,-1.285 -0.41,-0.324 -0.838,-0.432 -1.216,-0.513 -0.031,-0.007 -0.066,-0.02 -0.098,-0.026 -0.647,0.217 -1.292,0.445 -1.935,0.687 z M 72.558,43.3 c 0.038,0 0.113,-0.007 0.209,-0.017 0.619,-0.065 2.251,-0.281 2.456,0.191 1.262,-0.12 2.621,0.646 3.441,1.164 l 1.805,-0.462 C 79.497,43.302 77.72,42.612 76.7,42.663 c -0.4,-0.601 -1.209,-0.357 -1.787,-0.377 -0.04,-0.002 -0.087,0.006 -0.124,0 z m 1.793,4.152 1.577,-1.197 c -1.236,-0.67 -3.17,-1.037 -4.18,-0.988 -0.506,-0.178 -0.434,-0.341 -1.016,-0.413 l -2.167,1.18 c 0.274,0.015 2.108,0.051 2.352,0.59 1.251,-0.107 2.633,0.329 3.434,0.828 z m -9.177,3.504 c 1.472,-0.275 3.631,-0.859 5.74,-0.386 l 1.584,-1.405 C 70.116,48.747 67.59,48.868 66.31,49.204 66,48.727 65.282,48.237 65.282,48.237 l -1.508,1.27 c 0.718,0.225 0.961,0.832 1.4,1.449 z m -4.236,4.746 c 1.218,-0.605 3.898,-1.034 6.609,-0.666 l 1.398,-1.801 c -4.109,-0.294 -5.797,0.228 -7.076,0.849 -0.439,-0.744 -1.082,-1.178 -1.082,-1.178 l -1.249,1.151 c 0.72,0.225 0.951,1.04 1.4,1.645 z m 4.103,2.032 c -4.254,0.095 -6.596,0.469 -6.907,1.454 -0.426,-0.747 -1.2,-1.503 -1.2,-1.503 l -0.988,1.557 c 0.908,0.498 0.821,1.085 1.257,1.7 1.226,-0.615 3.726,-1.785 6.448,-1.408 z m -9.905,6.865 c -0.431,-1.03 -1.575,-2.264 -1.575,-2.264 l -0.738,1.769 c 0.654,0.495 1.062,1.706 1.513,2.321 1.22,-0.631 2.795,-1.826 5.498,-1.434 l 1.282,-2.093 c -3.449,10e-4 -5.672,0.704 -5.98,1.701 z m -3.534,6.959 c 1.221,-0.603 3.054,-1.734 5.786,-1.37 l 1.129,-2.075 c -3.322,0 -5.617,0.715 -5.915,1.708 -0.543,-1.362 -1.769,-2.531 -1.769,-2.531 l -0.736,1.961 c 0.915,0.498 1.063,1.709 1.505,2.307 z m -1.506,4.536 c -0.616,-1.218 -1.96,-2.737 -1.96,-2.737 l -0.605,2.037 c 0.905,0.508 1.326,1.718 1.767,2.341 1.223,-0.623 2.721,-1.633 5.442,-1.259 l 0.869,-1.962 c -4.131,0.254 -5.203,0.601 -5.513,1.58 z m -3.075,7.397 c 1.21,-0.623 3.247,-1.736 5.96,-1.375 l 0.68,-2.026 c -3.988,0.239 -5.732,0.631 -6.05,1.629 -0.439,-0.744 -1.961,-2.601 -1.961,-2.601 l -0.408,2.037 c 0.917,0.507 1.328,1.713 1.779,2.336 z m -0.88,5.014 C 45.707,87.757 43.83,85.156 43.83,85.156 l -0.426,2.172 c 0.9,0.839 1.575,2.393 2.016,3.021 1.221,-0.623 3.134,-2.323 5.833,-1.939 l 0.426,-1.816 c -3.948,0.295 -4.576,0.734 -5.538,1.911 z m -1.182,6.632 c -0.477,-0.741 -2.886,-3.239 -2.886,-3.239 l -0.318,2.105 c 1.603,1.38 2.264,2.701 2.732,3.275 0.529,-1.049 2.523,-2.034 5.252,-1.807 l 0.338,-1.981 c -3.235,0.186 -4.692,0.719 -5.118,1.647 z m -1.154,7.6 c -0.533,-1.415 -2.821,-3.696 -2.821,-3.696 l -0.139,2.029 c 0.801,0.356 2.278,2.831 2.724,3.439 0.1,-0.113 0.231,-0.482 0.503,-0.816 0.484,-0.584 1.882,-1.413 4.886,-1.287 l 0.171,-1.86 c -3.462,0.041 -4.575,0.887 -4.867,1.229 -0.275,0.24 -0.382,0.702 -0.457,0.962 z m 4.729,13.384 -0.06,-1.987 c -2.608,-1.17 -3.949,-0.962 -4.906,-0.396 -0.444,-0.759 -3.062,-1.721 -3.062,-1.721 l 0.123,1.998 c 1.062,0.251 2.355,0.905 2.806,1.518 1.217,-0.623 2.948,-0.563 5.099,0.588 z m -5.273,-5.903 c 0.565,-0.946 1.198,-1.437 5.248,-0.582 l 0.021,-1.931 c -4.775,-0.233 -4.709,0.198 -4.86,0.811 -0.408,-0.76 -3.157,-3.111 -3.157,-3.111 l 0.041,2.231 c 0.894,0.535 2.294,1.946 2.707,2.582 z m 0.626,10.846 c 0.233,-0.626 0.995,-0.28 1.98,0.156 0.877,0.406 1.529,0.869 2.534,1.421 l -0.051,-2 c -2.201,-1.414 -4.355,-2.491 -4.663,-1.508 -0.43,-0.744 -2.718,-1.78 -2.718,-1.78 l 0.513,2.22 c 1.185,0.308 1.961,0.87 2.405,1.491 z m 0.351,3.213 c -0.444,-0.81 -2.252,-1.803 -2.252,-1.803 l 0.279,2.014 c 0.959,0.393 1.698,0.939 2.15,1.611 1.041,-0.128 1.954,0.272 4.185,1.869 l -0.164,-1.892 c -2.279,-1.906 -3.387,-1.799 -4.198,-1.799 z m 93.204,-15.368 c -0.715,-0.5 -1.935,-1.192 -4.186,-3.665 l -1.667,1.016 c 0.752,0.567 4.15,4.491 5.74,3.899 0,0 -0.721,4.857 -0.593,7.368 l 1.824,-1.167 c -0.062,-1.321 0.026,-6.892 0.354,-8.191 0.07,-0.07 -1.021,1.056 -1.472,0.74 z m 3.611,-2.274 1.168,-0.965 c 0.164,3.228 0.422,6.293 0.068,7.769 l 1.411,-1.095 c 0.285,-2.362 0.21,-5.106 -0.128,-7.613 l -1.311,0.845 c -1.704,-2.494 -2.845,-3.61 -3.834,-4.285 l -1.22,0.91 c 0.512,0.148 1.891,1.523 3.846,4.434 z m -62.222,47.308 c -2.281,0.579 -4.394,-0.441 -5.964,-0.908 l -0.436,1.339 c 2.211,1.144 4.342,0.97 5.955,0.623 0.888,1.261 1.636,1.972 3.601,2.703 l 0.703,-1.019 c -2.089,-0.253 -2.91,-1.325 -3.859,-2.738 z m 1.614,-3.655 c -2.296,0.579 -4.715,-0.259 -6.297,-0.723 l -0.658,1.51 c 2.39,0.818 4.608,0.988 6.23,0.65 0.823,1.356 1.718,2.646 3.691,3.382 l 0.725,-1.287 c -1.635,-0.669 -3.159,-1.539 -3.691,-3.532 z m 2.577,-4.826 -0.243,0.382 c -2.283,0.587 -5.055,0.079 -6.632,-0.382 l -0.811,1.433 c 2.205,0.685 4.127,0.793 6.581,0.518 l 0.124,-0.226 c 0.893,1.635 1.122,2.61 3.42,3.957 l 1.116,-1.285 c -1.447,-0.583 -3.209,-2.915 -3.555,-4.397 z" id="path18"></path>
  <path d="m 85.276,142.528 -0.127,0.182 c -2.197,0.419 -4.801,-0.725 -6.372,-1.185 l -0.903,1.357 c 2.211,1.158 4.365,1.246 6.304,1.246 l 0.117,-0.168 c 0.808,1.789 1.586,3.643 3.545,4.384 l 1.113,-1.293 c -1.441,-0.576 -3.328,-3.039 -3.677,-4.523 z m -3.516,-4.887 -0.649,0.696 c 0.2,0.096 0.424,0.197 0.649,0.297 z m 37.524,-7.383 -1.995,-1.857 1.591,-0.667 c -1.185,-1.241 -1.139,-4.909 -1.016,-6.894 l -0.55,0.326 c -2.215,-0.365 -4.609,-2.571 -5.718,-4.075 l -0.136,0.057 c 0,-4.532 0,-9.522 0,-11.577 0,-4.175 5.781,-5.776 5.781,-5.776 0,0 -1.571,-0.623 -3.076,-1.754 l -2.346,0.662 c -0.054,0.015 -5.15,1.49 -5.15,4.952 v 20.423 c 0,1.386 0.57,2.311 3.346,2.311 h 1.439 c 0.006,-0.132 0.012,-0.267 0.006,-0.407 0,0 0,-2.707 0,-6.182 1.441,1.266 2.956,2.304 4.103,2.432 l 0.503,-0.292 c 0.018,2.487 -0.193,3.958 0.401,5.699 l -1.224,-1.14 v 12.384 H 81.864 l 5.243,4.958 h 2.274 c 0.336,0.549 0.725,0.973 1.205,1.108 l 1.087,-1.108 h 27.611 z" fill="#003278" id="path20"></path>
  <path d="m 125.449,117.117 -0.544,0.32 c -2.22,-0.358 -4.613,-2.563 -5.723,-4.075 l -2.067,0.859 c 1.872,1.954 4.355,4.09 6.035,4.285 l 0.504,-0.295 c 0.022,2.935 -0.354,4.424 0.752,6.655 l 2.065,-0.858 c -1.191,-1.236 -1.14,-4.914 -1.022,-6.891 z m 6.71,3.929 2.055,-0.859 c -1.185,-1.234 -1.131,-4.914 -1.013,-6.892 l -0.071,-0.125 c -0.734,0.257 -1.665,0.034 -2.498,-0.674 -0.826,-0.708 -3.576,-3.968 -3.576,-3.968 l -2.267,1.237 c 1.313,1.354 5.612,4.77 6.491,4.798 l 0.125,-0.094 c 0.012,2.874 -0.348,4.367 0.754,6.577 z m 14.049,-18.592 c -0.845,-1.471 -2.572,-3.438 -3.883,-4.344 l -1.18,1.046 c 1.18,0.7 3.601,2.948 4.326,4.706 l 0.785,-0.832 c 0.233,2.806 0.217,5.959 -0.106,7.428 l 1.452,-1.156 c 0.233,-2.529 0.08,-5.456 -0.372,-7.597 z m 3.637,-2.836 c 0.364,0.941 0.647,2.088 0.362,7.771 l 1.382,-1.29 c 0.042,-4.263 -0.189,-5.427 -0.649,-7.571 z m 3.452,-3.641 c 0.641,2.151 1.041,5.813 0.688,7.934 l 1.277,-1.682 c 0.215,-2.4 -0.536,-5.396 -0.98,-7.538 z m 2.693,-3.902 -0.498,0.852 c 1.39,1.783 1.923,3.789 2.083,6.468 l 0.982,-1.507 c -0.03,-2.8 -1.875,-6.452 -2.567,-5.813 z m 1.713,-2.859 -0.27,0.332 0.204,-0.332 c -0.742,-1.491 -1.642,-3.103 -3.06,-4.088 l -0.77,1.028 c 1.165,0.721 2.377,2.465 3.116,4.224 l 0.38,-0.622 c 0.639,0.554 1.791,1.394 2.543,5.749 l 0.58,-1.516 c -0.635,-4.139 -2.564,-5.699 -2.723,-4.775 z m 1.58,-3.268 -0.131,0.359 c -0.733,-1.469 -1.212,-2.48 -2.865,-3.991 l -0.572,0.913 c 1.549,1.382 2.234,2.147 2.957,4.17 l 0.363,-0.772 -0.042,0.118 c 0.87,0.721 1.855,1.875 2.45,5.05 l 0.451,-1.804 c -0.175,-2.289 -2.306,-4.83 -2.611,-4.043 z m -13.624,8.871 -1.175,1.046 c 1.173,0.697 3.596,2.945 4.32,4.706 l 0.969,-1.028 c -0.739,-1.49 -2.688,-3.742 -4.114,-4.724 z m 3.55,-3.375 -1.114,0.898 c 0.811,0.541 3.632,2.911 4.36,4.678 l 0.852,-1.175 c -0.739,-1.501 -2.619,-3.401 -4.098,-4.401 z m 5.735,2.196 0.697,-1.044 c -0.733,-1.498 -1.972,-3.396 -3.396,-4.383 l -0.969,1.032 c 1.164,0.712 2.929,2.632 3.668,4.395 z m 4.919,-9.531 0.436,-0.9 c -0.739,-1.509 -1.128,-1.911 -2.78,-3.581 l -0.308,0.92 c 1.151,0.991 1.925,1.81 2.652,3.561 z m 1.367,-0.731 -0.145,-0.162 -0.471,-0.528 -0.428,0.967 c 0.471,0.338 0.941,0.836 1.428,1.566 0.044,0.066 0.085,0.101 0.128,0.17 -0.156,-0.672 -0.33,-1.346 -0.512,-2.013 z m -1.614,-5.086 c -0.054,-0.068 -0.131,-0.151 -0.193,-0.224 -0.22,-0.259 -0.482,-0.545 -0.858,-0.917 l -0.252,0.861 c 0.81,0.878 1.591,1.82 2.238,3.183 0.043,0.089 0.089,0.161 0.13,0.254 -0.326,-1.066 -0.685,-2.115 -1.065,-3.157 z M 127.622,94.25 h 8.227 V 67.092 l -4.56,-4.263 v 26.653 h -8.703 z M 112.277,76.404 c 3.183,0.272 5.48,1.115 7.11,2.348 -2.643,-2.643 -6.904,-4.087 -12.719,-4.103 0,1.627 0,17.141 0,17.141 0,3.22 5.176,5.282 5.229,5.303 l 2.129,0.835 c -1.327,-1.03 -2.567,-2.446 -2.567,-4.224 0,-3.845 0,-17.35 0,-17.35 z M 79.505,92.29 c 0,-9.344 0.914,-15.235 10.826,-16.224 0,-0.713 0,-1.249 0,-1.469 -0.033,0 -0.137,0 -0.137,0 -10.612,0 -14.942,3.681 -14.952,12.807 L 75.23,89.482 H 64.743 l 4.781,4.484 h 9.972 z" fill="#003278" id="path22"></path>
  <path d="m 66.358,87.784 c 1.257,0 6.102,0 7.256,0 0.044,-0.477 0.085,-0.955 0.085,-0.955 l -0.143,0.473 c 0,-9.961 5.13,-14.403 16.639,-14.403 h 1.834 V 91.79 c 0,3.238 -2.347,5.083 -4.032,6.046 1.699,0.873 4.032,2.581 4.032,5.818 v 20.235 c 0,2.628 -1.808,4.196 -4.842,4.196 0,0 -2.603,0 -3.729,0 0,1.32 0,7.778 0,9.097 1.567,0 28.517,0 30.084,0 0,-1.319 0,-7.777 0,-9.097 -1.103,0 -3.527,0 -3.527,0 -3.349,0 -5.044,-1.349 -5.044,-4.008 v -20.423 c 0,-3.204 2.724,-4.965 4.619,-5.85 -1.872,-1.046 -4.619,-3.031 -4.619,-6.014 V 72.935 l 0.896,0.006 c 0,0 0.81,10e-4 0.764,10e-4 11.156,0 17.553,5.042 17.553,13.841 0,0 -0.005,0.504 -0.008,1.002 1.146,0 4.278,0 5.416,0 0,-1.53 0,-21.835 0,-23.364 -1.633,0 -61.596,0 -63.233,0 -10e-4,1.529 -10e-4,21.833 -10e-4,23.363 z" fill="#c0111f" id="path24"></path>
</svg>
