
<svg viewBox="0 0 233.04312 200.872" version="1.1" id="svg18" width="233.04312" height="200.87199" xmlns="http://www.w3.org/2000/svg">
  <defs id="defs22"></defs>
  
  <title id="title2">Toronto Blue Jays hat light logo</title>
  <path d="m 71.050119,72.304 c 0,0 -1.355,-3.404 0.383,-6.89 0.68,-1.374 1.976,-2.628 3.702,-3.655 12.803,-8.577 39.920001,0.214 39.920001,0.214 -6.437,-0.586 -11.733,-0.478 -16.183001,0.13 7.560001,2.342 15.652001,5.542 21.134001,6.857 6.735,1.648 11.214,2.485 17.92,2.88 l -0.215,-2.628 3.734,0.632 9.937,1.684 1.464,-3.702 1.618,-4.097 3.154,3.056 c 0.07,0.06 4.95,4.826 7.524,7.31 -0.448,-4.682 -1.607,-16.6 -1.618,-16.733 l -0.466,-4.825 4.485,1.827 4.886,1.96 7.35,-12.005 2.485,-4.073 2.515,4.073 5.923,9.686 c 2.06,-8.408 3.542,-17.317 7.87,-21.438 -4.334,0.155 -7.392,1.386 -12.12,4.705 2.686,-7.26 6.65,-12.66 12.026,-18.81 -5.214,0.79 -10.193,2.294 -15.078,5.064 1.863,-4.443 1.99,-9.937 1.99,-9.937 -22.89,26.576 -86.715001,26.231 -103.240001,31.651 -10.843,3.56 -16.403,9.47 -20.266,15.3 -0.37,6.032 4.008,11.764 9.166,11.764 z" fill="#134a8e" id="path6"></path>
  <path fill="#1d2d5c" d="m 163.37212,110.39 -4.27,5.136 4.27,-5.135" id="path8"></path>
  <path d="m 152.39012,119.025 4.466,-5.363 2.413,-2.925 -9.358,-8.085 c -5.088,7.787 -10.044,16.206 -12.41,22.728 l 10.295,-0.06 c -5.29,6.556 -15.49,17.413 -22.345,29.392 -6.862,-16.828 -22.92,-38.504 -51.930001,-50.4 -8.413,-3.45 -16.343,-8.026 -15.31,-14.678 -14.536,-2.078 -30.426,-3.75 -48.4420004,-4.348 -1.38,-0.023 -2.645,-0.035 -3.786,-0.048 -1.057,-0.035 -1.326,0.418 -0.18,1.302 4.9460004,3.594 21.6950004,10.08 42.2600004,13.902 9.896,1.84 14.422,4.538 21.51,9.506 15.456,10.82 36.524001,39.77 49.368001,77.5 24.353,-47.307 52.635,-68.542 54.874,-70.167 l -14.487,1.17 -6.94,0.575 z M 5.3341186,84.032 C 15.647119,83.614 30.127119,83.1 55.417119,83.949 c 2.138,0.022 4.24,0.082 6.29,0.118 1.277,-1.696 3.593,-3.2 8.007,-3.2 h 1.314 c 8.21,0.12 9.734,8.55 18.463,8.55 8.696,0 10.23,-8.36 18.382001,-8.54 0.22,0 0.47,-0.01 0.68,-0.01 h 30.12 l -0.41,-5.005 h -30.157 c -8.360001,0 -9.840001,-8.54 -18.625001,-8.54 -8.654,0 -10.212,8.457 -18.255,8.517 -8.713,-0.526 -12.164,-7.81 -12.845,-14.01 -3.81,1.625 -5.77,3.523 -8.63,8.05 -31.136,5.149 -41.7910004,10.129 -44.5840004,13.235 -0.412,0.55 -0.238,0.812 0.168,0.92 z M 86.147119,71.206 c -0.61,2.472 -0.27,4.574 -0.126,5.672 h -2.924 c -0.066,-2.198 1.236,-4.467 3.05,-5.672 z" fill="#1d2d5c" id="path10"></path>
  <path d="m 86.147119,71.206 c -1.815,1.206 -3.117,3.474 -3.05,5.672 h 2.924 c -0.142,-1.098 -0.482,-3.2 0.127,-5.672 z" fill="#ffffff" id="path12"></path>
  <path d="m 233.04012,86.78 -4.818,-1.66 -2.633,-0.91 0.93,-11.238 0.305,-3.762 -3.726,0.632 -9.955,1.684 -1.452,-3.702 -1.618,-4.097 -3.165,3.057 c -0.06,0.06 -4.938,4.826 -7.524,7.31 0.472,-4.682 1.618,-16.6 1.624,-16.733 l 0.472,-4.824 -4.48,1.827 -2.024,0.812 c 0.203,-0.955 0.4,-1.91 0.586,-2.842 1.188,-5.924 4.162,-16.29 9.788,-24.21 0,0 -3.59,-0.86 -9.1,0.74 -1.56,0.456 -0.12,0.025 -0.173,0.038 1.826,-4.36 9.977,-15.537 9.977,-15.537 0,0 -11.544,-0.203 -15.89,2.424 2.701,-8.899 0.45,-15.789 0.45,-15.789 l -8.97,10.39 c -15.454,17.95 -53.134,22.896 -78.064,26.18 -10.080001,1.338 -18.052001,2.388 -22.960001,4.002 -11.878,3.88 -18.094,10.533 -21.79,15.728 l -2.365,1.003 c -4.532,1.924 -7.107,4.395 -9.638,8.062 -25.66,4.37 -40.4830004,9.1 -45.3130004,14.427 l -0.323,0.394 C 0.10711862,81.666 -0.24988138,83.41 0.17311862,85 c -0.153,1.386 0.127,3.463 2.57499998,5.398 l 0.172,0.13 c 5.858,4.24 23.3550004,10.87 44.2500004,14.764 9.375,1.732 13.4,3.128 19.378,8.54 29.72,26.92 44.320001,67.347 50.943001,87.04 l 7.435,-13.674 c 24.836,-43.592 49.164,-63.74 49.45,-64.014 l 5.15,-4.682 0.136,0.262 2.6,5.004 2.61,-5.015 0.972,-1.876 19.36,1.576 6.95,0.574 -4.466,-5.363 -2.42,-2.925 23.91,-20.616 3.865,-3.345 z M 82.150119,45.24 c 16.525,-5.42 80.350001,-5.075 103.233001,-31.65 0,0 -0.126,5.494 -1.99,9.937 4.886,-2.77 9.866,-4.276 15.08,-5.063 -5.376,6.15 -9.34,11.55 -12.028,18.81 4.73,-3.32 7.787,-4.55 12.122,-4.706 -4.33,4.12 -5.81,13.03 -7.87,21.438 l -5.924,-9.686 -2.514,-4.073 -2.485,4.073 -7.35,12.004 -4.886,-1.96 -4.486,-1.826 0.466,4.825 c 0.01,0.132 1.17,12.05 1.618,16.733 -2.574,-2.484 -7.453,-7.25 -7.524,-7.31 l -3.154,-3.057 -1.618,4.096 -1.463,3.702 -9.938,-1.684 -3.733,-0.632 0.214,2.627 c -6.707,-0.395 -11.185,-1.23 -17.92,-2.88 -5.483,-1.314 -13.574,-4.514 -21.134001,-6.855 4.450001,-0.61 9.746001,-0.717 16.184001,-0.13 0,0 -27.117001,-8.792 -39.920001,-0.216 -1.727,1.026 -3.023,2.28 -3.703,3.653 -1.737,3.488 -0.382,6.89 -0.382,6.89 -5.16,0 -9.537,-5.73 -9.166,-11.763 3.866,-5.83 9.425,-11.74 20.27,-15.3 z M 5.1671186,83.113 c 2.793,-3.106 13.4470004,-8.086 44.5830004,-13.233 2.86,-4.527 4.82,-6.426 8.63,-8.05 0.68,6.198 4.13,13.483 12.844,14.01 8.044,-0.06 9.602,-8.517 18.255,-8.517 8.782,0 10.263,8.54 18.624001,8.54 h 30.156 l 0.412,5.003 h -30.12 c -0.21,0 -0.46,0.012 -0.68,0.012 -8.152001,0.18 -9.687001,8.54 -18.382001,8.54 -8.73,0 -10.252,-8.432 -18.463,-8.552 h -1.313 c -4.414,0 -6.73,1.504 -8.008,3.2 -2.048,-0.034 -4.15,-0.094 -6.29,-0.118 -25.29,-0.85 -39.77,-0.335 -50.0820004,0.083 -0.405,-0.105 -0.58,-0.368 -0.167,-0.917 z M 118.94312,187.447 c -12.844,-37.728 -33.912001,-66.678 -49.367001,-77.5 -7.088,-4.967 -11.615,-7.666 -21.51,-9.505 -20.566,-3.822 -37.316,-10.307 -42.2610004,-13.9 -1.146,-0.885 -0.877,-1.34 0.18,-1.303 1.14,0.01 2.407,0.023 3.786,0.047 18.0170004,0.598 33.9070004,2.27 48.4420004,4.348 -1.032,6.652 6.898,11.227 15.312,14.678 29.010001,11.896 45.067001,33.572 51.930001,50.4 6.854,-11.98 17.053,-22.835 22.344,-29.392 l -10.295,0.06 c 2.365,-6.52 7.322,-14.94 12.41,-22.727 l 9.357,8.085 -2.413,2.925 -4.466,5.363 6.94,-0.574 14.487,-1.17 c -2.24,1.625 -30.522,22.86 -54.875,70.165 z m 82.23,-77.056 4.257,5.136 -21.29,-1.732 -0.9,1.744 -0.967,1.863 -0.012,0.013 -0.483,-0.967 -0.245,-0.466 -1.14,-2.185 -11.388,0.932 -0.012,-0.012 -8.39,0.692 -1.5,0.12 4.272,-5.135 -26.105,-22.504 4.783,-1.648 -1.1,-13.508 12.28,2.113 2.346,-5.947 c 0,0 7.918,7.715 8.968,8.72 0.68,0.644 1.44,1.014 2.096,1.014 1.02,0 1.786,-0.932 1.576,-3.177 -0.017,-0.203 -0.054,-0.537 -0.09,-0.955 -0.4,-4.073 -1.683,-17.39 -1.69,-17.425 l 7.19,2.89 8.63,-14.105 h 0.012 l 8.634,14.105 3.302,-1.326 3.888,-1.563 c -0.006,0.035 -1.295,13.352 -1.69,17.425 -0.035,0.418 -0.07,0.752 -0.09,0.955 -0.208,2.245 0.55,3.177 1.584,3.177 0.645,0 1.403,-0.383 2.09,-1.015 1.05,-1.005 8.975,-8.72 8.975,-8.72 l 2.335,5.947 12.296,-2.113 -1.117,13.508 4.788,1.647 -26.096,22.5 z" fill="#ffffff" id="path14"></path>
  <path d="m 223.59512,72.734 -12.295,2.113 -2.336,-5.947 c 0,0 -7.925,7.715 -8.975,8.72 -0.688,0.63 -1.447,1.014 -2.09,1.014 -1.034,0 -1.793,-0.932 -1.584,-3.177 0.018,-0.203 0.054,-0.537 0.09,-0.955 0.394,-4.073 1.683,-17.39 1.69,-17.425 l -3.89,1.564 -3.3,1.327 -8.635,-14.105 h -0.01 l -8.63,14.105 -7.19,-2.89 c 0.006,0.035 1.29,13.352 1.69,17.425 0.035,0.418 0.072,0.752 0.09,0.955 0.208,2.245 -0.556,3.177 -1.577,3.177 -0.657,0 -1.415,-0.37 -2.096,-1.015 -1.05,-1.005 -8.97,-8.72 -8.97,-8.72 l -2.345,5.947 -12.28,-2.113 1.1,13.508 -4.783,1.647 26.1,22.5 -4.27,5.136 1.5,-0.12 8.39,-0.692 11.4,-0.92 1.14,2.185 0.245,0.465 0.497,0.955 0.967,-1.863 0.9,-1.744 21.288,1.732 -4.257,-5.135 26.097,-22.502 -4.79,-1.647 1.118,-13.506 z" fill="#e8291c" id="path16"></path>
</svg>
