


<svg version="1.1" id="svg2" xml:space="preserve" width="80.01371" height="107.60188" viewBox="0 0 80.013709 107.60188" xmlns="http://www.w3.org/2000/svg"><defs id="defs6"><clipPath clipPathUnits="userSpaceOnUse" id="clipPath16"><path d="M 0,793.701 H 1190.55 V 0 H 0 Z" id="path14"></path></clipPath></defs><g id="g8" transform="matrix(1.3333333,0,0,-1.3333333,-1147.598,659.88979)"><g id="g10"><g id="g12" clip-path="url(#clipPath16)"><g id="g18" transform="translate(891.7764,422.7471)"><path d="M 0,0 C 15.228,0 27.572,12.345 27.572,27.573 27.572,42.801 15.228,55.146 0,55.146 -15.229,55.146 -27.572,42.801 -27.572,27.573 -27.572,12.345 -15.229,0 0,0" style="fill:#1aae59;fill-opacity:1;fill-rule:nonzero;stroke:none" id="path20"></path></g><g id="g22" transform="translate(873.5195,422.8262)"><path d="m 0,0 c 0,0 -5.741,5.369 -5.865,5.506 -0.123,0.137 -0.331,0.395 -0.324,0.628 0.095,0.479 0.827,0.921 1.894,1.292 1.068,0.37 2.207,0.449 3.112,0.527 C -0.718,7.974 0.63,8.161 0.575,7.298 0.52,6.435 -1.209,6.083 -2.086,5.973 -2.962,5.864 -3.773,6.225 -4.002,6.3 -3.632,5.08 -2.241,4.975 -1.9,4.926 -1.805,4.803 -1.959,4.701 -1.959,4.701 L -2.234,4.489 c 0.314,-0.397 1.668,-0.33 1.668,-0.33 -0.097,-0.261 -0.137,-0.232 -0.261,-0.3 0.232,-0.246 0.944,-0.233 1.481,-0.105 1.205,0.218 2.87,1.199 3.344,2.805 0.477,1.608 -0.452,3.04 -2.352,3.626 -1.9,0.584 -6.251,-0.397 -6.251,-0.397 0,0 -4.295,-0.897 -5.994,-1.843 -0.371,-0.206 -1.939,-1.37 -2.103,-2.703 -0.165,-1.333 0.88,-2.159 1.354,-2.597 0,0 5.653,-4.759 6.109,-5.399 0.457,-0.639 -0.038,-1.159 -0.038,-1.159 0,0 -0.998,-0.979 -1.279,-1.18 -0.28,-0.201 -0.779,-0.712 -1.728,-0.712 -0.95,0 -1.607,1.048 -1.368,1.432 0.238,0.384 1.24,0.801 1.549,0.874 0.311,0.073 0.733,0.031 1.071,0.021 l -1.782,1.617 c -1.11,-0.335 -2.856,-1.268 -3.623,-2.107 -0.767,-0.841 -0.148,-1.647 -0.148,-1.647 0,0 2.056,-1.926 2.693,-2.427 0.66,-0.533 1.193,-0.802 2.437,-0.308 1.316,0.525 4.982,2.898 5.895,3.556 0.914,0.657 1.86,1.591 2.134,2.76 C 0.848,-0.865 0,0 0,0" style="fill:#293d9b;fill-opacity:1;fill-rule:nonzero;stroke:none" id="path24"></path></g><g id="g26" transform="translate(913.7227,424.082)"><path d="M 0,0 -0.291,-0.088 0.154,1.043 H -0.13 c 0,0 0.407,0.766 0.589,1.424 C 0.643,3.124 0.39,3.843 0.275,3.993 -0.528,2.184 -3.27,-1.881 -3.27,-1.881 c 0,0 0.371,2.019 0.409,2.198 0.038,0.179 0.031,0.551 -0.096,0.606 -0.128,0.054 -0.389,-0.19 -0.389,-0.19 l -2.153,-2.45 c 0,0 0.75,1.754 0.895,2.083 0.146,0.327 0.119,0.424 0.116,0.534 0,0 -0.86,1.38 -1.193,1.766 l -2.21,-4.748 0.055,0.825 C -7.854,-0.16 -8.427,0.273 -8.792,0.4 -9.156,0.528 -9.705,0.398 -9.705,0.398 c -0.274,0.364 -0.854,0.643 -1.714,0.518 -1.954,-0.403 -3.188,-2.95 -3.532,-3.57 -0.346,-0.621 -1.26,-1.151 -1.26,-1.151 l 3.893,8.699 h -1.087 c -0.096,0 -0.187,0.043 -0.248,0.116 -0.05,0.06 -0.076,0.133 -0.076,0.209 0,0.018 0,0.038 0.004,0.056 0,0 0.022,0.126 0.05,0.287 L -15.16,5.488 c 0,0 -3.315,-7.314 -3.764,-8.136 -0.449,-0.823 -1.529,-1.521 -1.529,-1.521 l 4.065,9.125 c -0.075,-0.034 -0.153,-0.067 -0.235,-0.096 -0.671,-0.239 -1.832,-0.17 -2.216,-0.053 -0.134,0.04 -0.34,0.104 -0.528,0.239 -0.605,-1.333 -3.189,-7.036 -3.58,-7.843 -0.445,-0.917 -0.521,-0.883 -1.025,-1.394 -0.504,-0.51 -0.966,-0.624 -0.966,-0.624 0,0 2.038,4.496 2.257,5.072 0.219,0.575 -0.399,0.619 -0.399,0.619 L -25.342,0.76 -25.504,0.398 c -0.534,0.245 -1.356,0.341 -2.465,-0.025 -1.371,-0.493 -2.261,-1.634 -2.747,-2.037 l 1.692,3.308 c 0,0 0.53,1.245 0.599,1.52 0.086,0.313 -0.04,0.614 -0.114,0.845 -0.072,0.233 -0.237,0.226 -0.334,0.083 l -1.687,-2.265 -3.123,-3.983 c 0,0 0.403,2.356 0.219,2.512 -0.266,0.227 -0.564,-0.13 -0.564,-0.13 l -2.094,-2.418 1.001,2.993 -2.434,1.41 -1.133,-3.741 c 0,0 -1.612,-5.513 -1.738,-6.064 -0.125,-0.55 0.15,-1.1 0.471,-1.2 1.442,-0.257 2.875,2.402 2.875,2.402 0,0 -0.371,-2.12 0.559,-2.266 0.931,-0.146 2.503,2.052 2.503,2.052 l 1.541,2.131 c -0.438,-1.444 -0.153,-3.401 0.944,-3.803 1.096,-0.402 2.313,0.457 3.159,0.997 0.093,-0.62 0.391,-0.921 0.822,-1.032 1.152,-0.219 2.17,0.888 2.777,1.397 0,0 -0.178,-1.286 1.08,-1.246 1.296,0.041 2.649,1.406 3.364,2.043 -0.548,-1.498 0.238,-1.772 0.645,-1.808 1.7,-0.146 3.779,1.864 4.232,2.264 0.227,-1.104 0.585,-1.717 1.644,-2.046 2.247,-0.456 4.311,2.394 5.023,3.453 0,0 -1.204,-2.94 -0.188,-3.309 0.963,-0.348 1.94,1.087 2.801,2.305 0,0 -0.494,-1.827 0.231,-1.973 0.983,-0.197 2.695,2.041 3.668,3.342 C -1.307,-2.503 0,0 0,0 m -26.521,-1.757 c 0,0 -0.892,-1.989 -1.276,-2.829 -0.383,-0.841 -1.32,-1.507 -1.886,-1.233 -0.567,0.274 -0.287,1.285 0.414,2.276 0.741,1.048 2.329,1.825 2.329,1.825 0.494,0.271 0.419,-0.039 0.419,-0.039 m 16.617,-0.542 c -0.292,-0.877 -1.204,-2.199 -1.683,-2.52 -0.476,-0.319 -0.641,-0.479 -0.969,-0.315 -0.329,0.165 -0.51,0.626 -0.308,1.228 0.199,0.604 0.794,1.515 1.25,1.99 0.457,0.475 0.924,0.896 1.437,0.666 0,0 0.566,-0.171 0.273,-1.049" style="fill:#293d9b;fill-opacity:1;fill-rule:nonzero;stroke:none" id="path28"></path></g><g id="g30" transform="translate(919.7422,425.6802)"><path d="m 0,0 c -0.394,0.716 -2.025,0.94 -3.815,-0.027 -1.79,-0.968 -2.096,-2.258 -2.096,-2.258 -0.195,-1.308 0.845,-1.865 1.562,-2.357 0.719,-0.491 0.275,-0.919 -0.038,-1.085 C -6.578,-7.115 -9.646,-8.086 -9.869,-8.148 -10.088,-8.21 -10,-8.313 -10,-8.313 c 3.051,-0.237 6.108,0.67 6.108,0.67 0,0 1.847,0.62 2.614,1.607 0.766,0.986 -10e-4,1.991 -10e-4,1.991 0,0 -1.503,1.168 -1.997,1.587 -0.493,0.422 -0.268,0.773 -0.051,1.032 0.42,0.438 1.24,0.728 1.569,0.728 0.327,0 0.524,-0.21 0.342,-0.558 -0.184,-0.347 -0.762,-0.309 -0.909,-0.382 -0.146,-0.073 -0.228,-0.11 0.21,-0.513 0.439,-0.401 0.653,-0.524 1.274,-0.424 C 0.146,-2.164 0.474,-0.867 0,0" style="fill:#293d9b;fill-opacity:1;fill-rule:nonzero;stroke:none" id="path32"></path></g><g id="g34" transform="translate(899.3242,432.7319)"><path d="M 0,0 H 1.715 L 2.249,-1.309 3.302,0.004 4.794,0.001 2.641,-2.403 2.37,-3.431 H 0.994 l 0.176,1.013 z" style="fill:#ed1639;fill-opacity:1;fill-rule:nonzero;stroke:none" id="path36"></path></g><g id="g38" transform="translate(906.6768,431.207)"><path d="m 0,0 c -0.09,0.513 -1.012,0.608 -2.128,0.518 -1.115,-0.091 -1.29,-0.626 -1.29,-0.626 v -0.114 h 1.173 c 0.09,0.181 0.42,0.293 0.748,0.252 0.327,-0.041 0.173,-0.426 0.037,-0.514 -0.138,-0.088 -0.777,0.021 -1.141,-0.033 -0.362,-0.055 -0.671,-0.21 -1.006,-0.381 -0.336,-0.171 -0.484,-0.969 0.331,-1.09 0.813,-0.121 1.214,0.048 1.794,0.327 v -0.3 h 1.183 c 0,0 0.39,1.449 0.299,1.961 m -1.62,-1.293 c -0.168,-0.095 -0.249,-0.218 -0.488,-0.218 -0.243,0 -0.369,0.079 -0.352,0.193 0,0 0.076,0.318 0.459,0.365 0.382,0.047 0.507,-0.033 0.507,-0.033 0,0 0.042,-0.212 -0.126,-0.307" style="fill:#ed1639;fill-opacity:1;fill-rule:nonzero;stroke:none" id="path40"></path></g><g id="g42" transform="translate(907.6152,432.7129)"><path d="M 0,0 1.37,0.002 0.987,-2.077 2.029,-1.093 H 3.576 L 2.5,-2.091 3.372,-3.425 H 1.613 l -0.666,1.157 -0.313,-1.184 -1.363,0.014 z" style="fill:#ed1639;fill-opacity:1;fill-rule:nonzero;stroke:none" id="path44"></path></g><g id="g46" transform="translate(886.8184,432.7393)"><path d="M 0,0 H 1.369 L 0.987,-2.104 2.028,-1.12 H 3.575 L 2.499,-2.118 3.371,-3.458 H 1.613 L 0.946,-2.295 0.635,-3.458 h -1.363 z" style="fill:#ed1639;fill-opacity:1;fill-rule:nonzero;stroke:none" id="path48"></path></g><g id="g50" transform="translate(911.6924,431.6582)"><path d="m 0,0 h 1.308 l -0.25,-1.376 c 0,0 -0.123,-0.335 0.268,-0.396 0.393,-0.059 0.571,0.388 0.571,0.388 l 0.336,1.37 H 3.596 L 3.14,-2.431 H 1.757 v 0.374 c 0,0 -0.337,-0.43 -1.272,-0.43 -0.933,0 -0.868,0.99 -0.868,0.99 z" style="fill:#ed1639;fill-opacity:1;fill-rule:nonzero;stroke:none" id="path52"></path></g><g id="g54" transform="translate(916.293,432.7061)"><path d="M 0,0 H 1.321 L 0.594,-3.436 h -1.406 z" style="fill:#ed1639;fill-opacity:1;fill-rule:nonzero;stroke:none" id="path56"></path></g><g id="g58" transform="translate(918.5166,432.3242)"><path d="M 0,0 1.472,0.409 1.278,-0.453 c 0,0 -0.066,-0.202 0.145,-0.224 0.213,-0.023 0.43,0 0.43,0 L 1.717,-1.307 H 1.062 L 0.887,-2.163 c 0,0 0.027,-0.306 0.327,-0.316 0.299,-0.012 0.299,0 0.299,0 L 1.39,-3.036 c 0,0 -0.235,-0.131 -0.87,-0.114 -0.636,0.017 -1.153,0.1 -1.074,0.537 0.08,0.436 0.2,1.279 0.2,1.279 h -0.368 l 0.122,0.639 0.277,0.025 c 0,0 0.181,0.059 0.215,0.179 C -0.076,-0.369 0,0 0,0" style="fill:#ed1639;fill-opacity:1;fill-rule:nonzero;stroke:none" id="path60"></path></g><g id="g62" transform="translate(885.5967,431.3872)"><path d="M 0,0 C -0.271,0.241 -0.982,0.272 -1.375,0.284 -1.746,0.287 -2.178,0.212 -2.421,0.146 -2.731,0.055 -3.386,-0.245 -3.497,-1.09 c -0.109,-0.844 0.393,-0.997 0.725,-1.097 0.332,-0.1 1.418,-0.164 2.012,0.048 0.592,0.211 0.928,0.574 1.071,1.168 C 0.447,-0.402 0.155,-0.124 0,0 m -1.126,-0.982 c -0.182,-0.665 -0.451,-0.704 -0.681,-0.685 -0.232,0.022 -0.341,0.353 -0.232,0.755 0.111,0.402 0.29,0.594 0.603,0.61 0,0 0.491,-0.017 0.31,-0.68" style="fill:#ed1639;fill-opacity:1;fill-rule:nonzero;stroke:none" id="path64"></path></g><g id="g66" transform="translate(897.751,431.3872)"><path d="M 0,0 C -0.271,0.241 -0.982,0.272 -1.374,0.284 -1.746,0.287 -2.177,0.212 -2.419,0.146 -2.731,0.055 -3.385,-0.245 -3.495,-1.09 c -0.112,-0.844 0.391,-0.997 0.723,-1.097 0.331,-0.1 1.419,-0.164 2.012,0.048 0.594,0.211 0.929,0.574 1.071,1.168 C 0.448,-0.402 0.155,-0.124 0,0 m -1.126,-0.982 c -0.181,-0.665 -0.449,-0.704 -0.681,-0.685 -0.231,0.022 -0.342,0.353 -0.231,0.755 0.11,0.402 0.29,0.594 0.603,0.61 0,0 0.49,-0.017 0.309,-0.68" style="fill:#ed1639;fill-opacity:1;fill-rule:nonzero;stroke:none" id="path68"></path></g><g id="g70" transform="translate(881.0107,429.2822)"><path d="m 0,0 h -1.442 l 0.593,2.532 h -1.612 l 0.277,0.926 H 2.484 L 2.207,2.532 H 0.595 Z" style="fill:#ed1639;fill-opacity:1;fill-rule:nonzero;stroke:none" id="path72"></path></g><g id="g74" transform="translate(894.4912,431.626)"><path d="m 0,0 -1.873,-2.566 c 0,0 -0.262,-0.331 -0.592,-0.52 -0.363,-0.207 -0.686,-0.212 -0.744,-0.212 -0.233,0 -0.589,0.043 -0.777,0.156 l 0.124,0.602 0.421,-0.042 c 0.115,-0.023 0.33,0.022 0.442,0.21 0.059,0.099 0.049,0.326 10e-4,0.481 L -3.793,0 h 1.5 L -1.912,-1.083 -1.165,0 Z" style="fill:#ed1639;fill-opacity:1;fill-rule:nonzero;stroke:none" id="path76"></path></g><g id="g78" transform="translate(899.3242,432.7319)"><path d="M 0,0 H 1.715 L 2.249,-1.309 3.302,0.004 4.794,0.001 2.641,-2.403 2.37,-3.431 H 0.994 l 0.176,1.013 z" style="fill:#ffffff;fill-opacity:1;fill-rule:nonzero;stroke:none" id="path80"></path></g><g id="g82" transform="translate(899.3242,432.7319)"><path d="M 0,0 H 1.715 L 2.249,-1.309 3.302,0.004 4.794,0.001 2.641,-2.403 2.37,-3.431 H 0.994 l 0.176,1.013 z" style="fill:none;stroke:#ffffff;stroke-width:0.694;stroke-linecap:round;stroke-linejoin:round;stroke-miterlimit:4;stroke-dasharray:none;stroke-opacity:1" id="path84"></path></g><g id="g86" transform="translate(906.6768,431.207)"><path d="m 0,0 c -0.09,0.513 -1.012,0.608 -2.128,0.518 -1.115,-0.091 -1.29,-0.626 -1.29,-0.626 v -0.114 h 1.173 c 0.09,0.181 0.42,0.293 0.748,0.252 0.327,-0.041 0.173,-0.426 0.037,-0.514 -0.138,-0.088 -0.777,0.021 -1.141,-0.033 -0.362,-0.055 -0.671,-0.21 -1.006,-0.381 -0.336,-0.171 -0.484,-0.969 0.331,-1.09 0.813,-0.121 1.214,0.048 1.794,0.327 v -0.3 h 1.183 c 0,0 0.39,1.449 0.299,1.961 m -1.62,-1.293 c -0.168,-0.095 -0.249,-0.218 -0.488,-0.218 -0.243,0 -0.369,0.079 -0.352,0.193 0,0 0.076,0.318 0.459,0.365 0.382,0.047 0.507,-0.033 0.507,-0.033 0,0 0.042,-0.212 -0.126,-0.307" style="fill:#ffffff;fill-opacity:1;fill-rule:nonzero;stroke:none" id="path88"></path></g><g id="g90" transform="translate(906.6768,431.207)"><path d="m 0,0 c -0.09,0.513 -1.012,0.608 -2.128,0.518 -1.115,-0.091 -1.29,-0.626 -1.29,-0.626 v -0.114 h 1.173 c 0.09,0.181 0.42,0.293 0.748,0.252 0.327,-0.041 0.173,-0.426 0.037,-0.514 -0.138,-0.088 -0.777,0.021 -1.141,-0.033 -0.362,-0.055 -0.671,-0.21 -1.006,-0.381 -0.336,-0.171 -0.484,-0.969 0.331,-1.09 0.813,-0.121 1.214,0.048 1.794,0.327 v -0.3 h 1.183 c 0,0 0.39,1.449 0.299,1.961 z m -1.62,-1.293 c -0.168,-0.095 -0.249,-0.218 -0.488,-0.218 -0.243,0 -0.369,0.079 -0.352,0.193 0,0 0.076,0.318 0.459,0.365 0.382,0.047 0.507,-0.033 0.507,-0.033 0,0 0.042,-0.212 -0.126,-0.307 z" style="fill:none;stroke:#ffffff;stroke-width:0.694;stroke-linecap:round;stroke-linejoin:round;stroke-miterlimit:4;stroke-dasharray:none;stroke-opacity:1" id="path92"></path></g><g id="g94" transform="translate(907.6152,432.7129)"><path d="M 0,0 1.37,0.002 0.987,-2.077 2.029,-1.093 H 3.576 L 2.5,-2.091 3.372,-3.425 H 1.613 l -0.666,1.157 -0.313,-1.184 -1.363,0.014 z" style="fill:#ffffff;fill-opacity:1;fill-rule:nonzero;stroke:none" id="path96"></path></g><g id="g98" transform="translate(907.6152,432.7129)"><path d="M 0,0 1.37,0.002 0.987,-2.077 2.029,-1.093 H 3.576 L 2.5,-2.091 3.372,-3.425 H 1.613 l -0.666,1.157 -0.313,-1.184 -1.363,0.014 z" style="fill:none;stroke:#ffffff;stroke-width:0.694;stroke-linecap:round;stroke-linejoin:round;stroke-miterlimit:4;stroke-dasharray:none;stroke-opacity:1" id="path100"></path></g><g id="g102" transform="translate(886.8184,432.7393)"><path d="M 0,0 H 1.369 L 0.987,-2.104 2.028,-1.12 H 3.575 L 2.499,-2.118 3.371,-3.458 H 1.613 L 0.946,-2.295 0.635,-3.458 h -1.363 z" style="fill:#ffffff;fill-opacity:1;fill-rule:nonzero;stroke:none" id="path104"></path></g><g id="g106" transform="translate(886.8184,432.7393)"><path d="M 0,0 H 1.369 L 0.987,-2.104 2.028,-1.12 H 3.575 L 2.499,-2.118 3.371,-3.458 H 1.613 L 0.946,-2.295 0.635,-3.458 h -1.363 z" style="fill:none;stroke:#ffffff;stroke-width:0.694;stroke-linecap:round;stroke-linejoin:round;stroke-miterlimit:4;stroke-dasharray:none;stroke-opacity:1" id="path108"></path></g><g id="g110" transform="translate(911.6924,431.6582)"><path d="m 0,0 h 1.308 l -0.25,-1.376 c 0,0 -0.123,-0.335 0.268,-0.396 0.393,-0.059 0.571,0.388 0.571,0.388 l 0.336,1.37 H 3.596 L 3.14,-2.431 H 1.757 v 0.374 c 0,0 -0.337,-0.43 -1.272,-0.43 -0.933,0 -0.868,0.99 -0.868,0.99 z" style="fill:#ffffff;fill-opacity:1;fill-rule:nonzero;stroke:none" id="path112"></path></g><g id="g114" transform="translate(911.6924,431.6582)"><path d="m 0,0 h 1.308 l -0.25,-1.376 c 0,0 -0.123,-0.335 0.268,-0.396 0.393,-0.059 0.571,0.388 0.571,0.388 l 0.336,1.37 H 3.596 L 3.14,-2.431 H 1.757 v 0.374 c 0,0 -0.337,-0.43 -1.272,-0.43 -0.933,0 -0.868,0.99 -0.868,0.99 z" style="fill:none;stroke:#ffffff;stroke-width:0.694;stroke-linecap:round;stroke-linejoin:round;stroke-miterlimit:4;stroke-dasharray:none;stroke-opacity:1" id="path116"></path></g><g id="g118" transform="translate(916.293,432.7061)"><path d="M 0,0 H 1.321 L 0.594,-3.436 h -1.406 z" style="fill:#ffffff;fill-opacity:1;fill-rule:nonzero;stroke:none" id="path120"></path></g><g id="g122" transform="translate(916.293,432.7061)"><path d="M 0,0 H 1.321 L 0.594,-3.436 h -1.406 z" style="fill:none;stroke:#ffffff;stroke-width:0.694;stroke-linecap:round;stroke-linejoin:round;stroke-miterlimit:4;stroke-dasharray:none;stroke-opacity:1" id="path124"></path></g><g id="g126" transform="translate(918.5166,432.3242)"><path d="M 0,0 1.472,0.409 1.278,-0.453 c 0,0 -0.066,-0.202 0.145,-0.224 0.213,-0.023 0.43,0 0.43,0 L 1.717,-1.307 H 1.062 L 0.887,-2.163 c 0,0 0.027,-0.306 0.327,-0.316 0.299,-0.012 0.299,0 0.299,0 L 1.39,-3.036 c 0,0 -0.235,-0.131 -0.87,-0.114 -0.636,0.017 -1.153,0.1 -1.074,0.537 0.08,0.436 0.2,1.279 0.2,1.279 h -0.368 l 0.122,0.639 0.277,0.025 c 0,0 0.181,0.059 0.215,0.179 C -0.076,-0.369 0,0 0,0" style="fill:#ffffff;fill-opacity:1;fill-rule:nonzero;stroke:none" id="path128"></path></g><g id="g130" transform="translate(918.5166,432.3242)"><path d="M 0,0 1.472,0.409 1.278,-0.453 c 0,0 -0.066,-0.202 0.145,-0.224 0.213,-0.023 0.43,0 0.43,0 L 1.717,-1.307 H 1.062 L 0.887,-2.163 c 0,0 0.027,-0.306 0.327,-0.316 0.299,-0.012 0.299,0 0.299,0 L 1.39,-3.036 c 0,0 -0.235,-0.131 -0.87,-0.114 -0.636,0.017 -1.153,0.1 -1.074,0.537 0.08,0.436 0.2,1.279 0.2,1.279 h -0.368 l 0.122,0.639 0.277,0.025 c 0,0 0.181,0.059 0.215,0.179 C -0.076,-0.369 0,0 0,0 Z" style="fill:none;stroke:#ffffff;stroke-width:0.694;stroke-linecap:round;stroke-linejoin:round;stroke-miterlimit:4;stroke-dasharray:none;stroke-opacity:1" id="path132"></path></g><g id="g134" transform="translate(885.5967,431.3872)"><path d="M 0,0 C -0.271,0.241 -0.982,0.272 -1.375,0.284 -1.746,0.287 -2.178,0.212 -2.421,0.146 -2.731,0.055 -3.386,-0.245 -3.497,-1.09 c -0.109,-0.844 0.393,-0.997 0.725,-1.097 0.332,-0.1 1.418,-0.164 2.012,0.048 0.592,0.211 0.928,0.574 1.071,1.168 C 0.447,-0.402 0.155,-0.124 0,0 m -1.126,-0.982 c -0.182,-0.665 -0.451,-0.704 -0.681,-0.685 -0.232,0.022 -0.341,0.353 -0.232,0.755 0.111,0.402 0.29,0.594 0.603,0.61 0,0 0.491,-0.017 0.31,-0.68" style="fill:#ffffff;fill-opacity:1;fill-rule:nonzero;stroke:none" id="path136"></path></g><g id="g138" transform="translate(885.5967,431.3872)"><path d="M 0,0 C -0.271,0.241 -0.982,0.272 -1.375,0.284 -1.746,0.287 -2.178,0.212 -2.421,0.146 -2.731,0.055 -3.386,-0.245 -3.497,-1.09 c -0.109,-0.844 0.393,-0.997 0.725,-1.097 0.332,-0.1 1.418,-0.164 2.012,0.048 0.592,0.211 0.928,0.574 1.071,1.168 C 0.447,-0.402 0.155,-0.124 0,0 Z m -1.126,-0.982 c -0.182,-0.665 -0.451,-0.704 -0.681,-0.685 -0.232,0.022 -0.341,0.353 -0.232,0.755 0.111,0.402 0.29,0.594 0.603,0.61 0,0 0.491,-0.017 0.31,-0.68 z" style="fill:none;stroke:#ffffff;stroke-width:0.694;stroke-linecap:round;stroke-linejoin:round;stroke-miterlimit:4;stroke-dasharray:none;stroke-opacity:1" id="path140"></path></g><g id="g142" transform="translate(897.751,431.3872)"><path d="M 0,0 C -0.271,0.241 -0.982,0.272 -1.374,0.284 -1.746,0.287 -2.177,0.212 -2.419,0.146 -2.731,0.055 -3.385,-0.245 -3.495,-1.09 c -0.112,-0.844 0.391,-0.997 0.723,-1.097 0.331,-0.1 1.419,-0.164 2.012,0.048 0.594,0.211 0.929,0.574 1.071,1.168 C 0.448,-0.402 0.155,-0.124 0,0 m -1.126,-0.982 c -0.181,-0.665 -0.449,-0.704 -0.681,-0.685 -0.231,0.022 -0.342,0.353 -0.231,0.755 0.11,0.402 0.29,0.594 0.603,0.61 0,0 0.49,-0.017 0.309,-0.68" style="fill:#ffffff;fill-opacity:1;fill-rule:nonzero;stroke:none" id="path144"></path></g><g id="g146" transform="translate(897.751,431.3872)"><path d="M 0,0 C -0.271,0.241 -0.982,0.272 -1.374,0.284 -1.746,0.287 -2.177,0.212 -2.419,0.146 -2.731,0.055 -3.385,-0.245 -3.495,-1.09 c -0.112,-0.844 0.391,-0.997 0.723,-1.097 0.331,-0.1 1.419,-0.164 2.012,0.048 0.594,0.211 0.929,0.574 1.071,1.168 C 0.448,-0.402 0.155,-0.124 0,0 Z m -1.126,-0.982 c -0.181,-0.665 -0.449,-0.704 -0.681,-0.685 -0.231,0.022 -0.342,0.353 -0.231,0.755 0.11,0.402 0.29,0.594 0.603,0.61 0,0 0.49,-0.017 0.309,-0.68 z" style="fill:none;stroke:#ffffff;stroke-width:0.694;stroke-linecap:round;stroke-linejoin:round;stroke-miterlimit:4;stroke-dasharray:none;stroke-opacity:1" id="path148"></path></g><g id="g150" transform="translate(881.0107,429.2822)"><path d="m 0,0 h -1.442 l 0.593,2.532 h -1.612 l 0.277,0.926 H 2.484 L 2.207,2.532 H 0.595 Z" style="fill:#ffffff;fill-opacity:1;fill-rule:nonzero;stroke:none" id="path152"></path></g><g id="g154" transform="translate(881.0107,429.2822)"><path d="m 0,0 h -1.442 l 0.593,2.532 h -1.612 l 0.277,0.926 H 2.484 L 2.207,2.532 H 0.595 Z" style="fill:none;stroke:#ffffff;stroke-width:0.694;stroke-linecap:round;stroke-linejoin:round;stroke-miterlimit:4;stroke-dasharray:none;stroke-opacity:1" id="path156"></path></g><g id="g158" transform="translate(894.4912,431.626)"><path d="m 0,0 -1.873,-2.566 c 0,0 -0.262,-0.331 -0.592,-0.52 -0.363,-0.207 -0.686,-0.212 -0.744,-0.212 -0.233,0 -0.589,0.043 -0.777,0.156 l 0.124,0.602 0.421,-0.042 c 0.115,-0.023 0.33,0.022 0.442,0.21 0.059,0.099 0.049,0.326 10e-4,0.481 L -3.793,0 h 1.5 L -1.912,-1.083 -1.165,0 Z" style="fill:#ffffff;fill-opacity:1;fill-rule:nonzero;stroke:none" id="path160"></path></g><g id="g162" transform="translate(894.4912,431.626)"><path d="m 0,0 -1.873,-2.566 c 0,0 -0.262,-0.331 -0.592,-0.52 -0.363,-0.207 -0.686,-0.212 -0.744,-0.212 -0.233,0 -0.589,0.043 -0.777,0.156 l 0.124,0.602 0.421,-0.042 c 0.115,-0.023 0.33,0.022 0.442,0.21 0.059,0.099 0.049,0.326 10e-4,0.481 L -3.793,0 h 1.5 L -1.912,-1.083 -1.165,0 Z" style="fill:none;stroke:#ffffff;stroke-width:0.694;stroke-linecap:round;stroke-linejoin:round;stroke-miterlimit:4;stroke-dasharray:none;stroke-opacity:1" id="path164"></path></g><g id="g166" transform="translate(899.3242,432.7319)"><path d="M 0,0 H 1.715 L 2.249,-1.309 3.302,0.004 4.794,0.001 2.641,-2.403 2.37,-3.431 H 0.994 l 0.176,1.013 z" style="fill:#ed1639;fill-opacity:1;fill-rule:nonzero;stroke:none" id="path168"></path></g><g id="g170" transform="translate(906.6768,431.207)"><path d="m 0,0 c -0.09,0.513 -1.012,0.608 -2.128,0.518 -1.115,-0.091 -1.29,-0.626 -1.29,-0.626 v -0.114 h 1.173 c 0.09,0.181 0.42,0.293 0.748,0.252 0.327,-0.041 0.173,-0.426 0.037,-0.514 -0.138,-0.088 -0.777,0.021 -1.141,-0.033 -0.362,-0.055 -0.671,-0.21 -1.006,-0.381 -0.336,-0.171 -0.484,-0.969 0.331,-1.09 0.813,-0.121 1.214,0.048 1.794,0.327 v -0.3 h 1.183 c 0,0 0.39,1.449 0.299,1.961 m -1.62,-1.293 c -0.168,-0.095 -0.249,-0.218 -0.488,-0.218 -0.243,0 -0.369,0.079 -0.352,0.193 0,0 0.076,0.318 0.459,0.365 0.382,0.047 0.507,-0.033 0.507,-0.033 0,0 0.042,-0.212 -0.126,-0.307" style="fill:#ed1639;fill-opacity:1;fill-rule:nonzero;stroke:none" id="path172"></path></g><g id="g174" transform="translate(907.6152,432.7129)"><path d="M 0,0 1.37,0.002 0.987,-2.077 2.029,-1.093 H 3.576 L 2.5,-2.091 3.372,-3.425 H 1.613 l -0.666,1.157 -0.313,-1.184 -1.363,0.014 z" style="fill:#ed1639;fill-opacity:1;fill-rule:nonzero;stroke:none" id="path176"></path></g><g id="g178" transform="translate(886.8184,432.7393)"><path d="M 0,0 H 1.369 L 0.987,-2.104 2.028,-1.12 H 3.575 L 2.499,-2.118 3.371,-3.458 H 1.613 L 0.946,-2.295 0.635,-3.458 h -1.363 z" style="fill:#ed1639;fill-opacity:1;fill-rule:nonzero;stroke:none" id="path180"></path></g><g id="g182" transform="translate(911.6924,431.6582)"><path d="m 0,0 h 1.308 l -0.25,-1.376 c 0,0 -0.123,-0.335 0.268,-0.396 0.393,-0.059 0.571,0.388 0.571,0.388 l 0.336,1.37 H 3.596 L 3.14,-2.431 H 1.757 v 0.374 c 0,0 -0.337,-0.43 -1.272,-0.43 -0.933,0 -0.868,0.99 -0.868,0.99 z" style="fill:#ed1639;fill-opacity:1;fill-rule:nonzero;stroke:none" id="path184"></path></g><g id="g186" transform="translate(916.293,432.7061)"><path d="M 0,0 H 1.321 L 0.594,-3.436 h -1.406 z" style="fill:#ed1639;fill-opacity:1;fill-rule:nonzero;stroke:none" id="path188"></path></g><g id="g190" transform="translate(918.5166,432.3242)"><path d="M 0,0 1.472,0.409 1.278,-0.453 c 0,0 -0.066,-0.202 0.145,-0.224 0.213,-0.023 0.43,0 0.43,0 L 1.717,-1.307 H 1.062 L 0.887,-2.163 c 0,0 0.027,-0.306 0.327,-0.316 0.299,-0.012 0.299,0 0.299,0 L 1.39,-3.036 c 0,0 -0.235,-0.131 -0.87,-0.114 -0.636,0.017 -1.153,0.1 -1.074,0.537 0.08,0.436 0.2,1.279 0.2,1.279 h -0.368 l 0.122,0.639 0.277,0.025 c 0,0 0.181,0.059 0.215,0.179 C -0.076,-0.369 0,0 0,0" style="fill:#ed1639;fill-opacity:1;fill-rule:nonzero;stroke:none" id="path192"></path></g><g id="g194" transform="translate(885.5967,431.3872)"><path d="M 0,0 C -0.271,0.241 -0.982,0.272 -1.375,0.284 -1.746,0.287 -2.178,0.212 -2.421,0.146 -2.731,0.055 -3.386,-0.245 -3.497,-1.09 c -0.109,-0.844 0.393,-0.997 0.725,-1.097 0.332,-0.1 1.418,-0.164 2.012,0.048 0.592,0.211 0.928,0.574 1.071,1.168 C 0.447,-0.402 0.155,-0.124 0,0 m -1.126,-0.982 c -0.182,-0.665 -0.451,-0.704 -0.681,-0.685 -0.232,0.022 -0.341,0.353 -0.232,0.755 0.111,0.402 0.29,0.594 0.603,0.61 0,0 0.491,-0.017 0.31,-0.68" style="fill:#ed1639;fill-opacity:1;fill-rule:nonzero;stroke:none" id="path196"></path></g><g id="g198" transform="translate(897.751,431.3872)"><path d="M 0,0 C -0.271,0.241 -0.982,0.272 -1.374,0.284 -1.746,0.287 -2.177,0.212 -2.419,0.146 -2.731,0.055 -3.385,-0.245 -3.495,-1.09 c -0.112,-0.844 0.391,-0.997 0.723,-1.097 0.331,-0.1 1.419,-0.164 2.012,0.048 0.594,0.211 0.929,0.574 1.071,1.168 C 0.448,-0.402 0.155,-0.124 0,0 m -1.126,-0.982 c -0.181,-0.665 -0.449,-0.704 -0.681,-0.685 -0.231,0.022 -0.342,0.353 -0.231,0.755 0.11,0.402 0.29,0.594 0.603,0.61 0,0 0.49,-0.017 0.309,-0.68" style="fill:#ed1639;fill-opacity:1;fill-rule:nonzero;stroke:none" id="path200"></path></g><g id="g202" transform="translate(881.0107,429.2822)"><path d="m 0,0 h -1.442 l 0.593,2.532 h -1.612 l 0.277,0.926 H 2.484 L 2.207,2.532 H 0.595 Z" style="fill:#ed1639;fill-opacity:1;fill-rule:nonzero;stroke:none" id="path204"></path></g><g id="g206" transform="translate(894.4912,431.626)"><path d="m 0,0 -1.873,-2.566 c 0,0 -0.262,-0.331 -0.592,-0.52 -0.363,-0.207 -0.686,-0.212 -0.744,-0.212 -0.233,0 -0.589,0.043 -0.777,0.156 l 0.124,0.602 0.421,-0.042 c 0.115,-0.023 0.33,0.022 0.442,0.21 0.059,0.099 0.049,0.326 10e-4,0.481 L -3.793,0 h 1.5 L -1.912,-1.083 -1.165,0 Z" style="fill:#ed1639;fill-opacity:1;fill-rule:nonzero;stroke:none" id="path208"></path></g><g id="g210" transform="translate(917.8262,447.606)"><path d="m 0,0 c -2.981,-0.117 -4.487,-0.417 -7.514,-1.777 -2.819,-1.267 -5.557,-3.493 -5.658,-3.666 3.268,4.968 6.954,7.771 7.466,8.094 0.217,0.171 0.139,0.21 -0.049,0.191 -3.129,-0.757 -5.593,-2.497 -7.016,-3.569 -1.423,-1.072 -3.508,-3.238 -3.807,-3.659 -0.298,-0.422 -0.508,-0.681 -0.595,-1.156 -0.089,-0.475 0.317,-1.493 0.42,-1.88 0.104,-0.387 0.257,-1.671 0.222,-1.983 0,0 -0.897,3.035 -1.108,3.071 -0.211,0.035 -0.344,-0.301 -0.42,-0.438 -0.842,-1.523 -1.567,-2.026 -1.567,-2.026 2.239,3.319 3.326,7.841 3.457,8.37 0.13,0.53 0.837,0.874 0.837,0.874 0,0 1.16,0.661 2.32,1.821 1.159,1.161 1.793,2.537 2.214,3.873 0.422,1.336 1.686,3.733 1.962,5.448 0.656,4.078 -1.723,7.219 -2.402,7.993 -0.679,0.774 -2.756,3.113 -6.342,3.793 -3.586,0.68 -6.661,-1.795 -6.907,-1.957 -0.247,-0.163 -0.617,-0.092 -1.042,0.059 -0.914,0.305 -2.575,0.95 -4.542,0.668 -1.969,-0.28 -2.748,-1.788 -2.607,-3.148 0.141,-1.36 1.604,-2.468 1.803,-2.655 0.201,-0.187 0.025,-0.327 0.025,-0.327 l -0.765,-0.64 c 0,0 -0.42,-0.016 -0.489,-0.181 -0.071,-0.163 0.002,-0.322 0.181,-0.445 0.177,-0.123 0.204,-0.114 0.204,-0.114 -0.609,-0.047 -0.925,-0.331 -1.276,-0.729 -1.289,-1.618 -1.903,-3.083 -2.05,-3.263 -0.147,-0.18 -0.255,-0.022 -0.255,-0.022 0,0 -0.415,0.438 -0.544,0.643 -0.131,0.205 -0.269,0.04 -0.269,0.04 l -0.639,-0.227 c 2.25,1.571 2.234,3.378 2.248,4.382 0.012,1.003 -1.039,1.773 -1.255,1.88 -0.218,0.105 -0.243,0.323 -0.266,0.577 -0.106,1.617 -1.531,2.997 -1.531,2.997 3.218,9.316 5.843,12.627 6.791,14.174 0.951,1.547 3.328,4.459 3.187,7.377 -0.141,2.918 -1.45,3.558 -2.478,4.196 -3.421,1.675 -6.192,-0.228 -7.69,-1.755 -3.429,-3.496 -4.273,-6.66 -4.992,-9.336 -1.426,-4.636 -1.188,-13.529 -1.188,-13.529 -1.743,-0.958 -2.351,-2.373 -2.469,-2.724 -0.117,-0.352 -0.209,-0.922 -0.201,-1.022 0.01,-0.099 0.004,-0.353 -0.021,-0.477 -0.304,-0.539 -0.816,-1.774 -0.931,-2.617 -0.118,-0.844 0.036,-2.175 0.295,-2.908 0.259,-0.732 0.738,-1.685 0.809,-2.083 0.07,-0.399 0.225,-0.623 0.717,-1.28 0.494,-0.656 1.337,-0.896 1.498,-0.967 0.16,-0.072 0.156,-0.727 0.12,-0.967 -0.037,-0.24 -0.235,-0.186 -0.353,-0.197 -0.608,-0.024 -1.859,-0.32 -2.632,-1.374 -0.774,-1.055 -0.518,-2.083 -0.589,-2.411 -0.069,-0.328 -0.438,-0.915 -0.531,-1.29 -0.095,-0.375 -0.037,-0.955 0.023,-1.195 0.059,-0.24 0.6,-0.931 0.646,-1.125 0.023,-0.352 -0.282,-0.21 -0.236,-1.405 0.048,-1.196 0.963,-1.915 1.219,-2.009 0.259,-0.093 0.497,-0.296 0.537,-0.452 0.04,-0.155 -0.016,-0.468 0.124,-1.03 0.142,-0.564 0.922,-1.105 0.922,-1.105 0,0 0.708,-0.225 0.357,-0.506 -0.352,-0.282 -0.989,-0.72 -1.177,-0.931 -0.187,-0.21 -1.05,-1.439 -0.159,-2.54 0.89,-1.102 3.603,-1.051 5.595,-0.441 1.992,0.609 2.19,1.632 2.073,2.195 -0.117,0.562 -0.681,0.995 -0.951,1.266 -0.271,0.272 -0.285,0.468 -0.325,0.674 -0.073,0.164 -0.132,0.56 0.11,0.56 0.797,0.234 2.278,1.165 2.569,1.359 0.293,0.195 0.517,0.211 0.547,-0.064 0.344,-2.303 1.398,-4.487 2.076,-5.775 0.098,-0.185 0.204,-0.374 0.316,-0.561 h 21.676 c 0.102,0.126 0.196,0.244 0.271,0.34 C -5.61,-2.864 0.17,-0.232 0.68,-0.118 0.995,0.005 0.159,-0.038 0,0" style="fill:#231f20;fill-opacity:1;fill-rule:nonzero;stroke:none" id="path212"></path></g><g id="g214" transform="translate(907.2734,465.5508)"><path d="m 0,0 c -1.431,2.671 -4.428,4.22 -5.388,4.595 -0.681,0.266 -1.475,0.373 -1.881,0.413 l -0.05,0.019 c 0,0 -0.303,0.04 -0.951,0.122 C -8.918,5.23 -9.383,5.087 -9.383,5.087 L -9.392,5.073 C -9.421,5.066 -9.443,5.062 -9.479,5.049 c 0,0 -2.157,-0.409 -3.354,-1.417 -0.294,-0.231 -0.532,-0.496 -0.638,-0.636 l 2.396,-1.562 c 0,0 0.034,-0.047 1.207,-0.958 0.88,-0.683 1.474,-1.525 1.718,-1.903 v -0.006 c 0.005,-0.006 0.011,-0.015 0.016,-0.021 0.07,-0.108 0.107,-0.173 0.107,-0.173 l 0.038,0.007 c 0.452,-0.578 1.025,-1.747 1.401,-2.645 0.423,-1.007 0.645,-2.33 0.552,-2.799 -0.141,1.149 -1.115,3.548 -2.359,5.165 -1.242,1.617 -3.632,3.575 -5.881,4.653 -2.25,1.079 -4.15,1.198 -5.298,1.058 -1.149,-0.14 -2.42,-1.493 -2.153,-2.901 0.27,-1.409 1.47,-2.119 1.47,-2.119 0.384,-0.427 0.566,-0.233 0.566,-0.233 0,0 0.372,0.35 1.309,0.725 0.938,0.375 1.149,0.205 1.538,-0.015 0.392,-0.221 0.394,-1.558 0.394,-1.558 0,0 -0.016,-0.556 0.117,-0.559 0.327,0.047 0.52,1.562 0.52,1.562 1.782,0 3.043,-0.995 3.597,-1.318 0.556,-0.325 0.569,-0.562 0.569,-0.562 0,0 -1.146,-0.587 -1.498,-0.891 -0.35,-0.304 0.049,-0.304 0.049,-0.304 0,0 1.617,0.429 2.273,0.429 0.657,0 1.181,-0.121 1.344,-0.825 0.166,-0.703 -0.161,-2.124 -0.161,-2.124 0,0 -0.24,-0.722 0.042,-0.722 0.281,0 0.785,1.313 0.785,1.313 0.563,-0.633 0.631,-1.165 0.702,-2.525 0.07,-1.359 -0.152,-2.479 -0.152,-2.479 0.257,0.07 0.465,0.108 0.301,-0.384 -0.163,-0.493 -0.605,-1.878 -0.726,-2.785 -0.235,-2.157 1.152,-2.772 2.388,-2.774 2.577,0.094 4.488,2.805 4.877,3.478 0.39,0.673 0.663,2.007 0.709,2.27 0.046,0.263 0.096,0.447 0.282,0.901 0.198,0.512 0.528,1.219 1.139,2.61 C 1.715,-4.978 1.429,-2.672 0,0" style="fill:#1d1e48;fill-opacity:1;fill-rule:nonzero;stroke:none" id="path216"></path></g><g id="g218" transform="translate(872.5977,467.7661)"><path d="M 0,0 C 0,0 0.699,1.142 1.754,1.459 2.809,1.775 4.225,1.798 5.038,1.581 5.854,1.364 7.687,0.683 8.355,-1.005 9.023,-2.692 8.659,-3.537 7.955,-4.311 l -0.578,0.753 c 0,0 0.929,0.704 0.752,1.793 -0.176,1.09 -1.721,2.583 -3.092,2.689 0,0 -1.223,0.125 -1.369,0.027 C 3.522,0.852 3.279,0.696 2.928,0.626 2.577,0.555 1.994,0.934 0,0" style="fill:#ffffff;fill-opacity:1;fill-rule:nonzero;stroke:none" id="path220"></path></g><g id="g222" transform="translate(878.8184,464.3809)"><path d="M 0,0 C 0,0 1.187,-0.538 1.468,-1.71 1.749,-2.881 1.508,-3.434 1.086,-3.974 L 0.78,-3.403 c 0,0 0.149,0.179 0.216,0.371 0.068,0.192 0.163,0.873 -0.1,1.527 C 0.633,-0.849 0.314,-0.387 0,0" style="fill:#ffffff;fill-opacity:1;fill-rule:nonzero;stroke:none" id="path224"></path></g><g id="g226" transform="translate(881.2783,463.2822)"><path d="M 0,0 C 0,0 0.296,0.735 0.4,0.923 0.506,1.11 0.643,1.093 0.737,1.059 0.831,1.023 1.381,0.728 1.51,-0.069 1.639,-0.865 1.407,-2.181 0.893,-2.825 0.821,-2.931 0.729,-2.846 0.794,-2.705 0.855,-2.564 1.177,-1.874 1.165,-1.031 1.152,-0.186 0.972,0.221 0.632,0.233 0.293,0.244 0.183,0.108 0,0" style="fill:#ffffff;fill-opacity:1;fill-rule:nonzero;stroke:none" id="path228"></path></g><g id="g230" transform="translate(877.998,461.5181)"><path d="M 0,0 C 0,0 -0.108,0.099 0.056,0.076 0.22,0.052 1.229,-0.46 1.405,-1.48 1.581,-2.498 1.227,-3.637 0.056,-4.014 c -0.091,-10e-4 -0.109,0.035 -0.115,0.097 -0.006,0.06 0.005,0.338 0.005,0.338 0,0 0.04,0.079 0.123,0.099 0.084,0.021 0.77,0.208 0.922,1.109 C 1.143,-1.469 0.925,-0.684 0,0" style="fill:#ffffff;fill-opacity:1;fill-rule:nonzero;stroke:none" id="path232"></path></g><g id="g234" transform="translate(876.4746,458.7979)"><path d="m 0,0 c 0,0 0.446,0.059 0.717,-0.399 0.268,-0.457 0.37,-1.574 -0.977,-2.031 0,0 0.753,0.516 0.813,1.243 C 0.61,-0.46 0.398,-0.381 0,0" style="fill:#ffffff;fill-opacity:1;fill-rule:nonzero;stroke:none" id="path236"></path></g><g id="g238" transform="translate(879.0107,490.6108)"><path d="M 0,0 C 0,0 2.509,3.454 5.462,3.804 6.711,3.923 9.386,3.672 10.416,1.117 10.688,0.393 11.063,-0.539 10.429,-2.484 9.796,-4.43 6.274,-9.717 5.643,-10.692 4.425,-12.564 1.937,-17.986 0.53,-21.573 c 0,0 -2.023,1.332 -4.858,0.817 0,0 -0.445,5.977 0.602,11.511 C -3.288,-7.224 -2.641,-3.775 0,0" style="fill:#fff200;fill-opacity:1;fill-rule:nonzero;stroke:none" id="path240"></path></g><g id="g242" transform="translate(874.5566,455.3701)"><path d="m 0,0 c 0,0 -0.016,0.131 0.144,0.116 0.158,-0.015 1.317,0.166 1.721,0.36 0.405,0.192 0.929,0.519 1.123,0.783 0,0 0.168,-0.06 -0.029,-0.261 C 2.763,0.796 2.438,0.371 2.317,0.088 2.198,-0.196 2.035,-0.533 1.86,-1.199 l -1.881,0.26 z" style="fill:#fff200;fill-opacity:1;fill-rule:nonzero;stroke:none" id="path244"></path></g><g id="g246" transform="translate(888.5254,464.2949)"><path d="m 0,0 c 0,0 0.638,0.426 0.935,0.322 0.296,-0.104 0.977,-0.286 0.18,-2.114 -0.797,-1.827 -1.388,-3.336 -1.388,-3.336 0,0 -0.221,2.111 -0.34,2.376 -0.118,0.263 -0.434,0.975 -0.831,1.139 0,0 0.44,0.486 0.981,0.767 0.537,0.281 0.994,0.203 1.057,0.135 0.061,-0.068 0.292,-0.244 0.315,-0.737 0,0 0.175,0.021 0.185,0.238 0.01,0.216 0.057,0.995 -0.763,1.042 0,0 -0.644,-0.117 -0.331,0.168" style="fill:#ffffff;fill-opacity:1;fill-rule:nonzero;stroke:none" id="path248"></path></g><g id="g250" transform="translate(886.6279,462.2109)"><path d="M 0,0 C 0,0 0.54,0.056 0.914,-1.234 1.29,-2.523 1.257,-3.8 1.187,-4.338 l -2.242,-0.358 c 0,0 -0.507,0.41 -0.492,0.885 0.013,0.474 0.111,1.39 0.322,1.788 C -1.014,-1.624 -0.521,-0.578 0,0" style="fill:#ffffff;fill-opacity:1;fill-rule:nonzero;stroke:none" id="path252"></path></g><g id="g254" transform="translate(889.6953,457.207)"><path d="M 0,0 C 0,0 1.011,0.413 1.369,0.75 1.728,1.086 3.563,2.781 4.687,3.25 5.812,3.718 6.819,3.695 7.055,3.343 7.29,2.992 7.199,2.727 6.931,2.841 6.663,2.956 6.38,3.241 5.56,3.123 4.738,3.006 4.25,2.681 4.367,2.517 4.675,2.475 5.184,2.649 5.629,2.625 6.074,2.601 6.652,2.365 6.795,1.662 6.934,0.958 6.931,-0.551 5.852,-1.676 c 0,0 0.701,1.823 0.397,2.573 C 5.942,1.647 5.052,1.582 4.647,1.236 4.244,0.89 3.733,0.343 3.758,0.085 3.79,0 4.541,-1.042 4.541,-1.042 l -1.177,0.253 c 0,0 -0.16,0.079 -0.394,-0.408 -0.234,-0.487 -0.609,-1.542 -0.516,-1.993 0.09,-0.451 0.163,-0.617 0.626,-0.844 0,0 -0.384,-0.18 -0.708,-0.167 -0.326,0.012 -1.007,0.098 -1.054,0.659 -0.047,0.563 0,0.658 -0.233,1.478 C 0.85,-1.244 0.645,-0.834 0,0" style="fill:#ffffff;fill-opacity:1;fill-rule:nonzero;stroke:none" id="path256"></path></g><g id="g258" transform="translate(884.0967,459.7852)"><path d="M 0,0 C 0,0 0.25,0.3 0.413,0.23 0.578,0.16 0.589,-0.142 0.589,-0.142 L 0.61,-0.494 c 0,0 -0.041,-0.686 0.002,-0.984 0.045,-0.298 0.216,-0.744 0.358,-0.955 l -2.204,-0.739 c 0,0 0.141,1.018 0.381,1.518 C -0.611,-1.154 -0.43,-0.578 0,0" style="fill:#ed1639;fill-opacity:1;fill-rule:nonzero;stroke:none" id="path260"></path></g><g id="g262" transform="translate(890.9678,452.897)"><path d="m 0,0 c 0,0 0.677,-0.311 1.075,-0.271 0.4,0.04 0.78,0.132 1.082,0.263 C 2.46,0.121 3.854,1.045 4.03,1.151 4.205,1.256 4.976,1.818 5.913,1.538 6.851,1.256 7.151,0.37 7.243,-0.168 7.338,-0.707 7.337,-1.929 6.798,-2.632 6.258,-3.335 5.646,-3.869 4.239,-3.893 3.402,-3.948 2.247,-3.389 2.247,-3.389 l -4.282,1.761 c 0.656,0.117 0.943,0.25 1.366,0.555 C -0.248,-0.769 -0.132,-0.452 0,0" style="fill:#ed1639;fill-opacity:1;fill-rule:nonzero;stroke:none" id="path264"></path></g><g id="g266" transform="translate(888.4121,457.3369)"><path d="M 0,0 C 0.599,-0.169 1.187,-0.676 1.479,-1.194 1.77,-1.711 2.478,-3.496 2.08,-4.457 1.682,-5.418 1.217,-5.769 -0.307,-5.652 c -1.023,0.216 -1.258,0.333 -1.657,0.661 l 1.36,0.282 c 0,0 0.331,-0.065 0.454,-0.158 0.123,-0.094 0.622,-0.323 0.739,-0.066 0.117,0.258 -0.287,0.429 -0.287,0.429 0,0 -0.286,0.231 -0.343,0.354 -0.059,0.123 -0.071,0.589 -0.071,0.589 0,0 -0.277,-0.237 -0.254,-0.394 0.021,-0.157 0.137,-0.424 -0.336,-0.46 -0.475,-0.035 -3.191,-0.352 -4.877,0.352 -1.69,0.703 -1.19,1.756 -0.299,2.53 0.891,0.773 2.95,1.311 3.325,1.404 C -2.179,-0.035 -0.99,0.28 0,0" style="fill:#fff200;fill-opacity:1;fill-rule:nonzero;stroke:none" id="path268"></path></g><g id="g270" transform="translate(870.6611,451.103)"><path d="m 0,0 c 0,0 -0.021,0.45 0.121,0.919 0.14,0.469 0.765,1.456 1.772,1.738 1.008,0.28 2.684,0.08 2.684,0.08 L 6.161,2.43 c 0,0 0.418,1.541 0.628,1.869 0.211,0.328 0.883,1.287 1.819,1.287 0.939,0 1.464,-0.942 1.487,-1.246 0,0 -0.689,0.718 -1.392,0.694 C 8,5.011 7.307,4.498 7.073,4.03 6.838,3.561 6.558,3.203 6.276,2.054 5.375,2.175 3.667,2.485 2.401,2.039 1.136,1.594 0.813,1.066 0.646,0.324 Z" style="fill:#ffffff;fill-opacity:1;fill-rule:nonzero;stroke:none" id="path272"></path></g><g id="g274" transform="translate(871.4658,450.8491)"><path d="m 0,0 c 0,0 -1.178,-0.377 -1.365,-1.642 -0.187,-1.266 0.589,-1.605 0.589,-1.605 l 0.664,0.608 c 0,0 -0.528,-0.038 -0.649,0.274 -0.123,0.313 -0.241,0.882 0.04,1.351 0.282,0.468 0.743,0.943 0.743,0.943 z" style="fill:#ffffff;fill-opacity:1;fill-rule:nonzero;stroke:none" id="path276"></path></g><g id="g278" transform="translate(872.0039,447.9292)"><path d="m 0,0 c 0,0 -1.194,-0.593 -1.404,-1.577 -0.212,-0.984 0.184,-2.257 1.637,-2.515 0.377,-0.027 0.664,0.01 0.968,0.034 0,0 -0.11,0.1 -0.468,0.205 -0.359,0.105 -1.431,0.729 -1.549,1.595 -0.117,0.867 0.226,1.671 0.813,2.116 0,0 0.162,0.085 0.003,0.142" style="fill:#ffffff;fill-opacity:1;fill-rule:nonzero;stroke:none" id="path280"></path></g><g id="g282" transform="translate(872.4531,443.2632)"><path d="m 0,0 0.666,-0.029 c 0,0 -0.221,-0.449 -0.143,-0.749 0.08,-0.301 0.267,-0.681 0.645,-0.873 0.378,-0.194 0.562,-0.329 1.548,-0.4 0,0 0.171,-0.149 -0.07,-0.152 C 2.405,-2.206 1.525,-2.283 0.7,-1.829 -0.091,-1.393 -0.091,-0.361 0,0" style="fill:#ffffff;fill-opacity:1;fill-rule:nonzero;stroke:none" id="path284"></path></g><g id="g286" transform="translate(881.2227,454.3101)"><path d="m 0,0 c 0,0 0.23,-0.726 0.283,-0.927 0.052,-0.203 0.08,-0.336 0.309,-0.392 0.228,-0.056 1.577,-0.279 1.719,-0.325 0.14,-0.047 2.749,-0.743 3.125,-1.071 0,0 -3.296,0.788 -4.256,0.788 -0.526,0.035 -0.999,0.128 -0.999,0.128 0,0 -0.305,-0.093 -0.311,0.452 -0.008,0.545 -0.048,1.409 -0.048,1.409 z" style="fill:#ffffff;fill-opacity:1;fill-rule:nonzero;stroke:none" id="path288"></path></g><g id="g290" transform="translate(895.8857,448.4712)"><path d="m 0,0 1.734,-0.166 c 0,0 0.33,-0.125 0.286,-0.359 C 1.973,-0.76 1.677,-0.839 1.383,-0.71 c -0.296,0.131 -1.359,0.6 -1.359,0.6 z" style="fill:#ffffff;fill-opacity:1;fill-rule:nonzero;stroke:none" id="path292"></path></g><g id="g294" transform="translate(886.2959,467.1768)"><path d="M 0,0 C 0,0 -0.056,0.401 0.154,0.788 0.366,1.174 0.914,1.6 1.863,1.705 2.813,1.81 4.359,1.623 5.976,0.954 7.593,0.286 9.844,-1.159 11.32,-2.811 c 1.478,-1.652 1.389,-1.996 1.389,-1.996 0,0 -0.088,-0.397 -0.686,0.166 -0.79,1.078 -1.729,2.295 -3.752,3.435 C 6.246,-0.067 4.114,1.003 2.004,1.038 1.723,1.03 0.422,1.019 0,0" style="fill:#ffffff;fill-opacity:1;fill-rule:nonzero;stroke:none" id="path296"></path></g><g id="g298" transform="translate(902.9199,453.395)"><path d="m 0,0 c 0,0 -0.524,-0.261 -0.829,-0.589 -0.304,-0.328 -0.584,-0.948 -0.584,-0.948 0,0 -0.034,-0.218 0.032,-0.294 0.067,-0.076 0.357,-0.233 0.509,10e-4 0.151,0.236 0.433,1.026 0.961,1.426 0,0 0.266,0.213 0.22,0.353 C 0.261,0.09 0,0 0,0" style="fill:#ffffff;fill-opacity:1;fill-rule:nonzero;stroke:none" id="path300"></path></g><g id="g302" transform="translate(904.0742,451.6201)"><path d="m 0,0 c -0.281,-0.586 -0.546,-0.794 -0.94,-1.177 -0.136,-0.145 -0.731,-0.491 -1.106,-0.304 -0.375,0.188 -0.3,0.712 -0.252,0.965 0.049,0.253 0.179,0.216 0.278,0.053 0,0 0.184,-0.315 0.443,-0.386 0.257,-0.069 0.681,0.248 1.056,0.765 0.375,0.515 0.493,1.192 0.487,1.374 -0.007,0.181 -0.494,0.464 -0.494,0.464 0.037,0.093 0.124,0.188 0.275,0.138 C -0.104,1.841 0.07,1.774 0.193,1.599 0.317,1.422 0.399,1.019 0.276,0.668 0.153,0.317 0,0 0,0" style="fill:#231f20;fill-opacity:1;fill-rule:nonzero;stroke:none" id="path304"></path></g><g id="g306" transform="translate(900.623,452.8149)"><path d="m 0,0 c -0.11,-0.317 -0.422,-1.441 -0.422,-1.441 0,0 -0.224,-1.07 -0.175,-1.371 0.048,-0.3 0.229,-0.736 0.737,-0.929 0,0 0.192,-0.176 -0.175,-0.194 -0.37,-0.017 -0.759,0.102 -1.136,0.788 0,0 -0.131,0.95 -0.007,1.442 0.122,0.493 0.473,1.776 0.65,2.109 C -0.354,0.739 -0.23,1.02 -0.3,1.424 -0.37,1.829 -0.412,1.966 -0.412,1.966 -0.128,1.716 0.219,1.547 0.253,1.107 0.289,0.669 0,0 0,0" style="fill:#ffffff;fill-opacity:1;fill-rule:nonzero;stroke:none" id="path308"></path></g><g id="g310" transform="translate(899.4521,449.668)"><path d="m 0,0 c -0.144,0.175 -0.197,0.424 -0.269,0.792 -0.073,0.37 0.117,1.243 0.187,1.632 0.071,0.389 0.549,1.559 0.649,1.844 0.1,0.286 0.191,0.845 0.191,0.845 C 0.924,4.466 1.064,4.343 0.783,3.622 0.448,2.779 0.149,1.812 0.062,1.162 -0.026,0.511 0,0 0,0" style="fill:#231f20;fill-opacity:1;fill-rule:nonzero;stroke:none" id="path312"></path></g><g id="g314" transform="translate(878.0859,484.8242)"><path d="M 0,0 C 0,0 -0.102,0.554 0.432,1.794 0.967,3.034 1.92,5.096 3.29,6.538 4.662,7.979 6.251,8.563 6.778,8.176 7.305,7.789 7.146,7.243 6.62,6.855 6.095,6.466 3.661,4.349 3.256,3.778 2.852,3.207 0.813,-0.03 0.566,-0.311 0.426,-0.394 0.008,-0.562 0,0" style="fill:#ffffff;fill-opacity:1;fill-rule:nonzero;stroke:none" id="path316"></path></g><g id="g318" transform="translate(907.2754,462.7471)"><path d="m 0,0 c 0,0 -0.081,-1.47 -0.435,-2.665 -0.349,-1.195 -0.887,-2.269 -0.887,-2.269 0,0 -0.136,-0.199 -0.126,-0.41 0.009,-0.21 0.258,-1.511 0.258,-1.511 0,0 0.166,-0.297 0.361,-0.026 0.193,0.272 1.294,1.783 1.435,3.858 0.14,2.073 -0.08,2.637 -0.36,3.376 C 0.246,0.353 0.007,0.668 0,0" style="fill:#ffffff;fill-opacity:1;fill-rule:nonzero;stroke:none" id="path320"></path></g><g id="g322" transform="translate(874.1152,440.5649)"><path d="m 0,0 c 0,0 1.854,-0.096 3.285,0.326 0,0 0.21,-0.807 0.547,-1.06 0.337,-0.251 0.845,-0.767 0.867,-1.165 0.025,-0.4 -0.024,-0.969 -0.889,-1.327 -0.867,-0.358 -2.007,-0.815 -4.022,-0.675 -2.017,0.141 -1.886,1.672 -1.768,2.024 0.118,0.35 0.671,0.909 0.907,1.096 C -0.839,-0.593 -0.216,-0.321 0,0" style="fill:#fff200;fill-opacity:1;fill-rule:nonzero;stroke:none" id="path324"></path></g><g id="g326" transform="translate(873.4697,437.7529)"><path d="m 0,0 c -0.026,0.114 -0.059,0.314 -0.038,0.472 0.061,0.29 0.472,0.493 1.21,0.643 0.738,0.149 1.862,0.064 1.862,0.064 L 3.146,1.266 C 2.326,1.594 1.182,1.632 0.384,1.422 -0.412,1.211 -0.629,0.786 -0.616,0.575 -0.604,0.385 -0.517,0.233 -0.377,0.118 -0.237,0.003 -0.152,-0.008 0,0" style="fill:#231f20;fill-opacity:1;fill-rule:nonzero;stroke:none" id="path328"></path></g><g id="g330" transform="translate(901.3604,469.1479)"><path d="M 0,0 -0.135,0.153 -0.18,0.16 0.268,0.551 -0.663,0.726 -1.62,0.901 -1.86,0.93 -2.085,0.734 -2.018,0.808 -2.302,1.794 h -1.019 l -1.575,-1.488 -0.117,-0.125 -0.634,0.237 -0.78,0.285 0.09,-0.744 0.217,-1.746 1.115,-0.787 0.161,-0.145 0.446,-0.119 0.191,-0.448 0.94,-0.838 1.546,-0.218 0.453,-0.022 0.429,2.72 0.091,-0.221 0.133,-0.251 2.38,-0.288 z" style="fill:#000000;fill-opacity:1;fill-rule:nonzero;stroke:none" id="path332"></path></g><g id="g334" transform="translate(898.1738,465.7959)"><path d="M 0,0 -0.49,1.076 1.163,2.516 0.816,-0.035 Z M 3.898,1.604 2.83,3.06 2.818,3.075 2.797,3.08 1.962,3.211 2.382,3.576 2.439,3.626 2.355,3.641 1.501,3.797 1.476,3.803 1.456,3.786 -0.055,2.477 -0.749,3.005 0.639,4.264 0.656,4.28 0.65,4.3 0.455,4.975 0.434,5.052 0.37,4.992 -1.38,3.336 -1.391,3.325 -1.39,3.31 -1.366,2.832 -1.364,2.813 -1.345,2.801 -0.382,2.195 -1.284,1.414 -1.852,1.522 -1.681,2.958 -1.677,2.986 -1.71,2.999 -2.618,3.338 -2.696,3.366 -2.688,3.299 -2.445,1.346 -2.44,1.319 -2.41,1.311 -0.877,0.899 -0.39,-0.243 -0.381,-0.266 -0.35,-0.27 1.479,-0.528 1.529,-0.534 1.534,-0.494 2.051,2.777 2.409,2.773 2.853,1.688 2.862,1.664 2.894,1.661 3.853,1.545 3.95,1.533 Z" style="fill:#ffffff;fill-opacity:1;fill-rule:nonzero;stroke:none" id="path336"></path></g><g id="g338" transform="translate(884.4053,436.2432)"><path d="M 0,0 H 10.334 C 10.186,0.634 9.996,1.301 9.772,1.954 9.21,3.595 7.979,5.35 7.979,5.35 L 7.286,6.327 C 7.496,6.42 7.616,6.366 7.834,6.24 9.311,5.795 10.37,4.902 10.37,4.902 c 0,0 0.814,-0.704 1.053,-0.6 0.443,0.422 -0.506,0.992 -0.868,1.212 C 9.499,6.113 7.327,6.903 3.847,7.324 0.366,7.747 -2.06,7.034 -2.06,7.034 -2.036,3.987 -1.263,2.534 -0.762,1.352 -0.62,1.019 -0.333,0.527 0,0" style="fill:#ffffff;fill-opacity:1;fill-rule:nonzero;stroke:none" id="path340"></path></g><g id="g342" transform="translate(883.915,436.1411)"><path d="M 0,0 H 21.57 L 21.64,0.102 10.879,0.187 H -0.085 Z" style="fill:#231f20;fill-opacity:1;fill-rule:nonzero;stroke:none" id="path344"></path></g><g id="g346" transform="translate(883.5156,441.7349)"><path d="m 0,0 c 0.267,0.148 0.937,0.288 0.937,0.288 0,0 0.68,0.154 0.976,0.061 C 2.21,0.259 2.355,0.035 2.281,-0.216 2.207,-0.468 1.947,-0.621 1.759,-0.655 1.676,-0.675 1.563,-0.677 1.527,-0.638 c 0.019,0.01 0.026,0.005 0.041,0.046 0,0 -0.211,-0.011 -0.26,0.052 l 0.043,0.033 c 0,0 0.023,0.016 0.008,0.035 -0.053,0.008 -0.271,0.024 -0.328,0.215 0.036,-0.012 0.162,-0.068 0.3,-0.051 0.138,0.017 0.406,0.072 0.415,0.207 C 1.754,0.034 1.544,0.005 1.472,0.002 1.33,-0.011 1.153,-0.024 0.985,-0.081 0.818,-0.139 0.704,-0.208 0.689,-0.283 0.688,-0.32 0.722,-0.36 0.74,-0.381 c 0.02,-0.022 0.917,-0.86 0.917,-0.86 0,0 0.132,-0.136 0.089,-0.318 C 1.703,-1.743 1.556,-1.889 1.413,-1.991 1.271,-2.094 0.697,-2.465 0.491,-2.547 0.297,-2.624 0.213,-2.582 0.111,-2.498 c -0.1,0.078 -0.422,0.379 -0.422,0.379 0,0 -0.095,0.126 0.024,0.257 0.12,0.132 0.393,0.277 0.566,0.33 l 0.28,-0.253 C 0.504,-1.783 0.438,-1.777 0.392,-1.788 0.342,-1.8 0.185,-1.865 0.147,-1.925 c -0.036,-0.06 0.066,-0.224 0.214,-0.224 0.15,0 0.226,0.08 0.272,0.111 0.044,0.032 0.199,0.185 0.199,0.185 0,0 0.076,0.08 0.006,0.181 -0.07,0.1 -0.954,0.844 -0.954,0.844 -0.074,0.068 -0.238,0.197 -0.212,0.405 C -0.304,-0.214 -0.058,-0.032 0,0" style="fill:#1d1e48;fill-opacity:1;fill-rule:nonzero;stroke:none" id="path348"></path></g><g id="g350" transform="translate(889.9072,440.3301)"><path d="m 0,0 c -0.046,-0.137 -0.189,-0.343 -0.265,-0.393 -0.073,-0.05 -0.098,-0.075 -0.15,-0.05 -0.053,0.026 -0.079,0.098 -0.048,0.192 0.03,0.094 0.124,0.237 0.194,0.311 0.073,0.074 0.146,0.14 0.226,0.104 0,0 0.088,-0.027 0.043,-0.164 m -2.599,0.085 c 0,0 -0.138,-0.311 -0.198,-0.442 -0.059,-0.131 -0.206,-0.236 -0.296,-0.193 -0.088,0.044 -0.044,0.201 0.066,0.356 0.116,0.164 0.363,0.285 0.363,0.285 0.078,0.043 0.065,-0.006 0.065,-0.006 m 4.19,0.898 C 1.464,0.701 1.036,0.066 1.036,0.066 c 0,0 0.057,0.315 0.063,0.343 C 1.105,0.437 1.104,0.495 1.085,0.504 1.064,0.512 1.023,0.474 1.023,0.474 L 0.687,0.091 c 0,0 0.118,0.275 0.14,0.326 0.024,0.051 0.019,0.067 0.018,0.083 0,0 -0.134,0.216 -0.186,0.276 L 0.313,0.034 0.321,0.164 C 0.318,0.335 0.229,0.402 0.174,0.422 c -0.058,0.02 -0.145,0 -0.145,0 -0.043,0.057 -0.132,0.1 -0.266,0.081 -0.305,-0.063 -0.499,-0.462 -0.552,-0.558 -0.054,-0.097 -0.197,-0.18 -0.197,-0.18 l 0.661,1.476 -0.496,-0.024 c 0,0 -0.519,-1.142 -0.589,-1.271 -0.071,-0.129 -0.239,-0.238 -0.239,-0.238 L -0.98,1.211 -1.46,1.192 c 0,0 -0.51,-1.127 -0.579,-1.269 -0.069,-0.144 -0.082,-0.138 -0.16,-0.218 -0.079,-0.08 -0.152,-0.098 -0.152,-0.098 0,0 0.319,0.703 0.354,0.793 0.034,0.09 -0.063,0.096 -0.063,0.096 L -2.413,0.478 -2.438,0.422 C -2.521,0.461 -2.651,0.475 -2.824,0.418 -3.038,0.34 -3.179,0.163 -3.253,0.1 l 0.264,0.516 c 0,0 0.084,0.194 0.094,0.238 0.013,0.049 -0.006,0.096 -0.017,0.132 -0.012,0.036 -0.038,0.036 -0.052,0.013 L -3.229,0.645 -3.718,0.023 c 0,0 0.065,0.368 0.035,0.393 -0.042,0.035 -0.088,-0.021 -0.088,-0.021 l -0.328,-0.378 0.158,0.468 -0.38,0.22 -0.177,-0.585 c 0,0 -0.253,-0.861 -0.273,-0.947 -0.018,-0.087 0.024,-0.172 0.075,-0.187 0.224,-0.041 0.448,0.374 0.448,0.374 0,0 -0.058,-0.331 0.089,-0.353 0.144,-0.024 0.389,0.321 0.389,0.321 l 0.242,0.332 c -0.07,-0.225 -0.024,-0.531 0.147,-0.594 0.172,-0.062 0.361,0.071 0.493,0.156 0.015,-0.097 0.062,-0.144 0.129,-0.161 0.18,-0.035 0.34,0.138 0.434,0.218 0,0 -0.028,-0.201 0.169,-0.195 0.203,0.007 0.414,0.22 0.525,0.319 -0.085,-0.234 0.038,-0.276 0.102,-0.281 0.264,-0.024 0.59,0.291 0.661,0.353 0.036,-0.173 0.092,-0.269 0.258,-0.32 0.349,-0.071 0.672,0.374 0.784,0.54 0,0 -0.19,-0.46 -0.03,-0.517 0.151,-0.055 0.304,0.169 0.438,0.36 0,0 -0.077,-0.286 0.036,-0.308 0.153,-0.032 0.421,0.319 0.572,0.521 0.153,0.217 0.356,0.608 0.356,0.608 L 1.502,0.345 1.569,0.523 H 1.526 c 0,0 0.065,0.119 0.093,0.222 0.028,0.103 -0.012,0.216 -0.028,0.238" style="fill:#1d1e48;fill-opacity:1;fill-rule:nonzero;stroke:none" id="path352"></path></g><g id="g354" transform="translate(891.4707,440.582)"><path d="M 0,0 C 0,0 0.048,0.201 0.327,0.353 0.608,0.504 0.862,0.468 0.924,0.357 0.998,0.221 0.946,0.019 0.793,-0.045 0.696,-0.061 0.662,-0.042 0.595,0.021 0.525,0.083 0.538,0.09 0.561,0.101 0.583,0.112 0.674,0.106 0.703,0.16 0.731,0.215 0.7,0.248 0.649,0.248 0.598,0.248 0.471,0.202 0.404,0.134 0.37,0.094 0.336,0.039 0.412,-0.027 c 0.077,-0.066 0.312,-0.248 0.312,-0.248 0,0 0.121,-0.157 0.001,-0.312 -0.121,-0.154 -0.409,-0.251 -0.409,-0.251 0,0 -0.478,-0.141 -0.955,-0.105 0,0 -0.013,0.017 0.021,0.026 0.034,0.01 0.514,0.162 0.857,0.379 0.048,0.026 0.118,0.093 0.006,0.169 C 0.132,-0.292 -0.029,-0.204 0,0" style="fill:#1d1e48;fill-opacity:1;fill-rule:nonzero;stroke:none" id="path356"></path></g></g></g></g></svg>
