<svg xmlns="http://www.w3.org/2000/svg" viewBox="0 0 270 270"><g id="레이어_2"><g id="svg51869"><g id="layer1"><path id="path50349" d="M270,135A135,135,0,1,1,135,0,135,135,0,0,1,270,135" style="fill:#221815"></path><path id="path50351" d="M149.57,170.27c1.72-1.57,3.1-1.62,4.82,0a18.06,18.06,0,0,0,11.92,4.87,11.51,11.51,0,0,0,11.07-7.59c-15.55-.48-17.22-35.53,1.48-38.54a11.39,11.39,0,0,0-10.78-7.72A11.88,11.88,0,0,0,160.4,124c-1.77,1.67-3.1,1.62-4.87,0a12.61,12.61,0,0,0-7.72-2.67A11.33,11.33,0,0,0,137.07,129c20.37,3.25,11.21,30.29-3.24,30.29-18.07,0-20.89-31.76-6.44-43.31-14.83-11.82-11.87-44.54,6.44-44.54,14.21,0,20.18,19.65,3.24,28.85A11.26,11.26,0,0,0,147.81,108a12,12,0,0,0,7.72-2.67c1.72-1.67,3.1-1.58,4.87,0a12.19,12.19,0,0,0,7.68,2.67,11.32,11.32,0,0,0,10.78-7.73c-4.73-1.33-8.69-5.72-10.4-14.88-3.34-18-17.12-30.05-34.15-30.05-22.37,0-34.1,17.36-35.72,34.3-.82,8.92-4.11,22.17-9.07,26.32,5.3,4.44,8.35,15.31,9.07,25.09,1.62,20.08,16,34.06,35.72,34.06,5.77,0,12.26-2.1,15.26-4.87" style="fill:#f49c00"></path><path id="path50353" d="M205.8,191.59H67.11V190H205.8Z" style="fill:#f49c00"></path><path id="path50355" d="M170.08,217a4.61,4.61,0,0,0,4.58-4.39c.1-1.14.52-2.86,1.14-3.38-.62-.53-1.05-2.24-1.14-3.39a4.58,4.58,0,0,0-4.58-4.39,4.5,4.5,0,0,0-4.53,4.39c-.14,1.14-.57,2.86-1.19,3.39.62.52,1,2.24,1.19,3.38a4.53,4.53,0,0,0,4.53,4.39m-.86-7.77c-2.19-1.77-1.33-5.49.86-5.49s3.1,3.72.86,5.49c2.24,1.76,1.33,5.43-.86,5.43s-3.05-3.67-.86-5.43" style="fill:#f49c00"></path><path id="path50357" d="M101.64,209.24c-2.15,2-1.62,6.39.24,6.63a1.5,1.5,0,0,1-1.39,1,1.4,1.4,0,0,1-1-.38.41.41,0,0,0-.62,0,1.59,1.59,0,0,1-1,.38,1.49,1.49,0,0,1-1.38-1c1.86-.24,2.38-4.63.24-6.63,1.43-1.34,1.86-4.34.52-4.34a1.26,1.26,0,0,0-.81.38c-.19.14-1.19,1.14-1.38,1.33-.38.38-.91.15-.72-.38a28.75,28.75,0,0,0,1.19-3.81c.1-.91.24-1,1.2-.53a8.11,8.11,0,0,0,2.48.57,7.86,7.86,0,0,0,2.43-.57c1-.43,1.1-.38,1.19.53a38.71,38.71,0,0,0,1.2,3.81c.19.53-.29.76-.67.38-.19-.19-1.2-1.19-1.43-1.33a1.09,1.09,0,0,0-.81-.38c-1.34,0-.91,3,.52,4.34" style="fill:#f49c00"></path><path id="path50359" d="M116,217a4.53,4.53,0,0,0,4.53-4.39c.14-1.14.57-2.86,1.19-3.38-.62-.53-1-2.24-1.19-3.39a4.56,4.56,0,0,0-9.11,0c-.1,1.14-.53,2.86-1.15,3.39.62.52,1,2.24,1.15,3.38A4.57,4.57,0,0,0,116,217m-.86-7.77c-2.24-1.77-1.34-5.49.86-5.49s3,3.72.85,5.49c2.2,1.76,1.34,5.43-.85,5.43s-3.1-3.67-.86-5.43" style="fill:#f49c00"></path><path id="path50361" d="M137.74,212.15c-1.52-.77-2.38-3.06-2.76-4.53,1.43-2.15,2.52-3.77,5-5a1.66,1.66,0,0,0-1.53-1,1.39,1.39,0,0,0-.91.38c-.19.19-.33.19-.57,0a1.43,1.43,0,0,0-.9-.38,1.8,1.8,0,0,0-1.63,1c1.15.14.62,2.48-1.81,4.38-.47-2,.15-4.24,1.48-4.38a1.52,1.52,0,0,0-1.38-1,1.59,1.59,0,0,0-1,.38.41.41,0,0,1-.62,0,1.54,1.54,0,0,0-1-.38,1.47,1.47,0,0,0-1.39,1c1.86.19,2.39,4.57.24,6.58,2.15,2,1.62,6.39-.24,6.63a1.5,1.5,0,0,0,1.39,1,1.86,1.86,0,0,0,1-.38c.23-.19.38-.24.62,0a1.59,1.59,0,0,0,1,.38,1.54,1.54,0,0,0,1.38-1c-1.67-.24-2-3.53-.81-5.82a4.43,4.43,0,0,1,1.05,2.72,1.91,1.91,0,0,1,.57,3.1,2.26,2.26,0,0,0,1.72,1,1,1,0,0,0,.81-.38q.21-.28.57,0a1.46,1.46,0,0,0,1,.38,1.28,1.28,0,0,0,1.24-1,4.1,4.1,0,0,1-2.44-3.72" style="fill:#f49c00"></path><path id="path50363" d="M151.43,202.61c-.81.66-.86,3.19,1.24,4.58,1.81-1.63,2.58-4.44,1.24-4.58a1.49,1.49,0,0,1,1.38-1,1.6,1.6,0,0,1,1,.33c.19.24.38.24.62,0a1.66,1.66,0,0,1,1-.33,1.53,1.53,0,0,1,1.38,1,8.51,8.51,0,0,0-4,6.63c-2.1,2-1.86,6.39,0,6.63a1.48,1.48,0,0,1-2.39.62c-.24-.19-.43-.19-.62,0a1.59,1.59,0,0,1-1,.38,1.44,1.44,0,0,1-1.38-1c1.86-.24,2.14-4.63,0-6.63a8.6,8.6,0,0,0-3.91-6.63,1.44,1.44,0,0,1,1.38-1,1.92,1.92,0,0,1,1,.33c.19.24.38.24.62,0a1.49,1.49,0,0,1,2.34.67" style="fill:#f49c00"></path><path id="path50365" d="M45.5,108.7v27.75H41.64V112.27H37.49V108.7Z" style="fill:#f49c00"></path><path id="path50367" d="M73.31,118v-.24a6,6,0,0,0-5.73-6.06,6.12,6.12,0,1,0,5.73,6.3m-6,18.46H62.72l5.91-9.11a7.76,7.76,0,0,1-1.62.14,9.05,9.05,0,0,1-9-9.35c0-5.63,4.11-10,9.54-10a9.67,9.67,0,0,1,9.59,9.68,12.22,12.22,0,0,1-2.1,6.44Z" style="fill:#f49c00"></path><path id="path50369" d="M191.26,128.3h3.91a4.94,4.94,0,0,0,5.2,5.15,5.07,5.07,0,0,0,5-5.15,5,5,0,0,0-5.2-5h-1.39v-3.91H200c2.53,0,4.1-1.48,4.1-3.91a3.79,3.79,0,0,0-3.76-3.82c-2.1,0-3.44,1.43-3.72,4h-3.87a7.52,7.52,0,0,1,7.73-7.49c4.29,0,7.49,3.39,7.49,7.87,0,2.2-.53,3.34-2.53,5.25a8,8,0,0,1,3.72,6.91,8.88,8.88,0,0,1-9.06,8.78,8.72,8.72,0,0,1-8.87-8.68" style="fill:#f49c00"></path><path id="path50371" d="M230.89,128.54V115.23l-8.2,13.31Zm3.91-19.84v19.84h2.91v3.57H234.8v4.34h-3.91v-4.34H218.25v-3.76l12.64-19.65Z" style="fill:#f49c00"></path><path id="path50373" d="M135,7.92C65,7.92,7.92,65,7.92,135S65,262.08,135,262.08A127.19,127.19,0,0,0,262.08,135c0-70.06-57-127.1-127.06-127.1m0,256.79C63.48,264.71,5.29,206.52,5.29,135A129.87,129.87,0,0,1,135,5.29c71.5,0,129.69,58.19,129.69,129.73S206.52,264.71,135,264.71" style="fill:#f49c00"></path><path id="path50375" d="M135,13.88A121.15,121.15,0,1,0,256.17,135,121.25,121.25,0,0,0,135,13.88m0,244.91C66.77,258.79,11.21,203.28,11.21,135A124,124,0,0,1,135,11.21c68.26,0,123.77,55.56,123.77,123.81A123.89,123.89,0,0,1,135,258.79" style="fill:#f49c00"></path></g></g></g></svg>